<svg width="174" height="49" viewBox="0 0 174 49" fill="none" xmlns="http://www.w3.org/2000/svg">
<path fill-rule="evenodd" clip-rule="evenodd" d="M24.4713 3C12.0607 3 2 13.2975 2 26C2 38.7025 12.0607 49 24.4713 49C29.1847 49 33.5593 47.5146 37.1724 44.9763C40.7856 47.5146 45.1601 49 49.8736 49C54.3766 49 58.5702 47.6443 62.0862 45.31C65.6022 47.6443 69.7958 49 74.2989 49C79.0123 49 83.3869 47.5146 87 44.9763C90.6131 47.5146 94.9877 49 99.7011 49C104.629 49 109.187 47.3764 112.891 44.6233C116.595 47.3764 121.152 49 126.08 49C130.377 49 134.391 47.7659 137.805 45.6253C141.218 47.7659 145.232 49 149.529 49C161.939 49 172 38.7025 172 26C172 13.2975 161.939 3 149.529 3C145.232 3 141.218 4.23405 137.805 6.37474C134.391 4.23405 130.377 3 126.08 3C121.152 3 116.595 4.62363 112.891 7.37675C109.187 4.62363 104.629 3 99.7011 3C94.9877 3 90.6131 4.48536 87 7.0237C83.3869 4.48536 79.0123 3 74.2989 3C69.7958 3 65.6022 4.35568 62.0862 6.69002C58.5702 4.35568 54.3766 3 49.8736 3C45.1601 3 40.7856 4.48536 37.1724 7.0237C33.5593 4.48536 29.1847 3 24.4713 3Z" fill="#2FA1A8"/>
<path fill-rule="evenodd" clip-rule="evenodd" d="M23 0C10.2975 0 0 10.2975 0 23C0 35.7025 10.2975 46 23 46C27.8244 46 32.3018 44.5146 36 41.9763C39.6982 44.5146 44.1756 46 49 46C53.609 46 57.9013 44.6443 61.5 42.31C65.0987 44.6443 69.391 46 74 46C78.8244 46 83.3018 44.5146 87 41.9763C90.6982 44.5146 95.1756 46 100 46C105.044 46 109.709 44.3764 113.5 41.6233C117.291 44.3764 121.956 46 127 46C131.397 46 135.507 44.7659 139 42.6253C142.493 44.7659 146.603 46 151 46C163.703 46 174 35.7025 174 23C174 10.2975 163.703 0 151 0C146.603 0 142.493 1.23405 139 3.37474C135.507 1.23405 131.397 0 127 0C121.956 0 117.291 1.62363 113.5 4.37675C109.709 1.62363 105.044 0 100 0C95.1756 0 90.6982 1.48536 87 4.0237C83.3018 1.48536 78.8244 0 74 0C69.391 0 65.0987 1.35568 61.5 3.69002C57.9013 1.35568 53.609 0 49 0C44.1756 0 39.6982 1.48536 36 4.0237C32.3018 1.48536 27.8244 0 23 0Z" fill="white"/>
<path fill-rule="evenodd" clip-rule="evenodd" d="M36 39.5505L37.1318 40.3274C40.5075 42.6443 44.5924 44 49 44C53.2111 44 57.1272 42.7626 60.4116 40.6321L61.5 39.9261L62.5884 40.6321C65.8728 42.7626 69.7888 44 74 44C78.4076 44 82.4925 42.6443 85.8682 40.3274L87 39.5505L88.1318 40.3274C91.5075 42.6443 95.5924 44 100 44C104.608 44 108.864 42.5183 112.325 40.0049L113.5 39.1516L114.675 40.0049C118.136 42.5183 122.392 44 127 44C131.018 44 134.767 42.8734 137.955 40.92L139 40.2796L140.045 40.92C143.233 42.8734 146.982 44 151 44C162.598 44 172 34.598 172 23C172 11.402 162.598 2 151 2C146.982 2 143.233 3.12656 140.045 5.08004L139 5.72035L137.955 5.08004C134.767 3.12656 131.018 2 127 2C122.392 2 118.136 3.4817 114.675 5.99508L113.5 6.84843L112.325 5.99508C108.864 3.4817 104.608 2 100 2C95.5924 2 91.5075 3.35566 88.1318 5.67265L87 6.4495L85.8682 5.67265C82.4925 3.35566 78.4076 2 74 2C69.7888 2 65.8728 3.23744 62.5884 5.36793L61.5 6.07394L60.4116 5.36793C57.1272 3.23744 53.2111 2 49 2C44.5924 2 40.5075 3.35566 37.1318 5.67265L36 6.4495L34.8682 5.67265C31.4925 3.35566 27.4076 2 23 2C11.402 2 2 11.402 2 23C2 34.598 11.402 44 23 44C27.4076 44 31.4925 42.6443 34.8682 40.3274L36 39.5505ZM36 4.0237C39.6982 1.48536 44.1756 0 49 0C53.609 0 57.9013 1.35568 61.5 3.69002C65.0987 1.35568 69.391 0 74 0C78.8244 0 83.3018 1.48536 87 4.0237C90.6982 1.48536 95.1756 0 100 0C105.044 0 109.709 1.62363 113.5 4.37675C117.291 1.62363 121.956 0 127 0C131.397 0 135.507 1.23405 139 3.37474C142.493 1.23405 146.603 0 151 0C163.703 0 174 10.2975 174 23C174 35.7025 163.703 46 151 46C146.603 46 142.493 44.7659 139 42.6253C135.507 44.7659 131.397 46 127 46C121.956 46 117.291 44.3764 113.5 41.6233C109.709 44.3764 105.044 46 100 46C95.1756 46 90.6982 44.5146 87 41.9763C83.3018 44.5146 78.8244 46 74 46C69.391 46 65.0987 44.6443 61.5 42.31C57.9013 44.6443 53.609 46 49 46C44.1756 46 39.6982 44.5146 36 41.9763C32.3018 44.5146 27.8244 46 23 46C10.2975 46 0 35.7025 0 23C0 10.2975 10.2975 0 23 0C27.8244 0 32.3018 1.48536 36 4.0237Z" fill="#2FA1A8"/>
<path fill-rule="evenodd" clip-rule="evenodd" d="M23 4C12.5066 4 4 12.5066 4 23C4 33.4934 12.5066 42 23 42C28.0289 42 32.6014 40.0463 36 36.8565C39.3986 40.0463 43.9711 42 49 42C53.7862 42 58.1591 40.2303 61.5 37.3094C64.8409 40.2303 69.2138 42 74 42C79.0288 42 83.6014 40.0463 87 36.8565C90.3986 40.0463 94.9712 42 100 42C105.28 42 110.057 39.8464 113.5 36.3697C116.943 39.8464 121.72 42 127 42C131.551 42 135.728 40.3999 139 37.7317C142.272 40.3999 146.449 42 151 42C161.493 42 170 33.4934 170 23C170 12.5066 161.493 4 151 4C146.449 4 142.272 5.60006 139 8.26832C135.728 5.60006 131.551 4 127 4C121.72 4 116.943 6.15359 113.5 9.63026C110.057 6.15359 105.28 4 100 4C94.9712 4 90.3986 5.95371 87 9.14351C83.6014 5.95371 79.0288 4 74 4C69.2138 4 64.8409 5.76975 61.5 8.69056C58.1591 5.76975 53.7862 4 49 4C43.9711 4 39.3986 5.95371 36 9.14351C32.6014 5.95371 28.0289 4 23 4Z" fill="url(#paint0_linear_1102_6742)"/>
<path d="M59.7639 25.266H48.6039C48.4419 25.266 48.3699 25.176 48.3699 25.032V23.466C48.3699 23.322 48.4419 23.25 48.6039 23.25H50.3859V18.984H48.6939C48.5139 18.984 48.4419 18.912 48.4419 18.768V17.202C48.4419 17.058 48.5139 16.968 48.6939 16.968H59.6739C59.8539 16.968 59.9259 17.058 59.9259 17.202V18.768C59.9259 18.912 59.8539 18.984 59.6739 18.984H57.9639V23.25H59.7639C59.9439 23.25 60.0159 23.322 60.0159 23.466V25.032C60.0159 25.176 59.9439 25.266 59.7639 25.266ZM55.7139 18.984H52.6539V23.25H55.7139V18.984ZM46.8039 27.966H61.5639C61.7259 27.966 61.7979 28.056 61.7979 28.2V29.784C61.7979 29.91 61.7259 30 61.5639 30H46.8039C46.6599 30 46.5879 29.91 46.5879 29.784V28.2C46.5879 28.056 46.6599 27.966 46.8039 27.966ZM71.0465 27.966H77.2745C77.4365 27.966 77.5085 28.056 77.5085 28.2V29.784C77.5085 29.91 77.4365 30 77.2745 30H62.5145C62.3705 30 62.2985 29.91 62.2985 29.784V28.2C62.2985 28.056 62.3705 27.966 62.5145 27.966H68.7605V25.644H64.7645C64.6025 25.644 64.5485 25.554 64.5485 25.428V20.568C64.5485 20.424 64.6025 20.316 64.7645 20.316H72.9545V18.858H64.7285C64.5845 18.858 64.5125 18.768 64.5125 18.606V17.13C64.5125 16.986 64.5845 16.896 64.7285 16.896H75.0245C75.1865 16.896 75.2585 16.986 75.2585 17.13V21.954C75.2585 22.08 75.1685 22.188 75.0065 22.188H66.8345V23.736H75.3845C75.5465 23.736 75.6365 23.808 75.6365 23.97V25.428C75.6365 25.554 75.5465 25.644 75.3845 25.644H71.0465V27.966ZM91.5811 23.538H89.7631C89.6011 23.538 89.5291 23.448 89.5291 23.304V15.924C89.5291 15.78 89.6011 15.69 89.7631 15.69H91.5811C91.7611 15.69 91.8331 15.78 91.8331 15.924V23.304C91.8331 23.448 91.7611 23.538 91.5811 23.538ZM88.1431 21.288L88.3591 22.656C88.3771 22.746 88.3231 22.836 88.1971 22.872C86.4691 23.268 83.3551 23.448 81.2851 23.448H78.3151C78.1531 23.448 78.0991 23.358 78.0991 23.232V21.72C78.0991 21.576 78.1531 21.576 78.3151 21.576H79.9531V18.39H78.6751C78.5131 18.39 78.4411 18.3 78.4411 18.156V16.752C78.4411 16.608 78.5131 16.518 78.6751 16.518H87.4231C87.6031 16.518 87.6571 16.608 87.6571 16.752V18.156C87.6571 18.3 87.6031 18.39 87.4231 18.39H86.2711V21.324C86.8471 21.252 87.3871 21.18 87.8731 21.09C88.0351 21.054 88.1071 21.108 88.1431 21.288ZM84.0571 21.486V18.39H82.1671V21.558C82.7971 21.54 83.4271 21.522 84.0571 21.486ZM83.7331 29.73H92.0131C92.1751 29.73 92.2651 29.802 92.2651 29.964V31.35C92.2651 31.494 92.1751 31.566 92.0131 31.566H81.6631C81.5191 31.566 81.4471 31.494 81.4471 31.35V27.264C81.4471 27.138 81.5191 27.03 81.6631 27.03H89.5471V26.148H81.6271C81.4831 26.148 81.4111 26.058 81.4111 25.896V24.564C81.4111 24.42 81.4831 24.33 81.6271 24.33H91.5991C91.7611 24.33 91.8331 24.42 91.8331 24.564V28.596C91.8331 28.74 91.7431 28.83 91.5811 28.83H83.7331V29.73ZM109.015 19.902H106.261C106.099 19.902 106.027 19.83 106.027 19.668V18.174C106.027 18.03 106.099 17.94 106.261 17.94H109.015V15.924C109.015 15.78 109.087 15.69 109.249 15.69H111.067C111.247 15.69 111.319 15.78 111.319 15.924V23.25C111.319 23.376 111.247 23.466 111.067 23.466H109.249C109.087 23.466 109.015 23.376 109.015 23.25V19.902ZM102.643 20.676C101.887 21.864 100.627 22.98 99.1689 23.754C99.0249 23.826 98.8809 23.844 98.7909 23.736L97.8369 22.35C97.7469 22.224 97.7109 22.044 97.8549 21.99C99.8169 20.928 101.509 19.2 101.509 17.688V16.482C101.509 16.356 101.563 16.266 101.725 16.266H103.561C103.705 16.266 103.777 16.356 103.777 16.482V17.688C103.777 19.182 105.091 20.676 107.161 21.72C107.305 21.792 107.269 21.936 107.179 22.062L106.279 23.43C106.207 23.556 106.045 23.538 105.901 23.466C104.479 22.746 103.381 21.774 102.643 20.676ZM103.201 29.73H111.427C111.571 29.73 111.661 29.802 111.661 29.964V31.35C111.661 31.494 111.571 31.566 111.427 31.566H101.149C101.005 31.566 100.933 31.494 100.933 31.35V27.228C100.933 27.102 101.005 26.994 101.149 26.994H109.051V26.076H101.113C100.969 26.076 100.897 25.986 100.897 25.842V24.492C100.897 24.348 100.969 24.258 101.113 24.258H111.085C111.247 24.258 111.319 24.348 111.319 24.492V28.542C111.319 28.686 111.229 28.794 111.067 28.794H103.201V29.73ZM122.061 19.29H124.725V15.924C124.725 15.78 124.797 15.69 124.959 15.69H126.777C126.957 15.69 127.029 15.78 127.029 15.924V24.456C127.029 24.6 126.957 24.672 126.777 24.672H124.959C124.797 24.672 124.725 24.6 124.725 24.456V21.216H122.061C121.899 21.216 121.827 21.144 121.827 20.982V19.524C121.827 19.38 121.899 19.29 122.061 19.29ZM118.353 22.044C117.507 23.106 116.229 24.024 114.717 24.708C114.591 24.78 114.411 24.744 114.339 24.636L113.547 23.286C113.457 23.142 113.457 22.98 113.601 22.908C115.707 21.936 117.201 20.802 117.201 19.29V18.552H114.249C114.087 18.552 114.015 18.48 114.015 18.336V16.824C114.015 16.698 114.087 16.608 114.249 16.608H122.349C122.511 16.608 122.583 16.698 122.583 16.824V18.336C122.583 18.48 122.511 18.552 122.349 18.552H119.487V19.29C119.487 20.712 120.693 21.594 122.835 22.53C122.979 22.584 122.979 22.746 122.907 22.872L122.187 24.258C122.115 24.384 121.953 24.366 121.809 24.312C120.513 23.808 119.235 23.016 118.353 22.044ZM121.683 25.104C125.463 25.104 127.191 26.454 127.191 28.398C127.191 30.324 125.463 31.692 121.683 31.692C117.903 31.692 116.175 30.324 116.175 28.398C116.175 26.454 117.903 25.104 121.683 25.104ZM121.683 29.766C123.933 29.766 124.923 29.208 124.923 28.398C124.923 27.588 123.933 27.048 121.683 27.048C119.433 27.048 118.461 27.588 118.461 28.398C118.461 29.208 119.433 29.766 121.683 29.766Z" fill="white"/>
<path d="M50.3859 23.25V26.25H53.3859V23.25H50.3859ZM50.3859 18.984H53.3859V15.984H50.3859V18.984ZM57.9639 18.984V15.984H54.9639V18.984H57.9639ZM57.9639 23.25H54.9639V26.25H57.9639V23.25ZM55.7139 18.984H58.7139V15.984H55.7139V18.984ZM52.6539 18.984V15.984H49.6539V18.984H52.6539ZM52.6539 23.25H49.6539V26.25H52.6539V23.25ZM55.7139 23.25V26.25H58.7139V23.25H55.7139ZM59.7639 22.266H48.6039V28.266H59.7639V22.266ZM48.6039 22.266C49.0702 22.266 49.9125 22.4076 50.6072 23.1431C51.2724 23.8475 51.3699 24.643 51.3699 25.032H45.3699C45.3699 25.565 45.5034 26.4775 46.2451 27.2629C47.0163 28.0794 47.9756 28.266 48.6039 28.266V22.266ZM51.3699 25.032V23.466H45.3699V25.032H51.3699ZM51.3699 23.466C51.3699 23.8574 51.268 24.749 50.4822 25.4886C49.7346 26.1923 48.8996 26.25 48.6039 26.25V20.25C48.1462 20.25 47.1942 20.3437 46.3701 21.1194C45.5078 21.931 45.3699 22.9306 45.3699 23.466H51.3699ZM48.6039 26.25H50.3859V20.25H48.6039V26.25ZM53.3859 23.25V18.984H47.3859V23.25H53.3859ZM50.3859 15.984H48.6939V21.984H50.3859V15.984ZM48.6939 15.984C48.9102 15.984 49.7322 16.0111 50.4935 16.6878C51.3366 17.4372 51.4419 18.3735 51.4419 18.768H45.4419C45.4419 19.3065 45.5832 20.3508 46.5073 21.1722C47.3496 21.9209 48.2975 21.984 48.6939 21.984V15.984ZM51.4419 18.768V17.202H45.4419V18.768H51.4419ZM51.4419 17.202C51.4419 17.5924 51.3423 18.4318 50.6217 19.1523C49.9012 19.8729 49.0663 19.968 48.6939 19.968V13.968C48.1415 13.968 47.1806 14.1081 46.3791 14.9097C45.5775 15.7112 45.4419 16.6676 45.4419 17.202H51.4419ZM48.6939 19.968H59.6739V13.968H48.6939V19.968ZM59.6739 19.968C59.3015 19.968 58.4666 19.8729 57.7461 19.1523C57.0255 18.4318 56.9259 17.5924 56.9259 17.202H62.9259C62.9259 16.6676 62.7903 15.7112 61.9887 14.9097C61.1872 14.1081 60.2263 13.968 59.6739 13.968V19.968ZM56.9259 17.202V18.768H62.9259V17.202H56.9259ZM56.9259 18.768C56.9259 18.3735 57.0312 17.4372 57.8743 16.6878C58.6356 16.0111 59.4575 15.984 59.6739 15.984V21.984C60.0703 21.984 61.0182 21.9209 61.8605 21.1722C62.7846 20.3508 62.9259 19.3065 62.9259 18.768H56.9259ZM59.6739 15.984H57.9639V21.984H59.6739V15.984ZM54.9639 18.984V23.25H60.9639V18.984H54.9639ZM57.9639 26.25H59.7639V20.25H57.9639V26.25ZM59.7639 26.25C59.5475 26.25 58.7256 26.2229 57.9643 25.5462C57.1212 24.7968 57.0159 23.8605 57.0159 23.466H63.0159C63.0159 22.9275 62.8746 21.8832 61.9505 21.0618C61.1082 20.3131 60.1603 20.25 59.7639 20.25V26.25ZM57.0159 23.466V25.032H63.0159V23.466H57.0159ZM57.0159 25.032C57.0159 24.6416 57.1155 23.8022 57.8361 23.0817C58.5566 22.3611 59.3915 22.266 59.7639 22.266V28.266C60.3163 28.266 61.2772 28.1259 62.0787 27.3243C62.8803 26.5228 63.0159 25.5664 63.0159 25.032H57.0159ZM55.7139 15.984H52.6539V21.984H55.7139V15.984ZM49.6539 18.984V23.25H55.6539V18.984H49.6539ZM52.6539 26.25H55.7139V20.25H52.6539V26.25ZM58.7139 23.25V18.984H52.7139V23.25H58.7139ZM46.8039 30.966H61.5639V24.966H46.8039V30.966ZM61.5639 30.966C61.0976 30.966 60.2553 30.8244 59.5606 30.0889C58.8954 29.3845 58.7979 28.589 58.7979 28.2H64.7979C64.7979 27.667 64.6644 26.7545 63.9227 25.9691C63.1515 25.1526 62.1922 24.966 61.5639 24.966V30.966ZM58.7979 28.2V29.784H64.7979V28.2H58.7979ZM58.7979 29.784C58.7979 29.2892 58.9476 28.4907 59.6203 27.8179C60.2989 27.1394 61.0977 27 61.5639 27V33C62.1921 33 63.1079 32.8156 63.863 32.0606C64.6122 31.3113 64.7979 30.4048 64.7979 29.784H58.7979ZM61.5639 27H46.8039V33H61.5639V27ZM46.8039 27C47.3769 27 48.1817 27.1981 48.8265 27.8832C49.4424 28.5376 49.5879 29.2929 49.5879 29.784H43.5879C43.5879 30.4011 43.7694 31.2644 44.4573 31.9953C45.1741 32.7569 46.0869 33 46.8039 33V27ZM49.5879 29.784V28.2H43.5879V29.784H49.5879ZM49.5879 28.2C49.5879 28.5892 49.4917 29.3386 48.8841 30.0221C48.2259 30.7626 47.3809 30.966 46.8039 30.966V24.966C46.0829 24.966 45.1299 25.2144 44.3997 26.0359C43.7201 26.8004 43.5879 27.6668 43.5879 28.2H49.5879ZM71.0465 27.966H68.0465V30.966H71.0465V27.966ZM68.7605 27.966V30.966H71.7605V27.966H68.7605ZM68.7605 25.644H71.7605V22.644H68.7605V25.644ZM72.9545 20.316V23.316H75.9545V20.316H72.9545ZM72.9545 18.858H75.9545V15.858H72.9545V18.858ZM66.8345 22.188V19.188H63.8345V22.188H66.8345ZM66.8345 23.736H63.8345V26.736H66.8345V23.736ZM71.0465 25.644V22.644H68.0465V25.644H71.0465ZM71.0465 30.966H77.2745V24.966H71.0465V30.966ZM77.2745 30.966C76.8082 30.966 75.9659 30.8244 75.2712 30.0889C74.606 29.3845 74.5085 28.589 74.5085 28.2H80.5085C80.5085 27.667 80.3751 26.7545 79.6333 25.9691C78.8621 25.1526 77.9028 24.966 77.2745 24.966V30.966ZM74.5085 28.2V29.784H80.5085V28.2H74.5085ZM74.5085 29.784C74.5085 29.2892 74.6582 28.4907 75.331 27.8179C76.0095 27.1394 76.8083 27 77.2745 27V33C77.9027 33 78.8185 32.8156 79.5736 32.0606C80.3228 31.3113 80.5085 30.4048 80.5085 29.784H74.5085ZM77.2745 27H62.5145V33H77.2745V27ZM62.5145 27C63.0875 27 63.8924 27.1981 64.5371 27.8832C65.153 28.5376 65.2985 29.2929 65.2985 29.784H59.2985C59.2985 30.4011 59.48 31.2644 60.1679 31.9953C60.8847 32.7569 61.7975 33 62.5145 33V27ZM65.2985 29.784V28.2H59.2985V29.784H65.2985ZM65.2985 28.2C65.2985 28.5892 65.2023 29.3386 64.5948 30.0221C63.9365 30.7626 63.0915 30.966 62.5145 30.966V24.966C61.7936 24.966 60.8405 25.2144 60.1103 26.0359C59.4308 26.8004 59.2985 27.6668 59.2985 28.2H65.2985ZM62.5145 30.966H68.7605V24.966H62.5145V30.966ZM71.7605 27.966V25.644H65.7605V27.966H71.7605ZM68.7605 22.644H64.7645V28.644H68.7605V22.644ZM64.7645 22.644C65.2324 22.644 66.1315 22.7894 66.8453 23.5984C67.495 24.3347 67.5485 25.1325 67.5485 25.428H61.5485C61.5485 25.8495 61.6291 26.7553 62.3463 27.5681C63.1276 28.4536 64.1346 28.644 64.7645 28.644V22.644ZM67.5485 25.428V20.568H61.5485V25.428H67.5485ZM67.5485 20.568C67.5485 20.7845 67.5232 21.4848 66.9958 22.188C66.3467 23.0535 65.4155 23.316 64.7645 23.316V17.316C63.9515 17.316 62.9124 17.6325 62.1958 18.588C61.6009 19.3812 61.5485 20.2075 61.5485 20.568H67.5485ZM64.7645 23.316H72.9545V17.316H64.7645V23.316ZM75.9545 20.316V18.858H69.9545V20.316H75.9545ZM72.9545 15.858H64.7285V21.858H72.9545V15.858ZM64.7285 15.858C65.3112 15.858 66.1939 16.0679 66.8613 16.8603C67.4526 17.5625 67.5125 18.3026 67.5125 18.606H61.5125C61.5125 19.0714 61.6085 19.9375 62.2718 20.7252C63.0111 21.6031 64.0018 21.858 64.7285 21.858V15.858ZM67.5125 18.606V17.13H61.5125V18.606H67.5125ZM67.5125 17.13C67.5125 17.5192 67.4163 18.2686 66.8088 18.9521C66.1505 19.6926 65.3055 19.896 64.7285 19.896V13.896C64.0076 13.896 63.0545 14.1444 62.3243 14.9659C61.6448 15.7304 61.5125 16.5968 61.5125 17.13H67.5125ZM64.7285 19.896H75.0245V13.896H64.7285V19.896ZM75.0245 19.896C74.5582 19.896 73.7159 19.7544 73.0212 19.0189C72.356 18.3145 72.2585 17.519 72.2585 17.13H78.2585C78.2585 16.597 78.1251 15.6845 77.3833 14.8991C76.6121 14.0826 75.6528 13.896 75.0245 13.896V19.896ZM72.2585 17.13V21.954H78.2585V17.13H72.2585ZM72.2585 21.954C72.2585 21.2984 72.4999 20.569 73.072 19.9969C73.6606 19.4083 74.3947 19.188 75.0065 19.188V25.188C75.7803 25.188 76.6405 24.9137 77.3146 24.2396C77.9722 23.582 78.2585 22.7356 78.2585 21.954H72.2585ZM75.0065 19.188H66.8345V25.188H75.0065V19.188ZM63.8345 22.188V23.736H69.8345V22.188H63.8345ZM66.8345 26.736H75.3845V20.736H66.8345V26.736ZM75.3845 26.736C75.0848 26.736 74.2963 26.677 73.5709 26.028C72.7814 25.3216 72.6365 24.4381 72.6365 23.97H78.6365C78.6365 23.3399 78.4466 22.3394 77.5717 21.5565C76.7607 20.831 75.8463 20.736 75.3845 20.736V26.736ZM72.6365 23.97V25.428H78.6365V23.97H72.6365ZM72.6365 25.428C72.6365 24.7426 72.9033 23.9449 73.5709 23.3475C74.2082 22.7773 74.9228 22.644 75.3845 22.644V28.644C76.0083 28.644 76.8488 28.4657 77.5717 27.819C78.3248 27.1451 78.6365 26.2394 78.6365 25.428H72.6365ZM75.3845 22.644H71.0465V28.644H75.3845V22.644ZM68.0465 25.644V27.966H74.0465V25.644H68.0465ZM88.1432 21.288L91.1064 20.8201L91.0969 20.7597L91.0849 20.6997L88.1432 21.288ZM88.3591 22.656L85.3959 23.1239L85.4054 23.1843L85.4174 23.2443L88.3591 22.656ZM88.1972 22.872L88.8673 25.7962L88.9448 25.7784L89.0213 25.7566L88.1972 22.872ZM79.9531 21.576V24.576H82.9531V21.576H79.9531ZM79.9531 18.39H82.9531V15.39H79.9531V18.39ZM86.2711 18.39V15.39H83.2711V18.39H86.2711ZM86.2711 21.324H83.2711V24.7223L86.6433 24.3008L86.2711 21.324ZM87.8731 21.09L88.4194 24.0398L88.4719 24.0301L88.5239 24.0186L87.8731 21.09ZM84.0571 21.486L84.2283 24.4811L87.0571 24.3195V21.486H84.0571ZM84.0571 18.39H87.0571V15.39H84.0571V18.39ZM82.1671 18.39V15.39H79.1671V18.39H82.1671ZM82.1671 21.558H79.1671V24.6449L82.2528 24.5568L82.1671 21.558ZM83.7332 29.73H80.7332V32.73H83.7332V29.73ZM89.5471 27.03V30.03H92.5471V27.03H89.5471ZM89.5471 26.148H92.5471V23.148H89.5471V26.148ZM83.7332 28.83V25.83H80.7332V28.83H83.7332ZM91.5812 20.538H89.7631V26.538H91.5812V20.538ZM89.7631 20.538C90.2294 20.538 91.0718 20.6796 91.7664 21.4151C92.4317 22.1195 92.5291 22.915 92.5291 23.304H86.5291C86.5291 23.837 86.6626 24.7495 87.4044 25.5349C88.1755 26.3514 89.1348 26.538 89.7631 26.538V20.538ZM92.5291 23.304V15.924H86.5291V23.304H92.5291ZM92.5291 15.924C92.5291 16.313 92.4317 17.1085 91.7664 17.8129C91.0718 18.5484 90.2294 18.69 89.7631 18.69V12.69C89.1348 12.69 88.1755 12.8766 87.4044 13.6931C86.6626 14.4785 86.5291 15.391 86.5291 15.924H92.5291ZM89.7631 18.69H91.5812V12.69H89.7631V18.69ZM91.5812 18.69C91.2087 18.69 90.3739 18.5949 89.6533 17.8743C88.9328 17.1538 88.8331 16.3144 88.8331 15.924H94.8331C94.8331 15.3896 94.6975 14.4332 93.896 13.6317C93.0944 12.8301 92.1336 12.69 91.5812 12.69V18.69ZM88.8331 15.924V23.304H94.8331V15.924H88.8331ZM88.8331 23.304C88.8331 22.9136 88.9328 22.0742 89.6533 21.3537C90.3739 20.6331 91.2087 20.538 91.5812 20.538V26.538C92.1336 26.538 93.0944 26.3979 93.896 25.5963C94.6975 24.7948 94.8331 23.8384 94.8331 23.304H88.8331ZM85.1799 21.7559L85.3959 23.1239L91.3224 22.1881L91.1064 20.8201L85.1799 21.7559ZM85.4174 23.2443C85.2681 22.498 85.424 21.7019 85.8812 21.0542C86.3239 20.4272 86.9148 20.1183 87.373 19.9874L89.0213 25.7566C89.6055 25.5897 90.2864 25.2178 90.7831 24.5143C91.2943 23.7901 91.4682 22.904 91.3009 22.0677L85.4174 23.2443ZM87.527 19.9478C86.1412 20.2654 83.3049 20.448 81.2851 20.448V26.448C83.4054 26.448 86.7971 26.2706 88.8673 25.7962L87.527 19.9478ZM81.2851 20.448H78.3151V26.448H81.2851V20.448ZM78.3151 20.448C78.7831 20.448 79.6821 20.5934 80.3959 21.4024C81.0456 22.1387 81.0991 22.9365 81.0991 23.232H75.0991C75.0991 23.6535 75.1797 24.5593 75.8969 25.3721C76.6782 26.2576 77.6852 26.448 78.3151 26.448V20.448ZM81.0991 23.232V21.72H75.0991V23.232H81.0991ZM81.0991 21.72C81.0991 21.8125 81.0993 22.2095 80.9191 22.6901C80.6893 23.3029 80.2315 23.882 79.5582 24.2411C79.0262 24.5248 78.5537 24.5605 78.4547 24.5685C78.3353 24.5782 78.2322 24.576 78.3151 24.576V18.576C78.3012 18.576 78.2563 18.5759 78.2097 18.5767C78.1626 18.5775 78.0759 18.5796 77.9714 18.588C77.8167 18.6005 77.3003 18.6452 76.7346 18.9469C75.0926 19.8227 75.0991 21.5107 75.0991 21.72H81.0991ZM78.3151 24.576H79.9531V18.576H78.3151V24.576ZM82.9531 21.576V18.39H76.9531V21.576H82.9531ZM79.9531 15.39H78.6751V21.39H79.9531V15.39ZM78.6751 15.39C79.1414 15.39 79.9838 15.5316 80.6784 16.2671C81.3437 16.9715 81.4411 17.767 81.4411 18.156H75.4411C75.4411 18.689 75.5746 19.6015 76.3164 20.3869C77.0875 21.2034 78.0468 21.39 78.6751 21.39V15.39ZM81.4411 18.156V16.752H75.4411V18.156H81.4411ZM81.4411 16.752C81.4411 17.141 81.3437 17.9365 80.6784 18.6409C79.9838 19.3764 79.1414 19.518 78.6751 19.518V13.518C78.0468 13.518 77.0875 13.7046 76.3164 14.5211C75.5746 15.3065 75.4411 16.219 75.4411 16.752H81.4411ZM78.6751 19.518H87.4231V13.518H78.6751V19.518ZM87.4231 19.518C87.0573 19.518 86.1197 19.4226 85.3654 18.5741C84.6764 17.799 84.6572 16.9559 84.6572 16.752H90.6572C90.6572 16.4041 90.6109 15.444 89.8499 14.5879C89.0236 13.6584 87.969 13.518 87.4231 13.518V19.518ZM84.6572 16.752V18.156H90.6572V16.752H84.6572ZM84.6572 18.156C84.6572 17.9521 84.6764 17.109 85.3654 16.3339C86.1197 15.4854 87.0573 15.39 87.4231 15.39V21.39C87.969 21.39 89.0236 21.2496 89.8499 20.3201C90.6109 19.464 90.6572 18.5039 90.6572 18.156H84.6572ZM87.4231 15.39H86.2711V21.39H87.4231V15.39ZM83.2711 18.39V21.324H89.2711V18.39H83.2711ZM86.6433 24.3008C87.2211 24.2286 87.8384 24.1474 88.4194 24.0398L87.3269 18.1402C86.9359 18.2126 86.4732 18.2754 85.899 18.3472L86.6433 24.3008ZM88.5239 24.0186C88.3132 24.0654 87.2855 24.2671 86.2758 23.5232C85.3725 22.8576 85.2156 21.9472 85.2014 21.8763L91.0849 20.6997C91.0347 20.4488 90.8238 19.4214 89.835 18.6928C88.7398 17.8859 87.5951 18.0786 87.2224 18.1614L88.5239 24.0186ZM87.0571 21.486V18.39H81.0571V21.486H87.0571ZM84.0571 15.39H82.1671V21.39H84.0571V15.39ZM79.1671 18.39V21.558H85.1671V18.39H79.1671ZM82.2528 24.5568C82.8757 24.539 83.5485 24.52 84.2283 24.4811L83.886 18.4909C83.3058 18.524 82.7186 18.541 82.0815 18.5592L82.2528 24.5568ZM83.7332 32.73H92.0131V26.73H83.7332V32.73ZM92.0131 32.73C91.7134 32.73 90.925 32.671 90.1995 32.022C89.41 31.3156 89.2651 30.4321 89.2651 29.964H95.2651C95.2651 29.3339 95.0753 28.3334 94.2003 27.5505C93.3893 26.825 92.4749 26.73 92.0131 26.73V32.73ZM89.2651 29.964V31.35H95.2651V29.964H89.2651ZM89.2651 31.35C89.2651 30.7673 89.4751 29.8846 90.2675 29.2173C90.9697 28.626 91.7097 28.566 92.0131 28.566V34.566C92.4786 34.566 93.3446 34.47 94.1323 33.8067C95.0102 33.0674 95.2651 32.0767 95.2651 31.35H89.2651ZM92.0131 28.566H81.6632V34.566H92.0131V28.566ZM81.6632 28.566C82.0536 28.566 82.8974 28.6656 83.6225 29.3907C84.3475 30.1157 84.4471 30.9596 84.4471 31.35H78.4471C78.4471 31.8844 78.5828 32.8363 79.3798 33.6333C80.1769 34.4304 81.1287 34.566 81.6632 34.566V28.566ZM84.4471 31.35V27.264H78.4471V31.35H84.4471ZM84.4471 27.264C84.4471 27.7412 84.3125 28.4187 83.7959 29.0322C83.2218 29.7139 82.4119 30.03 81.6632 30.03V24.03C80.7704 24.03 79.8525 24.4001 79.2064 25.1673C78.6178 25.8663 78.4471 26.6608 78.4471 27.264H84.4471ZM81.6632 30.03H89.5471V24.03H81.6632V30.03ZM92.5471 27.03V26.148H86.5471V27.03H92.5471ZM89.5471 23.148H81.6271V29.148H89.5471V23.148ZM81.6271 23.148C82.2098 23.148 83.0926 23.3579 83.7599 24.1503C84.3512 24.8525 84.4111 25.5926 84.4111 25.896H78.4111C78.4111 26.3614 78.5071 27.2275 79.1704 28.0152C79.9097 28.8931 80.9005 29.148 81.6271 29.148V23.148ZM84.4111 25.896V24.564H78.4111V25.896H84.4111ZM84.4111 24.564C84.4111 24.9532 84.3149 25.7026 83.7074 26.3861C83.0492 27.1266 82.2041 27.33 81.6271 27.33V21.33C80.9062 21.33 79.9531 21.5784 79.2229 22.3999C78.5434 23.1644 78.4111 24.0308 78.4111 24.564H84.4111ZM81.6271 27.33H91.5991V21.33H81.6271V27.33ZM91.5991 27.33C91.1328 27.33 90.2905 27.1884 89.5959 26.4529C88.9306 25.7485 88.8331 24.953 88.8331 24.564H94.8331C94.8331 24.031 94.6997 23.1185 93.9579 22.3331C93.1868 21.5166 92.2275 21.33 91.5991 21.33V27.33ZM88.8331 24.564V28.596H94.8331V24.564H88.8331ZM88.8331 28.596C88.8331 28.0312 89.026 27.2321 89.7047 26.5891C90.3638 25.9647 91.1201 25.83 91.5812 25.83V31.83C92.2042 31.83 93.0865 31.6503 93.8311 30.9449C94.5953 30.2209 94.8331 29.3048 94.8331 28.596H88.8331ZM91.5812 25.83H83.7332V31.83H91.5812V25.83ZM80.7332 28.83V29.73H86.7332V28.83H80.7332ZM109.015 19.902H112.015V16.902H109.015V19.902ZM109.015 17.94V20.94H112.015V17.94H109.015ZM102.643 20.676L105.133 19.0025L102.574 15.196L100.112 19.0654L102.643 20.676ZM99.1688 23.754L100.51 26.4373L100.543 26.4209L100.576 26.4038L99.1688 23.754ZM98.7909 23.736L96.3197 25.4369L96.3979 25.5506L96.4862 25.6565L98.7909 23.736ZM97.8369 22.35L100.308 20.6491L100.293 20.6275L100.278 20.6063L97.8369 22.35ZM97.8549 21.99L98.9082 24.799L99.1014 24.7265L99.2829 24.6283L97.8549 21.99ZM107.161 21.72L105.81 24.3986L105.819 24.4033L107.161 21.72ZM107.179 22.062L104.738 20.3183L104.704 20.3651L104.673 20.4131L107.179 22.062ZM106.279 23.43L103.773 21.7812L103.721 21.8598L103.674 21.9416L106.279 23.43ZM105.901 23.466L104.546 26.1425L104.552 26.1459L104.559 26.1493L105.901 23.466ZM103.201 29.73H100.201V32.73H103.201V29.73ZM109.051 26.994V29.994H112.051V26.994H109.051ZM109.051 26.076H112.051V23.076H109.051V26.076ZM103.201 28.794V25.794H100.201V28.794H103.201ZM109.015 16.902H106.261V22.902H109.015V16.902ZM106.261 16.902C106.554 16.902 107.439 16.9592 108.204 17.7244C108.97 18.4897 109.027 19.3753 109.027 19.668H103.027C103.027 20.1227 103.12 21.1253 103.962 21.9671C104.804 22.8088 105.806 22.902 106.261 22.902V16.902ZM109.027 19.668V18.174H103.027V19.668H109.027ZM109.027 18.174C109.027 18.5629 108.929 19.3585 108.264 20.0629C107.569 20.7984 106.727 20.94 106.261 20.94V14.94C105.633 14.94 104.673 15.1266 103.902 15.9431C103.16 16.7285 103.027 17.6411 103.027 18.174H109.027ZM106.261 20.94H109.015V14.94H106.261V20.94ZM112.015 17.94V15.924H106.015V17.94H112.015ZM112.015 15.924C112.015 16.313 111.917 17.1085 111.252 17.8129C110.557 18.5484 109.715 18.69 109.249 18.69V12.69C108.621 12.69 107.661 12.8766 106.89 13.6931C106.148 14.4785 106.015 15.391 106.015 15.924H112.015ZM109.249 18.69H111.067V12.69H109.249V18.69ZM111.067 18.69C110.694 18.69 109.86 18.5949 109.139 17.8743C108.418 17.1538 108.319 16.3144 108.319 15.924H114.319C114.319 15.3896 114.183 14.4332 113.382 13.6317C112.58 12.8301 111.619 12.69 111.067 12.69V18.69ZM108.319 15.924V23.25H114.319V15.924H108.319ZM108.319 23.25C108.319 22.7496 108.474 21.9105 109.2 21.2242C109.902 20.5613 110.691 20.466 111.067 20.466V26.466C111.622 26.466 112.537 26.3257 113.32 25.5863C114.128 24.8235 114.319 23.8764 114.319 23.25H108.319ZM111.067 20.466H109.249V26.466H111.067V20.466ZM109.249 20.466C109.715 20.466 110.514 20.6054 111.192 21.2839C111.865 21.9567 112.015 22.7552 112.015 23.25H106.015C106.015 23.8708 106.201 24.7773 106.95 25.5266C107.705 26.2816 108.621 26.466 109.249 26.466V20.466ZM112.015 23.25V19.902H106.015V23.25H112.015ZM100.112 19.0654C99.6794 19.745 98.8419 20.5311 97.7622 21.1042L100.576 26.4038C102.412 25.4289 104.094 23.983 105.174 22.2866L100.112 19.0654ZM97.8272 21.0707C97.9749 20.9969 98.3801 20.8125 98.9596 20.8125C99.6612 20.8125 100.496 21.0959 101.096 21.8154L96.4862 25.6565C97.1758 26.4841 98.1275 26.8125 98.9596 26.8125C99.6697 26.8125 100.219 26.5831 100.51 26.4373L97.8272 21.0707ZM101.262 22.0351L100.308 20.6491L95.3657 24.0509L96.3197 25.4369L101.262 22.0351ZM100.278 20.6063C100.462 20.8635 100.733 21.349 100.756 22.0431C100.769 22.4236 100.707 22.9875 100.368 23.5663C100.006 24.1848 99.4613 24.5916 98.9082 24.799L96.8015 19.181C96.1764 19.4154 95.5821 19.8649 95.1893 20.5363C94.8196 21.168 94.7448 21.7949 94.7598 22.2429C94.7874 23.072 95.1219 23.7105 95.3957 24.0937L100.278 20.6063ZM99.2829 24.6283C100.52 23.9589 101.725 23.0548 102.662 21.9979C103.539 21.0092 104.509 19.5096 104.509 17.688H98.5089C98.5089 17.3784 98.6327 17.4988 98.1728 18.0176C97.7733 18.4682 97.152 18.9591 96.4268 19.3517L99.2829 24.6283ZM104.509 17.688V16.482H98.5089V17.688H104.509ZM104.509 16.482C104.509 16.7775 104.455 17.5753 103.806 18.3116C103.092 19.1206 102.193 19.266 101.725 19.266V13.266C101.095 13.266 100.088 13.4564 99.3066 14.3419C98.5894 15.1547 98.5089 16.0605 98.5089 16.482H104.509ZM101.725 19.266H103.561V13.266H101.725V19.266ZM103.561 19.266C102.988 19.266 102.183 19.0679 101.538 18.3828C100.922 17.7284 100.777 16.9731 100.777 16.482H106.777C106.777 15.8649 106.595 15.0016 105.907 14.2707C105.191 13.5091 104.278 13.266 103.561 13.266V19.266ZM100.777 16.482V17.688H106.777V16.482H100.777ZM100.777 17.688C100.777 20.9404 103.446 23.2065 105.81 24.3986L108.512 19.0414C107.742 18.6531 107.247 18.2453 106.978 17.9296C106.708 17.6114 106.777 17.5279 106.777 17.688H100.777ZM105.819 24.4033C105.446 24.2165 104.999 23.8836 104.67 23.3379C104.337 22.7879 104.243 22.2194 104.26 21.7597C104.289 20.9625 104.643 20.4504 104.738 20.3183L109.62 23.8057C109.804 23.5476 110.222 22.9005 110.256 21.9818C110.275 21.4613 110.168 20.8354 109.805 20.2343C109.444 19.6374 108.948 19.2595 108.502 19.0367L105.819 24.4033ZM104.673 20.4131L103.773 21.7812L108.785 25.0788L109.685 23.7108L104.673 20.4131ZM103.674 21.9416C103.925 21.5021 104.303 21.1193 104.783 20.8601C105.242 20.6117 105.684 20.535 106.017 20.5239C106.627 20.5036 107.061 20.6919 107.242 20.7827L104.559 26.1493C104.885 26.3121 105.471 26.5454 106.217 26.5206C107.102 26.4911 108.229 26.0632 108.884 24.9184L103.674 21.9416ZM107.256 20.7895C106.248 20.2794 105.559 19.636 105.133 19.0025L100.153 22.3495C101.203 23.912 102.709 25.2126 104.546 26.1425L107.256 20.7895ZM103.201 32.73H111.427V26.73H103.201V32.73ZM111.427 32.73C111.038 32.73 110.242 32.6325 109.538 31.9673C108.802 31.2726 108.661 30.4303 108.661 29.964H114.661C114.661 29.3357 114.474 28.3764 113.658 27.6052C112.872 26.8635 111.96 26.73 111.427 26.73V32.73ZM108.661 29.964V31.35H114.661V29.964H108.661ZM108.661 31.35C108.661 30.773 108.864 29.928 109.605 29.2698C110.288 28.6622 111.038 28.566 111.427 28.566V34.566C111.96 34.566 112.826 34.4338 113.591 33.7542C114.412 33.024 114.661 32.071 114.661 31.35H108.661ZM111.427 28.566H101.149V34.566H111.427V28.566ZM101.149 28.566C101.539 28.566 102.383 28.6656 103.108 29.3907C103.833 30.1157 103.933 30.9596 103.933 31.35H97.9328C97.9328 31.8844 98.0685 32.8363 98.8655 33.6333C99.6626 34.4304 100.614 34.566 101.149 34.566V28.566ZM103.933 31.35V27.228H97.9328V31.35H103.933ZM103.933 27.228C103.933 27.7052 103.798 28.3827 103.282 28.9962C102.707 29.6779 101.898 29.994 101.149 29.994V23.994C100.256 23.994 99.3382 24.3641 98.6921 25.1313C98.1035 25.8303 97.9328 26.6248 97.9328 27.228H103.933ZM101.149 29.994H109.051V23.994H101.149V29.994ZM112.051 26.994V26.076H106.051V26.994H112.051ZM109.051 23.076H101.113V29.076H109.051V23.076ZM101.113 23.076C101.69 23.076 102.535 23.2794 103.193 24.0199C103.801 24.7034 103.897 25.4528 103.897 25.842H97.8969C97.8969 26.3752 98.0291 27.2416 98.7086 28.0061C99.4388 28.8276 100.392 29.076 101.113 29.076V23.076ZM103.897 25.842V24.492H97.8969V25.842H103.897ZM103.897 24.492C103.897 24.8812 103.801 25.6306 103.193 26.3141C102.535 27.0546 101.69 27.258 101.113 27.258V21.258C100.392 21.258 99.4388 21.5064 98.7086 22.3279C98.0291 23.0924 97.8969 23.9588 97.8969 24.492H103.897ZM101.113 27.258H111.085V21.258H101.113V27.258ZM111.085 27.258C110.619 27.258 109.776 27.1164 109.082 26.3809C108.416 25.6765 108.319 24.881 108.319 24.492H114.319C114.319 23.959 114.185 23.0465 113.444 22.2611C112.672 21.4446 111.713 21.258 111.085 21.258V27.258ZM108.319 24.492V28.542H114.319V24.492H108.319ZM108.319 28.542C108.319 27.9945 108.497 27.2681 109.079 26.6558C109.684 26.0187 110.452 25.794 111.067 25.794V31.794C111.844 31.794 112.738 31.5153 113.429 30.7882C114.096 30.0859 114.319 29.2335 114.319 28.542H108.319ZM111.067 25.794H103.201V31.794H111.067V25.794ZM100.201 28.794V29.73H106.201V28.794H100.201ZM124.725 19.29V22.29H127.725V19.29H124.725ZM124.725 21.216H127.725V18.216H124.725V21.216ZM118.353 22.044L120.575 20.028L118.205 17.4158L116.007 20.1748L118.353 22.044ZM114.717 24.708L113.481 21.9747L113.352 22.033L113.229 22.1033L114.717 24.708ZM114.339 24.636L111.752 26.154L111.796 26.2284L111.843 26.3001L114.339 24.636ZM113.547 23.286L116.135 21.768L116.114 21.7317L116.091 21.696L113.547 23.286ZM113.601 22.908L112.344 20.1841L112.302 20.2038L112.26 20.2247L113.601 22.908ZM117.201 18.552H120.201V15.552H117.201V18.552ZM119.487 18.552V15.552H116.487V18.552H119.487ZM122.835 22.53L121.634 25.279L121.707 25.311L121.782 25.339L122.835 22.53ZM122.907 22.872L120.303 21.3836L120.273 21.4357L120.245 21.489L122.907 22.872ZM122.187 24.258L124.792 25.7464L124.822 25.6943L124.85 25.641L122.187 24.258ZM121.809 24.312L120.722 27.108L120.739 27.1146L120.756 27.121L121.809 24.312ZM122.061 22.29H124.725V16.29H122.061V22.29ZM127.725 19.29V15.924H121.725V19.29H127.725ZM127.725 15.924C127.725 16.313 127.628 17.1085 126.963 17.8129C126.268 18.5484 125.426 18.69 124.959 18.69V12.69C124.331 12.69 123.372 12.8766 122.601 13.6931C121.859 14.4785 121.725 15.391 121.725 15.924H127.725ZM124.959 18.69H126.777V12.69H124.959V18.69ZM126.777 18.69C126.405 18.69 125.57 18.5949 124.85 17.8743C124.129 17.1538 124.029 16.3144 124.029 15.924H130.029C130.029 15.3896 129.894 14.4332 129.092 13.6317C128.291 12.8301 127.33 12.69 126.777 12.69V18.69ZM124.029 15.924V24.456H130.029V15.924H124.029ZM124.029 24.456C124.029 24.0615 124.135 23.1252 124.978 22.3758C125.739 21.6991 126.561 21.672 126.777 21.672V27.672C127.174 27.672 128.122 27.6089 128.964 26.8602C129.888 26.0388 130.029 24.9945 130.029 24.456H124.029ZM126.777 21.672H124.959V27.672H126.777V21.672ZM124.959 21.672C125.255 21.672 126.09 21.7297 126.838 22.4334C127.624 23.173 127.725 24.0646 127.725 24.456H121.725C121.725 24.9914 121.863 25.991 122.726 26.8026C123.55 27.5783 124.502 27.672 124.959 27.672V21.672ZM127.725 24.456V21.216H121.725V24.456H127.725ZM124.725 18.216H122.061V24.216H124.725V18.216ZM122.061 18.216C122.354 18.216 123.24 18.2732 124.005 19.0384C124.77 19.8037 124.827 20.6893 124.827 20.982H118.827C118.827 21.4367 118.921 22.4393 119.762 23.2811C120.604 24.1228 121.607 24.216 122.061 24.216V18.216ZM124.827 20.982V19.524H118.827V20.982H124.827ZM124.827 19.524C124.827 19.913 124.73 20.7085 124.065 21.4129C123.37 22.1484 122.528 22.29 122.061 22.29V16.29C121.433 16.29 120.474 16.4766 119.703 17.2931C118.961 18.0785 118.827 18.991 118.827 19.524H124.827ZM116.007 20.1748C115.533 20.7698 114.686 21.4296 113.481 21.9747L115.954 27.4413C117.773 26.6184 119.482 25.4422 120.7 23.9132L116.007 20.1748ZM113.229 22.1033C113.873 21.7356 114.543 21.6906 115.078 21.7942C115.594 21.8939 116.324 22.2045 116.836 22.9719L111.843 26.3001C112.427 27.1755 113.283 27.5581 113.938 27.6848C114.613 27.8154 115.436 27.7524 116.206 27.3127L113.229 22.1033ZM116.927 23.118L116.135 21.768L110.96 24.804L111.752 26.154L116.927 23.118ZM116.091 21.696C116.284 22.004 116.55 22.5881 116.472 23.3685C116.378 24.3083 115.807 25.1594 114.943 25.5913L112.26 20.2247C111.252 20.7286 110.609 21.6967 110.502 22.7715C110.41 23.6869 110.721 24.424 111.003 24.876L116.091 21.696ZM114.859 25.6319C116.022 25.0948 117.258 24.4094 118.238 23.4952C119.25 22.5505 120.201 21.1496 120.201 19.29H114.201C114.201 18.9424 114.406 18.8645 114.145 19.1078C113.851 19.3816 113.287 19.7492 112.344 20.1841L114.859 25.6319ZM120.201 19.29V18.552H114.201V19.29H120.201ZM117.201 15.552H114.249V21.552H117.201V15.552ZM114.249 15.552C114.545 15.552 115.38 15.6097 116.128 16.3134C116.914 17.053 117.015 17.9446 117.015 18.336H111.015C111.015 18.8714 111.153 19.871 112.016 20.6826C112.84 21.4583 113.792 21.552 114.249 21.552V15.552ZM117.015 18.336V16.824H111.015V18.336H117.015ZM117.015 16.824C117.015 17.3188 116.866 18.1173 116.193 18.7901C115.514 19.4686 114.716 19.608 114.249 19.608V13.608C113.621 13.608 112.705 13.7924 111.95 14.5474C111.201 15.2967 111.015 16.2031 111.015 16.824H117.015ZM114.249 19.608H122.349V13.608H114.249V19.608ZM122.349 19.608C121.883 19.608 121.084 19.4686 120.406 18.7901C119.733 18.1173 119.583 17.3189 119.583 16.824H125.583C125.583 16.2031 125.398 15.2967 124.649 14.5474C123.893 13.7924 122.978 13.608 122.349 13.608V19.608ZM119.583 16.824V18.336H125.583V16.824H119.583ZM119.583 18.336C119.583 17.9446 119.685 17.053 120.471 16.3134C121.219 15.6097 122.054 15.552 122.349 15.552V21.552C122.807 21.552 123.759 21.4583 124.583 20.6826C125.446 19.871 125.583 18.8714 125.583 18.336H119.583ZM122.349 15.552H119.487V21.552H122.349V15.552ZM116.487 18.552V19.29H122.487V18.552H116.487ZM116.487 19.29C116.487 21.0171 117.284 22.3564 118.345 23.3164C119.292 24.1737 120.505 24.7854 121.634 25.279L124.037 19.781C123.558 19.5718 123.186 19.3888 122.896 19.2236C122.604 19.0566 122.447 18.9363 122.371 18.8681C122.302 18.8055 122.345 18.8255 122.4 18.9382C122.463 19.0664 122.487 19.2002 122.487 19.29H116.487ZM121.782 25.339C121.338 25.1726 120.892 24.874 120.544 24.4228C120.202 23.981 120.041 23.5055 119.983 23.0983C119.874 22.3409 120.098 21.7419 120.303 21.3836L125.512 24.3604C125.789 23.8761 126.049 23.1331 125.922 22.2497C125.771 21.1905 125.069 20.1636 123.889 19.721L121.782 25.339ZM120.245 21.489L119.525 22.875L124.85 25.641L125.57 24.255L120.245 21.489ZM119.583 22.7696C119.835 22.3283 120.209 21.954 120.67 21.6997C121.109 21.4578 121.526 21.3791 121.826 21.3591C122.369 21.3229 122.755 21.4625 122.863 21.503L120.756 27.121C121.008 27.2155 121.547 27.3911 122.225 27.3459C123.032 27.2921 124.139 26.8897 124.792 25.7464L119.583 22.7696ZM122.897 21.516C121.918 21.1354 121.071 20.5739 120.575 20.028L116.132 24.06C117.4 25.4581 119.109 26.4806 120.722 27.108L122.897 21.516ZM121.683 28.104C123.288 28.104 124.01 28.4027 124.235 28.5468C124.319 28.6009 124.284 28.6004 124.237 28.5145C124.189 28.4271 124.191 28.3682 124.191 28.398H130.191C130.191 26.3824 129.221 24.6176 127.475 23.4972C125.891 22.4803 123.859 22.104 121.683 22.104V28.104ZM124.191 28.398C124.191 28.4188 124.191 28.3574 124.238 28.2716C124.285 28.1877 124.317 28.1894 124.23 28.2453C124.004 28.3913 123.281 28.692 121.683 28.692V34.692C123.866 34.692 125.897 34.3087 127.48 33.2892C129.216 32.1705 130.191 30.4107 130.191 28.398H124.191ZM121.683 28.692C120.086 28.692 119.363 28.3913 119.137 28.2453C119.05 28.1894 119.082 28.1877 119.129 28.2716C119.176 28.3574 119.175 28.4188 119.175 28.398H113.175C113.175 30.4107 114.151 32.1705 115.887 33.2892C117.47 34.3087 119.501 34.692 121.683 34.692V28.692ZM119.175 28.398C119.175 28.3682 119.178 28.4271 119.13 28.5145C119.083 28.6004 119.048 28.6009 119.132 28.5468C119.357 28.4027 120.079 28.104 121.683 28.104V22.104C119.508 22.104 117.476 22.4803 115.892 23.4972C114.146 24.6176 113.175 26.3824 113.175 28.398H119.175ZM121.683 32.766C122.978 32.766 124.289 32.6174 125.39 32.1161C126.601 31.565 127.923 30.3532 127.923 28.398H121.923C121.923 27.943 122.078 27.4854 122.357 27.1234C122.606 26.7992 122.857 26.6769 122.904 26.6554C122.953 26.6332 122.895 26.6673 122.669 26.7033C122.45 26.738 122.128 26.766 121.683 26.766V32.766ZM127.923 28.398C127.923 26.4283 126.583 25.2217 125.371 24.6802C124.274 24.19 122.968 24.048 121.683 24.048V30.048C122.132 30.048 122.458 30.0754 122.68 30.1098C122.911 30.1455 122.971 30.1796 122.923 30.1583C122.878 30.1378 122.621 30.0157 122.366 29.6872C122.079 29.3187 121.923 28.8544 121.923 28.398H127.923ZM121.683 24.048C120.401 24.048 119.094 24.1894 117.996 24.6841C116.769 25.2371 115.461 26.4522 115.461 28.398H121.461C121.461 28.8411 121.313 29.3008 121.028 29.6719C120.773 30.0046 120.513 30.1309 120.461 30.1544C120.408 30.1782 120.463 30.1449 120.691 30.1095C120.911 30.0754 121.234 30.048 121.683 30.048V24.048ZM115.461 28.398C115.461 30.3294 116.752 31.5494 117.977 32.112C119.079 32.618 120.391 32.766 121.683 32.766V26.766C121.239 26.766 120.919 26.738 120.703 26.7036C120.479 26.6679 120.427 26.6347 120.481 26.6595C120.534 26.684 120.788 26.8105 121.037 27.1386C121.314 27.5032 121.461 27.9562 121.461 28.398H115.461Z" fill="#2FA1A8"/>
<defs>
<linearGradient id="paint0_linear_1102_6742" x1="87" y1="4" x2="87" y2="42" gradientUnits="userSpaceOnUse">
<stop stop-color="#D5EAEA"/>
<stop offset="0.385417" stop-color="#B6EAEA"/>
<stop offset="1" stop-color="#59C5C5"/>
</linearGradient>
</defs>
</svg>
