<svg width="214" height="170" viewBox="0 0 214 170" fill="none" xmlns="http://www.w3.org/2000/svg">
<path d="M187.944 35.3832H162.09L160.449 5H53.6033L51.9628 35.3832H26.1084L5 138.177V165.462H209.052V138.177L187.944 35.3832Z" fill="#A6D8D5" stroke="#61647B" stroke-width="8.41251" stroke-miterlimit="10"/>
<path d="M107.023 124.556C148.668 124.556 182.427 105.407 182.427 81.7852C182.427 58.1637 148.668 39.0146 107.023 39.0146C65.3787 39.0146 31.6191 58.1637 31.6191 81.7852C31.6191 105.407 65.3787 124.556 107.023 124.556Z" fill="#9CA6AA" stroke="#61647B" stroke-width="8.41251" stroke-miterlimit="10"/>
<path d="M26.2635 116.003C30.0074 116.003 33.0425 114.384 33.0425 112.386C33.0425 110.388 30.0074 108.769 26.2635 108.769C22.5195 108.769 19.4844 110.388 19.4844 112.386C19.4844 114.384 22.5195 116.003 26.2635 116.003Z" fill="#61647B"/>
<path d="M25.1553 128.783C29.8362 128.783 33.6309 126.755 33.6309 124.254C33.6309 121.753 29.8362 119.726 25.1553 119.726C20.4743 119.726 16.6797 121.753 16.6797 124.254C16.6797 126.755 20.4743 128.783 25.1553 128.783Z" fill="#6AA29E"/>
<path d="M5 138.178H209.052" stroke="#61647B" stroke-width="8.41251" stroke-miterlimit="10"/>
<path d="M107.024 98.7228C144.193 98.7228 174.324 82.6308 174.324 62.7803C174.324 42.9299 144.193 26.8379 107.024 26.8379C69.8549 26.8379 39.7236 42.9299 39.7236 62.7803C39.7236 82.6308 69.8549 98.7228 107.024 98.7228Z" fill="black"/>
<path d="M173.231 69.2515C172.158 67.0362 169.823 65.4869 167.103 65.7182C166.458 65.7743 165.842 65.8584 165.274 65.9846C161.495 66.8048 155.641 66.0547 152.192 64.3091C148.743 62.5565 142.889 61.8064 139.111 62.6336C135.332 63.4538 129.478 62.7037 126.029 60.9581C123.365 59.6051 119.257 58.848 115.787 58.9601L112.373 70.7026C115.247 72.6515 119.117 74.2148 122.097 74.5023C125.945 74.8738 131.294 77.3765 134.042 80.0966C136.79 82.8166 142.139 85.3193 145.988 85.6909C148.428 85.9222 151.477 87.0229 154.078 88.481C163.83 83.3845 170.693 76.7246 173.238 69.2585L173.231 69.2515Z" fill="#44495C"/>
<path d="M46.9515 59.8361C47.5965 59.78 48.2134 59.6959 48.7812 59.5697C52.5598 58.7495 58.4135 59.4996 61.8627 61.2452C65.3118 62.9908 71.1655 63.7479 74.9441 62.9207C78.7227 62.1005 84.5765 62.8506 88.0256 64.5962C90.6895 65.9492 94.7977 66.7063 98.2678 66.5941L101.682 54.8517C98.8076 52.9028 94.9379 51.3395 91.9584 51.052C88.1097 50.6805 82.7608 48.1778 80.0127 45.4577C77.2646 42.7377 71.9156 40.2349 68.0669 39.8634C65.6273 39.632 62.5777 38.5314 59.9769 37.0732C50.2254 42.1698 43.3622 48.8297 40.8174 56.2958C41.89 58.5111 44.2245 60.0604 46.9445 59.8291L46.9515 59.8361Z" fill="#44495C"/>
<path d="M107.024 54.873C98.8495 54.873 92.2246 58.4133 92.2246 62.7738C92.2246 67.1343 98.8495 70.6745 107.024 70.6745C115.198 70.6745 121.823 67.1343 121.823 62.7738C121.823 58.4133 115.198 54.873 107.024 54.873ZM107.024 66.3491C103.329 66.3491 100.343 64.7507 100.343 62.7808C100.343 60.8109 103.336 59.2125 107.024 59.2125C110.711 59.2125 113.705 60.8109 113.705 62.7808C113.705 64.7507 110.711 66.3491 107.024 66.3491Z" fill="white"/>
<path d="M107.024 98.7228C144.193 98.7228 174.324 82.6308 174.324 62.7803C174.324 42.9299 144.193 26.8379 107.024 26.8379C69.8549 26.8379 39.7236 42.9299 39.7236 62.7803C39.7236 82.6308 69.8549 98.7228 107.024 98.7228Z" stroke="#61647B" stroke-width="8.41251" stroke-miterlimit="10"/>
<path fill-rule="evenodd" clip-rule="evenodd" d="M66.6982 13.4336H146.638L146.831 19.0209H66.5059L66.6982 13.4336Z" fill="#6AA29E"/>
</svg>
