<svg width="72" height="27" viewBox="0 0 72 27" fill="none" xmlns="http://www.w3.org/2000/svg">
<rect x="1" y="1" width="70" height="25" rx="12.5" fill="url(#paint0_linear_1193_5336)"/>
<path d="M21.9779 8.165H23.2909C23.4209 8.165 23.4729 8.23 23.4729 8.334V14.145C23.4729 14.249 23.4209 14.301 23.2909 14.301H21.9779C21.8609 14.301 21.8089 14.249 21.8089 14.145V13.118H20.5349C20.4179 13.118 20.3659 13.053 20.3659 12.949L20.3919 11.87C20.3919 11.766 20.4439 11.701 20.5609 11.701H21.8089V10.674H20.5609C20.4439 10.674 20.3919 10.609 20.3919 10.505L20.3659 9.426C20.3659 9.309 20.4179 9.257 20.5349 9.257H21.8089V8.334C21.8089 8.23 21.8609 8.165 21.9779 8.165ZM20.2099 11.376C20.2099 12.988 18.9229 14.171 17.0769 14.171C15.2309 14.171 13.9439 12.988 13.9439 11.376C13.9439 9.764 15.2309 8.581 17.0769 8.581C18.9229 8.581 20.2099 9.764 20.2099 11.376ZM15.5689 11.376C15.5689 12.13 16.2059 12.767 17.0769 12.767C17.9479 12.767 18.5849 12.13 18.5849 11.376C18.5849 10.609 17.9479 9.972 17.0769 9.972C16.2059 9.972 15.5689 10.609 15.5689 11.376ZM21.9779 14.886H23.3039C23.4209 14.886 23.4729 14.938 23.4729 15.042V19.423C23.4729 19.527 23.4209 19.592 23.3039 19.592H16.1409C16.0239 19.592 15.9719 19.527 15.9719 19.423V15.042C15.9719 14.938 16.0239 14.886 16.1409 14.886H17.4539C17.5709 14.886 17.6229 14.938 17.6229 15.042V15.952H21.8089V15.042C21.8089 14.938 21.8609 14.886 21.9779 14.886ZM17.6229 17.291V18.24H21.8089V17.291H17.6229ZM34.6504 19.592H33.3244C33.2074 19.592 33.1554 19.54 33.1554 19.436V8.334C33.1554 8.23 33.2074 8.165 33.3244 8.165H34.6504C34.7804 8.165 34.8324 8.23 34.8324 8.334V19.436C34.8324 19.54 34.7804 19.592 34.6504 19.592ZM26.3434 17.135C26.2264 17.187 26.1614 17.174 26.0964 17.083L25.4854 16.004C25.4204 15.9 25.4464 15.822 25.5504 15.77C28.3584 14.405 29.5154 13.079 29.5154 11.116V10.856H25.8754C25.7714 10.856 25.7194 10.804 25.7194 10.7V9.556C25.7194 9.452 25.7714 9.387 25.8754 9.387H31.0234C31.1534 9.387 31.1924 9.452 31.1924 9.556V11.116C31.1924 13.625 29.6324 15.51 26.3434 17.135ZM44.671 8.165H45.984C46.114 8.165 46.166 8.23 46.166 8.334V14.483C46.166 14.587 46.114 14.639 45.984 14.639H44.671C44.554 14.639 44.502 14.587 44.502 14.483V12.221H42.578C42.461 12.221 42.409 12.156 42.409 12.052V10.999C42.409 10.882 42.461 10.83 42.578 10.83H44.502V8.334C44.502 8.23 44.554 8.165 44.671 8.165ZM39.9 12.819C39.276 13.56 38.366 14.184 37.274 14.678C37.183 14.73 37.053 14.704 37.001 14.626L36.429 13.651C36.364 13.547 36.364 13.43 36.468 13.378C37.989 12.65 39.068 11.922 39.068 10.83V10.297H36.936C36.819 10.297 36.767 10.232 36.767 10.141V9.049C36.767 8.958 36.819 8.893 36.936 8.893H42.786C42.903 8.893 42.955 8.958 42.955 9.049V10.141C42.955 10.232 42.903 10.297 42.786 10.297H40.719V10.83C40.719 11.857 41.59 12.494 43.137 13.17C43.241 13.209 43.241 13.326 43.189 13.417L42.669 14.418C42.617 14.509 42.5 14.496 42.396 14.457C41.46 14.093 40.537 13.508 39.9 12.819ZM38.392 15.224H45.997C46.114 15.224 46.166 15.276 46.166 15.38V19.553C46.166 19.644 46.114 19.709 45.997 19.709H44.684C44.554 19.709 44.502 19.644 44.502 19.553V16.667H38.392C38.275 16.667 38.223 16.602 38.223 16.498V15.38C38.223 15.276 38.275 15.224 38.392 15.224ZM57.3306 16.498H56.0176C55.9006 16.498 55.8486 16.446 55.8486 16.342V8.334C55.8486 8.23 55.9006 8.165 56.0176 8.165H57.3306C57.4606 8.165 57.5126 8.23 57.5126 8.334V16.342C57.5126 16.446 57.4606 16.498 57.3306 16.498ZM51.1556 14.483C49.2966 14.483 47.9836 13.274 47.9836 11.558C47.9836 9.855 49.2966 8.646 51.1556 8.646C53.0146 8.646 54.3276 9.855 54.3276 11.558C54.3276 13.274 53.0146 14.483 51.1556 14.483ZM51.1556 13.079C52.0656 13.079 52.7026 12.468 52.7026 11.558C52.7026 10.648 52.0656 10.037 51.1556 10.037C50.2456 10.037 49.6086 10.648 49.6086 11.558C49.6086 12.468 50.2456 13.079 51.1556 13.079ZM57.5906 19.475H50.1156C49.9986 19.475 49.9466 19.41 49.9466 19.306V15.601C49.9466 15.51 49.9986 15.445 50.1156 15.445H51.4416C51.5586 15.445 51.6106 15.51 51.6106 15.601V18.006H57.5906C57.7076 18.006 57.7596 18.058 57.7596 18.175V19.306C57.7596 19.41 57.7076 19.475 57.5906 19.475Z" fill="#1E8E95"/>
<rect x="1" y="1" width="70" height="25" rx="12.5" stroke="url(#paint1_linear_1193_5336)" stroke-width="2"/>
<defs>
<linearGradient id="paint0_linear_1193_5336" x1="36" y1="2" x2="36" y2="25" gradientUnits="userSpaceOnUse">
<stop offset="0.135417" stop-color="#E8FFF8"/>
<stop offset="1" stop-color="#9ED1D2"/>
</linearGradient>
<linearGradient id="paint1_linear_1193_5336" x1="36" y1="2" x2="36" y2="25" gradientUnits="userSpaceOnUse">
<stop stop-color="white"/>
<stop offset="1" stop-color="#7DCCD1"/>
</linearGradient>
</defs>
</svg>
