<svg width="211" height="295" viewBox="0 0 211 295" fill="none" xmlns="http://www.w3.org/2000/svg">
<path d="M207.081 291.128C207.081 255.085 208.981 143.379 178.577 97.7725L89.8859 103.323C30.0149 96.7731 13.1559 99.7815 6.86487 105.99C4.02742 108.791 3.32324 112.379 3.32324 114.559C3.32324 118.567 6.40404 121.854 10.3288 122.191C11.6336 124.625 14.1967 126.282 17.1532 126.282C18.6496 126.282 20.0372 125.852 21.2229 125.117C22.4035 125.852 23.7963 126.282 25.2927 126.282C28.8395 126.282 31.8219 123.895 32.7332 120.643C62.7749 126.991 80.0326 137.714 91.7034 150.286C108.423 168.289 111.099 231.272 111.099 291.133H207.086L207.081 291.128Z" fill="#1B1B1B"/>
<path d="M206.786 191.926C202.437 147.288 193.816 115.03 181.161 96.0483L180.167 94.5571L89.9538 100.201C61.7761 97.1253 41.5412 96.0017 28.0996 96.7681C16.1182 97.4464 8.89511 99.6107 4.67519 103.779C0.64685 107.755 0.211914 112.643 0.211914 114.559C0.211914 119.55 3.72247 123.869 8.44982 125.023C10.4795 127.747 13.6846 129.388 17.1434 129.388C18.5414 129.388 19.9239 129.114 21.2131 128.591C22.5024 129.114 23.8849 129.388 25.2829 129.388C29.1041 129.388 32.5784 127.359 34.5201 124.21C59.2545 129.761 76.7452 138.75 89.4205 152.399C96.4985 160.02 101.599 177.837 104.576 205.347C106.906 226.835 107.988 254.096 107.988 291.133V294.24H210.188V291.133C210.188 289.305 210.188 287.286 210.198 285.09C210.25 263.872 210.333 228.357 206.786 191.931V191.926ZM203.985 285.07C203.985 286.09 203.985 287.074 203.98 288.021H114.201C114.113 229.015 111.493 167.031 93.977 148.168C79.9761 133.09 60.7199 123.377 33.3706 117.598L30.5228 116.998L29.7358 119.799C29.1766 121.787 27.3437 123.175 25.2829 123.175C24.4286 123.175 23.5897 122.932 22.8545 122.476L22.4817 122.243C21.6325 121.647 20.6695 120.602 20.9025 118.986C20.9025 118.986 19.9446 119.98 19.9808 122.227L19.5821 122.476C18.8469 122.932 18.0081 123.175 17.1537 123.175C16.025 123.175 14.8392 122.626 13.8865 121.839H13.9021C13.9021 121.839 10.5986 119.1 11.7843 115.636C11.7843 115.636 10.8109 117.179 10.5106 119.09C8.22199 118.846 6.44082 116.879 6.44082 114.564C6.44082 113.679 6.62723 110.603 9.05562 108.206C15.8282 101.521 39.905 100.983 89.5603 106.414L89.8243 106.445L176.967 100.993C204.337 144.394 204.088 246.402 203.995 285.08L203.985 285.07Z" fill="#786565"/>
<path d="M77.2894 103.479C89.4883 112.017 105.669 116.164 126.753 116.164C147.837 116.164 164.018 112.012 176.217 103.479C189.073 94.4796 197.384 79.0601 197.384 64.1946C197.384 54.0564 195.023 44.9849 187.981 35.6959C187.981 35.6959 187.981 35.6855 187.976 35.6803L186.288 9.92588C185.946 6.26516 183.802 3.04456 180.566 1.30481C177.325 -0.434937 173.457 -0.434937 170.221 1.30481L148.981 14.5911C148.981 14.5911 148.971 14.5911 148.961 14.5911C142.618 13.162 134.882 12.7374 126.758 12.7374C118.634 12.7374 110.893 13.1672 104.556 14.5911C104.551 14.5911 104.54 14.5911 104.535 14.5911L83.2956 1.30481C80.0543 -0.429759 76.1865 -0.429759 72.9504 1.30481C69.7091 3.04456 67.5706 6.26516 67.2289 9.92588L65.5409 35.6803C65.5409 35.6803 65.5409 35.6907 65.5357 35.6959C58.4939 44.9797 56.1328 54.0564 56.1328 64.1946C56.1328 79.0601 64.438 94.4796 77.2997 103.479H77.2894Z" fill="#1B1B1B"/>
<path d="M187.981 35.6959C187.981 35.6959 187.981 35.6855 187.976 35.6803L186.288 9.92588C185.946 6.26516 183.802 3.04456 180.566 1.30481C177.325 -0.434937 173.457 -0.434937 170.221 1.30481L148.981 14.5911C148.981 14.5911 148.971 14.5911 148.961 14.5911C142.618 13.162 134.882 12.7374 126.758 12.7374C118.634 12.7374 110.893 13.1672 104.556 14.5911C104.551 14.5911 104.54 14.5911 104.535 14.5911L83.2956 1.30481C80.0543 -0.429759 76.1865 -0.429759 72.9504 1.30481C69.7091 3.04456 67.5706 6.26516 67.2289 9.92588L65.5409 35.6803C65.5409 35.6803 65.5409 35.6907 65.5357 35.6959C58.4939 44.9797 56.1328 54.0564 56.1328 64.1946C56.1328 79.0601 64.438 94.4796 77.2997 103.479C89.4986 112.017 105.679 116.164 126.763 116.164C147.847 116.164 164.028 112.012 176.227 103.479C189.084 94.4796 197.394 79.0601 197.394 64.1946C197.394 54.0564 195.033 44.9849 187.991 35.6959H187.981ZM172.359 97.9643C161.33 105.684 146.413 109.433 126.753 109.433C107.093 109.433 92.1756 105.679 81.1468 97.9643C70.0352 90.1872 62.8536 76.932 62.8536 64.1946C62.8536 55.1075 65.7584 45.803 70.8275 38.6783C70.8275 38.6783 71.2106 38.1191 71.3504 37.9431C72.474 36.4984 74.8299 33.6299 78.6304 30.6475C78.6511 30.632 78.6408 30.5957 78.6149 30.6009C77.9521 30.7562 74.3794 31.6416 71.6766 33.2209C71.6559 33.2312 71.6352 33.2209 71.6404 33.195L73.929 10.5627C74.0636 9.13367 74.8661 7.92206 76.1347 7.24377C77.3877 6.57065 78.822 6.56547 80.075 7.21788L100.434 19.0906C100.434 19.0906 100.455 19.1269 100.434 19.1372C98.5702 20.2504 95.9813 21.2705 93.7755 23.44C93.7548 23.4607 93.7755 23.4969 93.7962 23.4866C94.5833 23.2484 99.875 21.6899 106.813 20.7372C115.072 19.6084 118.458 19.4686 126.758 19.4686C135.058 19.4686 138.445 19.6032 146.703 20.7372C153.641 21.6847 158.933 23.2432 159.72 23.4866C159.746 23.4969 159.762 23.4607 159.741 23.44C157.535 21.2705 154.941 20.2504 153.082 19.1372C153.067 19.1269 153.067 19.101 153.082 19.0906L173.441 7.21788C174.7 6.5603 176.134 6.57065 177.382 7.24377C178.65 7.92206 179.453 9.13367 179.587 10.5627L181.876 33.195C181.876 33.195 181.855 33.2312 181.84 33.2209C179.137 31.6416 175.564 30.7562 174.902 30.6009C174.876 30.5957 174.86 30.632 174.886 30.6475C178.687 33.6299 181.042 36.4984 182.166 37.9431C182.306 38.1191 182.689 38.6783 182.689 38.6783C187.753 45.8082 190.663 55.1075 190.663 64.1946C190.663 76.932 183.481 90.1872 172.37 97.9643H172.359Z" fill="#786565"/>
<path d="M110.365 61.4606C109.511 65.0022 108.335 68.6578 106.518 70.6771C104.701 72.6965 102.241 73.0796 100.32 72.6188C98.3991 72.158 96.3849 70.6978 95.6859 68.0727C94.9869 65.4475 95.6031 61.6574 96.4574 58.1157C97.3118 54.5741 98.4871 50.9186 100.305 48.8992C102.122 46.8799 104.581 46.4967 106.502 46.9575C108.423 47.4184 110.438 48.8785 111.137 51.5037C111.836 54.1288 111.219 57.919 110.365 61.4606Z" fill="#FFDA7B"/>
<path d="M157.054 61.4606C156.199 65.0022 155.024 68.6578 153.206 70.6771C151.389 72.6965 148.93 73.0796 147.009 72.6188C145.088 72.158 143.073 70.6978 142.374 68.0727C141.675 65.4475 142.292 61.6574 143.146 58.1157C144 54.5741 145.176 50.9186 146.993 48.8992C148.81 46.8799 151.27 46.4967 153.191 46.9575C155.112 47.4184 157.126 48.8785 157.825 51.5037C158.524 54.1288 157.908 57.919 157.054 61.4606Z" fill="#FFDA7B"/>
<path d="M125.2 79.117C127.748 79.117 129.814 77.0515 129.814 74.5036C129.814 71.9556 127.748 69.8901 125.2 69.8901C122.652 69.8901 120.587 71.9556 120.587 74.5036C120.587 77.0515 122.652 79.117 125.2 79.117Z" fill="#9F9090"/>
<path d="M137.321 82.3374C137.321 82.3374 135.928 85.6409 131.486 85.8273C127.302 85.9981 125.433 83.2176 125.226 82.8863C125.215 82.8655 125.2 82.8655 125.184 82.8863C124.977 83.2176 123.103 85.9981 118.924 85.8273C114.477 85.646 113.089 82.3374 113.089 82.3374" stroke="#9F9090" stroke-width="5.17782" stroke-miterlimit="10" stroke-linecap="round"/>
<path d="M166.285 115.916C133.944 106.699 104.307 112.457 99.2374 117.35C97.7359 118.8 96.7158 120.767 96.7158 123.02C96.7158 127.027 99.7966 130.315 103.721 130.652C105.026 133.085 107.589 134.742 110.546 134.742C112.042 134.742 113.43 134.313 114.616 133.577C115.796 134.313 117.189 134.742 118.685 134.742C121.305 134.742 123.615 133.437 125.013 131.449C144.186 132.361 156.447 153.543 156.447 153.543" fill="#1B1B1B"/>
<path d="M159.725 114.885C163.624 115.445 166.285 115.921 166.285 115.921C153.398 105.612 104.633 107.828 97.0785 115.124C94.8417 117.283 93.6094 120.089 93.6094 123.03C93.6094 128.022 97.1199 132.34 101.847 133.494C103.877 136.218 107.082 137.859 110.541 137.859C111.939 137.859 113.321 137.585 114.611 137.062C115.9 137.585 117.282 137.859 118.68 137.859C121.575 137.859 124.329 136.694 126.344 134.68C132.888 135.415 148.401 143.793 156.442 153.553C156.442 153.553 155.924 149.639 150.213 142.706C144.021 135.193 134.478 130.481 125.158 128.358L123.449 128.275L122.465 129.673C121.595 130.911 120.177 131.651 118.675 131.651C117.821 131.651 116.982 131.408 116.242 130.952L116.06 130.838C115.206 130.248 114.212 129.197 114.45 127.561C114.45 127.561 113.544 128.498 113.528 130.61L112.974 130.952C112.239 131.408 111.395 131.651 110.546 131.651C109.417 131.651 108.361 131.237 107.533 130.522C107.253 130.243 106.834 129.772 106.44 129.161L105.938 128.223C105.492 127.214 105.27 125.971 105.731 124.62C105.731 124.62 104.907 125.925 104.54 127.618L103.986 127.571C101.651 127.369 99.8228 125.381 99.8228 123.035C99.8228 121.451 100.677 120.291 101.397 119.602C104.835 116.283 119.763 109.154 159.73 114.896L159.725 114.885Z" fill="#786565"/>
</svg>
