<svg width="346" height="233" viewBox="0 0 346 233" fill="none" xmlns="http://www.w3.org/2000/svg">
<path d="M56 1.00001C52.134 1.00001 49 4.13402 49 8.00001V54C49 57.866 52.134 61 56 61H328C337.389 61 345 53.3888 345 44V8C345 4.13401 341.866 1 338 1L56 1.00001Z" fill="url(#paint0_linear_1193_5904)" stroke="url(#paint1_linear_1193_5904)" stroke-width="2"/>
<path d="M60.8533 1.00001C63.7647 1.00001 66.3721 2.80206 67.4013 5.52546L74.4695 24.2291C75.2047 26.1744 77.0671 27.4615 79.1467 27.4615H117C120.866 27.4615 124 30.5956 124 34.4616V54.0387C124 57.9047 120.866 61.0387 117 61.0387H18C8.61116 61.0387 1 53.4276 1 44.0387V8C1 4.13401 4.13401 1 8 1L60.8533 1.00001Z" fill="#D652A1" stroke="#D652A1" stroke-width="2"/>
<path d="M21.836 20.176H20.408C20.282 20.176 20.226 20.12 20.226 20.008V8.052C20.226 7.94 20.282 7.87 20.408 7.87H21.836C21.976 7.87 22.032 7.94 22.032 8.052V20.008C22.032 20.12 21.976 20.176 21.836 20.176ZM12.89 17.53C12.764 17.586 12.694 17.572 12.624 17.474L11.966 16.312C11.896 16.2 11.924 16.116 12.036 16.06C15.06 14.59 16.306 13.162 16.306 11.048V10.768H12.386C12.274 10.768 12.218 10.712 12.218 10.6V9.368C12.218 9.256 12.274 9.186 12.386 9.186H17.93C18.07 9.186 18.112 9.256 18.112 9.368V11.048C18.112 13.75 16.432 15.78 12.89 17.53ZM33.6354 10.418H35.4134C35.5534 10.418 35.6094 10.474 35.6094 10.6V11.804C35.6094 11.93 35.5534 12 35.4134 12H33.6354V14.604C33.6354 14.716 33.5794 14.786 33.4394 14.786H32.0114C31.8994 14.786 31.8434 14.716 31.8434 14.604V8.052C31.8434 7.94 31.8994 7.87 32.0114 7.87H33.4394C33.5794 7.87 33.6354 7.94 33.6354 8.052V10.418ZM27.3634 12.196C26.7894 13.134 25.7534 14.114 24.5914 14.744C24.4794 14.8 24.3534 14.814 24.2834 14.73L23.5554 13.666C23.4854 13.568 23.4574 13.442 23.5694 13.386C25.0254 12.616 26.4674 11.076 26.4674 9.704V8.626C26.4674 8.514 26.5234 8.444 26.6354 8.444H28.0634C28.1894 8.444 28.2454 8.514 28.2454 8.626V9.704C28.2454 11.006 29.3794 12.28 30.9474 13.078C31.0454 13.12 31.0174 13.232 30.9614 13.344L30.2754 14.436C30.2054 14.52 30.0794 14.506 29.9674 14.464C28.9314 13.904 27.9234 13.05 27.3634 12.196ZM29.5474 15.122C32.3614 15.122 33.7614 16.158 33.7614 17.712C33.7614 19.252 32.3614 20.316 29.5474 20.316C26.7194 20.316 25.3194 19.252 25.3194 17.712C25.3194 16.158 26.7194 15.122 29.5474 15.122ZM29.5474 18.818C31.3254 18.818 31.9834 18.342 31.9834 17.712C31.9834 17.082 31.3254 16.62 29.5474 16.62C27.7554 16.62 27.0974 17.082 27.0974 17.712C27.0974 18.342 27.7554 18.818 29.5474 18.818ZM44.8468 7.87H46.2608C46.4008 7.87 46.4568 7.94 46.4568 8.052V20.008C46.4568 20.12 46.4008 20.176 46.2608 20.176H44.8468C44.7207 20.176 44.6647 20.12 44.6647 20.008V8.052C44.6647 7.94 44.7207 7.87 44.8468 7.87ZM43.5307 15.836C43.6427 15.92 43.6287 16.046 43.5448 16.13L42.7048 17.11C42.6207 17.18 42.5227 17.18 42.4107 17.11C41.2347 16.172 40.2967 15.094 39.8207 14.142C39.3027 15.164 38.3367 16.326 37.1047 17.306C36.9927 17.39 36.8807 17.39 36.8107 17.306L35.9567 16.326C35.8727 16.242 35.8727 16.116 35.9707 16.046C37.6507 14.702 38.8827 13.022 38.8827 10.684V9.158C38.8827 9.06 38.9387 8.99 39.0647 8.99H40.4927C40.6047 8.99 40.6607 9.06 40.6607 9.158V10.684C40.6607 12.952 42.0467 14.66 43.5307 15.836ZM58.0741 11.216H59.8521C59.9921 11.216 60.0481 11.286 60.0481 11.412V12.616C60.0481 12.742 59.9921 12.798 59.8521 12.798H58.0741V16.676C58.0741 16.788 58.0181 16.844 57.8781 16.844H56.4501C56.3381 16.844 56.2821 16.788 56.2821 16.676V8.052C56.2821 7.94 56.3381 7.87 56.4501 7.87H57.8781C58.0181 7.87 58.0741 7.94 58.0741 8.052V11.216ZM54.4061 8.892V10.278C54.4061 12.714 52.4181 14.198 48.9881 15.262C48.8621 15.29 48.7641 15.276 48.7221 15.164L48.2881 14.016C48.2321 13.89 48.3021 13.792 48.4141 13.778C51.1861 12.868 52.6001 11.832 52.6001 10.39V10.278H48.9041C48.7781 10.278 48.7221 10.208 48.7221 10.096V8.892C48.7221 8.78 48.7781 8.724 48.9041 8.724H54.2241C54.3641 8.724 54.4061 8.78 54.4061 8.892ZM52.0541 18.468H58.3541C58.4801 18.468 58.5361 18.524 58.5361 18.65V19.868C58.5361 19.98 58.4801 20.05 58.3541 20.05H50.4441C50.3181 20.05 50.2621 19.98 50.2621 19.868V15.976C50.2621 15.864 50.3181 15.808 50.4441 15.808H51.8721C51.9981 15.808 52.0541 15.864 52.0541 15.976V18.468Z" fill="white"/>
<path d="M182.405 19.092H181.079C180.962 19.092 180.91 19.04 180.91 18.936V7.834C180.91 7.73 180.962 7.665 181.079 7.665H182.405C182.535 7.665 182.587 7.73 182.587 7.834V18.936C182.587 19.04 182.535 19.092 182.405 19.092ZM174.098 16.635C173.981 16.687 173.916 16.674 173.851 16.583L173.24 15.504C173.175 15.4 173.201 15.322 173.305 15.27C176.113 13.905 177.27 12.579 177.27 10.616V10.356H173.63C173.526 10.356 173.474 10.304 173.474 10.2V9.056C173.474 8.952 173.526 8.887 173.63 8.887H178.778C178.908 8.887 178.947 8.952 178.947 9.056V10.616C178.947 13.125 177.387 15.01 174.098 16.635ZM193.362 10.031H195.013C195.143 10.031 195.195 10.083 195.195 10.2V11.318C195.195 11.435 195.143 11.5 195.013 11.5H193.362V13.918C193.362 14.022 193.31 14.087 193.18 14.087H191.854C191.75 14.087 191.698 14.022 191.698 13.918V7.834C191.698 7.73 191.75 7.665 191.854 7.665H193.18C193.31 7.665 193.362 7.73 193.362 7.834V10.031ZM187.538 11.682C187.005 12.553 186.043 13.463 184.964 14.048C184.86 14.1 184.743 14.113 184.678 14.035L184.002 13.047C183.937 12.956 183.911 12.839 184.015 12.787C185.367 12.072 186.706 10.642 186.706 9.368V8.367C186.706 8.263 186.758 8.198 186.862 8.198H188.188C188.305 8.198 188.357 8.263 188.357 8.367V9.368C188.357 10.577 189.41 11.76 190.866 12.501C190.957 12.54 190.931 12.644 190.879 12.748L190.242 13.762C190.177 13.84 190.06 13.827 189.956 13.788C188.994 13.268 188.058 12.475 187.538 11.682ZM189.566 14.399C192.179 14.399 193.479 15.361 193.479 16.804C193.479 18.234 192.179 19.222 189.566 19.222C186.94 19.222 185.64 18.234 185.64 16.804C185.64 15.361 186.94 14.399 189.566 14.399ZM189.566 17.831C191.217 17.831 191.828 17.389 191.828 16.804C191.828 16.219 191.217 15.79 189.566 15.79C187.902 15.79 187.291 16.219 187.291 16.804C187.291 17.389 187.902 17.831 189.566 17.831ZM203.772 7.665H205.085C205.215 7.665 205.267 7.73 205.267 7.834V18.936C205.267 19.04 205.215 19.092 205.085 19.092H203.772C203.655 19.092 203.603 19.04 203.603 18.936V7.834C203.603 7.73 203.655 7.665 203.772 7.665ZM202.55 15.062C202.654 15.14 202.641 15.257 202.563 15.335L201.783 16.245C201.705 16.31 201.614 16.31 201.51 16.245C200.418 15.374 199.547 14.373 199.105 13.489C198.624 14.438 197.727 15.517 196.583 16.427C196.479 16.505 196.375 16.505 196.31 16.427L195.517 15.517C195.439 15.439 195.439 15.322 195.53 15.257C197.09 14.009 198.234 12.449 198.234 10.278V8.861C198.234 8.77 198.286 8.705 198.403 8.705H199.729C199.833 8.705 199.885 8.77 199.885 8.861V10.278C199.885 12.384 201.172 13.97 202.55 15.062ZM216.055 10.772H217.706C217.836 10.772 217.888 10.837 217.888 10.954V12.072C217.888 12.189 217.836 12.241 217.706 12.241H216.055V15.842C216.055 15.946 216.003 15.998 215.873 15.998H214.547C214.443 15.998 214.391 15.946 214.391 15.842V7.834C214.391 7.73 214.443 7.665 214.547 7.665H215.873C216.003 7.665 216.055 7.73 216.055 7.834V10.772ZM212.649 8.614V9.901C212.649 12.163 210.803 13.541 207.618 14.529C207.501 14.555 207.41 14.542 207.371 14.438L206.968 13.372C206.916 13.255 206.981 13.164 207.085 13.151C209.659 12.306 210.972 11.344 210.972 10.005V9.901H207.54C207.423 9.901 207.371 9.836 207.371 9.732V8.614C207.371 8.51 207.423 8.458 207.54 8.458H212.48C212.61 8.458 212.649 8.51 212.649 8.614ZM210.465 17.506H216.315C216.432 17.506 216.484 17.558 216.484 17.675V18.806C216.484 18.91 216.432 18.975 216.315 18.975H208.97C208.853 18.975 208.801 18.91 208.801 18.806V15.192C208.801 15.088 208.853 15.036 208.97 15.036H210.296C210.413 15.036 210.465 15.088 210.465 15.192V17.506ZM224.668 18H223.251C223.147 18 223.082 17.935 223.082 17.831V10.798L221.34 11.487C221.249 11.526 221.171 11.5 221.119 11.396L220.872 10.928C220.833 10.837 220.846 10.759 220.924 10.694L223.446 8.536C223.511 8.471 223.576 8.458 223.654 8.458H224.668C224.772 8.458 224.837 8.523 224.837 8.627V17.831C224.837 17.935 224.772 18 224.668 18ZM235.337 12.592H227.953C227.823 12.592 227.784 12.54 227.784 12.436V8.172C227.784 8.068 227.823 8.003 227.953 8.003H229.266C229.37 8.003 229.422 8.068 229.422 8.172V9.121H233.855V8.172C233.855 8.068 233.907 8.003 234.024 8.003H235.337C235.454 8.003 235.506 8.068 235.506 8.172V12.436C235.506 12.54 235.454 12.592 235.337 12.592ZM233.855 11.292V10.408H229.422V11.292H233.855ZM226.315 13.502H236.975C237.092 13.502 237.144 13.58 237.144 13.684V14.724C237.144 14.828 237.092 14.893 236.975 14.893H232.594V16.648C232.594 16.752 232.529 16.817 232.425 16.817H231.099C230.982 16.817 230.93 16.752 230.93 16.648V14.893H226.315C226.211 14.893 226.159 14.828 226.159 14.724V13.684C226.159 13.58 226.211 13.502 226.315 13.502ZM229.37 17.675H235.688C235.818 17.675 235.87 17.74 235.87 17.844V18.884C235.87 18.988 235.818 19.053 235.688 19.053H227.901C227.784 19.053 227.732 18.988 227.732 18.884V15.842C227.732 15.738 227.784 15.673 227.901 15.673H229.214C229.331 15.673 229.37 15.738 229.37 15.842V17.675ZM246.628 10.447H248.552V7.834C248.552 7.73 248.604 7.665 248.721 7.665H250.034C250.164 7.665 250.216 7.73 250.216 7.834V15.842C250.216 15.946 250.164 15.998 250.034 15.998H248.721C248.604 15.998 248.552 15.946 248.552 15.842V11.877H246.628C246.511 11.877 246.459 11.812 246.459 11.695V10.629C246.459 10.512 246.511 10.447 246.628 10.447ZM243.95 12.566C243.339 13.333 242.416 13.996 241.324 14.49C241.233 14.542 241.103 14.516 241.051 14.438L240.479 13.463C240.414 13.359 240.414 13.242 240.518 13.19C242.039 12.488 243.118 11.669 243.118 10.577V9.836H240.986C240.869 9.836 240.817 9.771 240.817 9.68V8.549C240.817 8.458 240.869 8.393 240.986 8.393H246.836C246.953 8.393 247.005 8.458 247.005 8.549V9.68C247.005 9.771 246.953 9.836 246.836 9.836H244.769V10.577C244.769 11.604 245.64 12.241 247.187 12.917C247.291 12.956 247.291 13.073 247.239 13.164L246.719 14.165C246.667 14.256 246.55 14.243 246.446 14.204C245.51 13.84 244.587 13.268 243.95 12.566ZM244.314 17.506H250.294C250.411 17.506 250.463 17.558 250.463 17.675V18.806C250.463 18.91 250.411 18.975 250.294 18.975H242.819C242.702 18.975 242.65 18.91 242.65 18.806V15.231C242.65 15.127 242.702 15.062 242.819 15.062H244.08C244.197 15.062 244.314 15.127 244.314 15.231V17.506ZM260.509 7.665H261.822C261.939 7.665 261.978 7.73 261.978 7.834V18.936C261.978 19.04 261.939 19.092 261.822 19.092H260.509C260.405 19.092 260.353 19.04 260.353 18.936V7.834C260.353 7.73 260.405 7.665 260.509 7.665ZM257.974 7.912H259.261C259.378 7.912 259.43 7.977 259.43 8.081V18.585C259.43 18.689 259.378 18.754 259.261 18.754H257.974C257.87 18.754 257.818 18.689 257.818 18.585V13.164H256.83C256.687 15.283 255.725 16.453 254.191 16.453C252.54 16.453 251.552 15.075 251.552 12.605C251.552 10.135 252.54 8.77 254.191 8.77C255.634 8.77 256.57 9.797 256.791 11.682H257.818V8.081C257.818 7.977 257.87 7.912 257.974 7.912ZM254.191 14.984C254.919 14.984 255.231 14.204 255.231 12.605C255.231 11.006 254.919 10.239 254.191 10.239C253.476 10.239 253.177 11.006 253.177 12.605C253.177 14.204 253.476 14.984 254.191 14.984ZM275.076 10.148H276.727C276.857 10.148 276.909 10.213 276.909 10.33V11.448C276.909 11.565 276.857 11.617 276.727 11.617H275.076V13.957C275.076 14.061 275.024 14.113 274.894 14.113H273.568C273.464 14.113 273.412 14.061 273.412 13.957V7.834C273.412 7.73 273.464 7.665 273.568 7.665H274.894C275.024 7.665 275.076 7.73 275.076 7.834V10.148ZM271.995 8.432V13.437C271.995 13.528 271.956 13.593 271.839 13.593H266.327C266.197 13.593 266.145 13.528 266.145 13.437V8.432C266.145 8.328 266.197 8.263 266.327 8.263H267.614C267.731 8.263 267.783 8.328 267.783 8.432V9.667H270.383V8.432C270.383 8.328 270.422 8.263 270.539 8.263H271.839C271.956 8.263 271.995 8.328 271.995 8.432ZM267.783 11.006V12.202H270.383V11.006H267.783ZM271.28 14.412C273.854 14.412 275.193 15.413 275.193 16.817C275.193 18.195 273.854 19.209 271.28 19.209C268.693 19.209 267.354 18.208 267.354 16.817C267.354 15.413 268.693 14.412 271.28 14.412ZM271.28 17.818C272.905 17.818 273.542 17.363 273.542 16.817C273.542 16.271 272.905 15.816 271.28 15.816C269.655 15.816 269.005 16.271 269.005 16.817C269.005 17.363 269.655 17.818 271.28 17.818ZM286.8 19.092H285.487C285.37 19.092 285.318 19.04 285.318 18.936V7.834C285.318 7.73 285.37 7.665 285.487 7.665H286.8C286.93 7.665 286.982 7.73 286.982 7.834V18.936C286.982 19.04 286.93 19.092 286.8 19.092ZM280.612 16.531C278.584 16.531 277.245 15.166 277.245 12.579C277.245 10.005 278.584 8.64 280.612 8.64C282.653 8.64 283.979 10.005 283.979 12.579C283.979 15.166 282.653 16.531 280.612 16.531ZM280.612 15.049C281.704 15.049 282.341 14.23 282.341 12.579C282.341 10.941 281.704 10.109 280.612 10.109C279.533 10.109 278.896 10.941 278.896 12.579C278.896 14.23 279.533 15.049 280.612 15.049ZM298.104 11.058H299.391V10.044H298.104C297.987 10.044 297.935 9.979 297.935 9.862L297.909 8.822C297.909 8.718 297.961 8.653 298.078 8.653H299.391V7.834C299.391 7.73 299.443 7.665 299.56 7.665H300.873C301.003 7.665 301.055 7.73 301.055 7.834V13.099C301.055 13.19 301.003 13.255 300.873 13.255H299.56C299.443 13.255 299.391 13.19 299.391 13.099V12.449H298.078C297.961 12.449 297.909 12.384 297.909 12.267L297.935 11.24C297.935 11.123 297.987 11.058 298.104 11.058ZM297.753 10.655C297.753 12.163 296.557 13.346 294.633 13.346C292.722 13.346 291.526 12.163 291.526 10.655C291.526 9.134 292.722 7.951 294.633 7.951C296.557 7.951 297.753 9.134 297.753 10.655ZM293.151 10.655C293.151 11.409 293.684 12.007 294.633 12.007C295.582 12.007 296.141 11.409 296.141 10.655C296.141 9.888 295.582 9.29 294.633 9.29C293.684 9.29 293.151 9.888 293.151 10.655ZM295.205 17.805H301.185C301.302 17.805 301.367 17.857 301.367 17.974V18.975C301.367 19.079 301.302 19.131 301.185 19.131H293.71C293.606 19.131 293.554 19.079 293.554 18.975V15.985C293.554 15.894 293.606 15.816 293.71 15.816H299.404V15.14H293.684C293.58 15.14 293.528 15.075 293.528 14.971V13.996C293.528 13.892 293.58 13.827 293.684 13.827H300.886C301.003 13.827 301.055 13.892 301.055 13.996V16.934C301.055 17.038 300.99 17.116 300.873 17.116H295.205V17.805ZM310.906 7.665H312.219C312.349 7.665 312.401 7.73 312.401 7.834V18.936C312.401 19.04 312.349 19.092 312.219 19.092H310.906C310.789 19.092 310.737 19.04 310.737 18.936V14.334H309.021C308.891 14.334 308.839 14.269 308.839 14.152V13.086C308.839 12.969 308.891 12.904 309.021 12.904H310.737V11.344H309.073C308.956 11.344 308.904 11.292 308.904 11.175V10.096C308.904 9.992 308.956 9.927 309.073 9.927H310.737V7.834C310.737 7.73 310.789 7.665 310.906 7.665ZM308.748 14.88L308.917 15.907C308.93 15.998 308.904 16.037 308.774 16.063C307.63 16.31 306.252 16.466 304.692 16.466H303.197C303.093 16.466 303.041 16.401 303.041 16.297V12.072C303.041 11.968 303.093 11.903 303.197 11.903H306.512V10.07H303.171C303.067 10.07 303.015 10.018 303.015 9.901V8.861C303.015 8.77 303.067 8.705 303.171 8.705H307.981C308.098 8.705 308.137 8.77 308.137 8.861V13.034C308.137 13.138 308.085 13.203 307.968 13.203H304.692V15.088H304.952C305.94 15.088 307.396 14.984 308.527 14.724C308.644 14.711 308.722 14.75 308.748 14.88ZM322.162 16.531H324.58C324.697 16.531 324.749 16.596 324.749 16.7V17.844C324.749 17.935 324.697 18 324.58 18H313.92C313.816 18 313.764 17.935 313.764 17.844V16.7C313.764 16.596 313.816 16.531 313.92 16.531H316.351V13.827C315.584 13.32 315.103 12.54 315.103 11.487C315.103 9.394 317.001 8.406 319.25 8.406C321.499 8.406 323.41 9.394 323.41 11.487C323.41 12.54 322.929 13.307 322.162 13.814V16.531ZM319.25 9.862C317.82 9.862 316.754 10.356 316.754 11.487C316.754 12.605 317.82 13.112 319.25 13.112C320.693 13.112 321.746 12.592 321.746 11.487C321.746 10.356 320.693 9.862 319.25 9.862ZM318.002 14.451V16.531H320.498V14.464C320.108 14.529 319.679 14.568 319.25 14.568C318.821 14.568 318.392 14.529 318.002 14.451ZM329.345 11.929C328.747 11.929 328.292 11.5 328.292 10.902C328.292 10.304 328.747 9.875 329.345 9.875C329.943 9.875 330.398 10.304 330.398 10.902C330.398 11.5 329.943 11.929 329.345 11.929ZM329.345 16.895C328.747 16.895 328.292 16.466 328.292 15.868C328.292 15.27 328.747 14.841 329.345 14.841C329.943 14.841 330.398 15.27 330.398 15.868C330.398 16.466 329.943 16.895 329.345 16.895ZM334.89 18.182C333.187 18.182 331.952 17.22 331.497 15.66C331.471 15.543 331.523 15.478 331.627 15.452L332.94 15.101C333.044 15.075 333.109 15.114 333.148 15.218C333.421 15.959 333.967 16.466 334.89 16.466C335.891 16.466 336.528 15.92 336.528 15.088C336.528 14.256 335.839 13.801 334.786 13.801H334.383C334.279 13.801 334.214 13.736 334.214 13.632V12.475C334.214 12.371 334.279 12.306 334.383 12.306H334.786C335.67 12.306 336.281 11.851 336.281 11.188C336.281 10.499 335.683 9.992 334.851 9.992C334.032 9.992 333.499 10.499 333.226 11.24C333.187 11.344 333.122 11.383 333.018 11.357L331.705 11.006C331.601 10.98 331.549 10.915 331.575 10.798C332.03 9.238 333.252 8.276 334.89 8.276C336.736 8.276 338.101 9.368 338.101 10.863C338.101 11.799 337.542 12.579 336.606 13.008C337.685 13.372 338.348 14.178 338.348 15.335C338.348 17.038 336.944 18.182 334.89 18.182Z" fill="#BD5292"/>
<rect x="2" y="77" width="342" height="155" rx="7" fill="#D652A1" stroke="#D652A1" stroke-width="2"/>
<rect x="1" y="27" width="344" height="202" rx="7" fill="white" stroke="#D652A1" stroke-width="2"/>
<defs>
<linearGradient id="paint0_linear_1193_5904" x1="50" y1="60" x2="344" y2="60" gradientUnits="userSpaceOnUse">
<stop stop-color="#FFB3D4"/>
<stop offset="1" stop-color="white"/>
</linearGradient>
<linearGradient id="paint1_linear_1193_5904" x1="50" y1="60" x2="344" y2="60" gradientUnits="userSpaceOnUse">
<stop stop-color="#FFB3D4"/>
<stop offset="1" stop-color="white"/>
</linearGradient>
</defs>
</svg>
