<svg width="390" height="422" viewBox="0 0 390 422" fill="none" xmlns="http://www.w3.org/2000/svg">
<mask id="mask0_1257_5572" style="mask-type:alpha" maskUnits="userSpaceOnUse" x="0" y="0" width="390" height="422">
<rect width="390" height="422" fill="#D9D9D9"/>
</mask>
<g mask="url(#mask0_1257_5572)">
<path d="M174.804 1H16C7.71573 1 1 7.71572 1 16V423H389V58.9231C389 50.6388 382.284 43.9231 374 43.9231H215.196C208.588 43.9231 202.578 40.0932 199.787 34.1031L188.4 9.66472C185.937 4.37926 180.635 1 174.804 1Z" fill="url(#paint0_linear_1257_5572)" stroke="#46977A" stroke-width="2"/>
<path d="M181.922 13.7748C180.445 10.6036 177.263 8.57609 173.765 8.57597L17.5003 8.57062C12.5296 8.57045 8.5 12.5999 8.5 17.5706V422L381.5 422.005V60.4995C381.5 55.5289 377.471 51.4995 372.5 51.4995L213.52 51.4993C204.968 51.4992 197.191 46.543 193.579 38.791L181.922 13.7748Z" fill="url(#paint1_linear_1257_5572)"/>
<path d="M8.49997 424L6.5 423.999V422V17.5706C6.5 11.4953 11.4251 6.57041 17.5004 6.57062L173.765 6.57597C178.041 6.57611 181.929 9.05422 183.735 12.9301L195.391 37.9463C198.675 44.9936 205.745 49.4992 213.52 49.4993L372.5 49.4995C378.575 49.4995 383.5 54.4244 383.5 60.4995V422.005V424.005L381.5 424.005L8.49997 424Z" stroke="#F1FFB9" stroke-opacity="0.5" stroke-width="4"/>
<path d="M53.8643 26.4014C53.8643 25.9229 53.944 25.4876 54.1035 25.0957C54.2676 24.6992 54.4886 24.3848 54.7666 24.1523C55.0446 23.9199 55.3545 23.8037 55.6963 23.8037C56.0381 23.8037 56.348 23.9199 56.626 24.1523C56.9085 24.3848 57.1296 24.6992 57.2891 25.0957C57.4531 25.4876 57.5352 25.9229 57.5352 26.4014C57.5352 26.8844 57.4531 27.3219 57.2891 27.7139C57.1296 28.1058 56.9085 28.418 56.626 28.6504C56.348 28.8828 56.0381 28.999 55.6963 28.999C55.3545 28.999 55.0446 28.8828 54.7666 28.6504C54.4886 28.418 54.2676 28.1058 54.1035 27.7139C53.944 27.3219 53.8643 26.8844 53.8643 26.4014ZM57.3369 22.252C57.3369 21.7643 57.4189 21.3245 57.583 20.9326C57.7471 20.5407 57.9681 20.2285 58.2461 19.9961C58.5241 19.7637 58.834 19.6475 59.1758 19.6475C59.5176 19.6475 59.8275 19.7637 60.1055 19.9961C60.3835 20.2285 60.6045 20.5407 60.7686 20.9326C60.9326 21.3245 61.0146 21.7643 61.0146 22.252C61.0146 22.7305 60.9326 23.1657 60.7686 23.5576C60.6045 23.9495 60.3835 24.2617 60.1055 24.4941C59.8275 24.7266 59.5176 24.8428 59.1758 24.8428C58.834 24.8428 58.5241 24.7266 58.2461 24.4941C57.9681 24.2617 57.7471 23.9495 57.583 23.5576C57.4189 23.1657 57.3369 22.7305 57.3369 22.252ZM61.9854 22.252C61.9854 21.7643 62.0651 21.3245 62.2246 20.9326C62.3887 20.5407 62.6097 20.2285 62.8877 19.9961C63.1702 19.7637 63.4824 19.6475 63.8242 19.6475C64.166 19.6475 64.4759 19.7637 64.7539 19.9961C65.0319 20.2285 65.2529 20.5407 65.417 20.9326C65.5811 21.3245 65.6631 21.7643 65.6631 22.252C65.6631 22.7305 65.5811 23.1657 65.417 23.5576C65.2529 23.9495 65.0319 24.2617 64.7539 24.4941C64.4759 24.7266 64.166 24.8428 63.8242 24.8428C63.4824 24.8428 63.1702 24.7266 62.8877 24.4941C62.6097 24.2617 62.3887 23.9495 62.2246 23.5576C62.0651 23.1657 61.9854 22.7305 61.9854 22.252ZM65.4648 26.4014C65.4648 25.9229 65.5469 25.4876 65.7109 25.0957C65.875 24.6992 66.096 24.3848 66.374 24.1523C66.652 23.9199 66.9619 23.8037 67.3037 23.8037C67.6455 23.8037 67.9554 23.9199 68.2334 24.1523C68.5114 24.3848 68.7301 24.6992 68.8896 25.0957C69.0537 25.4876 69.1357 25.9229 69.1357 26.4014C69.1357 26.8844 69.0537 27.3219 68.8896 27.7139C68.7301 28.1058 68.5114 28.418 68.2334 28.6504C67.9554 28.8828 67.6455 28.999 67.3037 28.999C66.9619 28.999 66.652 28.8828 66.374 28.6504C66.096 28.418 65.875 28.1058 65.7109 27.7139C65.5469 27.3219 65.4648 26.8844 65.4648 26.4014ZM56.1133 31.8701C56.1133 31.4554 56.1839 31.0999 56.3252 30.8037C56.471 30.5029 56.6533 30.2432 56.8721 30.0244C57.0954 29.8057 57.321 29.6029 57.5488 29.416C57.7402 29.2611 57.9225 29.1084 58.0957 28.958C58.2689 28.8031 58.417 28.6322 58.54 28.4453C58.6357 28.2995 58.7269 28.1468 58.8135 27.9873C58.9001 27.8232 58.9844 27.6523 59.0664 27.4746C59.235 27.1191 59.4105 26.7796 59.5928 26.4561C59.7751 26.1279 60.012 25.8613 60.3037 25.6562C60.5954 25.4466 60.9941 25.3418 61.5 25.3418C62.0059 25.3418 62.4046 25.4466 62.6963 25.6562C62.988 25.8613 63.2249 26.1279 63.4072 26.4561C63.5895 26.7796 63.765 27.1214 63.9336 27.4814C64.0156 27.6592 64.0999 27.8278 64.1865 27.9873C64.2731 28.1468 64.3643 28.3018 64.46 28.4521C64.583 28.639 64.7311 28.8076 64.9043 28.958C65.0775 29.1084 65.2598 29.2611 65.4512 29.416C65.6745 29.6029 65.8978 29.8057 66.1211 30.0244C66.3444 30.2432 66.5267 30.5029 66.668 30.8037C66.8138 31.0999 66.8867 31.4554 66.8867 31.8701C66.8867 32.3805 66.7819 32.8294 66.5723 33.2168C66.3626 33.6087 66.0687 33.9141 65.6904 34.1328C65.3167 34.3561 64.8815 34.4678 64.3848 34.4678C64.0293 34.4678 63.7126 34.4268 63.4346 34.3447C63.1611 34.2673 62.9059 34.1875 62.6689 34.1055C62.4775 34.0417 62.2884 33.9847 62.1016 33.9346C61.9193 33.8844 61.7188 33.8594 61.5 33.8594C61.2812 33.8594 61.0785 33.8844 60.8916 33.9346C60.7093 33.9847 60.5225 34.0417 60.3311 34.1055C60.0895 34.1875 59.832 34.2673 59.5586 34.3447C59.2852 34.4268 58.9684 34.4678 58.6084 34.4678C58.1162 34.4678 57.681 34.3561 57.3027 34.1328C56.929 33.9141 56.6374 33.6087 56.4277 33.2168C56.2181 32.8294 56.1133 32.3805 56.1133 31.8701Z" fill="#62CDAF"/>
<path d="M91.314 22.544H89.394V23.904H91.314C91.458 23.904 91.522 23.984 91.522 24.128V25.472C91.522 25.6 91.458 25.664 91.314 25.664H89.394V26.944C89.394 27.072 89.33 27.152 89.17 27.152H87.538C87.41 27.152 87.346 27.072 87.346 26.944V19.488C87.346 19.36 87.41 19.28 87.538 19.28H89.17C89.33 19.28 89.394 19.36 89.394 19.488V20.752H91.314C91.458 20.752 91.522 20.832 91.522 20.976V22.32C91.522 22.464 91.458 22.544 91.314 22.544ZM86.114 25.76C84.866 26.08 83.026 26.256 81.426 26.256H78.77C78.626 26.256 78.562 26.176 78.562 26.048V20.144C78.562 20.016 78.626 19.936 78.754 19.936H80.386C80.53 19.936 80.594 20.016 80.594 20.144V24.48H81.746C82.946 24.48 84.562 24.368 85.842 24.08C85.97 24.048 86.066 24.112 86.098 24.256L86.29 25.504C86.322 25.632 86.274 25.712 86.114 25.76ZM84.722 27.536C87.89 27.536 89.538 28.784 89.538 30.512C89.538 32.208 87.89 33.488 84.722 33.488C81.538 33.488 79.89 32.224 79.89 30.512C79.89 28.784 81.538 27.536 84.722 27.536ZM84.722 31.776C86.722 31.776 87.506 31.184 87.506 30.512C87.506 29.84 86.722 29.248 84.722 29.248C82.722 29.248 81.922 29.84 81.922 30.512C81.922 31.184 82.722 31.776 84.722 31.776ZM105.279 22.544H103.359V23.904H105.279C105.423 23.904 105.487 23.984 105.487 24.128V25.472C105.487 25.6 105.423 25.664 105.279 25.664H103.359V26.944C103.359 27.072 103.295 27.152 103.135 27.152H101.503C101.375 27.152 101.311 27.072 101.311 26.944V19.488C101.311 19.36 101.375 19.28 101.503 19.28H103.135C103.295 19.28 103.359 19.36 103.359 19.488V20.752H105.279C105.423 20.752 105.487 20.832 105.487 20.976V22.32C105.487 22.464 105.423 22.544 105.279 22.544ZM100.079 25.76C98.831 26.08 96.991 26.256 95.391 26.256H92.735C92.591 26.256 92.527 26.176 92.527 26.048V20.144C92.527 20.016 92.591 19.936 92.719 19.936H94.351C94.495 19.936 94.559 20.016 94.559 20.144V24.48H95.711C96.911 24.48 98.527 24.368 99.807 24.08C99.935 24.048 100.031 24.112 100.063 24.256L100.255 25.504C100.287 25.632 100.239 25.712 100.079 25.76ZM98.687 27.536C101.855 27.536 103.503 28.784 103.503 30.512C103.503 32.208 101.855 33.488 98.687 33.488C95.503 33.488 93.855 32.224 93.855 30.512C93.855 28.784 95.503 27.536 98.687 27.536ZM98.687 31.776C100.687 31.776 101.471 31.184 101.471 30.512C101.471 29.84 100.687 29.248 98.687 29.248C96.687 29.248 95.887 29.84 95.887 30.512C95.887 31.184 96.687 31.776 98.687 31.776ZM113.98 22.448H115.964V19.488C115.964 19.36 116.028 19.28 116.172 19.28H117.788C117.948 19.28 118.012 19.36 118.012 19.488V29.264C118.012 29.392 117.948 29.472 117.788 29.472H116.172C116.028 29.472 115.964 29.392 115.964 29.264V24.176H113.98C113.836 24.176 113.772 24.112 113.772 23.968V22.656C113.772 22.528 113.836 22.448 113.98 22.448ZM114.508 25.104L114.684 26.4C114.7 26.464 114.668 26.544 114.556 26.576C113.02 26.928 110.252 27.104 108.412 27.104H105.916C105.788 27.104 105.724 27.024 105.724 26.896V25.568C105.724 25.44 105.788 25.36 105.916 25.36H107.212V21.824H106.236C106.092 21.824 106.028 21.76 106.028 21.632V20.288C106.028 20.176 106.092 20.096 106.236 20.096H113.868C114.012 20.096 114.076 20.176 114.076 20.288V21.632C114.076 21.76 114.012 21.824 113.868 21.824H112.812V25.12C113.34 25.072 113.836 24.992 114.268 24.912C114.396 24.896 114.476 24.928 114.508 25.104ZM110.844 25.28V21.824H109.18V25.344C109.74 25.328 110.3 25.312 110.844 25.28ZM110.748 31.392H118.108C118.252 31.392 118.316 31.456 118.316 31.6V32.992C118.316 33.12 118.252 33.2 118.108 33.2H108.908C108.764 33.2 108.7 33.12 108.7 32.992V28.512C108.7 28.384 108.764 28.32 108.908 28.32H110.54C110.684 28.32 110.748 28.384 110.748 28.512V31.392ZM130.137 19.28H131.753C131.913 19.28 131.977 19.36 131.977 19.488V33.152C131.977 33.28 131.913 33.344 131.753 33.344H130.137C129.993 33.344 129.929 33.28 129.929 33.152V19.488C129.929 19.36 129.993 19.28 130.137 19.28ZM128.633 28.928C128.761 29.024 128.745 29.152 128.649 29.248L127.689 30.368C127.593 30.464 127.481 30.464 127.353 30.368C126.009 29.28 124.937 28.08 124.393 26.992C123.801 28.176 122.681 29.52 121.289 30.608C121.161 30.688 121.033 30.688 120.953 30.608L119.977 29.488C119.881 29.392 119.881 29.232 119.993 29.152C121.801 27.696 123.161 25.904 123.305 23.52H120.473C120.313 23.52 120.249 23.44 120.249 23.328V21.904C120.249 21.792 120.313 21.712 120.473 21.712H123.321V19.904C123.321 19.792 123.385 19.712 123.545 19.712H125.161C125.289 19.712 125.353 19.792 125.353 19.904V21.712H128.041C128.201 21.712 128.249 21.792 128.249 21.904V23.328C128.249 23.44 128.201 23.52 128.041 23.52H125.369C125.529 25.84 127.001 27.632 128.633 28.928Z" fill="white"/>
<path d="M89.394 22.544V20.544H87.394V22.544H89.394ZM89.394 23.904H87.394V25.904H89.394V23.904ZM89.394 25.664V23.664H87.394V25.664H89.394ZM89.394 20.752H87.394V22.752H89.394V20.752ZM86.114 25.76L86.6108 27.6973L86.6499 27.6873L86.6887 27.6757L86.114 25.76ZM80.594 24.48H78.594V26.48H80.594V24.48ZM85.842 24.08L86.281 26.0312L86.3041 26.026L86.3271 26.0203L85.842 24.08ZM86.098 24.256L88.0747 23.9519L88.0647 23.8866L88.0504 23.8221L86.098 24.256ZM86.29 25.504L84.3133 25.8081L84.3273 25.8994L84.3497 25.9891L86.29 25.504ZM91.314 20.544H89.394V24.544H91.314V20.544ZM87.394 22.544V23.904H91.394V22.544H87.394ZM89.394 25.904H91.314V21.904H89.394V25.904ZM91.314 25.904C91.0199 25.904 90.4439 25.8124 89.9815 25.2956C89.5573 24.8215 89.522 24.3098 89.522 24.128H93.522C93.522 23.8022 93.4547 23.1785 92.9625 22.6284C92.4321 22.0356 91.7521 21.904 91.314 21.904V25.904ZM89.522 24.128V25.472H93.522V24.128H89.522ZM89.522 25.472C89.522 25.2271 89.5859 24.6446 90.1013 24.1596C90.5912 23.6985 91.1349 23.664 91.314 23.664V27.664C91.6371 27.664 92.2848 27.5975 92.8427 27.0724C93.4261 26.5234 93.522 25.8449 93.522 25.472H89.522ZM91.314 23.664H89.394V27.664H91.314V23.664ZM87.394 25.664V26.944H91.394V25.664H87.394ZM87.394 26.944C87.394 26.6997 87.4564 26.1531 87.9278 25.6818C88.3991 25.2104 88.9417 25.152 89.17 25.152V29.152C89.5583 29.152 90.2129 29.0536 90.7562 28.5102C91.2996 27.9669 91.394 27.3163 91.394 26.944H87.394ZM89.17 25.152H87.538V29.152H89.17V25.152ZM87.538 25.152C87.9066 25.152 88.458 25.2826 88.8888 25.7673C89.2858 26.2139 89.346 26.7005 89.346 26.944H85.346C85.346 27.3155 85.4382 27.9061 85.8992 28.4247C86.394 28.9814 87.0414 29.152 87.538 29.152V25.152ZM89.346 26.944V19.488H85.346V26.944H89.346ZM89.346 19.488C89.346 19.7315 89.2858 20.2181 88.8888 20.6647C88.458 21.1494 87.9066 21.28 87.538 21.28V17.28C87.0414 17.28 86.394 17.4506 85.8992 18.0073C85.4382 18.5259 85.346 19.1165 85.346 19.488H89.346ZM87.538 21.28H89.17V17.28H87.538V21.28ZM89.17 21.28C88.9417 21.28 88.3991 21.2216 87.9278 20.7502C87.4564 20.2789 87.394 19.7323 87.394 19.488H91.394C91.394 19.1157 91.2996 18.4651 90.7562 17.9218C90.2129 17.3784 89.5583 17.28 89.17 17.28V21.28ZM87.394 19.488V20.752H91.394V19.488H87.394ZM89.394 22.752H91.314V18.752H89.394V22.752ZM91.314 22.752C91.0199 22.752 90.4439 22.6604 89.9815 22.1436C89.5573 21.6695 89.522 21.1578 89.522 20.976H93.522C93.522 20.6502 93.4547 20.0265 92.9625 19.4764C92.4321 18.8836 91.7521 18.752 91.314 18.752V22.752ZM89.522 20.976V22.32H93.522V20.976H89.522ZM89.522 22.32C89.522 22.1382 89.5573 21.6265 89.9815 21.1524C90.4439 20.6356 91.0199 20.544 91.314 20.544V24.544C91.7521 24.544 92.4321 24.4124 92.9625 23.8196C93.4547 23.2695 93.522 22.6458 93.522 22.32H89.522ZM85.6172 23.8227C84.5858 24.0871 82.9256 24.256 81.426 24.256V28.256C83.1264 28.256 85.1462 28.0729 86.6108 27.6973L85.6172 23.8227ZM81.426 24.256H78.77V28.256H81.426V24.256ZM78.77 24.256C79.0629 24.256 79.6114 24.3454 80.066 24.8268C80.501 25.2873 80.562 25.8047 80.562 26.048H76.562C76.562 26.4193 76.655 27.0407 77.158 27.5732C77.6806 28.1266 78.3331 28.256 78.77 28.256V24.256ZM80.562 26.048V20.144H76.562V26.048H80.562ZM80.562 20.144C80.562 20.3875 80.5018 20.8741 80.1048 21.3207C79.674 21.8054 79.1226 21.936 78.754 21.936V17.936C78.2574 17.936 77.61 18.1066 77.1152 18.6633C76.6542 19.1819 76.562 19.7725 76.562 20.144H80.562ZM78.754 21.936H80.386V17.936H78.754V21.936ZM80.386 21.936C80.0931 21.936 79.5446 21.8466 79.09 21.3652C78.655 20.9047 78.594 20.3873 78.594 20.144H82.594C82.594 19.7727 82.501 19.1513 81.998 18.6188C81.4754 18.0654 80.8229 17.936 80.386 17.936V21.936ZM78.594 20.144V24.48H82.594V20.144H78.594ZM80.594 26.48H81.746V22.48H80.594V26.48ZM81.746 26.48C83.0312 26.48 84.8066 26.363 86.281 26.0312L85.403 22.1288C84.3174 22.373 82.8608 22.48 81.746 22.48V26.48ZM86.3271 26.0203C85.9595 26.1122 85.4018 26.1107 84.8793 25.7545C84.3847 25.4172 84.2043 24.9539 84.1456 24.6899L88.0504 23.8221C87.9597 23.4141 87.7153 22.8468 87.1327 22.4495C86.5222 22.0333 85.8525 22.0158 85.3569 22.1397L86.3271 26.0203ZM84.1213 24.5601L84.3133 25.8081L88.2667 25.1999L88.0747 23.9519L84.1213 24.5601ZM84.3497 25.9891C84.2878 25.7415 84.2123 25.149 84.6099 24.5526C84.9603 24.027 85.438 23.8747 85.5393 23.8443L86.6887 27.6757C86.95 27.5973 87.5317 27.381 87.9381 26.7714C88.3917 26.091 88.3242 25.3945 88.2303 25.0189L84.3497 25.9891ZM84.722 29.536C86.0807 29.536 86.8553 29.8093 87.2239 30.0502C87.5172 30.2419 87.538 30.3814 87.538 30.512H91.538C91.538 28.9146 90.7348 27.5661 89.4121 26.7018C88.1647 25.8867 86.5313 25.536 84.722 25.536V29.536ZM87.538 30.512C87.538 30.6188 87.5239 30.7643 87.2182 30.9656C86.8464 31.2104 86.0712 31.488 84.722 31.488V35.488C86.5408 35.488 88.1736 35.1256 89.4178 34.3064C90.7281 33.4437 91.538 32.1012 91.538 30.512H87.538ZM84.722 31.488C83.3583 31.488 82.5791 31.2118 82.2071 30.9684C81.9067 30.7719 81.89 30.63 81.89 30.512H77.89C77.89 32.106 78.6973 33.4521 80.0169 34.3156C81.2649 35.1322 82.9017 35.488 84.722 35.488V31.488ZM81.89 30.512C81.89 30.3821 81.91 30.2432 82.2042 30.0515C82.5746 29.81 83.3536 29.536 84.722 29.536V25.536C82.9064 25.536 81.2694 25.886 80.0198 26.7005C78.694 27.5648 77.89 28.9139 77.89 30.512H81.89ZM84.722 33.776C85.8724 33.776 86.9354 33.6133 87.787 33.1703C88.7083 32.691 89.506 31.7831 89.506 30.512H85.506C85.506 30.2699 85.5831 30.0333 85.7125 29.8479C85.7716 29.7633 85.8303 29.7056 85.873 29.6701C85.8942 29.6524 85.9114 29.6403 85.923 29.6326C85.9288 29.6288 85.9334 29.6261 85.9364 29.6243C85.9394 29.6226 85.941 29.6217 85.941 29.6217C85.9411 29.6217 85.9396 29.6224 85.9365 29.6239C85.9335 29.6253 85.9289 29.6273 85.9226 29.6299C85.91 29.6351 85.8912 29.6422 85.8656 29.6505C85.8138 29.6673 85.7384 29.6875 85.6349 29.7067C85.4256 29.7457 85.1273 29.776 84.722 29.776V33.776ZM89.506 30.512C89.506 29.2409 88.7083 28.333 87.787 27.8537C86.9354 27.4107 85.8724 27.248 84.722 27.248V31.248C85.1273 31.248 85.4256 31.2783 85.6349 31.3173C85.7384 31.3365 85.8138 31.3567 85.8656 31.3735C85.8912 31.3818 85.91 31.3889 85.9226 31.3941C85.9289 31.3967 85.9335 31.3987 85.9365 31.4001C85.9396 31.4016 85.9411 31.4023 85.941 31.4023C85.941 31.4023 85.9394 31.4014 85.9364 31.3997C85.9334 31.3979 85.9288 31.3952 85.923 31.3914C85.9114 31.3837 85.8942 31.3716 85.873 31.3539C85.8303 31.3184 85.7716 31.2607 85.7125 31.1761C85.5831 30.9907 85.506 30.7541 85.506 30.512H89.506ZM84.722 27.248C83.5705 27.248 82.5075 27.4111 81.6555 27.8503C80.742 28.3213 79.922 29.2245 79.922 30.512H83.922C83.922 30.7632 83.8405 31.0032 83.7103 31.187C83.5912 31.3552 83.4796 31.4102 83.4885 31.4057C83.4985 31.4005 83.5895 31.3575 83.8051 31.3175C84.0169 31.2783 84.3168 31.248 84.722 31.248V27.248ZM79.922 30.512C79.922 31.7995 80.742 32.7027 81.6555 33.1737C82.5075 33.6129 83.5705 33.776 84.722 33.776V29.776C84.3168 29.776 84.0169 29.7457 83.8051 29.7065C83.5895 29.6665 83.4985 29.6235 83.4885 29.6183C83.4796 29.6138 83.5912 29.6688 83.7103 29.837C83.8405 30.0208 83.922 30.2608 83.922 30.512H79.922ZM103.359 22.544V20.544H101.359V22.544H103.359ZM103.359 23.904H101.359V25.904H103.359V23.904ZM103.359 25.664V23.664H101.359V25.664H103.359ZM103.359 20.752H101.359V22.752H103.359V20.752ZM100.079 25.76L100.576 27.6973L100.615 27.6873L100.654 27.6757L100.079 25.76ZM94.559 24.48H92.559V26.48H94.559V24.48ZM99.807 24.08L100.246 26.0312L100.269 26.026L100.292 26.0203L99.807 24.08ZM100.063 24.256L102.04 23.9519L102.03 23.8866L102.015 23.8221L100.063 24.256ZM100.255 25.504L98.2783 25.8081L98.2923 25.8994L98.3147 25.9891L100.255 25.504ZM105.279 20.544H103.359V24.544H105.279V20.544ZM101.359 22.544V23.904H105.359V22.544H101.359ZM103.359 25.904H105.279V21.904H103.359V25.904ZM105.279 25.904C104.985 25.904 104.409 25.8124 103.947 25.2956C103.522 24.8215 103.487 24.3098 103.487 24.128H107.487C107.487 23.8022 107.42 23.1785 106.927 22.6284C106.397 22.0356 105.717 21.904 105.279 21.904V25.904ZM103.487 24.128V25.472H107.487V24.128H103.487ZM103.487 25.472C103.487 25.2271 103.551 24.6446 104.066 24.1596C104.556 23.6985 105.1 23.664 105.279 23.664V27.664C105.602 27.664 106.25 27.5975 106.808 27.0724C107.391 26.5234 107.487 25.8449 107.487 25.472H103.487ZM105.279 23.664H103.359V27.664H105.279V23.664ZM101.359 25.664V26.944H105.359V25.664H101.359ZM101.359 26.944C101.359 26.6997 101.421 26.1531 101.893 25.6818C102.364 25.2104 102.907 25.152 103.135 25.152V29.152C103.523 29.152 104.178 29.0536 104.721 28.5102C105.265 27.9669 105.359 27.3163 105.359 26.944H101.359ZM103.135 25.152H101.503V29.152H103.135V25.152ZM101.503 25.152C101.872 25.152 102.423 25.2826 102.854 25.7673C103.251 26.2139 103.311 26.7005 103.311 26.944H99.311C99.311 27.3155 99.4032 27.9061 99.8642 28.4247C100.359 28.9814 101.006 29.152 101.503 29.152V25.152ZM103.311 26.944V19.488H99.311V26.944H103.311ZM103.311 19.488C103.311 19.7315 103.251 20.2181 102.854 20.6647C102.423 21.1494 101.872 21.28 101.503 21.28V17.28C101.006 17.28 100.359 17.4506 99.8642 18.0073C99.4032 18.5259 99.311 19.1165 99.311 19.488H103.311ZM101.503 21.28H103.135V17.28H101.503V21.28ZM103.135 21.28C102.907 21.28 102.364 21.2216 101.893 20.7502C101.421 20.2789 101.359 19.7323 101.359 19.488H105.359C105.359 19.1157 105.265 18.4651 104.721 17.9218C104.178 17.3784 103.523 17.28 103.135 17.28V21.28ZM101.359 19.488V20.752H105.359V19.488H101.359ZM103.359 22.752H105.279V18.752H103.359V22.752ZM105.279 22.752C104.985 22.752 104.409 22.6604 103.947 22.1436C103.522 21.6695 103.487 21.1578 103.487 20.976H107.487C107.487 20.6502 107.42 20.0265 106.927 19.4764C106.397 18.8836 105.717 18.752 105.279 18.752V22.752ZM103.487 20.976V22.32H107.487V20.976H103.487ZM103.487 22.32C103.487 22.1382 103.522 21.6265 103.947 21.1524C104.409 20.6356 104.985 20.544 105.279 20.544V24.544C105.717 24.544 106.397 24.4124 106.927 23.8196C107.42 23.2695 107.487 22.6458 107.487 22.32H103.487ZM99.5822 23.8227C98.5508 24.0871 96.8906 24.256 95.391 24.256V28.256C97.0914 28.256 99.1112 28.0729 100.576 27.6973L99.5822 23.8227ZM95.391 24.256H92.735V28.256H95.391V24.256ZM92.735 24.256C93.0279 24.256 93.5764 24.3454 94.031 24.8268C94.466 25.2873 94.527 25.8047 94.527 26.048H90.527C90.527 26.4193 90.62 27.0407 91.123 27.5732C91.6456 28.1266 92.2981 28.256 92.735 28.256V24.256ZM94.527 26.048V20.144H90.527V26.048H94.527ZM94.527 20.144C94.527 20.3875 94.4668 20.8741 94.0698 21.3207C93.639 21.8054 93.0876 21.936 92.719 21.936V17.936C92.2224 17.936 91.575 18.1066 91.0802 18.6633C90.6192 19.1819 90.527 19.7725 90.527 20.144H94.527ZM92.719 21.936H94.351V17.936H92.719V21.936ZM94.351 21.936C94.0581 21.936 93.5096 21.8466 93.055 21.3652C92.62 20.9047 92.559 20.3873 92.559 20.144H96.559C96.559 19.7727 96.466 19.1513 95.963 18.6188C95.4404 18.0654 94.7879 17.936 94.351 17.936V21.936ZM92.559 20.144V24.48H96.559V20.144H92.559ZM94.559 26.48H95.711V22.48H94.559V26.48ZM95.711 26.48C96.9962 26.48 98.7716 26.363 100.246 26.0312L99.368 22.1288C98.2824 22.373 96.8258 22.48 95.711 22.48V26.48ZM100.292 26.0203C99.9245 26.1122 99.3668 26.1107 98.8443 25.7545C98.3497 25.4172 98.1693 24.9539 98.1106 24.6899L102.015 23.8221C101.925 23.4141 101.68 22.8468 101.098 22.4495C100.487 22.0333 99.8175 22.0158 99.3219 22.1397L100.292 26.0203ZM98.0863 24.5601L98.2783 25.8081L102.232 25.1999L102.04 23.9519L98.0863 24.5601ZM98.3147 25.9891C98.2528 25.7415 98.1773 25.149 98.5749 24.5526C98.9253 24.027 99.403 23.8747 99.5043 23.8443L100.654 27.6757C100.915 27.5973 101.497 27.381 101.903 26.7714C102.357 26.091 102.289 25.3945 102.195 25.0189L98.3147 25.9891ZM98.687 29.536C100.046 29.536 100.82 29.8093 101.189 30.0502C101.482 30.2419 101.503 30.3814 101.503 30.512H105.503C105.503 28.9146 104.7 27.5661 103.377 26.7018C102.13 25.8867 100.496 25.536 98.687 25.536V29.536ZM101.503 30.512C101.503 30.6188 101.489 30.7643 101.183 30.9656C100.811 31.2104 100.036 31.488 98.687 31.488V35.488C100.506 35.488 102.139 35.1256 103.383 34.3064C104.693 33.4437 105.503 32.1012 105.503 30.512H101.503ZM98.687 31.488C97.3233 31.488 96.5441 31.2118 96.1721 30.9684C95.8717 30.7719 95.855 30.63 95.855 30.512H91.855C91.855 32.106 92.6623 33.4521 93.9819 34.3156C95.2299 35.1322 96.8667 35.488 98.687 35.488V31.488ZM95.855 30.512C95.855 30.3821 95.875 30.2432 96.1692 30.0515C96.5396 29.81 97.3186 29.536 98.687 29.536V25.536C96.8714 25.536 95.2344 25.886 93.9848 26.7005C92.659 27.5648 91.855 28.9139 91.855 30.512H95.855ZM98.687 33.776C99.8374 33.776 100.9 33.6133 101.752 33.1703C102.673 32.691 103.471 31.7831 103.471 30.512H99.471C99.471 30.2699 99.5481 30.0333 99.6775 29.8479C99.7366 29.7633 99.7953 29.7056 99.838 29.6701C99.8592 29.6524 99.8764 29.6403 99.888 29.6326C99.8938 29.6288 99.8984 29.6261 99.9014 29.6243C99.9044 29.6226 99.906 29.6217 99.906 29.6217C99.9061 29.6217 99.9046 29.6224 99.9015 29.6239C99.8985 29.6253 99.8939 29.6273 99.8876 29.6299C99.875 29.6351 99.8562 29.6422 99.8306 29.6505C99.7788 29.6673 99.7034 29.6875 99.5999 29.7067C99.3906 29.7457 99.0923 29.776 98.687 29.776V33.776ZM103.471 30.512C103.471 29.2409 102.673 28.333 101.752 27.8537C100.9 27.4107 99.8374 27.248 98.687 27.248V31.248C99.0923 31.248 99.3906 31.2783 99.5999 31.3173C99.7034 31.3365 99.7788 31.3567 99.8306 31.3735C99.8562 31.3818 99.875 31.3889 99.8876 31.3941C99.8939 31.3967 99.8985 31.3987 99.9015 31.4001C99.9046 31.4016 99.9061 31.4023 99.906 31.4023C99.906 31.4023 99.9044 31.4014 99.9014 31.3997C99.8984 31.3979 99.8938 31.3952 99.888 31.3914C99.8764 31.3837 99.8592 31.3716 99.838 31.3539C99.7953 31.3184 99.7366 31.2607 99.6775 31.1761C99.5481 30.9907 99.471 30.7541 99.471 30.512H103.471ZM98.687 27.248C97.5355 27.248 96.4725 27.4111 95.6205 27.8503C94.707 28.3213 93.887 29.2245 93.887 30.512H97.887C97.887 30.7632 97.8055 31.0032 97.6753 31.187C97.5562 31.3552 97.4446 31.4102 97.4535 31.4057C97.4635 31.4005 97.5545 31.3575 97.7701 31.3175C97.9819 31.2783 98.2818 31.248 98.687 31.248V27.248ZM93.887 30.512C93.887 31.7995 94.707 32.7027 95.6205 33.1737C96.4725 33.6129 97.5355 33.776 98.687 33.776V29.776C98.2818 29.776 97.9819 29.7457 97.7701 29.7065C97.5545 29.6665 97.4635 29.6235 97.4535 29.6183C97.4446 29.6138 97.5562 29.6688 97.6753 29.837C97.8055 30.0208 97.887 30.2608 97.887 30.512H93.887ZM115.964 22.448V24.448H117.964V22.448H115.964ZM115.964 24.176H117.964V22.176H115.964V24.176ZM114.508 25.104L116.49 24.8349L116.484 24.7904L116.476 24.7462L114.508 25.104ZM114.684 26.4L112.702 26.6691L112.717 26.7782L112.744 26.8851L114.684 26.4ZM114.556 26.576L115.003 28.5255L115.054 28.5136L115.105 28.499L114.556 26.576ZM107.212 25.36V27.36H109.212V25.36H107.212ZM107.212 21.824H109.212V19.824H107.212V21.824ZM112.812 21.824V19.824H110.812V21.824H112.812ZM112.812 25.12H110.812V27.3101L112.993 27.1118L112.812 25.12ZM114.268 24.912L114.02 22.9274L113.962 22.9347L113.904 22.9454L114.268 24.912ZM110.844 25.28L110.961 27.2765L112.844 27.1658V25.28H110.844ZM110.844 21.824H112.844V19.824H110.844V21.824ZM109.18 21.824V19.824H107.18V21.824H109.18ZM109.18 25.344H107.18V27.402L109.237 27.3432L109.18 25.344ZM110.748 31.392H108.748V33.392H110.748V31.392ZM113.98 24.448H115.964V20.448H113.98V24.448ZM117.964 22.448V19.488H113.964V22.448H117.964ZM117.964 19.488C117.964 19.7313 117.903 20.2487 117.468 20.7092C117.013 21.1906 116.465 21.28 116.172 21.28V17.28C115.735 17.28 115.083 17.4094 114.56 17.9627C114.057 18.4953 113.964 19.1167 113.964 19.488H117.964ZM116.172 21.28H117.788V17.28H116.172V21.28ZM117.788 21.28C117.56 21.28 117.017 21.2216 116.546 20.7502C116.074 20.2789 116.012 19.7323 116.012 19.488H120.012C120.012 19.1157 119.918 18.4651 119.374 17.9218C118.831 17.3784 118.176 17.28 117.788 17.28V21.28ZM116.012 19.488V29.264H120.012V19.488H116.012ZM116.012 29.264C116.012 29.0197 116.074 28.4731 116.546 28.0018C117.017 27.5304 117.56 27.472 117.788 27.472V31.472C118.176 31.472 118.831 31.3736 119.374 30.8302C119.918 30.2869 120.012 29.6363 120.012 29.264H116.012ZM117.788 27.472H116.172V31.472H117.788V27.472ZM116.172 27.472C116.465 27.472 117.013 27.5614 117.468 28.0428C117.903 28.5033 117.964 29.0207 117.964 29.264H113.964C113.964 29.6353 114.057 30.2567 114.56 30.7892C115.083 31.3426 115.735 31.472 116.172 31.472V27.472ZM117.964 29.264V24.176H113.964V29.264H117.964ZM115.964 22.176H113.98V26.176H115.964V22.176ZM113.98 22.176C114.157 22.176 114.735 22.2101 115.236 22.7118C115.738 23.2135 115.772 23.7909 115.772 23.968H111.772C111.772 24.2891 111.838 24.9705 112.408 25.5402C112.977 26.1099 113.659 26.176 113.98 26.176V22.176ZM115.772 23.968V22.656H111.772V23.968H115.772ZM115.772 22.656C115.772 22.8993 115.711 23.4167 115.276 23.8772C114.821 24.3586 114.273 24.448 113.98 24.448V20.448C113.543 20.448 112.891 20.5774 112.368 21.1307C111.865 21.6633 111.772 22.2847 111.772 22.656H115.772ZM112.526 25.3731L112.702 26.6691L116.666 26.1309L116.49 24.8349L112.526 25.3731ZM112.744 26.8851C112.628 26.421 112.688 25.8947 112.972 25.44C113.262 24.9765 113.68 24.7461 114.007 24.653L115.105 28.499C115.544 28.3739 116.034 28.0875 116.364 27.56C116.688 27.0413 116.756 26.443 116.624 25.9149L112.744 26.8851ZM114.109 24.6265C112.795 24.9277 110.206 25.104 108.412 25.104V29.104C110.298 29.104 113.245 28.9283 115.003 28.5255L114.109 24.6265ZM108.412 25.104H105.916V29.104H108.412V25.104ZM105.916 25.104C106.285 25.104 106.836 25.2346 107.267 25.7193C107.664 26.1659 107.724 26.6525 107.724 26.896H103.724C103.724 27.2675 103.816 27.8581 104.277 28.3767C104.772 28.9334 105.419 29.104 105.916 29.104V25.104ZM107.724 26.896V25.568H103.724V26.896H107.724ZM107.724 25.568C107.724 25.8115 107.664 26.2981 107.267 26.7447C106.836 27.2294 106.285 27.36 105.916 27.36V23.36C105.419 23.36 104.772 23.5306 104.277 24.0873C103.816 24.6059 103.724 25.1965 103.724 25.568H107.724ZM105.916 27.36H107.212V23.36H105.916V27.36ZM109.212 25.36V21.824H105.212V25.36H109.212ZM107.212 19.824H106.236V23.824H107.212V19.824ZM106.236 19.824C106.415 19.824 106.959 19.8585 107.449 20.3196C107.964 20.8046 108.028 21.3871 108.028 21.632H104.028C104.028 22.0049 104.124 22.6834 104.707 23.2324C105.265 23.7575 105.913 23.824 106.236 23.824V19.824ZM108.028 21.632V20.288H104.028V21.632H108.028ZM108.028 20.288C108.028 20.6039 107.932 21.1242 107.492 21.5642C107.048 22.0081 106.529 22.096 106.236 22.096V18.096C105.799 18.096 105.176 18.2239 104.664 18.7358C104.156 19.2438 104.028 19.8601 104.028 20.288H108.028ZM106.236 22.096H113.868V18.096H106.236V22.096ZM113.868 22.096C113.575 22.096 113.056 22.0081 112.612 21.5642C112.172 21.1242 112.076 20.6039 112.076 20.288H116.076C116.076 19.8601 115.948 19.2438 115.44 18.7358C114.928 18.2239 114.305 18.096 113.868 18.096V22.096ZM112.076 20.288V21.632H116.076V20.288H112.076ZM112.076 21.632C112.076 21.3871 112.14 20.8046 112.655 20.3196C113.145 19.8585 113.689 19.824 113.868 19.824V23.824C114.191 23.824 114.839 23.7575 115.397 23.2324C115.98 22.6834 116.076 22.0049 116.076 21.632H112.076ZM113.868 19.824H112.812V23.824H113.868V19.824ZM110.812 21.824V25.12H114.812V21.824H110.812ZM112.993 27.1118C113.605 27.0561 114.167 26.9646 114.632 26.8786L113.904 22.9454C113.505 23.0194 113.075 23.0879 112.631 23.1282L112.993 27.1118ZM114.516 26.8966C114.442 26.9058 113.862 26.9841 113.277 26.5745C112.68 26.1565 112.561 25.5777 112.54 25.4618L116.476 24.7462C116.423 24.4543 116.248 23.7715 115.571 23.2975C114.906 22.8319 114.222 22.9022 114.02 22.9274L114.516 26.8966ZM112.844 25.28V21.824H108.844V25.28H112.844ZM110.844 19.824H109.18V23.824H110.844V19.824ZM107.18 21.824V25.344H111.18V21.824H107.18ZM109.237 27.3432C109.791 27.3273 110.382 27.3106 110.961 27.2765L110.727 23.2835C110.218 23.3134 109.689 23.3287 109.123 23.3448L109.237 27.3432ZM110.748 33.392H118.108V29.392H110.748V33.392ZM118.108 33.392C117.931 33.392 117.353 33.3579 116.852 32.8562C116.35 32.3545 116.316 31.7771 116.316 31.6H120.316C120.316 31.2789 120.25 30.5975 119.68 30.0278C119.111 29.4581 118.429 29.392 118.108 29.392V33.392ZM116.316 31.6V32.992H120.316V31.6H116.316ZM116.316 32.992C116.316 32.7487 116.377 32.2313 116.812 31.7708C117.267 31.2894 117.815 31.2 118.108 31.2V35.2C118.545 35.2 119.197 35.0706 119.72 34.5172C120.223 33.9847 120.316 33.3633 120.316 32.992H116.316ZM118.108 31.2H108.908V35.2H118.108V31.2ZM108.908 31.2C109.201 31.2 109.749 31.2894 110.204 31.7708C110.639 32.2313 110.7 32.7487 110.7 32.992H106.7C106.7 33.3633 106.793 33.9847 107.296 34.5172C107.819 35.0706 108.471 35.2 108.908 35.2V31.2ZM110.7 32.992V28.512H106.7V32.992H110.7ZM110.7 28.512C110.7 28.7569 110.636 29.3394 110.121 29.8244C109.631 30.2855 109.087 30.32 108.908 30.32V26.32C108.585 26.32 107.937 26.3865 107.379 26.9116C106.796 27.4606 106.7 28.1391 106.7 28.512H110.7ZM108.908 30.32H110.54V26.32H108.908V30.32ZM110.54 30.32C110.361 30.32 109.817 30.2855 109.327 29.8244C108.812 29.3394 108.748 28.7569 108.748 28.512H112.748C112.748 28.1391 112.652 27.4606 112.069 26.9116C111.511 26.3865 110.863 26.32 110.54 26.32V30.32ZM108.748 28.512V31.392H112.748V28.512H108.748ZM128.633 28.928L127.389 30.4942L127.411 30.5114L127.433 30.528L128.633 28.928ZM128.649 29.248L127.235 27.8338L127.18 27.8881L127.13 27.9464L128.649 29.248ZM127.689 30.368L129.103 31.7822L129.158 31.7279L129.208 31.6696L127.689 30.368ZM127.353 30.368L126.095 31.9225L126.123 31.9458L126.153 31.968L127.353 30.368ZM124.393 26.992L126.182 26.0976L124.393 22.5199L122.604 26.0976L124.393 26.992ZM121.289 30.608L122.349 32.304L122.438 32.2484L122.521 32.1838L121.289 30.608ZM120.953 30.608L119.445 31.922L119.49 31.9737L119.539 32.0222L120.953 30.608ZM119.977 29.488L121.485 28.174L121.44 28.1223L121.391 28.0738L119.977 29.488ZM119.993 29.152L121.155 30.7795L121.202 30.7459L121.247 30.7097L119.993 29.152ZM123.305 23.52L125.301 23.6406L125.429 21.52H123.305V23.52ZM123.321 21.712V23.712H125.321V21.712H123.321ZM125.353 21.712H123.353V23.712H125.353V21.712ZM125.369 23.52V21.52H123.226L123.374 23.6576L125.369 23.52ZM130.137 21.28H131.753V17.28H130.137V21.28ZM131.753 21.28C131.525 21.28 130.982 21.2216 130.511 20.7502C130.039 20.2789 129.977 19.7323 129.977 19.488H133.977C133.977 19.1157 133.883 18.4651 133.339 17.9218C132.796 17.3784 132.141 17.28 131.753 17.28V21.28ZM129.977 19.488V33.152H133.977V19.488H129.977ZM129.977 33.152C129.977 32.905 130.043 32.2928 130.596 31.8012C131.095 31.3581 131.629 31.344 131.753 31.344V35.344C132.037 35.344 132.683 35.2979 133.254 34.7908C133.879 34.2352 133.977 33.527 133.977 33.152H129.977ZM131.753 31.344H130.137V35.344H131.753V31.344ZM130.137 31.344C130.316 31.344 130.86 31.3785 131.35 31.8396C131.865 32.3246 131.929 32.9071 131.929 33.152H127.929C127.929 33.5249 128.025 34.2034 128.608 34.7524C129.166 35.2775 129.814 35.344 130.137 35.344V31.344ZM131.929 33.152V19.488H127.929V33.152H131.929ZM131.929 19.488C131.929 19.7313 131.868 20.2487 131.433 20.7092C130.978 21.1906 130.43 21.28 130.137 21.28V17.28C129.7 17.28 129.048 17.4094 128.525 17.9627C128.022 18.4953 127.929 19.1167 127.929 19.488H131.929ZM127.433 30.528C127.101 30.2794 126.725 29.7854 126.725 29.088C126.725 28.4629 127.03 28.0388 127.235 27.8338L130.063 30.6622C130.364 30.3612 130.725 29.8251 130.725 29.088C130.725 28.2786 130.293 27.6726 129.833 27.328L127.433 30.528ZM127.13 27.9464L126.17 29.0664L129.208 31.6696L130.168 30.5496L127.13 27.9464ZM126.275 28.9538C126.517 28.7116 126.949 28.44 127.533 28.44C128.06 28.44 128.415 28.6641 128.553 28.768L126.153 31.968C126.42 32.1679 126.894 32.44 127.533 32.44C128.229 32.44 128.765 32.1204 129.103 31.7822L126.275 28.9538ZM128.611 28.8135C127.383 27.8192 126.549 26.8312 126.182 26.0976L122.604 27.8864C123.325 29.3288 124.635 30.7408 126.095 31.9225L128.611 28.8135ZM122.604 26.0976C122.168 26.9693 121.26 28.0921 120.057 29.0322L122.521 32.1838C124.102 30.9479 125.434 29.3827 126.182 27.8864L122.604 26.0976ZM120.229 28.912C120.408 28.8004 120.706 28.668 121.103 28.668C121.53 28.668 122.001 28.8275 122.367 29.1938L119.539 32.0222C120.531 33.0139 121.782 32.6587 122.349 32.304L120.229 28.912ZM122.461 29.294L121.485 28.174L118.469 30.802L119.445 31.922L122.461 29.294ZM121.391 28.0738C122.019 28.7018 122.214 30.0231 121.155 30.7795L118.831 27.5245C117.548 28.4409 117.743 30.0822 118.563 30.9022L121.391 28.0738ZM121.247 30.7097C123.282 29.0709 125.11 26.8103 125.301 23.6406L121.309 23.3994C121.212 24.9977 120.32 26.3211 118.739 27.5943L121.247 30.7097ZM123.305 21.52H120.473V25.52H123.305V21.52ZM120.473 21.52C120.703 21.52 121.215 21.5785 121.674 22.012C122.15 22.461 122.249 23.0084 122.249 23.328H118.249C118.249 23.7596 118.38 24.403 118.928 24.92C119.459 25.4215 120.083 25.52 120.473 25.52V21.52ZM122.249 23.328V21.904H118.249V23.328H122.249ZM122.249 21.904C122.249 22.2236 122.15 22.771 121.674 23.22C121.215 23.6535 120.703 23.712 120.473 23.712V19.712C120.083 19.712 119.459 19.8105 118.928 20.312C118.38 20.829 118.249 21.4724 118.249 21.904H122.249ZM120.473 23.712H123.321V19.712H120.473V23.712ZM125.321 21.712V19.904H121.321V21.712H125.321ZM125.321 19.904C125.321 20.2236 125.222 20.771 124.746 21.22C124.287 21.6535 123.775 21.712 123.545 21.712V17.712C123.155 17.712 122.531 17.8105 122 18.312C121.452 18.829 121.321 19.4724 121.321 19.904H125.321ZM123.545 21.712H125.161V17.712H123.545V21.712ZM125.161 21.712C124.795 21.712 124.27 21.5849 123.849 21.1367C123.446 20.709 123.353 20.2174 123.353 19.904H127.353C127.353 19.4786 127.228 18.891 126.761 18.3953C126.276 17.8791 125.655 17.712 125.161 17.712V21.712ZM123.353 19.904V21.712H127.353V19.904H123.353ZM125.353 23.712H128.041V19.712H125.353V23.712ZM128.041 23.712C127.816 23.712 127.235 23.6539 126.749 23.1367C126.282 22.6412 126.249 22.0874 126.249 21.904H130.249C130.249 21.6086 130.192 20.9588 129.661 20.3953C129.111 19.8101 128.426 19.712 128.041 19.712V23.712ZM126.249 21.904V23.328H130.249V21.904H126.249ZM126.249 23.328C126.249 23.1446 126.282 22.5908 126.749 22.0953C127.235 21.5781 127.816 21.52 128.041 21.52V25.52C128.426 25.52 129.111 25.4219 129.661 24.8367C130.192 24.2732 130.249 23.6234 130.249 23.328H126.249ZM128.041 21.52H125.369V25.52H128.041V21.52ZM123.374 23.6576C123.59 26.7901 125.564 29.0449 127.389 30.4942L129.877 27.3618C128.438 26.2191 127.468 24.8899 127.364 23.3824L123.374 23.6576Z" fill="#62CDAF"/>
</g>
<mask id="mask1_1257_5572" style="mask-type:alpha" maskUnits="userSpaceOnUse" x="0" y="0" width="390" height="422">
<rect width="390" height="422" fill="#D9D9D9"/>
</mask>
<g mask="url(#mask1_1257_5572)">
<path d="M215.196 1H374C382.284 1 389 7.71572 389 16V423H1V58.9231C1 50.6388 7.71573 43.9231 16 43.9231H174.804C181.412 43.9231 187.422 40.0932 190.213 34.1031L201.6 9.66472C204.063 4.37926 209.365 1 215.196 1Z" fill="url(#paint2_linear_1257_5572)" stroke="#46977A" stroke-width="2"/>
<path d="M208.078 13.7748C209.555 10.6036 212.737 8.57609 216.235 8.57597L372.5 8.57062C377.47 8.57045 381.5 12.5999 381.5 17.5706V422L8.5 422.005V60.4995C8.5 55.5289 12.5294 51.4995 17.5 51.4995L176.48 51.4993C185.032 51.4992 192.809 46.543 196.421 38.791L208.078 13.7748Z" fill="url(#paint3_linear_1257_5572)"/>
<path d="M381.5 424L383.5 423.999V422V17.5706C383.5 11.4953 378.575 6.57041 372.5 6.57062L216.235 6.57597C211.959 6.57611 208.071 9.05422 206.265 12.9301L194.609 37.9463C191.325 44.9936 184.255 49.4992 176.48 49.4993L17.5 49.4995C11.4249 49.4995 6.5 54.4244 6.5 60.4995V422.005V424.005L8.50003 424.005L381.5 424Z" stroke="#F1FFB9" stroke-opacity="0.5" stroke-width="4"/>
<path d="M293.896 27.362H291.736V28.892H293.896C294.058 28.892 294.13 28.982 294.13 29.144V30.656C294.13 30.8 294.058 30.872 293.896 30.872H291.736V32.312C291.736 32.456 291.664 32.546 291.484 32.546H289.648C289.504 32.546 289.432 32.456 289.432 32.312V23.924C289.432 23.78 289.504 23.69 289.648 23.69H291.484C291.664 23.69 291.736 23.78 291.736 23.924V25.346H293.896C294.058 25.346 294.13 25.436 294.13 25.598V27.11C294.13 27.272 294.058 27.362 293.896 27.362ZM288.046 30.98C286.642 31.34 284.572 31.538 282.772 31.538H279.784C279.622 31.538 279.55 31.448 279.55 31.304V24.662C279.55 24.518 279.622 24.428 279.766 24.428H281.602C281.764 24.428 281.836 24.518 281.836 24.662V29.54H283.132C284.482 29.54 286.3 29.414 287.74 29.09C287.884 29.054 287.992 29.126 288.028 29.288L288.244 30.692C288.28 30.836 288.226 30.926 288.046 30.98ZM286.48 32.978C290.044 32.978 291.898 34.382 291.898 36.326C291.898 38.234 290.044 39.674 286.48 39.674C282.898 39.674 281.044 38.252 281.044 36.326C281.044 34.382 282.898 32.978 286.48 32.978ZM286.48 37.748C288.73 37.748 289.612 37.082 289.612 36.326C289.612 35.57 288.73 34.904 286.48 34.904C284.23 34.904 283.33 35.57 283.33 36.326C283.33 37.082 284.23 37.748 286.48 37.748ZM296.197 32.942L295.513 31.502C295.459 31.376 295.495 31.268 295.639 31.214C298.663 30.17 300.841 28.154 300.841 26.39V25.022C300.841 24.878 300.913 24.806 301.057 24.806H302.929C303.091 24.806 303.163 24.878 303.163 25.022V26.39C303.163 28.154 305.323 30.17 308.347 31.214C308.491 31.268 308.527 31.376 308.473 31.502L307.807 32.942C307.753 33.068 307.645 33.122 307.501 33.086C304.981 32.312 302.947 30.836 301.993 29.468C301.039 30.836 299.005 32.312 296.485 33.086C296.341 33.122 296.251 33.068 296.197 32.942ZM303.163 35.966H309.373C309.535 35.966 309.607 36.056 309.607 36.2V37.784C309.607 37.91 309.535 38 309.373 38H294.613C294.469 38 294.397 37.91 294.397 37.784V36.2C294.397 36.056 294.469 35.966 294.613 35.966H300.859V32.798C300.859 32.654 300.931 32.582 301.075 32.582H302.911C303.091 32.582 303.163 32.654 303.163 32.798V35.966ZM323.679 39.512H321.861C321.699 39.512 321.627 39.44 321.627 39.296V23.924C321.627 23.78 321.699 23.69 321.861 23.69H323.679C323.859 23.69 323.931 23.78 323.931 23.924V39.296C323.931 39.44 323.859 39.512 323.679 39.512ZM314.391 35.876H311.277C311.115 35.876 311.061 35.786 311.061 35.642V29.792C311.061 29.648 311.115 29.558 311.277 29.558H316.803V27.02H311.241C311.097 27.02 311.025 26.948 311.025 26.786V25.346C311.025 25.22 311.097 25.13 311.241 25.13H318.855C318.999 25.13 319.071 25.22 319.071 25.346V31.124C319.071 31.268 318.981 31.358 318.837 31.358H313.329V33.968H314.733C316.119 33.968 318.117 33.824 319.701 33.464C319.845 33.446 319.953 33.5 319.989 33.68L320.223 35.102C320.241 35.228 320.205 35.282 320.043 35.318C318.441 35.66 316.551 35.876 314.391 35.876Z" fill="white"/>
<path d="M291.736 27.362V24.362H288.736V27.362H291.736ZM291.736 28.892H288.736V31.892H291.736V28.892ZM291.736 30.872V27.872H288.736V30.872H291.736ZM291.736 25.346H288.736V28.346H291.736V25.346ZM288.046 30.98L288.791 33.886L288.85 33.8709L288.908 33.8535L288.046 30.98ZM281.836 29.54H278.836V32.54H281.836V29.54ZM287.74 29.09L288.399 32.0168L288.433 32.009L288.468 32.0004L287.74 29.09ZM288.028 29.288L290.993 28.8318L290.978 28.7339L290.957 28.6372L288.028 29.288ZM288.244 30.692L285.279 31.1482L285.3 31.2852L285.334 31.4196L288.244 30.692ZM293.896 24.362H291.736V30.362H293.896V24.362ZM288.736 27.362V28.892H294.736V27.362H288.736ZM291.736 31.892H293.896V25.892H291.736V31.892ZM293.896 31.892C293.428 31.892 292.544 31.7471 291.838 30.9576C291.189 30.2322 291.13 29.4438 291.13 29.144H297.13C297.13 28.6822 297.035 27.7678 296.31 26.9569C295.527 26.0819 294.526 25.892 293.896 25.892V31.892ZM291.13 29.144V30.656H297.13V29.144H291.13ZM291.13 30.656C291.13 30.2646 291.232 29.373 292.018 28.6334C292.765 27.9297 293.6 27.872 293.896 27.872V33.872C294.354 33.872 295.306 33.7783 296.13 33.0026C296.992 32.191 297.13 31.1914 297.13 30.656H291.13ZM293.896 27.872H291.736V33.872H293.896V27.872ZM288.736 30.872V32.312H294.736V30.872H288.736ZM288.736 32.312C288.736 31.9216 288.836 31.0822 289.556 30.3617C290.277 29.6411 291.112 29.546 291.484 29.546V35.546C292.037 35.546 292.997 35.4059 293.799 34.6043C294.6 33.8028 294.736 32.8464 294.736 32.312H288.736ZM291.484 29.546H289.648V35.546H291.484V29.546ZM289.648 29.546C290.225 29.546 291.07 29.7494 291.728 30.4899C292.336 31.1734 292.432 31.9228 292.432 32.312H286.432C286.432 32.8452 286.564 33.7116 287.244 34.4761C287.974 35.2976 288.927 35.546 289.648 35.546V29.546ZM292.432 32.312V23.924H286.432V32.312H292.432ZM292.432 23.924C292.432 24.3132 292.336 25.0626 291.728 25.7461C291.07 26.4866 290.225 26.69 289.648 26.69V20.69C288.927 20.69 287.974 20.9384 287.244 21.7599C286.564 22.5244 286.432 23.3908 286.432 23.924H292.432ZM289.648 26.69H291.484V20.69H289.648V26.69ZM291.484 26.69C291.112 26.69 290.277 26.5949 289.556 25.8743C288.836 25.1538 288.736 24.3144 288.736 23.924H294.736C294.736 23.3896 294.6 22.4332 293.799 21.6317C292.997 20.8301 292.036 20.69 291.484 20.69V26.69ZM288.736 23.924V25.346H294.736V23.924H288.736ZM291.736 28.346H293.896V22.346H291.736V28.346ZM293.896 28.346C293.428 28.346 292.544 28.2011 291.838 27.4116C291.189 26.6862 291.13 25.8978 291.13 25.598H297.13C297.13 25.1362 297.035 24.2218 296.31 23.4109C295.527 22.5359 294.526 22.346 293.896 22.346V28.346ZM291.13 25.598V27.11H297.13V25.598H291.13ZM291.13 27.11C291.13 26.8102 291.189 26.0218 291.838 25.2964C292.544 24.5069 293.428 24.362 293.896 24.362V30.362C294.526 30.362 295.527 30.1721 296.31 29.2971C297.035 28.4862 297.13 27.5718 297.13 27.11H291.13ZM287.301 28.074C286.222 28.3507 284.422 28.538 282.772 28.538V34.538C284.723 34.538 287.062 34.3293 288.791 33.886L287.301 28.074ZM282.772 28.538H279.784V34.538H282.772V28.538ZM279.784 28.538C280.25 28.538 281.093 28.6796 281.787 29.4151C282.453 30.1195 282.55 30.915 282.55 31.304H276.55C276.55 31.837 276.684 32.7495 277.425 33.5349C278.196 34.3514 279.156 34.538 279.784 34.538V28.538ZM282.55 31.304V24.662H276.55V31.304H282.55ZM282.55 24.662C282.55 25.0512 282.454 25.8006 281.846 26.4841C281.188 27.2246 280.343 27.428 279.766 27.428V21.428C279.045 21.428 278.092 21.6764 277.362 22.4979C276.682 23.2624 276.55 24.1288 276.55 24.662H282.55ZM279.766 27.428H281.602V21.428H279.766V27.428ZM281.602 27.428C281.136 27.428 280.293 27.2864 279.599 26.5509C278.934 25.8465 278.836 25.051 278.836 24.662H284.836C284.836 24.129 284.703 23.2165 283.961 22.4311C283.19 21.6146 282.23 21.428 281.602 21.428V27.428ZM278.836 24.662V29.54H284.836V24.662H278.836ZM281.836 32.54H283.132V26.54H281.836V32.54ZM283.132 32.54C284.61 32.54 286.667 32.4064 288.399 32.0168L287.082 26.1632C285.933 26.4216 284.354 26.54 283.132 26.54V32.54ZM288.468 32.0004C287.892 32.1443 287.035 32.139 286.235 31.5934C285.476 31.0763 285.194 30.3618 285.1 29.9388L290.957 28.6372C290.827 28.0522 290.472 27.2207 289.615 26.6361C288.715 26.023 287.732 25.9997 287.012 26.1796L288.468 32.0004ZM285.063 29.7442L285.279 31.1482L291.209 30.2358L290.993 28.8318L285.063 29.7442ZM285.334 31.4196C285.235 31.0243 285.123 30.1159 285.73 29.2057C286.266 28.4015 287.002 28.1611 287.184 28.1065L288.908 33.8535C289.27 33.7449 290.123 33.4325 290.722 32.5338C291.392 31.5291 291.289 30.5037 291.154 29.9644L285.334 31.4196ZM286.48 35.978C287.924 35.978 288.634 36.271 288.884 36.4343C288.99 36.5035 288.978 36.5243 288.943 36.4618C288.927 36.4338 288.914 36.4017 288.906 36.3704C288.898 36.3397 288.898 36.3229 288.898 36.326H294.898C294.898 34.2538 293.848 32.5102 292.167 31.4117C290.599 30.387 288.6 29.978 286.48 29.978V35.978ZM288.898 36.326C288.898 36.3017 288.908 36.2354 288.945 36.1703C288.979 36.1119 288.986 36.1371 288.876 36.2098C288.621 36.3775 287.91 36.674 286.48 36.674V42.674C288.614 42.674 290.612 42.2505 292.175 41.2212C293.838 40.1266 294.898 38.3918 294.898 36.326H288.898ZM286.48 36.674C285.032 36.674 284.316 36.3783 284.061 36.2119C283.952 36.1406 283.963 36.1177 283.998 36.1789C284.013 36.2065 284.027 36.2391 284.035 36.2721C284.039 36.2877 284.042 36.3008 284.043 36.3107C284.043 36.3156 284.044 36.3194 284.044 36.322C284.044 36.3247 284.044 36.326 284.044 36.326H278.044C278.044 38.396 279.101 40.1362 280.776 41.2326C282.344 42.2587 284.347 42.674 286.48 42.674V36.674ZM284.044 36.326C284.044 36.3229 284.044 36.3399 284.036 36.3709C284.028 36.4025 284.015 36.4349 283.999 36.4632C283.963 36.5263 283.95 36.5057 284.057 36.4362C284.309 36.2719 285.024 35.978 286.48 35.978V29.978C284.354 29.978 282.351 30.3861 280.781 31.4098C279.096 32.5082 278.044 34.2528 278.044 36.326H284.044ZM286.48 40.748C287.831 40.748 289.164 40.5594 290.274 39.982C291.489 39.35 292.612 38.1067 292.612 36.326H286.612C286.612 35.8998 286.746 35.4838 286.979 35.1495C287.197 34.8376 287.428 34.6993 287.505 34.659C287.58 34.6202 287.556 34.648 287.37 34.6827C287.189 34.7164 286.901 34.748 286.48 34.748V40.748ZM292.612 36.326C292.612 34.5453 291.489 33.302 290.274 32.67C289.164 32.0926 287.831 31.904 286.48 31.904V37.904C286.901 37.904 287.189 37.9356 287.37 37.9693C287.556 38.004 287.58 38.0318 287.505 37.993C287.428 37.9527 287.197 37.8144 286.979 37.5025C286.746 37.1682 286.612 36.7522 286.612 36.326H292.612ZM286.48 31.904C285.128 31.904 283.796 32.0932 282.687 32.665C281.485 33.2844 280.33 34.5207 280.33 36.326H286.33C286.33 36.7657 286.189 37.1869 285.954 37.5189C285.735 37.8274 285.507 37.9614 285.436 37.998C285.367 38.0338 285.395 38.0048 285.585 37.9697C285.769 37.9356 286.06 37.904 286.48 37.904V31.904ZM280.33 36.326C280.33 38.1313 281.485 39.3676 282.687 39.987C283.796 40.5588 285.128 40.748 286.48 40.748V34.748C286.06 34.748 285.769 34.7164 285.585 34.6823C285.395 34.6472 285.367 34.6182 285.436 34.654C285.507 34.6906 285.735 34.8246 285.954 35.1331C286.189 35.4651 286.33 35.8863 286.33 36.326H280.33ZM296.197 32.942L298.954 31.7602L298.931 31.7071L298.907 31.6548L296.197 32.942ZM295.513 31.502L292.755 32.6838L292.778 32.7369L292.803 32.7892L295.513 31.502ZM295.639 31.214L294.66 28.3782L294.622 28.3911L294.585 28.405L295.639 31.214ZM308.347 31.214L309.4 28.405L309.363 28.3911L309.326 28.3782L308.347 31.214ZM308.473 31.502L311.196 32.7613L311.213 32.7228L311.23 32.6837L308.473 31.502ZM307.807 32.942L305.084 31.6827L305.066 31.7212L305.049 31.7602L307.807 32.942ZM307.501 33.086L306.62 35.9538L306.696 35.9771L306.773 35.9964L307.501 33.086ZM301.993 29.468L304.453 27.752L301.993 24.2234L299.532 27.752L301.993 29.468ZM296.485 33.086L297.212 35.9964L297.289 35.9771L297.366 35.9538L296.485 33.086ZM303.163 35.966H300.163V38.966H303.163V35.966ZM300.859 35.966V38.966H303.859V35.966H300.859ZM298.907 31.6548L298.223 30.2148L292.803 32.7892L293.487 34.2292L298.907 31.6548ZM298.27 30.3202C298.45 30.7388 298.654 31.5482 298.278 32.4669C297.893 33.4092 297.15 33.8513 296.692 34.023L294.585 28.405C293.983 28.6307 293.151 29.1538 292.725 30.1951C292.308 31.2128 292.522 32.1392 292.755 32.6838L298.27 30.3202ZM296.618 34.0498C298.458 33.4145 300.138 32.4541 301.413 31.2723C302.613 30.1605 303.841 28.4751 303.841 26.39H297.841C297.841 26.0689 297.98 26.2735 297.334 26.8717C296.765 27.3999 295.844 27.9695 294.66 28.3782L296.618 34.0498ZM303.841 26.39V25.022H297.841V26.39H303.841ZM303.841 25.022C303.841 25.4124 303.741 26.2563 303.016 26.9813C302.291 27.7064 301.447 27.806 301.057 27.806V21.806C300.522 21.806 299.57 21.9416 298.773 22.7387C297.976 23.5357 297.841 24.4876 297.841 25.022H303.841ZM301.057 27.806H302.929V21.806H301.057V27.806ZM302.929 27.806C302.633 27.806 301.798 27.7483 301.05 27.0446C300.265 26.305 300.163 25.4134 300.163 25.022H306.163C306.163 24.4866 306.025 23.487 305.163 22.6754C304.338 21.8997 303.386 21.806 302.929 21.806V27.806ZM300.163 25.022V26.39H306.163V25.022H300.163ZM300.163 26.39C300.163 28.4666 301.377 30.1506 302.576 31.2673C303.848 32.4519 305.526 33.4138 307.368 34.0498L309.326 28.3782C308.144 27.9702 307.23 27.4021 306.665 26.8767C306.028 26.2834 306.163 26.0774 306.163 26.39H300.163ZM307.293 34.023C306.835 33.8513 306.093 33.4092 305.707 32.4669C305.331 31.5482 305.536 30.7388 305.715 30.3203L311.23 32.6837C311.464 32.1392 311.677 31.2128 311.261 30.1951C310.835 29.1538 310.002 28.6307 309.4 28.405L307.293 34.023ZM305.75 30.2427L305.084 31.6827L310.53 34.2013L311.196 32.7613L305.75 30.2427ZM305.049 31.7602C305.252 31.2883 305.668 30.7152 306.393 30.3683C307.108 30.0266 307.786 30.065 308.228 30.1756L306.773 35.9964C307.359 36.143 308.164 36.1724 308.982 35.7812C309.811 35.3848 310.308 34.7217 310.564 34.1238L305.049 31.7602ZM308.382 30.2182C306.349 29.5941 304.942 28.4524 304.453 27.752L299.532 31.184C300.952 33.2196 303.612 35.0299 306.62 35.9538L308.382 30.2182ZM299.532 27.752C299.044 28.4524 297.636 29.5941 295.604 30.2182L297.366 35.9538C300.373 35.0299 303.034 33.2196 304.453 31.184L299.532 27.752ZM295.757 30.1756C296.167 30.073 296.91 30.0042 297.699 30.4173C298.464 30.8178 298.814 31.4341 298.954 31.7602L293.439 34.1238C293.633 34.5759 294.056 35.2822 294.915 35.7322C295.798 36.1948 296.658 36.135 297.212 35.9964L295.757 30.1756ZM303.163 38.966H309.373V32.966H303.163V38.966ZM309.373 38.966C308.906 38.966 308.064 38.8244 307.369 38.0889C306.704 37.3845 306.607 36.589 306.607 36.2H312.607C312.607 35.667 312.473 34.7545 311.731 33.9691C310.96 33.1526 310.001 32.966 309.373 32.966V38.966ZM306.607 36.2V37.784H312.607V36.2H306.607ZM306.607 37.784C306.607 37.2892 306.756 36.4907 307.429 35.8179C308.108 35.1394 308.906 35 309.373 35V41C310.001 41 310.917 40.8156 311.672 40.0606C312.421 39.3113 312.607 38.4048 312.607 37.784H306.607ZM309.373 35H294.613V41H309.373V35ZM294.613 35C295.186 35 295.991 35.1981 296.635 35.8832C297.251 36.5376 297.397 37.2929 297.397 37.784H291.397C291.397 38.4011 291.578 39.2644 292.266 39.9953C292.983 40.7569 293.896 41 294.613 41V35ZM297.397 37.784V36.2H291.397V37.784H297.397ZM297.397 36.2C297.397 36.5892 297.3 37.3386 296.693 38.0221C296.035 38.7626 295.19 38.966 294.613 38.966V32.966C293.892 32.966 292.939 33.2144 292.208 34.0359C291.529 34.8004 291.397 35.6668 291.397 36.2H297.397ZM294.613 38.966H300.859V32.966H294.613V38.966ZM303.859 35.966V32.798H297.859V35.966H303.859ZM303.859 32.798C303.859 33.1884 303.759 34.0323 303.034 34.7573C302.309 35.4824 301.465 35.582 301.075 35.582V29.582C300.54 29.582 299.588 29.7176 298.791 30.5147C297.994 31.3117 297.859 32.2636 297.859 32.798H303.859ZM301.075 35.582H302.911V29.582H301.075V35.582ZM302.911 35.582C302.694 35.582 301.872 35.5549 301.111 34.8782C300.268 34.1288 300.163 33.1925 300.163 32.798H306.163C306.163 32.2595 306.021 31.2152 305.097 30.3938C304.255 29.6451 303.307 29.582 302.911 29.582V35.582ZM300.163 32.798V35.966H306.163V32.798H300.163ZM316.803 29.558V32.558H319.803V29.558H316.803ZM316.803 27.02H319.803V24.02H316.803V27.02ZM313.329 31.358V28.358H310.329V31.358H313.329ZM313.329 33.968H310.329V36.968H313.329V33.968ZM319.701 33.464L319.329 30.4872L319.182 30.5056L319.036 30.5386L319.701 33.464ZM319.989 33.68L322.95 33.1929L322.941 33.1421L322.931 33.0917L319.989 33.68ZM320.223 35.102L323.193 34.6777L323.189 34.6463L323.184 34.6149L320.223 35.102ZM320.043 35.318L320.67 38.2519L320.682 38.2493L320.694 38.2466L320.043 35.318ZM323.679 36.512H321.861V42.512H323.679V36.512ZM321.861 36.512C322.157 36.512 322.992 36.5697 323.74 37.2734C324.525 38.013 324.627 38.9046 324.627 39.296H318.627C318.627 39.8314 318.765 40.831 319.627 41.6426C320.452 42.4183 321.404 42.512 321.861 42.512V36.512ZM324.627 39.296V23.924H318.627V39.296H324.627ZM324.627 23.924C324.627 24.313 324.53 25.1085 323.865 25.8129C323.17 26.5484 322.328 26.69 321.861 26.69V20.69C321.233 20.69 320.274 20.8766 319.503 21.6931C318.761 22.4785 318.627 23.391 318.627 23.924H324.627ZM321.861 26.69H323.679V20.69H321.861V26.69ZM323.679 26.69C323.307 26.69 322.472 26.5949 321.751 25.8743C321.031 25.1538 320.931 24.3144 320.931 23.924H326.931C326.931 23.3896 326.796 22.4332 325.994 21.6317C325.193 20.8301 324.232 20.69 323.679 20.69V26.69ZM320.931 23.924V39.296H326.931V23.924H320.931ZM320.931 39.296C320.931 38.9015 321.037 37.9652 321.88 37.2158C322.641 36.5391 323.463 36.512 323.679 36.512V42.512C324.076 42.512 325.024 42.4489 325.866 41.7002C326.79 40.8788 326.931 39.8345 326.931 39.296H320.931ZM314.391 32.876H311.277V38.876H314.391V32.876ZM311.277 32.876C311.747 32.876 312.69 33.025 313.413 33.8924C314.04 34.6449 314.061 35.4347 314.061 35.642H308.061C308.061 35.9933 308.109 36.9001 308.804 37.7336C309.594 38.682 310.646 38.876 311.277 38.876V32.876ZM314.061 35.642V29.792H308.061V35.642H314.061ZM314.061 29.792C314.061 29.9993 314.04 30.7891 313.413 31.5416C312.69 32.409 311.747 32.558 311.277 32.558V26.558C310.646 26.558 309.594 26.752 308.804 27.7004C308.109 28.5339 308.061 29.4407 308.061 29.792H314.061ZM311.277 32.558H316.803V26.558H311.277V32.558ZM319.803 29.558V27.02H313.803V29.558H319.803ZM316.803 24.02H311.241V30.02H316.803V24.02ZM311.241 24.02C311.633 24.02 312.524 24.1219 313.264 24.9077C313.968 25.6553 314.025 26.4903 314.025 26.786H308.025C308.025 27.2437 308.119 28.1957 308.895 29.0198C309.706 29.8821 310.706 30.02 311.241 30.02V24.02ZM314.025 26.786V25.346H308.025V26.786H314.025ZM314.025 25.346C314.025 25.8371 313.88 26.5924 313.264 27.2468C312.619 27.9319 311.814 28.13 311.241 28.13V22.13C310.524 22.13 309.611 22.3731 308.895 23.1347C308.207 23.8656 308.025 24.7289 308.025 25.346H314.025ZM311.241 28.13H318.855V22.13H311.241V28.13ZM318.855 28.13C318.282 28.13 317.477 27.9319 316.833 27.2468C316.217 26.5924 316.071 25.8371 316.071 25.346H322.071C322.071 24.7289 321.89 23.8656 321.202 23.1347C320.485 22.3731 319.572 22.13 318.855 22.13V28.13ZM316.071 25.346V31.124H322.071V25.346H316.071ZM316.071 31.124C316.071 30.5633 316.259 29.8014 316.887 29.1737C317.515 28.5459 318.277 28.358 318.837 28.358V34.358C319.542 34.358 320.421 34.1251 321.13 33.4163C321.838 32.7076 322.071 31.8287 322.071 31.124H316.071ZM318.837 28.358H313.329V34.358H318.837V28.358ZM310.329 31.358V33.968H316.329V31.358H310.329ZM313.329 36.968H314.733V30.968H313.329V36.968ZM314.733 36.968C316.26 36.968 318.496 36.8145 320.366 36.3894L319.036 30.5386C317.739 30.8335 315.978 30.968 314.733 30.968V36.968ZM320.073 36.4408C319.725 36.4844 318.963 36.4993 318.196 35.9764C317.399 35.4334 317.129 34.6766 317.048 34.2683L322.931 33.0917C322.813 32.5034 322.471 31.6296 321.576 31.0191C320.71 30.4287 319.822 30.4256 319.329 30.4872L320.073 36.4408ZM317.029 34.1671L317.263 35.5891L323.184 34.6149L322.95 33.1929L317.029 34.1671ZM317.253 35.5263C317.232 35.3732 317.082 34.3403 317.858 33.3697C318.522 32.5402 319.387 32.3907 319.393 32.3894L320.694 38.2466C320.862 38.2093 321.826 38.0148 322.543 37.1178C323.374 36.0797 323.233 34.9568 323.193 34.6777L317.253 35.5263ZM319.417 32.3841C318.032 32.6798 316.353 32.876 314.391 32.876V38.876C316.75 38.876 318.851 38.6402 320.67 38.2519L319.417 32.3841Z" fill="#46977A"/>
<path d="M257.016 41.3359C256.76 41.3359 256.557 41.2526 256.406 41.0859C256.26 40.9193 256.188 40.6953 256.188 40.4141V38.1641H255.969C255.245 38.1641 254.604 38.0104 254.047 37.7031C253.495 37.3958 253.06 36.9557 252.742 36.3828C252.43 35.8099 252.273 35.1276 252.273 34.3359V28.1484C252.273 27.3568 252.427 26.6745 252.734 26.1016C253.042 25.5286 253.479 25.0885 254.047 24.7812C254.62 24.4688 255.305 24.3125 256.102 24.3125H265.898C266.695 24.3125 267.38 24.4688 267.953 24.7812C268.526 25.0885 268.964 25.5286 269.266 26.1016C269.573 26.6745 269.727 27.3568 269.727 28.1484V34.3359C269.727 35.1276 269.573 35.8099 269.266 36.3828C268.964 36.9557 268.526 37.3958 267.953 37.7031C267.38 38.0104 266.695 38.1641 265.898 38.1641H261.047L258.094 40.7969C257.875 40.9896 257.685 41.1276 257.523 41.2109C257.367 41.2943 257.198 41.3359 257.016 41.3359ZM257.109 32.5469C257.474 32.5469 257.781 32.4193 258.031 32.1641C258.286 31.9089 258.414 31.6016 258.414 31.2422C258.414 30.8776 258.286 30.5677 258.031 30.3125C257.781 30.0573 257.474 29.9297 257.109 29.9297C256.745 29.9297 256.435 30.0573 256.18 30.3125C255.924 30.5677 255.797 30.8776 255.797 31.2422C255.797 31.6016 255.924 31.9089 256.18 32.1641C256.435 32.4193 256.745 32.5469 257.109 32.5469ZM261.016 32.5469C261.38 32.5469 261.69 32.4193 261.945 32.1641C262.201 31.9089 262.328 31.6016 262.328 31.2422C262.328 30.8776 262.201 30.5677 261.945 30.3125C261.69 30.0573 261.38 29.9297 261.016 29.9297C260.656 29.9297 260.346 30.0573 260.086 30.3125C259.831 30.5677 259.703 30.8776 259.703 31.2422C259.703 31.6016 259.831 31.9089 260.086 32.1641C260.346 32.4193 260.656 32.5469 261.016 32.5469ZM264.922 32.5469C265.286 32.5469 265.596 32.4193 265.852 32.1641C266.107 31.9089 266.234 31.6016 266.234 31.2422C266.234 30.8776 266.107 30.5677 265.852 30.3125C265.596 30.0573 265.286 29.9297 264.922 29.9297C264.557 29.9297 264.247 30.0573 263.992 30.3125C263.742 30.5677 263.617 30.8776 263.617 31.2422C263.617 31.6016 263.742 31.9089 263.992 32.1641C264.247 32.4193 264.557 32.5469 264.922 32.5469Z" fill="#46977A"/>
</g>
<defs>
<linearGradient id="paint0_linear_1257_5572" x1="5.81145e-05" y1="-3.06538e-05" x2="390" y2="420" gradientUnits="userSpaceOnUse">
<stop stop-color="white"/>
<stop offset="0.176441" stop-color="#69CFA8"/>
<stop offset="0.94519" stop-color="#D6DD86"/>
</linearGradient>
<linearGradient id="paint1_linear_1257_5572" x1="195" y1="8.57031" x2="195" y2="419.999" gradientUnits="userSpaceOnUse">
<stop stop-color="#FFF9D8"/>
<stop offset="0.11261" stop-color="#BEF199"/>
<stop offset="1" stop-color="#65CEA8"/>
</linearGradient>
<linearGradient id="paint2_linear_1257_5572" x1="-2.2386e-05" y1="-7.98364e-07" x2="390" y2="420" gradientUnits="userSpaceOnUse">
<stop stop-color="white"/>
<stop offset="0.307292" stop-color="#69CFA8"/>
<stop offset="0.94519" stop-color="#D6DD86"/>
</linearGradient>
<linearGradient id="paint3_linear_1257_5572" x1="195" y1="8.57031" x2="195" y2="419.999" gradientUnits="userSpaceOnUse">
<stop stop-color="#FFF9D8"/>
<stop offset="0.11261" stop-color="#BEF199"/>
<stop offset="1" stop-color="#65CEA8"/>
</linearGradient>
</defs>
</svg>
