<svg width="72" height="27" viewBox="0 0 72 27" fill="none" xmlns="http://www.w3.org/2000/svg">
<rect x="1" y="1" width="70" height="25" rx="12.5" fill="url(#paint0_linear_961_5446)"/>
<path d="M23.3039 19.592H21.9779C21.8609 19.592 21.8089 19.54 21.8089 19.436V8.334C21.8089 8.23 21.8609 8.165 21.9779 8.165H23.3039C23.4339 8.165 23.4859 8.23 23.4859 8.334V19.436C23.4859 19.54 23.4339 19.592 23.3039 19.592ZM14.9969 17.135C14.8799 17.187 14.8149 17.174 14.7499 17.083L14.1389 16.004C14.0739 15.9 14.0999 15.822 14.2039 15.77C17.0119 14.405 18.1689 13.079 18.1689 11.116V10.856H14.5289C14.4249 10.856 14.3729 10.804 14.3729 10.7V9.556C14.3729 9.452 14.4249 9.387 14.5289 9.387H19.6769C19.8069 9.387 19.8459 9.452 19.8459 9.556V11.116C19.8459 13.625 18.2859 15.51 14.9969 17.135ZM34.0134 13.092H26.6294C26.4994 13.092 26.4604 13.04 26.4604 12.936V8.672C26.4604 8.568 26.4994 8.503 26.6294 8.503H27.9424C28.0464 8.503 28.0984 8.568 28.0984 8.672V9.621H32.5314V8.672C32.5314 8.568 32.5834 8.503 32.7004 8.503H34.0134C34.1304 8.503 34.1824 8.568 34.1824 8.672V12.936C34.1824 13.04 34.1304 13.092 34.0134 13.092ZM32.5314 11.792V10.908H28.0984V11.792H32.5314ZM24.9914 14.002H35.6514C35.7684 14.002 35.8204 14.08 35.8204 14.184V15.224C35.8204 15.328 35.7684 15.393 35.6514 15.393H31.2704V17.148C31.2704 17.252 31.2054 17.317 31.1014 17.317H29.7754C29.6584 17.317 29.6064 17.252 29.6064 17.148V15.393H24.9914C24.8874 15.393 24.8354 15.328 24.8354 15.224V14.184C24.8354 14.08 24.8874 14.002 24.9914 14.002ZM28.0464 18.175H34.3644C34.4944 18.175 34.5464 18.24 34.5464 18.344V19.384C34.5464 19.488 34.4944 19.553 34.3644 19.553H26.5774C26.4604 19.553 26.4084 19.488 26.4084 19.384V16.342C26.4084 16.238 26.4604 16.173 26.5774 16.173H27.8904C28.0074 16.173 28.0464 16.238 28.0464 16.342V18.175ZM37.469 12.338L37.183 11.337C37.144 11.22 37.17 11.142 37.261 11.129C39.276 10.804 40.602 10.349 40.81 9.738H37.781C37.664 9.738 37.612 9.673 37.612 9.582V8.555C37.612 8.451 37.664 8.373 37.781 8.373H45.555C45.659 8.373 45.711 8.451 45.711 8.555V9.582C45.711 9.673 45.659 9.738 45.555 9.738H42.539C42.747 10.349 44.047 10.804 46.062 11.129C46.166 11.142 46.179 11.22 46.153 11.337L45.893 12.338C45.867 12.429 45.776 12.455 45.672 12.442C44.008 12.26 42.565 11.792 41.668 11.038C40.784 11.792 39.328 12.26 37.677 12.442C37.573 12.455 37.508 12.442 37.469 12.338ZM42.5 13.092H46.998C47.115 13.092 47.167 13.157 47.167 13.261V14.262C47.167 14.353 47.115 14.418 46.998 14.418H36.338C36.234 14.418 36.182 14.353 36.182 14.262V13.261C36.182 13.157 36.234 13.092 36.338 13.092H40.836V12.13C40.836 12.026 40.888 11.961 40.992 11.961H42.318C42.435 11.961 42.5 12.026 42.5 12.13V13.092ZM42.5 15.887H45.633C45.737 15.887 45.789 15.952 45.789 16.056V17.07C45.789 17.161 45.737 17.226 45.633 17.226H44.723C44.892 17.46 45.009 17.733 45.009 18.058C45.009 19.189 43.813 19.878 41.655 19.878C39.497 19.878 38.314 19.189 38.314 18.032C38.314 17.72 38.418 17.447 38.6 17.226H37.716C37.599 17.226 37.547 17.161 37.547 17.07V16.056C37.547 15.952 37.599 15.887 37.716 15.887H40.836V15.055C40.836 14.951 40.888 14.899 40.992 14.899H42.331C42.448 14.899 42.5 14.951 42.5 15.055V15.887ZM41.655 18.578C42.89 18.578 43.345 18.305 43.345 17.915C43.345 17.551 42.89 17.278 41.655 17.278C40.42 17.278 39.978 17.551 39.978 17.915C39.978 18.305 40.42 18.578 41.655 18.578ZM53.0146 13.17C50.4016 13.17 49.2576 12.091 49.2576 10.804C49.2576 9.517 50.4016 8.438 53.0146 8.438C55.6406 8.438 56.7716 9.517 56.7716 10.804C56.7716 12.091 55.6406 13.17 53.0146 13.17ZM53.0146 11.818C54.5876 11.818 55.1206 11.363 55.1206 10.804C55.1206 10.232 54.5876 9.79 53.0146 9.79C51.4546 9.79 50.9086 10.232 50.9086 10.804C50.9086 11.363 51.4546 11.818 53.0146 11.818ZM58.3446 15.367H47.6846C47.5806 15.367 47.5286 15.302 47.5286 15.211V14.158C47.5286 14.054 47.5806 13.976 47.6846 13.976H58.3446C58.4616 13.976 58.5136 14.054 58.5136 14.158V15.211C58.5136 15.302 58.4616 15.367 58.3446 15.367ZM57.0576 19.553H49.4006C49.2706 19.553 49.2186 19.488 49.2186 19.384V16.316C49.2186 16.212 49.2706 16.16 49.4006 16.16H50.7136C50.8176 16.16 50.8696 16.212 50.8696 16.316V18.175H57.0576C57.1876 18.175 57.2396 18.24 57.2396 18.344V19.384C57.2396 19.488 57.1876 19.553 57.0576 19.553Z" fill="white"/>
<rect x="1" y="1" width="70" height="25" rx="12.5" stroke="url(#paint1_linear_961_5446)" stroke-width="2"/>
<defs>
<linearGradient id="paint0_linear_961_5446" x1="36" y1="2" x2="36" y2="25" gradientUnits="userSpaceOnUse">
<stop stop-color="#98E9D1"/>
<stop offset="1" stop-color="#2FA1A8"/>
</linearGradient>
<linearGradient id="paint1_linear_961_5446" x1="36" y1="2" x2="36" y2="25" gradientUnits="userSpaceOnUse">
<stop stop-color="#7DCCD1"/>
<stop offset="1" stop-color="white"/>
</linearGradient>
</defs>
</svg>
