<svg width="39" height="33" viewBox="0 0 39 33" fill="none" xmlns="http://www.w3.org/2000/svg">
<path d="M0.145508 18.0987C0.145508 22.1052 2.38389 26.261 5.8503 28.6864C9.13809 30.9876 13.499 32.1054 19.1815 32.1054C24.864 32.1054 29.2249 30.9862 32.5127 28.6864C35.9777 26.261 38.2175 22.1052 38.2175 18.0987C38.2175 15.3664 37.5811 12.9214 35.6833 10.4179C35.6833 10.4179 35.6833 10.4151 35.6819 10.4137L35.9247 2.77478C35.8326 1.78816 35.2548 0.920162 34.3826 0.451275C33.5091 -0.0176124 32.4666 -0.0176124 31.5944 0.451275L25.1724 4.72987C25.1724 4.72987 25.1696 4.72987 25.1668 4.72987C23.4573 4.34471 21.3724 4.23028 19.1829 4.23028C16.9934 4.23028 14.9071 4.34611 13.199 4.72987C13.1976 4.72987 13.1948 4.72987 13.1934 4.72987L6.76994 0.45267C5.89635 -0.0148214 4.85392 -0.0148214 3.98173 0.45267C3.10815 0.921558 2.53181 1.78956 2.43971 2.77617L2.68252 10.4151C2.68252 10.4151 2.68252 10.4179 2.68113 10.4193C0.781855 12.9214 0.145508 15.3664 0.145508 18.0987Z" fill="url(#paint0_radial_1287_5438)"/>
<g filter="url(#filter0_f_1287_5438)">
<path d="M30.8463 18.5442C30.8463 20.9018 29.5447 23.4838 27.3266 25.028C25.1085 26.5722 22.2308 27.1724 18.845 27.1724C15.4592 27.1724 12.5825 26.5731 10.3635 25.028C8.14541 23.4838 6.84375 20.9018 6.84375 18.5442C6.84375 16.1865 7.86826 13.5135 10.0863 11.9684C12.3053 10.4233 15.4602 10.0078 18.845 10.0078C22.2299 10.0078 25.3847 10.4233 27.6037 11.9684C29.8218 13.5135 30.8463 16.1874 30.8463 18.5442Z" fill="#918277"/>
</g>
<path d="M18.7629 21.6699C19.4496 21.6699 20.0063 21.1132 20.0063 20.4265C20.0063 19.7398 19.4496 19.1831 18.7629 19.1831C18.0762 19.1831 17.5195 19.7398 17.5195 20.4265C17.5195 21.1132 18.0762 21.6699 18.7629 21.6699Z" fill="#C9C2BD"/>
<path d="M16.3135 23.3092C16.5186 23.4013 16.7684 23.4669 17.0698 23.4794C18.196 23.5255 18.7012 22.7775 18.757 22.6882C18.7598 22.684 18.7654 22.684 18.7682 22.6882C18.824 22.7775 19.3291 23.5269 20.4553 23.4794C20.7567 23.4669 21.0065 23.4013 21.2117 23.3092" stroke="#C9C2BD" stroke-width="1.3955" stroke-miterlimit="10" stroke-linecap="round"/>
<path d="M13.7989 19.8031C14.272 19.3287 14.5622 18.4565 14.766 17.6094C14.9697 16.7623 15.1093 15.8525 14.9041 15.2161C14.9041 15.2133 14.9027 15.212 14.9013 15.2092C14.7827 14.8463 14.4296 14.6133 14.0487 14.6133H12.2722C12.0182 14.6133 11.7768 14.7417 11.6484 14.9608C11.3651 15.4436 11.167 16.0827 11.0163 16.7079C10.8125 17.555 10.673 18.4649 10.8781 19.1012C10.8907 19.1389 10.9032 19.1766 10.9186 19.2114C11.1516 19.7878 11.7363 20.145 12.3587 20.145H13.023C13.256 20.145 13.4821 20.0697 13.6635 19.9245C13.7096 19.8883 13.7542 19.8478 13.7975 19.8045L13.7989 19.8031Z" fill="#A0CCFF"/>
<path d="M23.5993 16.7065C23.3955 17.5536 23.256 18.4635 23.4611 19.0998C23.5937 19.5101 23.8686 19.8073 24.1854 20.0013C24.3431 20.0976 24.5273 20.1436 24.7115 20.1436H25.5153C25.8335 20.1436 26.1488 20.032 26.3749 19.8073C26.3763 19.8059 26.3777 19.8045 26.3791 19.8031C26.8522 19.3287 27.1424 18.4565 27.3462 17.6094C27.5499 16.7623 27.6895 15.8525 27.4843 15.2161C27.4648 15.1547 27.4425 15.0975 27.416 15.0417C27.2959 14.7807 27.035 14.6133 26.7475 14.6133H24.9557C24.625 14.6133 24.3152 14.7905 24.1603 15.0822C23.9133 15.5469 23.7346 16.133 23.5965 16.7079L23.5993 16.7065Z" fill="#A0CCFF"/>
<path d="M35.6833 10.4179C35.6833 10.4179 35.6833 10.4151 35.6819 10.4137L35.9247 2.77478C35.8326 1.78816 35.2548 0.920162 34.3826 0.451275C33.5091 -0.0176124 32.4666 -0.0176124 31.5944 0.451275L25.1724 4.72987C25.1724 4.72987 25.1696 4.72987 25.1668 4.72987C23.4573 4.34471 21.3724 4.23028 19.1829 4.23028C16.9934 4.23028 14.9071 4.34611 13.199 4.72987C13.1976 4.72987 13.1948 4.72987 13.1934 4.72987L6.76994 0.45267C5.89635 -0.0148214 4.85392 -0.0148214 3.98173 0.45267C3.10815 0.921558 2.53181 1.78956 2.43971 2.77617L2.68252 10.4151C2.68252 10.4151 2.68252 10.4179 2.68113 10.4193C0.781855 12.9214 0.145508 15.3664 0.145508 18.0987C0.145508 22.1052 2.38389 26.261 5.8503 28.6864C9.13809 30.9876 13.499 32.1054 19.1815 32.1054C24.864 32.1054 29.2249 30.9862 32.5127 28.6864C35.9777 26.261 38.2175 22.1052 38.2175 18.0987C38.2175 15.3664 37.5811 12.9214 35.6833 10.4179ZM31.473 27.2002C28.5006 29.2809 24.4802 30.2912 19.1815 30.2912C13.8828 30.2912 9.86236 29.2795 6.88995 27.2002C3.89521 25.1041 1.95965 21.5317 1.95965 18.0987C1.95965 15.6496 2.74253 13.1419 4.10872 11.2217C4.10872 11.2217 4.21199 11.071 4.24967 11.0236C4.55249 10.6342 5.18744 9.86112 6.21174 9.05731C6.21732 9.05312 6.21453 9.04335 6.20755 9.04475C6.02893 9.08661 5.06603 9.32525 4.33758 9.75087C4.332 9.75366 4.32642 9.75087 4.32781 9.74389L4.24688 2.94642C4.28316 2.56127 4.49946 2.23472 4.84136 2.05191C5.17907 1.8705 5.56562 1.8691 5.90333 2.04493L12.0882 5.94256C12.0882 5.94256 12.0938 5.95233 12.0882 5.95512C11.5858 6.25515 10.888 6.53006 10.2936 7.11478C10.288 7.12036 10.2936 7.13013 10.2991 7.12734C10.5113 7.06314 11.9375 6.6431 13.8074 6.38633C16.0332 6.08211 16.9459 6.04443 19.1829 6.04443C21.4199 6.04443 22.3325 6.08071 24.5583 6.38633C26.4283 6.6417 27.8545 7.06175 28.0666 7.12734C28.0736 7.13013 28.0778 7.12036 28.0722 7.11478C27.4777 6.53006 26.7786 6.25515 26.2776 5.95512C26.2734 5.95233 26.2734 5.94535 26.2776 5.94256L32.4624 2.04493C32.8015 1.86771 33.1881 1.8705 33.5244 2.05191C33.8663 2.23472 34.0826 2.56127 34.1189 2.94642L34.038 9.74389C34.038 9.74389 34.0324 9.75366 34.0282 9.75087C33.2997 9.32525 32.3368 9.08661 32.1582 9.04475C32.1512 9.04335 32.1471 9.05312 32.154 9.05731C33.1783 9.86112 33.8133 10.6342 34.1161 11.0236C34.1538 11.071 34.2571 11.2217 34.2571 11.2217C35.6218 13.1433 36.4061 15.6496 36.4061 18.0987C36.4061 21.5317 34.4706 25.1041 31.4758 27.2002H31.473Z" fill="#786565"/>
<defs>
<filter id="filter0_f_1287_5438" x="1.95951" y="5.12357" width="33.7714" height="26.933" filterUnits="userSpaceOnUse" color-interpolation-filters="sRGB">
<feFlood flood-opacity="0" result="BackgroundImageFix"/>
<feBlend mode="normal" in="SourceGraphic" in2="BackgroundImageFix" result="shape"/>
<feGaussianBlur stdDeviation="2.44212" result="effect1_foregroundBlur_1287_5438"/>
</filter>
<radialGradient id="paint0_radial_1287_5438" cx="0" cy="0" r="1" gradientUnits="userSpaceOnUse" gradientTransform="translate(19.1815 19.1482) rotate(90) scale(20.5836 26.3582)">
<stop offset="0.669198" stop-color="#FFFDEE"/>
<stop offset="0.760346" stop-color="#AA9C88"/>
<stop offset="0.907194" stop-color="#6D5750"/>
</radialGradient>
</defs>
</svg>
