<svg width="211" height="282" viewBox="0 0 211 282" fill="none" xmlns="http://www.w3.org/2000/svg">
<path d="M207.081 278.701C207.081 242.658 208.981 130.952 178.577 85.3457L89.8859 90.8963C30.0149 84.3464 13.1559 87.3547 6.86487 93.5629C4.02742 96.3641 3.32324 99.9523 3.32324 102.132C3.32324 106.14 6.40404 109.428 10.3288 109.764C11.6336 112.198 14.1967 113.855 17.1532 113.855C18.6496 113.855 20.0372 113.425 21.2229 112.69C22.4035 113.425 23.7963 113.855 25.2927 113.855C28.8395 113.855 31.8219 111.468 32.7332 108.216C62.7749 114.564 80.0326 125.287 91.7034 137.859C108.423 155.862 111.099 218.845 111.099 278.706H207.086L207.081 278.701Z" fill="#EBECEE"/>
<mask id="mask0_946_9233" style="mask-type:alpha" maskUnits="userSpaceOnUse" x="3" y="85" width="205" height="194">
<path d="M207.082 278.701C207.082 242.658 208.982 130.952 178.578 85.3457L89.8869 90.8963C30.0159 84.3464 13.1569 87.3547 6.86584 93.5629C4.0284 96.3641 3.32422 99.9523 3.32422 102.132C3.32422 106.14 6.40502 109.428 10.3298 109.764C11.6346 112.198 14.1976 113.855 17.1542 113.855C18.6505 113.855 20.0382 113.425 21.2239 112.69C22.4045 113.425 23.7973 113.855 25.2937 113.855C28.8405 113.855 31.8229 111.468 32.7342 108.216C62.7759 114.564 80.0335 125.287 91.7043 137.859C108.424 155.862 111.1 218.845 111.1 278.706H207.087L207.082 278.701Z" fill="white"/>
</mask>
<g mask="url(#mask0_946_9233)">
<g filter="url(#filter0_f_946_9233)">
<path d="M172.387 124.199C162.734 128.641 158.981 129.33 159.8 132.731L159.803 132.746C160.622 136.147 167.334 134.317 177.951 133.88C178.886 133.843 179.784 133.836 180.655 133.857C181.189 133.869 181.71 133.885 182.215 133.915C183.429 133.989 183.656 135.336 182.542 135.866C182.368 135.95 182.193 136.028 182.019 136.112C180.663 136.737 179.357 137.302 178.13 137.822C177.719 137.994 177.314 138.165 176.92 138.328C176.396 138.543 175.885 138.755 175.384 138.959C174.142 139.468 173.005 139.93 171.979 140.37C171.569 140.547 171.177 140.72 170.81 140.887C167.658 142.326 165.941 143.576 166.377 145.385L166.38 145.4C166.841 147.313 169.166 147.57 173 147.353C173.428 147.328 173.874 147.299 174.337 147.261C174.565 147.243 174.807 147.227 175.047 147.205C175.53 147.168 176.031 147.125 176.544 147.08C177.056 147.035 177.595 146.989 178.147 146.945C180.075 146.785 182.208 146.622 184.533 146.528C184.725 146.518 184.918 146.513 185.111 146.509C186.344 146.474 186.754 147.776 185.707 148.395C185.277 148.65 184.826 148.9 184.362 149.147C183.589 149.564 182.782 149.972 181.926 150.367C172.273 154.809 165.463 156.233 166.282 159.635L166.286 159.65C167.105 163.051 170.76 161.957 181.377 161.519C191.994 161.082 198.09 175.364 198.09 175.364L202.976 171.991L199.863 163.064C199.706 155.721 198.528 147.578 196.267 138.185C194.006 128.791 191.349 121.004 188.148 114.395L186.857 105.029L180.972 104.249C180.972 104.249 182.044 119.745 172.39 124.182L172.387 124.199Z" fill="#C0C0C0"/>
</g>
<g filter="url(#filter1_f_946_9233)">
<path d="M187.664 228.96C177.274 231.188 173.461 231.041 173.518 234.539L173.518 234.554C173.574 238.052 180.524 237.732 190.98 239.623C191.901 239.791 192.778 239.98 193.624 240.191C194.142 240.32 194.647 240.449 195.134 240.588C196.302 240.926 196.23 242.29 195.027 242.563C194.839 242.607 194.651 242.646 194.463 242.689C193.003 243.003 191.605 243.27 190.295 243.509C189.856 243.588 189.423 243.666 189.003 243.739C188.445 243.834 187.899 243.929 187.366 244.019C186.043 244.244 184.833 244.447 183.736 244.653C183.297 244.736 182.877 244.819 182.482 244.902C179.092 245.618 177.143 246.463 177.173 248.324L177.174 248.339C177.205 250.307 179.418 251.064 183.208 251.69C183.63 251.759 184.071 251.829 184.532 251.892C184.758 251.924 184.998 251.961 185.237 251.993C185.716 252.061 186.214 252.13 186.725 252.198C187.235 252.266 187.771 252.339 188.319 252.416C190.235 252.68 192.353 252.987 194.642 253.403C194.831 253.435 195.021 253.473 195.21 253.51C196.421 253.745 196.537 255.106 195.38 255.481C194.905 255.636 194.41 255.781 193.903 255.922C193.058 256.159 192.181 256.382 191.26 256.58C180.87 258.807 173.914 258.711 173.97 262.209L173.97 262.224C174.027 265.722 177.833 265.453 188.29 267.344C198.746 269.235 201.577 284.503 201.577 284.503L207.081 282.278L205.992 272.887C207.442 265.687 208.071 257.484 207.915 247.823C207.759 238.162 206.866 229.983 205.185 222.834L205.97 213.413L200.397 211.366C200.397 211.366 198.06 226.723 187.67 228.945L187.664 228.96Z" fill="#C0C0C0"/>
</g>
<g filter="url(#filter2_f_946_9233)">
<path d="M183.301 174.026C170.047 177.341 165.112 177.595 165.44 181.078L165.441 181.093C165.768 184.577 174.719 183.526 188.358 184.313C189.559 184.384 190.706 184.481 191.813 184.601C192.491 184.675 193.153 184.751 193.791 184.839C195.325 185.053 195.331 186.421 193.797 186.82C193.558 186.884 193.318 186.942 193.078 187.006C191.216 187.472 189.43 187.885 187.756 188.262C187.194 188.386 186.642 188.509 186.104 188.626C185.391 188.78 184.693 188.932 184.011 189.078C182.319 189.442 180.771 189.771 179.369 190.092C178.809 190.221 178.272 190.348 177.769 190.472C173.443 191.542 170.989 192.59 171.163 194.443L171.164 194.458C171.348 196.418 174.261 196.941 179.2 197.166C179.75 197.191 180.325 197.214 180.924 197.229C181.219 197.237 181.531 197.249 181.842 197.255C182.466 197.273 183.114 197.289 183.778 197.303C184.442 197.317 185.139 197.334 185.853 197.353C188.346 197.415 191.103 197.498 194.089 197.672C194.336 197.685 194.583 197.703 194.83 197.72C196.411 197.827 196.66 199.172 195.193 199.668C194.59 199.873 193.962 200.069 193.318 200.263C192.244 200.589 191.128 200.903 189.953 201.197C176.699 204.511 167.709 205.147 168.037 208.63L168.038 208.645C168.366 212.128 173.261 211.459 186.9 212.246C200.54 213.033 205.305 227.964 205.305 227.964L212.251 225.166L210.162 215.913C211.51 208.58 211.725 200.331 210.821 190.711C209.917 181.092 208.169 173.028 205.479 166.074L205.807 156.594L198.462 155.139C198.462 155.139 196.562 170.701 183.307 174.01L183.301 174.026Z" fill="#C0C0C0"/>
</g>
<g filter="url(#filter3_f_946_9233)">
<path d="M32.4846 88.7609L32.2335 92.2054C32.2335 92.2054 38.7484 93.3416 39.3522 95.6362C40.9113 101.582 40.0148 105.61 43.0896 105.687L43.1048 105.686C46.1799 105.767 46.3855 101.79 48.7703 95.8801C49.0674 95.152 49.3979 94.4616 49.7523 93.8175C50.1691 93.0638 51.5368 93.1682 51.7016 93.9641L51.7035 93.9881C52.9375 99.9919 52.3712 103.961 55.441 104.039L55.4561 104.038C58.5312 104.119 58.7368 100.142 61.1217 94.232L61.1342 94.1988C61.4476 93.4212 62.8309 93.4036 63.1003 94.175C63.33 94.829 63.5228 95.5301 63.6778 96.2664C64.9068 102.271 64.3404 106.24 67.4152 106.317L67.4304 106.316C70.5055 106.397 71.0384 103.155 73.4464 100.91C79.8064 94.9816 81.064 96.7615 81.064 96.7615L80.7116 92.3374C71.6159 86.972 60.1109 84.2176 49.2039 85.0864C43.4732 85.543 37.7666 86.8106 32.4893 88.7565L32.4846 88.7609Z" fill="#C0C0C0"/>
</g>
</g>
<path d="M206.786 179.499C202.437 134.861 193.816 102.603 181.161 83.6213L180.167 82.1301L89.9538 87.7739C61.7761 84.6983 41.5412 83.5747 28.0996 84.3411C16.1182 85.0193 8.89511 87.1837 4.67519 91.3518C0.64685 95.3284 0.211914 100.216 0.211914 102.132C0.211914 107.123 3.72247 111.442 8.44982 112.596C10.4795 115.32 13.6846 116.961 17.1434 116.961C18.5414 116.961 19.9239 116.687 21.2131 116.164C22.5024 116.687 23.8849 116.961 25.2829 116.961C29.1041 116.961 32.5784 114.932 34.5201 111.783C59.2545 117.334 76.7452 126.323 89.4205 139.971C96.4985 147.593 101.599 165.41 104.576 192.92C106.906 214.408 107.988 241.669 107.988 278.706V281.812H210.188V278.706C210.188 276.878 210.188 274.859 210.198 272.663C210.25 251.445 210.333 215.93 206.786 179.504V179.499ZM203.985 272.643C203.985 273.663 203.985 274.646 203.98 275.594H114.201C114.113 216.588 111.493 154.604 93.977 135.741C79.9761 120.663 60.7199 110.95 33.3706 105.171L30.5228 104.571L29.7358 107.372C29.1766 109.36 27.3437 110.748 25.2829 110.748C24.4286 110.748 23.5897 110.505 22.8545 110.049L22.4817 109.816C21.6325 109.22 20.6695 108.175 20.9025 106.559C20.9025 106.559 19.9446 107.553 19.9808 109.8L19.5821 110.049C18.8469 110.505 18.0081 110.748 17.1537 110.748C16.025 110.748 14.8392 110.199 13.8865 109.412H13.9021C13.9021 109.412 10.5986 106.673 11.7843 103.209C11.7843 103.209 10.8109 104.752 10.5106 106.663C8.22199 106.419 6.44082 104.452 6.44082 102.137C6.44082 101.252 6.62723 98.1762 9.05562 95.7788C15.8282 89.0943 39.905 88.5558 89.5603 93.9873L89.8243 94.0184L176.967 88.5661C204.337 131.967 204.088 233.975 203.995 272.653L203.985 272.643Z" fill="#786565"/>
<mask id="mask1_946_9233" style="mask-type:alpha" maskUnits="userSpaceOnUse" x="56" y="0" width="142" height="104">
<path d="M77.3091 90.7308C89.508 99.269 105.689 103.416 126.773 103.416C147.857 103.416 164.037 99.2638 176.236 90.7308C189.093 81.7318 197.403 66.3122 197.403 51.4467C197.403 42.3338 194.908 33.1069 190.361 25.392L186.778 8.53821C185.655 3.26202 180.752 -0.393514 175.382 0.0466004L152.253 1.91579C144.947 0.626515 136.605 0 126.768 0C116.93 0 108.588 0.626515 101.282 1.91579L78.1531 0.0466004C72.7785 -0.393514 67.8751 3.26202 66.7567 8.53821L63.1737 25.392C58.6327 33.1069 56.1318 42.3338 56.1318 51.4467C56.1318 66.3122 64.4371 81.7318 77.2987 90.7308H77.3091Z" fill="white"/>
</mask>
<g mask="url(#mask1_946_9233)">
<path d="M77.3091 90.7308C89.508 99.269 105.689 103.416 126.773 103.416C147.857 103.416 164.037 99.2638 176.236 90.7308C189.093 81.7318 197.403 66.3122 197.403 51.4467C197.403 42.3338 194.908 33.1069 190.361 25.392L186.778 8.53821C185.655 3.26202 180.752 -0.393514 175.382 0.0466004L152.253 1.91579C144.947 0.626515 136.605 0 126.768 0C116.93 0 108.588 0.626515 101.282 1.91579L78.1531 0.0466004C72.7785 -0.393514 67.8751 3.26202 66.7567 8.53821L63.1737 25.392C58.6327 33.1069 56.1318 42.3338 56.1318 51.4467C56.1318 66.3122 64.4371 81.7318 77.2987 90.7308H77.3091Z" fill="url(#paint0_radial_946_9233)"/>
<path d="M125.219 66.2501C127.767 66.2501 129.832 64.1846 129.832 61.6366C129.832 59.0887 127.767 57.0232 125.219 57.0232C122.671 57.0232 120.605 59.0887 120.605 61.6366C120.605 64.1846 122.671 66.2501 125.219 66.2501Z" fill="#786565"/>
<path d="M114.786 69.4761C114.786 69.4761 115.061 72.9659 119.814 72.9659C123.386 72.9659 125.002 70.4029 125.204 70.0353C125.214 70.0197 125.235 70.0197 125.245 70.0353C125.447 70.4029 127.058 72.9659 130.635 72.9659C135.389 72.9659 135.663 69.4761 135.663 69.4761" stroke="#786565" stroke-width="5.17781" stroke-miterlimit="10" stroke-linecap="round"/>
<path d="M96.477 45.2488C95.6226 48.7904 95.0065 52.5806 95.7055 55.2057C96.4045 57.8309 98.4186 59.291 100.34 59.7518C102.261 60.2127 104.72 59.8295 106.537 57.8102C108.355 55.7908 109.53 52.1353 110.385 48.5937C110.949 46.2533 111.405 43.8042 111.451 41.6606C111.482 40.2004 110.276 39.0095 108.816 39.0095H101.955C99.7648 39.0095 97.8232 40.4386 97.1967 42.5408C96.9326 43.4314 96.6892 44.3427 96.4718 45.2488H96.477Z" fill="#786565"/>
<path d="M143.165 45.2488C142.311 48.7905 141.695 52.5806 142.394 55.2058C143.093 57.8309 145.107 59.2911 147.028 59.7519C148.949 60.2127 151.409 59.8296 153.226 57.8102C155.043 55.7909 156.219 52.1353 157.073 48.5937C157.379 47.3148 157.658 46.0048 157.855 44.7259C158.316 41.7176 155.986 39.0044 152.941 39.0044H146.956C145.842 39.0044 144.848 39.7034 144.47 40.7545C143.958 42.1784 143.533 43.7214 143.165 45.2437V45.2488Z" fill="#786565"/>
<g filter="url(#filter4_f_946_9233)">
<path d="M107.801 17.4248C109.827 25.637 109.622 28.6385 113.064 28.6385H113.079C116.522 28.6385 116.317 23.1604 118.343 14.9483C118.523 14.2252 118.723 13.5367 118.944 12.873C119.079 12.4669 119.214 12.0706 119.359 11.6892C119.709 10.7729 121.05 10.8472 121.3 11.7982C121.34 11.9468 121.375 12.0954 121.415 12.244C121.701 13.398 121.941 14.5026 122.156 15.5377C122.226 15.8845 122.296 16.2262 122.361 16.5581C122.446 16.9989 122.531 17.4298 122.611 17.8508C122.811 18.8959 122.992 19.8518 123.177 20.7186C123.252 21.0653 123.327 21.3972 123.402 21.7092C124.052 24.3888 124.853 25.9341 126.684 25.9341H126.699C128.636 25.9341 129.416 24.2006 130.092 21.2238C130.167 20.892 130.242 20.5453 130.312 20.1837C130.347 20.0054 130.387 19.8172 130.422 19.6289C130.497 19.2525 130.572 18.8612 130.647 18.46C130.722 18.0588 130.802 17.6378 130.887 17.2069C131.177 15.7012 131.513 14.037 131.958 12.239C131.993 12.0904 132.033 11.9419 132.073 11.7933C132.323 10.8423 133.664 10.768 134.014 11.6843C134.16 12.0607 134.295 12.452 134.425 12.8532C134.645 13.5219 134.85 14.2153 135.03 14.9434C137.057 23.1555 136.851 28.6335 140.294 28.6335H140.309C143.751 28.6335 143.546 25.632 145.573 17.4199C147.599 9.20779 162.665 7.1721 162.665 7.1721L160.563 2.80848L151.307 3.54648C144.247 2.31318 136.186 1.71387 126.679 1.71387C117.172 1.71387 109.112 2.31318 102.052 3.54648L92.7949 2.80848L90.6934 7.1721C90.6934 7.1721 105.764 9.20779 107.786 17.4199L107.801 17.4248Z" fill="#C0C0C0"/>
</g>
<g filter="url(#filter5_f_946_9233)">
<path d="M191.829 34.3341L187.534 33.8176C187.534 33.8176 185.457 40.1316 182.519 40.5454C174.906 41.6122 169.943 40.4158 169.539 43.4317V43.4466C169.13 46.4626 174.098 46.976 181.272 49.7826C182.156 50.1315 182.989 50.5104 183.761 50.9092C184.665 51.3778 184.397 52.7137 183.382 52.8134H183.352C175.698 53.5562 170.776 52.6888 170.372 55.6997V55.7147C169.963 58.7306 174.931 59.2441 182.105 62.0506L182.145 62.0656C183.09 62.4345 182.973 63.7954 181.979 63.9997C181.136 64.1742 180.237 64.3088 179.298 64.4035C171.644 65.1413 166.722 64.2739 166.318 67.2898V67.3048C165.909 70.3207 169.923 71.0984 172.498 73.6407C179.298 80.3555 176.94 81.4522 176.94 81.4522H182.524C190.163 72.9328 194.767 61.8412 194.767 51.0537C194.767 45.3858 193.747 39.678 191.834 34.3391L191.829 34.3341Z" fill="#C0C0C0"/>
</g>
<g filter="url(#filter6_f_946_9233)">
<path d="M61.5287 34.3341L65.8239 33.8176C65.8239 33.8176 67.9 40.1316 70.8383 40.5454C78.4517 41.6122 83.4145 40.4158 83.8184 43.4317V43.4466C84.2273 46.4626 79.2595 46.976 72.0854 49.7826C71.2018 50.1315 70.3688 50.5104 69.5964 50.9092C68.6927 51.3778 68.9603 52.7137 69.975 52.8134H70.0053C77.659 53.5562 82.5815 52.6888 82.9853 55.6997V55.7147C83.3943 58.7306 78.4264 59.2441 71.2523 62.0506L71.2119 62.0656C70.2678 62.4345 70.384 63.7954 71.3785 63.9997C72.2217 64.1742 73.1203 64.3088 74.0594 64.4035C81.7131 65.1413 86.6355 64.2739 87.0394 67.2898V67.3048C87.4483 70.3207 83.4347 71.0984 80.8599 73.6407C74.0594 80.3555 76.4175 81.4522 76.4175 81.4522H70.8333C63.1947 72.9328 58.5904 61.8412 58.5904 51.0537C58.5904 45.3858 59.6102 39.678 61.5236 34.3391L61.5287 34.3341Z" fill="#C0C0C0"/>
</g>
</g>
<path d="M190.361 25.392L186.778 8.53821C185.655 3.26202 180.751 -0.393514 175.382 0.0466004L152.253 1.91579C144.947 0.626515 136.605 0 126.768 0C116.93 0 108.588 0.626515 101.282 1.91579L78.1531 0.0466004C72.7785 -0.393514 67.8751 3.26202 66.7567 8.53821L63.1737 25.392C58.6327 33.1069 56.1318 42.3338 56.1318 51.4467C56.1318 66.3122 64.4371 81.7318 77.2987 90.7308C89.4977 99.269 105.678 103.416 126.762 103.416C147.846 103.416 164.027 99.2638 176.226 90.7308C189.083 81.7318 197.393 66.3122 197.393 51.4467C197.393 42.3338 194.897 33.1069 190.351 25.392H190.361ZM172.374 85.2164C161.345 92.9365 146.428 96.6904 126.768 96.6904C107.107 96.6904 92.1901 92.9365 81.1614 85.2164C70.0498 77.4393 62.8682 64.1842 62.8682 51.4467C62.8682 43.3486 65.1257 35.1573 69.2317 28.3796C69.2317 28.3796 71.6912 24.7499 79.4941 19.7792C79.4941 19.7792 74.3474 21.1824 70.3967 23.7869L73.3429 9.93104C73.7623 7.95312 75.6056 6.58618 77.6146 6.74669L87.0796 7.513C104.865 9.4495 110.949 10.832 110.949 10.832C109.691 9.90515 107.128 8.83335 105.192 8.0981C111.457 7.17645 118.55 6.72598 126.773 6.72598C134.995 6.72598 142.089 7.17645 148.354 8.0981C146.417 8.83852 143.854 9.91033 142.596 10.832C142.596 10.832 148.675 9.4495 166.466 7.513L175.931 6.74669C177.94 6.58618 179.783 7.95312 180.203 9.93104L183.149 23.7869C179.198 21.1824 174.051 19.7792 174.051 19.7792C181.854 24.7499 184.314 28.3796 184.314 28.3796C188.42 35.1573 190.677 43.3486 190.677 51.4467C190.677 64.1842 183.496 77.4393 172.384 85.2164H172.374Z" fill="#786565"/>
<path d="M166.285 103.489C133.944 94.2725 104.307 100.03 99.2374 104.923C97.7359 106.373 96.7158 108.341 96.7158 110.593C96.7158 114.601 99.7966 117.889 103.721 118.225C105.026 120.659 107.589 122.316 110.546 122.316C112.042 122.316 113.43 121.886 114.616 121.151C115.796 121.886 117.189 122.316 118.685 122.316C121.305 122.316 123.615 121.011 125.013 119.022C144.186 119.934 156.447 141.116 156.447 141.116" fill="url(#paint1_linear_946_9233)"/>
<mask id="mask2_946_9233" style="mask-type:alpha" maskUnits="userSpaceOnUse" x="96" y="98" width="71" height="44">
<path d="M166.286 103.489C133.945 94.2725 104.307 100.03 99.2384 104.923C97.7368 106.373 96.7168 108.341 96.7168 110.593C96.7168 114.601 99.7976 117.889 103.722 118.225C105.027 120.659 107.59 122.316 110.547 122.316C112.043 122.316 113.431 121.886 114.617 121.151C115.797 121.886 117.19 122.316 118.686 122.316C121.306 122.316 123.616 121.011 125.014 119.022C144.187 119.934 156.448 141.116 156.448 141.116" fill="white"/>
</mask>
<g mask="url(#mask2_946_9233)">
<g filter="url(#filter7_f_946_9233)">
<path d="M117.388 99.3263L117.17 102.768C117.17 102.768 123.276 103.937 123.853 106.234C125.343 112.185 124.524 116.207 127.403 116.299L127.417 116.298C130.297 116.395 130.469 112.42 132.672 106.525C132.947 105.799 133.253 105.11 133.581 104.468C133.968 103.717 135.249 103.828 135.407 104.625L135.409 104.649C136.595 110.657 136.085 114.622 138.96 114.715L138.974 114.714C141.853 114.81 142.026 110.836 144.229 104.941L144.24 104.907C144.53 104.132 145.825 104.121 146.081 104.894C146.299 105.548 146.483 106.25 146.632 106.987C147.814 112.995 147.303 116.96 150.183 117.053L150.197 117.052C153.077 117.148 153.559 113.91 155.802 111.678C161.727 105.785 162.914 107.57 162.914 107.57L162.561 103.146C154.018 97.7366 143.231 94.925 133.024 95.7382C127.66 96.1654 122.323 97.4036 117.392 99.322L117.388 99.3263Z" fill="#C0C0C0"/>
</g>
</g>
<path d="M159.725 102.459C163.624 103.018 166.285 103.494 166.285 103.494C153.398 93.1852 104.633 95.4013 97.0785 102.697C94.8417 104.856 93.6094 107.662 93.6094 110.603C93.6094 115.595 97.1199 119.913 101.847 121.068C103.877 123.791 107.082 125.433 110.541 125.433C111.939 125.433 113.321 125.158 114.611 124.635C115.9 125.158 117.282 125.433 118.68 125.433C121.575 125.433 124.329 124.268 126.344 122.253C132.888 122.989 148.401 131.366 156.442 141.127C156.442 141.127 155.924 137.212 150.213 130.279C144.021 122.766 134.478 118.054 125.158 115.931L123.449 115.848L122.465 117.246C121.595 118.484 120.177 119.224 118.675 119.224C117.821 119.224 116.982 118.981 116.242 118.525L116.06 118.411C115.206 117.821 114.212 116.77 114.45 115.134C114.45 115.134 113.544 116.071 113.528 118.184L112.974 118.525C112.239 118.981 111.395 119.224 110.546 119.224C109.417 119.224 108.361 118.81 107.533 118.096C107.253 117.816 106.834 117.345 106.44 116.734L105.938 115.797C105.492 114.787 105.27 113.544 105.731 112.193C105.731 112.193 104.907 113.498 104.54 115.191L103.986 115.144C101.651 114.942 99.8228 112.954 99.8228 110.609C99.8228 109.024 100.677 107.864 101.397 107.176C104.835 103.857 119.763 96.7268 159.73 102.469L159.725 102.459Z" fill="#786565"/>
<defs>
<filter id="filter0_f_946_9233" x="153.995" y="98.5534" width="54.6763" height="82.5059" filterUnits="userSpaceOnUse" color-interpolation-filters="sRGB">
<feFlood flood-opacity="0" result="BackgroundImageFix"/>
<feBlend mode="normal" in="SourceGraphic" in2="BackgroundImageFix" result="shape"/>
<feGaussianBlur stdDeviation="2.8478" result="effect1_foregroundBlur_946_9233"/>
</filter>
<filter id="filter1_f_946_9233" x="167.821" y="205.671" width="45.8131" height="84.5277" filterUnits="userSpaceOnUse" color-interpolation-filters="sRGB">
<feFlood flood-opacity="0" result="BackgroundImageFix"/>
<feBlend mode="normal" in="SourceGraphic" in2="BackgroundImageFix" result="shape"/>
<feGaussianBlur stdDeviation="2.8478" result="effect1_foregroundBlur_946_9233"/>
</filter>
<filter id="filter2_f_946_9233" x="159.729" y="149.443" width="58.2174" height="84.2164" filterUnits="userSpaceOnUse" color-interpolation-filters="sRGB">
<feFlood flood-opacity="0" result="BackgroundImageFix"/>
<feBlend mode="normal" in="SourceGraphic" in2="BackgroundImageFix" result="shape"/>
<feGaussianBlur stdDeviation="2.8478" result="effect1_foregroundBlur_946_9233"/>
</filter>
<filter id="filter3_f_946_9233" x="26.5378" y="79.2329" width="60.2222" height="32.7803" filterUnits="userSpaceOnUse" color-interpolation-filters="sRGB">
<feFlood flood-opacity="0" result="BackgroundImageFix"/>
<feBlend mode="normal" in="SourceGraphic" in2="BackgroundImageFix" result="shape"/>
<feGaussianBlur stdDeviation="2.8478" result="effect1_foregroundBlur_946_9233"/>
</filter>
<filter id="filter4_f_946_9233" x="84.9978" y="-3.98173" width="83.3629" height="38.3157" filterUnits="userSpaceOnUse" color-interpolation-filters="sRGB">
<feFlood flood-opacity="0" result="BackgroundImageFix"/>
<feBlend mode="normal" in="SourceGraphic" in2="BackgroundImageFix" result="shape"/>
<feGaussianBlur stdDeviation="2.8478" result="effect1_foregroundBlur_946_9233"/>
</filter>
<filter id="filter5_f_946_9233" x="160.593" y="28.122" width="39.8687" height="59.0257" filterUnits="userSpaceOnUse" color-interpolation-filters="sRGB">
<feFlood flood-opacity="0" result="BackgroundImageFix"/>
<feBlend mode="normal" in="SourceGraphic" in2="BackgroundImageFix" result="shape"/>
<feGaussianBlur stdDeviation="2.8478" result="effect1_foregroundBlur_946_9233"/>
</filter>
<filter id="filter6_f_946_9233" x="52.8952" y="28.122" width="39.8687" height="59.0257" filterUnits="userSpaceOnUse" color-interpolation-filters="sRGB">
<feFlood flood-opacity="0" result="BackgroundImageFix"/>
<feBlend mode="normal" in="SourceGraphic" in2="BackgroundImageFix" result="shape"/>
<feGaussianBlur stdDeviation="2.8478" result="effect1_foregroundBlur_946_9233"/>
</filter>
<filter id="filter7_f_946_9233" x="111.474" y="89.9043" width="57.1353" height="32.845" filterUnits="userSpaceOnUse" color-interpolation-filters="sRGB">
<feFlood flood-opacity="0" result="BackgroundImageFix"/>
<feBlend mode="normal" in="SourceGraphic" in2="BackgroundImageFix" result="shape"/>
<feGaussianBlur stdDeviation="2.8478" result="effect1_foregroundBlur_946_9233"/>
</filter>
<radialGradient id="paint0_radial_946_9233" cx="0" cy="0" r="1" gradientUnits="userSpaceOnUse" gradientTransform="translate(126.768 51.7082) rotate(90) scale(60.5519 82.7167)">
<stop offset="0.243516" stop-color="white"/>
<stop offset="0.721936" stop-color="#DFE1E4"/>
<stop offset="0.909996" stop-color="#B4B4B4"/>
</radialGradient>
<linearGradient id="paint1_linear_946_9233" x1="150.886" y1="118.054" x2="161.76" y2="121.679" gradientUnits="userSpaceOnUse">
<stop stop-color="#EBECEE"/>
<stop offset="0.724503" stop-color="#EBECEE" stop-opacity="0"/>
</linearGradient>
</defs>
</svg>
