<svg width="390" height="214" viewBox="0 0 390 214" fill="none" xmlns="http://www.w3.org/2000/svg">
<mask id="mask0_912_6777" style="mask-type:alpha" maskUnits="userSpaceOnUse" x="0" y="0" width="390" height="214">
<rect width="390" height="214" fill="white"/>
</mask>
<g mask="url(#mask0_912_6777)">
<path d="M278.878 45.686C283.578 43.4458 286.432 38.2997 285.535 32.9047C285.043 29.9641 283.515 27.4576 281.39 25.6863L281.234 17.6227C281.217 16.6965 280.076 16.2682 279.451 16.957L274.062 22.9077C273.298 22.8846 272.528 22.9309 271.746 23.064C270.728 23.2319 269.761 23.5271 268.858 23.9265C268.088 19.643 265.113 16.3029 261.304 14.8558L258.942 7.64892C258.652 6.76905 257.437 6.69379 257.043 7.53315L253.75 14.5432C249.692 15.7067 246.641 18.8962 245.535 22.7978C243.023 19.1741 238.601 17.0902 233.97 17.7617L228.638 12.2682C227.996 11.6026 226.867 12.0714 226.879 12.9976L227 21.3738C224.505 24.0076 223.22 27.7297 223.863 31.5849C223.915 31.8859 223.979 32.1811 224.048 32.4706C223.07 32.3837 222.063 32.4243 221.044 32.5921C218.537 33.0089 216.343 34.184 214.653 35.8395L207.157 34.7571C206.242 34.6239 205.634 35.6833 206.208 36.4068L211.168 42.647C210.989 43.8568 210.989 45.1129 211.197 46.3806C212.21 52.4413 217.605 56.6728 223.602 56.3718C230.63 81.9923 254.207 148.289 293.037 230.366L379.183 215.999C379.183 215.999 300.736 117.847 278.872 45.6802L278.878 45.686Z" fill="#DFE0E2"/>
<circle cx="4.72497" cy="4.72497" r="4.72497" transform="matrix(-1 0 0 1 284.676 14.1748)" fill="#FFFDCE"/>
<circle cx="4.72497" cy="4.72497" r="4.72497" transform="matrix(-1 0 0 1 263.076 4.05005)" fill="#FFFDCE"/>
<circle cx="4.72497" cy="4.72497" r="4.72497" transform="matrix(-1 0 0 1 233.376 9.44995)" fill="#FFFDCE"/>
<circle cx="4.72497" cy="4.72497" r="4.72497" transform="matrix(-1 0 0 1 212.451 31.7249)" fill="#FFFDCE"/>
<path d="M384.619 211.669C384.422 211.426 364.88 186.9 342.947 153.956C315.648 112.944 296.395 76.5741 287.011 48.3371C291.283 44.0941 293.413 37.9234 292.389 31.7643C291.839 28.4532 290.409 25.3621 288.285 22.8035L288.181 17.4895C288.134 15.1683 287.092 12.9918 285.309 11.5157C283.521 10.028 281.182 9.39703 278.896 9.77908C277.136 10.0743 275.509 10.9657 274.305 12.2913L272.163 14.6589C270.757 12.8007 269.014 11.2031 267.017 9.96431L265.553 5.4897C264.32 1.72131 260.58 -0.542047 256.661 0.112068C254.086 0.540427 251.88 2.21334 250.763 4.58668L248.627 9.13075C246.867 10.0164 245.258 11.1684 243.863 12.5345C241.675 11.4867 239.29 10.8673 236.824 10.7284L233.634 7.44047C231.811 5.56496 229.189 4.69666 226.613 5.12502C222.694 5.77914 219.886 9.13654 219.944 13.1075L220.031 19.0062C218.485 21.2695 217.461 23.8107 217.015 26.4735C215.499 26.9829 214.051 27.6775 212.714 28.5516L208.159 27.8917C207.337 27.7759 206.515 27.7817 205.698 27.9149C202.931 28.3779 200.587 30.294 199.574 32.922C198.567 35.5443 199.03 38.537 200.778 40.7367L204.107 44.9161C204.13 45.7901 204.211 46.6642 204.355 47.5267C205.612 55.0462 211.169 60.8695 218.196 62.7219C225.872 88.7418 248.135 151.693 286.762 233.342L289.008 238.088L294.183 237.226L380.33 222.859L392 220.914L384.613 211.669H384.619ZM268.273 175.583C267.284 173.29 266.311 171.021 265.356 168.775C264.401 166.529 263.457 164.301 262.531 162.095C258.826 153.279 255.359 144.828 252.146 136.787C250.537 132.764 248.992 128.851 247.51 125.042C244.54 117.424 241.819 110.241 239.353 103.538C238.12 100.186 236.945 96.9558 235.84 93.8589C233.623 87.6535 231.655 81.9575 229.941 76.8172C229.513 75.5321 229.102 74.2818 228.702 73.0662C226.526 66.3861 224.83 60.7827 223.62 56.3775C220.251 56.5454 217.067 55.2835 214.746 53.0664C212.94 51.3414 211.661 49.0376 211.215 46.3864C211.151 46.0217 211.117 45.657 211.088 45.2981C211.076 45.1592 211.076 45.0203 211.07 44.8871C211.059 44.6729 211.059 44.4588 211.059 44.2446C211.059 44.0709 211.064 43.903 211.076 43.7294C211.088 43.5557 211.105 43.3879 211.122 43.22C211.14 43.0348 211.157 42.8437 211.186 42.6585C211.574 40.0478 212.818 37.6629 214.671 35.8511C214.821 35.7006 214.983 35.5616 215.145 35.4227C215.244 35.3417 215.336 35.2548 215.435 35.1738C215.591 35.0464 215.747 34.9249 215.91 34.8033C216.031 34.7107 216.153 34.6297 216.28 34.5428C216.431 34.4386 216.581 34.3344 216.743 34.236C217.009 34.0682 217.287 33.9119 217.571 33.7672C217.687 33.7093 217.802 33.6572 217.918 33.6051C218.127 33.5067 218.341 33.4083 218.561 33.3214C218.688 33.2693 218.815 33.223 218.943 33.1767C219.174 33.0957 219.406 33.0146 219.643 32.9452C219.759 32.9104 219.869 32.8757 219.985 32.8468C220.338 32.7541 220.697 32.6731 221.067 32.6094C222.08 32.4416 223.087 32.4068 224.071 32.4879C224.002 32.1984 223.933 31.9032 223.886 31.6022C223.823 31.2375 223.788 30.8671 223.759 30.5082C223.759 30.4387 223.747 30.375 223.742 30.3056C223.724 29.964 223.718 29.6225 223.73 29.2868C223.73 29.1999 223.736 29.1189 223.742 29.0321C223.759 28.7021 223.782 28.3779 223.828 28.0538C223.84 27.9727 223.857 27.8975 223.869 27.8222C223.909 27.5733 223.956 27.3244 224.008 27.0755C224.031 26.9597 224.06 26.8382 224.089 26.7224C224.153 26.4619 224.234 26.2014 224.315 25.9467C224.367 25.7904 224.419 25.6399 224.477 25.4836C224.529 25.3389 224.587 25.2 224.645 25.0611C224.755 24.7948 224.876 24.5285 225.009 24.268C225.05 24.1928 225.09 24.1175 225.125 24.0365C225.64 23.0698 226.277 22.1783 227.029 21.3853C228.76 19.5619 231.064 18.2536 233.739 17.8079C233.825 17.7905 233.912 17.7848 233.999 17.7732C236.025 17.478 238.011 17.7153 239.811 18.3694C239.811 18.3694 239.822 18.3694 239.828 18.3694C240.077 18.462 240.326 18.5604 240.569 18.6704C240.586 18.6762 240.604 18.6878 240.621 18.6936C240.853 18.7978 241.078 18.9077 241.304 19.0235C241.333 19.0409 241.362 19.0583 241.391 19.0698C241.599 19.1856 241.808 19.3014 242.01 19.4229C242.057 19.4519 242.097 19.4808 242.144 19.5098C242.329 19.6255 242.514 19.7471 242.688 19.8744C242.746 19.915 242.803 19.9671 242.867 20.0076C243.023 20.1234 243.186 20.2449 243.336 20.3723C243.411 20.4359 243.481 20.4996 243.556 20.5633C243.689 20.6791 243.822 20.7891 243.95 20.9106C244.042 20.9974 244.129 21.0901 244.216 21.1769C244.32 21.2811 244.43 21.3853 244.529 21.4953C244.638 21.6168 244.748 21.75 244.853 21.8773C244.922 21.9584 244.997 22.0394 245.067 22.1262C245.241 22.3404 245.408 22.5662 245.565 22.7919C245.64 22.5372 245.721 22.2825 245.808 22.0278C245.837 21.941 245.877 21.8542 245.906 21.7673C245.97 21.6052 246.028 21.4432 246.097 21.2869C246.144 21.1827 246.196 21.0785 246.242 20.9743C246.306 20.8411 246.369 20.708 246.433 20.5749C246.491 20.4591 246.555 20.3491 246.612 20.2391C246.676 20.1234 246.74 20.0076 246.809 19.8918C246.879 19.7703 246.954 19.6545 247.029 19.5387C247.093 19.4403 247.162 19.3361 247.226 19.2435C247.313 19.1219 247.4 18.9946 247.487 18.8788C247.55 18.7978 247.614 18.7167 247.678 18.6357C247.782 18.5083 247.886 18.3752 247.99 18.2478C248.042 18.19 248.094 18.1263 248.146 18.0684C248.274 17.9295 248.395 17.7905 248.528 17.6516C248.557 17.6227 248.581 17.5995 248.61 17.5706C250.01 16.1697 251.759 15.1046 253.761 14.5315C254.201 14.4042 254.647 14.2942 255.11 14.219C257.275 13.8601 259.399 14.1148 261.316 14.8383C262.022 15.1046 262.699 15.4404 263.342 15.834C263.365 15.8514 263.388 15.8629 263.411 15.8803C263.782 16.1118 264.135 16.3608 264.476 16.627C264.528 16.6675 264.586 16.7081 264.638 16.7544C264.8 16.8875 264.957 17.0207 265.107 17.1596C265.194 17.2406 265.281 17.3217 265.368 17.4027C265.576 17.6053 265.779 17.8079 265.975 18.0279C266.091 18.1552 266.207 18.2826 266.317 18.4157C266.415 18.5373 266.514 18.6588 266.606 18.7804C266.745 18.9598 266.878 19.1451 267.006 19.3361C267.081 19.4519 267.162 19.5676 267.232 19.6834C267.376 19.915 267.509 20.1465 267.637 20.3838C267.689 20.4823 267.741 20.5807 267.793 20.6849C267.932 20.9627 268.065 21.2521 268.187 21.5416C268.198 21.5763 268.216 21.6052 268.227 21.64C268.349 21.9526 268.459 22.2709 268.551 22.6009C268.58 22.6877 268.603 22.7745 268.627 22.8672C268.719 23.2087 268.806 23.556 268.87 23.9149C269.773 23.5155 270.739 23.2203 271.758 23.0524C272.152 22.9887 272.54 22.9424 272.928 22.9193C273.31 22.8961 273.692 22.8903 274.068 22.8961C276.812 22.9714 279.376 23.9902 281.402 25.6804C281.634 25.8773 281.859 26.0856 282.079 26.294C282.12 26.3346 282.166 26.3751 282.207 26.4156C282.398 26.6066 282.583 26.815 282.762 27.0176C282.826 27.0871 282.884 27.1565 282.948 27.2318C283.11 27.4228 283.26 27.6196 283.405 27.8222C283.48 27.9206 283.55 28.0248 283.619 28.129C283.746 28.3143 283.874 28.5053 283.99 28.7021C284.071 28.8352 284.146 28.9684 284.221 29.1073C284.32 29.2868 284.418 29.4662 284.505 29.6514C284.586 29.8193 284.661 29.9988 284.736 30.1724C284.806 30.3403 284.881 30.5024 284.945 30.6702C285.026 30.8902 285.095 31.1218 285.165 31.3475C285.205 31.4806 285.252 31.6138 285.292 31.7469C285.39 32.1174 285.477 32.4994 285.541 32.8873C286.201 36.8467 284.835 40.6672 282.201 43.3068C281.246 44.2619 280.134 45.0666 278.884 45.6628C300.748 117.83 379.195 215.976 379.195 215.982L293.049 230.349C287.59 218.806 282.427 207.577 277.576 196.729C274.34 189.499 271.237 182.431 268.279 175.56L268.273 175.583ZM280.036 16.6386C280.609 16.546 281.223 16.9512 281.234 17.6285L281.333 22.7977C279.723 21.7847 277.912 21.0843 275.996 20.7775L279.451 16.9628C279.619 16.7775 279.822 16.6733 280.036 16.6386ZM257.796 6.96581C258.259 6.89055 258.769 7.12789 258.942 7.65465L260.424 12.1814C258.688 11.753 256.847 11.6488 254.983 11.9209L257.044 7.53888C257.2 7.20314 257.489 7.0179 257.796 6.96581ZM227.747 11.9788C228.054 11.9267 228.384 12.0135 228.645 12.2798L232.06 15.7993C230.161 16.2971 228.448 17.1712 226.966 18.3173L226.891 13.0091C226.885 12.4534 227.29 12.0598 227.753 11.9845L227.747 11.9788ZM206.839 34.7686C206.943 34.7512 207.047 34.7512 207.163 34.7686L211.904 35.4516C210.746 36.8872 209.866 38.5486 209.328 40.3315L206.214 36.4183C205.71 35.7816 206.109 34.8902 206.839 34.7686Z" fill="#786565"/>
<mask id="mask1_912_6777" style="mask-type:alpha" maskUnits="userSpaceOnUse" x="205" y="6" width="175" height="225">
<path d="M278.878 45.686C283.578 43.4458 286.432 38.2997 285.535 32.9047C285.043 29.9641 283.515 27.4576 281.39 25.6863L281.234 17.6227C281.217 16.6965 280.076 16.2682 279.451 16.957L274.062 22.9077C273.298 22.8846 272.528 22.9309 271.746 23.064C270.728 23.2319 269.761 23.5271 268.858 23.9265C268.088 19.643 265.113 16.3029 261.304 14.8558L258.942 7.64892C258.652 6.76905 257.437 6.69379 257.043 7.53315L253.75 14.5432C249.692 15.7067 246.641 18.8962 245.535 22.7978C243.023 19.1741 238.601 17.0902 233.97 17.7617L228.638 12.2682C227.996 11.6026 226.867 12.0714 226.879 12.9976L227 21.3738C224.505 24.0076 223.22 27.7297 223.863 31.5849C223.915 31.8859 223.979 32.1811 224.048 32.4706C223.07 32.3837 222.063 32.4243 221.044 32.5921C218.537 33.0089 216.343 34.184 214.653 35.8395L207.157 34.7571C206.242 34.6239 205.634 35.6833 206.208 36.4068L211.168 42.647C210.989 43.8568 210.989 45.1129 211.197 46.3806C212.21 52.4413 217.605 56.6728 223.602 56.3718C230.63 81.9923 254.207 148.289 293.037 230.366L379.183 215.999C379.183 215.999 300.736 117.847 278.872 45.6802L278.878 45.686Z" fill="#D9D9D9"/>
</mask>
<g mask="url(#mask1_912_6777)">
<g filter="url(#filter0_f_912_6777)">
<path d="M330.141 179.464C313.43 185.75 308.307 189.557 304.723 184.061L304.707 184.037C301.124 178.541 311.077 172.517 323.569 159.761C324.667 158.635 325.683 157.517 326.633 156.396C327.215 155.709 327.779 155.034 328.306 154.361C329.57 152.739 328.042 150.684 326.091 151.387C325.785 151.496 325.484 151.612 325.178 151.72C322.83 152.603 320.616 153.5 318.551 154.357C317.862 154.647 317.181 154.932 316.524 155.212C315.651 155.588 314.796 155.951 313.965 156.312C311.898 157.204 310.011 158.025 308.277 158.734C307.582 159.016 306.914 159.281 306.281 159.523C300.84 161.591 297.259 162.105 295.352 159.181L295.337 159.157C293.321 156.066 295.59 152.81 300.18 148.28C300.692 147.775 301.23 147.253 301.8 146.722C302.08 146.46 302.373 146.178 302.672 145.903C303.263 145.347 303.88 144.774 304.516 144.189C305.151 143.604 305.816 142.988 306.494 142.352C308.869 140.143 311.479 137.679 314.212 134.883C314.439 134.655 314.662 134.419 314.884 134.183C316.315 132.681 315.051 130.454 313.057 130.957C312.237 131.161 311.4 131.399 310.552 131.657C309.134 132.081 307.687 132.557 306.205 133.114C289.494 139.4 279.968 146.078 276.384 140.582L276.368 140.558C272.784 135.062 278.335 131.91 290.826 119.153C303.318 106.397 291.252 79.9836 291.252 79.9836L301.199 78.2795L306.55 95.7967C316.093 105.638 323.429 123.471 333.326 138.649C343.223 153.827 350.641 156.26 355.798 168.961L371.751 186.475L363.208 186.765C363.208 186.765 346.871 173.188 330.165 179.482L330.141 179.464Z" fill="#C1C1C1"/>
</g>
</g>
<path d="M140.959 100.74C140.288 100.52 139.616 100.352 138.945 100.225C138.945 100.225 134.835 99.0845 128.762 103.189C128.762 103.189 133.133 99.0498 137.752 98.0831C136.293 95.9818 134.163 94.3205 131.541 93.4695C128.907 92.6128 126.192 92.717 123.761 93.5621C123.761 93.5621 121.278 94.0773 116.641 97.3132C116.641 97.3132 119.136 93.6548 122.464 92.0803C121.174 90.8241 119.587 89.8285 117.758 89.2323C114.14 88.0572 110.378 88.6708 107.408 90.581C106.592 91.1425 104.977 92.4739 102.517 95.4319C102.517 95.4319 103.287 93.0701 104.965 90.6389C97.5039 89.3943 90.7485 95.183 85.6429 100.439C38.5293 148.948 6.32715 216.235 6.32715 216.235L86.4649 242.301C98.7542 181.439 118.621 149.064 131.958 133.237C140.392 135.182 149.057 130.395 151.79 122.013C154.672 113.151 149.827 103.629 140.959 100.746V100.74Z" fill="#DFE0E2"/>
<mask id="mask2_912_6777" style="mask-type:alpha" maskUnits="userSpaceOnUse" x="6" y="88" width="147" height="155">
<path d="M140.959 100.74C140.288 100.52 139.616 100.352 138.945 100.225C138.945 100.225 134.835 99.0845 128.762 103.189C128.762 103.189 133.133 99.0498 137.752 98.0831C136.293 95.9818 134.163 94.3205 131.541 93.4695C128.907 92.6128 126.192 92.717 123.761 93.5621C123.761 93.5621 121.278 94.0773 116.641 97.3132C116.641 97.3132 119.136 93.6548 122.464 92.0803C121.174 90.8241 119.587 89.8285 117.758 89.2323C114.14 88.0572 110.378 88.6708 107.408 90.581C106.592 91.1425 104.977 92.4739 102.517 95.4319C102.517 95.4319 103.287 93.0701 104.965 90.6389C97.5039 89.3943 90.7485 95.183 85.6429 100.439C38.5293 148.948 6.32715 216.235 6.32715 216.235L86.4649 242.301C98.7542 181.439 118.621 149.064 131.958 133.237C140.392 135.182 149.057 130.395 151.79 122.013C154.672 113.151 149.827 103.629 140.959 100.746V100.74Z" fill="#D9D9D9"/>
</mask>
<g mask="url(#mask2_912_6777)">
<g filter="url(#filter1_f_912_6777)">
<path d="M21.7783 230.764C38.4898 237.05 43.6132 240.858 47.1971 235.362L47.2127 235.338C50.7966 229.842 40.8426 223.818 28.3504 211.061C27.2522 209.935 26.2364 208.817 25.2854 207.696C24.7039 207.009 24.14 206.334 23.6129 205.66C22.3483 204.039 23.8765 201.984 25.8278 202.687C26.1337 202.796 26.4344 202.912 26.7403 203.02C29.0892 203.903 31.3032 204.8 33.3678 205.657C34.0572 205.947 34.7378 206.232 35.3956 206.512C36.268 206.888 37.1227 207.252 37.9546 207.612C40.0213 208.504 41.9085 209.325 43.6425 210.034C44.3371 210.317 45.0053 210.581 45.6383 210.823C51.08 212.892 54.6612 213.405 56.5677 210.482L56.5833 210.458C58.5993 207.366 56.3295 204.11 51.7398 199.58C51.2278 199.076 50.6895 198.554 50.1195 198.023C49.8389 197.76 49.546 197.478 49.2478 197.204C48.6566 196.647 48.039 196.074 47.4037 195.489C46.7685 194.904 46.1033 194.288 45.4256 193.653C43.0505 191.443 40.4403 188.979 37.7071 186.183C37.4793 185.955 37.2568 185.719 37.0342 185.482C35.6038 183.98 36.8677 181.753 38.8616 182.257C39.682 182.461 40.5184 182.699 41.3672 182.957C42.7853 183.381 44.2319 183.857 45.714 184.414C62.4256 190.7 71.9524 197.379 75.5363 191.883L75.5519 191.859C79.1358 186.363 73.5852 183.21 61.0931 170.453C48.6009 157.697 60.6659 131.283 60.6659 131.283L50.7192 129.579L45.3679 147.096C35.8249 156.938 28.4894 174.77 18.5921 189.948C8.69476 205.126 1.2768 207.559 -3.88034 220.261L-19.833 237.774L-11.2899 238.064C-11.2899 238.064 5.04753 224.488 21.7538 230.782L21.7783 230.764Z" fill="#C1C1C1"/>
</g>
</g>
<path d="M143.57 94.2919C142.534 92.7695 141.29 91.4092 139.877 90.2514C139.675 90.0836 139.472 89.9273 139.264 89.7652C138.638 89.2963 137.984 88.8622 137.301 88.4685C136.167 87.8144 134.957 87.2761 133.689 86.8651C133.377 86.7667 133.064 86.6683 132.751 86.5872C132.439 86.5062 132.126 86.4252 131.808 86.3557C131.495 86.2862 131.177 86.2283 130.859 86.1762C129.272 85.9158 127.669 85.8579 126.077 86.0026C124.26 84.5149 122.176 83.3688 119.901 82.6336C119.6 82.5352 119.299 82.4484 118.998 82.3673C114.471 81.1401 109.655 81.6322 105.487 83.6987C103.287 83.3977 101.174 83.4961 99.16 83.8782C98.1528 84.0692 97.1745 84.3297 96.2252 84.648C95.2759 84.9664 94.3497 85.3427 93.4582 85.7595C92.862 86.0373 92.2831 86.3325 91.7216 86.6451C91.1601 86.9577 90.6044 87.2819 90.0719 87.6234C89.8056 87.7913 89.5393 87.9649 89.2788 88.1386C85.3889 90.7377 82.3962 93.8172 80.648 95.6175C71.3572 105.186 62.6511 115.472 54.7207 125.707C52.741 128.265 50.8018 130.824 48.9205 133.359C46.4083 136.746 43.9886 140.109 41.6732 143.414C40.5154 145.07 39.3751 146.708 38.2637 148.329C36.0408 151.57 33.9222 154.748 31.9077 157.822C30.9005 159.362 29.9222 160.873 28.9729 162.36C28.4982 163.101 28.0294 163.836 27.5663 164.566C25.7197 167.478 23.9889 170.273 22.3739 172.925C8.41169 195.842 0.388656 212.548 0.0529158 213.248L-3.36816 220.397L92.3989 247.997L93.2672 243.685C98.6448 217.051 105.996 193.544 115.119 173.805C116.619 170.557 118.158 167.425 119.739 164.415C120.526 162.91 121.325 161.434 122.135 159.987C122.946 158.54 123.762 157.122 124.589 155.738C125.417 154.355 126.251 153 127.096 151.675C127.941 150.349 128.792 149.058 129.655 147.796C131.374 145.272 133.133 142.876 134.916 140.613C136.543 140.67 138.164 140.56 139.761 140.288C140.294 140.196 140.821 140.086 141.348 139.958C143.449 139.449 145.492 138.65 147.414 137.568C149.046 136.653 150.551 135.553 151.9 134.309C152.439 133.811 152.96 133.29 153.446 132.74C155.657 130.286 157.347 127.38 158.389 124.173C162.401 111.837 155.761 98.5465 143.565 94.3035L143.57 94.2919ZM151.79 122.014C149.064 130.401 140.392 135.189 131.958 133.238C118.836 148.809 99.3916 180.398 87.0618 239.378L6.3741 216.119C7.78074 213.202 39.5835 147.854 85.6262 100.445C90.7318 95.1891 97.4871 89.4005 104.949 90.6451C103.27 93.0763 102.5 95.4381 102.5 95.4381C104.96 92.4801 106.575 91.1487 107.391 90.5872C110.361 88.6827 114.124 88.0633 117.742 89.2384C119.571 89.8347 121.157 90.8245 122.448 92.0864C119.125 93.6609 116.624 97.3194 116.624 97.3194C121.261 94.0835 123.744 93.5683 123.744 93.5683C126.176 92.7174 128.885 92.619 131.524 93.4757C134.146 94.3266 136.271 95.988 137.735 98.0892C133.122 99.0559 128.746 103.195 128.746 103.195C134.818 99.0907 138.928 100.231 138.928 100.231C139.599 100.364 140.277 100.532 140.942 100.746C149.805 103.629 154.656 113.151 151.773 122.014H151.79Z" fill="#786565"/>
</g>
<defs>
<filter id="filter0_f_912_6777" x="264.297" y="67.2795" width="118.454" height="130.485" filterUnits="userSpaceOnUse" color-interpolation-filters="sRGB">
<feFlood flood-opacity="0" result="BackgroundImageFix"/>
<feBlend mode="normal" in="SourceGraphic" in2="BackgroundImageFix" result="shape"/>
<feGaussianBlur stdDeviation="5.5" result="effect1_foregroundBlur_912_6777"/>
</filter>
<filter id="filter1_f_912_6777" x="-30.833" y="118.579" width="118.457" height="130.485" filterUnits="userSpaceOnUse" color-interpolation-filters="sRGB">
<feFlood flood-opacity="0" result="BackgroundImageFix"/>
<feBlend mode="normal" in="SourceGraphic" in2="BackgroundImageFix" result="shape"/>
<feGaussianBlur stdDeviation="5.5" result="effect1_foregroundBlur_912_6777"/>
</filter>
</defs>
</svg>
