<svg width="393" height="852" viewBox="0 0 393 852" fill="none" xmlns="http://www.w3.org/2000/svg">
<rect width="393" height="852" fill="#464646"/>
<path d="M175.574 440.136C174.678 440.136 174.062 439.996 173.726 439.66C173.39 439.324 173.222 438.708 173.166 437.784C173.026 435.18 172.97 433.388 172.97 432.408C172.97 431.036 173.054 426.696 173.25 419.416C173.25 419.22 173.278 418.996 173.334 418.772C173.362 418.548 173.39 418.352 173.446 418.184C173.474 418.016 173.53 417.82 173.614 417.54C173.67 417.26 173.726 417.064 173.782 416.896C173.838 416.672 173.95 416.504 174.146 416.448C174.202 416.448 174.398 416.392 174.706 416.308C175.014 416.224 175.238 416.168 175.35 416.14C175.462 416.112 175.63 416.084 175.91 416.028C176.162 415.972 176.358 415.972 176.526 415.972C176.694 415.972 176.89 416 177.114 416.056C177.338 416.112 177.534 416.168 177.758 416.252C178.29 416.532 178.598 417.036 178.654 417.764C178.654 418.1 178.682 419.22 178.71 421.152C178.71 423.084 178.766 424.288 178.822 424.764C178.878 425.1 179.074 425.464 179.41 425.828C179.578 426.024 179.746 426.22 179.942 426.416C180.138 426.64 180.362 426.864 180.614 427.088C180.838 427.34 181.034 427.536 181.202 427.648C181.426 427.872 181.566 428.124 181.678 428.376C181.79 428.656 181.818 428.964 181.79 429.3C181.762 429.636 181.734 429.888 181.706 430.056C181.65 430.224 181.594 430.532 181.482 430.924C181.314 431.596 180.726 431.96 179.718 431.96C179.186 431.96 178.85 432.044 178.738 432.184C178.598 432.352 178.542 432.716 178.57 433.332C178.57 433.752 178.57 434.508 178.598 435.572C178.626 436.636 178.654 437.364 178.654 437.728C178.654 438.484 178.458 438.988 178.01 439.24C176.89 439.856 176.078 440.164 175.574 440.136ZM158.522 418.912C161.21 419.108 162.694 419.22 162.974 419.22C164.206 419.332 165.158 419.416 165.83 419.472C166.194 419.528 166.53 419.752 166.81 420.144C167.09 420.536 167.23 420.956 167.174 421.376C167.118 421.852 166.922 422.748 166.53 424.092C166.418 424.372 166.278 424.764 166.11 425.324C165.914 425.884 165.774 426.332 165.718 426.612C165.578 427.06 165.55 427.396 165.662 427.676C165.718 427.9 165.942 428.068 166.334 428.152C166.838 428.292 167.958 428.544 169.638 428.908C170.17 429.02 170.338 429.356 170.17 429.916C170.114 430.084 169.974 430.56 169.778 431.288C169.554 432.016 169.386 432.576 169.246 432.94C168.826 433.948 168.21 434.396 167.37 434.34C167.258 434.34 167.202 434.368 167.174 434.368C166.95 434.48 166.726 434.536 166.53 434.536C166.306 434.536 166.138 434.536 166.026 434.508C165.886 434.48 165.718 434.396 165.522 434.228C165.298 434.06 165.186 433.948 165.13 433.892C165.074 433.836 164.934 433.668 164.71 433.416C164.15 432.856 163.842 432.52 163.758 432.408C163.534 432.24 163.31 432.156 163.086 432.156C162.834 432.156 162.61 432.268 162.414 432.464C161.994 432.884 161.63 433.332 161.322 433.808C161.21 433.948 160.762 434.704 159.95 436.076C159.642 436.58 159.194 436.888 158.578 437.056C157.962 437.224 157.346 437.224 156.73 437.028C156.114 436.86 155.694 436.524 155.442 436.048C155.05 435.376 154.91 434.452 155.022 433.276C155.05 432.94 155.274 432.604 155.666 432.324C156.114 431.988 156.758 431.54 157.626 430.952C158.466 430.364 159.11 429.916 159.502 429.608C160.118 429.16 160.622 428.712 161.014 428.264C161.406 427.816 161.658 427.256 161.826 426.612C161.938 426.108 161.854 425.716 161.602 425.408C161.322 425.128 160.93 424.988 160.398 425.016C158.718 425.156 157.374 424.792 156.422 423.952C156.086 423.672 155.89 423.308 155.89 422.888C155.834 422.496 155.862 421.628 155.974 420.312C155.974 420.228 156.002 420.116 156.114 420.004C156.198 419.892 156.254 419.78 156.282 419.696C156.31 419.612 156.282 419.472 156.198 419.304L156.394 419.164C156.478 419.108 156.562 419.08 156.618 419.052C156.674 419.024 156.758 418.996 156.814 418.996C156.926 418.996 157.514 418.968 158.522 418.968V418.912ZM206.85 419.78C207.802 419.78 208.362 419.808 208.502 419.808C208.586 419.808 208.698 419.864 208.81 419.976C208.922 420.088 208.978 420.172 209.006 420.228C209.034 421.74 209.034 422.86 208.978 423.56C208.922 423.84 208.838 424.036 208.67 424.204C208.502 424.372 208.334 424.512 208.194 424.568C208.026 424.624 207.802 424.708 207.522 424.764C207.382 424.82 207.158 424.876 206.85 424.932C206.514 425.016 206.262 425.1 206.038 425.156C205.814 425.212 205.59 425.296 205.394 425.38C205.282 425.436 205.17 425.604 205.086 425.828C205.002 426.052 204.974 426.276 204.974 426.444C204.974 427.2 205.058 428.46 205.226 430.196C205.254 430.672 205.478 430.924 205.898 430.952C206.178 431.008 206.626 431.064 207.214 431.148C207.802 431.26 208.25 431.316 208.558 431.316C209.174 431.4 209.454 431.708 209.398 432.268C209.398 432.352 209.37 432.576 209.342 432.968C209.314 433.36 209.286 433.64 209.286 433.808C209.258 433.976 209.202 434.172 209.146 434.452C209.09 434.732 209.006 434.956 208.95 435.152C208.866 435.32 208.754 435.432 208.586 435.544C208.418 435.656 208.194 435.796 207.886 435.908C207.578 436.048 207.382 436.132 207.326 436.16C207.214 436.216 207.074 436.272 206.878 436.272C206.682 436.3 206.57 436.328 206.514 436.328C205.842 436.552 205.562 437.028 205.618 437.756C205.674 438.736 205.59 439.38 205.422 439.688C205.254 440.024 204.778 440.332 203.994 440.612C203.742 440.724 203.49 440.808 203.21 440.864C202.93 440.92 202.594 441.004 202.146 441.06C201.698 441.116 201.446 441.172 201.334 441.172C200.886 441.256 200.662 441.032 200.606 440.5C200.578 440.332 200.494 439.576 200.326 438.232C200.158 436.888 200.046 435.88 199.99 435.152C199.794 432.436 199.654 429.692 199.598 426.948C199.57 426.276 199.598 424.288 199.682 421.04C199.682 420.256 199.738 419.248 199.822 418.016C199.822 417.764 199.906 417.54 200.018 417.316C200.13 417.12 200.298 416.896 200.522 416.672C200.718 416.448 200.858 416.252 200.942 416.14C200.942 416.14 201.054 416.112 201.25 416.112C202.79 416.084 203.602 416.056 203.714 416.056C204.078 416 204.33 416.028 204.47 416.14C204.582 416.252 204.666 416.504 204.666 416.896C204.694 417.708 204.694 418.436 204.694 419.108C204.666 419.36 204.694 419.528 204.806 419.64C204.89 419.752 205.058 419.78 205.282 419.752H206.85V419.78ZM188.482 431.68C189.882 431.82 190.918 431.876 191.59 431.876C191.842 431.904 192.122 431.932 192.458 431.932C192.794 431.96 193.018 431.988 193.186 431.988C193.354 431.988 193.55 431.988 193.83 431.96C194.11 431.932 194.418 431.876 194.754 431.792C195.426 431.652 196.154 431.848 196.938 432.408C197.022 432.492 197.106 432.604 197.162 432.772C197.218 432.94 197.246 433.108 197.218 433.22C197.162 433.64 197.078 433.976 197.022 434.228C196.966 434.508 196.91 434.676 196.882 434.788C196.826 434.9 196.714 435.124 196.546 435.488C196.378 435.852 196.238 436.132 196.126 436.356C195.706 437.252 195.034 437.756 194.11 437.812C193.438 437.868 192.57 437.98 191.534 438.148C190.47 438.316 189.714 438.4 189.21 438.428C188.706 438.484 187.866 438.484 186.634 438.428C185.878 438.372 185.15 438.26 184.422 438.064C183.806 437.924 183.47 437.476 183.442 436.748C183.414 436.328 183.386 435.74 183.358 435.012C183.302 434.284 183.274 433.584 183.246 432.968C183.218 432.352 183.218 431.764 183.218 431.204C183.162 428.46 183.162 425.744 183.218 423C183.218 422.412 183.33 421.74 183.61 420.984C183.778 420.508 184.002 420.172 184.282 420.004C184.562 419.836 185.01 419.724 185.626 419.668C185.906 419.64 186.354 419.64 187.026 419.668C187.082 419.668 187.166 419.724 187.278 419.78C187.39 419.836 187.474 419.892 187.502 419.892C187.726 420.004 187.866 420.032 187.95 420.032C188.258 420.032 188.482 420.088 188.622 420.2C188.734 420.312 188.846 420.564 188.93 420.9C189.042 421.32 189.098 421.768 189.098 422.272C189.098 422.776 189.07 423.196 189.042 423.56C188.986 423.924 188.93 424.372 188.846 424.932C188.762 425.492 188.706 425.912 188.706 426.22C188.65 426.668 188.594 427.62 188.566 429.076C188.51 430.532 188.482 431.4 188.482 431.68ZM231.882 425.716C231.966 428.404 230.846 430.532 228.494 432.1C228.27 432.24 228.158 432.464 228.102 432.8C228.046 433.052 228.018 433.444 227.962 433.976C227.906 434.536 227.85 434.928 227.794 435.18C227.682 435.88 227.206 436.244 226.422 436.3C225.246 436.356 224.378 436.412 223.818 436.412C223.09 436.44 222.67 436.384 222.558 436.272C222.446 436.16 222.418 435.712 222.474 434.984C222.474 434.732 222.474 434.368 222.446 433.864C222.418 433.36 222.418 432.996 222.446 432.744C222.446 431.904 222.53 431.092 222.67 430.252C222.698 430.056 222.838 429.86 223.118 429.636C224.126 428.824 224.798 428.32 225.134 428.096C225.638 427.816 226.002 427.312 226.226 426.612C226.45 425.912 226.478 425.296 226.366 424.792C226.142 423.98 225.722 423.364 225.162 422.972C224.574 422.58 223.986 422.384 223.37 422.412C223.034 422.44 222.726 422.44 222.446 422.412C222.166 422.412 221.858 422.412 221.522 422.468C221.186 422.524 220.906 422.636 220.654 422.804C220.122 423.112 219.898 423.504 220.01 423.98C220.01 424.036 220.066 424.232 220.122 424.54C220.178 424.848 220.234 425.072 220.29 425.212C220.374 425.66 220.234 425.884 219.842 425.94C219.73 425.968 219.31 426.052 218.61 426.164C217.882 426.304 217.35 426.388 216.986 426.416C216.734 426.444 216.51 426.388 216.342 426.22C216.174 426.08 216.062 425.884 216.006 425.632C215.838 424.82 215.698 424.176 215.642 423.7C215.586 423.224 215.558 422.636 215.586 421.908C215.586 421.208 215.698 420.564 215.922 419.976C216.37 418.66 217.266 417.652 218.582 416.98C220.178 416.168 221.69 415.776 223.09 415.832C224.294 415.888 225.218 415.916 225.89 415.972C226.226 416 226.506 416.084 226.758 416.196C226.814 416.252 227.038 416.392 227.374 416.56C227.71 416.728 227.934 416.868 228.046 416.924C228.158 417.008 228.354 417.148 228.634 417.316C228.914 417.484 229.11 417.652 229.25 417.764C229.39 417.904 229.558 418.072 229.726 418.268C229.894 418.464 230.062 418.66 230.174 418.884C230.734 419.948 231.182 421.124 231.518 422.412C231.574 422.748 231.63 423.084 231.686 423.448C231.714 423.812 231.742 424.232 231.77 424.68C231.798 425.156 231.826 425.492 231.882 425.716ZM222.586 438.932C222.586 438.428 222.614 438.148 222.726 438.036C222.81 437.952 223.118 437.896 223.65 437.84C223.818 437.84 224.07 437.812 224.462 437.756C224.826 437.7 225.106 437.672 225.302 437.644C225.806 437.644 226.254 437.672 226.674 437.728C226.758 437.756 226.87 437.812 226.982 437.924C227.094 438.036 227.15 438.12 227.15 438.176C227.206 439.044 227.206 439.772 227.15 440.388C227.15 440.528 227.066 440.668 226.954 440.808C226.814 440.948 226.702 441.032 226.59 441.032C225.526 441.228 224.546 441.34 223.706 441.368C223.398 441.396 223.146 441.312 222.978 441.144C222.782 440.976 222.698 440.724 222.698 440.388C222.698 440.332 222.642 439.856 222.586 438.932Z" fill="white"/>
<rect width="139" height="5" rx="2.5" transform="matrix(-1 0 0 1 266 839)" fill="black"/>
</svg>
