<svg width="39" height="33" viewBox="0 0 39 33" fill="none" xmlns="http://www.w3.org/2000/svg">
<path d="M0 17.9991C0 22.0056 2.23838 26.1614 5.70479 28.5868C8.99259 30.8879 13.3535 32.0057 19.036 32.0057C24.7185 32.0057 29.0794 30.8866 32.3672 28.5868C35.8322 26.1614 38.072 22.0056 38.072 17.9991C38.072 15.2667 37.4356 12.8218 35.5377 10.3183C35.5377 10.3183 35.5377 10.3155 35.5363 10.3141L35.7792 2.67517C35.6871 1.68855 35.1093 0.820553 34.2371 0.351665C33.3636 -0.117222 32.3211 -0.117222 31.4489 0.351665L25.0269 4.63026C25.0269 4.63026 25.0241 4.63026 25.0213 4.63026C23.3118 4.2451 21.2269 4.13067 19.0374 4.13067C16.8478 4.13067 14.7616 4.2465 13.0535 4.63026C13.0521 4.63026 13.0493 4.63026 13.0479 4.63026L6.62443 0.353061C5.75085 -0.114431 4.70841 -0.114431 3.83622 0.353061C2.96264 0.821948 2.3863 1.68995 2.2942 2.67656L2.53701 10.3155C2.53701 10.3155 2.53701 10.3183 2.53562 10.3197C0.636347 12.8218 0 15.2667 0 17.9991Z" fill="url(#paint0_radial_1322_5509)"/>
<g filter="url(#filter0_f_1322_5509)">
<path d="M30.7008 18.4446C30.7008 20.8022 29.3991 23.3842 27.1811 24.9284C24.963 26.4726 22.0853 27.0728 18.6995 27.0728C15.3137 27.0728 12.437 26.4735 10.218 24.9284C7.9999 23.3842 6.69824 20.8022 6.69824 18.4446C6.69824 16.0869 7.72275 13.4139 9.94083 11.8688C12.1598 10.3237 15.3147 9.9082 18.6995 9.9082C22.0844 9.9082 25.2392 10.3237 27.4582 11.8688C29.6763 13.4139 30.7008 16.0878 30.7008 18.4446Z" fill="#918277"/>
</g>
<path d="M18.6174 21.5698C19.3041 21.5698 19.8608 21.0131 19.8608 20.3264C19.8608 19.6397 19.3041 19.083 18.6174 19.083C17.9307 19.083 17.374 19.6397 17.374 20.3264C17.374 21.0131 17.9307 21.5698 18.6174 21.5698Z" fill="#C9C2BD"/>
<path d="M16.168 23.2091C16.3731 23.3012 16.6229 23.3668 16.9243 23.3793C18.0505 23.4254 18.5557 22.6774 18.6115 22.5881C18.6143 22.5839 18.6199 22.5839 18.6226 22.5881C18.6785 22.6774 19.1836 23.4268 20.3098 23.3793C20.6112 23.3668 20.861 23.3012 21.0662 23.2091" stroke="#C9C2BD" stroke-width="1.3955" stroke-miterlimit="10" stroke-linecap="round"/>
<path d="M13.6534 19.7035C14.1264 19.2291 14.4167 18.3569 14.6205 17.5098C14.8242 16.6627 14.9637 15.7529 14.7586 15.1165C14.7586 15.1137 14.7572 15.1123 14.7558 15.1096C14.6372 14.7467 14.2841 14.5137 13.9032 14.5137H12.1267C11.8727 14.5137 11.6313 14.6421 11.5029 14.8612C11.2196 15.344 11.0215 15.9831 10.8707 16.6083C10.667 17.4554 10.5275 18.3652 10.7326 19.0016C10.7452 19.0393 10.7577 19.077 10.7731 19.1118C11.0061 19.6882 11.5908 20.0454 12.2132 20.0454H12.8775C13.1105 20.0454 13.3366 19.9701 13.518 19.8249C13.5641 19.7887 13.6087 19.7482 13.652 19.7049L13.6534 19.7035Z" fill="#A0CCFF"/>
<path d="M23.4538 16.6069C23.25 17.454 23.1105 18.3639 23.3156 19.0002C23.4482 19.4105 23.7231 19.7077 24.0399 19.9017C24.1976 19.998 24.3818 20.044 24.566 20.044H25.3698C25.6879 20.044 26.0033 19.9324 26.2294 19.7077C26.2308 19.7063 26.2322 19.7049 26.2336 19.7035C26.7067 19.2291 26.9969 18.3569 27.2007 17.5098C27.4044 16.6627 27.544 15.7529 27.3388 15.1165C27.3193 15.0551 27.297 14.9979 27.2704 14.9421C27.1504 14.6811 26.8895 14.5137 26.602 14.5137H24.8102C24.4794 14.5137 24.1696 14.6909 24.0147 14.9826C23.7677 15.4473 23.5891 16.0334 23.451 16.6083L23.4538 16.6069Z" fill="#A0CCFF"/>
<path d="M35.5377 10.3183C35.5377 10.3183 35.5377 10.3155 35.5363 10.3141L35.7792 2.67517C35.6871 1.68855 35.1093 0.820553 34.2371 0.351665C33.3636 -0.117222 32.3211 -0.117222 31.4489 0.351665L25.0269 4.63026C25.0269 4.63026 25.0241 4.63026 25.0213 4.63026C23.3118 4.2451 21.2269 4.13067 19.0374 4.13067C16.8478 4.13067 14.7616 4.2465 13.0535 4.63026C13.0521 4.63026 13.0493 4.63026 13.0479 4.63026L6.62443 0.353061C5.75085 -0.114431 4.70841 -0.114431 3.83622 0.353061C2.96264 0.821948 2.3863 1.68995 2.2942 2.67656L2.53701 10.3155C2.53701 10.3155 2.53701 10.3183 2.53562 10.3197C0.636347 12.8218 0 15.2667 0 17.9991C0 22.0056 2.23838 26.1614 5.70479 28.5868C8.99259 30.8879 13.3535 32.0057 19.036 32.0057C24.7185 32.0057 29.0794 30.8866 32.3672 28.5868C35.8322 26.1614 38.072 22.0056 38.072 17.9991C38.072 15.2667 37.4356 12.8218 35.5377 10.3183ZM31.3275 27.1006C28.3551 29.1813 24.3347 30.1916 19.036 30.1916C13.7373 30.1916 9.71685 29.1799 6.74444 27.1006C3.7497 25.0045 1.81415 21.4321 1.81415 17.9991C1.81415 15.55 2.59702 13.0423 3.96321 11.1221C3.96321 11.1221 4.06648 10.9714 4.10416 10.924C4.40698 10.5346 5.04193 9.76151 6.06623 8.9577C6.07181 8.95351 6.06902 8.94374 6.06204 8.94514C5.88342 8.98701 4.92052 9.22564 4.19207 9.65126C4.18649 9.65405 4.18091 9.65126 4.18231 9.64429L4.10137 2.84682C4.13765 2.46166 4.35395 2.13511 4.69585 1.9523C5.03356 1.77089 5.42011 1.76949 5.75782 1.94532L11.9427 5.84295C11.9427 5.84295 11.9483 5.85272 11.9427 5.85551C11.4403 6.15554 10.7425 6.43045 10.1481 7.01517C10.1425 7.02075 10.1481 7.03052 10.1536 7.02773C10.3658 6.96353 11.792 6.54349 13.6619 6.28672C15.8877 5.9825 16.8004 5.94482 19.0374 5.94482C21.2744 5.94482 22.187 5.9811 24.4128 6.28672C26.2828 6.54209 27.709 6.96214 27.9211 7.02773C27.9281 7.03052 27.9323 7.02075 27.9267 7.01517C27.3322 6.43045 26.6331 6.15554 26.1321 5.85551C26.1279 5.85272 26.1279 5.84574 26.1321 5.84295L32.3169 1.94532C32.656 1.7681 33.0426 1.77089 33.3789 1.9523C33.7208 2.13511 33.9371 2.46166 33.9734 2.84682L33.8925 9.64429C33.8925 9.64429 33.8869 9.65405 33.8827 9.65126C33.1542 9.22564 32.1913 8.98701 32.0127 8.94514C32.0057 8.94374 32.0016 8.95351 32.0085 8.9577C33.0328 9.76151 33.6678 10.5346 33.9706 10.924C34.0083 10.9714 34.1115 11.1221 34.1115 11.1221C35.4763 13.0437 36.2606 15.55 36.2606 17.9991C36.2606 21.4321 34.3251 25.0045 31.3303 27.1006H31.3275Z" fill="#786565"/>
<defs>
<filter id="filter0_f_1322_5509" x="1.814" y="5.02396" width="33.7709" height="26.9335" filterUnits="userSpaceOnUse" color-interpolation-filters="sRGB">
<feFlood flood-opacity="0" result="BackgroundImageFix"/>
<feBlend mode="normal" in="SourceGraphic" in2="BackgroundImageFix" result="shape"/>
<feGaussianBlur stdDeviation="2.44212" result="effect1_foregroundBlur_1322_5509"/>
</filter>
<radialGradient id="paint0_radial_1322_5509" cx="0" cy="0" r="1" gradientUnits="userSpaceOnUse" gradientTransform="translate(19.036 19.0485) rotate(90) scale(20.5836 26.3582)">
<stop offset="0.669198" stop-color="#FFFDEE"/>
<stop offset="0.760346" stop-color="#AA9C88"/>
<stop offset="0.907194" stop-color="#6D5750"/>
</radialGradient>
</defs>
</svg>
