<svg width="390" height="844" viewBox="0 0 390 844" fill="none" xmlns="http://www.w3.org/2000/svg">
<g clip-path="url(#clip0_1175_5474)">
<rect width="390" height="844" fill="url(#paint0_linear_1175_5474)"/>
<path opacity="0.6" fill-rule="evenodd" clip-rule="evenodd" d="M17 838H0V743H17V838ZM51 838H34V743H51V838ZM68 838H85V743H68V838ZM119 838H102V743H119V838ZM136 838H153V743H136V838ZM187 838H170V743H187V838ZM203 838H220V743H203V838ZM254 838H237V743H254V838ZM271 838H288V743H271V838ZM322 838H305V743H322V838ZM339 838H356V743H339V838ZM390 838H373V743H390V838Z" fill="url(#paint1_linear_1175_5474)"/>
<path fill-rule="evenodd" clip-rule="evenodd" d="M17 0H0V193H17V0ZM51 0H34V193H51V0ZM68 0H85V193H68V0ZM119 0H102V193H119V0ZM136 0H153V193H136V0ZM187 0H170V193H187V0ZM203 0H220V193H203V0ZM254 0H237V193H254V0ZM271 0H288V193H271V0ZM322 0H305V193H322V0ZM339 0H356V193H339V0ZM390 0H373V193H390V0Z" fill="url(#paint2_linear_1175_5474)"/>
<path d="M23.0019 107.427C22.9379 107.427 22.861 107.404 22.7713 107.358C22.6816 107.312 22.5931 107.259 22.506 107.2C21.8012 106.739 21.1848 106.253 20.6569 105.743C20.1315 105.231 19.724 104.704 19.4344 104.163C19.1448 103.62 19 103.074 19 102.526C19 102.146 19.0602 101.803 19.1807 101.495C19.3037 101.185 19.4716 100.919 19.6843 100.696C19.897 100.473 20.1418 100.301 20.4185 100.181C20.6979 100.06 20.9952 100 21.3104 100C21.7025 100 22.0396 100.099 22.3215 100.296C22.606 100.491 22.8328 100.745 23.0019 101.057C23.1711 100.745 23.3966 100.491 23.6785 100.296C23.963 100.099 24.3013 100 24.6934 100C25.0061 100 25.3021 100.06 25.5815 100.181C25.8608 100.301 26.1056 100.473 26.3157 100.696C26.5284 100.919 26.695 101.185 26.8155 101.495C26.9385 101.803 27 102.146 27 102.526C27 103.074 26.8552 103.62 26.5656 104.163C26.276 104.704 25.8685 105.231 25.3431 105.743C24.8177 106.253 24.2026 106.739 23.4978 107.2C23.4107 107.259 23.3223 107.312 23.2326 107.358C23.1429 107.404 23.066 107.427 23.0019 107.427Z" fill="white"/>
<path fill-rule="evenodd" clip-rule="evenodd" d="M81.564 57.6164L80.6421 87.6497C72.8342 96.0318 68.0939 105.317 68 114H321C320.911 105.751 316.63 96.9603 309.511 88.9167L308.55 57.6164C308.409 53.0982 304.012 49.9617 299.715 51.3192L264.81 62.3357C246.386 57.0398 225.32 55.5652 194.5 55.5652C168.953 55.5652 143.06 57.0088 124.776 62.1689L90.3994 51.3192C86.1022 49.9617 81.7052 53.0982 81.564 57.6164Z" fill="url(#paint3_linear_1175_5474)" stroke="url(#paint4_linear_1175_5474)" stroke-width="4" stroke-miterlimit="10" stroke-linecap="round"/>
<rect x="32.5" y="79.5" width="6" height="58" fill="url(#paint5_linear_1175_5474)" stroke="url(#paint6_linear_1175_5474)" stroke-width="3"/>
<path d="M58.2213 83.5401C58.2213 88.1262 47.8737 91.8427 35.1107 91.8427C22.3476 91.8427 12 88.1262 12 83.5401L19.4169 50.6357H50.8012L58.2213 83.5401Z" fill="url(#paint7_linear_1175_5474)" stroke="url(#paint8_linear_1175_5474)" stroke-width="3"/>
<path d="M-5.84617 242.732L-5.8353 240.721C-5.83005 239.75 -5.8318 223.78 -5.84945 207.795C-5.85827 199.805 -5.87106 191.816 -5.88893 185.703C-5.89786 182.646 -5.90805 180.06 -5.91964 178.178C-5.92544 177.236 -5.93157 176.473 -5.93803 175.917C-5.94126 175.638 -5.94454 175.415 -5.94784 175.248C-5.94949 175.164 -5.95108 175.098 -5.95258 175.047C-5.95333 175.022 -5.954 175.003 -5.95457 174.989C-5.9551 174.975 -5.95541 174.97 -5.95536 174.971C-6.36891 167.986 -3.89559 161.114 0.902065 155.989L0.902185 155.989C6.88435 149.599 10.6166 142.597 12.6839 137.855L12.6844 137.854C16.7362 128.574 23.9281 120.927 33.1687 116.731L33.1689 116.73C39.053 114.059 45.5208 112.653 52.1612 112.712L-5.84617 242.732ZM-5.84617 242.732H-3.83533M-5.84617 242.732H-3.83533M-3.83533 242.732H-0.000975609H1.99902V240.732V221.364C1.99902 210.574 6.2352 200.513 13.7195 192.662C17.2192 188.991 20.8881 184.631 24.5757 178.715L22.8785 177.657L24.5757 178.715C29.7054 170.486 34.6041 163.035 42.3744 159.348C47.4707 156.93 53.0727 155.658 58.8201 155.712C67.3403 155.795 75.7516 155.314 83.4993 154.346L83.4997 154.346C97.2889 152.621 113.276 152.483 128.154 154.346C143.374 156.252 159.335 156.111 173.441 154.346L173.442 154.346C180.226 153.496 187.542 153.004 194.997 153.004L-3.83533 242.732ZM171.568 111.376L171.569 111.376C178.946 110.495 186.902 110 195.001 110C203.098 110 211.052 110.492 218.43 111.376C232.875 113.103 249.24 113.24 264.824 111.376C280.735 109.472 297.797 109.612 312.546 111.376C320.469 112.321 329.09 112.793 337.836 112.712L337.836 112.712C344.477 112.653 350.945 114.059 356.829 116.73L356.002 118.552L356.829 116.731C366.069 120.927 373.261 128.571 377.313 137.854M171.568 111.376L387.635 157.356M171.568 111.376C157.123 113.103 140.758 113.24 125.174 111.376C109.262 109.472 92.201 109.612 77.4519 111.376L171.568 111.376ZM377.313 137.854L375.48 138.654L377.313 137.853C377.313 137.853 377.313 137.854 377.313 137.854ZM377.313 137.854C379.385 142.595 383.114 149.6 389.095 155.988M389.095 155.988L387.635 157.356M389.095 155.988C393.897 161.115 396.367 167.991 395.953 174.971L395.953 174.971C395.953 174.971 395.952 174.993 395.95 175.047C395.949 175.073 395.949 175.104 395.948 175.139C395.947 175.171 395.946 175.207 395.946 175.247C395.943 175.358 395.941 175.494 395.939 175.655C395.938 175.736 395.937 175.823 395.936 175.916C395.929 176.473 395.923 177.235 395.917 178.176C395.906 180.058 395.896 182.644 395.887 185.701C395.869 191.814 395.856 199.802 395.847 207.792C395.829 223.777 395.828 239.749 395.833 240.721L395.844 242.732H393.833H389.999H387.999V240.732V221.364C387.999 210.574 383.763 200.512 376.279 192.662C372.778 188.99 369.109 184.631 365.422 178.715C360.293 170.486 355.394 163.035 347.624 159.348C342.528 156.93 336.926 155.658 331.178 155.712C322.655 155.791 314.247 155.314 306.499 154.346L306.498 154.346C292.709 152.621 276.723 152.483 261.844 154.346C246.624 156.252 230.663 156.111 216.557 154.346L216.557 154.346C209.769 153.496 202.452 153.004 195.001 153.004L387.635 157.356M389.095 155.988C389.095 155.989 389.095 155.989 389.095 155.989L387.635 157.356M77.4514 111.376C69.5292 112.321 60.9113 112.79 52.1615 112.712L77.4514 111.376Z" fill="url(#paint9_linear_1175_5474)" stroke="url(#paint10_linear_1175_5474)" stroke-width="4" stroke-miterlimit="10"/>
<path d="M35.1143 56.2784C43.78 56.2784 50.8049 53.7536 50.8049 50.6392C50.8049 47.5247 43.78 45 35.1143 45C26.4487 45 19.4238 47.5247 19.4238 50.6392C19.4238 53.7536 26.4487 56.2784 35.1143 56.2784Z" fill="url(#paint11_linear_1175_5474)" stroke="#B9A2F1" stroke-width="3"/>
<path d="M331.179 155.712L331.179 155.712C322.656 155.791 314.248 155.314 306.5 154.346L306.499 154.346C292.71 152.621 276.723 152.483 261.845 154.346C246.625 156.252 230.664 156.111 216.558 154.346L216.557 154.346C209.77 153.496 202.453 153.004 195.002 153.004L331.179 155.712ZM331.179 155.712C336.926 155.658 342.528 156.93 347.625 159.348C355.395 163.035 360.294 170.486 365.423 178.715C369.11 184.631 372.779 188.99 376.28 192.662C383.764 200.512 388 210.574 388 221.364V767.749C388 778.031 379.752 786.504 369.278 788.448C361.349 789.92 352.614 788.337 343.71 785.907C340.55 785.044 337.425 784.092 334.324 783.147C333.062 782.762 331.804 782.379 330.55 782.004C326.249 780.716 322.016 779.53 318.012 778.787C310.109 777.318 301.587 776.499 292.91 776.499C284.233 776.499 275.711 777.318 267.808 778.787C252.471 781.632 237.09 781.858 220.542 778.787C212.013 777.204 203.185 776.473 194.52 776.499C185.854 776.47 177.025 777.2 168.495 778.787C151.948 781.858 136.566 781.632 121.23 778.787C113.327 777.318 104.805 776.499 96.128 776.499C87.4508 776.499 78.9293 777.318 71.0261 778.787C67.0215 779.53 62.7887 780.716 58.4875 782.004C57.2333 782.379 55.9755 782.763 54.7135 783.147C51.6131 784.092 48.4874 785.044 45.3277 785.907C36.4244 788.337 27.6892 789.92 19.7601 788.448C9.80188 786.6 2 778.52 2 768.747V221.364C2 210.574 6.23618 200.513 13.7205 192.662C17.2202 188.991 20.8891 184.631 24.5767 178.715L24.5767 178.715C29.7063 170.486 34.6049 163.035 42.3752 159.348C47.4716 156.93 53.0736 155.658 58.8211 155.712C67.3412 155.795 75.7526 155.314 83.5002 154.346L83.5007 154.346C97.2898 152.621 113.277 152.483 128.155 154.346C143.375 156.252 159.336 156.111 173.442 154.346L173.443 154.346M331.179 155.712L173.443 154.346M173.443 154.346C180.227 153.496 187.543 153.004 194.998 153.004L173.443 154.346Z" fill="url(#paint12_linear_1175_5474)"/>
<path d="M331.179 155.712L331.179 155.712C322.656 155.791 314.248 155.314 306.5 154.346L306.499 154.346C292.71 152.621 276.723 152.483 261.845 154.346C246.625 156.252 230.664 156.111 216.558 154.346L216.557 154.346C209.77 153.496 202.453 153.004 195.002 153.004L331.179 155.712ZM331.179 155.712C336.926 155.658 342.528 156.93 347.625 159.348C355.395 163.035 360.294 170.486 365.423 178.715C369.11 184.631 372.779 188.99 376.28 192.662C383.764 200.512 388 210.574 388 221.364V767.749C388 778.031 379.752 786.504 369.278 788.448C361.349 789.92 352.614 788.337 343.71 785.907C340.55 785.044 337.425 784.092 334.324 783.147C333.062 782.762 331.804 782.379 330.55 782.004C326.249 780.716 322.016 779.53 318.012 778.787C310.109 777.318 301.587 776.499 292.91 776.499C284.233 776.499 275.711 777.318 267.808 778.787C252.471 781.632 237.09 781.858 220.542 778.787C212.013 777.204 203.185 776.473 194.52 776.499C185.854 776.47 177.025 777.2 168.495 778.787C151.948 781.858 136.566 781.632 121.23 778.787C113.327 777.318 104.805 776.499 96.128 776.499C87.4508 776.499 78.9293 777.318 71.0261 778.787C67.0215 779.53 62.7887 780.716 58.4875 782.004C57.2333 782.379 55.9755 782.763 54.7135 783.147C51.6131 784.092 48.4874 785.044 45.3277 785.907C36.4244 788.337 27.6892 789.92 19.7601 788.448C9.80188 786.6 2 778.52 2 768.747V221.364C2 210.574 6.23618 200.513 13.7205 192.662C17.2202 188.991 20.8891 184.631 24.5767 178.715L24.5767 178.715C29.7063 170.486 34.6049 163.035 42.3752 159.348C47.4716 156.93 53.0736 155.658 58.8211 155.712C67.3412 155.795 75.7526 155.314 83.5002 154.346L83.5007 154.346C97.2898 152.621 113.277 152.483 128.155 154.346C143.375 156.252 159.336 156.111 173.442 154.346L173.443 154.346M331.179 155.712L173.443 154.346M173.443 154.346C180.227 153.496 187.543 153.004 194.998 153.004L173.443 154.346Z" fill="url(#paint13_radial_1175_5474)" fill-opacity="0.5"/>
<path d="M331.179 155.712L331.179 155.712C322.656 155.791 314.248 155.314 306.5 154.346L306.499 154.346C292.71 152.621 276.723 152.483 261.845 154.346C246.625 156.252 230.664 156.111 216.558 154.346L216.557 154.346C209.77 153.496 202.453 153.004 195.002 153.004L331.179 155.712ZM331.179 155.712C336.926 155.658 342.528 156.93 347.625 159.348C355.395 163.035 360.294 170.486 365.423 178.715C369.11 184.631 372.779 188.99 376.28 192.662C383.764 200.512 388 210.574 388 221.364V767.749C388 778.031 379.752 786.504 369.278 788.448C361.349 789.92 352.614 788.337 343.71 785.907C340.55 785.044 337.425 784.092 334.324 783.147C333.062 782.762 331.804 782.379 330.55 782.004C326.249 780.716 322.016 779.53 318.012 778.787C310.109 777.318 301.587 776.499 292.91 776.499C284.233 776.499 275.711 777.318 267.808 778.787C252.471 781.632 237.09 781.858 220.542 778.787C212.013 777.204 203.185 776.473 194.52 776.499C185.854 776.47 177.025 777.2 168.495 778.787C151.948 781.858 136.566 781.632 121.23 778.787C113.327 777.318 104.805 776.499 96.128 776.499C87.4508 776.499 78.9293 777.318 71.0261 778.787C67.0215 779.53 62.7887 780.716 58.4875 782.004C57.2333 782.379 55.9755 782.763 54.7135 783.147C51.6131 784.092 48.4874 785.044 45.3277 785.907C36.4244 788.337 27.6892 789.92 19.7601 788.448C9.80188 786.6 2 778.52 2 768.747V221.364C2 210.574 6.23618 200.513 13.7205 192.662C17.2202 188.991 20.8891 184.631 24.5767 178.715L24.5767 178.715C29.7063 170.486 34.6049 163.035 42.3752 159.348C47.4716 156.93 53.0736 155.658 58.8211 155.712C67.3412 155.795 75.7526 155.314 83.5002 154.346L83.5007 154.346C97.2898 152.621 113.277 152.483 128.155 154.346C143.375 156.252 159.336 156.111 173.442 154.346L173.443 154.346M331.179 155.712L173.443 154.346M173.443 154.346C180.227 153.496 187.543 153.004 194.998 153.004L173.443 154.346Z" stroke="url(#paint14_linear_1175_5474)" stroke-width="4" stroke-miterlimit="10"/>
<g opacity="0.8" filter="url(#filter0_f_1175_5474)">
<path d="M82.4533 654.958C83.0795 651.843 86.9663 650.742 89.1338 653.065L107.495 672.743L134.229 669.634C137.385 669.267 139.634 672.624 138.094 675.403L125.053 698.946L136.271 723.412C137.595 726.3 135.098 729.475 131.979 728.87L105.558 723.742L85.7567 741.971C83.4192 744.123 79.6272 742.73 79.2391 739.576L75.9513 712.864L52.4956 699.665C49.7267 698.107 49.88 694.07 52.7592 692.726L77.1486 681.344L82.4533 654.958Z" fill="url(#paint15_linear_1175_5474)"/>
</g>
<g opacity="0.67" filter="url(#filter1_f_1175_5474)">
<path d="M73.2603 448.295C74.0417 447.262 75.6634 447.546 76.0476 448.783L79.6869 460.496L91.2754 464.514C92.4988 464.938 92.7299 466.568 91.6726 467.315L81.6576 474.396L81.4172 486.659C81.3918 487.954 79.9129 488.677 78.8753 487.903L69.0463 480.566L57.3093 484.127C56.0703 484.503 54.9252 483.32 55.3412 482.094L59.2816 470.478L52.268 460.416C51.5277 459.354 52.2988 457.899 53.5935 457.916L65.8578 458.074L73.2603 448.295Z" fill="url(#paint16_linear_1175_5474)"/>
</g>
<g opacity="0.67" filter="url(#filter2_f_1175_5474)">
<path d="M125.43 614.66C126.212 613.628 127.833 613.912 128.217 615.148L131.101 624.429L140.283 627.613C141.506 628.037 141.738 629.667 140.68 630.414L132.745 636.025L132.555 645.741C132.529 647.036 131.05 647.759 130.013 646.985L122.225 641.171L112.925 643.993C111.686 644.369 110.541 643.186 110.957 641.96L114.079 632.757L108.522 624.784C107.782 623.722 108.553 622.267 109.847 622.284L119.565 622.409L125.43 614.66Z" fill="url(#paint17_linear_1175_5474)"/>
</g>
<g opacity="0.67" filter="url(#filter3_f_1175_5474)">
<path d="M44.9194 422.178C45.051 421.377 46.0332 421.061 46.6075 421.634L52.0477 427.065L59.6474 425.907C60.4496 425.785 61.054 426.622 60.6862 427.345L57.2019 434.197L60.6516 441.067C61.0158 441.792 60.4072 442.626 59.6055 442.499L52.0118 441.303L46.5443 446.707C45.9671 447.277 44.9865 446.956 44.8589 446.154L43.6501 438.563L36.8212 435.033C36.1003 434.66 36.1029 433.628 36.8257 433.259L43.6723 429.764L44.9194 422.178Z" fill="url(#paint18_linear_1175_5474)"/>
</g>
<g opacity="0.67" filter="url(#filter4_f_1175_5474)">
<path d="M345.949 525.821C346.12 525.027 347.116 524.76 347.661 525.361L355.205 533.674L366.372 532.533C367.179 532.45 367.742 533.315 367.339 534.02L361.763 543.763L366.3 554.031C366.628 554.773 365.979 555.575 365.184 555.41L354.195 553.118L345.831 560.605C345.227 561.147 344.263 560.777 344.175 559.97L342.959 548.811L333.254 543.17C332.552 542.763 332.606 541.732 333.346 541.399L343.583 536.794L345.949 525.821Z" fill="url(#paint19_linear_1175_5474)"/>
</g>
<g opacity="0.67" filter="url(#filter5_f_1175_5474)">
<path d="M72.1081 183.063C72.7351 182.141 74.1422 182.314 74.5266 183.361L77.2324 190.73L84.7697 192.922C85.8403 193.234 86.1101 194.626 85.2335 195.315L79.0615 200.165L79.3053 208.011C79.34 209.126 78.0997 209.812 77.1735 209.191L70.6533 204.82L63.2666 207.477C62.2174 207.854 61.181 206.887 61.4853 205.814L63.6275 198.262L58.8185 192.058C58.1354 191.177 58.7352 189.892 59.8494 189.85L67.6936 189.554L72.1081 183.063Z" fill="url(#paint20_linear_1175_5474)"/>
</g>
<g opacity="0.67" filter="url(#filter6_f_1175_5474)">
<path d="M40.8408 210.233C41.4249 208.206 44.0565 207.689 45.3639 209.345L54.568 220.997L69.4087 220.499C71.5166 220.428 72.8215 222.771 71.6513 224.526L63.4135 236.881L68.473 250.841C69.1916 252.824 67.3665 254.789 65.336 254.219L51.0406 250.202L39.3268 259.327C37.663 260.624 35.2302 259.495 35.1453 257.388L34.5482 242.551L22.2492 234.23C20.5022 233.048 20.8238 230.386 22.8019 229.654L36.7282 224.501L40.8408 210.233Z" fill="url(#paint21_linear_1175_5474)"/>
</g>
<g opacity="0.8" filter="url(#filter7_f_1175_5474)">
<path d="M340.216 704.36C341.919 702.724 344.758 703.7 345.096 706.037L347.475 722.487L362.131 730.33C364.213 731.444 364.162 734.446 362.044 735.489L347.134 742.836L344.204 759.198C343.788 761.522 340.917 762.402 339.271 760.71L327.676 748.799L311.209 751.069C308.871 751.391 307.147 748.933 308.247 746.844L315.991 732.136L308.745 717.177C307.715 715.052 309.521 712.654 311.847 713.054L328.228 715.875L340.216 704.36Z" fill="url(#paint22_linear_1175_5474)"/>
</g>
<circle cx="23" cy="94" r="1" fill="#A49AFA"/>
<circle cx="23" cy="97.5" r="1" fill="#A49AFA"/>
<g opacity="0.67" filter="url(#filter8_f_1175_5474)">
<path fill-rule="evenodd" clip-rule="evenodd" d="M325.38 180.755C324.347 183.926 323.03 187.971 320.44 190.548C317.78 193.196 314.56 194.806 312.46 195.516C311.976 195.68 311.44 195.84 310.899 196.002C308.982 196.576 307 197.17 307 198C307 198.83 308.982 199.424 310.899 199.998C311.44 200.16 311.976 200.32 312.46 200.484C314.56 201.194 317.78 202.804 320.44 205.452C323.03 208.029 324.347 212.074 325.38 215.245C326.257 217.937 326.929 220 328 220C329.071 220 329.743 217.937 330.62 215.245C331.653 212.074 332.97 208.029 335.56 205.452C338.22 202.804 341.44 201.194 343.54 200.484C344.024 200.32 344.56 200.16 345.101 199.998C347.018 199.424 349 198.83 349 198C349 197.17 347.018 196.576 345.101 196.002C344.56 195.84 344.024 195.68 343.54 195.516C341.44 194.806 338.22 193.196 335.56 190.548C332.97 187.971 331.653 183.926 330.62 180.755L330.62 180.755C329.743 178.063 329.071 176 328 176C326.929 176 326.257 178.063 325.38 180.755L325.38 180.755ZM364.513 201.804C364.142 202.943 363.669 204.396 362.738 205.323C361.783 206.274 360.626 206.853 359.871 207.108C359.697 207.166 359.505 207.224 359.31 207.282C358.621 207.488 357.909 207.702 357.909 208C357.909 208.298 358.621 208.512 359.31 208.718C359.505 208.776 359.697 208.834 359.871 208.892C360.626 209.147 361.783 209.726 362.738 210.677C363.669 211.604 364.142 213.057 364.513 214.196C364.828 215.164 365.07 215.905 365.455 215.905C365.84 215.905 366.081 215.164 366.396 214.196C366.767 213.057 367.241 211.604 368.171 210.677C369.127 209.726 370.284 209.147 371.038 208.892C371.212 208.834 371.405 208.776 371.599 208.718C372.288 208.512 373 208.298 373 208C373 207.702 372.288 207.488 371.599 207.282C371.405 207.224 371.212 207.166 371.038 207.108C370.284 206.853 369.127 206.274 368.171 205.323C367.241 204.396 366.767 202.943 366.396 201.804C366.081 200.836 365.84 200.095 365.455 200.095C365.07 200.095 364.828 200.836 364.513 201.804ZM344.32 223.258C345.923 221.618 346.739 219.044 347.378 217.026C347.921 215.313 348.337 214 349 214C349.663 214 350.079 215.313 350.622 217.026C351.261 219.044 352.077 221.618 353.68 223.258C355.327 224.943 357.32 225.968 358.62 226.419C358.92 226.524 359.251 226.626 359.586 226.729C360.773 227.094 362 227.472 362 228C362 228.528 360.773 228.906 359.586 229.271L359.586 229.271C359.251 229.375 358.92 229.477 358.62 229.581C357.32 230.032 355.327 231.057 353.68 232.742C352.077 234.382 351.261 236.956 350.622 238.974C350.079 240.687 349.663 242 349 242C348.337 242 347.921 240.687 347.378 238.974C346.739 236.956 345.923 234.382 344.32 232.742C342.673 231.057 340.68 230.032 339.38 229.581C339.08 229.477 338.749 229.375 338.414 229.271L338.414 229.271C337.227 228.906 336 228.528 336 228C336 227.472 337.227 227.094 338.414 226.729C338.749 226.626 339.08 226.524 339.38 226.419C340.68 225.968 342.673 224.943 344.32 223.258ZM336.378 425.026C335.739 427.044 334.923 429.618 333.32 431.258C331.673 432.943 329.68 433.968 328.38 434.419C328.081 434.523 327.75 434.625 327.416 434.728L327.414 434.729C326.227 435.094 325 435.472 325 436C325 436.528 326.227 436.906 327.414 437.271L327.416 437.272C327.75 437.375 328.081 437.477 328.38 437.581C329.68 438.032 331.673 439.057 333.32 440.742C334.923 442.382 335.739 444.956 336.378 446.974C336.921 448.687 337.337 450 338 450C338.663 450 339.079 448.687 339.622 446.974C340.261 444.956 341.077 442.382 342.68 440.742C344.327 439.057 346.32 438.032 347.62 437.581C347.919 437.477 348.25 437.375 348.584 437.272L348.586 437.271C349.773 436.906 351 436.528 351 436C351 435.472 349.773 435.094 348.586 434.729L348.584 434.728C348.25 434.625 347.919 434.523 347.62 434.419C346.32 433.968 344.327 432.943 342.68 431.258C341.077 429.618 340.261 427.044 339.622 425.026C339.079 423.313 338.663 422 338 422C337.337 422 336.921 423.313 336.378 425.026ZM353.32 414.258C354.923 412.618 355.739 410.044 356.378 408.026C356.921 406.313 357.337 405 358 405C358.663 405 359.079 406.313 359.622 408.026C360.261 410.044 361.077 412.618 362.68 414.258C364.327 415.943 366.32 416.968 367.62 417.419C367.92 417.523 368.251 417.626 368.586 417.729L368.586 417.729C369.773 418.094 371 418.472 371 419C371 419.528 369.773 419.906 368.586 420.271C368.251 420.374 367.92 420.476 367.62 420.581C366.32 421.032 364.327 422.057 362.68 423.742C361.077 425.382 360.261 427.956 359.622 429.974C359.079 431.687 358.663 433 358 433C357.337 433 356.921 431.687 356.378 429.974C355.739 427.956 354.923 425.382 353.32 423.742C351.673 422.057 349.68 421.032 348.38 420.581C348.08 420.477 347.749 420.374 347.414 420.271L347.414 420.271C346.227 419.906 345 419.528 345 419C345 418.472 346.227 418.094 347.414 417.729L347.414 417.729C347.749 417.626 348.08 417.523 348.38 417.419C349.68 416.968 351.673 415.943 353.32 414.258ZM32.3779 494.026C31.7386 496.044 30.9231 498.618 29.32 500.258C27.6733 501.943 25.68 502.968 24.38 503.419C24.0807 503.523 23.7499 503.625 23.4158 503.728H23.4157L23.4154 503.728L23.4149 503.728L23.4138 503.729C22.2272 504.094 21 504.472 21 505C21 505.528 22.2272 505.906 23.4138 506.271L23.4149 506.272L23.4154 506.272L23.4156 506.272C23.7498 506.375 24.0807 506.477 24.38 506.581C25.68 507.032 27.6733 508.057 29.32 509.742C30.9231 511.382 31.7386 513.956 32.3779 515.974C32.9208 517.687 33.3367 519 34 519C34.6633 519 35.0792 517.687 35.6221 515.974C36.2614 513.956 37.0769 511.382 38.68 509.742C40.3267 508.057 42.32 507.032 43.62 506.581C43.9199 506.477 44.2514 506.374 44.5862 506.271C45.7728 505.906 47 505.528 47 505C47 504.472 45.7728 504.094 44.5862 503.729L44.5851 503.728L44.5846 503.728C44.2504 503.625 43.9194 503.523 43.62 503.419C42.32 502.968 40.3267 501.943 38.68 500.258C37.0769 498.618 36.2614 496.044 35.6221 494.026C35.0792 492.313 34.6633 491 34 491C33.3367 491 32.9208 492.313 32.3779 494.026ZM289.32 696.258C290.923 694.618 291.739 692.044 292.378 690.026C292.921 688.313 293.337 687 294 687C294.663 687 295.079 688.313 295.622 690.026C296.261 692.044 297.077 694.618 298.68 696.258C300.327 697.943 302.32 698.968 303.62 699.419C303.919 699.523 304.249 699.625 304.583 699.728L304.586 699.729C305.773 700.094 307 700.472 307 701C307 701.528 305.773 701.906 304.586 702.271L304.583 702.272C304.249 702.375 303.919 702.477 303.62 702.581C302.32 703.032 300.327 704.057 298.68 705.742C297.077 707.382 296.261 709.956 295.622 711.974C295.079 713.687 294.663 715 294 715C293.337 715 292.921 713.687 292.378 711.974C291.739 709.956 290.923 707.382 289.32 705.742C287.673 704.057 285.68 703.032 284.38 702.581C284.08 702.476 283.749 702.374 283.414 702.271C282.227 701.906 281 701.528 281 701C281 700.472 282.227 700.094 283.414 699.729L283.417 699.728C283.751 699.625 284.081 699.523 284.38 699.419C285.68 698.968 287.673 697.943 289.32 696.258ZM38.3779 635.026C37.7386 637.044 36.9231 639.618 35.32 641.258C33.6733 642.943 31.68 643.968 30.38 644.419C30.0806 644.523 29.7497 644.625 29.4154 644.728L29.4149 644.728L29.4138 644.729C28.2272 645.094 27 645.472 27 646C27 646.528 28.2272 646.906 29.4138 647.271L29.4149 647.272L29.4154 647.272C29.7497 647.375 30.0806 647.477 30.38 647.581C31.68 648.032 33.6733 649.057 35.32 650.742C36.9231 652.382 37.7386 654.956 38.3779 656.974C38.9208 658.687 39.3367 660 40 660C40.6633 660 41.0792 658.687 41.6221 656.974C42.2614 654.956 43.0769 652.382 44.68 650.742C46.3267 649.057 48.32 648.032 49.62 647.581C49.9194 647.477 50.2504 647.375 50.5846 647.272L50.5852 647.272L50.5862 647.271C51.7728 646.906 53 646.528 53 646C53 645.472 51.7728 645.094 50.5862 644.729L50.5852 644.728L50.5846 644.728C50.2504 644.625 49.9194 644.523 49.62 644.419C48.32 643.968 46.3267 642.943 44.68 641.258C43.0769 639.618 42.2614 637.044 41.6221 635.026C41.0792 633.313 40.6633 632 40 632C39.3367 632 38.9208 633.313 38.3779 635.026ZM42.16 732.629C42.9616 731.809 43.3693 730.522 43.689 729.513C43.9604 728.656 44.1684 728 44.5 728C44.8316 728 45.0396 728.656 45.311 729.513C45.6307 730.522 46.0384 731.809 46.84 732.629C47.6633 733.471 48.66 733.984 49.31 734.21C49.4599 734.262 49.6257 734.313 49.793 734.364C50.3864 734.547 51 734.736 51 735C51 735.264 50.3864 735.453 49.793 735.636C49.6257 735.687 49.4599 735.738 49.31 735.79C48.66 736.016 47.6633 736.529 46.84 737.371C46.0384 738.191 45.6307 739.478 45.311 740.487C45.0396 741.344 44.8316 742 44.5 742C44.1684 742 43.9604 741.344 43.689 740.487C43.3693 739.478 42.9616 738.191 42.16 737.371C41.3367 736.529 40.34 736.016 39.69 735.79C39.5401 735.738 39.3743 735.687 39.207 735.636C38.6136 735.453 38 735.264 38 735C38 734.736 38.6136 734.547 39.207 734.364C39.3743 734.313 39.5401 734.262 39.69 734.21C40.34 733.984 41.3367 733.471 42.16 732.629ZM27.5027 741.81C26.9125 743.684 26.1598 746.074 24.68 747.597C23.16 749.161 21.32 750.113 20.12 750.532C19.8432 750.629 19.5371 750.724 19.228 750.82C18.1327 751.159 17 751.509 17 752C17 752.491 18.1327 752.841 19.228 753.18C19.5371 753.276 19.8432 753.371 20.12 753.468C21.32 753.887 23.16 754.839 24.68 756.403C26.1598 757.926 26.9125 760.316 27.5027 762.19C28.0038 763.781 28.3877 765 29 765C29.6123 765 29.9962 763.781 30.4973 762.19C31.0875 760.316 31.8402 757.926 33.32 756.403C34.84 754.839 36.68 753.887 37.88 753.468C38.1568 753.371 38.4629 753.276 38.772 753.18C39.8673 752.841 41 752.491 41 752C41 751.509 39.8673 751.159 38.772 750.82C38.4629 750.724 38.1568 750.629 37.88 750.532C36.68 750.113 34.84 749.161 33.32 747.597C31.8402 746.074 31.0875 743.684 30.4973 741.81C29.9962 740.219 29.6123 739 29 739C28.3877 739 28.0038 740.219 27.5027 741.81Z" fill="url(#paint23_linear_1175_5474)"/>
</g>
<g opacity="0.5" filter="url(#filter9_f_1175_5474)">
<path d="M355.829 134.227C357.55 132.515 357.707 129 358.545 129C359.384 129 359.541 132.515 361.262 134.227C362.218 135.179 363.375 135.757 364.129 136.012C364.92 136.28 366.091 136.522 366.091 136.905C366.091 137.287 364.92 137.53 364.129 137.797C363.375 138.052 362.218 138.631 361.262 139.582C359.541 141.295 359.384 144.81 358.545 144.81C357.707 144.81 357.55 141.295 355.829 139.582C354.873 138.631 353.716 138.052 352.962 137.797C352.171 137.53 351 137.287 351 136.905C351 136.522 352.171 136.28 352.962 136.012C353.716 135.757 354.873 135.179 355.829 134.227Z" fill="#C6CBFF"/>
</g>
<g opacity="0.8" filter="url(#filter10_f_1175_5474)">
<path d="M347.88 146.306C348.906 145.223 349 143 349.5 143C350 143 350.094 145.223 351.12 146.306C351.69 146.908 352.38 147.274 352.83 147.435C353.302 147.605 354 147.758 354 148C354 148.242 353.302 148.395 352.83 148.565C352.38 148.726 351.69 149.092 351.12 149.694C350.094 150.777 350 153 349.5 153C349 153 348.906 150.777 347.88 149.694C347.31 149.092 346.62 148.726 346.17 148.565C345.698 148.395 345 148.242 345 148C345 147.758 345.698 147.605 346.17 147.435C346.62 147.274 347.31 146.908 347.88 146.306Z" fill="#C6CBFF"/>
</g>
<g opacity="0.5" filter="url(#filter11_f_1175_5474)">
<path d="M45.16 132.96C46.6422 131.335 46.7778 128 47.5 128C48.2222 128 48.3578 131.335 49.84 132.96C50.6633 133.862 51.66 134.411 52.31 134.653C52.9913 134.907 54 135.137 54 135.5C54 135.863 52.9913 136.093 52.31 136.347C51.66 136.589 50.6633 137.138 49.84 138.04C48.3578 139.665 48.2222 143 47.5 143C46.7778 143 46.6422 139.665 45.16 138.04C44.3367 137.138 43.34 136.589 42.69 136.347C42.0087 136.093 41 135.863 41 135.5C41 135.137 42.0087 134.907 42.69 134.653C43.34 134.411 44.3367 133.862 45.16 132.96Z" fill="#C6CBFF"/>
</g>
<g opacity="0.4" filter="url(#filter12_f_1175_5474)">
<path d="M330.88 142.306C331.906 141.223 332 139 332.5 139C333 139 333.094 141.223 334.12 142.306C334.69 142.908 335.38 143.274 335.83 143.435C336.302 143.605 337 143.758 337 144C337 144.242 336.302 144.395 335.83 144.565C335.38 144.726 334.69 145.092 334.12 145.694C333.094 146.777 333 149 332.5 149C332 149 331.906 146.777 330.88 145.694C330.31 145.092 329.62 144.726 329.17 144.565C328.698 144.395 328 144.242 328 144C328 143.758 328.698 143.605 329.17 143.435C329.62 143.274 330.31 142.908 330.88 142.306Z" fill="#FFAFF0"/>
</g>
<g opacity="0.76" filter="url(#filter13_f_1175_5474)">
<path d="M224.88 140.306C225.906 139.223 226 137 226.5 137C227 137 227.094 139.223 228.12 140.306C228.69 140.908 229.38 141.274 229.83 141.435C230.302 141.605 231 141.758 231 142C231 142.242 230.302 142.395 229.83 142.565C229.38 142.726 228.69 143.092 228.12 143.694C227.094 144.777 227 147 226.5 147C226 147 225.906 144.777 224.88 143.694C224.31 143.092 223.62 142.726 223.17 142.565C222.698 142.395 222 142.242 222 142C222 141.758 222.698 141.605 223.17 141.435C223.62 141.274 224.31 140.908 224.88 140.306Z" fill="#C6CBFF"/>
</g>
<g opacity="0.76" filter="url(#filter14_f_1175_5474)">
<path d="M234.88 146.306C235.906 145.223 236 143 236.5 143C237 143 237.094 145.223 238.12 146.306C238.69 146.908 239.38 147.274 239.83 147.435C240.302 147.605 241 147.758 241 148C241 148.242 240.302 148.395 239.83 148.565C239.38 148.726 238.69 149.092 238.12 149.694C237.094 150.777 237 153 236.5 153C236 153 235.906 150.777 234.88 149.694C234.31 149.092 233.62 148.726 233.17 148.565C232.698 148.395 232 148.242 232 148C232 147.758 232.698 147.605 233.17 147.435C233.62 147.274 234.31 146.908 234.88 146.306Z" fill="#C6CBFF"/>
</g>
<g opacity="0.5" filter="url(#filter15_f_1175_5474)">
<path d="M54.88 123.306C55.9061 122.223 56 120 56.5 120C57 120 57.0939 122.223 58.12 123.306C58.69 123.908 59.38 124.274 59.83 124.435C60.3017 124.605 61 124.758 61 125C61 125.242 60.3017 125.395 59.83 125.565C59.38 125.726 58.69 126.092 58.12 126.694C57.0939 127.777 57 130 56.5 130C56 130 55.9061 127.777 54.88 126.694C54.31 126.092 53.62 125.726 53.17 125.565C52.6983 125.395 52 125.242 52 125C52 124.758 52.6983 124.605 53.17 124.435C53.62 124.274 54.31 123.908 54.88 123.306Z" fill="#C6CBFF"/>
</g>
<g opacity="0.44" filter="url(#filter16_f_1175_5474)">
<path d="M83.5928 232.225C83.7974 231.873 84.3142 231.9 84.4811 232.271L86.1724 236.034L90.2046 236.904C90.6024 236.99 90.7365 237.49 90.435 237.763L87.3794 240.534L87.7978 244.638C87.8391 245.043 87.4051 245.325 87.0519 245.122L83.4722 243.073L79.6986 244.739C79.3262 244.903 78.924 244.578 79.0072 244.179L79.8504 240.141L77.0997 237.067C76.8284 236.764 77.0137 236.281 77.4183 236.237L81.5192 235.791L83.5928 232.225Z" fill="white"/>
</g>
<g opacity="0.44" filter="url(#filter17_f_1175_5474)">
<path d="M338.653 368.029C338.672 367.623 339.142 367.408 339.462 367.66L342.7 370.215L346.678 369.124C347.071 369.016 347.421 369.398 347.28 369.78L345.85 373.649L348.117 377.095C348.341 377.435 348.086 377.886 347.68 377.869L343.558 377.706L340.981 380.927C340.727 381.245 340.22 381.142 340.109 380.75L338.991 376.779L335.132 375.324C334.751 375.18 334.692 374.666 335.03 374.44L338.461 372.15L338.653 368.029Z" fill="white"/>
</g>
<g opacity="0.44" filter="url(#filter18_f_1175_5474)">
<path d="M52.0277 582.2C52.3273 581.925 52.813 582.104 52.8625 582.508L53.3651 586.602L56.9594 588.626C57.314 588.826 57.2942 589.343 56.9254 589.515L53.1868 591.258L52.3724 595.302C52.2921 595.701 51.7941 595.842 51.5166 595.544L48.7034 592.527L44.6059 593.002C44.2016 593.049 43.9136 592.619 44.111 592.263L46.1109 588.655L44.3928 584.905C44.2233 584.535 44.5433 584.128 44.9428 584.206L48.992 584.993L52.0277 582.2Z" fill="white"/>
</g>
<g opacity="0.44" filter="url(#filter19_f_1175_5474)">
<path d="M235.324 733.708C235.384 733.306 235.874 733.139 236.167 733.422L239.131 736.291L243.198 735.607C243.6 735.539 243.909 735.954 243.731 736.32L241.918 740.025L243.826 743.682C244.014 744.043 243.716 744.466 243.313 744.409L239.228 743.83L236.34 746.775C236.055 747.065 235.56 746.912 235.49 746.511L234.779 742.448L231.085 740.61C230.721 740.429 230.714 739.912 231.074 739.721L234.718 737.789L235.324 733.708Z" fill="white"/>
</g>
<g opacity="0.44" filter="url(#filter20_f_1175_5474)">
<path d="M353.148 668.938C353.296 668.559 353.81 668.506 354.033 668.847L356.286 672.302L360.404 672.538C360.81 672.561 361.02 673.034 360.764 673.351L358.174 676.562L359.223 680.551C359.326 680.945 358.941 681.291 358.561 681.146L354.707 679.674L351.237 681.904C350.894 682.124 350.446 681.865 350.467 681.458L350.675 677.338L347.482 674.727C347.167 674.469 347.275 673.963 347.668 673.857L351.651 672.782L353.148 668.938Z" fill="white"/>
</g>
<g opacity="0.44" filter="url(#filter21_f_1175_5474)">
<path d="M24.1599 156.426C24.394 156.093 24.9066 156.164 25.0409 156.548L25.7631 158.614L27.8548 159.258C28.2437 159.378 28.3343 159.888 28.0104 160.134L26.2687 161.459L26.3025 163.648C26.3088 164.055 25.8522 164.298 25.5177 164.066L23.719 162.819L21.6483 163.528C21.2632 163.659 20.8904 163.3 21.0076 162.911L21.6377 160.815L20.3241 159.064C20.0798 158.739 20.306 158.273 20.7129 158.264L22.901 158.216L24.1599 156.426Z" fill="#9C8FFF"/>
</g>
<g opacity="0.44" filter="url(#filter22_f_1175_5474)">
<path d="M373.16 151.426C373.394 151.093 373.907 151.164 374.041 151.548L374.763 153.614L376.855 154.258C377.244 154.378 377.334 154.888 377.01 155.134L375.269 156.459L375.302 158.648C375.309 159.055 374.852 159.298 374.518 159.066L372.719 157.819L370.648 158.528C370.263 158.659 369.89 158.3 370.008 157.911L370.638 155.815L369.324 154.064C369.08 153.739 369.306 153.273 369.713 153.264L371.901 153.216L373.16 151.426Z" fill="#9C8FFF"/>
</g>
<g opacity="0.3" filter="url(#filter23_f_1175_5474)">
<path d="M142.16 139.426C142.394 139.093 142.907 139.164 143.041 139.548L143.763 141.614L145.855 142.258C146.244 142.378 146.334 142.888 146.01 143.134L144.269 144.459L144.302 146.648C144.309 147.055 143.852 147.298 143.518 147.066L141.719 145.819L139.648 146.528C139.263 146.659 138.89 146.3 139.008 145.911L139.638 143.815L138.324 142.064C138.08 141.739 138.306 141.273 138.713 141.264L140.901 141.216L142.16 139.426Z" fill="#9C8FFF"/>
</g>
<g opacity="0.4" filter="url(#filter24_f_1175_5474)">
<path d="M80.129 133.77C80.1573 133.364 80.6329 133.16 80.9465 133.42L82.6328 134.815L84.7562 134.285C85.1511 134.186 85.492 134.576 85.3422 134.954L84.5364 136.989L85.6967 138.845C85.9124 139.19 85.6475 139.634 85.2413 139.609L83.057 139.471L81.6507 141.148C81.3891 141.46 80.8845 141.345 80.7833 140.951L80.2391 138.831L78.2097 138.012C77.8323 137.86 77.7853 137.344 78.129 137.126L79.9769 135.954L80.129 133.77Z" fill="#FFAFF0"/>
</g>
<g opacity="0.3" filter="url(#filter25_f_1175_5474)">
<path d="M130.204 142.596C130.334 142.21 130.846 142.134 131.084 142.465L132.36 144.242L134.548 144.27C134.955 144.275 135.186 144.738 134.945 145.066L133.649 146.829L134.299 148.919C134.42 149.307 134.051 149.67 133.665 149.542L131.587 148.854L129.801 150.118C129.468 150.353 129.01 150.114 129.012 149.707L129.024 147.519L127.27 146.211C126.943 145.967 127.029 145.457 127.417 145.333L129.502 144.669L130.204 142.596Z" fill="#FFAFF0"/>
</g>
<g opacity="0.3" filter="url(#filter26_f_1175_5474)">
<path d="M286.129 116.77C286.157 116.364 286.633 116.16 286.947 116.42L288.633 117.815L290.756 117.285C291.151 117.186 291.492 117.576 291.342 117.954L290.536 119.989L291.697 121.845C291.912 122.19 291.647 122.634 291.241 122.609L289.057 122.471L287.651 124.148C287.389 124.46 286.884 124.345 286.783 123.951L286.239 121.831L284.21 121.012C283.832 120.86 283.785 120.344 284.129 120.126L285.977 118.954L286.129 116.77Z" fill="#FFAFF0"/>
</g>
<g opacity="0.44" filter="url(#filter27_f_1175_5474)">
<path d="M21.9976 139.268C21.9762 138.862 22.4235 138.602 22.7664 138.821L24.6098 140.001L26.653 139.216C27.033 139.07 27.4187 139.415 27.316 139.809L26.7638 141.927L28.1412 143.628C28.3974 143.944 28.1885 144.417 27.7822 144.441L25.5974 144.571L24.4055 146.406C24.1838 146.748 23.669 146.695 23.5206 146.316L22.7225 144.278L20.6085 143.712C20.2154 143.607 20.1061 143.101 20.4206 142.843L22.1122 141.454L21.9976 139.268Z" fill="#FFAFF0"/>
</g>
<g opacity="0.6" filter="url(#filter28_f_1175_5474)">
<path d="M379.998 162.268C379.976 161.862 380.424 161.602 380.766 161.821L382.61 163.001L384.653 162.216C385.033 162.07 385.419 162.415 385.316 162.809L384.764 164.927L386.141 166.628C386.397 166.944 386.188 167.417 385.782 167.441L383.597 167.571L382.406 169.406C382.184 169.748 381.669 169.695 381.521 169.316L380.723 167.278L378.609 166.712C378.215 166.607 378.106 166.101 378.421 165.843L380.112 164.454L379.998 162.268Z" fill="#FFC7F4"/>
</g>
<g opacity="0.44" filter="url(#filter29_f_1175_5474)">
<path d="M10.1991 168.23C10.2766 167.831 10.7736 167.686 11.0532 167.982L12.5571 169.572L14.7293 169.305C15.1332 169.255 15.4242 169.683 15.2294 170.04L14.1819 171.962L15.1076 173.945C15.2797 174.314 14.9626 174.723 14.5625 174.648L12.4113 174.245L10.8112 175.739C10.5136 176.016 10.0267 175.841 9.97424 175.438L9.69219 173.267L7.77763 172.207C7.42159 172.01 7.43773 171.492 7.80537 171.318L9.78231 170.379L10.1991 168.23Z" fill="white"/>
</g>
<g opacity="0.44" filter="url(#filter30_f_1175_5474)">
<path d="M377.199 175.23C377.277 174.831 377.774 174.686 378.053 174.982L379.557 176.572L381.729 176.305C382.133 176.255 382.424 176.683 382.229 177.04L381.182 178.962L382.108 180.945C382.28 181.314 381.963 181.723 381.563 181.648L379.411 181.245L377.811 182.739C377.514 183.016 377.027 182.841 376.974 182.438L376.692 180.267L374.778 179.207C374.422 179.01 374.438 178.492 374.805 178.318L376.782 177.379L377.199 175.23Z" fill="white"/>
</g>
<g opacity="0.44" filter="url(#filter31_f_1175_5474)">
<path d="M272.663 163.811C272.897 163.478 273.41 163.549 273.544 163.934L274.905 167.828L278.848 169.042C279.237 169.161 279.327 169.671 279.003 169.917L275.721 172.415L275.784 176.54C275.791 176.947 275.334 177.19 274.999 176.958L271.609 174.608L267.706 175.943C267.321 176.075 266.949 175.716 267.066 175.326L268.253 171.376L265.777 168.077C265.533 167.751 265.759 167.286 266.166 167.277L270.29 167.185L272.663 163.811Z" fill="white"/>
</g>
<path fill-rule="evenodd" clip-rule="evenodd" d="M41.7819 55.5963C39.839 56.0287 37.5479 56.2784 35.0946 56.2784C32.5698 56.2784 30.2167 56.014 28.2383 55.5579C29.3208 52.8852 31.9414 51 35.0024 51C38.0779 51 40.709 52.9033 41.7819 55.5963Z" fill="white"/>
<path d="M41.7819 55.5963L41.9992 56.5724L43.1455 56.3172L42.7109 55.2261L41.7819 55.5963ZM28.2383 55.5579L27.3114 55.1825L26.8713 56.2691L28.0137 56.5324L28.2383 55.5579ZM35.0946 57.2784C37.6126 57.2784 39.9772 57.0225 41.9992 56.5724L41.5646 54.6202C39.7008 55.035 37.4833 55.2784 35.0946 55.2784V57.2784ZM28.0137 56.5324C30.0743 57.0074 32.5035 57.2784 35.0946 57.2784V55.2784C32.6361 55.2784 30.3591 55.0206 28.4629 54.5835L28.0137 56.5324ZM29.1651 55.9334C30.1 53.6252 32.3626 52 35.0024 52V50C31.5203 50 28.5416 52.1453 27.3114 55.1825L29.1651 55.9334ZM35.0024 52C37.6548 52 39.9263 53.6408 40.8529 55.9664L42.7109 55.2261C41.4916 52.1658 38.5011 50 35.0024 50V52Z" fill="#DCCCF0"/>
<path d="M35.1143 56.2784C43.78 56.2784 50.8049 53.7536 50.8049 50.6392C50.8049 47.5247 43.78 45 35.1143 45C26.4487 45 19.4238 47.5247 19.4238 50.6392C19.4238 53.7536 26.4487 56.2784 35.1143 56.2784Z" stroke="#B9A2F1" stroke-width="3"/>
<g filter="url(#filter32_d_1175_5474)">
<path fill-rule="evenodd" clip-rule="evenodd" d="M276 763C261.088 763 249 775.088 249 790C249 793.156 249.541 796.185 250.536 799H0V817H276H390V799V790C390 775.088 377.912 763 363 763H276Z" fill="url(#paint24_linear_1175_5474)"/>
</g>
<rect y="817" width="390" height="27" fill="url(#paint25_linear_1175_5474)"/>
<path opacity="0.3" fill-rule="evenodd" clip-rule="evenodd" d="M42.8437 844H26.4987L53.3567 817H69.7017L42.8437 844ZM75.5355 844H59.1905L86.0485 817H102.393L75.5355 844ZM108.227 844H91.8824L118.74 817H135.085L108.227 844ZM140.919 844H124.574L151.432 817H167.777L140.919 844ZM173.611 844H157.266L184.124 817H200.469L173.611 844ZM206.302 844H189.957L216.815 817H233.16L206.302 844ZM238.994 844H222.649L249.507 817H265.852L238.994 844ZM271.685 844H255.34L282.198 817H298.543L271.685 844ZM304.377 844H288.032L314.89 817H331.235L304.377 844ZM337.069 844H320.724L347.582 817H363.927L337.069 844ZM369.761 844H353.416L380.274 817H390V823.654L369.761 844ZM390 844V840.087L386.108 844H390ZM37.0099 817L10.1519 844H0V837.774L20.6649 817H37.0099ZM0 817H4.31778L0 821.341V817Z" fill="url(#paint26_linear_1175_5474)"/>
<g filter="url(#filter33_i_1175_5474)">
<path d="M380 790C380 780.611 372.389 773 363 773H276C266.611 773 259 780.611 259 790C259 799.389 266.611 807 276 807H363C372.389 807 380 799.389 380 790Z" fill="#635773"/>
</g>
<path d="M289.216 786.336H291.248C291.408 786.336 291.472 786.416 291.472 786.56V787.936C291.472 788.08 291.408 788.144 291.248 788.144H289.216V791.024C289.216 791.152 289.152 791.216 288.992 791.216H287.36C287.232 791.216 287.168 791.152 287.168 791.024V783.488C287.168 783.36 287.232 783.28 287.36 783.28H288.992C289.152 783.28 289.216 783.36 289.216 783.488V786.336ZM285.424 784.224V790.384C285.424 790.496 285.376 790.576 285.232 790.576H278.448C278.288 790.576 278.224 790.496 278.224 790.384V784.224C278.224 784.096 278.288 784.016 278.448 784.016H280.032C280.176 784.016 280.24 784.096 280.24 784.224V785.744H283.44V784.224C283.44 784.096 283.488 784.016 283.632 784.016H285.232C285.376 784.016 285.424 784.096 285.424 784.224ZM280.24 787.392V788.864H283.44V787.392H280.24ZM284.544 791.584C287.712 791.584 289.36 792.816 289.36 794.544C289.36 796.24 287.712 797.488 284.544 797.488C281.36 797.488 279.712 796.256 279.712 794.544C279.712 792.816 281.36 791.584 284.544 791.584ZM284.544 795.776C286.544 795.776 287.328 795.216 287.328 794.544C287.328 793.872 286.544 793.312 284.544 793.312C282.544 793.312 281.744 793.872 281.744 794.544C281.744 795.216 282.544 795.776 284.544 795.776ZM306.537 787.104H308.569C308.729 787.104 308.793 787.184 308.793 787.328V788.704C308.793 788.848 308.729 788.912 308.569 788.912H306.537V793.344C306.537 793.472 306.473 793.536 306.313 793.536H304.681C304.553 793.536 304.489 793.472 304.489 793.344V783.488C304.489 783.36 304.553 783.28 304.681 783.28H306.313C306.473 783.28 306.537 783.36 306.537 783.488V787.104ZM302.745 784.464V790.608C302.745 790.736 302.697 790.816 302.553 790.816H295.769C295.609 790.816 295.545 790.736 295.545 790.608V784.464C295.545 784.32 295.609 784.256 295.769 784.256H302.553C302.697 784.256 302.745 784.32 302.745 784.464ZM297.577 789.088H300.745V785.984H297.577V789.088ZM299.657 795.392H306.857C307.001 795.392 307.065 795.456 307.065 795.6V796.992C307.065 797.12 307.001 797.2 306.857 797.2H297.817C297.673 797.2 297.609 797.12 297.609 796.992V792.352C297.609 792.24 297.673 792.16 297.817 792.16H299.449C299.593 792.16 299.657 792.24 299.657 792.352V795.392ZM320.23 788.288H311.158C311.014 788.288 310.95 788.208 310.95 788.096V783.744C310.95 783.616 311.014 783.536 311.174 783.536H320.086C320.214 783.536 320.278 783.616 320.278 783.744V785.008C320.278 785.12 320.214 785.2 320.086 785.2H312.982V786.64H320.23C320.374 786.64 320.438 786.72 320.438 786.848V788.096C320.438 788.208 320.374 788.288 320.23 788.288ZM322.214 790.704H309.094C308.966 790.704 308.902 790.624 308.902 790.496V789.248C308.902 789.12 308.966 789.04 309.094 789.04H322.214C322.358 789.04 322.422 789.12 322.422 789.248V790.496C322.422 790.624 322.358 790.704 322.214 790.704ZM320.694 797.488H311.03C310.902 797.488 310.838 797.408 310.838 797.296V793.888C310.838 793.776 310.902 793.68 311.03 793.68H318.47V793.072H310.998C310.87 793.072 310.806 792.992 310.806 792.848V791.68C310.806 791.568 310.87 791.488 310.998 791.488H320.278C320.422 791.488 320.486 791.568 320.486 791.68V795.04C320.486 795.168 320.406 795.248 320.262 795.248H312.854V795.872H320.694C320.838 795.872 320.918 795.952 320.918 796.096V797.296C320.918 797.408 320.838 797.488 320.694 797.488ZM334.947 797.344H333.315C333.171 797.344 333.107 797.28 333.107 797.152V783.488C333.107 783.36 333.171 783.28 333.315 783.28H334.947C335.107 783.28 335.171 783.36 335.171 783.488V797.152C335.171 797.28 335.107 797.344 334.947 797.344ZM324.723 794.32C324.579 794.384 324.499 794.368 324.419 794.256L323.667 792.928C323.587 792.8 323.619 792.704 323.747 792.64C327.203 790.96 328.627 789.328 328.627 786.912V786.592H324.147C324.019 786.592 323.955 786.528 323.955 786.4V784.992C323.955 784.864 324.019 784.784 324.147 784.784H330.483C330.643 784.784 330.691 784.864 330.691 784.992V786.912C330.691 790 328.771 792.32 324.723 794.32Z" fill="#F2F1FF"/>
<circle cx="14" cy="14" r="13.25" transform="matrix(-1 0 0 1 377 776)" fill="url(#paint27_radial_1175_5474)" stroke="url(#paint28_linear_1175_5474)" stroke-width="1.5"/>
<g filter="url(#filter34_i_1175_5474)">
<path d="M355.978 791.007C355.978 790.714 356.083 790.462 356.293 790.251C356.503 790.041 356.755 789.936 357.048 789.936H361.938V785.055C361.938 784.762 362.04 784.51 362.245 784.3C362.449 784.09 362.701 783.984 363 783.984C363.293 783.984 363.545 784.09 363.755 784.3C363.966 784.51 364.071 784.762 364.071 785.055V789.936H368.96C369.248 789.936 369.497 790.041 369.707 790.251C369.917 790.462 370.022 790.714 370.022 791.007C370.022 791.306 369.917 791.56 369.707 791.771C369.497 791.975 369.248 792.078 368.96 792.078H364.071V796.967C364.071 797.255 363.966 797.504 363.755 797.714C363.545 797.924 363.293 798.029 363 798.029C362.701 798.029 362.449 797.924 362.245 797.714C362.04 797.504 361.938 797.255 361.938 796.967V792.078H357.048C356.755 792.078 356.503 791.975 356.293 791.771C356.083 791.56 355.978 791.306 355.978 791.007Z" fill="url(#paint29_radial_1175_5474)"/>
</g>
<path d="M361.938 789.936V790.936H362.938V789.936H361.938ZM362.245 784.3L361.528 783.602L362.245 784.3ZM364.071 789.936H363.071V790.936H364.071V789.936ZM369.707 791.771L370.405 792.487L370.414 792.478L369.707 791.771ZM364.071 792.078V791.078H363.071V792.078H364.071ZM362.245 797.714L361.528 798.411L362.245 797.714ZM361.938 792.078H362.938V791.078H361.938V792.078ZM356.293 791.771L355.586 792.478L355.595 792.487L356.293 791.771ZM356.978 791.007C356.978 790.994 356.979 790.986 356.979 790.984C356.98 790.982 356.98 790.982 356.979 790.983C356.979 790.985 356.979 790.984 356.981 790.981C356.983 790.977 356.989 790.97 357 790.959L355.586 789.544C355.191 789.939 354.978 790.444 354.978 791.007H356.978ZM357 790.959C357.011 790.947 357.019 790.942 357.022 790.939C357.025 790.937 357.026 790.937 357.025 790.938C357.024 790.938 357.023 790.938 357.026 790.938C357.028 790.937 357.035 790.936 357.048 790.936V788.936C356.486 788.936 355.981 789.149 355.586 789.544L357 790.959ZM357.048 790.936H361.938V788.936H357.048V790.936ZM362.938 789.936V785.055H360.938V789.936H362.938ZM362.938 785.055C362.938 785.04 362.939 785.031 362.94 785.028C362.94 785.026 362.94 785.024 362.94 785.024C362.941 785.023 362.941 785.023 362.941 785.023C362.941 785.023 362.941 785.023 362.941 785.022C362.941 785.022 362.942 785.021 362.943 785.019C362.945 785.015 362.951 785.008 362.961 784.997L361.528 783.602C361.142 783.999 360.938 784.501 360.938 785.055H362.938ZM362.961 784.997C362.97 784.989 362.975 784.985 362.975 784.985C362.976 784.984 362.975 784.985 362.972 784.986C362.97 784.987 362.969 784.987 362.972 784.986C362.975 784.986 362.984 784.984 363 784.984V782.984C362.437 782.984 361.925 783.195 361.528 783.602L362.961 784.997ZM363 784.984C363.013 784.984 363.02 784.986 363.023 784.986C363.025 784.986 363.025 784.987 363.023 784.986C363.022 784.985 363.023 784.986 363.026 784.988C363.029 784.99 363.037 784.996 363.048 785.007L364.462 783.593C364.068 783.198 363.563 782.984 363 782.984V784.984ZM363.048 785.007C363.06 785.018 363.065 785.026 363.067 785.029C363.07 785.032 363.07 785.033 363.069 785.032C363.069 785.03 363.069 785.03 363.069 785.032C363.07 785.035 363.071 785.042 363.071 785.055H365.071C365.071 784.493 364.857 783.988 364.462 783.593L363.048 785.007ZM363.071 785.055V789.936H365.071V785.055H363.071ZM364.071 790.936H368.96V788.936H364.071V790.936ZM368.96 790.936C368.971 790.936 368.976 790.937 368.976 790.937C368.977 790.937 368.975 790.937 368.974 790.936C368.972 790.935 368.972 790.935 368.976 790.938C368.98 790.94 368.988 790.946 369 790.959L370.414 789.544C370.023 789.154 369.523 788.936 368.96 788.936V790.936ZM369 790.959C369.011 790.97 369.017 790.977 369.019 790.981C369.021 790.984 369.021 790.985 369.021 790.983C369.02 790.982 369.02 790.982 369.021 790.984C369.021 790.986 369.022 790.994 369.022 791.007H371.022C371.022 790.444 370.809 789.939 370.414 789.544L369 790.959ZM369.022 791.007C369.022 791.023 369.021 791.032 369.02 791.036C369.02 791.04 369.019 791.041 369.019 791.04C369.02 791.039 369.019 791.04 369.018 791.043C369.016 791.046 369.01 791.053 369 791.063L370.414 792.478C370.813 792.079 371.022 791.569 371.022 791.007H369.022ZM369.009 791.054C368.998 791.065 368.99 791.071 368.986 791.074C368.983 791.076 368.981 791.076 368.982 791.076C368.983 791.076 368.983 791.076 368.981 791.076C368.979 791.077 368.972 791.078 368.96 791.078V793.078C369.514 793.078 370.012 792.869 370.405 792.487L369.009 791.054ZM368.96 791.078H364.071V793.078H368.96V791.078ZM363.071 792.078V796.967H365.071V792.078H363.071ZM363.071 796.967C363.071 796.978 363.07 796.983 363.07 796.983C363.07 796.984 363.07 796.982 363.071 796.98C363.071 796.979 363.071 796.979 363.069 796.983C363.067 796.986 363.06 796.995 363.048 797.007L364.462 798.421C364.853 798.03 365.071 797.53 365.071 796.967H363.071ZM363.048 797.007C363.037 797.018 363.029 797.024 363.026 797.026C363.023 797.028 363.022 797.028 363.023 797.028C363.025 797.027 363.025 797.027 363.023 797.028C363.02 797.028 363.013 797.029 363 797.029V799.029C363.563 799.029 364.068 798.816 364.462 798.421L363.048 797.007ZM363 797.029C362.984 797.029 362.975 797.028 362.972 797.027C362.969 797.027 362.97 797.027 362.972 797.028C362.975 797.029 362.976 797.03 362.975 797.029C362.975 797.029 362.97 797.025 362.961 797.016L361.528 798.411C361.925 798.819 362.437 799.029 363 799.029V797.029ZM362.961 797.016C362.95 797.005 362.944 796.997 362.942 796.993C362.939 796.989 362.939 796.988 362.939 796.989C362.94 796.99 362.939 796.99 362.939 796.988C362.939 796.986 362.938 796.979 362.938 796.967H360.938C360.938 797.521 361.146 798.019 361.528 798.411L362.961 797.016ZM362.938 796.967V792.078H360.938V796.967H362.938ZM361.938 791.078H357.048V793.078H361.938V791.078ZM357.048 791.078C357.033 791.078 357.025 791.076 357.021 791.076C357.019 791.075 357.018 791.075 357.017 791.075C357.016 791.075 357.016 791.075 357.016 791.074C357.016 791.074 357.016 791.074 357.015 791.074C357.015 791.074 357.014 791.073 357.012 791.072C357.009 791.07 357.001 791.065 356.991 791.054L355.595 792.487C355.992 792.873 356.494 793.078 357.048 793.078V791.078ZM357 791.063C356.99 791.053 356.984 791.046 356.982 791.043C356.981 791.04 356.98 791.039 356.981 791.04C356.981 791.041 356.98 791.04 356.98 791.036C356.979 791.032 356.978 791.023 356.978 791.007H354.978C354.978 791.569 355.187 792.079 355.586 792.478L357 791.063Z" fill="url(#paint30_linear_1175_5474)"/>
</g>
<defs>
<filter id="filter0_f_1175_5474" x="46.5068" y="647.821" width="96.084" height="99.1865" filterUnits="userSpaceOnUse" color-interpolation-filters="sRGB">
<feFlood flood-opacity="0" result="BackgroundImageFix"/>
<feBlend mode="normal" in="SourceGraphic" in2="BackgroundImageFix" result="shape"/>
<feGaussianBlur stdDeviation="2" result="effect1_foregroundBlur_1175_5474"/>
</filter>
<filter id="filter1_f_1175_5474" x="47.9795" y="443.663" width="48.3662" height="48.5586" filterUnits="userSpaceOnUse" color-interpolation-filters="sRGB">
<feFlood flood-opacity="0" result="BackgroundImageFix"/>
<feBlend mode="normal" in="SourceGraphic" in2="BackgroundImageFix" result="shape"/>
<feGaussianBlur stdDeviation="2" result="effect1_foregroundBlur_1175_5474"/>
</filter>
<filter id="filter2_f_1175_5474" x="104.233" y="610.029" width="41.1201" height="41.2744" filterUnits="userSpaceOnUse" color-interpolation-filters="sRGB">
<feFlood flood-opacity="0" result="BackgroundImageFix"/>
<feBlend mode="normal" in="SourceGraphic" in2="BackgroundImageFix" result="shape"/>
<feGaussianBlur stdDeviation="2" result="effect1_foregroundBlur_1175_5474"/>
</filter>
<filter id="filter3_f_1175_5474" x="32.2822" y="417.342" width="32.5146" height="33.6543" filterUnits="userSpaceOnUse" color-interpolation-filters="sRGB">
<feFlood flood-opacity="0" result="BackgroundImageFix"/>
<feBlend mode="normal" in="SourceGraphic" in2="BackgroundImageFix" result="shape"/>
<feGaussianBlur stdDeviation="2" result="effect1_foregroundBlur_1175_5474"/>
</filter>
<filter id="filter4_f_1175_5474" x="328.758" y="521.033" width="42.7148" height="43.8271" filterUnits="userSpaceOnUse" color-interpolation-filters="sRGB">
<feFlood flood-opacity="0" result="BackgroundImageFix"/>
<feBlend mode="normal" in="SourceGraphic" in2="BackgroundImageFix" result="shape"/>
<feGaussianBlur stdDeviation="2" result="effect1_foregroundBlur_1175_5474"/>
</filter>
<filter id="filter5_f_1175_5474" x="54.5293" y="178.463" width="35.2285" height="34.9629" filterUnits="userSpaceOnUse" color-interpolation-filters="sRGB">
<feFlood flood-opacity="0" result="BackgroundImageFix"/>
<feBlend mode="normal" in="SourceGraphic" in2="BackgroundImageFix" result="shape"/>
<feGaussianBlur stdDeviation="2" result="effect1_foregroundBlur_1175_5474"/>
</filter>
<filter id="filter6_f_1175_5474" x="17.1094" y="204.358" width="58.9824" height="59.5205" filterUnits="userSpaceOnUse" color-interpolation-filters="sRGB">
<feFlood flood-opacity="0" result="BackgroundImageFix"/>
<feBlend mode="normal" in="SourceGraphic" in2="BackgroundImageFix" result="shape"/>
<feGaussianBlur stdDeviation="2" result="effect1_foregroundBlur_1175_5474"/>
</filter>
<filter id="filter7_f_1175_5474" x="303.907" y="699.548" width="63.7559" height="66.042" filterUnits="userSpaceOnUse" color-interpolation-filters="sRGB">
<feFlood flood-opacity="0" result="BackgroundImageFix"/>
<feBlend mode="normal" in="SourceGraphic" in2="BackgroundImageFix" result="shape"/>
<feGaussianBlur stdDeviation="2" result="effect1_foregroundBlur_1175_5474"/>
</filter>
<filter id="filter8_f_1175_5474" x="14" y="173" width="362" height="595" filterUnits="userSpaceOnUse" color-interpolation-filters="sRGB">
<feFlood flood-opacity="0" result="BackgroundImageFix"/>
<feBlend mode="normal" in="SourceGraphic" in2="BackgroundImageFix" result="shape"/>
<feGaussianBlur stdDeviation="1.5" result="effect1_foregroundBlur_1175_5474"/>
</filter>
<filter id="filter9_f_1175_5474" x="350" y="128" width="17.0908" height="17.8096" filterUnits="userSpaceOnUse" color-interpolation-filters="sRGB">
<feFlood flood-opacity="0" result="BackgroundImageFix"/>
<feBlend mode="normal" in="SourceGraphic" in2="BackgroundImageFix" result="shape"/>
<feGaussianBlur stdDeviation="0.5" result="effect1_foregroundBlur_1175_5474"/>
</filter>
<filter id="filter10_f_1175_5474" x="344" y="142" width="11" height="12" filterUnits="userSpaceOnUse" color-interpolation-filters="sRGB">
<feFlood flood-opacity="0" result="BackgroundImageFix"/>
<feBlend mode="normal" in="SourceGraphic" in2="BackgroundImageFix" result="shape"/>
<feGaussianBlur stdDeviation="0.5" result="effect1_foregroundBlur_1175_5474"/>
</filter>
<filter id="filter11_f_1175_5474" x="40" y="127" width="15" height="17" filterUnits="userSpaceOnUse" color-interpolation-filters="sRGB">
<feFlood flood-opacity="0" result="BackgroundImageFix"/>
<feBlend mode="normal" in="SourceGraphic" in2="BackgroundImageFix" result="shape"/>
<feGaussianBlur stdDeviation="0.5" result="effect1_foregroundBlur_1175_5474"/>
</filter>
<filter id="filter12_f_1175_5474" x="327" y="138" width="11" height="12" filterUnits="userSpaceOnUse" color-interpolation-filters="sRGB">
<feFlood flood-opacity="0" result="BackgroundImageFix"/>
<feBlend mode="normal" in="SourceGraphic" in2="BackgroundImageFix" result="shape"/>
<feGaussianBlur stdDeviation="0.5" result="effect1_foregroundBlur_1175_5474"/>
</filter>
<filter id="filter13_f_1175_5474" x="221" y="136" width="11" height="12" filterUnits="userSpaceOnUse" color-interpolation-filters="sRGB">
<feFlood flood-opacity="0" result="BackgroundImageFix"/>
<feBlend mode="normal" in="SourceGraphic" in2="BackgroundImageFix" result="shape"/>
<feGaussianBlur stdDeviation="0.5" result="effect1_foregroundBlur_1175_5474"/>
</filter>
<filter id="filter14_f_1175_5474" x="231" y="142" width="11" height="12" filterUnits="userSpaceOnUse" color-interpolation-filters="sRGB">
<feFlood flood-opacity="0" result="BackgroundImageFix"/>
<feBlend mode="normal" in="SourceGraphic" in2="BackgroundImageFix" result="shape"/>
<feGaussianBlur stdDeviation="0.5" result="effect1_foregroundBlur_1175_5474"/>
</filter>
<filter id="filter15_f_1175_5474" x="51" y="119" width="11" height="12" filterUnits="userSpaceOnUse" color-interpolation-filters="sRGB">
<feFlood flood-opacity="0" result="BackgroundImageFix"/>
<feBlend mode="normal" in="SourceGraphic" in2="BackgroundImageFix" result="shape"/>
<feGaussianBlur stdDeviation="0.5" result="effect1_foregroundBlur_1175_5474"/>
</filter>
<filter id="filter16_f_1175_5474" x="74.9717" y="229.977" width="17.6279" height="17.2129" filterUnits="userSpaceOnUse" color-interpolation-filters="sRGB">
<feFlood flood-opacity="0" result="BackgroundImageFix"/>
<feBlend mode="normal" in="SourceGraphic" in2="BackgroundImageFix" result="shape"/>
<feGaussianBlur stdDeviation="1" result="effect1_foregroundBlur_1175_5474"/>
</filter>
<filter id="filter17_f_1175_5474" x="332.808" y="365.552" width="17.3926" height="17.5625" filterUnits="userSpaceOnUse" color-interpolation-filters="sRGB">
<feFlood flood-opacity="0" result="BackgroundImageFix"/>
<feBlend mode="normal" in="SourceGraphic" in2="BackgroundImageFix" result="shape"/>
<feGaussianBlur stdDeviation="1" result="effect1_foregroundBlur_1175_5474"/>
</filter>
<filter id="filter18_f_1175_5474" x="42.0469" y="580.067" width="17.167" height="17.6357" filterUnits="userSpaceOnUse" color-interpolation-filters="sRGB">
<feFlood flood-opacity="0" result="BackgroundImageFix"/>
<feBlend mode="normal" in="SourceGraphic" in2="BackgroundImageFix" result="shape"/>
<feGaussianBlur stdDeviation="1" result="effect1_foregroundBlur_1175_5474"/>
</filter>
<filter id="filter19_f_1175_5474" x="228.808" y="731.281" width="17.0762" height="17.6436" filterUnits="userSpaceOnUse" color-interpolation-filters="sRGB">
<feFlood flood-opacity="0" result="BackgroundImageFix"/>
<feBlend mode="normal" in="SourceGraphic" in2="BackgroundImageFix" result="shape"/>
<feGaussianBlur stdDeviation="1" result="effect1_foregroundBlur_1175_5474"/>
</filter>
<filter id="filter20_f_1175_5474" x="345.299" y="666.62" width="17.5771" height="17.3643" filterUnits="userSpaceOnUse" color-interpolation-filters="sRGB">
<feFlood flood-opacity="0" result="BackgroundImageFix"/>
<feBlend mode="normal" in="SourceGraphic" in2="BackgroundImageFix" result="shape"/>
<feGaussianBlur stdDeviation="1" result="effect1_foregroundBlur_1175_5474"/>
</filter>
<filter id="filter21_f_1175_5474" x="19.2236" y="155.213" width="9.98438" height="9.94336" filterUnits="userSpaceOnUse" color-interpolation-filters="sRGB">
<feFlood flood-opacity="0" result="BackgroundImageFix"/>
<feBlend mode="normal" in="SourceGraphic" in2="BackgroundImageFix" result="shape"/>
<feGaussianBlur stdDeviation="0.5" result="effect1_foregroundBlur_1175_5474"/>
</filter>
<filter id="filter22_f_1175_5474" x="368.224" y="150.213" width="9.98438" height="9.94336" filterUnits="userSpaceOnUse" color-interpolation-filters="sRGB">
<feFlood flood-opacity="0" result="BackgroundImageFix"/>
<feBlend mode="normal" in="SourceGraphic" in2="BackgroundImageFix" result="shape"/>
<feGaussianBlur stdDeviation="0.5" result="effect1_foregroundBlur_1175_5474"/>
</filter>
<filter id="filter23_f_1175_5474" x="137.224" y="138.213" width="9.98438" height="9.94336" filterUnits="userSpaceOnUse" color-interpolation-filters="sRGB">
<feFlood flood-opacity="0" result="BackgroundImageFix"/>
<feBlend mode="normal" in="SourceGraphic" in2="BackgroundImageFix" result="shape"/>
<feGaussianBlur stdDeviation="0.5" result="effect1_foregroundBlur_1175_5474"/>
</filter>
<filter id="filter24_f_1175_5474" x="76.8965" y="132.305" width="9.87695" height="10.0225" filterUnits="userSpaceOnUse" color-interpolation-filters="sRGB">
<feFlood flood-opacity="0" result="BackgroundImageFix"/>
<feBlend mode="normal" in="SourceGraphic" in2="BackgroundImageFix" result="shape"/>
<feGaussianBlur stdDeviation="0.5" result="effect1_foregroundBlur_1175_5474"/>
</filter>
<filter id="filter25_f_1175_5474" x="126.068" y="141.256" width="9.97461" height="9.95508" filterUnits="userSpaceOnUse" color-interpolation-filters="sRGB">
<feFlood flood-opacity="0" result="BackgroundImageFix"/>
<feBlend mode="normal" in="SourceGraphic" in2="BackgroundImageFix" result="shape"/>
<feGaussianBlur stdDeviation="0.5" result="effect1_foregroundBlur_1175_5474"/>
</filter>
<filter id="filter26_f_1175_5474" x="282.896" y="115.305" width="9.87695" height="10.0225" filterUnits="userSpaceOnUse" color-interpolation-filters="sRGB">
<feFlood flood-opacity="0" result="BackgroundImageFix"/>
<feBlend mode="normal" in="SourceGraphic" in2="BackgroundImageFix" result="shape"/>
<feGaussianBlur stdDeviation="0.5" result="effect1_foregroundBlur_1175_5474"/>
</filter>
<filter id="filter27_f_1175_5474" x="19.2373" y="137.741" width="10.0156" height="9.89258" filterUnits="userSpaceOnUse" color-interpolation-filters="sRGB">
<feFlood flood-opacity="0" result="BackgroundImageFix"/>
<feBlend mode="normal" in="SourceGraphic" in2="BackgroundImageFix" result="shape"/>
<feGaussianBlur stdDeviation="0.5" result="effect1_foregroundBlur_1175_5474"/>
</filter>
<filter id="filter28_f_1175_5474" x="377.237" y="160.741" width="10.0156" height="9.89258" filterUnits="userSpaceOnUse" color-interpolation-filters="sRGB">
<feFlood flood-opacity="0" result="BackgroundImageFix"/>
<feBlend mode="normal" in="SourceGraphic" in2="BackgroundImageFix" result="shape"/>
<feGaussianBlur stdDeviation="0.5" result="effect1_foregroundBlur_1175_5474"/>
</filter>
<filter id="filter29_f_1175_5474" x="6.51953" y="166.825" width="9.77148" height="10.0488" filterUnits="userSpaceOnUse" color-interpolation-filters="sRGB">
<feFlood flood-opacity="0" result="BackgroundImageFix"/>
<feBlend mode="normal" in="SourceGraphic" in2="BackgroundImageFix" result="shape"/>
<feGaussianBlur stdDeviation="0.5" result="effect1_foregroundBlur_1175_5474"/>
</filter>
<filter id="filter30_f_1175_5474" x="373.52" y="173.825" width="9.77148" height="10.0488" filterUnits="userSpaceOnUse" color-interpolation-filters="sRGB">
<feFlood flood-opacity="0" result="BackgroundImageFix"/>
<feBlend mode="normal" in="SourceGraphic" in2="BackgroundImageFix" result="shape"/>
<feGaussianBlur stdDeviation="0.5" result="effect1_foregroundBlur_1175_5474"/>
</filter>
<filter id="filter31_f_1175_5474" x="263.677" y="161.599" width="17.5244" height="17.4502" filterUnits="userSpaceOnUse" color-interpolation-filters="sRGB">
<feFlood flood-opacity="0" result="BackgroundImageFix"/>
<feBlend mode="normal" in="SourceGraphic" in2="BackgroundImageFix" result="shape"/>
<feGaussianBlur stdDeviation="1" result="effect1_foregroundBlur_1175_5474"/>
</filter>
<filter id="filter32_d_1175_5474" x="-14" y="749" width="418" height="82" filterUnits="userSpaceOnUse" color-interpolation-filters="sRGB">
<feFlood flood-opacity="0" result="BackgroundImageFix"/>
<feColorMatrix in="SourceAlpha" type="matrix" values="0 0 0 0 0 0 0 0 0 0 0 0 0 0 0 0 0 0 127 0" result="hardAlpha"/>
<feOffset/>
<feGaussianBlur stdDeviation="7"/>
<feComposite in2="hardAlpha" operator="out"/>
<feColorMatrix type="matrix" values="0 0 0 0 0 0 0 0 0 0 0 0 0 0 0 0 0 0 0.25 0"/>
<feBlend mode="normal" in2="BackgroundImageFix" result="effect1_dropShadow_1175_5474"/>
<feBlend mode="normal" in="SourceGraphic" in2="effect1_dropShadow_1175_5474" result="shape"/>
</filter>
<filter id="filter33_i_1175_5474" x="259" y="773" width="121" height="38" filterUnits="userSpaceOnUse" color-interpolation-filters="sRGB">
<feFlood flood-opacity="0" result="BackgroundImageFix"/>
<feBlend mode="normal" in="SourceGraphic" in2="BackgroundImageFix" result="shape"/>
<feColorMatrix in="SourceAlpha" type="matrix" values="0 0 0 0 0 0 0 0 0 0 0 0 0 0 0 0 0 0 127 0" result="hardAlpha"/>
<feOffset dy="4"/>
<feGaussianBlur stdDeviation="4.5"/>
<feComposite in2="hardAlpha" operator="arithmetic" k2="-1" k3="1"/>
<feColorMatrix type="matrix" values="0 0 0 0 0 0 0 0 0 0 0 0 0 0 0 0 0 0 0.5 0"/>
<feBlend mode="normal" in2="shape" result="effect1_innerShadow_1175_5474"/>
</filter>
<filter id="filter34_i_1175_5474" x="355.978" y="783.984" width="14.0449" height="14.4449" filterUnits="userSpaceOnUse" color-interpolation-filters="sRGB">
<feFlood flood-opacity="0" result="BackgroundImageFix"/>
<feBlend mode="normal" in="SourceGraphic" in2="BackgroundImageFix" result="shape"/>
<feColorMatrix in="SourceAlpha" type="matrix" values="0 0 0 0 0 0 0 0 0 0 0 0 0 0 0 0 0 0 127 0" result="hardAlpha"/>
<feOffset dy="0.4"/>
<feGaussianBlur stdDeviation="0.7"/>
<feComposite in2="hardAlpha" operator="arithmetic" k2="-1" k3="1"/>
<feColorMatrix type="matrix" values="0 0 0 0 0.25021 0 0 0 0 0.0951042 0 0 0 0 0.691667 0 0 0 0.61 0"/>
<feBlend mode="normal" in2="shape" result="effect1_innerShadow_1175_5474"/>
</filter>
<linearGradient id="paint0_linear_1175_5474" x1="195" y1="0" x2="195" y2="853" gradientUnits="userSpaceOnUse">
<stop stop-color="#ABC8FF"/>
<stop offset="0.822917" stop-color="#FBFDFF"/>
<stop offset="1" stop-color="#8DA3DB"/>
</linearGradient>
<linearGradient id="paint1_linear_1175_5474" x1="381.5" y1="838" x2="380.636" y2="753.176" gradientUnits="userSpaceOnUse">
<stop stop-color="#D0DBFF"/>
<stop offset="1" stop-color="#EEEEFF" stop-opacity="0.42"/>
</linearGradient>
<linearGradient id="paint2_linear_1175_5474" x1="381.5" y1="0" x2="381.5" y2="193" gradientUnits="userSpaceOnUse">
<stop offset="0.0685605" stop-color="#9AB6FF"/>
<stop offset="0.555983" stop-color="#B2C8FF" stop-opacity="0"/>
</linearGradient>
<linearGradient id="paint3_linear_1175_5474" x1="194.045" y1="49.6304" x2="194.045" y2="126.783" gradientUnits="userSpaceOnUse">
<stop offset="0.151042" stop-color="#AEACFF"/>
<stop offset="0.941022" stop-color="#AD91E1"/>
</linearGradient>
<linearGradient id="paint4_linear_1175_5474" x1="194.5" y1="51" x2="194.5" y2="114" gradientUnits="userSpaceOnUse">
<stop stop-color="#7EA2FF"/>
<stop offset="0.947917" stop-color="#B5A8FF"/>
</linearGradient>
<linearGradient id="paint5_linear_1175_5474" x1="35.5" y1="81" x2="35.5" y2="136" gradientUnits="userSpaceOnUse">
<stop offset="0.0790194" stop-color="#B5B5D9" stop-opacity="0"/>
<stop offset="0.671875" stop-color="#8280EA"/>
</linearGradient>
<linearGradient id="paint6_linear_1175_5474" x1="35.5" y1="81" x2="35.5" y2="136" gradientUnits="userSpaceOnUse">
<stop stop-color="#9795FF"/>
<stop offset="0.649216" stop-color="#BAA9FF"/>
</linearGradient>
<linearGradient id="paint7_linear_1175_5474" x1="35.1107" y1="45.4998" x2="35.1107" y2="91.8427" gradientUnits="userSpaceOnUse">
<stop offset="0.133397" stop-color="#FBFFE9"/>
<stop offset="1" stop-color="#9E9CFF"/>
</linearGradient>
<linearGradient id="paint8_linear_1175_5474" x1="35.1107" y1="58.9998" x2="35.1107" y2="91.8427" gradientUnits="userSpaceOnUse">
<stop stop-color="#B9A2F1"/>
<stop offset="0.489583" stop-color="#9695FF"/>
</linearGradient>
<linearGradient id="paint9_linear_1175_5474" x1="194.999" y1="112" x2="194.999" y2="240.732" gradientUnits="userSpaceOnUse">
<stop offset="0.120134" stop-color="white"/>
<stop offset="0.450203" stop-color="#B9BFF1"/>
</linearGradient>
<linearGradient id="paint10_linear_1175_5474" x1="194.999" y1="98.5" x2="194.999" y2="240.732" gradientUnits="userSpaceOnUse">
<stop stop-color="#FFD7EF"/>
<stop offset="0.0001" stop-color="#A7A6FF"/>
<stop offset="0.510417" stop-color="#FFB3FC"/>
</linearGradient>
<linearGradient id="paint11_linear_1175_5474" x1="35.1143" y1="45" x2="35.1143" y2="58.5" gradientUnits="userSpaceOnUse">
<stop stop-color="#D9DAC2"/>
<stop offset="0.563111" stop-color="#FAFFDC"/>
</linearGradient>
<linearGradient id="paint12_linear_1175_5474" x1="410.5" y1="145" x2="410.5" y2="791" gradientUnits="userSpaceOnUse">
<stop stop-color="#D9D2FF"/>
<stop offset="0.0001" stop-color="#CBC2FF"/>
<stop offset="0.557292" stop-color="#AAB3FF"/>
<stop offset="1" stop-color="#8A7DD1"/>
</linearGradient>
<radialGradient id="paint13_radial_1175_5474" cx="0" cy="0" r="1" gradientUnits="userSpaceOnUse" gradientTransform="translate(195 471.008) rotate(90) scale(320.008 320.008)">
<stop offset="0.082604" stop-color="white"/>
<stop offset="0.775108" stop-color="white" stop-opacity="0"/>
</radialGradient>
<linearGradient id="paint14_linear_1175_5474" x1="1.85383e-05" y1="145" x2="390" y2="791" gradientUnits="userSpaceOnUse">
<stop stop-color="#9B8FDB"/>
<stop offset="0.286271" stop-color="#DBBFFF"/>
<stop offset="0.692708" stop-color="#CCB1F3"/>
<stop offset="1" stop-color="#DBD6FF"/>
</linearGradient>
<linearGradient id="paint15_linear_1175_5474" x1="83.9507" y1="647.51" x2="109.802" y2="738.717" gradientUnits="userSpaceOnUse">
<stop offset="0.255208" stop-color="white" stop-opacity="0.39"/>
<stop offset="1" stop-color="white" stop-opacity="0"/>
</linearGradient>
<linearGradient id="paint16_linear_1175_5474" x1="75.1289" y1="445.826" x2="67.8515" y2="487.39" gradientUnits="userSpaceOnUse">
<stop offset="0.203125" stop-color="white" stop-opacity="0.77"/>
<stop offset="1" stop-color="white" stop-opacity="0"/>
</linearGradient>
<linearGradient id="paint17_linear_1175_5474" x1="127.299" y1="612.192" x2="121.228" y2="646.864" gradientUnits="userSpaceOnUse">
<stop offset="0.203125" stop-color="white" stop-opacity="0.77"/>
<stop offset="1" stop-color="white" stop-opacity="0"/>
</linearGradient>
<linearGradient id="paint18_linear_1175_5474" x1="45.2342" y1="420.263" x2="53.3432" y2="445.436" gradientUnits="userSpaceOnUse">
<stop offset="0.203125" stop-color="white" stop-opacity="0.77"/>
<stop offset="1" stop-color="white" stop-opacity="0"/>
</linearGradient>
<linearGradient id="paint19_linear_1175_5474" x1="346.357" y1="523.924" x2="355.735" y2="558.853" gradientUnits="userSpaceOnUse">
<stop offset="0.203125" stop-color="white" stop-opacity="0.77"/>
<stop offset="1" stop-color="white" stop-opacity="0"/>
</linearGradient>
<linearGradient id="paint20_linear_1175_5474" x1="73.6075" y1="180.858" x2="70.0729" y2="209.528" gradientUnits="userSpaceOnUse">
<stop offset="0.28125" stop-color="white" stop-opacity="0.63"/>
<stop offset="1" stop-color="white" stop-opacity="0.03"/>
</linearGradient>
<linearGradient id="paint21_linear_1175_5474" x1="42.2376" y1="205.387" x2="52.7698" y2="259.005" gradientUnits="userSpaceOnUse">
<stop offset="0.28125" stop-color="white" stop-opacity="0.63"/>
<stop offset="1" stop-color="white" stop-opacity="0.03"/>
</linearGradient>
<linearGradient id="paint22_linear_1175_5474" x1="344.288" y1="700.449" x2="324.413" y2="758.297" gradientUnits="userSpaceOnUse">
<stop offset="0.255208" stop-color="white" stop-opacity="0.35"/>
<stop offset="1" stop-color="white" stop-opacity="0.03"/>
</linearGradient>
<linearGradient id="paint23_linear_1175_5474" x1="195" y1="176" x2="195" y2="765" gradientUnits="userSpaceOnUse">
<stop stop-color="#C2AEFE"/>
<stop offset="0.531268" stop-color="#7C91FF"/>
<stop offset="1" stop-color="#715FE4"/>
</linearGradient>
<linearGradient id="paint24_linear_1175_5474" x1="195" y1="763" x2="195" y2="818.066" gradientUnits="userSpaceOnUse">
<stop stop-color="#EDEDFF"/>
<stop offset="0.223958" stop-color="#A4A3DE"/>
<stop offset="0.427083" stop-color="#A4A3DE"/>
<stop offset="0.567708" stop-color="#CAC9FF"/>
<stop offset="0.78125" stop-color="white"/>
<stop offset="0.915435" stop-color="#A4A3DE"/>
<stop offset="0.952505" stop-color="#CAC9FF"/>
<stop offset="0.991702" stop-color="white"/>
</linearGradient>
<linearGradient id="paint25_linear_1175_5474" x1="195" y1="817" x2="195" y2="844" gradientUnits="userSpaceOnUse">
<stop stop-color="#C8C7FF"/>
<stop offset="0.135417" stop-color="white"/>
<stop offset="0.369792" stop-color="#E7E7FF"/>
<stop offset="0.682292" stop-color="#A4A3DE"/>
<stop offset="0.854167" stop-color="#8E8DCE"/>
<stop offset="1" stop-color="#CAC9FF"/>
</linearGradient>
<linearGradient id="paint26_linear_1175_5474" x1="195" y1="817" x2="195" y2="844" gradientUnits="userSpaceOnUse">
<stop offset="0.234958" stop-color="#8684E0"/>
<stop offset="0.971832" stop-color="#8684E0" stop-opacity="0"/>
</linearGradient>
<radialGradient id="paint27_radial_1175_5474" cx="0" cy="0" r="1" gradientUnits="userSpaceOnUse" gradientTransform="translate(19 9) rotate(135) scale(26.8701)">
<stop offset="0.10033" stop-color="#E5E2FF"/>
<stop offset="0.609375" stop-color="#5348C8"/>
<stop offset="0.911458" stop-color="#A095FF"/>
</radialGradient>
<linearGradient id="paint28_linear_1175_5474" x1="14" y1="0" x2="14" y2="28" gradientUnits="userSpaceOnUse">
<stop stop-color="#7C72FF"/>
<stop offset="0.682292" stop-color="#4A22BC" stop-opacity="0"/>
</linearGradient>
<radialGradient id="paint29_radial_1175_5474" cx="0" cy="0" r="1" gradientUnits="userSpaceOnUse" gradientTransform="translate(363 791) rotate(90) scale(8 9.14286)">
<stop offset="0.240707" stop-color="#FFFEE6"/>
<stop offset="0.510058" stop-color="#D6CFFF"/>
<stop offset="1" stop-color="#7D68FF" stop-opacity="0"/>
</radialGradient>
<linearGradient id="paint30_linear_1175_5474" x1="363" y1="784" x2="363" y2="803" gradientUnits="userSpaceOnUse">
<stop offset="0.244792" stop-color="#716CA9" stop-opacity="0.47"/>
<stop offset="0.713542" stop-color="#5F55C6"/>
</linearGradient>
<clipPath id="clip0_1175_5474">
<rect width="390" height="844" fill="white"/>
</clipPath>
</defs>
</svg>
