<svg width="194" height="131" viewBox="0 0 194 131" fill="none" xmlns="http://www.w3.org/2000/svg">
<mask id="path-1-inside-1_1273_5315" fill="white">
<path fill-rule="evenodd" clip-rule="evenodd" d="M121.411 115.9C162.763 109.225 193.244 86.2477 193.244 58.9287C193.244 26.3833 149.985 0 96.6218 0C43.2591 0 0 26.3833 0 58.9287C0 91.4741 43.2591 117.857 96.6218 117.857C98.4311 117.857 100.229 117.827 102.014 117.767C111.794 125.014 126.752 130.952 146.193 131C140.26 129.416 129.379 123.692 121.411 115.9Z"/>
</mask>
<path fill-rule="evenodd" clip-rule="evenodd" d="M121.411 115.9C162.763 109.225 193.244 86.2477 193.244 58.9287C193.244 26.3833 149.985 0 96.6218 0C43.2591 0 0 26.3833 0 58.9287C0 91.4741 43.2591 117.857 96.6218 117.857C98.4311 117.857 100.229 117.827 102.014 117.767C111.794 125.014 126.752 130.952 146.193 131C140.26 129.416 129.379 123.692 121.411 115.9Z" fill="url(#paint0_radial_1273_5315)"/>
<path d="M121.411 115.9L121.073 113.804L116.916 114.475L119.926 117.418L121.411 115.9ZM102.014 117.767L103.278 116.061L102.683 115.62L101.942 115.645L102.014 117.767ZM146.193 131L146.188 133.124L146.741 128.948L146.193 131ZM191.12 58.9287C191.12 71.7365 183.98 83.7513 171.527 93.4825C159.077 103.211 141.474 110.51 121.073 113.804L121.75 117.996C142.7 114.615 161.013 107.088 174.142 96.829C187.267 86.5732 195.367 73.4399 195.367 58.9287H191.12ZM96.6218 2.12356C122.978 2.12356 146.738 8.6434 163.838 19.0728C180.976 29.5248 191.12 43.6778 191.12 58.9287H195.367C195.367 41.6342 183.882 26.3228 166.049 15.4468C148.18 4.54824 123.628 -2.12356 96.6218 -2.12356V2.12356ZM2.12356 58.9287C2.12356 43.6778 12.2681 29.5248 29.4056 19.0728C46.506 8.6434 70.2653 2.12356 96.6218 2.12356V-2.12356C69.6156 -2.12356 45.0639 4.54824 27.1942 15.4468C9.36144 26.3228 -2.12356 41.6342 -2.12356 58.9287H2.12356ZM96.6218 115.734C70.2653 115.734 46.506 109.214 29.4056 98.7846C12.2681 88.3326 2.12356 74.1796 2.12356 58.9287H-2.12356C-2.12356 76.2232 9.36144 91.5345 27.1942 102.411C45.0639 113.309 69.6156 119.981 96.6218 119.981V115.734ZM101.942 115.645C100.181 115.704 98.4074 115.734 96.6218 115.734V119.981C98.4548 119.981 100.276 119.95 102.085 119.89L101.942 115.645ZM146.199 128.876C127.191 128.83 112.678 123.027 103.278 116.061L100.749 119.473C110.91 127.002 126.313 133.075 146.188 133.124L146.199 128.876ZM119.926 117.418C128.132 125.443 139.329 131.365 145.646 133.052L146.741 128.948C141.191 127.467 130.626 121.941 122.896 114.382L119.926 117.418Z" fill="#61647B" mask="url(#path-1-inside-1_1273_5315)"/>
<path d="M28.8471 49.305H34.0371C34.1721 49.305 34.2321 49.38 34.2321 49.5V50.82C34.2321 50.925 34.1721 51 34.0371 51H21.7371C21.6171 51 21.5571 50.925 21.5571 50.82V49.5C21.5571 49.38 21.6171 49.305 21.7371 49.305H26.9421V46.695H23.5371C23.4171 46.695 23.3571 46.62 23.3571 46.5V40.335C23.3571 40.215 23.4171 40.14 23.5521 40.14H32.1771C32.3121 40.14 32.3721 40.215 32.3721 40.335V41.64C32.3721 41.76 32.3121 41.82 32.1771 41.82H25.2621V45.015H32.3271C32.4621 45.015 32.5071 45.075 32.5071 45.195V46.5C32.5071 46.62 32.4621 46.695 32.3271 46.695H28.8471V49.305ZM44.9693 45.45H47.1293C47.2643 45.45 47.3243 45.525 47.3243 45.66V46.965C47.3243 47.085 47.2643 47.16 47.1293 47.16H41.9243V52.08C41.9243 52.2 41.8493 52.26 41.7143 52.26H40.1843C40.0643 52.26 40.0043 52.2 40.0043 52.08V47.16H34.8293C34.7093 47.16 34.6493 47.085 34.6493 46.965V45.66C34.6493 45.525 34.7093 45.45 34.8293 45.45H43.1693C43.4543 44.13 43.5893 42.75 43.5593 41.865L43.5443 41.4H36.6293C36.5093 41.4 36.4493 41.325 36.4493 41.205V39.9C36.4493 39.78 36.5093 39.705 36.6293 39.705H45.2393C45.3743 39.705 45.4343 39.78 45.4343 39.9V41.49C45.4343 42.585 45.2693 44.055 44.9693 45.45ZM58.0464 39.075H59.5614C59.6964 39.075 59.7414 39.15 59.7414 39.27V52.08C59.7414 52.2 59.6964 52.26 59.5614 52.26H58.0464C57.9264 52.26 57.8664 52.2 57.8664 52.08V39.27C57.8664 39.15 57.9264 39.075 58.0464 39.075ZM55.1214 39.36H56.6064C56.7414 39.36 56.8014 39.435 56.8014 39.555V51.675C56.8014 51.795 56.7414 51.87 56.6064 51.87H55.1214C55.0014 51.87 54.9414 51.795 54.9414 51.675V45.42H53.8014C53.6364 47.865 52.5264 49.215 50.7564 49.215C48.8514 49.215 47.7114 47.625 47.7114 44.775C47.7114 41.925 48.8514 40.35 50.7564 40.35C52.4214 40.35 53.5014 41.535 53.7564 43.71H54.9414V39.555C54.9414 39.435 55.0014 39.36 55.1214 39.36ZM50.7564 47.52C51.5964 47.52 51.9564 46.62 51.9564 44.775C51.9564 42.93 51.5964 42.045 50.7564 42.045C49.9314 42.045 49.5864 42.93 49.5864 44.775C49.5864 46.62 49.9314 47.52 50.7564 47.52ZM29.3756 65.85C28.6856 66.735 27.6056 67.56 26.3456 68.19C26.2256 68.235 26.0906 68.22 26.0306 68.13L25.2806 66.975C25.2056 66.855 25.2056 66.735 25.3256 66.675C27.0806 65.775 28.3856 64.665 28.3856 63.405V63.165H25.8056C25.6556 63.165 25.5956 63.09 25.5956 62.97V61.68C25.5956 61.56 25.6556 61.485 25.8056 61.485H28.3856V60.24C28.3856 60.12 28.4456 60.045 28.5806 60.045H30.1256C30.2456 60.045 30.3056 60.12 30.3056 60.24V61.485H32.8256C32.9756 61.485 33.0206 61.56 33.0206 61.68V62.97C33.0206 63.09 32.9756 63.165 32.8256 63.165H30.3056V63.405C30.3056 64.605 31.3406 65.46 33.1706 66.36C33.2906 66.42 33.2906 66.525 33.2306 66.645L32.5556 67.815C32.4956 67.905 32.3456 67.905 32.2406 67.86C31.1456 67.365 30.0806 66.66 29.3756 65.85ZM36.3056 69.75H34.7906C34.6556 69.75 34.5956 69.675 34.5956 69.57V60.27C34.5956 60.15 34.6556 60.075 34.7906 60.075H36.3056C36.4556 60.075 36.5156 60.15 36.5156 60.27V69.57C36.5156 69.675 36.4556 69.75 36.3056 69.75ZM29.7056 71.43H36.6056C36.7406 71.43 36.8006 71.49 36.8006 71.625V72.93C36.8006 73.05 36.7406 73.125 36.6056 73.125H27.9806C27.8456 73.125 27.7856 73.05 27.7856 72.93V68.88C27.7856 68.76 27.8456 68.685 27.9806 68.685H29.5106C29.6456 68.685 29.7056 68.76 29.7056 68.88V71.43ZM48.4078 66.45H50.5678C50.7028 66.45 50.7628 66.525 50.7628 66.66V67.965C50.7628 68.085 50.7028 68.16 50.5678 68.16H45.3628V73.08C45.3628 73.2 45.2878 73.26 45.1528 73.26H43.6228C43.5028 73.26 43.4428 73.2 43.4428 73.08V68.16H38.2678C38.1478 68.16 38.0878 68.085 38.0878 67.965V66.66C38.0878 66.525 38.1478 66.45 38.2678 66.45H46.6078C46.8928 65.13 47.0278 63.75 46.9978 62.865L46.9828 62.4H40.0678C39.9478 62.4 39.8878 62.325 39.8878 62.205V60.9C39.8878 60.78 39.9478 60.705 40.0678 60.705H48.6778C48.8128 60.705 48.8728 60.78 48.8728 60.9V62.49C48.8728 63.585 48.7078 65.055 48.4078 66.45ZM62.01 65.49H53.325C53.19 65.49 53.13 65.415 53.13 65.31V62.4C53.13 62.28 53.19 62.19 53.325 62.19H60V61.68H53.295C53.16 61.68 53.1 61.605 53.1 61.47V60.45C53.1 60.33 53.16 60.27 53.295 60.27H61.71C61.83 60.27 61.89 60.33 61.89 60.45V63.36C61.89 63.48 61.815 63.555 61.695 63.555H55.02V64.11H62.01C62.13 64.11 62.205 64.185 62.205 64.305V65.31C62.205 65.415 62.13 65.49 62.01 65.49ZM63.66 67.56H51.36C51.24 67.56 51.18 67.5 51.18 67.38V66.3C51.18 66.18 51.24 66.105 51.36 66.105H63.66C63.795 66.105 63.855 66.18 63.855 66.3V67.38C63.855 67.5 63.795 67.56 63.66 67.56ZM62.235 73.485H53.175C53.055 73.485 52.995 73.41 52.995 73.29V70.35C52.995 70.23 53.055 70.14 53.175 70.14H60.15V69.63H53.145C53.025 69.63 52.965 69.555 52.965 69.42V68.43C52.965 68.31 53.025 68.235 53.145 68.235H61.845C61.98 68.235 62.04 68.31 62.04 68.43V71.31C62.04 71.43 61.965 71.505 61.83 71.505H54.885V72.075H62.235C62.37 72.075 62.445 72.15 62.445 72.27V73.29C62.445 73.41 62.37 73.485 62.235 73.485ZM77.9481 60.075H79.3881C79.5081 60.075 79.5681 60.15 79.5681 60.27V73.08C79.5681 73.2 79.5081 73.26 79.3881 73.26H77.9481C77.8131 73.26 77.7531 73.2 77.7531 73.08V66.42H76.6881V72.675C76.6881 72.795 76.6281 72.87 76.5081 72.87H75.0831C74.9631 72.87 74.9031 72.795 74.9031 72.675V60.555C74.9031 60.435 74.9631 60.36 75.0831 60.36H76.5081C76.6281 60.36 76.6881 60.435 76.6881 60.555V64.71H77.7531V60.27C77.7531 60.15 77.8131 60.075 77.9481 60.075ZM67.8081 61.605H70.5231C70.6731 61.605 70.7331 61.68 70.7331 61.785V63.36C70.7331 65.52 70.1481 67.53 68.7531 69.63C68.6781 69.735 68.5431 69.735 68.4231 69.66L67.2981 68.925C67.1781 68.85 67.2231 68.745 67.3131 68.61C68.4231 67.035 68.9481 65.16 68.9481 63.51V63.255H67.8081C67.6731 63.255 67.6131 63.18 67.6131 63.075V61.785C67.6131 61.68 67.6731 61.605 67.8081 61.605ZM71.3481 61.605H73.9581C74.0931 61.605 74.1531 61.68 74.1531 61.785V63.36C74.1531 65.52 73.8231 67.725 72.4881 70.32C72.4131 70.425 72.2631 70.425 72.1581 70.365L70.8831 69.675C70.7631 69.615 70.8081 69.51 70.8981 69.375C71.9781 67.29 72.3381 65.31 72.3381 63.51V63.255H71.3481C71.2131 63.255 71.1531 63.18 71.1531 63.075V61.785C71.1531 61.68 71.2131 61.605 71.3481 61.605ZM86.8253 64.95C84.0653 64.95 82.5653 64.035 82.5653 62.58C82.5653 61.125 84.0653 60.24 86.8253 60.24C89.6003 60.24 91.0853 61.125 91.0853 62.58C91.0853 64.035 89.6003 64.95 86.8253 64.95ZM86.8253 61.755C85.1753 61.755 84.4703 62.1 84.4703 62.58C84.4703 63.045 85.1753 63.405 86.8253 63.405C88.5053 63.405 89.1953 63.045 89.1953 62.58C89.1953 62.1 88.5053 61.755 86.8253 61.755ZM80.6903 65.445H92.9903C93.1253 65.445 93.1853 65.535 93.1853 65.655V66.81C93.1853 66.93 93.1253 67.005 92.9903 67.005H87.8003V67.875H91.2203C91.3553 67.875 91.4153 67.95 91.4153 68.07V71.13C91.4153 71.25 91.3403 71.325 91.2053 71.325H84.1853V71.88H91.6103C91.7453 71.88 91.8053 71.955 91.8053 72.09V73.215C91.8053 73.32 91.7453 73.395 91.6103 73.395H82.4603C82.3403 73.395 82.2803 73.32 82.2803 73.215V70.05C82.2803 69.945 82.3403 69.855 82.4603 69.855H89.5253V69.36H82.4303C82.3103 69.36 82.2503 69.3 82.2503 69.165V68.07C82.2503 67.95 82.3103 67.875 82.4303 67.875H85.8953V67.005H80.6903C80.5703 67.005 80.5103 66.93 80.5103 66.81V65.655C80.5103 65.535 80.5703 65.445 80.6903 65.445ZM98.2184 66.255L97.7234 64.98C97.6784 64.89 97.7084 64.77 97.8284 64.74C100.423 64.08 102.118 62.79 102.118 61.635V60.615C102.118 60.495 102.178 60.42 102.298 60.42H103.858C103.993 60.42 104.053 60.495 104.053 60.615V61.635C104.053 62.79 105.748 64.08 108.343 64.74C108.448 64.77 108.478 64.89 108.433 64.98L107.953 66.255C107.893 66.375 107.818 66.42 107.698 66.39C105.628 65.85 103.903 64.875 103.078 64.005C102.268 64.875 100.543 65.85 98.4584 66.39C98.3384 66.42 98.2784 66.375 98.2184 66.255ZM96.9284 67.53H109.228C109.363 67.53 109.423 67.605 109.423 67.74V69.045C109.423 69.165 109.363 69.24 109.228 69.24H104.038V73.08C104.038 73.2 103.963 73.26 103.828 73.26H102.313C102.193 73.26 102.133 73.2 102.133 73.08V69.24H96.9284C96.8084 69.24 96.7484 69.165 96.7484 69.045V67.74C96.7484 67.605 96.8084 67.53 96.9284 67.53ZM124.296 67.38H122.781C122.646 67.38 122.586 67.305 122.586 67.185V60.27C122.586 60.15 122.646 60.075 122.781 60.075H124.296C124.446 60.075 124.506 60.15 124.506 60.27V67.185C124.506 67.305 124.446 67.38 124.296 67.38ZM117.201 67.005C115.056 67.005 113.511 65.685 113.511 63.78C113.511 61.89 115.056 60.555 117.201 60.555C119.346 60.555 120.891 61.89 120.891 63.78C120.891 65.685 119.346 67.005 117.201 67.005ZM117.201 62.16C116.196 62.16 115.386 62.82 115.386 63.78C115.386 64.725 116.196 65.385 117.201 65.385C118.206 65.385 119.016 64.725 119.016 63.78C119.016 62.82 118.206 62.16 117.201 62.16ZM125.421 71.895C125.541 71.97 125.526 72.105 125.436 72.18L124.596 73.26C124.506 73.35 124.386 73.335 124.266 73.26C123.321 72.57 122.631 71.79 122.241 70.98C121.806 71.79 121.056 72.615 120.006 73.335C119.901 73.425 119.796 73.425 119.676 73.35C118.641 72.63 117.906 71.79 117.501 71.04C117.126 71.79 116.511 72.525 115.461 73.335C115.326 73.44 115.236 73.425 115.146 73.335L114.231 72.3C114.156 72.21 114.156 72.075 114.246 72C115.746 70.935 116.556 69.825 116.556 68.58V68.22C116.556 68.115 116.616 68.04 116.736 68.04H118.221C118.356 68.04 118.416 68.115 118.416 68.22V68.58C118.416 69.66 118.971 70.485 119.841 71.28C120.711 70.53 121.296 69.66 121.296 68.58V68.19C121.296 68.07 121.356 67.995 121.476 67.995H122.946C123.081 67.995 123.141 68.07 123.141 68.19V68.58C123.141 69.75 124.026 70.89 125.421 71.895ZM136.954 64.71H138.859C139.009 64.71 139.069 64.785 139.069 64.92V66.225C139.069 66.345 139.009 66.42 138.859 66.42H136.954V73.11C136.954 73.23 136.894 73.29 136.744 73.29H135.214C135.094 73.29 135.034 73.23 135.034 73.11V60.3C135.034 60.18 135.094 60.105 135.214 60.105H136.744C136.894 60.105 136.954 60.18 136.954 60.3V64.71ZM134.254 68.835C134.374 68.925 134.359 69.045 134.269 69.135L133.369 70.185C133.279 70.275 133.159 70.275 133.039 70.185C131.779 69.18 130.789 68.04 130.279 67.02C129.724 68.13 128.659 69.39 127.354 70.395C127.249 70.485 127.129 70.485 127.039 70.395L126.139 69.345C126.049 69.27 126.049 69.12 126.154 69.045C127.954 67.605 129.274 65.805 129.274 63.375V63.15H126.709C126.559 63.15 126.514 63.075 126.514 62.955V61.635C126.514 61.515 126.559 61.44 126.709 61.44H133.579C133.729 61.44 133.774 61.515 133.774 61.635V62.955C133.774 63.075 133.729 63.15 133.579 63.15H131.179V63.375C131.179 65.73 132.634 67.53 134.254 68.835ZM151.846 64.635H150.046V66.615H151.846C151.981 66.615 152.041 66.69 152.041 66.81V68.1C152.041 68.22 151.981 68.28 151.846 68.28H150.046V73.08C150.046 73.2 149.986 73.26 149.836 73.26H148.306C148.186 73.26 148.126 73.2 148.126 73.08V60.27C148.126 60.15 148.186 60.075 148.306 60.075H149.836C149.986 60.075 150.046 60.15 150.046 60.27V62.97H151.846C151.981 62.97 152.041 63.045 152.041 63.18V64.44C152.041 64.575 151.981 64.635 151.846 64.635ZM146.971 68.07L147.181 69.36C147.196 69.48 147.151 69.525 147.016 69.555C145.696 69.84 144.106 70.02 142.306 70.02H140.086C139.951 70.02 139.891 69.945 139.891 69.825V61.455C139.891 61.35 139.951 61.275 140.071 61.275H141.616C141.751 61.275 141.796 61.35 141.796 61.455V68.31H142.591C143.746 68.31 145.411 68.19 146.731 67.89C146.851 67.86 146.956 67.935 146.971 68.07ZM157.149 64.995C156.459 64.995 155.934 64.5 155.934 63.81C155.934 63.12 156.459 62.625 157.149 62.625C157.839 62.625 158.364 63.12 158.364 63.81C158.364 64.5 157.839 64.995 157.149 64.995ZM157.149 70.725C156.459 70.725 155.934 70.23 155.934 69.54C155.934 68.85 156.459 68.355 157.149 68.355C157.839 68.355 158.364 68.85 158.364 69.54C158.364 70.23 157.839 70.725 157.149 70.725ZM163.547 72.21C161.582 72.21 160.157 71.1 159.632 69.3C159.602 69.165 159.662 69.09 159.782 69.06L161.297 68.655C161.417 68.625 161.492 68.67 161.537 68.79C161.852 69.645 162.482 70.23 163.547 70.23C164.702 70.23 165.437 69.6 165.437 68.64C165.437 67.68 164.642 67.155 163.427 67.155H162.962C162.842 67.155 162.767 67.08 162.767 66.96V65.625C162.767 65.505 162.842 65.43 162.962 65.43H163.427C164.447 65.43 165.152 64.905 165.152 64.14C165.152 63.345 164.462 62.76 163.502 62.76C162.557 62.76 161.942 63.345 161.627 64.2C161.582 64.32 161.507 64.365 161.387 64.335L159.872 63.93C159.752 63.9 159.692 63.825 159.722 63.69C160.247 61.89 161.657 60.78 163.547 60.78C165.677 60.78 167.252 62.04 167.252 63.765C167.252 64.845 166.607 65.745 165.527 66.24C166.772 66.66 167.537 67.59 167.537 68.925C167.537 70.89 165.917 72.21 163.547 72.21Z" fill="#4A4D66"/>
<path d="M76.6545 42.135H74.8545V43.41H76.6545C76.7895 43.41 76.8495 43.485 76.8495 43.62V44.88C76.8495 45 76.7895 45.06 76.6545 45.06H74.8545V46.26C74.8545 46.38 74.7945 46.455 74.6445 46.455H73.1145C72.9945 46.455 72.9345 46.38 72.9345 46.26V39.27C72.9345 39.15 72.9945 39.075 73.1145 39.075H74.6445C74.7945 39.075 74.8545 39.15 74.8545 39.27V40.455H76.6545C76.7895 40.455 76.8495 40.53 76.8495 40.665V41.925C76.8495 42.06 76.7895 42.135 76.6545 42.135ZM71.7795 45.15C70.6095 45.45 68.8845 45.615 67.3845 45.615H64.8945C64.7595 45.615 64.6995 45.54 64.6995 45.42V39.885C64.6995 39.765 64.7595 39.69 64.8795 39.69H66.4095C66.5445 39.69 66.6045 39.765 66.6045 39.885V43.95H67.6845C68.8095 43.95 70.3245 43.845 71.5245 43.575C71.6445 43.545 71.7345 43.605 71.7645 43.74L71.9445 44.91C71.9745 45.03 71.9295 45.105 71.7795 45.15ZM70.4745 46.815C73.4445 46.815 74.9895 47.985 74.9895 49.605C74.9895 51.195 73.4445 52.395 70.4745 52.395C67.4895 52.395 65.9445 51.21 65.9445 49.605C65.9445 47.985 67.4895 46.815 70.4745 46.815ZM70.4745 50.79C72.3495 50.79 73.0845 50.235 73.0845 49.605C73.0845 48.975 72.3495 48.42 70.4745 48.42C68.5995 48.42 67.8495 48.975 67.8495 49.605C67.8495 50.235 68.5995 50.79 70.4745 50.79ZM89.7467 42.135H87.9467V43.41H89.7467C89.8817 43.41 89.9417 43.485 89.9417 43.62V44.88C89.9417 45 89.8817 45.06 89.7467 45.06H87.9467V46.26C87.9467 46.38 87.8867 46.455 87.7367 46.455H86.2067C86.0867 46.455 86.0267 46.38 86.0267 46.26V39.27C86.0267 39.15 86.0867 39.075 86.2067 39.075H87.7367C87.8867 39.075 87.9467 39.15 87.9467 39.27V40.455H89.7467C89.8817 40.455 89.9417 40.53 89.9417 40.665V41.925C89.9417 42.06 89.8817 42.135 89.7467 42.135ZM84.8717 45.15C83.7017 45.45 81.9767 45.615 80.4767 45.615H77.9867C77.8517 45.615 77.7917 45.54 77.7917 45.42V39.885C77.7917 39.765 77.8517 39.69 77.9717 39.69H79.5017C79.6367 39.69 79.6967 39.765 79.6967 39.885V43.95H80.7767C81.9017 43.95 83.4167 43.845 84.6167 43.575C84.7367 43.545 84.8267 43.605 84.8567 43.74L85.0367 44.91C85.0667 45.03 85.0217 45.105 84.8717 45.15ZM83.5667 46.815C86.5367 46.815 88.0817 47.985 88.0817 49.605C88.0817 51.195 86.5367 52.395 83.5667 52.395C80.5817 52.395 79.0367 51.21 79.0367 49.605C79.0367 47.985 80.5817 46.815 83.5667 46.815ZM83.5667 50.79C85.4417 50.79 86.1767 50.235 86.1767 49.605C86.1767 48.975 85.4417 48.42 83.5667 48.42C81.6917 48.42 80.9417 48.975 80.9417 49.605C80.9417 50.235 81.6917 50.79 83.5667 50.79ZM97.9039 42.045H99.7639V39.27C99.7639 39.15 99.8239 39.075 99.9589 39.075H101.474C101.624 39.075 101.684 39.15 101.684 39.27V48.435C101.684 48.555 101.624 48.63 101.474 48.63H99.9589C99.8239 48.63 99.7639 48.555 99.7639 48.435V43.665H97.9039C97.7689 43.665 97.7089 43.605 97.7089 43.47V42.24C97.7089 42.12 97.7689 42.045 97.9039 42.045ZM98.3989 44.535L98.5639 45.75C98.5789 45.81 98.5489 45.885 98.4439 45.915C97.0039 46.245 94.4089 46.41 92.6839 46.41H90.3439C90.2239 46.41 90.1639 46.335 90.1639 46.215V44.97C90.1639 44.85 90.2239 44.775 90.3439 44.775H91.5589V41.46H90.6439C90.5089 41.46 90.4489 41.4 90.4489 41.28V40.02C90.4489 39.915 90.5089 39.84 90.6439 39.84H97.7989C97.9339 39.84 97.9939 39.915 97.9939 40.02V41.28C97.9939 41.4 97.9339 41.46 97.7989 41.46H96.8089V44.55C97.3039 44.505 97.7689 44.43 98.1739 44.355C98.2939 44.34 98.3689 44.37 98.3989 44.535ZM94.9639 44.7V41.46H93.4039V44.76C93.9289 44.745 94.4539 44.73 94.9639 44.7ZM94.8739 50.43H101.774C101.909 50.43 101.969 50.49 101.969 50.625V51.93C101.969 52.05 101.909 52.125 101.774 52.125H93.1489C93.0139 52.125 92.9539 52.05 92.9539 51.93V47.73C92.9539 47.61 93.0139 47.55 93.1489 47.55H94.6789C94.8139 47.55 94.8739 47.61 94.8739 47.73V50.43ZM113.051 39.075H114.566C114.716 39.075 114.776 39.15 114.776 39.27V52.08C114.776 52.2 114.716 52.26 114.566 52.26H113.051C112.916 52.26 112.856 52.2 112.856 52.08V39.27C112.856 39.15 112.916 39.075 113.051 39.075ZM111.641 48.12C111.761 48.21 111.746 48.33 111.656 48.42L110.756 49.47C110.666 49.56 110.561 49.56 110.441 49.47C109.181 48.45 108.176 47.325 107.666 46.305C107.111 47.415 106.061 48.675 104.756 49.695C104.636 49.77 104.516 49.77 104.441 49.695L103.526 48.645C103.436 48.555 103.436 48.405 103.541 48.33C105.236 46.965 106.511 45.285 106.646 43.05H103.991C103.841 43.05 103.781 42.975 103.781 42.87V41.535C103.781 41.43 103.841 41.355 103.991 41.355H106.661V39.66C106.661 39.555 106.721 39.48 106.871 39.48H108.386C108.506 39.48 108.566 39.555 108.566 39.66V41.355H111.086C111.236 41.355 111.281 41.43 111.281 41.535V42.87C111.281 42.975 111.236 43.05 111.086 43.05H108.581C108.731 45.225 110.111 46.905 111.641 48.12Z" fill="#1DCF90"/>
<path d="M127.178 44.49H118.493C118.358 44.49 118.298 44.415 118.298 44.31V41.4C118.298 41.28 118.358 41.19 118.493 41.19H125.168V40.68H118.463C118.328 40.68 118.268 40.605 118.268 40.47V39.45C118.268 39.33 118.328 39.27 118.463 39.27H126.878C126.998 39.27 127.058 39.33 127.058 39.45V42.36C127.058 42.48 126.983 42.555 126.863 42.555H120.188V43.11H127.178C127.298 43.11 127.373 43.185 127.373 43.305V44.31C127.373 44.415 127.298 44.49 127.178 44.49ZM128.828 46.56H116.528C116.408 46.56 116.348 46.5 116.348 46.38V45.3C116.348 45.18 116.408 45.105 116.528 45.105H128.828C128.963 45.105 129.023 45.18 129.023 45.3V46.38C129.023 46.5 128.963 46.56 128.828 46.56ZM127.403 52.485H118.343C118.223 52.485 118.163 52.41 118.163 52.29V49.35C118.163 49.23 118.223 49.14 118.343 49.14H125.318V48.63H118.313C118.193 48.63 118.133 48.555 118.133 48.42V47.43C118.133 47.31 118.193 47.235 118.313 47.235H127.013C127.148 47.235 127.208 47.31 127.208 47.43V50.31C127.208 50.43 127.133 50.505 126.998 50.505H120.053V51.075H127.403C127.538 51.075 127.613 51.15 127.613 51.27V52.29C127.613 52.41 127.538 52.485 127.403 52.485ZM143.461 41.445H145.366C145.516 41.445 145.576 41.505 145.576 41.64V42.93C145.576 43.065 145.516 43.14 145.366 43.14H143.461V45.195C143.461 45.315 143.401 45.39 143.251 45.39H141.721C141.601 45.39 141.541 45.315 141.541 45.195V39.27C141.541 39.15 141.601 39.075 141.721 39.075H143.251C143.401 39.075 143.461 39.15 143.461 39.27V41.445ZM140.386 44.73C139.261 44.97 137.656 45.09 135.991 45.09H133.501C133.366 45.09 133.306 45.03 133.306 44.91V39.81C133.306 39.69 133.366 39.63 133.486 39.63H134.986C135.121 39.63 135.181 39.69 135.181 39.81V43.485H136.291C137.431 43.485 138.871 43.365 140.131 43.14C140.251 43.11 140.341 43.17 140.371 43.305L140.551 44.505C140.566 44.625 140.536 44.7 140.386 44.73ZM136.696 50.745H143.761C143.881 50.745 143.956 50.82 143.956 50.94V52.125C143.956 52.245 143.881 52.305 143.761 52.305H134.986C134.851 52.305 134.806 52.245 134.806 52.125V48.6C134.806 48.48 134.851 48.39 134.986 48.39H141.556V47.58H134.956C134.836 47.58 134.776 47.52 134.776 47.385V46.23C134.776 46.125 134.836 46.05 134.956 46.05H143.266C143.401 46.05 143.461 46.125 143.461 46.23V49.74C143.461 49.845 143.386 49.92 143.251 49.92H136.696V50.745ZM156.989 52.26H155.474C155.339 52.26 155.279 52.2 155.279 52.08V39.27C155.279 39.15 155.339 39.075 155.474 39.075H156.989C157.139 39.075 157.199 39.15 157.199 39.27V52.08C157.199 52.2 157.139 52.26 156.989 52.26ZM149.249 49.23H146.654C146.519 49.23 146.474 49.155 146.474 49.035V44.16C146.474 44.04 146.519 43.965 146.654 43.965H151.259V41.85H146.624C146.504 41.85 146.444 41.79 146.444 41.655V40.455C146.444 40.35 146.504 40.275 146.624 40.275H152.969C153.089 40.275 153.149 40.35 153.149 40.455V45.27C153.149 45.39 153.074 45.465 152.954 45.465H148.364V47.64H149.534C150.689 47.64 152.354 47.52 153.674 47.22C153.794 47.205 153.884 47.25 153.914 47.4L154.109 48.585C154.124 48.69 154.094 48.735 153.959 48.765C152.624 49.05 151.049 49.23 149.249 49.23ZM166.076 45.345V46.155C166.076 46.275 166.031 46.35 165.896 46.35H159.686C159.551 46.35 159.491 46.275 159.491 46.155V40.185C159.491 40.05 159.551 39.99 159.686 39.99H165.896C166.031 39.99 166.076 40.05 166.076 40.185V40.86H168.371V39.27C168.371 39.15 168.431 39.075 168.566 39.075H170.081C170.231 39.075 170.291 39.15 170.291 39.27V48.51C170.291 48.63 170.231 48.69 170.081 48.69H168.566C168.431 48.69 168.371 48.63 168.371 48.51V45.345H166.076ZM161.366 44.73H164.231V41.61H161.366V44.73ZM168.371 43.71V42.495H166.076V43.71H168.371ZM163.616 50.43H170.381C170.516 50.43 170.576 50.49 170.576 50.625V51.93C170.576 52.05 170.516 52.125 170.381 52.125H161.906C161.756 52.125 161.711 52.05 161.711 51.93V47.73C161.711 47.61 161.756 47.55 161.906 47.55H163.361C163.496 47.55 163.616 47.61 163.616 47.73V50.43Z" fill="#4A4D66"/>
<defs>
<radialGradient id="paint0_radial_1273_5315" cx="0" cy="0" r="1" gradientUnits="userSpaceOnUse" gradientTransform="translate(96.6218 28.668) rotate(90) scale(112.018 165.242)">
<stop offset="0.571032" stop-color="white"/>
<stop offset="0.711981" stop-color="#D0D6FF"/>
<stop offset="0.767739" stop-color="white"/>
<stop offset="0.823497" stop-color="#D2D7FF"/>
<stop offset="0.907134" stop-color="#8D9AFF"/>
</radialGradient>
</defs>
</svg>
