<svg width="39" height="29" viewBox="0 0 39 29" fill="none" xmlns="http://www.w3.org/2000/svg">
<mask id="mask0_1322_5533" style="mask-type:alpha" maskUnits="userSpaceOnUse" x="0" y="0" width="39" height="29">
<path d="M5.79573 24.8309C9.13429 27.1676 13.5626 28.3027 19.3328 28.3027C25.103 28.3027 29.5313 27.1662 32.8698 24.8309C36.3884 22.3681 38.6627 18.1481 38.6627 14.0798C38.6627 11.5858 37.9797 9.0606 36.7355 6.9492L35.7549 2.33671C35.4474 0.89274 34.1055 -0.107696 32.636 0.0127535L26.3061 0.524307C24.3066 0.171463 22.0238 0 19.3314 0C16.639 0 14.3561 0.171463 12.3567 0.524307L6.02671 0.0127535C4.55581 -0.107696 3.21387 0.89274 2.90778 2.33671L1.92718 6.9492C0.684431 9.0606 0 11.5858 0 14.0798C0 18.1481 2.27295 22.3681 5.79289 24.8309H5.79573Z" fill="#D9D9D9"/>
</mask>
<g mask="url(#mask0_1322_5533)">
<path d="M5.79573 24.8309C9.13429 27.1676 13.5626 28.3027 19.3328 28.3027C25.103 28.3027 29.5313 27.1662 32.8698 24.8309C36.3884 22.3681 38.6627 18.1481 38.6627 14.0798C38.6627 11.5858 37.9797 9.0606 36.7355 6.9492L35.7549 2.33671C35.4474 0.89274 34.1055 -0.107696 32.636 0.0127535L26.3061 0.524307C24.3066 0.171463 22.0238 0 19.3314 0C16.639 0 14.3561 0.171463 12.3567 0.524307L6.02671 0.0127535C4.55581 -0.107696 3.21387 0.89274 2.90778 2.33671L1.92718 6.9492C0.684431 9.0606 0 11.5858 0 14.0798C0 18.1481 2.27295 22.3681 5.79289 24.8309H5.79573Z" fill="url(#paint0_radial_1322_5533)"/>
<path d="M18.9081 18.1306C19.6054 18.1306 20.1707 17.5654 20.1707 16.8681C20.1707 16.1707 19.6054 15.6055 18.9081 15.6055C18.2108 15.6055 17.6455 16.1707 17.6455 16.8681C17.6455 17.5654 18.2108 18.1306 18.9081 18.1306Z" fill="#786565"/>
<path d="M16.0527 19.0137C16.0527 19.0137 16.1278 19.9688 17.4287 19.9688C18.4064 19.9688 18.8486 19.2673 18.9038 19.1667C18.9067 19.1625 18.9123 19.1625 18.9152 19.1667C18.9704 19.2673 19.4111 19.9688 20.3903 19.9688C21.6912 19.9688 21.7663 19.0137 21.7663 19.0137" stroke="#786565" stroke-width="1.41705" stroke-miterlimit="10" stroke-linecap="round"/>
<path d="M11.0421 12.3833C10.8083 13.3526 10.6397 14.3899 10.831 15.1083C11.0223 15.8268 11.5735 16.2264 12.0993 16.3525C12.625 16.4786 13.2981 16.3737 13.7955 15.8211C14.2928 15.2684 14.6145 14.268 14.8483 13.2987C15.0028 12.6582 15.1275 11.988 15.1402 11.4013C15.1487 11.0017 14.8186 10.6758 14.419 10.6758H12.5414C11.942 10.6758 11.4106 11.0669 11.2391 11.6422C11.1668 11.8859 11.1002 12.1353 11.0407 12.3833H11.0421Z" fill="#786565"/>
<path d="M23.8205 12.3828C23.5867 13.352 23.418 14.3893 23.6093 15.1078C23.8006 15.8262 24.3519 16.2258 24.8776 16.3519C25.4033 16.4781 26.0764 16.3732 26.5738 15.8205C27.0712 15.2679 27.3928 14.2675 27.6267 13.2982C27.7103 12.9482 27.7868 12.5897 27.8406 12.2397C27.9667 11.4164 27.3291 10.6738 26.4959 10.6738H24.8578C24.5531 10.6738 24.281 10.8651 24.1776 11.1528C24.0373 11.5425 23.9211 11.9648 23.8205 12.3814V12.3828Z" fill="#786565"/>
<g filter="url(#filter0_f_1322_5533)">
<path d="M14.1428 4.76848C14.6974 7.01595 14.6413 7.8374 15.5834 7.8374H15.5875C16.5296 7.8374 16.4735 6.33819 17.0281 4.09072C17.0774 3.89281 17.1321 3.70439 17.1924 3.52275C17.2294 3.4116 17.2663 3.30316 17.306 3.19878C17.4019 2.94801 17.7689 2.96834 17.8374 3.2286C17.8483 3.26927 17.8579 3.30994 17.8688 3.3506C17.9469 3.66644 18.0126 3.96872 18.0715 4.25203C18.0907 4.34691 18.1099 4.44045 18.1277 4.53127C18.1509 4.65191 18.1742 4.76984 18.1961 4.88506C18.2509 5.17108 18.3002 5.43269 18.3509 5.66991C18.3714 5.7648 18.3919 5.85562 18.4125 5.94102C18.5905 6.67436 18.8096 7.09728 19.3108 7.09728H19.3149C19.8448 7.09728 20.0585 6.62285 20.2433 5.80817C20.2639 5.71735 20.2844 5.62247 20.3036 5.52351C20.3132 5.47471 20.3241 5.4232 20.3337 5.37169C20.3542 5.26867 20.3748 5.16159 20.3953 5.05179C20.4159 4.94199 20.4378 4.82677 20.4611 4.70884C20.5405 4.29676 20.6322 3.8413 20.7541 3.34925C20.7637 3.30858 20.7746 3.26791 20.7856 3.22725C20.8541 2.96699 21.2211 2.94665 21.3169 3.19743C21.3566 3.30045 21.3936 3.40753 21.4292 3.51733C21.4895 3.70033 21.5456 3.8901 21.5949 4.08936C22.1495 6.33683 22.0933 7.83604 23.0355 7.83604H23.0396C23.9817 7.83604 23.9256 7.01459 24.4801 4.76713C25.0347 2.51966 29.1579 1.96254 29.1579 1.96254L28.5828 0.768322L26.0494 0.970295C24.1173 0.632769 21.9112 0.46875 19.3094 0.46875C16.7076 0.46875 14.5016 0.632769 12.5694 0.970295L10.0361 0.768322L9.46094 1.96254C9.46094 1.96254 13.5855 2.51966 14.1387 4.76713L14.1428 4.76848Z" fill="#C0C0C0"/>
</g>
<g filter="url(#filter1_f_1322_5533)">
<path d="M37.139 9.39623L35.9635 9.25488C35.9635 9.25488 35.3953 10.9829 34.5912 11.0961C32.5076 11.3881 31.1494 11.0606 31.0389 11.886V11.8901C30.9269 12.7155 32.2865 12.856 34.2499 13.6241C34.4917 13.7196 34.7197 13.8233 34.9311 13.9324C35.1784 14.0607 35.1052 14.4263 34.8275 14.4536H34.8192C32.7245 14.6569 31.3774 14.4195 31.2668 15.2435V15.2476C31.1549 16.073 32.5145 16.2135 34.4779 16.9816L34.4889 16.9857C34.7473 17.0867 34.7155 17.4591 34.4434 17.515C34.2126 17.5628 33.9667 17.5996 33.7097 17.6255C31.615 17.8275 30.2679 17.5901 30.1573 18.4155V18.4195C30.0454 19.2449 31.1439 19.4578 31.8485 20.1535C33.7097 21.9912 33.0643 22.2914 33.0643 22.2914H34.5926C36.6831 19.9598 37.9432 16.9243 37.9432 13.972C37.9432 12.4208 37.6641 10.8587 37.1404 9.39759L37.139 9.39623Z" fill="#C0C0C0"/>
</g>
<g filter="url(#filter2_f_1322_5533)">
<path d="M1.47913 9.39623L2.65463 9.25488C2.65463 9.25488 3.22282 10.9829 4.02697 11.0961C6.11056 11.3881 7.46877 11.0606 7.5793 11.886V11.8901C7.69122 12.7155 6.33163 12.856 4.36825 13.6241C4.12645 13.7196 3.89847 13.8233 3.68707 13.9324C3.43975 14.0607 3.51298 14.4263 3.7907 14.4536H3.79899C5.89364 14.6569 7.24079 14.4195 7.35132 15.2435V15.2476C7.46324 16.073 6.10365 16.2135 4.14027 16.9816L4.12922 16.9857C3.87084 17.0867 3.90262 17.4591 4.17481 17.515C4.40555 17.5628 4.6515 17.5996 4.90849 17.6255C7.00314 17.8275 8.35029 17.5901 8.46082 18.4155V18.4195C8.57274 19.2449 7.47429 19.4578 6.76963 20.1535C4.90849 21.9912 5.55386 22.2914 5.55386 22.2914H4.02559C1.93509 19.9598 0.674987 16.9243 0.674987 13.972C0.674987 12.4208 0.954089 10.8587 1.47775 9.39759L1.47913 9.39623Z" fill="#C0C0C0"/>
</g>
</g>
<path d="M36.7355 6.9492L35.7549 2.33671C35.4474 0.89274 34.1055 -0.107696 32.636 0.0127535L26.3061 0.524307C24.3066 0.171463 22.0238 0 19.3314 0C16.639 0 14.3561 0.171463 12.3567 0.524307L6.02671 0.0127535C4.55581 -0.107696 3.21387 0.89274 2.90778 2.33671L1.92718 6.9492C0.684431 9.0606 0 11.5858 0 14.0798C0 18.1481 2.27295 22.3681 5.79289 24.8309C9.13146 27.1676 13.5597 28.3027 19.33 28.3027C25.1002 28.3027 29.5284 27.1662 32.867 24.8309C36.3855 22.3681 38.6599 18.1481 38.6599 14.0798C38.6599 11.5858 37.9769 9.0606 36.7327 6.9492H36.7355ZM31.8127 23.3218C28.7944 25.4346 24.7119 26.4619 19.3314 26.4619C13.9508 26.4619 9.86832 25.4346 6.85 23.3218C3.80902 21.1934 1.84358 17.5657 1.84358 14.0798C1.84358 11.8635 2.46142 9.62175 3.58514 7.76684C3.58514 7.76684 4.25823 6.77349 6.39372 5.41312C6.39372 5.41312 4.98518 5.79714 3.90397 6.50992L4.71027 2.7179C4.82505 2.17659 5.32952 1.80248 5.87933 1.84641L8.4697 2.05614C13.3373 2.58611 15.0023 2.96446 15.0023 2.96446C14.6579 2.71081 13.9565 2.41748 13.4265 2.21626C15.1412 1.96403 17.0825 1.84074 19.3328 1.84074C21.583 1.84074 23.5244 1.96403 25.239 2.21626C24.7091 2.4189 24.0076 2.71223 23.6633 2.96446C23.6633 2.96446 25.3269 2.58611 30.1959 2.05614L32.7862 1.84641C33.336 1.80248 33.8405 2.17659 33.9553 2.7179L34.7616 6.50992C33.6804 5.79714 32.2718 5.41312 32.2718 5.41312C34.4073 6.77349 35.0804 7.76684 35.0804 7.76684C36.2041 9.62175 36.822 11.8635 36.822 14.0798C36.822 17.5657 34.8565 21.1934 31.8156 23.3218H31.8127Z" fill="#786565"/>
<defs>
<filter id="filter0_f_1322_5533" x="7.90218" y="-1.09" width="22.8143" height="10.4857" filterUnits="userSpaceOnUse" color-interpolation-filters="sRGB">
<feFlood flood-opacity="0" result="BackgroundImageFix"/>
<feBlend mode="normal" in="SourceGraphic" in2="BackgroundImageFix" result="shape"/>
<feGaussianBlur stdDeviation="0.779376" result="effect1_foregroundBlur_1322_5533"/>
</filter>
<filter id="filter1_f_1322_5533" x="28.5907" y="7.69613" width="10.9115" height="16.1536" filterUnits="userSpaceOnUse" color-interpolation-filters="sRGB">
<feFlood flood-opacity="0" result="BackgroundImageFix"/>
<feBlend mode="normal" in="SourceGraphic" in2="BackgroundImageFix" result="shape"/>
<feGaussianBlur stdDeviation="0.779376" result="effect1_foregroundBlur_1322_5533"/>
</filter>
<filter id="filter2_f_1322_5533" x="-0.883948" y="7.69613" width="10.9115" height="16.1536" filterUnits="userSpaceOnUse" color-interpolation-filters="sRGB">
<feFlood flood-opacity="0" result="BackgroundImageFix"/>
<feBlend mode="normal" in="SourceGraphic" in2="BackgroundImageFix" result="shape"/>
<feGaussianBlur stdDeviation="0.779376" result="effect1_foregroundBlur_1322_5533"/>
</filter>
<radialGradient id="paint0_radial_1322_5533" cx="0" cy="0" r="1" gradientUnits="userSpaceOnUse" gradientTransform="translate(19.3314 14.1513) rotate(90) scale(16.5717 22.6376)">
<stop offset="0.243516" stop-color="white"/>
<stop offset="0.721936" stop-color="#DFE1E4"/>
<stop offset="0.909996" stop-color="#B4B4B4"/>
</radialGradient>
</defs>
</svg>
