<svg width="390" height="214" viewBox="0 0 390 214" fill="none" xmlns="http://www.w3.org/2000/svg">
<mask id="mask0_1468_6331" style="mask-type:alpha" maskUnits="userSpaceOnUse" x="0" y="0" width="390" height="214">
<rect width="390" height="214" transform="matrix(-1 0 0 1 390 0)" fill="white"/>
</mask>
<g mask="url(#mask0_1468_6331)">
<path d="M249.041 100.74C249.712 100.52 250.384 100.352 251.055 100.225C251.055 100.225 255.165 99.0847 261.238 103.189C261.238 103.189 256.867 99.05 252.248 98.0833C253.707 95.982 255.837 94.3207 258.459 93.4698C261.093 92.6131 263.808 92.7172 266.239 93.5624C266.239 93.5624 268.722 94.0776 273.359 97.3134C273.359 97.3134 270.864 93.655 267.536 92.0805C268.826 90.8244 270.413 89.8287 272.242 89.2325C275.86 88.0574 279.622 88.671 282.592 90.5812C283.408 91.1427 285.023 92.4741 287.483 95.4321C287.483 95.4321 286.713 93.0704 285.035 90.6391C292.496 89.3946 299.251 95.1832 304.357 100.439C351.471 148.948 383.673 216.235 383.673 216.235L303.535 242.301C291.246 181.44 271.379 149.064 258.042 133.238C249.608 135.183 240.943 130.395 238.21 122.014C235.328 113.151 240.173 103.629 249.041 100.746V100.74Z" fill="white"/>
<path d="M246.43 94.2914C247.466 92.769 248.71 91.4087 250.123 90.251C250.325 90.0831 250.528 89.9268 250.736 89.7647C251.362 89.2958 252.016 88.8617 252.699 88.4681C253.833 87.8139 255.043 87.2756 256.311 86.8646C256.623 86.7662 256.936 86.6678 257.249 86.5868C257.561 86.5057 257.874 86.4247 258.192 86.3552C258.505 86.2857 258.823 86.2279 259.141 86.1758C260.728 85.9153 262.331 85.8574 263.923 86.0021C265.74 84.5144 267.824 83.3683 270.099 82.6331C270.4 82.5347 270.701 82.4479 271.002 82.3668C275.529 81.1396 280.345 81.6317 284.513 83.6982C286.713 83.3972 288.826 83.4956 290.84 83.8777C291.847 84.0687 292.825 84.3292 293.775 84.6476C294.724 84.9659 295.65 85.3422 296.542 85.759C297.138 86.0368 297.717 86.332 298.278 86.6446C298.84 86.9572 299.396 87.2814 299.928 87.6229C300.194 87.7908 300.461 87.9644 300.721 88.1381C304.611 90.7372 307.604 93.8167 309.352 95.617C318.643 105.186 327.349 115.472 335.279 125.706C337.259 128.265 339.198 130.823 341.079 133.359C343.592 136.745 346.011 140.108 348.327 143.414C349.485 145.069 350.625 146.707 351.736 148.328C353.959 151.57 356.078 154.748 358.092 157.822C359.099 159.361 360.078 160.872 361.027 162.36C361.502 163.101 361.971 163.836 362.434 164.565C364.28 167.477 366.011 170.273 367.626 172.924C381.588 195.841 389.611 212.547 389.947 213.248L393.368 220.397L297.601 247.997L296.733 243.684C291.355 217.051 284.004 193.543 274.881 173.804C273.381 170.557 271.842 167.425 270.261 164.415C269.474 162.91 268.675 161.434 267.865 159.987C267.054 158.539 266.238 157.121 265.411 155.738C264.583 154.354 263.749 153 262.904 151.674C262.059 150.348 261.208 149.058 260.345 147.796C258.626 145.272 256.867 142.875 255.084 140.612C253.457 140.67 251.836 140.56 250.239 140.288C249.706 140.195 249.179 140.085 248.652 139.958C246.551 139.449 244.508 138.65 242.586 137.567C240.954 136.653 239.449 135.553 238.1 134.308C237.561 133.81 237.04 133.289 236.554 132.739C234.343 130.285 232.653 127.379 231.611 124.172C227.599 111.837 234.239 98.5461 246.435 94.303L246.43 94.2914ZM238.21 122.013C240.936 130.401 249.608 135.188 258.042 133.237C271.164 148.809 290.608 180.397 302.938 239.378L383.626 216.119C382.219 213.201 350.417 147.854 304.374 100.445C299.268 95.1886 292.513 89.4 285.051 90.6446C286.73 93.0758 287.5 95.4376 287.5 95.4376C285.04 92.4796 283.425 91.1482 282.609 90.5867C279.639 88.6822 275.876 88.0629 272.258 89.2379C270.429 89.8342 268.843 90.824 267.552 92.0859C270.875 93.6605 273.376 97.3189 273.376 97.3189C268.739 94.083 266.256 93.5678 266.256 93.5678C263.824 92.7169 261.115 92.6185 258.476 93.4752C255.853 94.3261 253.729 95.9875 252.265 98.0888C256.878 99.0555 261.254 103.194 261.254 103.194C255.182 99.0902 251.072 100.231 251.072 100.231C250.401 100.364 249.723 100.532 249.058 100.746C240.195 103.628 235.344 113.151 238.227 122.013H238.21Z" fill="#786565"/>
<path d="M111.122 45.687C106.422 43.4468 103.568 38.3007 104.465 32.9057C104.957 29.9651 106.485 27.4586 108.61 25.6873L108.766 17.6237C108.783 16.6975 109.924 16.2692 110.549 16.958L115.938 22.9087C116.702 22.8856 117.472 22.9319 118.254 23.065C119.272 23.2329 120.239 23.5281 121.142 23.9275C121.912 19.6439 124.887 16.3039 128.696 14.8567L131.058 7.64989C131.348 6.77002 132.563 6.69477 132.957 7.53412L136.25 14.5442C140.308 15.7077 143.359 18.8972 144.465 22.7987C146.977 19.1751 151.399 17.0911 156.03 17.7626L161.362 12.2692C162.004 11.6035 163.133 12.0724 163.121 12.9986L163 21.3747C165.495 24.0086 166.78 27.7306 166.137 31.5859C166.085 31.8869 166.021 32.1821 165.952 32.4715C166.93 32.3847 167.937 32.4252 168.956 32.5931C171.463 33.0099 173.657 34.185 175.347 35.8405L182.843 34.758C183.758 34.6249 184.366 35.6842 183.792 36.4078L178.832 42.6479C179.011 43.8578 179.011 45.1139 178.803 46.3816C177.79 52.4423 172.395 56.6738 166.398 56.3728C159.37 81.9933 135.793 148.29 96.9631 230.367L10.8167 216C10.8167 216 89.2642 117.848 111.128 45.6812L111.122 45.687Z" fill="white"/>
<circle cx="110.048" cy="18.9007" r="4.72497" fill="#FFD1D1"/>
<circle cx="131.648" cy="8.77575" r="4.72497" fill="#FFD1D1"/>
<circle cx="161.348" cy="14.1742" r="4.72497" fill="#FFD1D1"/>
<circle cx="182.273" cy="36.4496" r="4.72497" fill="#FFD1D1"/>
<path d="M5.38086 211.669C5.57768 211.426 25.1201 186.9 47.0532 153.956C74.3524 112.944 93.6054 76.5741 102.989 48.3371C98.7167 44.0941 96.5865 37.9234 97.6111 31.7643C98.161 28.4532 99.5908 25.3621 101.715 22.8035L101.819 17.4895C101.866 15.1683 102.908 12.9918 104.691 11.5157C106.479 10.028 108.818 9.39703 111.104 9.77908C112.864 10.0743 114.491 10.9657 115.695 12.2913L117.837 14.6589C119.243 12.8007 120.986 11.2031 122.983 9.96431L124.447 5.4897C125.68 1.72131 129.42 -0.542047 133.339 0.112068C135.914 0.540427 138.12 2.21334 139.237 4.58668L141.373 9.13075C143.133 10.0164 144.742 11.1683 146.137 12.5345C148.325 11.4867 150.71 10.8673 153.176 10.7284L156.366 7.44047C158.189 5.56496 160.811 4.69666 163.387 5.12502C167.306 5.77914 170.114 9.13654 170.056 13.1075L169.969 19.0062C171.515 21.2695 172.539 23.8107 172.985 26.4735C174.501 26.9829 175.949 27.6775 177.286 28.5516L181.841 27.8917C182.663 27.7759 183.485 27.7817 184.302 27.9149C187.069 28.3779 189.413 30.294 190.426 32.922C191.433 35.5443 190.97 38.537 189.222 40.7367L185.893 44.9161C185.87 45.7901 185.789 46.6642 185.645 47.5267C184.388 55.0462 178.831 60.8695 171.804 62.7219C164.128 88.7418 141.865 151.693 103.238 233.342L100.992 238.088L95.8166 237.226L9.67026 222.859L-1.99964 220.914L5.38666 211.669H5.38086ZM121.727 175.583C122.716 173.29 123.689 171.021 124.644 168.775C125.599 166.529 126.543 164.301 127.469 162.095C131.174 153.279 134.641 144.828 137.854 136.787C139.463 132.764 141.008 128.851 142.49 125.042C145.46 117.424 148.181 110.241 150.647 103.538C151.88 100.186 153.055 96.9558 154.16 93.8589C156.377 87.6535 158.345 81.9575 160.059 76.8172C160.487 75.5321 160.898 74.2818 161.298 73.0662C163.474 66.3861 165.17 60.7827 166.38 56.3775C169.749 56.5454 172.933 55.2835 175.254 53.0664C177.06 51.3414 178.339 49.0376 178.785 46.3864C178.849 46.0217 178.883 45.657 178.912 45.2981C178.924 45.1592 178.924 45.0203 178.93 44.8871C178.941 44.6729 178.941 44.4588 178.941 44.2446C178.941 44.0709 178.936 43.903 178.924 43.7294C178.912 43.5557 178.895 43.3879 178.878 43.22C178.86 43.0348 178.843 42.8437 178.814 42.6585C178.426 40.0478 177.182 37.6629 175.329 35.8511C175.179 35.7006 175.017 35.5616 174.855 35.4227C174.756 35.3417 174.664 35.2548 174.565 35.1738C174.409 35.0464 174.253 34.9249 174.09 34.8033C173.969 34.7107 173.847 34.6297 173.72 34.5428C173.569 34.4386 173.419 34.3344 173.257 34.236C172.991 34.0682 172.713 33.9119 172.429 33.7672C172.313 33.7093 172.198 33.6572 172.082 33.6051C171.873 33.5067 171.659 33.4083 171.439 33.3214C171.312 33.2693 171.185 33.223 171.057 33.1767C170.826 33.0957 170.594 33.0146 170.357 32.9452C170.241 32.9104 170.131 32.8757 170.015 32.8468C169.662 32.7541 169.303 32.6731 168.933 32.6094C167.92 32.4416 166.913 32.4068 165.929 32.4879C165.998 32.1984 166.067 31.9032 166.114 31.6022C166.177 31.2375 166.212 30.8671 166.241 30.5082C166.241 30.4387 166.253 30.375 166.258 30.3056C166.276 29.964 166.282 29.6225 166.27 29.2868C166.27 29.1999 166.264 29.1189 166.258 29.0321C166.241 28.7021 166.218 28.3779 166.172 28.0538C166.16 27.9727 166.143 27.8975 166.131 27.8222C166.091 27.5733 166.044 27.3244 165.992 27.0755C165.969 26.9597 165.94 26.8382 165.911 26.7224C165.847 26.4619 165.766 26.2014 165.685 25.9467C165.633 25.7904 165.581 25.6399 165.523 25.4836C165.471 25.3389 165.413 25.2 165.355 25.0611C165.245 24.7948 165.124 24.5285 164.991 24.268C164.95 24.1928 164.91 24.1175 164.875 24.0365C164.36 23.0698 163.723 22.1783 162.971 21.3853C161.24 19.5619 158.936 18.2536 156.261 17.8079C156.175 17.7905 156.088 17.7848 156.001 17.7732C153.975 17.478 151.989 17.7153 150.189 18.3694C150.189 18.3694 150.178 18.3694 150.172 18.3694C149.923 18.462 149.674 18.5604 149.431 18.6704C149.414 18.6762 149.396 18.6878 149.379 18.6936C149.147 18.7978 148.922 18.9077 148.696 19.0235C148.667 19.0409 148.638 19.0583 148.609 19.0698C148.401 19.1856 148.192 19.3014 147.99 19.4229C147.943 19.4519 147.903 19.4808 147.856 19.5098C147.671 19.6255 147.486 19.7471 147.312 19.8744C147.254 19.915 147.197 19.9671 147.133 20.0076C146.977 20.1234 146.814 20.2449 146.664 20.3723C146.589 20.4359 146.519 20.4996 146.444 20.5633C146.311 20.6791 146.178 20.7891 146.05 20.9106C145.958 20.9974 145.871 21.0901 145.784 21.1769C145.68 21.2811 145.57 21.3853 145.471 21.4953C145.362 21.6168 145.252 21.75 145.147 21.8773C145.078 21.9584 145.003 22.0394 144.933 22.1262C144.759 22.3404 144.592 22.5662 144.435 22.7919C144.36 22.5372 144.279 22.2825 144.192 22.0278C144.163 21.941 144.123 21.8542 144.094 21.7673C144.03 21.6052 143.972 21.4432 143.903 21.2869C143.856 21.1827 143.804 21.0785 143.758 20.9743C143.694 20.8411 143.631 20.708 143.567 20.5749C143.509 20.4591 143.445 20.3491 143.388 20.2391C143.324 20.1234 143.26 20.0076 143.191 19.8918C143.121 19.7703 143.046 19.6545 142.971 19.5387C142.907 19.4403 142.838 19.3361 142.774 19.2435C142.687 19.1219 142.6 18.9946 142.513 18.8788C142.45 18.7978 142.386 18.7167 142.322 18.6357C142.218 18.5083 142.114 18.3752 142.01 18.2478C141.958 18.19 141.906 18.1263 141.854 18.0684C141.726 17.9295 141.605 17.7905 141.472 17.6516C141.443 17.6227 141.419 17.5995 141.391 17.5706C139.99 16.1697 138.241 15.1046 136.239 14.5315C135.799 14.4042 135.353 14.2942 134.89 14.219C132.725 13.8601 130.601 14.1148 128.684 14.8383C127.978 15.1046 127.301 15.4404 126.658 15.834C126.635 15.8514 126.612 15.8629 126.589 15.8803C126.218 16.1118 125.865 16.3607 125.524 16.627C125.472 16.6675 125.414 16.7081 125.362 16.7544C125.2 16.8875 125.043 17.0207 124.893 17.1596C124.806 17.2406 124.719 17.3217 124.632 17.4027C124.424 17.6053 124.221 17.8079 124.025 18.0279C123.909 18.1552 123.793 18.2826 123.683 18.4157C123.585 18.5373 123.486 18.6588 123.394 18.7804C123.255 18.9598 123.122 19.1451 122.994 19.3361C122.919 19.4519 122.838 19.5676 122.768 19.6834C122.624 19.915 122.491 20.1465 122.363 20.3838C122.311 20.4823 122.259 20.5807 122.207 20.6849C122.068 20.9627 121.935 21.2521 121.813 21.5416C121.802 21.5763 121.784 21.6052 121.773 21.64C121.651 21.9526 121.541 22.2709 121.449 22.6009C121.42 22.6877 121.397 22.7745 121.373 22.8672C121.281 23.2087 121.194 23.556 121.13 23.9149C120.227 23.5155 119.261 23.2203 118.242 23.0524C117.848 22.9887 117.46 22.9424 117.072 22.9193C116.69 22.8961 116.308 22.8903 115.932 22.8961C113.188 22.9714 110.624 23.9902 108.598 25.6804C108.366 25.8773 108.141 26.0856 107.921 26.294C107.88 26.3346 107.834 26.3751 107.793 26.4156C107.602 26.6066 107.417 26.815 107.238 27.0176C107.174 27.0871 107.116 27.1565 107.052 27.2318C106.89 27.4228 106.74 27.6196 106.595 27.8222C106.52 27.9206 106.45 28.0248 106.381 28.129C106.254 28.3143 106.126 28.5053 106.01 28.7021C105.929 28.8352 105.854 28.9684 105.779 29.1073C105.68 29.2868 105.582 29.4662 105.495 29.6514C105.414 29.8193 105.339 29.9988 105.264 30.1724C105.194 30.3403 105.119 30.5024 105.055 30.6702C104.974 30.8902 104.905 31.1218 104.835 31.3475C104.795 31.4806 104.748 31.6138 104.708 31.7469C104.61 32.1174 104.523 32.4994 104.459 32.8873C103.799 36.8467 105.165 40.6672 107.799 43.3068C108.754 44.2619 109.866 45.0666 111.116 45.6628C89.2523 117.83 10.8048 215.976 10.8048 215.982L96.9512 230.349C102.41 218.806 107.573 207.577 112.424 196.729C115.66 189.499 118.763 182.431 121.721 175.56L121.727 175.583ZM109.964 16.6386C109.391 16.546 108.777 16.9512 108.766 17.6285L108.667 22.7977C110.277 21.7847 112.088 21.0843 114.004 20.7775L110.549 16.9628C110.381 16.7775 110.178 16.6733 109.964 16.6386ZM132.204 6.96581C131.741 6.89055 131.231 7.12789 131.058 7.65465L129.576 12.1814C131.312 11.753 133.153 11.6488 135.017 11.9209L132.956 7.53888C132.8 7.20314 132.511 7.0179 132.204 6.96581ZM162.253 11.9788C161.946 11.9267 161.616 12.0135 161.355 12.2798L157.94 15.7993C159.839 16.2971 161.552 17.1712 163.034 18.3173L163.109 13.0091C163.115 12.4534 162.71 12.0598 162.247 11.9845L162.253 11.9788ZM183.161 34.7686C183.057 34.7512 182.953 34.7512 182.837 34.7686L178.096 35.4516C179.254 36.8872 180.134 38.5486 180.672 40.3315L183.786 36.4183C184.29 35.7816 183.891 34.8902 183.161 34.7686Z" fill="#786565"/>
</g>
</svg>
