<svg width="193" height="207" viewBox="0 0 193 207" fill="none" xmlns="http://www.w3.org/2000/svg">
<path d="M12.6668 145.98C12.6301 147.691 12.7256 149.41 12.9532 151.121C14.2235 160.821 19.6281 170.859 28.1681 179.399C36.7007 187.931 46.746 193.336 56.4389 194.606C57.5697 194.753 58.7153 194.849 59.8608 194.885C61.3808 196.259 63.0624 197.514 64.8908 198.63C72.792 203.447 83.902 206.098 96.1723 206.098C108.443 206.098 119.545 203.447 127.454 198.63C129.282 197.514 130.964 196.266 132.484 194.885C133.629 194.849 134.775 194.761 135.906 194.606C145.606 193.336 155.644 187.931 164.177 179.399C172.709 170.866 178.114 160.821 179.391 151.121C179.619 149.41 179.715 147.691 179.678 145.98C180.911 144.798 182.064 143.513 183.114 142.14C189.07 134.378 192.352 123.459 192.352 111.387C192.352 99.3151 189.07 88.396 183.114 80.6344C182.064 79.2685 180.911 77.9835 179.678 76.7939C179.715 75.083 179.619 73.3647 179.391 71.6538C178.121 61.9536 172.717 51.9156 164.177 43.3829C155.644 34.8503 145.599 29.4457 135.906 28.1754C129.128 27.2869 120.382 28.4618 113.561 31.1053C115.426 19.7529 118.202 5.85243 118.231 5.70557L119.369 0H72.9829L74.1211 5.70557C74.1504 5.85243 76.9261 19.7529 78.7913 31.1053C71.9695 28.4544 63.2239 27.2795 56.4463 28.1754C46.746 29.4457 36.7081 34.8503 28.1754 43.3829C19.6427 51.9156 14.2382 61.9609 12.9605 71.6538C12.7329 73.3647 12.6374 75.083 12.6742 76.7939C11.4405 77.9762 10.2877 79.2612 9.23759 80.6344C3.28236 88.4033 0 99.3298 0 111.395C0 123.459 3.28236 134.386 9.23759 142.147C10.2877 143.513 11.4405 144.798 12.6742 145.988L12.6668 145.98Z" fill="#E7E1C3"/>
<path d="M156.298 111.585C145.232 122.651 127.278 122.651 116.212 111.585C105.146 100.512 87.1923 100.512 76.1263 111.585C65.0603 122.651 47.1064 122.651 36.0404 111.585C27.4784 103.023 14.8116 101.092 4.38439 105.77C4.23753 107.495 4.14941 109.258 4.14941 111.049C4.14941 122.6 7.28491 133.049 12.9831 140.473C13.9891 141.78 15.0906 143.014 16.2655 144.145C16.2361 145.782 16.3242 147.427 16.5372 149.064C17.7561 158.346 22.9257 167.951 31.0912 176.116C39.2567 184.282 48.8688 189.451 58.1431 190.67C59.2225 190.81 60.3166 190.898 61.4181 190.935C62.872 192.249 64.4802 193.446 66.2278 194.518C73.7912 199.122 84.4166 201.663 96.1582 201.663C107.9 201.663 118.525 199.122 126.089 194.518C127.836 193.453 129.452 192.256 130.898 190.935C131.992 190.898 133.087 190.81 134.173 190.67C143.455 189.451 153.06 184.282 161.225 176.116C169.391 167.951 174.56 158.339 175.779 149.064C175.992 147.427 176.088 145.782 176.051 144.145C177.233 143.014 178.335 141.78 179.333 140.473C185.032 133.049 188.167 122.6 188.167 111.049C188.167 109.258 188.086 107.503 187.932 105.77C177.505 101.092 164.838 103.023 156.276 111.585H156.298Z" fill="#BFB990"/>
<path d="M192.337 111.394C192.337 99.322 189.055 88.4028 183.1 80.6412C182.05 79.2754 180.897 77.9903 179.663 76.8008C179.7 75.0898 179.604 73.3715 179.377 71.6606C178.106 61.9604 172.702 51.9224 164.162 43.3898C155.629 34.8571 145.584 29.4526 135.891 28.1822C129.113 27.2937 120.368 28.4686 113.546 31.1121C115.411 19.7597 118.187 5.85927 118.216 5.71241L119.354 0.00683594H72.9682L74.1064 5.71241C74.1357 5.85927 76.9114 19.7597 78.7766 31.1121C71.9548 28.4613 63.2092 27.2864 56.4316 28.1822C46.7314 29.4526 36.6934 34.8571 28.1607 43.3898C19.6281 51.9224 14.2235 61.9677 12.9458 71.6606C12.7182 73.3715 12.6228 75.0898 12.6595 76.8008C11.4258 77.983 10.273 79.268 9.22291 80.6412C3.28236 88.4028 0 99.3293 0 111.394C0 123.459 3.28236 134.385 9.23759 142.147C10.2877 143.513 11.4405 144.798 12.6742 145.987C12.6374 147.698 12.7329 149.416 12.9605 151.127C14.2309 160.828 19.6354 170.866 28.1754 179.406C36.7081 187.938 46.7534 193.343 56.4463 194.613C57.5771 194.76 58.7226 194.855 59.8681 194.892C61.3881 196.265 63.0697 197.521 64.8981 198.637C72.7993 203.454 83.9094 206.105 96.1797 206.105C108.45 206.105 119.553 203.454 127.461 198.637C129.29 197.521 130.971 196.273 132.491 194.892C133.637 194.855 134.782 194.767 135.913 194.613C145.613 193.343 155.651 187.938 164.184 179.406C172.717 170.873 178.121 160.828 179.399 151.127C179.626 149.416 179.722 147.698 179.685 145.987C180.919 144.805 182.072 143.52 183.122 142.147C189.077 134.385 192.359 123.466 192.359 111.394H192.337ZM175.529 136.331C174.405 137.792 173.128 139.121 171.733 140.274L169.787 141.882C165.55 145.084 160.432 146.545 160.432 146.545C164.492 146.663 168.01 145.921 170.088 145.348C170.169 146.846 170.117 148.366 169.919 149.872C168.935 157.384 164.375 165.681 157.421 172.635C150.467 179.589 142.169 184.142 134.657 185.133C133.35 185.302 132.021 185.376 130.692 185.331L128.577 185.265C123.276 184.972 118.591 182.247 118.591 182.247C121.403 184.766 124.238 186.624 126.139 187.74C125.053 188.731 123.826 189.649 122.49 190.464C116.153 194.327 106.563 196.537 96.1797 196.537C85.7965 196.537 76.1991 194.327 69.8694 190.464C68.533 189.649 67.3067 188.731 66.2199 187.74C68.1144 186.617 70.9562 184.766 73.7686 182.247C73.7686 182.247 69.0837 184.972 63.782 185.265L61.6672 185.331C60.3454 185.376 59.009 185.302 57.7019 185.133C50.19 184.149 41.8923 179.589 34.9384 172.635C27.9845 165.681 23.4244 157.384 22.4405 149.872C22.2422 148.359 22.1908 146.846 22.2716 145.348C24.3497 145.921 27.867 146.655 31.9277 146.545C31.9277 146.545 26.8096 145.084 22.5726 141.882L20.6267 140.274C19.2315 139.121 17.9538 137.792 16.8303 136.331C12.2189 130.317 9.56803 121.234 9.56803 111.394C9.56803 101.554 12.2115 92.4709 16.8303 86.4569C17.9538 84.9956 19.2315 83.6665 20.6267 82.5137L22.5726 80.9055C26.8096 77.704 31.9277 76.2427 31.9277 76.2427C27.867 76.1252 24.3497 76.8668 22.2716 77.4396C22.1908 75.9416 22.2422 74.4216 22.4405 72.9089C23.4244 65.397 27.9845 57.0993 34.9384 50.1454C41.8923 43.1915 50.19 38.6388 57.7019 37.6475C63.2459 36.9205 71.1618 38.1248 76.5296 40.5039C79.342 41.7596 82.8593 41.2676 85.4808 39.2556C87.8746 37.4198 89.0422 34.6809 88.6016 31.9125C87.4267 24.4446 85.7231 15.3245 84.6143 9.5455H107.767C106.658 15.3245 104.955 24.4446 103.78 31.9125C103.347 34.6735 104.514 37.4198 106.901 39.2556C109.522 41.2676 113.032 41.7596 115.852 40.5039C121.212 38.1174 129.135 36.9205 134.679 37.6475C142.191 38.6314 150.489 43.1915 157.443 50.1454C164.397 57.0993 168.957 65.397 169.941 72.9089C170.139 74.4216 170.191 75.9416 170.11 77.4396C168.032 76.8668 164.514 76.1325 160.454 76.2427C160.454 76.2427 165.572 77.704 169.809 80.9055L171.755 82.5137C173.15 83.6665 174.428 84.9956 175.551 86.4569C180.17 92.4709 182.813 101.554 182.813 111.394C182.813 121.234 180.17 130.317 175.551 136.331H175.529Z" fill="#61647B"/>
<path d="M96.1714 132.873C110.881 132.873 122.805 123.207 122.805 111.284C122.805 99.3609 110.881 89.6953 96.1714 89.6953C81.4622 89.6953 69.5381 99.3609 69.5381 111.284C69.5381 123.207 81.4622 132.873 96.1714 132.873Z" fill="#BFB990"/>
<path d="M120.06 87.3896C113.745 82.0365 105.807 79.5986 96.1727 79.5986C86.5386 79.5986 78.6007 82.0365 72.2857 87.3896C65.9706 92.7427 62.0127 101.731 62.0127 109.896C62.0127 118.062 66.044 124.208 72.3591 129.561C72.8144 129.943 73.277 130.303 73.7469 130.64C73.0714 133.849 72.6895 137.066 73.2256 139.393C73.8718 142.198 75.8471 143.733 77.7563 144.188C79.6581 144.644 82.1181 144.188 83.9685 141.978C85.0259 140.722 85.8851 138.894 86.5973 136.853C86.5973 137.771 86.6708 138.63 86.847 139.393C87.4932 142.198 89.4685 143.733 91.3777 144.188C93.2795 144.644 95.7395 144.188 97.5899 141.978C98.6473 140.722 99.5065 138.894 100.219 136.853C100.219 137.771 100.292 138.63 100.468 139.393C101.115 142.198 103.09 143.733 104.999 144.188C106.901 144.644 109.361 144.188 111.211 141.978C112.937 139.922 114.134 136.353 115.037 132.777C116.792 131.933 118.444 130.875 120.008 129.554C126.323 124.201 130.355 118.062 130.355 109.889C130.355 101.716 126.397 92.7354 120.082 87.3823L120.06 87.3896ZM89.0793 112.305C88.2789 115.616 87.1848 119.031 85.4812 120.918C83.7849 122.805 81.4865 123.165 79.6875 122.732C77.8884 122.299 76.0086 120.933 75.3551 118.48C74.7015 116.028 75.2743 112.481 76.0747 109.169C76.8751 105.857 77.9692 102.443 79.6728 100.556C81.3691 98.6686 83.6674 98.3088 85.4665 98.742C87.2582 99.1753 89.1454 100.541 89.7989 102.994C90.4524 105.446 89.8797 108.993 89.0793 112.305ZM93.9624 126.653C93.7421 127.564 93.4411 128.496 92.9785 129.01C92.5159 129.524 91.8843 129.627 91.3924 129.51C90.9004 129.392 90.3864 129.018 90.2028 128.342C90.0265 127.666 90.1808 126.697 90.401 125.794C90.6213 124.891 90.9224 123.951 91.385 123.437C91.8476 122.923 92.4791 122.82 92.9711 122.937C93.4631 123.055 93.9771 123.429 94.1607 124.105C94.3369 124.781 94.1827 125.75 93.9624 126.653ZM99.0365 126.653C98.8162 127.564 98.5152 128.496 98.0525 129.01C97.5899 129.524 96.9584 129.627 96.4664 129.51C95.9744 129.392 95.4604 129.018 95.2769 128.342C95.0933 127.666 95.2548 126.697 95.4751 125.794C95.6954 124.891 95.9965 123.951 96.4591 123.437C96.9217 122.923 97.5532 122.82 98.0452 122.937C98.5372 123.055 99.0512 123.429 99.2348 124.105C99.411 124.781 99.2568 125.75 99.0365 126.653ZM117.717 112.305C116.917 115.616 115.823 119.031 114.119 120.918C112.423 122.805 110.125 123.165 108.326 122.732C106.526 122.299 104.647 120.933 103.993 118.48C103.34 116.028 103.912 112.481 104.713 109.169C105.513 105.857 106.607 102.443 108.311 100.556C110.007 98.6686 112.305 98.3088 114.105 98.742C115.904 99.1753 117.783 100.541 118.437 102.994C119.09 105.446 118.518 108.993 117.717 112.305Z" fill="white"/>
</svg>
