<svg width="210" height="295" viewBox="0 0 210 295" fill="none" xmlns="http://www.w3.org/2000/svg">
<path d="M206.869 291.128C206.869 255.085 208.769 143.379 178.365 97.7729L89.674 103.324C29.803 96.7736 12.944 99.7819 6.65295 105.99C3.81551 108.791 3.11133 112.38 3.11133 114.559C3.11133 118.567 6.19213 121.855 10.1169 122.192C11.4217 124.625 13.9847 126.282 16.9413 126.282C18.4377 126.282 19.8253 125.852 21.011 125.117C22.1916 125.852 23.5844 126.282 25.0808 126.282C28.6276 126.282 31.61 123.895 32.5213 120.643C62.563 126.991 79.8206 137.715 91.4914 150.286C108.211 168.29 110.888 231.273 110.888 291.133H206.874L206.869 291.128Z" fill="white"/>
<mask id="mask0_946_9286" style="mask-type:alpha" maskUnits="userSpaceOnUse" x="3" y="97" width="204" height="195">
<path d="M206.865 291.216C206.865 255.174 208.765 143.467 178.361 97.8611L89.6701 103.412C29.7991 96.8618 12.9401 99.8701 6.64905 106.078C3.8116 108.879 3.10742 112.468 3.10742 114.648C3.10742 118.655 6.18822 121.943 10.113 122.28C11.4178 124.713 13.9808 126.37 16.9374 126.37C18.4338 126.37 19.8214 125.94 21.0071 125.205C22.1877 125.94 23.5805 126.37 25.0769 126.37C28.6237 126.37 31.6061 123.983 32.5174 120.732C62.5591 127.08 79.8167 137.803 91.4875 150.375C108.207 168.378 110.884 231.361 110.884 291.222H206.87L206.865 291.216Z" fill="white"/>
</mask>
<g mask="url(#mask0_946_9286)">
<g filter="url(#filter0_f_946_9286)">
<path d="M31.8391 133.158C32.8747 116.382 25.1943 99.7615 21.2246 93.5481L210.215 90.4414L238.175 306.356H152.223C155.071 284.61 159.938 233.246 156.624 201.764C152.482 162.413 131.771 149.21 108.73 149.21C90.2967 149.21 89.6581 184.246 91.6429 201.764C71.2768 185.886 30.8036 149.935 31.8391 133.158Z" fill="#FFDA7B"/>
</g>
</g>
<mask id="mask1_946_9286" style="mask-type:alpha" maskUnits="userSpaceOnUse" x="3" y="97" width="204" height="195">
<path d="M206.865 291.216C206.865 255.174 208.765 143.467 178.361 97.8611L89.6701 103.412C29.7991 96.8618 12.9401 99.8701 6.64905 106.078C3.8116 108.879 3.10742 112.468 3.10742 114.648C3.10742 118.655 6.18822 121.943 10.113 122.28C11.4178 124.713 13.9808 126.37 16.9374 126.37C18.4338 126.37 19.8214 125.94 21.0071 125.205C22.1877 125.94 23.5805 126.37 25.0769 126.37C28.6237 126.37 31.6061 123.983 32.5174 120.732C62.5591 127.08 79.8167 137.803 91.4875 150.375C108.207 168.378 110.884 231.361 110.884 291.222H206.87L206.865 291.216Z" fill="white"/>
</mask>
<g mask="url(#mask1_946_9286)">
<g filter="url(#filter1_f_946_9286)">
<path d="M176.855 135.279C167.202 139.721 163.449 140.41 164.267 143.812L164.271 143.827C165.09 147.228 171.802 145.398 182.419 144.961C183.354 144.924 184.251 144.917 185.123 144.937C185.656 144.95 186.177 144.966 186.683 144.996C187.897 145.07 188.124 146.417 187.01 146.947C186.836 147.03 186.661 147.109 186.487 147.193C185.131 147.818 183.825 148.383 182.598 148.903C182.187 149.075 181.782 149.246 181.388 149.409C180.864 149.624 180.352 149.836 179.852 150.04C178.61 150.548 177.473 151.01 176.447 151.451C176.037 151.628 175.645 151.801 175.278 151.968C172.126 153.406 170.409 154.657 170.844 156.466L170.848 156.481C171.309 158.394 173.634 158.65 177.468 158.434C177.896 158.409 178.341 158.38 178.804 158.342C179.033 158.324 179.274 158.307 179.515 158.286C179.998 158.248 180.498 158.206 181.011 158.161C181.524 158.116 182.063 158.07 182.615 158.026C184.542 157.866 186.676 157.703 189.001 157.608C189.193 157.599 189.385 157.594 189.578 157.59C190.812 157.554 191.222 158.857 190.175 159.476C189.745 159.731 189.294 159.981 188.83 160.228C188.057 160.645 187.25 161.053 186.394 161.448C176.741 165.89 169.931 167.314 170.75 170.716L170.754 170.731C171.572 174.132 175.228 173.038 185.845 172.6C196.462 172.163 202.558 186.445 202.558 186.445L207.444 183.072L204.331 174.145C204.174 166.802 202.996 158.659 200.735 149.266C198.474 139.872 195.817 132.085 192.616 125.476L191.325 116.11L185.439 115.33C185.439 115.33 186.512 130.826 176.857 135.263L176.855 135.279Z" fill="#EFBD3B"/>
</g>
<g filter="url(#filter2_f_946_9286)">
<path d="M192.131 240.041C181.741 242.269 177.928 242.121 177.984 245.62L177.985 245.635C178.041 249.133 184.991 248.813 195.447 250.704C196.368 250.872 197.245 251.061 198.091 251.271C198.609 251.4 199.114 251.53 199.6 251.669C200.769 252.006 200.697 253.371 199.494 253.644C199.306 253.688 199.118 253.727 198.93 253.77C197.47 254.084 196.072 254.35 194.762 254.59C194.323 254.669 193.89 254.747 193.47 254.82C192.912 254.915 192.366 255.01 191.833 255.1C190.51 255.325 189.3 255.528 188.202 255.734C187.764 255.817 187.344 255.9 186.949 255.983C183.558 256.698 181.61 257.544 181.64 259.405L181.64 259.42C181.672 261.388 183.885 262.145 187.675 262.771C188.097 262.84 188.538 262.909 188.998 262.973C189.225 263.005 189.465 263.042 189.704 263.074C190.183 263.142 190.681 263.211 191.192 263.279C191.702 263.347 192.238 263.419 192.786 263.497C194.702 263.761 196.82 264.068 199.109 264.483C199.298 264.516 199.487 264.554 199.677 264.591C200.888 264.826 201.004 266.187 199.847 266.562C199.371 266.717 198.877 266.862 198.37 267.003C197.525 267.24 196.648 267.463 195.727 267.661C185.337 269.888 178.38 269.792 178.437 273.29L178.437 273.305C178.494 276.803 182.3 276.533 192.756 278.425C203.213 280.316 206.043 295.584 206.043 295.584L211.548 293.359L210.459 283.968C211.909 276.768 212.537 268.564 212.382 258.904C212.226 249.243 211.333 241.064 209.652 233.915L210.437 224.493L204.864 222.447C204.864 222.447 202.527 237.804 192.137 240.026L192.131 240.041Z" fill="#EFBD3B"/>
</g>
<g filter="url(#filter3_f_946_9286)">
<path d="M187.768 185.107C174.514 188.421 169.58 188.676 169.907 192.159L169.909 192.174C170.236 195.657 179.186 194.607 192.826 195.394C194.027 195.465 195.173 195.561 196.281 195.682C196.959 195.756 197.621 195.832 198.259 195.92C199.793 196.134 199.798 197.502 198.265 197.901C198.026 197.965 197.786 198.023 197.546 198.086C195.684 198.553 193.898 198.965 192.223 199.342C191.662 199.467 191.109 199.59 190.572 199.707C189.858 199.861 189.161 200.013 188.479 200.159C186.787 200.522 185.239 200.852 183.837 201.172C183.277 201.302 182.74 201.429 182.236 201.553C177.911 202.623 175.456 203.671 175.631 205.524L175.632 205.539C175.816 207.499 178.729 208.022 183.667 208.247C184.218 208.272 184.793 208.295 185.391 208.31C185.687 208.318 185.999 208.329 186.31 208.336C186.934 208.354 187.582 208.37 188.246 208.384C188.91 208.398 189.607 208.414 190.32 208.434C192.813 208.496 195.57 208.579 198.557 208.753C198.803 208.766 199.05 208.783 199.298 208.801C200.878 208.908 201.128 210.253 199.661 210.749C199.058 210.953 198.43 211.15 197.786 211.344C196.712 211.669 195.596 211.984 194.421 212.278C181.167 215.592 172.177 216.227 172.505 219.711L172.506 219.726C172.833 223.209 177.729 222.54 191.368 223.327C205.007 224.114 209.773 239.045 209.773 239.045L216.718 236.247L214.63 226.994C215.978 219.66 216.193 211.412 215.289 201.792C214.385 192.173 212.637 184.109 209.946 177.154L210.275 167.675L202.93 166.219C202.93 166.219 201.029 181.782 187.775 185.091L187.768 185.107Z" fill="#EFBD3B"/>
</g>
<g filter="url(#filter4_f_946_9286)">
<path d="M36.9523 99.8417L36.7012 103.286C36.7012 103.286 43.2162 104.422 43.82 106.717C45.379 112.663 44.4826 116.691 47.5574 116.768L47.5725 116.767C50.6476 116.848 50.8533 112.871 53.2381 106.961C53.5352 106.233 53.8657 105.542 54.2201 104.898C54.6369 104.145 56.0045 104.249 56.1694 105.045L56.1713 105.069C57.4053 111.073 56.839 115.042 59.9087 115.12L59.9239 115.119C62.999 115.2 63.2046 111.223 65.5894 105.313L65.602 105.28C65.9154 104.502 67.2987 104.484 67.5681 105.256C67.7977 105.91 67.9905 106.611 68.1456 107.347C69.3745 113.351 68.8082 117.321 71.883 117.398L71.8981 117.397C74.9732 117.478 75.5062 114.235 77.9142 111.991C84.2742 106.062 85.5318 107.842 85.5318 107.842L85.1794 103.418C76.0836 98.0528 64.5786 95.2984 53.6717 96.1672C47.941 96.6237 42.2343 97.8914 36.9571 99.8373L36.9523 99.8417Z" fill="#EFBD3B"/>
</g>
</g>
<path d="M206.574 191.926C202.225 147.289 193.604 115.031 180.949 96.0488L179.955 94.5576L89.7419 100.201C61.5642 97.1258 41.3293 96.0022 27.8877 96.7685C15.9062 97.4468 8.68319 99.6112 4.46328 103.779C0.434936 107.756 0 112.644 0 114.56C0 119.551 3.51056 123.869 8.2379 125.024C10.2676 127.747 13.4727 129.389 16.9315 129.389C18.3295 129.389 19.7119 129.114 21.0012 128.591C22.2905 129.114 23.673 129.389 25.071 129.389C28.8922 129.389 32.3665 127.359 34.3082 124.211C59.0426 129.762 76.5333 138.75 89.2086 152.399C96.2866 160.021 101.387 177.838 104.364 205.347C106.694 226.835 107.776 254.097 107.776 291.133V294.24H209.976V291.133C209.976 289.306 209.976 287.286 209.986 285.091C210.038 263.872 210.121 228.358 206.574 191.932V191.926ZM203.773 285.07C203.773 286.09 203.773 287.074 203.768 288.022H113.99C113.902 229.015 111.282 167.032 93.765 148.169C79.7642 133.091 60.5079 123.377 33.1587 117.599L30.3109 116.998L29.5239 119.799C28.9647 121.788 27.1317 123.175 25.071 123.175C24.2166 123.175 23.3778 122.932 22.6426 122.476L22.2698 122.243C21.4206 121.648 20.4575 120.602 20.6905 118.987C20.6905 118.987 19.7326 119.981 19.7689 122.228L19.3702 122.476C18.635 122.932 17.7961 123.175 16.9418 123.175C15.813 123.175 14.6273 122.627 13.6746 121.84H13.6901C13.6901 121.84 10.3867 119.1 11.5724 115.637C11.5724 115.637 10.599 117.18 10.2987 119.09C8.01008 118.847 6.22891 116.879 6.22891 114.565C6.22891 113.679 6.41531 110.604 8.84371 108.206C15.6163 101.522 39.6931 100.983 89.3484 106.415L89.6124 106.446L176.755 100.994C204.125 144.394 203.876 246.402 203.783 285.081L203.773 285.07Z" fill="#786565"/>
<path d="M77.0775 103.479C89.2764 112.017 105.457 116.164 126.541 116.164C147.625 116.164 163.806 112.012 176.005 103.479C188.861 94.4796 197.172 79.0601 197.172 64.1946C197.172 54.0564 194.811 44.9849 187.769 35.6959C187.769 35.6959 187.769 35.6855 187.764 35.6803L186.076 9.92588C185.734 6.26516 183.59 3.04456 180.354 1.30481C177.113 -0.434937 173.245 -0.434937 170.009 1.30481L148.769 14.5911C148.769 14.5911 148.759 14.5911 148.749 14.5911C142.406 13.162 134.67 12.7374 126.546 12.7374C118.422 12.7374 110.681 13.1672 104.344 14.5911C104.339 14.5911 104.328 14.5911 104.323 14.5911L83.0837 1.30481C79.8424 -0.429759 75.9746 -0.429759 72.7385 1.30481C69.4971 3.04456 67.3587 6.26516 67.017 9.92588L65.329 35.6803C65.329 35.6803 65.329 35.6907 65.3238 35.6959C58.282 44.9797 55.9209 54.0564 55.9209 64.1946C55.9209 79.0601 64.2261 94.4796 77.0878 103.479H77.0775Z" fill="#FFDA7B"/>
<mask id="mask2_946_9286" style="mask-type:alpha" maskUnits="userSpaceOnUse" x="55" y="0" width="143" height="117">
<path d="M77.0775 103.479C89.2764 112.017 105.457 116.164 126.541 116.164C147.625 116.164 163.806 112.012 176.005 103.479C188.861 94.4796 197.172 79.0601 197.172 64.1946C197.172 54.0564 194.811 44.9849 187.769 35.6959C187.769 35.6959 187.769 35.6855 187.764 35.6803L186.076 9.92588C185.734 6.26516 183.59 3.04456 180.354 1.30481C177.113 -0.434937 173.245 -0.434937 170.009 1.30481L148.769 14.5911C148.769 14.5911 148.759 14.5911 148.749 14.5911C142.406 13.162 134.67 12.7374 126.546 12.7374C118.422 12.7374 110.681 13.1672 104.344 14.5911C104.339 14.5911 104.328 14.5911 104.323 14.5911L83.0837 1.30481C79.8424 -0.429759 75.9746 -0.429759 72.7385 1.30481C69.4971 3.04456 67.3587 6.26516 67.017 9.92588L65.329 35.6803C65.329 35.6803 65.329 35.6907 65.3238 35.6959C58.282 44.9797 55.9209 54.0564 55.9209 64.1946C55.9209 79.0601 64.2261 94.4796 77.0878 103.479H77.0775Z" fill="white"/>
</mask>
<g mask="url(#mask2_946_9286)">
<g filter="url(#filter5_f_946_9286)">
<path d="M150.146 81.4422C140.686 69.0258 136.539 63.1646 125.169 63.1646C113.798 63.1646 109.651 69.0258 100.186 81.4422C95.044 88.1889 83.1609 96.3233 74.5605 97.7524C75.4356 98.4617 76.3314 99.1452 77.2582 99.7924C89.4571 108.331 105.638 112.478 126.722 112.478C147.806 112.478 163.987 108.325 176.186 99.7924C177.019 99.2125 177.832 98.6015 178.624 97.9647C170.024 98.2287 155.888 88.9708 150.151 81.4422H150.146Z" fill="white"/>
</g>
<path d="M124.956 77.4398C127.504 77.4398 129.57 75.3743 129.57 72.8263C129.57 70.2784 127.504 68.2129 124.956 68.2129C122.408 68.2129 120.343 70.2784 120.343 72.8263C120.343 75.3743 122.408 77.4398 124.956 77.4398Z" fill="#786565"/>
<path d="M137.072 80.6602C137.072 80.6602 135.679 83.9636 131.237 84.15C127.068 84.3209 125.194 81.5611 124.977 81.2142C124.966 81.1987 124.946 81.1987 124.935 81.2142C124.718 81.5611 122.843 84.3209 118.675 84.15C114.228 83.9688 112.84 80.6602 112.84 80.6602" stroke="#786565" stroke-width="5.17782" stroke-miterlimit="10" stroke-linecap="round"/>
<path d="M110.623 61.4558C111.478 57.9142 111.467 54.5072 110.768 51.882C110.069 49.2569 107.931 48.299 106.01 47.8381C104.089 47.3773 101.754 47.253 99.9362 49.2724C98.1188 51.2917 96.5602 54.3208 95.7059 57.8624C94.8516 61.404 94.8619 64.811 95.5609 67.4362C95.5609 67.4465 95.5661 67.4569 95.5713 67.4672C95.9441 68.8445 97.2489 69.761 98.6728 69.761H105.021C106.082 69.761 107.092 69.2536 107.682 68.3682C108.935 66.499 109.981 64.1224 110.623 61.4558Z" fill="#786565"/>
<path d="M157.307 61.4558C158.161 57.9142 158.151 54.5072 157.452 51.882C156.753 49.2569 154.614 48.299 152.693 47.8381C150.772 47.3773 148.437 47.253 146.62 49.2724C144.802 51.2917 143.244 54.3208 142.389 57.8624C141.535 61.404 141.545 64.811 142.245 67.4362C142.245 67.4465 142.25 67.4569 142.255 67.4672C142.628 68.8445 143.932 69.761 145.356 69.761H151.704C152.766 69.761 153.776 69.2536 154.366 68.3682C155.619 66.499 156.665 64.1224 157.307 61.4558Z" fill="#786565"/>
<g filter="url(#filter6_f_946_9286)">
<path d="M107.719 28.1331C109.745 36.3452 109.54 39.3468 112.982 39.3468H112.997C116.44 39.3468 116.235 33.8687 118.261 25.6566C118.441 24.9335 118.641 24.245 118.862 23.5813C118.997 23.1751 119.132 22.7789 119.277 22.3975C119.627 21.4812 120.968 21.5555 121.218 22.5065C121.258 22.6551 121.293 22.8037 121.333 22.9523C121.619 24.1063 121.859 25.2108 122.074 26.246C122.144 26.5927 122.214 26.9345 122.279 27.2663C122.364 27.7072 122.449 28.1381 122.529 28.5591C122.729 29.6042 122.909 30.5601 123.095 31.4269C123.17 31.7736 123.245 32.1054 123.32 32.4175C123.97 35.0971 124.771 36.6424 126.602 36.6424H126.617C128.554 36.6424 129.334 34.9089 130.01 31.9321C130.085 31.6002 130.16 31.2535 130.23 30.892C130.265 30.7136 130.305 30.5254 130.34 30.3372C130.415 29.9608 130.49 29.5695 130.565 29.1683C130.64 28.7671 130.72 28.3461 130.805 27.9152C131.095 26.4095 131.431 24.7452 131.876 22.9473C131.911 22.7987 131.951 22.6501 131.991 22.5015C132.241 21.5505 133.582 21.4763 133.932 22.3926C134.077 22.769 134.213 23.1603 134.343 23.5615C134.563 24.2301 134.768 24.9236 134.948 25.6517C136.975 33.8638 136.769 39.3418 140.212 39.3418H140.227C143.669 39.3418 143.464 36.3403 145.491 28.1282C147.517 19.916 162.583 17.8804 162.583 17.8804L160.481 13.5167L151.225 14.2547C144.165 13.0214 136.104 12.4221 126.597 12.4221C117.09 12.4221 109.03 13.0214 101.969 14.2547L92.7128 13.5167L90.6113 17.8804C90.6113 17.8804 105.682 19.916 107.704 28.1282L107.719 28.1331Z" fill="#EEBB37"/>
</g>
<g filter="url(#filter7_f_946_9286)">
<path d="M191.747 45.0423L187.452 44.5259C187.452 44.5259 185.375 50.8399 182.437 51.2536C174.824 52.3204 169.861 51.124 169.457 54.14V54.1549C169.048 57.1708 174.016 57.6843 181.19 60.4908C182.074 60.8398 182.907 61.2186 183.679 61.6174C184.583 62.086 184.315 63.422 183.3 63.5217H183.27C175.616 64.2645 170.694 63.3971 170.29 66.408V66.423C169.881 69.4389 174.849 69.9524 182.023 72.7589L182.063 72.7739C183.008 73.1427 182.891 74.5036 181.897 74.708C181.054 74.8825 180.155 75.0171 179.216 75.1118C171.562 75.8496 166.64 74.9822 166.236 77.9981V78.0131C165.827 81.029 169.841 81.8067 172.416 84.349C179.216 91.0638 176.858 92.1605 176.858 92.1605H182.442C190.081 83.6411 194.685 72.5495 194.685 61.762C194.685 56.0941 193.665 50.3863 191.752 45.0473L191.747 45.0423Z" fill="#EEBB37"/>
</g>
<g filter="url(#filter8_f_946_9286)">
<path d="M61.4466 45.0423L65.7418 44.5259C65.7418 44.5259 67.818 50.8399 70.7563 51.2536C78.3696 52.3204 83.3324 51.124 83.7363 54.14V54.1549C84.1453 57.1708 79.1774 57.6843 72.0033 60.4908C71.1198 60.8398 70.2868 61.2186 69.5144 61.6174C68.6106 62.086 68.8782 63.422 69.893 63.5217H69.9233C77.577 64.2645 82.4994 63.3971 82.9033 66.408V66.423C83.3123 69.4389 78.3444 69.9524 71.1703 72.7589L71.1299 72.7739C70.1858 73.1427 70.3019 74.5036 71.2965 74.708C72.1396 74.8825 73.0383 75.0171 73.9773 75.1118C81.6311 75.8496 86.5535 74.9822 86.9574 77.9981V78.0131C87.3663 81.029 83.3526 81.8067 80.7778 84.349C73.9773 91.0638 76.3355 92.1605 76.3355 92.1605H70.7513C63.1127 83.6411 58.5083 72.5495 58.5083 61.762C58.5083 56.0941 59.5282 50.3863 61.4416 45.0473L61.4466 45.0423Z" fill="#EEBB37"/>
</g>
</g>
<path d="M187.769 35.6959C187.769 35.6959 187.769 35.6855 187.764 35.6803L186.076 9.92588C185.734 6.26516 183.59 3.04456 180.354 1.30481C177.113 -0.434937 173.245 -0.434937 170.009 1.30481L148.769 14.5911C148.769 14.5911 148.759 14.5911 148.749 14.5911C142.406 13.162 134.67 12.7374 126.546 12.7374C118.422 12.7374 110.681 13.1672 104.344 14.5911C104.339 14.5911 104.328 14.5911 104.323 14.5911L83.0837 1.30481C79.8424 -0.429759 75.9746 -0.429759 72.7385 1.30481C69.4971 3.04456 67.3587 6.26516 67.017 9.92588L65.329 35.6803C65.329 35.6803 65.329 35.6907 65.3238 35.6959C58.282 44.9797 55.9209 54.0564 55.9209 64.1946C55.9209 79.0601 64.2261 94.4796 77.0878 103.479C89.2867 112.017 105.467 116.164 126.551 116.164C147.636 116.164 163.816 112.012 176.015 103.479C188.872 94.4796 197.182 79.0601 197.182 64.1946C197.182 54.0564 194.821 44.9849 187.779 35.6959H187.769ZM172.147 97.9643C161.119 105.684 146.201 109.433 126.541 109.433C106.881 109.433 91.9637 105.679 80.9349 97.9643C69.8233 90.1872 62.6417 76.932 62.6417 64.1946C62.6417 55.1075 65.5465 45.803 70.6155 38.6783C70.6155 38.6783 70.9987 38.1191 71.1385 37.9431C72.2621 36.4984 74.618 33.6299 78.4185 30.6475C78.4392 30.632 78.4289 30.5957 78.403 30.6009C77.7402 30.7562 74.1675 31.6416 71.4647 33.2209C71.444 33.2312 71.4233 33.2209 71.4285 33.195L73.717 10.5627C73.8517 9.13367 74.6542 7.92206 75.9228 7.24377C77.1758 6.57065 78.6101 6.56547 79.8631 7.21788L100.222 19.0906C100.222 19.0906 100.243 19.1269 100.222 19.1372C98.3583 20.2504 95.7694 21.2705 93.5636 23.44C93.5429 23.4607 93.5636 23.4969 93.5843 23.4866C94.3713 23.2484 99.6631 21.6899 106.601 20.7372C114.86 19.6084 118.246 19.4686 126.546 19.4686C134.846 19.4686 138.233 19.6032 146.491 20.7372C153.43 21.6847 158.721 23.2432 159.508 23.4866C159.534 23.4969 159.55 23.4607 159.529 23.44C157.323 21.2705 154.729 20.2504 152.87 19.1372C152.855 19.1269 152.855 19.101 152.87 19.0906L173.229 7.21788C174.488 6.5603 175.922 6.57065 177.17 7.24377C178.438 7.92206 179.241 9.13367 179.376 10.5627L181.664 33.195C181.664 33.195 181.643 33.2312 181.628 33.2209C178.925 31.6416 175.352 30.7562 174.69 30.6009C174.664 30.5957 174.648 30.632 174.674 30.6475C178.475 33.6299 180.831 36.4984 181.954 37.9431C182.094 38.1191 182.477 38.6783 182.477 38.6783C187.541 45.8082 190.451 55.1075 190.451 64.1946C190.451 76.932 183.269 90.1872 172.158 97.9643H172.147Z" fill="#786565"/>
<path d="M166.073 115.916C133.732 106.7 104.095 112.457 99.0255 117.351C97.5239 118.8 96.5039 120.768 96.5039 123.02C96.5039 127.028 99.5847 130.316 103.509 130.652C104.814 133.086 107.377 134.743 110.334 134.743C111.83 134.743 113.218 134.313 114.404 133.578C115.584 134.313 116.977 134.743 118.473 134.743C121.093 134.743 123.403 133.438 124.801 131.45C143.974 132.361 156.235 153.543 156.235 153.543" fill="url(#paint0_linear_946_9286)"/>
<mask id="mask3_946_9286" style="mask-type:alpha" maskUnits="userSpaceOnUse" x="96" y="111" width="71" height="43">
<path d="M166.073 115.916C133.732 106.7 104.095 112.457 99.0255 117.351C97.5239 118.8 96.5039 120.768 96.5039 123.02C96.5039 127.028 99.5847 130.316 103.509 130.652C104.814 133.086 107.377 134.743 110.334 134.743C111.83 134.743 113.218 134.313 114.404 133.578C115.584 134.313 116.977 134.743 118.473 134.743C121.093 134.743 123.403 133.438 124.801 131.45C143.974 132.361 156.235 153.543 156.235 153.543" fill="white"/>
</mask>
<g mask="url(#mask3_946_9286)">
<g filter="url(#filter9_f_946_9286)">
<path d="M116.042 113.67L116.029 117.093C116.029 117.093 122.012 117.931 122.703 120.178C124.488 125.999 123.926 130.028 126.721 129.969L126.734 129.967C129.53 129.912 129.469 125.963 131.265 120.003C131.49 119.269 131.746 118.57 132.028 117.917C132.359 117.152 133.607 117.195 133.806 117.976L133.809 118C135.303 123.892 135.037 127.85 137.827 127.791L137.841 127.789C140.637 127.734 140.576 123.785 142.372 117.825L142.381 117.792C142.617 117.008 143.871 116.929 144.164 117.681C144.413 118.319 144.632 119.005 144.818 119.728C146.308 125.621 146.041 129.579 148.836 129.519L148.85 129.517C151.646 129.462 151.928 126.226 153.973 123.896C159.376 117.743 160.628 119.45 160.628 119.45L160.032 115.083C151.443 110.17 140.831 107.95 130.986 109.292C125.814 109.997 120.714 111.505 116.046 113.666L116.042 113.67Z" fill="#EFBD3B"/>
</g>
</g>
<path d="M159.513 114.886C163.412 115.445 166.073 115.921 166.073 115.921C153.186 105.612 104.421 107.829 96.8666 115.124C94.6298 117.283 93.3975 120.09 93.3975 123.031C93.3975 128.022 96.908 132.34 101.635 133.495C103.665 136.219 106.87 137.86 110.329 137.86C111.727 137.86 113.109 137.585 114.399 137.063C115.688 137.585 117.07 137.86 118.468 137.86C121.363 137.86 124.117 136.695 126.132 134.681C132.676 135.416 148.189 143.794 156.23 153.554C156.23 153.554 155.712 149.639 150.001 142.706C143.809 135.193 134.266 130.481 124.946 128.359L123.237 128.276L122.253 129.674C121.384 130.911 119.965 131.652 118.463 131.652C117.609 131.652 116.77 131.408 116.03 130.953L115.848 130.839C114.994 130.248 114 129.197 114.238 127.561C114.238 127.561 113.332 128.498 113.317 130.611L112.762 130.953C112.027 131.408 111.183 131.652 110.334 131.652C109.205 131.652 108.149 131.237 107.321 130.523C107.041 130.243 106.622 129.772 106.228 129.161L105.726 128.224C105.281 127.214 105.058 125.972 105.519 124.62C105.519 124.62 104.695 125.925 104.328 127.618L103.774 127.572C101.439 127.37 99.6108 125.381 99.6108 123.036C99.6108 121.451 100.465 120.292 101.185 119.603C104.623 116.284 119.551 109.154 159.518 114.896L159.513 114.886Z" fill="#786565"/>
<defs>
<filter id="filter0_f_946_9286" x="8.79785" y="78.0146" width="241.804" height="240.769" filterUnits="userSpaceOnUse" color-interpolation-filters="sRGB">
<feFlood flood-opacity="0" result="BackgroundImageFix"/>
<feBlend mode="normal" in="SourceGraphic" in2="BackgroundImageFix" result="shape"/>
<feGaussianBlur stdDeviation="6.21338" result="effect1_foregroundBlur_946_9286"/>
</filter>
<filter id="filter1_f_946_9286" x="158.463" y="109.634" width="54.6764" height="82.5059" filterUnits="userSpaceOnUse" color-interpolation-filters="sRGB">
<feFlood flood-opacity="0" result="BackgroundImageFix"/>
<feBlend mode="normal" in="SourceGraphic" in2="BackgroundImageFix" result="shape"/>
<feGaussianBlur stdDeviation="2.8478" result="effect1_foregroundBlur_946_9286"/>
</filter>
<filter id="filter2_f_946_9286" x="172.288" y="216.752" width="45.8131" height="84.5277" filterUnits="userSpaceOnUse" color-interpolation-filters="sRGB">
<feFlood flood-opacity="0" result="BackgroundImageFix"/>
<feBlend mode="normal" in="SourceGraphic" in2="BackgroundImageFix" result="shape"/>
<feGaussianBlur stdDeviation="2.8478" result="effect1_foregroundBlur_946_9286"/>
</filter>
<filter id="filter3_f_946_9286" x="164.197" y="160.524" width="58.2174" height="84.2166" filterUnits="userSpaceOnUse" color-interpolation-filters="sRGB">
<feFlood flood-opacity="0" result="BackgroundImageFix"/>
<feBlend mode="normal" in="SourceGraphic" in2="BackgroundImageFix" result="shape"/>
<feGaussianBlur stdDeviation="2.8478" result="effect1_foregroundBlur_946_9286"/>
</filter>
<filter id="filter4_f_946_9286" x="31.0056" y="90.3137" width="60.2222" height="32.7804" filterUnits="userSpaceOnUse" color-interpolation-filters="sRGB">
<feFlood flood-opacity="0" result="BackgroundImageFix"/>
<feBlend mode="normal" in="SourceGraphic" in2="BackgroundImageFix" result="shape"/>
<feGaussianBlur stdDeviation="2.8478" result="effect1_foregroundBlur_946_9286"/>
</filter>
<filter id="filter5_f_946_9286" x="66.7938" y="55.3978" width="119.597" height="64.8469" filterUnits="userSpaceOnUse" color-interpolation-filters="sRGB">
<feFlood flood-opacity="0" result="BackgroundImageFix"/>
<feBlend mode="normal" in="SourceGraphic" in2="BackgroundImageFix" result="shape"/>
<feGaussianBlur stdDeviation="3.88336" result="effect1_foregroundBlur_946_9286"/>
</filter>
<filter id="filter6_f_946_9286" x="84.9157" y="6.72652" width="83.3629" height="38.3158" filterUnits="userSpaceOnUse" color-interpolation-filters="sRGB">
<feFlood flood-opacity="0" result="BackgroundImageFix"/>
<feBlend mode="normal" in="SourceGraphic" in2="BackgroundImageFix" result="shape"/>
<feGaussianBlur stdDeviation="2.8478" result="effect1_foregroundBlur_946_9286"/>
</filter>
<filter id="filter7_f_946_9286" x="160.511" y="38.8303" width="39.8687" height="59.0257" filterUnits="userSpaceOnUse" color-interpolation-filters="sRGB">
<feFlood flood-opacity="0" result="BackgroundImageFix"/>
<feBlend mode="normal" in="SourceGraphic" in2="BackgroundImageFix" result="shape"/>
<feGaussianBlur stdDeviation="2.8478" result="effect1_foregroundBlur_946_9286"/>
</filter>
<filter id="filter8_f_946_9286" x="52.8132" y="38.8303" width="39.8687" height="59.0257" filterUnits="userSpaceOnUse" color-interpolation-filters="sRGB">
<feFlood flood-opacity="0" result="BackgroundImageFix"/>
<feBlend mode="normal" in="SourceGraphic" in2="BackgroundImageFix" result="shape"/>
<feGaussianBlur stdDeviation="2.8478" result="effect1_foregroundBlur_946_9286"/>
</filter>
<filter id="filter9_f_946_9286" x="110.333" y="103.211" width="55.9908" height="32.4542" filterUnits="userSpaceOnUse" color-interpolation-filters="sRGB">
<feFlood flood-opacity="0" result="BackgroundImageFix"/>
<feBlend mode="normal" in="SourceGraphic" in2="BackgroundImageFix" result="shape"/>
<feGaussianBlur stdDeviation="2.8478" result="effect1_foregroundBlur_946_9286"/>
</filter>
<linearGradient id="paint0_linear_946_9286" x1="105.368" y1="116.243" x2="162.583" y2="132.035" gradientUnits="userSpaceOnUse">
<stop offset="0.363467" stop-color="white"/>
<stop offset="0.611645" stop-color="#FFDA7C"/>
<stop offset="0.881052" stop-color="#FFDA7C"/>
<stop offset="0.973958" stop-color="#FFDA7C" stop-opacity="0"/>
</linearGradient>
</defs>
</svg>
