<svg width="39" height="33" viewBox="0 0 39 33" fill="none" xmlns="http://www.w3.org/2000/svg">
<path d="M0 18.1103C0 22.1415 2.2522 26.323 5.74003 28.7633C9.04813 31.0787 13.436 32.2034 19.1536 32.2034C24.8711 32.2034 29.259 31.0773 32.5671 28.7633C36.0535 26.323 38.3071 22.1415 38.3071 18.1103C38.3071 15.361 37.6668 12.901 35.7572 10.382C35.7572 10.382 35.7572 10.3792 35.7558 10.3778L36.0001 2.69169C35.9075 1.69898 35.3262 0.825621 34.4486 0.353837C33.5696 -0.117946 32.5207 -0.117946 31.6432 0.353837L25.1814 4.65886C25.1814 4.65886 25.1786 4.65886 25.1758 4.65886C23.4558 4.27132 21.358 4.15619 19.155 4.15619C16.9519 4.15619 14.8527 4.27273 13.1341 4.65886C13.1327 4.65886 13.1299 4.65886 13.1285 4.65886L6.66674 0.353837C5.78776 -0.116542 4.73889 -0.116542 3.86132 0.353837C2.98234 0.825621 2.40244 1.69898 2.30976 2.69169L2.55408 10.3778C2.55408 10.3778 2.55408 10.3806 2.55267 10.382C0.643076 12.8996 0.00281098 15.361 0.00281098 18.1103H0Z" fill="white"/>
<path d="M18.7325 22.4045C19.4235 22.4045 19.9836 21.8444 19.9836 21.1534C19.9836 20.4625 19.4235 19.9023 18.7325 19.9023C18.0416 19.9023 17.4814 20.4625 17.4814 21.1534C17.4814 21.8444 18.0416 22.4045 18.7325 22.4045Z" fill="#786565"/>
<path d="M15.6953 23.924C15.9284 24.1782 16.3454 24.4787 17.0278 24.5068C18.1652 24.5531 18.6734 23.7949 18.7268 23.7092C18.7296 23.705 18.7338 23.705 18.7366 23.7092C18.79 23.7949 19.2983 24.5545 20.4356 24.5068C21.118 24.4787 21.535 24.1796 21.7681 23.924" stroke="#786565" stroke-width="1.40412" stroke-miterlimit="10" stroke-linecap="round"/>
<path d="M10.9359 16.4287C10.7043 17.3891 10.5372 18.4169 10.7267 19.1288C10.9163 19.8407 11.4625 20.2367 11.9834 20.3616C12.5043 20.4866 13.1713 20.3827 13.6641 19.8351C14.157 19.2875 14.4757 18.2962 14.7074 17.3358C14.7537 17.142 14.7987 16.9454 14.8366 16.7489C15.043 15.707 14.2469 14.7354 13.1853 14.7354H12.4145C11.8248 14.7354 11.301 15.1215 11.1325 15.6859C11.0595 15.9288 10.9949 16.1788 10.9345 16.4259L10.9359 16.4287Z" fill="#F0D265"/>
<path d="M23.5961 16.4283C23.3644 17.3887 23.1973 18.4165 23.3869 19.1284C23.5764 19.8403 24.1227 20.2363 24.6436 20.3612C25.1645 20.4862 25.8315 20.3823 26.3243 19.8347C26.8172 19.2871 27.1359 18.2958 27.3676 17.3353C27.4518 16.9857 27.5276 16.6263 27.581 16.278C27.7045 15.4665 27.0769 14.7363 26.2569 14.7363H25.3358C24.5818 14.7363 23.9134 15.2362 23.7155 15.9635C23.6733 16.118 23.634 16.2724 23.5961 16.4269V16.4283Z" fill="#9AB0FF"/>
<path d="M35.7544 10.382C35.7544 10.382 35.7544 10.3792 35.753 10.3778L35.9973 2.69169C35.9047 1.69898 35.3233 0.825621 34.4458 0.353837C33.5668 -0.117946 32.5179 -0.117946 31.6404 0.353837L25.1786 4.65886C25.1786 4.65886 25.1758 4.65886 25.173 4.65886C23.453 4.27132 21.3552 4.15619 19.1521 4.15619C16.9491 4.15619 14.8499 4.27273 13.1313 4.65886C13.1299 4.65886 13.1271 4.65886 13.1257 4.65886L6.66393 0.353837C5.78495 -0.116542 4.73608 -0.116542 3.85851 0.353837C2.97953 0.825621 2.39963 1.69898 2.30695 2.69169L2.55127 10.3778C2.55127 10.3778 2.55127 10.3806 2.54986 10.382C0.640265 12.8996 0 15.361 0 18.1103C0 22.1415 2.2522 26.323 5.74003 28.7633C9.04813 31.0787 13.436 32.2034 19.1535 32.2034C24.8711 32.2034 29.259 31.0773 32.5671 28.7633C36.0535 26.323 38.3071 22.1415 38.3071 18.1103C38.3071 15.361 37.6668 12.901 35.7572 10.382H35.7544ZM31.5182 27.2679C28.5274 29.3615 24.4822 30.3781 19.1507 30.3781C13.8193 30.3781 9.77404 29.3601 6.78328 27.2679C3.77004 25.159 1.82254 21.5644 1.82254 18.1103C1.82254 15.6461 2.61025 13.1229 3.98488 11.1908C3.98488 11.1908 4.08879 11.0392 4.1267 10.9914C4.43139 10.5997 5.07026 9.8218 6.10088 9.01302C6.10649 9.00881 6.10368 8.99898 6.09666 9.00039C5.91694 9.04251 4.94811 9.28261 4.21516 9.71087C4.20954 9.71368 4.20392 9.71087 4.20532 9.70385L4.12389 2.8644C4.1604 2.47686 4.37804 2.1483 4.72204 1.96436C5.06184 1.78182 5.45078 1.78042 5.79057 1.95734L12.0136 5.87904C12.0136 5.87904 12.0192 5.88886 12.0136 5.89167C11.5081 6.19356 10.8061 6.47017 10.2079 7.05849C10.2023 7.06411 10.2079 7.07394 10.2135 7.07113C10.427 7.00654 11.862 6.5839 13.7435 6.32555C15.9831 6.01945 16.9014 5.98154 19.1521 5.98154C21.4029 5.98154 22.3212 6.01804 24.5608 6.32555C26.4423 6.5825 27.8773 7.00514 28.0907 7.07113C28.0978 7.07394 28.102 7.06411 28.0964 7.05849C27.4982 6.47017 26.7948 6.19356 26.2907 5.89167C26.2865 5.88886 26.2865 5.88184 26.2907 5.87904L32.5137 1.95734C32.8549 1.77902 33.2438 1.78182 33.5822 1.96436C33.9262 2.1483 34.1439 2.47686 34.1804 2.8644L34.099 9.70385C34.099 9.70385 34.0934 9.71368 34.0891 9.71087C33.3562 9.28261 32.3873 9.04251 32.2076 9.00039C32.2006 8.99898 32.1964 9.00881 32.2034 9.01302C33.234 9.8218 33.8729 10.5997 34.1776 10.9914C34.2155 11.0392 34.3194 11.1908 34.3194 11.1908C35.6926 13.1243 36.4817 15.6461 36.4817 18.1103C36.4817 21.5644 34.5342 25.159 31.521 27.2679H31.5182Z" fill="#786565"/>
</svg>
