<svg width="390" height="214" viewBox="0 0 390 214" fill="none" xmlns="http://www.w3.org/2000/svg">
<mask id="mask0_912_6789" style="mask-type:alpha" maskUnits="userSpaceOnUse" x="0" y="0" width="390" height="214">
<rect width="390" height="214" fill="white"/>
</mask>
<g mask="url(#mask0_912_6789)">
<path d="M141.958 100.741C141.287 100.521 140.615 100.353 139.944 100.225C139.944 100.225 135.834 99.085 129.762 103.189C129.762 103.189 134.132 99.0503 138.751 98.0836C137.293 95.9823 135.162 94.321 132.54 93.47C129.906 92.6133 127.192 92.7175 124.76 93.5626C124.76 93.5626 122.277 94.0778 117.64 97.3137C117.64 97.3137 120.135 93.6553 123.464 92.0807C122.173 90.8246 120.587 89.829 118.757 89.2327C115.14 88.0576 111.377 88.6712 108.407 90.5815C107.591 91.143 105.976 92.4744 103.516 95.4324C103.516 95.4324 104.286 93.0706 105.965 90.6394C98.503 89.3948 91.7477 95.1835 86.6421 100.44C39.5284 148.948 7.32617 216.235 7.32617 216.235L87.4641 242.302C99.7534 181.44 119.62 149.064 132.957 133.238C141.391 135.183 150.057 130.396 152.789 122.014C155.672 113.151 150.827 103.629 141.958 100.746V100.741Z" fill="url(#paint0_radial_912_6789)"/>
<path d="M144.569 94.2922C143.533 92.7698 142.288 91.4094 140.876 90.2517C140.673 90.0838 140.47 89.9275 140.262 89.7654C139.637 89.2966 138.983 88.8624 138.3 88.4688C137.165 87.8147 135.955 87.2763 134.687 86.8653C134.375 86.7669 134.062 86.6685 133.75 86.5875C133.437 86.5065 133.125 86.4254 132.806 86.3559C132.494 86.2865 132.175 86.2286 131.857 86.1765C130.271 85.916 128.667 85.8581 127.075 86.0028C125.258 84.5152 123.174 83.369 120.899 82.6339C120.598 82.5354 120.297 82.4486 119.996 82.3676C115.469 81.1404 110.653 81.6324 106.485 83.699C104.286 83.3979 102.173 83.4964 100.158 83.8784C99.151 84.0694 98.1728 84.3299 97.2234 84.6483C96.2741 84.9667 95.3479 85.3429 94.4564 85.7597C93.8602 86.0376 93.2813 86.3328 92.7198 86.6454C92.1584 86.958 91.6027 87.2821 91.0701 87.6237C90.8038 87.7915 90.5375 87.9652 90.277 88.1388C86.3871 90.7379 83.3944 93.8175 81.6462 95.6178C72.3554 105.186 63.6493 115.473 55.7189 125.707C53.7392 128.266 51.8 130.824 49.9187 133.36C47.4064 136.746 44.9867 140.109 42.6713 143.415C41.5136 145.07 40.3732 146.708 39.2618 148.329C37.0389 151.571 34.9203 154.749 32.9058 157.822C31.8986 159.362 30.9203 160.873 29.971 162.361C29.4963 163.102 29.0275 163.837 28.5644 164.566C26.7178 167.478 24.987 170.274 23.372 172.925C9.40976 195.842 1.38671 212.548 1.05097 213.249L-2.37012 220.398L93.3971 247.998L94.2654 243.685C99.6431 217.052 106.995 193.544 116.118 173.805C117.617 170.557 119.157 167.426 120.737 164.416C121.524 162.911 122.323 161.435 123.133 159.987C123.944 158.54 124.76 157.122 125.588 155.739C126.416 154.355 127.249 153.001 128.094 151.675C128.939 150.349 129.79 149.058 130.653 147.797C132.372 145.273 134.132 142.876 135.915 140.613C137.541 140.671 139.162 140.561 140.76 140.289C141.292 140.196 141.819 140.086 142.346 139.959C144.447 139.449 146.491 138.651 148.412 137.568C150.045 136.653 151.55 135.554 152.899 134.309C153.437 133.811 153.958 133.29 154.444 132.74C156.655 130.286 158.346 127.38 159.388 124.173C163.399 111.838 156.76 98.5468 144.563 94.3037L144.569 94.2922ZM152.789 122.014C150.062 130.402 141.391 135.189 132.957 133.238C119.834 148.81 100.39 180.398 88.06 239.379L7.37216 216.12C8.7788 213.202 40.5816 147.854 86.6244 100.445C91.73 95.1894 98.4853 89.4008 105.947 90.6453C104.268 93.0766 103.498 95.4383 103.498 95.4383C105.958 92.4803 107.574 91.1489 108.39 90.5874C111.359 88.683 115.122 88.0636 118.74 89.2387C120.569 89.8349 122.155 90.8248 123.446 92.0867C120.123 93.6612 117.623 97.3196 117.623 97.3196C122.259 94.0838 124.743 93.5686 124.743 93.5686C127.174 92.7177 129.883 92.6193 132.523 93.476C135.145 94.3269 137.269 95.9882 138.734 98.0895C134.12 99.0562 129.744 103.195 129.744 103.195C135.816 99.0909 139.926 100.231 139.926 100.231C140.598 100.364 141.275 100.532 141.941 100.746C150.803 103.629 155.654 113.152 152.771 122.014H152.789Z" fill="#786565"/>
<path d="M279.878 45.6861C284.578 43.4459 287.432 38.2998 286.535 32.9048C286.043 29.9641 284.515 27.4576 282.39 25.6863L282.234 17.6227C282.217 16.6966 281.076 16.2682 280.451 16.957L275.062 22.9078C274.298 22.8846 273.528 22.9309 272.746 23.0641C271.728 23.2319 270.761 23.5272 269.858 23.9266C269.088 19.643 266.113 16.3029 262.304 14.8558L259.942 7.64892C259.653 6.76905 258.437 6.69379 258.043 7.53315L254.75 14.5432C250.692 15.7067 247.641 18.8962 246.536 22.7978C244.023 19.1741 239.601 17.0902 234.97 17.7617L229.638 12.2683C228.996 11.6026 227.867 12.0714 227.879 12.9976L228 21.3738C225.505 24.0076 224.22 27.7297 224.863 31.5849C224.915 31.886 224.979 32.1812 225.048 32.4706C224.07 32.3838 223.063 32.4243 222.044 32.5922C219.537 33.0089 217.343 34.184 215.653 35.8396L208.157 34.7571C207.242 34.624 206.634 35.6833 207.208 36.4069L212.168 42.647C211.989 43.8569 211.989 45.113 212.197 46.3807C213.21 52.4414 218.605 56.6729 224.602 56.3719C231.63 81.9924 255.207 148.29 294.037 230.367L380.184 215.999C380.184 215.999 301.736 117.847 279.872 45.6803L279.878 45.6861Z" fill="url(#paint1_radial_912_6789)"/>
<circle cx="4.72497" cy="4.72497" r="4.72497" transform="matrix(-1 0 0 1 285.676 14.1748)" fill="#DCCBFF"/>
<circle cx="4.72497" cy="4.72497" r="4.72497" transform="matrix(-1 0 0 1 264.076 4.05005)" fill="#DCCBFF"/>
<circle cx="4.72497" cy="4.72497" r="4.72497" transform="matrix(-1 0 0 1 234.376 9.44995)" fill="#DCCBFF"/>
<circle cx="4.72497" cy="4.72497" r="4.72497" transform="matrix(-1 0 0 1 213.451 31.7249)" fill="#DCCBFF"/>
<path d="M385.619 211.669C385.423 211.426 365.88 186.9 343.947 153.957C316.648 112.944 297.395 76.5742 288.011 48.3372C292.283 44.0941 294.414 37.9235 293.389 31.7643C292.839 28.4532 291.409 25.3621 289.285 22.8035L289.181 17.4896C289.134 15.1683 288.092 12.9918 286.31 11.5157C284.521 10.028 282.182 9.39704 279.896 9.77909C278.136 10.0743 276.509 10.9658 275.305 12.2914L273.164 14.6589C271.757 12.8008 270.015 11.2031 268.017 9.96433L266.553 5.48971C265.32 1.72131 261.58 -0.542048 257.662 0.112068C255.086 0.540428 252.88 2.21334 251.763 4.58669L249.627 9.13077C247.867 10.0164 246.258 11.1684 244.863 12.5345C242.675 11.4867 240.29 10.8674 237.824 10.7284L234.634 7.44049C232.811 5.56497 230.189 4.69667 227.613 5.12503C223.694 5.77915 220.886 9.13656 220.944 13.1076L221.031 19.0062C219.486 21.2695 218.461 23.8108 218.015 26.4735C216.499 26.9829 215.051 27.6776 213.714 28.5516L209.159 27.8917C208.337 27.776 207.515 27.7818 206.698 27.9149C203.931 28.378 201.587 30.294 200.574 32.9221C199.567 35.5443 200.03 38.537 201.778 40.7367L205.107 44.9161C205.13 45.7902 205.211 46.6643 205.355 47.5268C206.612 55.0462 212.169 60.8696 219.196 62.722C226.872 88.7419 249.135 151.693 287.763 233.342L290.008 238.089L295.184 237.226L381.33 222.859L393 220.914L385.614 211.669H385.619ZM269.274 175.583C268.284 173.291 267.311 171.022 266.356 168.776C265.401 166.53 264.457 164.301 263.531 162.096C259.827 153.279 256.359 144.828 253.146 136.788C251.537 132.765 249.992 128.851 248.51 125.042C245.54 117.425 242.819 110.241 240.354 103.538C239.121 100.186 237.945 96.956 236.84 93.8591C234.623 87.6536 232.655 81.9576 230.941 76.8173C230.513 75.5322 230.102 74.2819 229.702 73.0663C227.526 66.3862 225.83 60.7828 224.62 56.3776C221.251 56.5455 218.067 55.2836 215.746 53.0665C213.94 51.3415 212.661 49.0376 212.215 46.3864C212.151 46.0218 212.117 45.6571 212.088 45.2982C212.076 45.1593 212.076 45.0203 212.07 44.8872C212.059 44.673 212.059 44.4588 212.059 44.2446C212.059 44.071 212.064 43.9031 212.076 43.7295C212.088 43.5558 212.105 43.3879 212.122 43.2201C212.14 43.0348 212.157 42.8438 212.186 42.6586C212.574 40.0479 213.818 37.663 215.671 35.8511C215.821 35.7006 215.983 35.5617 216.145 35.4228C216.244 35.3417 216.336 35.2549 216.435 35.1739C216.591 35.0465 216.747 34.9249 216.91 34.8034C217.031 34.7108 217.153 34.6297 217.28 34.5429C217.431 34.4387 217.581 34.3345 217.743 34.2361C218.009 34.0682 218.287 33.9119 218.571 33.7672C218.687 33.7093 218.802 33.6572 218.918 33.6051C219.127 33.5067 219.341 33.4083 219.561 33.3215C219.688 33.2694 219.815 33.2231 219.943 33.1768C220.174 33.0957 220.406 33.0147 220.643 32.9452C220.759 32.9105 220.869 32.8758 220.985 32.8468C221.338 32.7542 221.697 32.6732 222.067 32.6095C223.08 32.4416 224.087 32.4069 225.072 32.4879C225.002 32.1985 224.933 31.9033 224.886 31.6023C224.823 31.2376 224.788 30.8671 224.759 30.5082C224.759 30.4387 224.747 30.3751 224.742 30.3056C224.724 29.9641 224.718 29.6225 224.73 29.2868C224.73 29.2 224.736 29.1189 224.742 29.0321C224.759 28.7022 224.782 28.378 224.828 28.0538C224.84 27.9728 224.857 27.8975 224.869 27.8223C224.909 27.5734 224.956 27.3245 225.008 27.0755C225.031 26.9598 225.06 26.8382 225.089 26.7224C225.153 26.4619 225.234 26.2015 225.315 25.9468C225.367 25.7905 225.419 25.64 225.477 25.4837C225.529 25.339 225.587 25.2 225.645 25.0611C225.755 24.7948 225.876 24.5285 226.009 24.2681C226.05 24.1928 226.09 24.1176 226.125 24.0365C226.64 23.0698 227.277 22.1784 228.03 21.3853C229.76 19.5619 232.064 18.2537 234.739 17.8079C234.825 17.7906 234.912 17.7848 234.999 17.7732C237.025 17.478 239.011 17.7153 240.811 18.3694C240.811 18.3694 240.822 18.3694 240.828 18.3694C241.077 18.4621 241.326 18.5605 241.569 18.6704C241.587 18.6762 241.604 18.6878 241.621 18.6936C241.853 18.7978 242.079 18.9078 242.304 19.0236C242.333 19.0409 242.362 19.0583 242.391 19.0699C242.6 19.1856 242.808 19.3014 243.011 19.423C243.057 19.4519 243.097 19.4809 243.144 19.5098C243.329 19.6256 243.514 19.7471 243.688 19.8745C243.746 19.915 243.804 19.9671 243.867 20.0076C244.024 20.1234 244.186 20.245 244.336 20.3723C244.411 20.436 244.481 20.4997 244.556 20.5633C244.689 20.6791 244.822 20.7891 244.95 20.9106C245.042 20.9975 245.129 21.0901 245.216 21.1769C245.32 21.2811 245.43 21.3853 245.529 21.4953C245.639 21.6169 245.749 21.75 245.853 21.8773C245.922 21.9584 245.997 22.0394 246.067 22.1263C246.241 22.3404 246.408 22.5662 246.565 22.792C246.64 22.5373 246.721 22.2826 246.808 22.0279C246.837 21.941 246.877 21.8542 246.906 21.7674C246.97 21.6053 247.028 21.4432 247.097 21.2869C247.144 21.1827 247.196 21.0785 247.242 20.9743C247.306 20.8412 247.369 20.708 247.433 20.5749C247.491 20.4591 247.555 20.3491 247.612 20.2392C247.676 20.1234 247.74 20.0076 247.809 19.8918C247.879 19.7703 247.954 19.6545 248.029 19.5387C248.093 19.4403 248.162 19.3361 248.226 19.2435C248.313 19.122 248.4 18.9946 248.487 18.8788C248.55 18.7978 248.614 18.7168 248.678 18.6357C248.782 18.5084 248.886 18.3752 248.99 18.2479C249.042 18.19 249.094 18.1263 249.146 18.0684C249.274 17.9295 249.395 17.7906 249.529 17.6516C249.557 17.6227 249.581 17.5995 249.61 17.5706C251.01 16.1698 252.759 15.1046 254.761 14.5316C255.201 14.4042 255.647 14.2942 256.11 14.219C258.275 13.8601 260.4 14.1148 262.316 14.8384C263.022 15.1046 263.699 15.4404 264.342 15.834C264.365 15.8514 264.388 15.863 264.411 15.8803C264.782 16.1119 265.135 16.3608 265.476 16.6271C265.528 16.6676 265.586 16.7081 265.638 16.7544C265.8 16.8875 265.957 17.0207 266.107 17.1596C266.194 17.2407 266.281 17.3217 266.368 17.4027C266.576 17.6053 266.779 17.8079 266.975 18.0279C267.091 18.1553 267.207 18.2826 267.317 18.4157C267.415 18.5373 267.514 18.6589 267.606 18.7804C267.745 18.9599 267.879 19.1451 268.006 19.3361C268.081 19.4519 268.162 19.5677 268.232 19.6835C268.376 19.915 268.509 20.1465 268.637 20.3839C268.689 20.4823 268.741 20.5807 268.793 20.6849C268.932 20.9627 269.065 21.2522 269.187 21.5416C269.198 21.5763 269.216 21.6053 269.227 21.64C269.349 21.9526 269.459 22.271 269.551 22.6009C269.58 22.6878 269.604 22.7746 269.627 22.8672C269.719 23.2087 269.806 23.5561 269.87 23.9149C270.773 23.5155 271.74 23.2203 272.758 23.0524C273.152 22.9888 273.54 22.9425 273.928 22.9193C274.31 22.8961 274.692 22.8904 275.068 22.8962C277.812 22.9714 280.376 23.9902 282.402 25.6805C282.634 25.8773 282.86 26.0857 283.079 26.2941C283.12 26.3346 283.166 26.3751 283.207 26.4156C283.398 26.6067 283.583 26.8151 283.763 27.0177C283.826 27.0871 283.884 27.1566 283.948 27.2318C284.11 27.4229 284.26 27.6197 284.405 27.8223C284.48 27.9207 284.55 28.0249 284.619 28.1291C284.747 28.3143 284.874 28.5053 284.99 28.7022C285.071 28.8353 285.146 28.9684 285.221 29.1074C285.32 29.2868 285.418 29.4663 285.505 29.6515C285.586 29.8194 285.661 29.9988 285.736 30.1725C285.806 30.3403 285.881 30.5024 285.945 30.6703C286.026 30.8903 286.095 31.1218 286.165 31.3476C286.205 31.4807 286.252 31.6138 286.292 31.747C286.391 32.1175 286.477 32.4995 286.541 32.8873C287.201 36.8468 285.835 40.6673 283.201 43.3069C282.246 44.262 281.135 45.0666 279.884 45.6629C301.748 117.83 380.195 215.976 380.195 215.982L294.049 230.349C288.59 218.807 283.427 207.577 278.576 196.729C275.34 189.499 272.237 182.431 269.279 175.56L269.274 175.583ZM281.036 16.6386C281.609 16.546 282.223 16.9512 282.234 17.6285L282.333 22.7977C280.724 21.7847 278.912 21.0843 276.996 20.7775L280.451 16.9628C280.619 16.7776 280.822 16.6734 281.036 16.6386ZM258.796 6.96582C259.259 6.89056 259.769 7.1279 259.942 7.65466L261.424 12.1814C259.688 11.753 257.847 11.6488 255.983 11.9209L258.044 7.53889C258.2 7.20315 258.489 7.01791 258.796 6.96582ZM228.747 11.9788C229.054 11.9267 229.384 12.0135 229.645 12.2798L233.06 15.7993C231.161 16.2971 229.448 17.1712 227.966 18.3173L227.891 13.0092C227.885 12.4534 228.29 12.0598 228.753 11.9846L228.747 11.9788ZM207.839 34.7686C207.943 34.7513 208.047 34.7513 208.163 34.7686L212.904 35.4517C211.746 36.8873 210.866 38.5486 210.328 40.3315L207.214 36.4184C206.71 35.7817 207.109 34.8902 207.839 34.7686Z" fill="#786565"/>
</g>
<defs>
<radialGradient id="paint0_radial_912_6789" cx="0" cy="0" r="1" gradientUnits="userSpaceOnUse" gradientTransform="translate(40.3153 242.324) rotate(-59.9158) scale(169.668 161.528)">
<stop stop-color="#FFFEEE"/>
<stop offset="0.796559" stop-color="#A39489"/>
</radialGradient>
<radialGradient id="paint1_radial_912_6789" cx="0" cy="0" r="1" gradientUnits="userSpaceOnUse" gradientTransform="translate(338.663 238.274) rotate(-114.216) scale(294.568 294.568)">
<stop stop-color="#FFFEEE"/>
<stop offset="0.468074" stop-color="#A39489"/>
</radialGradient>
</defs>
</svg>
