<svg width="46" height="59" viewBox="0 0 46 59" fill="none" xmlns="http://www.w3.org/2000/svg">
<rect x="1" y="14" width="44" height="44" fill="url(#paint0_linear_1480_6137)" stroke="#2CA6A9" stroke-width="2"/>
<rect x="6.5" y="19.5" width="33" height="33" fill="url(#paint1_linear_1480_6137)" stroke="white"/>
<mask id="mask0_1480_6137" style="mask-type:alpha" maskUnits="userSpaceOnUse" x="8" y="24" width="29" height="24">
<path d="M13.0112 45.3569C15.4479 47.0624 18.6799 47.8909 22.8914 47.8909C27.1029 47.8909 30.3349 47.0614 32.7716 45.3569C35.3397 43.5594 36.9996 40.4794 36.9996 37.5101C36.9996 35.485 36.528 33.672 35.1204 31.8165L34.7832 26.6711C34.715 25.9399 34.2868 25.2966 33.6404 24.9491C32.9929 24.6016 32.2204 24.6016 31.5729 24.9491L27.3283 27.604C26.0614 27.3186 24.5152 27.2327 22.8914 27.2327C21.2676 27.2327 19.7214 27.3186 18.4545 27.604L14.2099 24.9491C13.5625 24.6026 12.7899 24.6026 12.1425 24.9491C11.495 25.2966 11.0679 25.9399 10.9996 26.6711L10.6624 31.8165C9.25482 33.672 8.7832 35.485 8.7832 37.5101C8.7832 40.4794 10.4421 43.5594 13.0112 45.3569Z" fill="#D9D9D9"/>
</mask>
<g mask="url(#mask0_1480_6137)">
<path d="M13.0107 45.3569C15.4474 47.0624 18.6795 47.8909 22.8909 47.8909C27.1024 47.8909 30.3344 47.0614 32.7711 45.3569C35.3392 43.5594 36.9991 40.4794 36.9991 37.5101C36.9991 35.485 36.5275 33.672 35.1199 31.8165L34.7827 26.6711C34.7145 25.9399 34.2863 25.2966 33.6399 24.9491C32.9925 24.6016 32.2199 24.6016 31.5724 24.9491L27.3279 27.604C26.0609 27.3186 24.5147 27.2327 22.8909 27.2327C21.2672 27.2327 19.721 27.3186 18.454 27.604L14.2094 24.9491C13.562 24.6026 12.7894 24.6026 12.142 24.9491C11.4945 25.2966 11.0674 25.9399 10.9991 26.6711L10.6619 31.8165C9.25433 33.672 8.78271 35.485 8.78271 37.5101C8.78271 40.4794 10.4417 43.5594 13.0107 45.3569Z" fill="url(#paint2_radial_1480_6137)"/>
<g filter="url(#filter0_f_1480_6137)">
<path d="M27.6136 40.9561C25.724 38.4759 24.8956 37.3052 22.6244 37.3052C20.3532 37.3052 19.5247 38.4759 17.6341 40.9561C16.6071 42.3037 14.2335 43.9285 12.5156 44.214C12.6904 44.3557 12.8693 44.4922 13.0545 44.6215C15.4912 46.3269 18.7232 47.1554 22.9347 47.1554C27.1461 47.1554 30.3782 46.3259 32.8149 44.6215C32.9814 44.5056 33.1438 44.3836 33.302 44.2564C31.5841 44.3091 28.7606 42.4599 27.6147 40.9561H27.6136Z" fill="white"/>
</g>
<path d="M22.5807 40.1565C23.0896 40.1565 23.5022 39.7439 23.5022 39.235C23.5022 38.7261 23.0896 38.3135 22.5807 38.3135C22.0718 38.3135 21.6592 38.7261 21.6592 39.235C21.6592 39.7439 22.0718 40.1565 22.5807 40.1565Z" fill="#786565"/>
<path d="M25.0014 40.7998C25.0014 40.7998 24.7232 41.4597 23.8358 41.4969C23.0033 41.531 22.6289 40.9798 22.5854 40.9105C22.5833 40.9074 22.5792 40.9074 22.5771 40.9105C22.5337 40.9798 22.1593 41.531 21.3267 41.4969C20.4383 41.4607 20.1611 40.7998 20.1611 40.7998" stroke="#786565" stroke-width="1.03425" stroke-miterlimit="10" stroke-linecap="round"/>
<path d="M19.7186 36.9641C19.8893 36.2566 19.8872 35.5761 19.7476 35.0517C19.608 34.5274 19.1808 34.336 18.7971 34.244C18.4134 34.1519 17.947 34.1271 17.5839 34.5305C17.2209 34.9338 16.9096 35.5389 16.739 36.2463C16.5683 36.9537 16.5704 37.6342 16.71 38.1586C16.71 38.1607 16.711 38.1627 16.7121 38.1648C16.7865 38.4399 17.0472 38.623 17.3316 38.623H18.5996C18.8116 38.623 19.0133 38.5216 19.1312 38.3448C19.3815 37.9714 19.5904 37.4967 19.7186 36.9641Z" fill="#786565"/>
<path d="M29.0443 36.9641C29.215 36.2566 29.2129 35.5761 29.0733 35.0517C28.9337 34.5274 28.5065 34.336 28.1228 34.244C27.7391 34.1519 27.2727 34.1271 26.9096 34.5305C26.5466 34.9338 26.2353 35.5389 26.0646 36.2463C25.894 36.9537 25.8961 37.6342 26.0357 38.1586C26.0357 38.1607 26.0367 38.1627 26.0378 38.1648C26.1122 38.4399 26.3729 38.623 26.6573 38.623H27.9253C28.1373 38.623 28.339 38.5216 28.4569 38.3448C28.7072 37.9714 28.9161 37.4967 29.0443 36.9641Z" fill="#786565"/>
<g filter="url(#filter1_f_1480_6137)">
<path d="M19.1398 30.3081C19.5446 31.9485 19.5036 32.548 20.1912 32.548H20.1942C20.8818 32.548 20.8408 31.4538 21.2456 29.8135C21.2816 29.669 21.3216 29.5315 21.3655 29.3989C21.3925 29.3178 21.4195 29.2387 21.4485 29.1625C21.5185 28.9794 21.7863 28.9943 21.8363 29.1842C21.8443 29.2139 21.8513 29.2436 21.8593 29.2733C21.9162 29.5038 21.9642 29.7244 22.0072 29.9312C22.0212 30.0005 22.0352 30.0687 22.0482 30.135C22.0652 30.2231 22.0822 30.3091 22.0981 30.3932C22.1381 30.602 22.1741 30.7929 22.2111 30.9661C22.2261 31.0353 22.2411 31.1016 22.2561 31.1639C22.386 31.6992 22.5459 32.0078 22.9117 32.0078H22.9147C23.3015 32.0078 23.4574 31.6616 23.5923 31.067C23.6073 31.0007 23.6223 30.9314 23.6363 30.8592C23.6433 30.8236 23.6513 30.786 23.6583 30.7484C23.6733 30.6732 23.6883 30.595 23.7033 30.5149C23.7183 30.4348 23.7342 30.3507 23.7512 30.2646C23.8092 29.9638 23.8762 29.6314 23.9651 29.2723C23.9721 29.2426 23.9801 29.2129 23.9881 29.1832C24.0381 28.9933 24.3059 28.9785 24.3759 29.1615C24.4049 29.2367 24.4319 29.3148 24.4578 29.395C24.5018 29.5285 24.5428 29.667 24.5788 29.8125C24.9836 31.4528 24.9426 32.547 25.6302 32.547H25.6332C26.3208 32.547 26.2798 31.9475 26.6846 30.3071C27.0894 28.6668 30.0987 28.2602 30.0987 28.2602L29.679 27.3886L27.83 27.536C26.4198 27.2896 24.8097 27.1699 22.9107 27.1699C21.0117 27.1699 19.4016 27.2896 17.9914 27.536L16.1424 27.3886L15.7227 28.2602C15.7227 28.2602 18.733 28.6668 19.1368 30.3071L19.1398 30.3081Z" fill="#EEBB37"/>
</g>
<g filter="url(#filter2_f_1480_6137)">
<path d="M35.9232 33.6857L35.0653 33.5825C35.0653 33.5825 34.6506 34.8437 34.0637 34.9264C32.5429 35.1395 31.5516 34.9005 31.471 35.5029V35.5059C31.3893 36.1083 32.3816 36.2109 33.8146 36.7715C33.9911 36.8412 34.1575 36.9168 34.3117 36.9965C34.4923 37.0901 34.4388 37.357 34.2361 37.3769H34.2301C32.7013 37.5252 31.718 37.352 31.6373 37.9534V37.9564C31.5557 38.5588 32.548 38.6614 33.981 39.222L33.989 39.225C34.1776 39.2986 34.1544 39.5705 33.9558 39.6113C33.7874 39.6461 33.6078 39.673 33.4203 39.692C31.8915 39.8393 30.9082 39.6661 30.8276 40.2685V40.2715C30.7459 40.8739 31.5476 41.0292 32.0619 41.537C33.4203 42.8783 32.9492 43.0974 32.9492 43.0974H34.0647C35.5905 41.3957 36.5102 39.1801 36.5102 37.0254C36.5102 35.8932 36.3064 34.7531 35.9242 33.6867L35.9232 33.6857Z" fill="#EEBB37"/>
</g>
<g filter="url(#filter3_f_1480_6137)">
<path d="M9.89707 33.6857L10.755 33.5825C10.755 33.5825 11.1697 34.8437 11.7566 34.9264C13.2774 35.1395 14.2687 34.9005 14.3494 35.5029V35.5059C14.431 36.1083 13.4387 36.2109 12.0057 36.7715C11.8293 36.8412 11.6629 36.9168 11.5086 36.9965C11.3281 37.0901 11.3815 37.357 11.5842 37.3769H11.5903C13.1191 37.5252 14.1023 37.352 14.183 37.9534V37.9564C14.2647 38.5588 13.2723 38.6614 11.8393 39.222L11.8313 39.225C11.6427 39.2986 11.6659 39.5705 11.8645 39.6113C12.033 39.6461 12.2125 39.673 12.4 39.692C13.9288 39.8393 14.9121 39.6661 14.9927 40.2685V40.2715C15.0744 40.8739 14.2727 41.0292 13.7584 41.537C12.4 42.8783 12.8711 43.0974 12.8711 43.0974H11.7556C10.2299 41.3957 9.31016 39.1801 9.31016 37.0254C9.31016 35.8932 9.51386 34.7531 9.89606 33.6867L9.89707 33.6857Z" fill="#EEBB37"/>
</g>
</g>
<path d="M35.1204 31.8165L34.7832 26.6711C34.715 25.9399 34.2868 25.2966 33.6404 24.9491C32.9929 24.6016 32.2204 24.6016 31.5729 24.9491L27.3283 27.604C26.0614 27.3186 24.5152 27.2327 22.8914 27.2327C21.2676 27.2327 19.7214 27.3186 18.4545 27.604L14.2099 24.9491C13.5625 24.6026 12.7899 24.6026 12.1425 24.9491C11.495 25.2966 11.0679 25.9399 10.9996 26.6711L10.6624 31.8165C9.25482 33.672 8.7832 35.485 8.7832 37.5101C8.7832 40.4794 10.4421 43.5594 13.0112 45.3569C15.4479 47.0624 18.6799 47.8909 22.8914 47.8909C27.1029 47.8909 30.3349 47.0614 32.7716 45.3569C35.3397 43.5594 36.9996 40.4794 36.9996 37.5101C36.9996 35.485 36.528 33.672 35.1204 31.8165ZM32.0011 44.2555C29.7981 45.7975 26.8185 46.5463 22.8914 46.5463C18.9644 46.5463 15.9847 45.7965 13.7817 44.2555C11.5622 42.702 10.1277 40.0543 10.1277 37.5101C10.1277 35.695 10.7079 33.8364 11.7205 32.4133C11.7205 32.4133 11.797 32.3016 11.8249 32.2664C12.0504 31.9748 12.5272 31.3956 13.2967 30.7947C13.2967 30.7947 12.4786 30.9747 11.8797 31.3284L12.3379 26.7983C12.3648 26.5129 12.5251 26.2709 12.7785 26.1354C13.0288 26.0009 13.3153 25.9999 13.5656 26.1302L17.6395 28.5059C17.262 28.7324 16.7325 28.9392 16.2857 29.386C16.2857 29.386 17.4026 29.0365 18.9064 28.8307C20.5561 28.6052 21.2325 28.5773 22.8904 28.5773C24.5483 28.5773 25.2247 28.6041 26.8743 28.8307C28.3781 29.0365 29.4951 29.386 29.4951 29.386C29.0483 28.9392 28.5188 28.7324 28.1413 28.5059L32.2152 26.1302C32.4665 25.9989 32.753 26.0009 33.0023 26.1354C33.2556 26.2709 33.416 26.5129 33.4428 26.7983L33.901 31.3284C33.3022 30.9757 32.4841 30.7947 32.4841 30.7947C33.2536 31.3956 33.7304 31.9758 33.9558 32.2664C33.9838 32.3016 34.0603 32.4133 34.0603 32.4133C35.0718 33.8375 35.653 35.695 35.653 37.5101C35.653 40.0543 34.2185 42.702 31.999 44.2555H32.0011Z" fill="#786565"/>
<circle cx="13" cy="10" r="1" fill="#5CA3E6"/>
<circle cx="1" cy="1" r="1" transform="matrix(1 0 0 -1 28 7)" fill="#5CA3E6"/>
<circle cx="15" cy="8" r="1" fill="#5CA3E6"/>
<circle cx="1" cy="1" r="1" transform="matrix(1 0 0 -1 30 9)" fill="#5CA3E6"/>
<circle cx="17" cy="6" r="1" fill="#5CA3E6"/>
<circle cx="17" cy="6" r="1" fill="#5CA3E6"/>
<circle cx="1" cy="1" r="1" transform="matrix(1 0 0 -1 32 11)" fill="#5CA3E6"/>
<path d="M23.0019 7.4272C22.9379 7.4272 22.861 7.40413 22.7713 7.358C22.6816 7.31187 22.5931 7.25933 22.506 7.20038C21.8012 6.73907 21.1848 6.2534 20.6569 5.74339C20.1315 5.23082 19.724 4.70415 19.4344 4.16338C19.1448 3.62005 19 3.07416 19 2.52571C19 2.1464 19.0602 1.80298 19.1807 1.49543C19.3037 1.18533 19.4716 0.918789 19.6843 0.695819C19.897 0.472849 20.1418 0.301137 20.4185 0.180682C20.6979 0.0602274 20.9952 0 21.3104 0C21.7025 0 22.0396 0.0986705 22.3215 0.296011C22.606 0.49079 22.8328 0.744514 23.0019 1.05718C23.1711 0.744514 23.3966 0.49079 23.6785 0.296011C23.963 0.0986705 24.3013 0 24.6934 0C25.0061 0 25.3021 0.0602274 25.5815 0.180682C25.8608 0.301137 26.1056 0.472849 26.3157 0.695819C26.5284 0.918789 26.695 1.18533 26.8155 1.49543C26.9385 1.80298 27 2.1464 27 2.52571C27 3.07416 26.8552 3.62005 26.5656 4.16338C26.276 4.70415 25.8685 5.23082 25.3431 5.74339C24.8177 6.2534 24.2026 6.73907 23.4978 7.20038C23.4107 7.25933 23.3223 7.31187 23.2326 7.358C23.1429 7.40413 23.066 7.4272 23.0019 7.4272Z" fill="#605DBF"/>
<defs>
<filter id="filter0_f_1480_6137" x="10.9642" y="35.7538" width="23.8889" height="12.9528" filterUnits="userSpaceOnUse" color-interpolation-filters="sRGB">
<feFlood flood-opacity="0" result="BackgroundImageFix"/>
<feBlend mode="normal" in="SourceGraphic" in2="BackgroundImageFix" result="shape"/>
<feGaussianBlur stdDeviation="0.775688" result="effect1_foregroundBlur_1480_6137"/>
</filter>
<filter id="filter1_f_1480_6137" x="14.585" y="26.0322" width="16.6513" height="7.65328" filterUnits="userSpaceOnUse" color-interpolation-filters="sRGB">
<feFlood flood-opacity="0" result="BackgroundImageFix"/>
<feBlend mode="normal" in="SourceGraphic" in2="BackgroundImageFix" result="shape"/>
<feGaussianBlur stdDeviation="0.568838" result="effect1_foregroundBlur_1480_6137"/>
</filter>
<filter id="filter2_f_1480_6137" x="29.6841" y="32.4448" width="7.96383" height="11.79" filterUnits="userSpaceOnUse" color-interpolation-filters="sRGB">
<feFlood flood-opacity="0" result="BackgroundImageFix"/>
<feBlend mode="normal" in="SourceGraphic" in2="BackgroundImageFix" result="shape"/>
<feGaussianBlur stdDeviation="0.568838" result="effect1_foregroundBlur_1480_6137"/>
</filter>
<filter id="filter3_f_1480_6137" x="8.17238" y="32.4448" width="7.96383" height="11.79" filterUnits="userSpaceOnUse" color-interpolation-filters="sRGB">
<feFlood flood-opacity="0" result="BackgroundImageFix"/>
<feBlend mode="normal" in="SourceGraphic" in2="BackgroundImageFix" result="shape"/>
<feGaussianBlur stdDeviation="0.568838" result="effect1_foregroundBlur_1480_6137"/>
</filter>
<linearGradient id="paint0_linear_1480_6137" x1="23" y1="15" x2="23" y2="57" gradientUnits="userSpaceOnUse">
<stop stop-color="#55C4C4"/>
<stop offset="0.989583" stop-color="white"/>
</linearGradient>
<linearGradient id="paint1_linear_1480_6137" x1="23" y1="20" x2="23" y2="52" gradientUnits="userSpaceOnUse">
<stop stop-color="#D6EAEA"/>
<stop offset="1" stop-color="#B0EAEA"/>
</linearGradient>
<radialGradient id="paint2_radial_1480_6137" cx="0" cy="0" r="1" gradientUnits="userSpaceOnUse" gradientTransform="translate(22.8909 36.2897) rotate(90.1435) scale(13.2199 16.0767)">
<stop offset="0.729929" stop-color="#FFDA7A"/>
<stop offset="0.888746" stop-color="#F0BE3D"/>
</radialGradient>
</defs>
</svg>
