<svg width="30" height="30" viewBox="0 0 30 30" fill="none" xmlns="http://www.w3.org/2000/svg">
<g filter="url(#filter0_d_911_6262)">
<path d="M11.0156 23.3359C10.7604 23.3359 10.5573 23.2526 10.4062 23.0859C10.2604 22.9193 10.1875 22.6953 10.1875 22.4141V20.1641H9.96875C9.24479 20.1641 8.60417 20.0104 8.04688 19.7031C7.49479 19.3958 7.0599 18.9557 6.74219 18.3828C6.42969 17.8099 6.27344 17.1276 6.27344 16.3359V10.1484C6.27344 9.35677 6.42708 8.67448 6.73438 8.10156C7.04167 7.52865 7.47917 7.08854 8.04688 6.78125C8.61979 6.46875 9.30469 6.3125 10.1016 6.3125H19.8984C20.6953 6.3125 21.3802 6.46875 21.9531 6.78125C22.526 7.08854 22.9635 7.52865 23.2656 8.10156C23.5729 8.67448 23.7266 9.35677 23.7266 10.1484V16.3359C23.7266 17.1276 23.5729 17.8099 23.2656 18.3828C22.9635 18.9557 22.526 19.3958 21.9531 19.7031C21.3802 20.0104 20.6953 20.1641 19.8984 20.1641H15.0469L12.0938 22.7969C11.875 22.9896 11.6849 23.1276 11.5234 23.2109C11.3672 23.2943 11.1979 23.3359 11.0156 23.3359ZM11.1094 14.5469C11.474 14.5469 11.7812 14.4193 12.0312 14.1641C12.2865 13.9089 12.4141 13.6016 12.4141 13.2422C12.4141 12.8776 12.2865 12.5677 12.0312 12.3125C11.7812 12.0573 11.474 11.9297 11.1094 11.9297C10.7448 11.9297 10.4349 12.0573 10.1797 12.3125C9.92448 12.5677 9.79688 12.8776 9.79688 13.2422C9.79688 13.6016 9.92448 13.9089 10.1797 14.1641C10.4349 14.4193 10.7448 14.5469 11.1094 14.5469ZM15.0156 14.5469C15.3802 14.5469 15.6901 14.4193 15.9453 14.1641C16.2005 13.9089 16.3281 13.6016 16.3281 13.2422C16.3281 12.8776 16.2005 12.5677 15.9453 12.3125C15.6901 12.0573 15.3802 11.9297 15.0156 11.9297C14.6562 11.9297 14.3464 12.0573 14.0859 12.3125C13.8307 12.5677 13.7031 12.8776 13.7031 13.2422C13.7031 13.6016 13.8307 13.9089 14.0859 14.1641C14.3464 14.4193 14.6562 14.5469 15.0156 14.5469ZM18.9219 14.5469C19.2865 14.5469 19.5964 14.4193 19.8516 14.1641C20.1068 13.9089 20.2344 13.6016 20.2344 13.2422C20.2344 12.8776 20.1068 12.5677 19.8516 12.3125C19.5964 12.0573 19.2865 11.9297 18.9219 11.9297C18.5573 11.9297 18.2474 12.0573 17.9922 12.3125C17.7422 12.5677 17.6172 12.8776 17.6172 13.2422C17.6172 13.6016 17.7422 13.9089 17.9922 14.1641C18.2474 14.4193 18.5573 14.5469 18.9219 14.5469Z" fill="#77DEFF"/>
<path d="M10.4062 23.0859L8.9011 24.4029L8.91257 24.4161L8.92428 24.429L10.4062 23.0859ZM10.1875 20.1641H12.1875V18.1641H10.1875V20.1641ZM8.04688 19.7031L7.07418 21.4507L7.08115 21.4545L8.04688 19.7031ZM6.74219 18.3828L4.98635 19.3405L4.99312 19.3527L6.74219 18.3828ZM8.04688 6.78125L8.99893 8.54012L9.00458 8.53704L8.04688 6.78125ZM21.9531 6.78125L20.9954 8.53708L21.0078 8.54373L21.9531 6.78125ZM23.2656 8.10156L21.4965 9.03438L21.4998 9.04065L21.5031 9.04689L23.2656 8.10156ZM23.2656 18.3828L21.5031 17.4375L21.4998 17.4437L21.4965 17.45L23.2656 18.3828ZM15.0469 20.1641V18.1641H14.2848L13.7159 18.6712L15.0469 20.1641ZM12.0938 22.7969L13.4158 24.2976L13.4247 24.2897L12.0938 22.7969ZM11.5234 23.2109L10.6062 21.4337L10.5942 21.4399L10.5823 21.4462L11.5234 23.2109ZM12.0312 14.1641L10.617 12.7498L10.6097 12.7571L10.6025 12.7645L12.0312 14.1641ZM12.0312 12.3125L10.6025 13.7121L10.6097 13.7194L10.617 13.7267L12.0312 12.3125ZM14.0859 12.3125L12.6861 10.8841L12.6789 10.8911L12.6717 10.8983L14.0859 12.3125ZM14.0859 14.1641L12.6717 15.5783L12.6789 15.5854L12.6861 15.5925L14.0859 14.1641ZM17.9922 12.3125L16.578 10.8983L16.5707 10.9056L16.5635 10.9129L17.9922 12.3125ZM17.9922 14.1641L16.5635 15.5636L16.5707 15.571L16.578 15.5783L17.9922 14.1641ZM11.0156 21.3359C11.1066 21.3359 11.2558 21.3512 11.431 21.4231C11.612 21.4974 11.7687 21.611 11.8882 21.7429L8.92428 24.429C9.50746 25.0725 10.2799 25.3359 11.0156 25.3359V21.3359ZM11.9114 21.7689C12.1633 22.0569 12.1875 22.3456 12.1875 22.4141H8.1875C8.1875 23.045 8.35749 23.7817 8.9011 24.4029L11.9114 21.7689ZM12.1875 22.4141V20.1641H8.1875V22.4141H12.1875ZM10.1875 18.1641H9.96875V22.1641H10.1875V18.1641ZM9.96875 18.1641C9.53544 18.1641 9.23547 18.0746 9.0126 17.9517L7.08115 21.4545C7.97286 21.9462 8.95415 22.1641 9.96875 22.1641V18.1641ZM9.01956 17.9556C8.8062 17.8368 8.63485 17.6718 8.49125 17.4129L4.99312 19.3527C5.48494 20.2396 6.18338 20.9548 7.07419 21.4507L9.01956 17.9556ZM8.49798 17.4251C8.37651 17.2024 8.27344 16.8638 8.27344 16.3359H4.27344C4.27344 17.3914 4.48287 18.4174 4.9864 19.3405L8.49798 17.4251ZM8.27344 16.3359V10.1484H4.27344V16.3359H8.27344ZM8.27344 10.1484C8.27344 9.61552 8.37596 9.2723 8.49686 9.04689L4.97189 7.15623C4.47821 8.07666 4.27344 9.09802 4.27344 10.1484H8.27344ZM8.49686 9.04689C8.62073 8.81594 8.77767 8.65988 8.99892 8.54012L7.09483 5.02238C6.18067 5.51721 5.4626 6.24135 4.97189 7.15623L8.49686 9.04689ZM9.00458 8.53704C9.22547 8.41656 9.56603 8.3125 10.1016 8.3125V4.3125C9.04335 4.3125 8.01411 4.52094 7.08917 5.02546L9.00458 8.53704ZM10.1016 8.3125H19.8984V4.3125H10.1016V8.3125ZM19.8984 8.3125C20.434 8.3125 20.7745 8.41656 20.9954 8.53704L22.9108 5.02546C21.9859 4.52094 20.9567 4.3125 19.8984 4.3125V8.3125ZM21.0078 8.54373C21.231 8.66346 21.381 8.81532 21.4965 9.03438L25.0348 7.16874C24.5461 6.24197 23.8211 5.51362 22.8985 5.01877L21.0078 8.54373ZM21.5031 9.04689C21.624 9.2723 21.7266 9.61552 21.7266 10.1484H25.7266C25.7266 9.09802 25.5218 8.07666 25.0281 7.15623L21.5031 9.04689ZM21.7266 10.1484V16.3359H25.7266V10.1484H21.7266ZM21.7266 16.3359C21.7266 16.8689 21.624 17.2121 21.5031 17.4375L25.0281 19.3281C25.5218 18.4077 25.7266 17.3864 25.7266 16.3359H21.7266ZM21.4965 17.45C21.381 17.6691 21.231 17.8209 21.0078 17.9406L22.8985 21.4656C23.8211 20.9708 24.5461 20.2424 25.0348 19.3156L21.4965 17.45ZM21.0078 17.9406C20.7842 18.0606 20.439 18.1641 19.8984 18.1641V22.1641C20.9516 22.1641 21.9762 21.9602 22.8985 21.4656L21.0078 17.9406ZM19.8984 18.1641H15.0469V22.1641H19.8984V18.1641ZM13.7159 18.6712L10.7628 21.304L13.4247 24.2897L16.3778 21.6569L13.7159 18.6712ZM10.7717 21.2962C10.6988 21.3604 10.6459 21.4019 10.6121 21.4265C10.5765 21.4523 10.5755 21.4495 10.6062 21.4337L12.4407 24.9882C12.8084 24.7984 13.1384 24.5419 13.4158 24.2976L10.7717 21.2962ZM10.5823 21.4462C10.7244 21.3704 10.8797 21.3359 11.0156 21.3359V25.3359C11.5162 25.3359 12.01 25.2181 12.4646 24.9756L10.5823 21.4462ZM11.1094 16.5469C11.9991 16.5469 12.8252 16.2116 13.46 15.5636L10.6025 12.7645C10.6517 12.7143 10.7336 12.6509 10.8463 12.6041C10.9581 12.5577 11.0538 12.5469 11.1094 12.5469V16.5469ZM13.4455 15.5783C14.0739 14.9498 14.4141 14.1346 14.4141 13.2422H10.4141C10.4141 13.1799 10.4263 13.0835 10.4713 12.9752C10.5162 12.867 10.5752 12.7917 10.617 12.7498L13.4455 15.5783ZM14.4141 13.2422C14.4141 12.3532 14.08 11.5328 13.4455 10.8983L10.617 13.7267C10.5724 13.6821 10.5133 13.6053 10.469 13.4978C10.4249 13.3907 10.4141 13.298 10.4141 13.2422H14.4141ZM13.46 10.9129C12.8252 10.2649 11.9991 9.92969 11.1094 9.92969V13.9297C11.0538 13.9297 10.9581 13.9189 10.8463 13.8725C10.7336 13.8257 10.6517 13.7623 10.6025 13.7121L13.46 10.9129ZM11.1094 9.92969C10.2204 9.92969 9.40001 10.2637 8.76547 10.8983L11.5939 13.7267C11.5493 13.7713 11.4725 13.8305 11.365 13.8747C11.2579 13.9188 11.1652 13.9297 11.1094 13.9297V9.92969ZM8.76547 10.8983C8.13093 11.5328 7.79688 12.3532 7.79688 13.2422H11.7969C11.7969 13.298 11.786 13.3907 11.7419 13.4978C11.6977 13.6053 11.6385 13.6821 11.5939 13.7267L8.76547 10.8983ZM7.79688 13.2422C7.79688 14.1346 8.13701 14.9498 8.76547 15.5783L11.5939 12.7498C11.6358 12.7917 11.6947 12.867 11.7397 12.9752C11.7847 13.0835 11.7969 13.1799 11.7969 13.2422H7.79688ZM8.76547 15.5783C9.40001 16.2128 10.2204 16.5469 11.1094 16.5469V12.5469C11.1652 12.5469 11.2579 12.5577 11.365 12.6018C11.4725 12.6461 11.5493 12.7052 11.5939 12.7498L8.76547 15.5783ZM15.0156 16.5469C15.9046 16.5469 16.725 16.2128 17.3595 15.5783L14.5311 12.7498C14.5757 12.7052 14.6525 12.6461 14.76 12.6018C14.8671 12.5577 14.9598 12.5469 15.0156 12.5469V16.5469ZM17.3595 15.5783C17.988 14.9498 18.3281 14.1346 18.3281 13.2422H14.3281C14.3281 13.1799 14.3403 13.0835 14.3853 12.9752C14.4303 12.867 14.4892 12.7917 14.5311 12.7498L17.3595 15.5783ZM18.3281 13.2422C18.3281 12.3532 17.9941 11.5328 17.3595 10.8983L14.5311 13.7267C14.4865 13.6821 14.4273 13.6053 14.3831 13.4978C14.339 13.3907 14.3281 13.298 14.3281 13.2422H18.3281ZM17.3595 10.8983C16.725 10.2637 15.9046 9.92969 15.0156 9.92969V13.9297C14.9598 13.9297 14.8671 13.9188 14.76 13.8747C14.6525 13.8305 14.5757 13.7713 14.5311 13.7267L17.3595 10.8983ZM15.0156 9.92969C14.1243 9.92969 13.3142 10.2685 12.6861 10.8841L15.4858 13.7409C15.4485 13.7775 15.3783 13.8323 15.2752 13.8747C15.1715 13.9174 15.0781 13.9297 15.0156 13.9297V9.92969ZM12.6717 10.8983C12.0372 11.5328 11.7031 12.3532 11.7031 13.2422H15.7031C15.7031 13.298 15.6923 13.3907 15.6482 13.4978C15.6039 13.6053 15.5448 13.6821 15.5002 13.7267L12.6717 10.8983ZM11.7031 13.2422C11.7031 14.1346 12.0433 14.9498 12.6717 15.5783L15.5002 12.7498C15.542 12.7917 15.601 12.867 15.6459 12.9752C15.6909 13.0835 15.7031 13.1799 15.7031 13.2422H11.7031ZM12.6861 15.5925C13.3142 16.2081 14.1243 16.5469 15.0156 16.5469V12.5469C15.0781 12.5469 15.1715 12.5591 15.2752 12.6018C15.3783 12.6443 15.4485 12.6991 15.4858 12.7356L12.6861 15.5925ZM18.9219 16.5469C19.8108 16.5469 20.6312 16.2128 21.2658 15.5783L18.4373 12.7498C18.4819 12.7052 18.5587 12.6461 18.6662 12.6018C18.7733 12.5577 18.866 12.5469 18.9219 12.5469V16.5469ZM21.2658 15.5783C21.8942 14.9498 22.2344 14.1346 22.2344 13.2422H18.2344C18.2344 13.1799 18.2466 13.0835 18.2916 12.9752C18.3365 12.867 18.3955 12.7917 18.4373 12.7498L21.2658 15.5783ZM22.2344 13.2422C22.2344 12.3532 21.9003 11.5328 21.2658 10.8983L18.4373 13.7267C18.3927 13.6821 18.3336 13.6053 18.2893 13.4978C18.2452 13.3907 18.2344 13.298 18.2344 13.2422H22.2344ZM21.2658 10.8983C20.6312 10.2637 19.8108 9.92969 18.9219 9.92969V13.9297C18.866 13.9297 18.7733 13.9188 18.6662 13.8747C18.5587 13.8305 18.4819 13.7713 18.4373 13.7267L21.2658 10.8983ZM18.9219 9.92969C18.0329 9.92969 17.2125 10.2637 16.578 10.8983L19.4064 13.7267C19.3618 13.7713 19.285 13.8305 19.1775 13.8747C19.0704 13.9188 18.9777 13.9297 18.9219 13.9297V9.92969ZM16.5635 10.9129C15.939 11.5504 15.6172 12.3663 15.6172 13.2422H19.6172C19.6172 13.2928 19.6075 13.3808 19.5657 13.4845C19.5236 13.5889 19.4664 13.6656 19.4209 13.7121L16.5635 10.9129ZM15.6172 13.2422C15.6172 14.1214 15.9449 14.9321 16.5635 15.5636L19.4209 12.7645C19.4637 12.8082 19.5207 12.8834 19.5635 12.9886C19.6062 13.0936 19.6172 13.1852 19.6172 13.2422H15.6172ZM16.578 15.5783C17.2125 16.2128 18.0329 16.5469 18.9219 16.5469V12.5469C18.9777 12.5469 19.0704 12.5577 19.1775 12.6018C19.285 12.6461 19.3618 12.7052 19.4064 12.7498L16.578 15.5783Z" fill="white"/>
</g>
<defs>
<filter id="filter0_d_911_6262" x="0.273438" y="0.3125" width="29.4531" height="29.0234" filterUnits="userSpaceOnUse" color-interpolation-filters="sRGB">
<feFlood flood-opacity="0" result="BackgroundImageFix"/>
<feColorMatrix in="SourceAlpha" type="matrix" values="0 0 0 0 0 0 0 0 0 0 0 0 0 0 0 0 0 0 127 0" result="hardAlpha"/>
<feOffset/>
<feGaussianBlur stdDeviation="3"/>
<feComposite in2="hardAlpha" operator="out"/>
<feColorMatrix type="matrix" values="0 0 0 0 0 0 0 0 0 0 0 0 0 0 0 0 0 0 0.15 0"/>
<feBlend mode="normal" in2="BackgroundImageFix" result="effect1_dropShadow_911_6262"/>
<feBlend mode="normal" in="SourceGraphic" in2="effect1_dropShadow_911_6262" result="shape"/>
</filter>
</defs>
</svg>
