<svg width="39" height="33" viewBox="0 0 39 33" fill="none" xmlns="http://www.w3.org/2000/svg">
<mask id="mask0_1287_5476" style="mask-type:alpha" maskUnits="userSpaceOnUse" x="0" y="0" width="39" height="33">
<path d="M0.0273438 18.1103C0.0273438 22.1415 2.27955 26.323 5.76737 28.7633C9.07547 31.0787 13.4633 32.2034 19.1809 32.2034C24.8985 32.2034 29.2863 31.0773 32.5944 28.7633C36.0808 26.323 38.3344 22.1415 38.3344 18.1103C38.3344 15.361 37.6942 12.901 35.7846 10.382C35.7846 10.382 35.7846 10.3792 35.7832 10.3778L36.0275 2.69169C35.9348 1.69898 35.3535 0.825621 34.4759 0.353837C33.597 -0.117946 32.5481 -0.117946 31.6705 0.353837L25.2088 4.65886C25.2088 4.65886 25.206 4.65886 25.2032 4.65886C23.4831 4.27132 21.3854 4.15619 19.1823 4.15619C16.9792 4.15619 14.8801 4.27273 13.1615 4.65886C13.16 4.65886 13.1572 4.65886 13.1558 4.65886L6.69409 0.353837C5.81511 -0.116542 4.76624 -0.116542 3.88866 0.353837C3.00969 0.825621 2.42978 1.69898 2.33711 2.69169L2.58142 10.3778C2.58142 10.3778 2.58142 10.3806 2.58002 10.382C0.670419 12.8996 0.0301547 15.361 0.0301547 18.1103H0.0273438Z" fill="#D9D9D9"/>
</mask>
<g mask="url(#mask0_1287_5476)">
<path d="M0.0273438 18.1103C0.0273438 22.1415 2.27955 26.323 5.76737 28.7633C9.07547 31.0787 13.4633 32.2034 19.1809 32.2034C24.8985 32.2034 29.2863 31.0773 32.5944 28.7633C36.0808 26.323 38.3344 22.1415 38.3344 18.1103C38.3344 15.361 37.6942 12.901 35.7846 10.382C35.7846 10.382 35.7846 10.3792 35.7832 10.3778L36.0275 2.69169C35.9348 1.69898 35.3535 0.825621 34.4759 0.353837C33.597 -0.117946 32.5481 -0.117946 31.6705 0.353837L25.2088 4.65886C25.2088 4.65886 25.206 4.65886 25.2032 4.65886C23.4831 4.27132 21.3854 4.15619 19.1823 4.15619C16.9792 4.15619 14.8801 4.27273 13.1615 4.65886C13.16 4.65886 13.1572 4.65886 13.1558 4.65886L6.69409 0.353837C5.81511 -0.116542 4.76624 -0.116542 3.88866 0.353837C3.00969 0.825621 2.42978 1.69898 2.33711 2.69169L2.58142 10.3778C2.58142 10.3778 2.58142 10.3806 2.58002 10.382C0.670419 12.8996 0.0301547 15.361 0.0301547 18.1103H0.0273438Z" fill="#1B1B1B"/>
<g filter="url(#filter0_f_1287_5476)">
<path d="M5.82051 28.8547C9.12861 31.1701 13.5165 32.2948 19.234 32.2948C24.9516 32.2948 29.3395 31.1687 32.6476 28.8547C36.0497 26.4733 38.2767 22.4337 38.382 18.4951C35.0149 26.9999 28.233 24.8361 25.7491 22.8718C21.5003 19.5103 20.6662 16.7905 19.0361 16.7905C17.4059 16.7905 16.5718 19.5103 12.3216 22.8718C9.95142 24.7477 3.66519 26.8033 0.168945 19.5903C0.61405 23.168 2.73286 26.6938 5.82051 28.8547Z" fill="white"/>
</g>
<path d="M14.7904 17.4286C14.5587 18.3891 14.24 19.3804 13.7472 19.928C13.2543 20.4756 12.5874 20.5795 12.0664 20.4545C11.5455 20.3296 10.9993 19.9336 10.8097 19.2217C10.6202 18.5098 10.7873 17.482 11.019 16.5216C11.2506 15.5612 11.5694 14.5699 12.0622 14.0223C12.5551 13.4747 13.222 13.3708 13.7429 13.4957C14.2639 13.6207 14.8101 14.0166 14.9996 14.7285C15.1892 15.4404 15.0221 16.4682 14.7904 17.4286Z" fill="#83B173"/>
<path d="M27.4515 17.4286C27.2199 18.3891 26.9011 19.3804 26.4083 19.928C25.9154 20.4756 25.2485 20.5795 24.7276 20.4545C24.2066 20.3296 23.6604 19.9336 23.4709 19.2217C23.2813 18.5098 23.4484 17.482 23.6801 16.5216C23.9118 15.5612 24.2305 14.5699 24.7233 14.0223C25.2162 13.4747 25.8831 13.3708 26.4041 13.4957C26.925 13.6207 27.4712 14.0166 27.6608 14.7285C27.8503 15.4404 27.6832 16.4682 27.4515 17.4286Z" fill="#83B173"/>
<path d="M18.8116 22.4953C19.5026 22.4953 20.0627 21.9352 20.0627 21.2442C20.0627 20.5533 19.5026 19.9932 18.8116 19.9932C18.1207 19.9932 17.5605 20.5533 17.5605 21.2442C17.5605 21.9352 18.1207 22.4953 18.8116 22.4953Z" fill="#786565"/>
<path d="M15.7744 24.0149C16.0075 24.269 16.4245 24.5695 17.1069 24.5976C18.2443 24.6439 18.7525 23.8857 18.8059 23.8C18.8087 23.7958 18.8129 23.7958 18.8157 23.8C18.8691 23.8857 19.3774 24.6453 20.5147 24.5976C21.1971 24.5695 21.6141 24.2704 21.8472 24.0149" stroke="#786565" stroke-width="1.40412" stroke-miterlimit="10" stroke-linecap="round"/>
</g>
<path d="M35.7818 10.382C35.7818 10.382 35.7818 10.3792 35.7804 10.3778L36.0247 2.69169C35.932 1.69898 35.3507 0.825621 34.4731 0.353837C33.5941 -0.117946 32.5453 -0.117946 31.6677 0.353837L25.2059 4.65886C25.2059 4.65886 25.2032 4.65886 25.2003 4.65886C23.4803 4.27132 21.3826 4.15619 19.1795 4.15619C16.9764 4.15619 14.8773 4.27273 13.1586 4.65886C13.1572 4.65886 13.1544 4.65886 13.153 4.65886L6.69127 0.353837C5.8123 -0.116542 4.76343 -0.116542 3.88585 0.353837C3.00688 0.825621 2.42697 1.69898 2.3343 2.69169L2.57861 10.3778C2.57861 10.3778 2.57861 10.3806 2.57721 10.382C0.667608 12.8996 0.0273438 15.361 0.0273438 18.1103C0.0273438 22.1415 2.27955 26.323 5.76737 28.7633C9.07547 31.0787 13.4633 32.2034 19.1809 32.2034C24.8984 32.2034 29.2863 31.0773 32.5944 28.7633C36.0808 26.323 38.3344 22.1415 38.3344 18.1103C38.3344 15.361 37.6942 12.901 35.7846 10.382H35.7818ZM31.5455 27.2679C28.5548 29.3615 24.5095 30.3781 19.1781 30.3781C13.8467 30.3781 9.80139 29.3601 6.81062 27.2679C3.79739 25.159 1.84988 21.5644 1.84988 18.1103C1.84988 15.6461 2.6376 13.1229 4.01223 11.1908C4.01223 11.1908 4.11613 11.0392 4.15404 10.9914C4.45874 10.5997 5.0976 9.8218 6.12822 9.01302C6.13384 9.00881 6.13103 8.99898 6.12401 9.00039C5.94428 9.04251 4.97545 9.28261 4.2425 9.71087C4.23689 9.71368 4.23126 9.71087 4.23267 9.70385L4.15123 2.8644C4.18774 2.47686 4.40538 2.1483 4.74939 1.96436C5.08918 1.78182 5.47812 1.78042 5.81792 1.95734L12.041 5.87904C12.041 5.87904 12.0466 5.88886 12.041 5.89167C11.5355 6.19356 10.8334 6.47017 10.2353 7.05849C10.2296 7.06411 10.2353 7.07394 10.2409 7.07113C10.4543 7.00654 11.8893 6.5839 13.7708 6.32555C16.0104 6.01945 16.9287 5.98154 19.1795 5.98154C21.4303 5.98154 22.3486 6.01804 24.5881 6.32555C26.4697 6.5825 27.9047 7.00514 28.1181 7.07113C28.1251 7.07394 28.1293 7.06411 28.1237 7.05849C27.5256 6.47017 26.8221 6.19356 26.318 5.89167C26.3138 5.88886 26.3138 5.88184 26.318 5.87904L32.5411 1.95734C32.8823 1.77902 33.2712 1.78182 33.6096 1.96436C33.9536 2.1483 34.1712 2.47686 34.2077 2.8644L34.1263 9.70385C34.1263 9.70385 34.1207 9.71368 34.1165 9.71087C33.3835 9.28261 32.4147 9.04251 32.235 9.00039C32.2279 8.99898 32.2237 9.00881 32.2307 9.01302C33.2614 9.8218 33.9002 10.5997 34.2049 10.9914C34.2428 11.0392 34.3467 11.1908 34.3467 11.1908C35.72 13.1243 36.5091 15.6461 36.5091 18.1103C36.5091 21.5644 34.5616 25.159 31.5483 27.2679H31.5455Z" fill="#786565"/>
<defs>
<filter id="filter0_f_1287_5476" x="-3.20093" y="13.4206" width="44.9527" height="22.2442" filterUnits="userSpaceOnUse" color-interpolation-filters="sRGB">
<feFlood flood-opacity="0" result="BackgroundImageFix"/>
<feBlend mode="normal" in="SourceGraphic" in2="BackgroundImageFix" result="shape"/>
<feGaussianBlur stdDeviation="1.68494" result="effect1_foregroundBlur_1287_5476"/>
</filter>
</defs>
</svg>
