<svg width="346" height="60" viewBox="0 0 346 60" fill="none" xmlns="http://www.w3.org/2000/svg">
<path d="M2 30C2 14.536 14.536 2 30 2H316C331.464 2 344 14.536 344 30C344 45.464 331.464 58 316 58H30C14.536 58 2 45.464 2 30Z" fill="url(#paint0_linear_1315_5715)"/>
<path fill-rule="evenodd" clip-rule="evenodd" d="M30 0H316C332.569 0 346 13.4315 346 30C346 46.5685 332.569 60 316 60H30C13.4315 60 0 46.5685 0 30C0 13.4315 13.4315 0 30 0ZM30 2C14.536 2 2 14.536 2 30C2 45.464 14.536 58 30 58H316C331.464 58 344 45.464 344 30C344 14.536 331.464 2 316 2H30Z" fill="url(#paint1_linear_1315_5715)"/>
<path d="M170.591 25.2259H172.877C173.057 25.2259 173.129 25.2979 173.129 25.4599V27.0259C173.129 27.1699 173.057 27.2599 172.877 27.2599H170.591V32.4439C170.591 32.5879 170.519 32.6599 170.339 32.6599H168.503C168.359 32.6599 168.287 32.5879 168.287 32.4439V20.9239C168.287 20.7799 168.359 20.6899 168.503 20.6899H170.339C170.519 20.6899 170.591 20.7799 170.591 20.9239V25.2259ZM167.369 30.3199C165.389 30.6979 163.175 30.8599 160.385 30.8599H157.505C157.343 30.8599 157.271 30.7699 157.271 30.6259V29.1679C157.271 29.0419 157.343 28.9519 157.505 28.9519H159.935C160.403 28.9519 160.871 28.9519 161.321 28.9339V27.6199C159.377 27.2599 158.315 25.9639 158.315 24.4339C158.315 22.6519 159.791 21.1759 162.419 21.1759C165.065 21.1759 166.559 22.6519 166.559 24.4339C166.559 25.9459 165.515 27.2239 163.625 27.6019V28.8439C164.903 28.7539 166.073 28.6279 167.153 28.4479C167.315 28.4119 167.405 28.5199 167.423 28.6639L167.603 30.0679C167.603 30.2119 167.531 30.2839 167.369 30.3199ZM160.565 24.4339C160.565 25.2439 161.177 25.9099 162.419 25.9099C163.679 25.9099 164.309 25.2439 164.309 24.4339C164.309 23.6419 163.679 22.9759 162.419 22.9759C161.177 22.9759 160.565 23.6419 160.565 24.4339ZM162.419 34.4059H170.951C171.113 34.4059 171.185 34.4959 171.185 34.6579V36.2239C171.185 36.3679 171.113 36.4579 170.951 36.4579H160.367C160.205 36.4579 160.133 36.3679 160.133 36.2239V31.9759C160.133 31.8319 160.205 31.7599 160.367 31.7599H162.203C162.365 31.7599 162.419 31.8319 162.419 31.9759V34.4059Z" fill="#60A3AF"/>
<path d="M184.61 32.9659H188.228C188.39 32.9659 188.462 33.0559 188.462 33.1999V34.7839C188.462 34.9099 188.39 34.9999 188.228 34.9999H173.468C173.324 34.9999 173.252 34.9099 173.252 34.7839V33.1999C173.252 33.0559 173.324 32.9659 173.468 32.9659H177.086V30.6439H175.664C175.52 30.6439 175.448 30.5539 175.448 30.4279V25.5679C175.448 25.4239 175.52 25.3159 175.664 25.3159H183.962V23.8579H175.628C175.484 23.8579 175.412 23.7679 175.412 23.6059V22.1299C175.412 21.9859 175.484 21.8959 175.628 21.8959H186.032C186.194 21.8959 186.266 21.9859 186.266 22.1299V26.9539C186.266 27.0799 186.176 27.1879 186.014 27.1879H177.734V28.7359H186.392C186.554 28.7359 186.644 28.8079 186.644 28.9699V30.4279C186.644 30.5539 186.554 30.6439 186.392 30.6439H184.61V32.9659ZM182.324 30.6439H179.39V32.9659H182.324V30.6439Z" fill="#60A3AF"/>
<defs>
<linearGradient id="paint0_linear_1315_5715" x1="173" y1="2" x2="173" y2="59.6154" gradientUnits="userSpaceOnUse">
<stop stop-color="white"/>
<stop offset="0.275531" stop-color="#CFE7E9"/>
<stop offset="0.529509" stop-color="#A5CAE1"/>
<stop offset="0.770833" stop-color="#A1B9E4"/>
<stop offset="1" stop-color="#C7CEDF"/>
</linearGradient>
<linearGradient id="paint1_linear_1315_5715" x1="2" y1="1.99997" x2="345.068" y2="50.4365" gradientUnits="userSpaceOnUse">
<stop stop-color="#86A0C6"/>
<stop offset="1" stop-color="#AECED0"/>
</linearGradient>
</defs>
</svg>
