<svg width="211" height="297" viewBox="0 0 211 297" fill="none" xmlns="http://www.w3.org/2000/svg">
<path d="M207.081 293.716C207.081 257.674 208.981 145.967 178.577 100.361L89.8859 105.912C30.0149 99.362 13.1559 102.37 6.86487 108.579C4.02742 111.38 3.32324 114.968 3.32324 117.148C3.32324 121.155 6.40404 124.443 10.3288 124.78C11.6336 127.213 14.1967 128.87 17.1532 128.87C18.6496 128.87 20.0372 128.441 21.2229 127.705C22.4035 128.441 23.7963 128.87 25.2927 128.87C28.8395 128.87 31.8219 126.483 32.7332 123.232C62.7749 129.58 80.0326 140.303 91.7034 152.875C108.423 170.878 111.099 233.861 111.099 293.722H207.086L207.081 293.716Z" fill="white"/>
<mask id="mask0_946_9211" style="mask-type:alpha" maskUnits="userSpaceOnUse" x="3" y="100" width="205" height="194">
<path d="M207.081 293.716C207.081 257.674 208.981 145.967 178.577 100.361L89.8859 105.912C30.0149 99.362 13.1559 102.37 6.86487 108.579C4.02742 111.38 3.32324 114.968 3.32324 117.148C3.32324 121.155 6.40404 124.443 10.3288 124.78C11.6336 127.213 14.1967 128.87 17.1532 128.87C18.6496 128.87 20.0372 128.441 21.2229 127.705C22.4035 128.441 23.7963 128.87 25.2927 128.87C28.8395 128.87 31.8219 126.483 32.7332 123.232C62.7749 129.58 80.0326 140.303 91.7034 152.875C108.423 170.878 111.099 233.861 111.099 293.722H207.086L207.081 293.716Z" fill="white"/>
</mask>
<g mask="url(#mask0_946_9211)">
<g filter="url(#filter0_f_946_9211)">
<path d="M34.1264 121.679C37.4402 109.666 29.2937 105.455 24.8063 104.851L21.9585 92.9417L212.761 97.3428L228.812 293.323H186.354C185.491 271.835 182.108 224.096 175.481 205.041C167.196 181.223 152.439 174.233 151.663 168.02C150.465 158.441 146.14 145.065 147.262 135.4L107.651 123.75C110.931 134.45 128.363 157.923 128.363 164.654C128.363 168.797 125.515 176.046 121.373 182C118.059 186.764 107.91 221.438 103.25 238.179L34.1264 121.679Z" fill="#1B1B1B"/>
</g>
</g>
<path d="M206.786 194.514C202.437 149.877 193.816 117.619 181.161 98.637L180.167 97.1458L89.9538 102.79C61.7761 99.7139 41.5412 98.5904 28.0996 99.3567C16.1182 100.035 8.89511 102.199 4.67519 106.367C0.64685 110.344 0.211914 115.232 0.211914 117.148C0.211914 122.139 3.72247 126.457 8.44982 127.612C10.4795 130.336 13.6846 131.977 17.1434 131.977C18.5414 131.977 19.9239 131.702 21.2131 131.18C22.5024 131.702 23.8849 131.977 25.2829 131.977C29.1041 131.977 32.5784 129.947 34.5201 126.799C59.2545 132.35 76.7452 141.338 89.4205 154.987C96.4985 162.609 101.599 180.426 104.576 207.935C106.906 229.423 107.988 256.684 107.988 293.721V296.828H210.188V293.721C210.188 291.894 210.188 289.874 210.198 287.679C210.25 266.46 210.333 230.946 206.786 194.52V194.514ZM203.985 287.658C203.985 288.678 203.985 289.662 203.98 290.609H114.201C114.113 231.603 111.493 169.62 93.977 150.757C79.9761 135.679 60.7199 125.965 33.3706 120.187L30.5228 119.586L29.7358 122.388C29.1766 124.376 27.3437 125.764 25.2829 125.764C24.4286 125.764 23.5897 125.52 22.8545 125.065L22.4817 124.832C21.6325 124.236 20.6695 123.19 20.9025 121.575C20.9025 121.575 19.9446 122.569 19.9808 124.816L19.5821 125.065C18.8469 125.52 18.0081 125.764 17.1537 125.764C16.025 125.764 14.8392 125.215 13.8865 124.428H13.9021C13.9021 124.428 10.5986 121.689 11.7843 118.225C11.7843 118.225 10.8109 119.768 10.5106 121.678C8.22199 121.435 6.44082 119.467 6.44082 117.153C6.44082 116.267 6.62723 113.192 9.05562 110.794C15.8282 104.11 39.905 103.571 89.5603 109.003L89.8243 109.034L176.967 103.582C204.337 146.982 204.088 248.99 203.995 287.669L203.985 287.658Z" fill="#786565"/>
<mask id="mask1_946_9211" style="mask-type:alpha" maskUnits="userSpaceOnUse" x="56" y="0" width="142" height="119">
<path d="M56.1318 66.7834C56.1318 81.6489 64.4371 97.0684 77.2987 106.067C89.4977 114.606 105.678 118.753 126.762 118.753C147.846 118.753 164.027 114.601 176.226 106.067C189.083 97.0684 197.393 81.6489 197.393 66.7834C197.393 56.6453 195.032 47.5737 187.99 38.2847C187.99 38.2847 187.99 38.2744 187.985 38.2692L188.886 9.92586C188.544 6.26515 186.4 3.04455 183.164 1.30481C179.923 -0.434936 176.055 -0.434936 172.819 1.30481L148.991 17.18C148.991 17.18 148.98 17.18 148.97 17.18C142.627 15.7509 134.892 15.3263 126.768 15.3263C118.644 15.3263 110.903 15.7561 104.565 17.18C104.56 17.18 104.55 17.18 104.544 17.18L80.7161 1.30481C77.4748 -0.429758 73.607 -0.429758 70.3708 1.30481C67.1295 3.04455 64.9911 6.26515 64.6493 9.92586L65.5503 38.2692C65.5503 38.2692 65.5502 38.2796 65.5451 38.2847C58.5032 47.5686 56.1422 56.6453 56.1422 66.7834H56.1318Z" fill="white"/>
</mask>
<g mask="url(#mask1_946_9211)">
<path d="M56.1318 66.7834C56.1318 81.6489 64.4371 97.0684 77.2987 106.067C89.4977 114.606 105.678 118.753 126.762 118.753C147.846 118.753 164.027 114.601 176.226 106.067C189.083 97.0684 197.393 81.6489 197.393 66.7834C197.393 56.6453 195.032 47.5737 187.99 38.2847C187.99 38.2847 187.99 38.2744 187.985 38.2692L188.886 9.92586C188.544 6.26515 186.4 3.04455 183.164 1.30481C179.923 -0.434936 176.055 -0.434936 172.819 1.30481L148.991 17.18C148.991 17.18 148.98 17.18 148.97 17.18C142.627 15.7509 134.892 15.3263 126.768 15.3263C118.644 15.3263 110.903 15.7561 104.565 17.18C104.56 17.18 104.55 17.18 104.544 17.18L80.7161 1.30481C77.4748 -0.429758 73.607 -0.429758 70.3708 1.30481C67.1295 3.04455 64.9911 6.26515 64.6493 9.92586L65.5503 38.2692C65.5503 38.2692 65.5502 38.2796 65.5451 38.2847C58.5032 47.5686 56.1422 56.6453 56.1422 66.7834H56.1318Z" fill="#1B1B1B"/>
<g filter="url(#filter1_f_946_9211)">
<path d="M77.4901 106.403C89.689 114.941 105.87 119.089 126.954 119.089C148.038 119.089 164.219 114.936 176.417 106.403C188.963 97.6215 197.175 82.7249 197.564 68.2011C185.147 99.5632 160.138 91.5841 150.979 84.3404C135.311 71.9447 132.235 61.9153 126.224 61.9153C120.212 61.9153 117.137 71.9447 101.463 84.3404C92.7232 91.2579 69.5422 98.8383 56.6494 72.2398C58.2908 85.4329 66.1041 98.4344 77.4901 106.403Z" fill="white"/>
</g>
<path d="M110.567 64.266C109.712 67.8076 108.537 71.4632 106.72 73.4825C104.902 75.5019 102.443 75.885 100.522 75.4242C98.6008 74.9634 96.5866 73.5032 95.8876 70.8781C95.1886 68.2529 95.8048 64.4628 96.6591 60.9211C97.5134 57.3795 98.6888 53.724 100.506 51.7046C102.324 49.6853 104.783 49.3021 106.704 49.763C108.625 50.2238 110.639 51.6839 111.338 54.3091C112.037 56.9342 111.421 60.7244 110.567 64.266Z" fill="#83B173"/>
<path d="M157.255 64.266C156.401 67.8076 155.225 71.4632 153.408 73.4825C151.591 75.5019 149.131 75.885 147.21 75.4242C145.289 74.9634 143.275 73.5032 142.576 70.8781C141.877 68.2529 142.493 64.4628 143.348 60.9211C144.202 57.3795 145.377 53.724 147.195 51.7046C149.012 49.6853 151.472 49.3021 153.393 49.763C155.313 50.2238 157.328 51.6839 158.027 54.3091C158.726 56.9342 158.11 60.7244 157.255 64.266Z" fill="#83B173"/>
<path d="M125.4 82.9527C127.948 82.9527 130.013 80.8872 130.013 78.3393C130.013 75.7913 127.948 73.7258 125.4 73.7258C122.852 73.7258 120.787 75.7913 120.787 78.3393C120.787 80.8872 122.852 82.9527 125.4 82.9527Z" fill="#786565"/>
<path d="M114.201 88.5551C115.061 89.4923 116.598 90.6003 119.115 90.7039C123.309 90.8747 125.183 88.0787 125.38 87.7629C125.39 87.7473 125.406 87.7473 125.416 87.7629C125.613 88.0787 127.487 90.8799 131.681 90.7039C134.198 90.6003 135.736 89.4974 136.595 88.5551" stroke="#786565" stroke-width="5.17781" stroke-miterlimit="10" stroke-linecap="round"/>
</g>
<path d="M187.98 38.2847C187.98 38.2847 187.98 38.2744 187.975 38.2692L188.875 9.92586C188.534 6.26515 186.39 3.04455 183.154 1.30481C179.913 -0.434936 176.045 -0.434936 172.809 1.30481L148.98 17.18C148.98 17.18 148.97 17.18 148.96 17.18C142.617 15.7509 134.881 15.3263 126.757 15.3263C118.633 15.3263 110.892 15.7561 104.555 17.18C104.55 17.18 104.539 17.18 104.534 17.18L80.7057 1.30481C77.4644 -0.429758 73.5966 -0.429758 70.3605 1.30481C67.1191 3.04455 64.9807 6.26515 64.6389 9.92586L65.5399 38.2692C65.5399 38.2692 65.5399 38.2796 65.5347 38.2847C58.4929 47.5686 56.1318 56.6453 56.1318 66.7834C56.1318 81.6489 64.4371 97.0684 77.2987 106.067C89.4977 114.606 105.678 118.753 126.762 118.753C147.846 118.753 164.027 114.601 176.226 106.067C189.083 97.0684 197.393 81.6489 197.393 66.7834C197.393 56.6453 195.032 47.5737 187.99 38.2847H187.98ZM172.358 100.553C161.329 108.273 146.412 112.022 126.752 112.022C107.092 112.022 92.1746 108.268 81.1458 100.553C70.0342 92.776 62.8526 79.5208 62.8526 66.7834C62.8526 57.6964 65.7574 48.3918 70.8265 41.2672C70.8265 41.2672 71.2096 40.708 71.3494 40.5319C72.473 39.0873 74.8289 36.2188 78.6294 33.2364C78.6501 33.2208 78.6398 33.1846 78.6139 33.1898C77.9511 33.3451 74.3785 34.2305 71.6756 35.8097C71.6549 35.8201 71.6342 35.8097 71.6394 35.7839L71.3391 10.5627C71.4737 9.13366 72.2763 7.92205 73.5448 7.24376C74.7979 6.57064 76.2321 6.56546 77.4851 7.21787L100.433 21.6795C100.433 21.6795 100.454 21.7157 100.433 21.7261C98.5692 22.8393 95.9803 23.8594 93.7745 26.0289C93.7538 26.0496 93.7745 26.0858 93.7953 26.0755C94.5823 25.8373 99.874 24.2788 106.812 23.326C115.071 22.1973 118.457 22.0575 126.757 22.0575C135.057 22.0575 138.444 22.1921 146.702 23.326C153.64 24.2736 158.932 25.8321 159.719 26.0755C159.745 26.0858 159.761 26.0496 159.74 26.0289C157.534 23.8594 154.94 22.8393 153.081 21.7261C153.066 21.7157 153.066 21.6899 153.081 21.6795L176.029 7.21787C177.287 6.56029 178.722 6.57064 179.97 7.24376C181.238 7.92205 182.041 9.13366 182.175 10.5627L181.875 35.7839C181.875 35.7839 181.854 35.8201 181.839 35.8097C179.136 34.2305 175.563 33.3451 174.901 33.1898C174.875 33.1846 174.859 33.2208 174.885 33.2364C178.686 36.2188 181.041 39.0873 182.165 40.5319C182.305 40.708 182.688 41.2672 182.688 41.2672C187.752 48.397 190.662 57.6964 190.662 66.7834C190.662 79.5208 183.48 92.776 172.369 100.553H172.358Z" fill="#786565"/>
<path d="M166.284 118.504C133.944 109.288 104.306 115.046 99.2369 119.939C97.7354 121.388 96.7153 123.356 96.7153 125.608C96.7153 129.616 99.7961 132.904 103.721 133.24C105.026 135.674 107.589 137.331 110.545 137.331C112.042 137.331 113.429 136.901 114.615 136.166C115.796 136.901 117.188 137.331 118.685 137.331C121.305 137.331 123.614 136.026 125.012 134.038C144.186 134.949 156.447 156.132 156.447 156.132" fill="url(#paint0_radial_946_9211)"/>
<path d="M159.724 117.474C163.623 118.033 166.285 118.51 166.285 118.51C153.397 108.201 104.632 110.417 97.078 117.712C94.8412 119.871 93.6089 122.678 93.6089 125.619C93.6089 130.61 97.1194 134.928 101.847 136.083C103.876 138.807 107.082 140.448 110.54 140.448C111.938 140.448 113.321 140.174 114.61 139.651C115.899 140.174 117.282 140.448 118.68 140.448C121.574 140.448 124.329 139.283 126.343 137.269C132.888 138.004 148.401 146.382 156.442 156.142C156.442 156.142 155.924 152.228 150.213 145.294C144.02 137.781 134.477 133.07 125.157 130.947L123.449 130.864L122.465 132.262C121.595 133.499 120.176 134.24 118.675 134.24C117.82 134.24 116.982 133.996 116.241 133.541L116.06 133.427C115.206 132.837 114.211 131.786 114.45 130.149C114.45 130.149 113.543 131.086 113.528 133.199L112.974 133.541C112.239 133.996 111.395 134.24 110.546 134.24C109.417 134.24 108.36 133.826 107.532 133.111C107.252 132.831 106.833 132.36 106.44 131.749L105.937 130.812C105.492 129.802 105.269 128.56 105.73 127.208C105.73 127.208 104.907 128.513 104.539 130.206L103.985 130.16C101.65 129.958 99.8223 127.969 99.8223 125.624C99.8223 124.04 100.677 122.88 101.396 122.191C104.834 118.872 119.762 111.742 159.73 117.484L159.724 117.474Z" fill="#786565"/>
<defs>
<filter id="filter0_f_946_9211" x="9.53175" y="80.5149" width="231.707" height="225.235" filterUnits="userSpaceOnUse" color-interpolation-filters="sRGB">
<feFlood flood-opacity="0" result="BackgroundImageFix"/>
<feBlend mode="normal" in="SourceGraphic" in2="BackgroundImageFix" result="shape"/>
<feGaussianBlur stdDeviation="6.21338" result="effect1_foregroundBlur_946_9211"/>
</filter>
<filter id="filter1_f_946_9211" x="44.2227" y="49.4885" width="165.768" height="82.0268" filterUnits="userSpaceOnUse" color-interpolation-filters="sRGB">
<feFlood flood-opacity="0" result="BackgroundImageFix"/>
<feBlend mode="normal" in="SourceGraphic" in2="BackgroundImageFix" result="shape"/>
<feGaussianBlur stdDeviation="6.21338" result="effect1_foregroundBlur_946_9211"/>
</filter>
<radialGradient id="paint0_radial_946_9211" cx="0" cy="0" r="1" gradientUnits="userSpaceOnUse" gradientTransform="translate(107.392 125.821) rotate(6.14272) scale(58.066 58.066)">
<stop offset="0.204454" stop-color="white"/>
<stop offset="0.34375" stop-color="#7A7A7A"/>
<stop offset="0.53125" stop-color="#1B1B1B"/>
<stop offset="0.885417" stop-color="#1B1B1B"/>
<stop offset="1" stop-color="#1B1B1B" stop-opacity="0"/>
</radialGradient>
</defs>
</svg>
