<svg width="210" height="297" viewBox="0 0 210 297" fill="none" xmlns="http://www.w3.org/2000/svg">
<path d="M206.869 293.717C206.869 257.674 208.769 145.968 178.365 100.362L89.674 105.912C29.803 99.3625 12.944 102.371 6.65295 108.579C3.81551 111.38 3.11133 114.968 3.11133 117.148C3.11133 121.156 6.19213 124.444 10.1169 124.78C11.4217 127.214 13.9847 128.871 16.9413 128.871C18.4377 128.871 19.8253 128.441 21.011 127.706C22.1916 128.441 23.5844 128.871 25.0808 128.871C28.6276 128.871 31.61 126.484 32.5213 123.232C62.563 129.58 79.8206 140.303 91.4914 152.875C108.211 170.878 110.888 233.861 110.888 293.722H206.874L206.869 293.717Z" fill="#FFFEEE"/>
<mask id="mask0_946_9264" style="mask-type:alpha" maskUnits="userSpaceOnUse" x="3" y="100" width="204" height="194">
<path d="M206.869 293.717C206.869 257.674 208.769 145.968 178.365 100.362L89.674 105.913C29.803 99.3627 12.944 102.371 6.65295 108.579C3.81551 111.38 3.11133 114.969 3.11133 117.149C3.11133 121.156 6.19213 124.444 10.1169 124.781C11.4217 127.214 13.9847 128.871 16.9413 128.871C18.4377 128.871 19.8253 128.441 21.011 127.706C22.1916 128.441 23.5844 128.871 25.0808 128.871C28.6276 128.871 31.61 126.484 32.5213 123.232C62.563 129.58 79.8206 140.304 91.4914 152.875C108.211 170.879 110.888 233.862 110.888 293.722H206.874L206.869 293.717Z" fill="white"/>
</mask>
<g mask="url(#mask0_946_9264)">
<g filter="url(#filter0_f_946_9264)">
<path d="M173.716 183.036C175.58 150.727 170.005 118.141 166.984 105.887L205.3 96.5669L237.403 308.339H194.168C186.574 280.034 171.852 215.346 173.716 183.036Z" fill="#D3CDBF"/>
</g>
<g filter="url(#filter1_f_946_9264)">
<path d="M74.8785 100.968L33.7149 83.8813C-94.6949 127.375 94.0364 174.234 73.0663 142.908C56.2902 117.848 67.2844 104.506 74.8785 100.968Z" fill="#918378"/>
</g>
</g>
<path d="M206.574 194.515C202.225 149.877 193.604 117.62 180.949 98.6377L179.955 97.1465L89.7419 102.79C61.5642 99.7147 41.3293 98.5911 27.8877 99.3574C15.9062 100.036 8.68319 102.2 4.46328 106.368C0.434936 110.345 0 115.233 0 117.148C0 122.14 3.51056 126.458 8.2379 127.613C10.2676 130.336 13.4727 131.978 16.9315 131.978C18.3295 131.978 19.7119 131.703 21.0012 131.18C22.2905 131.703 23.673 131.978 25.071 131.978C28.8922 131.978 32.3665 129.948 34.3082 126.8C59.0426 132.35 76.5333 141.339 89.2086 154.988C96.2866 162.61 101.387 180.426 104.364 207.936C106.694 229.424 107.776 256.685 107.776 293.722V296.829H209.976V293.722C209.976 291.894 209.976 289.875 209.986 287.68C210.038 266.461 210.121 230.946 206.574 194.52V194.515ZM203.773 287.659C203.773 288.679 203.773 289.663 203.768 290.61H113.99C113.902 231.604 111.282 169.62 93.765 150.758C79.7642 135.68 60.5079 125.966 33.1587 120.188L30.3109 119.587L29.5239 122.388C28.9647 124.377 27.1317 125.764 25.071 125.764C24.2166 125.764 23.3778 125.521 22.6426 125.065L22.2698 124.832C21.4206 124.237 20.4575 123.191 20.6905 121.575C20.6905 121.575 19.7326 122.57 19.7689 124.817L19.3702 125.065C18.635 125.521 17.7961 125.764 16.9418 125.764C15.813 125.764 14.6273 125.215 13.6746 124.428H13.6901C13.6901 124.428 10.3867 121.689 11.5724 118.225C11.5724 118.225 10.599 119.768 10.2987 121.679C8.01008 121.436 6.22891 119.468 6.22891 117.154C6.22891 116.268 6.41531 113.193 8.84371 110.795C15.6163 104.111 39.6931 103.572 89.3484 109.004L89.6124 109.035L176.755 103.583C204.125 146.983 203.876 248.991 203.783 287.669L203.773 287.659Z" fill="#786565"/>
<path d="M55.9199 66.7834C55.9199 81.6489 64.2251 97.0685 77.0868 106.067C89.2858 114.606 105.466 118.753 126.55 118.753C147.635 118.753 163.815 114.601 176.014 106.067C188.871 97.0685 197.181 81.6489 197.181 66.7834C197.181 56.6453 194.82 47.5737 187.778 38.2847C187.778 38.2847 187.778 38.2744 187.773 38.2692L188.674 9.92587C188.332 6.26515 186.189 3.04455 182.952 1.30481C179.711 -0.434936 175.843 -0.434936 172.607 1.30481L148.779 17.18C148.779 17.18 148.768 17.18 148.758 17.18C142.415 15.7509 134.68 15.3263 126.556 15.3263C118.432 15.3263 110.691 15.7561 104.353 17.18C104.348 17.18 104.338 17.18 104.332 17.18L80.499 1.30999C77.2577 -0.424581 73.3899 -0.424581 70.1537 1.30999C66.9124 3.04973 64.774 6.27033 64.4322 9.93104L65.3332 38.2744C65.3332 38.2744 65.3332 38.2847 65.328 38.2899C58.281 47.5737 55.9199 56.6453 55.9199 66.7834Z" fill="url(#paint0_radial_946_9264)"/>
<g filter="url(#filter2_f_946_9264)">
<path d="M169.832 68.4357C169.832 77.1836 165.002 86.7636 156.772 92.4932C148.542 98.2228 137.865 100.45 125.303 100.45C112.74 100.45 102.066 98.2262 93.833 92.4932C85.6031 86.7636 80.7734 77.1836 80.7734 68.4357C80.7734 59.6879 84.5748 49.7702 92.8047 44.0372C101.038 38.3042 112.744 36.7627 125.303 36.7627C137.862 36.7627 149.567 38.3042 157.801 44.0372C166.031 49.7702 169.832 59.6913 169.832 68.4357Z" fill="#918277"/>
</g>
<path d="M124.997 80.0337C127.545 80.0337 129.611 77.9682 129.611 75.4203C129.611 72.8724 127.545 70.8069 124.997 70.8069C122.449 70.8069 120.384 72.8724 120.384 75.4203C120.384 77.9682 122.449 80.0337 124.997 80.0337Z" fill="#C9C2BD"/>
<path d="M115.91 86.1122C116.671 86.4539 117.598 86.6973 118.717 86.7439C122.895 86.9147 124.769 84.1394 124.977 83.808C124.987 83.7925 125.008 83.7925 125.018 83.808C125.225 84.1394 127.099 86.9199 131.278 86.7439C132.396 86.6973 133.323 86.4539 134.084 86.1122" stroke="#C9C2BD" stroke-width="5.17781" stroke-miterlimit="10" stroke-linecap="round"/>
<path d="M106.574 73.1056C108.33 71.3452 109.407 68.1091 110.163 64.9661C110.918 61.8232 111.436 58.4473 110.675 56.0862C110.675 56.0758 110.67 56.0706 110.665 56.0603C110.225 54.7141 108.915 53.8494 107.501 53.8494H100.91C99.9674 53.8494 99.0716 54.3257 98.5953 55.1386C97.5442 56.9302 96.8089 59.3016 96.2497 61.6213C95.4938 64.7642 94.976 68.1401 95.7371 70.5012C95.7837 70.641 95.8303 70.7808 95.8873 70.9103C96.752 73.0487 98.9215 74.3742 101.231 74.3742H103.695C104.56 74.3742 105.399 74.0946 106.072 73.5561C106.243 73.4215 106.409 73.2713 106.569 73.1108L106.574 73.1056Z" fill="#A0CCFF"/>
<path d="M142.938 61.6161C142.182 64.759 141.664 68.1349 142.426 70.496C142.918 72.0183 143.938 73.1212 145.113 73.8409C145.698 74.1982 146.381 74.369 147.065 74.369H150.047C151.228 74.369 152.398 73.9548 153.237 73.1212C153.242 73.116 153.247 73.1108 153.252 73.1056C155.008 71.3452 156.085 68.1091 156.841 64.9661C157.597 61.8232 158.114 58.4473 157.353 56.0862C157.281 55.8584 157.198 55.6461 157.1 55.439C156.654 54.4707 155.686 53.8494 154.619 53.8494H147.971C146.744 53.8494 145.594 54.5069 145.02 55.5891C144.103 57.3133 143.44 59.488 142.928 61.6213L142.938 61.6161Z" fill="#A0CCFF"/>
<path d="M187.778 38.2847C187.778 38.2847 187.778 38.2744 187.773 38.2692L188.674 9.92587C188.332 6.26515 186.189 3.04455 182.952 1.30481C179.711 -0.434936 175.843 -0.434936 172.607 1.30481L148.779 17.18C148.779 17.18 148.768 17.18 148.758 17.18C142.415 15.7509 134.68 15.3263 126.556 15.3263C118.432 15.3263 110.691 15.7561 104.353 17.18C104.348 17.18 104.338 17.18 104.332 17.18L80.499 1.30999C77.2577 -0.424581 73.3899 -0.424581 70.1537 1.30999C66.9124 3.04973 64.774 6.27033 64.4322 9.93104L65.3332 38.2744C65.3332 38.2744 65.3332 38.2847 65.328 38.2899C58.281 47.5737 55.9199 56.6453 55.9199 66.7834C55.9199 81.6489 64.2251 97.0685 77.0868 106.067C89.2858 114.606 105.466 118.753 126.55 118.753C147.635 118.753 163.815 114.601 176.014 106.067C188.871 97.0685 197.181 81.6489 197.181 66.7834C197.181 56.6453 194.82 47.5737 187.778 38.2847ZM172.157 100.553C161.128 108.273 146.211 112.022 126.55 112.022C106.89 112.022 91.973 108.268 80.9443 100.553C69.8327 92.776 62.6511 79.5208 62.6511 66.7834C62.6511 57.6964 65.5558 48.3918 70.6249 41.2672C70.6249 41.2672 71.0081 40.708 71.1479 40.5319C72.2715 39.0873 74.6274 36.2188 78.4279 33.2364C78.4486 33.2208 78.4382 33.1846 78.4123 33.1898C77.7496 33.3451 74.1769 34.2305 71.4741 35.8098C71.4534 35.8201 71.4327 35.8098 71.4378 35.7839L71.1375 10.5627C71.2721 9.13366 72.0747 7.92205 73.3433 7.24376C74.5963 6.57064 76.0306 6.56547 77.2836 7.21787L100.232 21.6795C100.232 21.6795 100.252 21.7157 100.232 21.7261C98.3676 22.8393 95.7787 23.8594 93.573 26.0289C93.5523 26.0496 93.573 26.0858 93.5937 26.0755C94.3807 25.8373 99.6725 24.2788 106.611 23.326C114.869 22.1973 118.256 22.0575 126.556 22.0575C134.856 22.0575 138.242 22.1921 146.501 23.326C153.439 24.2736 158.731 25.8321 159.518 26.0755C159.544 26.0858 159.559 26.0496 159.538 26.0289C157.333 23.8594 154.739 22.8393 152.88 21.7261C152.864 21.7157 152.864 21.6899 152.88 21.6795L175.828 7.21787C177.086 6.56029 178.52 6.57064 179.768 7.24376C181.037 7.92205 181.839 9.13366 181.974 10.5627L181.674 35.7839C181.674 35.7839 181.653 35.8201 181.637 35.8098C178.934 34.2305 175.362 33.3451 174.699 33.1898C174.673 33.1846 174.658 33.2208 174.683 33.2364C178.484 36.2188 180.84 39.0873 181.963 40.5319C182.103 40.708 182.486 41.2672 182.486 41.2672C187.55 48.397 190.46 57.6964 190.46 66.7834C190.46 79.5208 183.279 92.776 172.167 100.553H172.157Z" fill="#786565"/>
<path d="M166.073 118.504C133.732 109.288 104.095 115.046 99.0255 119.939C97.5239 121.388 96.5039 123.356 96.5039 125.608C96.5039 129.616 99.5847 132.904 103.509 133.24C104.814 135.674 107.377 137.331 110.334 137.331C111.83 137.331 113.218 136.901 114.404 136.166C115.584 136.901 116.977 137.331 118.473 137.331C121.093 137.331 123.403 136.026 124.801 134.038C143.974 134.949 156.235 156.132 156.235 156.132" fill="url(#paint1_linear_946_9264)"/>
<mask id="mask1_946_9264" style="mask-type:alpha" maskUnits="userSpaceOnUse" x="96" y="113" width="71" height="44">
<path d="M166.073 118.504C133.732 109.288 104.095 115.045 99.0255 119.938C97.5239 121.388 96.5039 123.356 96.5039 125.608C96.5039 129.616 99.5847 132.904 103.509 133.24C104.814 135.674 107.377 137.331 110.334 137.331C111.83 137.331 113.218 136.901 114.404 136.166C115.584 136.901 116.977 137.331 118.473 137.331C121.093 137.331 123.403 136.026 124.801 134.038C143.974 134.949 156.235 156.131 156.235 156.131" fill="white"/>
</mask>
<g mask="url(#mask1_946_9264)">
<g filter="url(#filter3_f_946_9264)">
<path d="M158.917 111.549L122.62 85.6865C-12.2658 99.3511 161.199 187.244 147.769 152.021C137.024 123.842 150.724 113.299 158.917 111.549Z" fill="#918378"/>
</g>
</g>
<path d="M159.513 117.474C163.412 118.033 166.073 118.51 166.073 118.51C153.186 108.201 104.421 110.417 96.8666 117.712C94.6298 119.871 93.3975 122.678 93.3975 125.619C93.3975 130.61 96.908 134.928 101.635 136.083C103.665 138.807 106.87 140.448 110.329 140.448C111.727 140.448 113.109 140.174 114.399 139.651C115.688 140.174 117.07 140.448 118.468 140.448C121.363 140.448 124.117 139.283 126.132 137.269C132.676 138.004 148.189 146.382 156.23 156.142C156.23 156.142 155.712 152.228 150.001 145.294C143.809 137.781 134.266 133.07 124.946 130.947L123.237 130.864L122.253 132.262C121.384 133.499 119.965 134.24 118.463 134.24C117.609 134.24 116.77 133.996 116.03 133.541L115.848 133.427C114.994 132.837 114 131.786 114.238 130.149C114.238 130.149 113.332 131.086 113.317 133.199L112.762 133.541C112.027 133.996 111.183 134.24 110.334 134.24C109.205 134.24 108.149 133.826 107.321 133.111C107.041 132.831 106.622 132.36 106.228 131.749L105.726 130.812C105.281 129.802 105.058 128.56 105.519 127.208C105.519 127.208 104.695 128.513 104.328 130.206L103.774 130.16C101.439 129.958 99.6108 127.969 99.6108 125.624C99.6108 124.04 100.465 122.88 101.185 122.191C104.623 118.872 119.551 111.742 159.518 117.484L159.513 117.474Z" fill="#786565"/>
<defs>
<filter id="filter0_f_946_9264" x="148.344" y="77.9268" width="107.698" height="249.053" filterUnits="userSpaceOnUse" color-interpolation-filters="sRGB">
<feFlood flood-opacity="0" result="BackgroundImageFix"/>
<feBlend mode="normal" in="SourceGraphic" in2="BackgroundImageFix" result="shape"/>
<feGaussianBlur stdDeviation="9.32006" result="effect1_foregroundBlur_946_9264"/>
</filter>
<filter id="filter1_f_946_9264" x="-23.8184" y="71.4546" width="111.124" height="94.081" filterUnits="userSpaceOnUse" color-interpolation-filters="sRGB">
<feFlood flood-opacity="0" result="BackgroundImageFix"/>
<feBlend mode="normal" in="SourceGraphic" in2="BackgroundImageFix" result="shape"/>
<feGaussianBlur stdDeviation="6.21337" result="effect1_foregroundBlur_946_9264"/>
</filter>
<filter id="filter2_f_946_9264" x="62.6511" y="18.6404" width="125.303" height="99.9317" filterUnits="userSpaceOnUse" color-interpolation-filters="sRGB">
<feFlood flood-opacity="0" result="BackgroundImageFix"/>
<feBlend mode="normal" in="SourceGraphic" in2="BackgroundImageFix" result="shape"/>
<feGaussianBlur stdDeviation="9.06117" result="effect1_foregroundBlur_946_9264"/>
</filter>
<filter id="filter3_f_946_9264" x="58.5371" y="73.2598" width="112.807" height="99.4543" filterUnits="userSpaceOnUse" color-interpolation-filters="sRGB">
<feFlood flood-opacity="0" result="BackgroundImageFix"/>
<feBlend mode="normal" in="SourceGraphic" in2="BackgroundImageFix" result="shape"/>
<feGaussianBlur stdDeviation="6.21337" result="effect1_foregroundBlur_946_9264"/>
</filter>
<radialGradient id="paint0_radial_946_9264" cx="0" cy="0" r="1" gradientUnits="userSpaceOnUse" gradientTransform="translate(126.55 70.6771) rotate(90) scale(76.3727 97.7987)">
<stop offset="0.669198" stop-color="#FFFDEE"/>
<stop offset="0.760346" stop-color="#AA9C88"/>
<stop offset="0.907194" stop-color="#6D5750"/>
</radialGradient>
<linearGradient id="paint1_linear_946_9264" x1="145.755" y1="134.623" x2="159.477" y2="137.73" gradientUnits="userSpaceOnUse">
<stop stop-color="#FFFEEE"/>
<stop offset="1" stop-color="#FFFEEE" stop-opacity="0"/>
</linearGradient>
</defs>
</svg>
