<svg width="390" height="214" viewBox="0 0 390 214" fill="none" xmlns="http://www.w3.org/2000/svg">
<mask id="mask0_970_4257" style="mask-type:alpha" maskUnits="userSpaceOnUse" x="0" y="84" width="390" height="130">
<rect y="84" width="390" height="130" fill="white"/>
</mask>
<g mask="url(#mask0_970_4257)">
<path d="M247.503 101.244C248.182 101.022 248.861 100.852 249.539 100.723C249.539 100.723 253.694 99.5706 259.832 103.719C259.832 103.719 255.414 99.5355 250.745 98.5582C252.219 96.4341 254.373 94.7547 257.024 93.8945C259.686 93.0284 262.431 93.1338 264.888 93.9881C264.888 93.9881 267.399 94.5089 272.086 97.78C272.086 97.78 269.564 94.0817 266.199 92.4901C267.504 91.2203 269.107 90.2138 270.956 89.6111C274.614 88.4232 278.417 89.0435 281.419 90.9745C282.244 91.5421 283.877 92.888 286.364 95.8782C286.364 95.8782 285.586 93.4907 283.889 91.033C291.431 89.7749 298.26 95.6266 303.421 100.94C351.048 149.977 383.601 217.996 383.601 217.996L302.59 244.346C290.167 182.822 270.085 150.094 256.602 134.095C248.077 136.061 239.317 131.222 236.555 122.749C233.641 113.79 238.538 104.164 247.503 101.25V101.244Z" fill="white"/>
<path d="M244.864 94.7253C245.912 93.1863 247.17 91.8112 248.598 90.6409C248.802 90.4712 249.007 90.3132 249.218 90.1493C249.85 89.6754 250.511 89.2365 251.202 88.8386C252.348 88.1773 253.571 87.6331 254.853 87.2177C255.169 87.1182 255.485 87.0187 255.801 86.9368C256.117 86.8549 256.433 86.7729 256.755 86.7027C257.071 86.6325 257.393 86.574 257.714 86.5213C259.318 86.258 260.939 86.1995 262.548 86.3458C264.385 84.8419 266.492 83.6833 268.792 82.9401C269.096 82.8406 269.4 82.7529 269.704 82.6709C274.28 81.4304 279.149 81.9278 283.362 84.0168C285.586 83.7125 287.722 83.812 289.758 84.1982C290.776 84.3913 291.765 84.6546 292.725 84.9765C293.685 85.2983 294.621 85.6787 295.522 86.1C296.125 86.3809 296.71 86.6793 297.277 86.9953C297.845 87.3113 298.407 87.639 298.945 87.9842C299.214 88.1539 299.483 88.3295 299.747 88.505C303.679 91.1324 306.704 94.2455 308.472 96.0653C317.863 105.738 326.664 116.136 334.681 126.482C336.682 129.069 338.643 131.655 340.544 134.218C343.084 137.641 345.53 141.041 347.871 144.382C349.041 146.056 350.194 147.712 351.317 149.35C353.564 152.627 355.706 155.84 357.742 158.947C358.761 160.504 359.75 162.031 360.709 163.535C361.189 164.284 361.663 165.027 362.131 165.764C363.998 168.708 365.747 171.534 367.38 174.214C381.494 197.381 389.605 214.269 389.944 214.977L393.402 222.203L296.593 250.104L295.715 245.745C290.279 218.821 282.847 195.058 273.625 175.103C272.109 171.821 270.553 168.655 268.955 165.612C268.16 164.091 267.352 162.599 266.533 161.136C265.714 159.673 264.889 158.239 264.052 156.841C263.215 155.442 262.372 154.073 261.518 152.733C260.664 151.393 259.803 150.088 258.932 148.812C257.194 146.261 255.415 143.838 253.612 141.55C251.968 141.609 250.33 141.498 248.715 141.222C248.176 141.129 247.644 141.018 247.111 140.889C244.987 140.374 242.921 139.566 240.979 138.472C239.329 137.548 237.807 136.436 236.444 135.178C235.9 134.674 235.373 134.148 234.881 133.592C232.646 131.111 230.937 128.173 229.884 124.932C225.829 112.462 232.541 99.0263 244.87 94.737L244.864 94.7253ZM236.555 122.749C239.311 131.228 248.077 136.067 256.603 134.095C269.868 149.836 289.524 181.769 301.988 241.391L383.554 217.879C382.132 214.93 349.983 148.871 303.439 100.946C298.278 95.6323 291.449 89.7807 283.906 91.0388C285.603 93.4965 286.382 95.8839 286.382 95.8839C283.895 92.8938 282.262 91.5479 281.437 90.9803C278.435 89.0551 274.632 88.429 270.974 89.6168C269.125 90.2196 267.522 91.2202 266.217 92.4959C269.576 94.0875 272.104 97.7857 272.104 97.7857C267.416 94.5147 264.906 93.9939 264.906 93.9939C262.448 93.1337 259.71 93.0342 257.042 93.9002C254.391 94.7604 252.243 96.4399 250.763 98.564C255.426 99.5412 259.85 103.725 259.85 103.725C253.712 99.5763 249.557 100.729 249.557 100.729C248.878 100.864 248.194 101.033 247.521 101.25C238.562 104.164 233.658 113.79 236.572 122.749H236.555Z" fill="#786565"/>
<path d="M141.899 101.244C141.22 101.022 140.542 100.852 139.863 100.723C139.863 100.723 135.708 99.5706 129.57 103.719C129.57 103.719 133.988 99.5355 138.657 98.5582C137.183 96.4341 135.029 94.7547 132.379 93.8945C129.716 93.0284 126.972 93.1338 124.514 93.9881C124.514 93.9881 122.004 94.5089 117.317 97.78C117.317 97.78 119.839 94.0817 123.203 92.4901C121.898 91.2203 120.295 90.2138 118.446 89.6111C114.789 88.4232 110.985 89.0435 107.983 90.9745C107.158 91.5421 105.525 92.888 103.039 95.8782C103.039 95.8782 103.817 93.4907 105.514 91.033C97.971 89.7749 91.1421 95.6266 85.981 100.94C38.3544 149.977 5.80176 217.996 5.80176 217.996L86.8119 244.346C99.2349 182.822 119.318 150.094 132.8 134.095C141.326 136.061 150.086 131.222 152.848 122.749C155.762 113.79 150.864 104.164 141.899 101.25V101.244Z" fill="white"/>
<path d="M144.538 94.7253C143.491 93.1863 142.233 91.8112 140.805 90.6409C140.6 90.4712 140.395 90.3132 140.184 90.1493C139.553 89.6754 138.891 89.2365 138.201 88.8386C137.054 88.1773 135.831 87.6331 134.549 87.2177C134.233 87.1182 133.917 87.0187 133.601 86.9368C133.285 86.8549 132.969 86.7729 132.648 86.7027C132.332 86.6325 132.01 86.574 131.688 86.5213C130.085 86.258 128.464 86.1995 126.854 86.3458C125.017 84.8419 122.91 83.6833 120.611 82.9401C120.306 82.8406 120.002 82.7529 119.698 82.6709C115.122 81.4304 110.253 81.9278 106.04 84.0168C103.817 83.7125 101.681 83.812 99.6443 84.1982C98.6261 84.3913 97.6372 84.6546 96.6775 84.9765C95.7178 85.2983 94.7816 85.6787 93.8804 86.1C93.2777 86.3809 92.6925 86.6793 92.1249 86.9953C91.5573 87.3113 90.9956 87.639 90.4572 87.9842C90.188 88.1539 89.9189 88.3295 89.6555 88.505C85.7232 91.1324 82.6979 94.2455 80.9307 96.0653C71.5389 105.738 62.738 116.136 54.7212 126.482C52.72 129.069 50.7597 131.655 48.8579 134.218C46.3183 137.641 43.8723 141.041 41.5316 144.382C40.3613 146.056 39.2085 147.712 38.085 149.35C35.838 152.627 33.6963 155.84 31.6599 158.947C30.6417 160.504 29.6528 162.031 28.6931 163.535C28.2133 164.284 27.7393 165.027 27.2712 165.764C25.4045 168.708 23.6549 171.534 22.0223 174.214C7.90809 197.381 -0.202283 214.269 -0.541679 214.977L-4 222.203L92.8096 250.104L93.6873 245.745C99.1235 218.821 106.555 195.058 115.777 175.103C117.293 171.821 118.849 168.655 120.447 165.612C121.243 164.091 122.05 162.599 122.869 161.136C123.689 159.673 124.514 158.239 125.351 156.841C126.187 155.442 127.03 154.073 127.884 152.733C128.739 151.393 129.599 150.088 130.471 148.812C132.209 146.261 133.988 143.838 135.79 141.55C137.434 141.609 139.073 141.498 140.688 141.222C141.226 141.129 141.759 141.018 142.291 140.889C144.415 140.374 146.481 139.566 148.424 138.472C150.074 137.548 151.595 136.436 152.959 135.178C153.503 134.674 154.029 134.148 154.521 133.592C156.756 131.111 158.465 128.173 159.518 124.932C163.574 112.462 156.862 99.0263 144.532 94.737L144.538 94.7253ZM152.847 122.749C150.091 131.228 141.326 136.067 132.8 134.095C119.534 149.836 99.8784 181.769 87.4144 241.391L5.84832 217.879C7.27026 214.93 39.4192 148.871 85.9632 100.946C91.1243 95.6323 97.9532 89.7807 105.496 91.0388C103.799 93.4965 103.021 95.8839 103.021 95.8839C105.508 92.8938 107.14 91.5479 107.965 90.9803C110.967 89.0551 114.771 88.429 118.428 89.6168C120.277 90.2196 121.881 91.2202 123.185 92.4959C119.827 94.0875 117.299 97.7857 117.299 97.7857C121.986 94.5147 124.496 93.9939 124.496 93.9939C126.954 93.1337 129.692 93.0342 132.361 93.9002C135.012 94.7604 137.159 96.4399 138.64 98.564C133.976 99.5412 129.552 103.725 129.552 103.725C135.69 99.5763 139.845 100.729 139.845 100.729C140.524 100.864 141.209 101.033 141.881 101.25C150.84 104.164 155.744 113.79 152.83 122.749H152.847Z" fill="#786565"/>
</g>
</svg>
