<svg width="390" height="214" viewBox="0 0 390 214" fill="none" xmlns="http://www.w3.org/2000/svg">
<mask id="mask0_970_4256" style="mask-type:alpha" maskUnits="userSpaceOnUse" x="0" y="84" width="390" height="130">
<rect y="84" width="390" height="130" fill="white"/>
</mask>
<g mask="url(#mask0_970_4256)">
<path d="M247.503 103.244C248.182 103.021 248.861 102.852 249.539 102.723C249.539 102.723 253.694 101.57 259.832 105.719C259.832 105.719 255.414 101.535 250.745 100.558C252.219 98.4336 254.373 96.7542 257.024 95.894C259.686 95.0279 262.431 95.1333 264.888 95.9876C264.888 95.9876 267.399 96.5084 272.086 99.7795C272.086 99.7795 269.564 96.0812 266.199 94.4896C267.504 93.2198 269.107 92.2133 270.956 91.6106C274.614 90.4227 278.417 91.043 281.419 92.974C282.244 93.5416 283.877 94.8875 286.364 97.8777C286.364 97.8777 285.586 95.4902 283.889 93.0325C291.431 91.7744 298.26 97.6261 303.421 102.939C351.048 151.976 383.601 219.996 383.601 219.996L302.59 246.346C290.167 184.821 270.085 152.093 256.602 136.095C248.077 138.061 239.317 133.222 236.555 124.748C233.641 115.79 238.538 106.164 247.503 103.25V103.244Z" fill="#DFE0E2"/>
<mask id="mask1_970_4256" style="mask-type:alpha" maskUnits="userSpaceOnUse" x="235" y="91" width="149" height="156">
<path d="M247.503 103.244C248.182 103.021 248.861 102.852 249.539 102.723C249.539 102.723 253.694 101.57 259.832 105.719C259.832 105.719 255.414 101.535 250.745 100.558C252.219 98.4336 254.373 96.7542 257.024 95.894C259.686 95.0279 262.431 95.1333 264.888 95.9876C264.888 95.9876 267.399 96.5084 272.086 99.7795C272.086 99.7795 269.564 96.0812 266.199 94.4896C267.504 93.2198 269.107 92.2133 270.956 91.6106C274.614 90.4227 278.417 91.043 281.419 92.974C282.244 93.5416 283.877 94.8875 286.364 97.8777C286.364 97.8777 285.586 95.4902 283.889 93.0325C291.431 91.7744 298.26 97.6261 303.421 102.939C351.048 151.976 383.601 219.996 383.601 219.996L302.59 246.346C290.167 184.821 270.085 152.093 256.602 136.095C248.077 138.061 239.317 133.222 236.555 124.748C233.641 115.79 238.538 106.164 247.503 103.25V103.244Z" fill="#D9D9D9"/>
</mask>
<g mask="url(#mask1_970_4256)">
<g filter="url(#filter0_f_970_4256)">
<path d="M367.981 234.683C351.087 241.038 345.908 244.887 342.285 239.331L342.269 239.307C338.646 233.751 348.709 227.661 361.337 214.765C362.447 213.627 363.474 212.497 364.435 211.364C365.023 210.67 365.593 209.987 366.126 209.306C367.404 207.667 365.86 205.59 363.887 206.301C363.578 206.41 363.274 206.528 362.965 206.637C360.59 207.53 358.352 208.437 356.265 209.303C355.568 209.596 354.88 209.884 354.215 210.168C353.333 210.547 352.469 210.915 351.628 211.279C349.539 212.181 347.631 213.011 345.878 213.728C345.176 214.013 344.501 214.281 343.861 214.525C338.36 216.616 334.74 217.136 332.813 214.18L332.797 214.156C330.759 211.031 333.053 207.739 337.693 203.16C338.211 202.65 338.755 202.122 339.331 201.585C339.615 201.32 339.911 201.035 340.212 200.757C340.81 200.195 341.434 199.615 342.076 199.024C342.718 198.433 343.391 197.81 344.076 197.168C346.477 194.934 349.115 192.443 351.878 189.617C352.109 189.386 352.334 189.147 352.559 188.908C354.005 187.39 352.727 185.139 350.711 185.648C349.882 185.855 349.037 186.095 348.178 186.355C346.745 186.784 345.283 187.265 343.784 187.828C326.891 194.183 317.26 200.935 313.637 195.379L313.622 195.355C309.999 189.799 315.61 186.612 328.238 173.716C340.866 160.82 328.67 134.119 328.67 134.119L338.725 132.396L344.134 150.104C353.781 160.053 361.196 178.08 371.202 193.423C381.207 208.766 388.705 211.226 393.919 224.065L410.045 241.769L401.409 242.063C401.409 242.063 384.894 228.338 368.005 234.701L367.981 234.683Z" fill="#C1C1C1"/>
</g>
</g>
<path d="M244.864 96.7253C245.911 95.1863 247.169 93.8112 248.597 92.6409C248.802 92.4712 249.007 92.3132 249.217 92.1493C249.849 91.6754 250.511 91.2365 251.201 90.8386C252.348 90.1773 253.571 89.6331 254.853 89.2177C255.169 89.1182 255.484 89.0187 255.8 88.9368C256.116 88.8549 256.432 88.7729 256.754 88.7027C257.07 88.6325 257.392 88.574 257.714 88.5213C259.317 88.258 260.938 88.1995 262.547 88.3458C264.385 86.8419 266.491 85.6833 268.791 84.9401C269.095 84.8406 269.4 84.7529 269.704 84.6709C274.28 83.4304 279.149 83.9278 283.362 86.0168C285.585 85.7125 287.721 85.812 289.758 86.1982C290.776 86.3913 291.765 86.6546 292.724 86.9765C293.684 87.2983 294.62 87.6787 295.521 88.1C296.124 88.3809 296.709 88.6793 297.277 88.9953C297.845 89.3113 298.406 89.639 298.945 89.9842C299.214 90.1539 299.483 90.3295 299.746 90.505C303.679 93.1324 306.704 96.2455 308.471 98.0653C317.863 107.738 326.664 118.136 334.681 128.482C336.682 131.069 338.642 133.655 340.544 136.218C343.084 139.641 345.53 143.041 347.87 146.382C349.041 148.056 350.193 149.712 351.317 151.35C353.564 154.627 355.706 157.84 357.742 160.947C358.76 162.504 359.749 164.031 360.709 165.535C361.189 166.284 361.663 167.027 362.131 167.764C363.997 170.708 365.747 173.534 367.38 176.214C381.494 199.381 389.604 216.269 389.944 216.977L393.402 224.203L296.592 252.104L295.715 247.745C290.278 220.821 282.847 197.058 273.625 177.103C272.109 173.821 270.552 170.655 268.955 167.612C268.159 166.091 267.352 164.599 266.532 163.136C265.713 161.673 264.888 160.239 264.051 158.841C263.215 157.442 262.372 156.073 261.518 154.733C260.663 153.393 259.803 152.088 258.931 150.812C257.193 148.261 255.414 145.838 253.612 143.55C251.968 143.609 250.329 143.498 248.714 143.222C248.176 143.129 247.643 143.018 247.111 142.889C244.987 142.374 242.921 141.566 240.978 140.472C239.328 139.548 237.807 138.436 236.443 137.178C235.899 136.674 235.372 136.148 234.881 135.592C232.646 133.111 230.937 130.173 229.884 126.932C225.828 114.462 232.54 101.026 244.87 96.737L244.864 96.7253ZM236.554 124.749C239.311 133.228 248.076 138.067 256.602 136.095C269.868 151.836 289.523 183.769 301.987 243.391L383.554 219.879C382.132 216.93 349.983 150.871 303.439 102.946C298.278 97.6323 291.449 91.7807 283.906 93.0388C285.603 95.4965 286.381 97.8839 286.381 97.8839C283.894 94.8938 282.262 93.5479 281.437 92.9803C278.435 91.0551 274.631 90.429 270.974 91.6168C269.125 92.2196 267.521 93.2202 266.216 94.4959C269.575 96.0875 272.103 99.7857 272.103 99.7857C267.416 96.5147 264.906 95.9939 264.906 95.9939C262.448 95.1337 259.709 95.0342 257.041 95.9002C254.39 96.7604 252.243 98.4399 250.762 100.564C255.426 101.541 259.85 105.725 259.85 105.725C253.711 101.576 249.557 102.729 249.557 102.729C248.878 102.864 248.193 103.033 247.52 103.25C238.562 106.164 233.658 115.79 236.572 124.749H236.554Z" fill="#786565"/>
<path d="M141.899 103.244C141.22 103.021 140.542 102.852 139.863 102.723C139.863 102.723 135.708 101.57 129.57 105.719C129.57 105.719 133.988 101.535 138.657 100.558C137.183 98.4336 135.029 96.7542 132.379 95.894C129.716 95.0279 126.972 95.1333 124.514 95.9876C124.514 95.9876 122.004 96.5084 117.317 99.7795C117.317 99.7795 119.839 96.0812 123.203 94.4896C121.898 93.2198 120.295 92.2133 118.446 91.6106C114.789 90.4227 110.985 91.043 107.983 92.974C107.158 93.5416 105.525 94.8875 103.039 97.8777C103.039 97.8777 103.817 95.4902 105.514 93.0325C97.971 91.7744 91.1421 97.6261 85.981 102.939C38.3544 151.976 5.80176 219.996 5.80176 219.996L86.8119 246.346C99.2349 184.821 119.318 152.093 132.8 136.095C141.326 138.061 150.086 133.222 152.848 124.748C155.762 115.79 150.864 106.164 141.899 103.25V103.244Z" fill="#DFE0E2"/>
<mask id="mask2_970_4256" style="mask-type:alpha" maskUnits="userSpaceOnUse" x="5" y="91" width="149" height="156">
<path d="M141.9 103.244C141.221 103.021 140.543 102.852 139.864 102.723C139.864 102.723 135.709 101.57 129.571 105.719C129.571 105.719 133.989 101.535 138.658 100.558C137.184 98.4336 135.03 96.7542 132.38 95.894C129.717 95.0279 126.973 95.1333 124.515 95.9876C124.515 95.9876 122.005 96.5084 117.317 99.7795C117.317 99.7795 119.84 96.0812 123.204 94.4896C121.899 93.2198 120.296 92.2133 118.447 91.6106C114.79 90.4227 110.986 91.043 107.984 92.974C107.159 93.5416 105.526 94.8875 103.039 97.8777C103.039 97.8777 103.818 95.4902 105.515 93.0325C97.972 91.7744 91.1431 97.6261 85.9819 102.939C38.3554 151.976 5.80273 219.996 5.80273 219.996L86.8129 246.346C99.2359 184.821 119.319 152.093 132.801 136.095C141.327 138.061 150.087 133.222 152.849 124.748C155.763 115.79 150.865 106.164 141.9 103.25V103.244Z" fill="#D9D9D9"/>
</mask>
<g mask="url(#mask2_970_4256)">
<g filter="url(#filter1_f_970_4256)">
<path d="M21.4217 234.683C38.3151 241.038 43.4943 244.887 47.1172 239.331L47.133 239.307C50.7559 233.751 40.6935 227.661 28.0654 214.766C26.9551 213.627 25.9283 212.497 24.967 211.364C24.3792 210.67 23.8091 209.988 23.2763 209.306C21.9979 207.667 23.5427 205.59 25.5153 206.301C25.8245 206.41 26.1285 206.528 26.4377 206.638C28.8122 207.53 31.0502 208.437 33.1374 209.303C33.8343 209.596 34.5223 209.884 35.1872 210.168C36.0691 210.547 36.9332 210.915 37.7741 211.279C39.8633 212.181 41.7711 213.011 43.5239 213.728C44.2261 214.013 44.9015 214.281 45.5414 214.526C51.0424 216.617 54.6625 217.136 56.5898 214.18L56.6056 214.156C58.6435 211.031 56.349 207.739 51.7093 203.16C51.1918 202.65 50.6476 202.122 50.0714 201.586C49.7878 201.32 49.4916 201.035 49.1902 200.758C48.5926 200.195 47.9682 199.616 47.3261 199.024C46.684 198.433 46.0115 197.81 45.3264 197.168C42.9254 194.935 40.2869 192.443 37.5239 189.617C37.2936 189.386 37.0687 189.147 36.8437 188.909C35.3977 187.39 36.6754 185.139 38.691 185.648C39.5203 185.855 40.3658 186.095 41.2238 186.356C42.6574 186.784 44.1197 187.266 45.618 187.828C62.5114 194.183 72.142 200.935 75.7649 195.379L75.7807 195.355C79.4036 189.799 73.7926 186.612 61.1644 173.716C48.5363 160.82 60.7326 134.119 60.7326 134.119L50.6777 132.397L45.2681 150.105C35.6212 160.054 28.2058 178.08 18.2008 193.423C8.19574 208.766 0.697026 211.226 -4.51626 224.066L-20.6426 241.77L-12.0065 242.063C-12.0065 242.063 4.5088 228.339 21.397 234.701L21.4217 234.683Z" fill="#C1C1C1"/>
</g>
</g>
<path d="M144.538 96.7253C143.491 95.1863 142.233 93.8112 140.805 92.6409C140.6 92.4712 140.395 92.3132 140.184 92.1493C139.553 91.6754 138.891 91.2365 138.201 90.8386C137.054 90.1773 135.831 89.6331 134.549 89.2177C134.233 89.1182 133.917 89.0187 133.601 88.9368C133.285 88.8549 132.969 88.7729 132.648 88.7027C132.332 88.6325 132.01 88.574 131.688 88.5213C130.085 88.258 128.464 88.1995 126.854 88.3458C125.017 86.8419 122.91 85.6833 120.611 84.9401C120.306 84.8406 120.002 84.7529 119.698 84.6709C115.122 83.4304 110.253 83.9278 106.04 86.0168C103.817 85.7125 101.681 85.812 99.6443 86.1982C98.6261 86.3913 97.6372 86.6546 96.6775 86.9765C95.7178 87.2983 94.7816 87.6787 93.8804 88.1C93.2777 88.3809 92.6925 88.6793 92.1249 88.9953C91.5573 89.3113 90.9956 89.639 90.4572 89.9842C90.188 90.1539 89.9189 90.3295 89.6555 90.505C85.7232 93.1324 82.6979 96.2455 80.9307 98.0653C71.5389 107.738 62.738 118.136 54.7212 128.482C52.72 131.069 50.7597 133.655 48.8579 136.218C46.3183 139.641 43.8723 143.041 41.5316 146.382C40.3613 148.056 39.2085 149.712 38.085 151.35C35.838 154.627 33.6963 157.84 31.6599 160.947C30.6417 162.504 29.6528 164.031 28.6931 165.535C28.2133 166.284 27.7393 167.027 27.2712 167.764C25.4045 170.708 23.6549 173.534 22.0223 176.214C7.90809 199.381 -0.202283 216.269 -0.541679 216.977L-4 224.203L92.8096 252.104L93.6873 247.745C99.1235 220.821 106.555 197.058 115.777 177.103C117.293 173.821 118.849 170.655 120.447 167.612C121.243 166.091 122.05 164.599 122.869 163.136C123.689 161.673 124.514 160.239 125.351 158.841C126.187 157.442 127.03 156.073 127.884 154.733C128.739 153.393 129.599 152.088 130.471 150.812C132.209 148.261 133.988 145.838 135.79 143.55C137.434 143.609 139.073 143.498 140.688 143.222C141.226 143.129 141.759 143.018 142.291 142.889C144.415 142.374 146.481 141.566 148.424 140.472C150.074 139.548 151.595 138.436 152.959 137.178C153.503 136.674 154.029 136.148 154.521 135.592C156.756 133.111 158.465 130.173 159.518 126.932C163.574 114.462 156.862 101.026 144.532 96.737L144.538 96.7253ZM152.847 124.749C150.091 133.228 141.326 138.067 132.8 136.095C119.534 151.836 99.8784 183.769 87.4144 243.391L5.84832 219.879C7.27026 216.93 39.4192 150.871 85.9632 102.946C91.1243 97.6323 97.9532 91.7807 105.496 93.0388C103.799 95.4965 103.021 97.8839 103.021 97.8839C105.508 94.8938 107.14 93.5479 107.965 92.9803C110.967 91.0551 114.771 90.429 118.428 91.6168C120.277 92.2196 121.881 93.2202 123.185 94.4959C119.827 96.0875 117.299 99.7857 117.299 99.7857C121.986 96.5147 124.496 95.9939 124.496 95.9939C126.954 95.1337 129.692 95.0342 132.361 95.9002C135.012 96.7604 137.159 98.4399 138.64 100.564C133.976 101.541 129.552 105.725 129.552 105.725C135.69 101.576 139.845 102.729 139.845 102.729C140.524 102.864 141.209 103.033 141.881 103.25C150.84 106.164 155.744 115.79 152.83 124.749H152.847Z" fill="#786565"/>
</g>
<defs>
<filter id="filter0_f_970_4256" x="301.538" y="121.396" width="119.507" height="131.666" filterUnits="userSpaceOnUse" color-interpolation-filters="sRGB">
<feFlood flood-opacity="0" result="BackgroundImageFix"/>
<feBlend mode="normal" in="SourceGraphic" in2="BackgroundImageFix" result="shape"/>
<feGaussianBlur stdDeviation="5.5" result="effect1_foregroundBlur_970_4256"/>
</filter>
<filter id="filter1_f_970_4256" x="-31.6426" y="121.397" width="119.507" height="131.666" filterUnits="userSpaceOnUse" color-interpolation-filters="sRGB">
<feFlood flood-opacity="0" result="BackgroundImageFix"/>
<feBlend mode="normal" in="SourceGraphic" in2="BackgroundImageFix" result="shape"/>
<feGaussianBlur stdDeviation="5.5" result="effect1_foregroundBlur_970_4256"/>
</filter>
</defs>
</svg>
