<svg width="39" height="32" viewBox="0 0 39 32" fill="none" xmlns="http://www.w3.org/2000/svg">
<mask id="mask0_1322_5494" style="mask-type:alpha" maskUnits="userSpaceOnUse" x="0" y="0" width="39" height="32">
<path d="M5.74799 28.0988C9.06068 30.4174 13.4546 31.5436 19.1801 31.5436C24.9056 31.5436 29.2996 30.416 32.6122 28.0988C36.1035 25.655 38.3602 21.4678 38.3602 17.431C38.3602 14.6779 37.7191 12.2131 35.8054 9.69059L35.347 2.69542C35.2542 1.70134 34.6721 0.826765 33.7933 0.354328C32.9131 -0.118109 31.8628 -0.118109 30.9826 0.354328L25.2121 3.96369C23.4897 3.57562 21.3876 3.45892 19.1801 3.45892C16.9726 3.45892 14.8705 3.57562 13.1481 3.96369L7.37762 0.354328C6.49742 -0.116703 5.44709 -0.116703 4.5669 0.354328C3.6867 0.826765 3.10599 1.70134 3.01319 2.69542L2.55482 9.69059C0.641163 12.2131 0 14.6779 0 17.431C0 21.4678 2.25533 25.655 5.74799 28.0988Z" fill="#D9D9D9"/>
</mask>
<g mask="url(#mask0_1322_5494)">
<path d="M5.74799 28.0988C9.06068 30.4174 13.4546 31.5436 19.1801 31.5436C24.9056 31.5436 29.2996 30.416 32.6122 28.0988C36.1035 25.655 38.3602 21.4678 38.3602 17.431C38.3602 14.6779 37.7191 12.2131 35.8054 9.69059L35.347 2.69542C35.2542 1.70134 34.6721 0.826765 33.7933 0.354328C32.9131 -0.118109 31.8628 -0.118109 30.9826 0.354328L25.2121 3.96369C23.4897 3.57562 21.3876 3.45892 19.1801 3.45892C16.9726 3.45892 14.8705 3.57562 13.1481 3.96369L7.37762 0.354328C6.49742 -0.116703 5.44709 -0.116703 4.5669 0.354328C3.6867 0.826765 3.10599 1.70134 3.01319 2.69542L2.55482 9.69059C0.641163 12.2131 0 14.6779 0 17.431C0 21.4678 2.25533 25.655 5.74799 28.0988Z" fill="url(#paint0_radial_1322_5494)"/>
<g filter="url(#filter0_f_1322_5494)">
<path d="M25.5999 22.1157C23.0311 18.744 21.9048 17.1523 18.8171 17.1523C15.7294 17.1523 14.6031 18.744 12.0328 22.1157C10.6366 23.9479 7.40969 26.1568 5.07422 26.5449C5.31184 26.7375 5.55509 26.9231 5.80678 27.0988C9.11946 29.4174 13.5134 30.5437 19.2389 30.5437C24.9644 30.5437 29.3584 29.416 32.671 27.0988C32.8974 26.9414 33.1182 26.7754 33.3333 26.6025C30.9978 26.6742 27.1593 24.1602 25.6013 22.1157H25.5999Z" fill="white"/>
</g>
<path d="M18.7596 21.029C19.4515 21.029 20.0124 20.4681 20.0124 19.7762C20.0124 19.0843 19.4515 18.5234 18.7596 18.5234C18.0677 18.5234 17.5068 19.0843 17.5068 19.7762C17.5068 20.4681 18.0677 21.029 18.7596 21.029Z" fill="#786565"/>
<path d="M22.0491 21.9033C22.0491 21.9033 21.6709 22.8004 20.4645 22.851C19.3326 22.8974 18.8236 22.148 18.7646 22.0538C18.7618 22.0496 18.7561 22.0496 18.7533 22.0538C18.6943 22.148 18.1853 22.8974 17.0534 22.851C15.8456 22.8018 15.4688 21.9033 15.4688 21.9033" stroke="#786565" stroke-width="1.40606" stroke-miterlimit="10" stroke-linecap="round"/>
<path d="M14.8677 16.6878C15.0997 15.7261 15.0969 14.8009 14.9071 14.088C14.7173 13.3751 14.1366 13.115 13.6149 12.9899C13.0933 12.8647 12.4591 12.831 11.9656 13.3793C11.4721 13.9277 11.0488 14.7503 10.8168 15.712C10.5848 16.6737 10.5876 17.5989 10.7775 18.3118C10.7775 18.3146 10.7789 18.3174 10.7803 18.3202C10.8815 18.6943 11.2358 18.9431 11.6225 18.9431H13.3463C13.6346 18.9431 13.9088 18.8053 14.0691 18.5649C14.4093 18.0573 14.6934 17.4119 14.8677 16.6878Z" fill="#786565"/>
<path d="M27.5454 16.6888C27.7774 15.727 27.7746 14.8018 27.5848 14.089C27.395 13.3761 26.8143 13.116 26.2926 12.9908C25.771 12.8657 25.1369 12.832 24.6433 13.3803C24.1498 13.9287 23.7266 14.7512 23.4946 15.713C23.2626 16.6747 23.2654 17.5999 23.4552 18.3128C23.4552 18.3156 23.4566 18.3184 23.458 18.3212C23.5593 18.6952 23.9136 18.9441 24.3002 18.9441H26.0241C26.3123 18.9441 26.5865 18.8063 26.7468 18.5659C27.0871 18.0583 27.3711 17.4129 27.5454 16.6888Z" fill="#786565"/>
<g filter="url(#filter1_f_1322_5494)">
<path d="M14.0801 7.63945C14.6304 9.8695 14.5747 10.6846 15.5096 10.6846H15.5136C16.4484 10.6846 16.3927 9.19699 16.943 6.96694C16.9919 6.77057 17.0463 6.58361 17.1061 6.40338C17.1428 6.29309 17.1795 6.18548 17.2189 6.08192C17.314 5.83309 17.6781 5.85326 17.7461 6.11151C17.7569 6.15186 17.7664 6.19221 17.7773 6.23256C17.8548 6.54595 17.92 6.84589 17.9784 7.127C17.9974 7.22115 18.0164 7.31396 18.0341 7.40407C18.0572 7.52378 18.0803 7.6408 18.102 7.75512C18.1564 8.03892 18.2053 8.29851 18.2556 8.53389C18.276 8.62804 18.2964 8.71816 18.3167 8.80289C18.4934 9.53055 18.7108 9.9502 19.2081 9.9502H19.2121C19.738 9.9502 19.95 9.47944 20.1334 8.67108C20.1538 8.58097 20.1741 8.48681 20.1932 8.38863C20.2027 8.34021 20.2135 8.2891 20.2231 8.23799C20.2434 8.13576 20.2638 8.02951 20.2842 7.92056C20.3046 7.81161 20.3263 7.69729 20.3494 7.58027C20.4282 7.17138 20.5193 6.71946 20.6402 6.23122C20.6497 6.19086 20.6606 6.15051 20.6714 6.11016C20.7394 5.85192 21.1035 5.83174 21.1986 6.08057C21.238 6.18279 21.2747 6.28905 21.3101 6.398C21.3698 6.57958 21.4256 6.76788 21.4745 6.9656C22.0248 9.19564 21.9691 10.6832 22.9039 10.6832H22.908C23.8428 10.6832 23.7871 9.86815 24.3374 7.63811C24.8877 5.40806 28.9789 4.85526 28.9789 4.85526L28.4082 3.6703L25.8945 3.8707C23.9773 3.53579 21.7883 3.37305 19.2067 3.37305C16.6251 3.37305 14.4361 3.53579 12.5189 3.8707L10.0052 3.6703L9.43457 4.85526C9.43457 4.85526 13.5271 5.40806 14.0761 7.63811L14.0801 7.63945Z" fill="#EEBB37"/>
</g>
<g filter="url(#filter2_f_1322_5494)">
<path d="M36.8969 12.2311L35.7305 12.0908C35.7305 12.0908 35.1667 13.8054 34.3688 13.9178C32.3013 14.2075 30.9537 13.8826 30.844 14.7016V14.7056C30.7329 15.5246 32.082 15.6641 34.0301 16.4262C34.2701 16.5209 34.4963 16.6238 34.706 16.7321C34.9514 16.8594 34.8788 17.2222 34.6032 17.2492H34.595C32.5166 17.4509 31.1799 17.2154 31.0702 18.033V18.0371C30.9591 18.8561 32.3082 18.9955 34.2564 19.7576L34.2673 19.7617C34.5237 19.8619 34.4922 20.2314 34.2221 20.2869C33.9931 20.3343 33.7491 20.3709 33.4941 20.3966C31.4157 20.5969 30.079 20.3614 29.9693 21.1804V21.1844C29.8582 22.0034 30.9482 22.2146 31.6474 22.905C33.4941 24.7284 32.8537 25.0262 32.8537 25.0262H34.3701C36.4444 22.7128 37.6948 19.7008 37.6948 16.7714C37.6948 15.2322 37.4178 13.6822 36.8982 12.2324L36.8969 12.2311Z" fill="#EEBB37"/>
</g>
<g filter="url(#filter3_f_1322_5494)">
<path d="M1.51475 12.2311L2.68114 12.0908C2.68114 12.0908 3.24493 13.8054 4.04285 13.9178C6.11029 14.2075 7.45796 13.8826 7.56764 14.7016V14.7056C7.67869 15.5246 6.32964 15.6641 4.38148 16.4262C4.14156 16.5209 3.91534 16.6238 3.70558 16.7321C3.46018 16.8594 3.53284 17.2222 3.80841 17.2492H3.81663C5.89504 17.4509 7.23175 17.2154 7.34143 18.033V18.0371C7.45248 18.8561 6.10343 18.9955 4.15527 19.7576L4.1443 19.7617C3.88792 19.8619 3.91946 20.2314 4.18954 20.2869C4.4185 20.3343 4.66253 20.3709 4.91753 20.3966C6.99594 20.5969 8.33265 20.3614 8.44233 21.1804V21.1844C8.55338 22.0034 7.46345 22.2146 6.76425 22.905C4.91753 24.7284 5.5579 25.0262 5.5579 25.0262H4.04148C1.96718 22.7128 0.716845 19.7008 0.716845 16.7714C0.716845 15.2322 0.993783 13.6822 1.51339 12.2324L1.51475 12.2311Z" fill="#EEBB37"/>
</g>
</g>
<path d="M35.8054 9.69059L35.347 2.69542C35.2542 1.70134 34.6721 0.826765 33.7933 0.354328C32.9131 -0.118109 31.8628 -0.118109 30.9826 0.354328L25.2121 3.96369C23.4897 3.57562 21.3876 3.45892 19.1801 3.45892C16.9726 3.45892 14.8705 3.57562 13.1481 3.96369L7.37762 0.354328C6.49742 -0.116703 5.44709 -0.116703 4.5669 0.354328C3.6867 0.826765 3.10599 1.70134 3.01319 2.69542L2.55482 9.69059C0.641163 12.2131 0 14.6779 0 17.431C0 21.4678 2.25533 25.655 5.74799 28.0988C9.06068 30.4174 13.4546 31.5436 19.1801 31.5436C24.9056 31.5436 29.2996 30.416 32.6122 28.0988C36.1035 25.655 38.3602 21.4678 38.3602 17.431C38.3602 14.6779 37.7191 12.2131 35.8054 9.69059ZM31.5647 26.6013C28.5698 28.6978 24.5189 29.7158 19.1801 29.7158C13.8413 29.7158 9.79042 28.6964 6.7955 26.6013C3.77809 24.4894 1.82788 20.8899 1.82788 17.431C1.82788 14.9633 2.61668 12.4366 3.99322 10.5019C3.99322 10.5019 4.09727 10.35 4.13523 10.3022C4.44176 9.90572 5.08995 9.11832 6.13606 8.3014C6.13606 8.3014 5.02387 8.54605 4.20976 9.02693L4.83264 2.86837C4.8692 2.4803 5.08714 2.15128 5.43162 1.96708C5.77189 1.78429 6.16137 1.78289 6.50164 1.96005L12.0401 5.18978C11.5269 5.49771 10.807 5.77892 10.1996 6.38634C10.1996 6.38634 11.7181 5.91109 13.7626 5.63129C16.0052 5.32476 16.9248 5.2868 19.1787 5.2868C21.4326 5.2868 22.3522 5.32336 24.5949 5.63129C26.6393 5.91109 28.1578 6.38634 28.1578 6.38634C27.5504 5.77892 26.8305 5.49771 26.3173 5.18978L31.8558 1.96005C32.1974 1.78148 32.5869 1.78429 32.9258 1.96708C33.2703 2.15128 33.4882 2.4803 33.5248 2.86837L34.1477 9.02693C33.3336 8.54746 32.2214 8.3014 32.2214 8.3014C33.2675 9.11832 33.9157 9.90712 34.2222 10.3022C34.2601 10.35 34.3642 10.5019 34.3642 10.5019C35.7393 12.438 36.5295 14.9633 36.5295 17.431C36.5295 20.8899 34.5793 24.4894 31.5619 26.6013H31.5647Z" fill="#786565"/>
<defs>
<filter id="filter0_f_1322_5494" x="2.96512" y="15.0432" width="32.4775" height="17.6098" filterUnits="userSpaceOnUse" color-interpolation-filters="sRGB">
<feFlood flood-opacity="0" result="BackgroundImageFix"/>
<feBlend mode="normal" in="SourceGraphic" in2="BackgroundImageFix" result="shape"/>
<feGaussianBlur stdDeviation="1.05455" result="effect1_foregroundBlur_1322_5494"/>
</filter>
<filter id="filter1_f_1322_5494" x="7.8879" y="1.82638" width="22.6378" height="10.4049" filterUnits="userSpaceOnUse" color-interpolation-filters="sRGB">
<feFlood flood-opacity="0" result="BackgroundImageFix"/>
<feBlend mode="normal" in="SourceGraphic" in2="BackgroundImageFix" result="shape"/>
<feGaussianBlur stdDeviation="0.773335" result="effect1_foregroundBlur_1322_5494"/>
</filter>
<filter id="filter2_f_1322_5494" x="28.4148" y="10.5442" width="10.8267" height="16.0289" filterUnits="userSpaceOnUse" color-interpolation-filters="sRGB">
<feFlood flood-opacity="0" result="BackgroundImageFix"/>
<feBlend mode="normal" in="SourceGraphic" in2="BackgroundImageFix" result="shape"/>
<feGaussianBlur stdDeviation="0.773335" result="effect1_foregroundBlur_1322_5494"/>
</filter>
<filter id="filter3_f_1322_5494" x="-0.829873" y="10.5442" width="10.8267" height="16.0289" filterUnits="userSpaceOnUse" color-interpolation-filters="sRGB">
<feFlood flood-opacity="0" result="BackgroundImageFix"/>
<feBlend mode="normal" in="SourceGraphic" in2="BackgroundImageFix" result="shape"/>
<feGaussianBlur stdDeviation="0.773335" result="effect1_foregroundBlur_1322_5494"/>
</filter>
<radialGradient id="paint0_radial_1322_5494" cx="0" cy="0" r="1" gradientUnits="userSpaceOnUse" gradientTransform="translate(19.1801 15.7718) rotate(90.1435) scale(17.9724 21.8562)">
<stop offset="0.729929" stop-color="#FFDA7A"/>
<stop offset="0.888746" stop-color="#F0BE3D"/>
</radialGradient>
</defs>
</svg>
