<svg width="390" height="214" viewBox="0 0 390 214" fill="none" xmlns="http://www.w3.org/2000/svg">
<mask id="mask0_970_4260" style="mask-type:alpha" maskUnits="userSpaceOnUse" x="0" y="84" width="390" height="130">
<rect y="84" width="390" height="130" fill="white"/>
</mask>
<g mask="url(#mask0_970_4260)">
<path d="M247.503 103.244C248.182 103.022 248.86 102.852 249.539 102.723C249.539 102.723 253.694 101.571 259.832 105.719C259.832 105.719 255.414 101.535 250.745 100.558C252.219 98.4341 254.373 96.7547 257.023 95.8945C259.686 95.0284 262.43 95.1338 264.888 95.9881C264.888 95.9881 267.398 96.5089 272.086 99.78C272.086 99.78 269.564 96.0817 266.199 94.4901C267.504 93.2203 269.107 92.2138 270.956 91.6111C274.614 90.4232 278.417 91.0435 281.419 92.9745C282.244 93.5421 283.877 94.888 286.364 97.8782C286.364 97.8782 285.585 95.4907 283.888 93.033C291.431 91.7749 298.26 97.6266 303.421 102.94C351.048 151.977 383.601 219.996 383.601 219.996L302.59 246.346C290.167 184.822 270.084 152.094 256.602 136.095C248.076 138.061 239.316 133.222 236.554 124.749C233.64 115.79 238.538 106.164 247.503 103.25V103.244Z" fill="url(#paint0_radial_970_4260)"/>
<path d="M244.864 96.7253C245.911 95.1864 247.17 93.8112 248.597 92.6409C248.802 92.4712 249.007 92.3132 249.218 92.1493C249.85 91.6754 250.511 91.2365 251.201 90.8386C252.348 90.1773 253.571 89.6331 254.853 89.2177C255.169 89.1182 255.485 89.0187 255.801 88.9368C256.117 88.8549 256.433 88.7729 256.755 88.7027C257.071 88.6325 257.392 88.574 257.714 88.5213C259.318 88.258 260.938 88.1995 262.548 88.3458C264.385 86.8419 266.492 85.6833 268.791 84.9401C269.096 84.8406 269.4 84.7529 269.704 84.6709C274.28 83.4304 279.149 83.9278 283.362 86.0168C285.586 85.7125 287.721 85.812 289.758 86.1982C290.776 86.3913 291.765 86.6546 292.725 86.9765C293.684 87.2983 294.621 87.6787 295.522 88.1C296.124 88.3809 296.71 88.6793 297.277 88.9953C297.845 89.3113 298.407 89.639 298.945 89.9842C299.214 90.1539 299.483 90.3295 299.747 90.505C303.679 93.1324 306.704 96.2455 308.471 98.0654C317.863 107.738 326.664 118.137 334.681 128.482C336.682 131.069 338.643 133.655 340.544 136.218C343.084 139.641 345.53 143.041 347.871 146.382C349.041 148.056 350.194 149.712 351.317 151.351C353.564 154.627 355.706 157.84 357.742 160.947C358.761 162.504 359.749 164.031 360.709 165.535C361.189 166.284 361.663 167.027 362.131 167.764C363.998 170.708 365.747 173.534 367.38 176.214C381.494 199.381 389.605 216.269 389.944 216.977L393.402 224.204L296.593 252.104L295.715 247.745C290.279 220.821 282.847 197.058 273.625 177.104C272.109 173.821 270.553 170.655 268.955 167.612C268.159 166.091 267.352 164.599 266.533 163.136C265.713 161.673 264.888 160.239 264.052 158.841C263.215 157.442 262.372 156.073 261.518 154.733C260.663 153.393 259.803 152.088 258.931 150.812C257.193 148.261 255.415 145.838 253.612 143.55C251.968 143.609 250.329 143.498 248.714 143.223C248.176 143.129 247.644 143.018 247.111 142.889C244.987 142.374 242.921 141.567 240.978 140.472C239.328 139.548 237.807 138.436 236.443 137.178C235.899 136.675 235.373 136.148 234.881 135.592C232.646 133.111 230.937 130.173 229.884 126.932C225.829 114.462 232.54 101.026 244.87 96.7371L244.864 96.7253ZM236.555 124.749C239.311 133.228 248.077 138.067 256.602 136.095C269.868 151.836 289.524 183.769 301.988 243.391L383.554 219.879C382.132 216.93 349.983 150.871 303.439 102.946C298.278 97.6323 291.449 91.7807 283.906 93.0388C285.603 95.4965 286.381 97.884 286.381 97.884C283.895 94.8938 282.262 93.5479 281.437 92.9803C278.435 91.0551 274.631 90.429 270.974 91.6169C269.125 92.2196 267.522 93.2202 266.217 94.4959C269.576 96.0875 272.103 99.7858 272.103 99.7858C267.416 96.5147 264.906 95.9939 264.906 95.9939C262.448 95.1337 259.71 95.0342 257.041 95.9003C254.39 96.7605 252.243 98.4399 250.762 100.564C255.426 101.541 259.85 105.725 259.85 105.725C253.712 101.576 249.557 102.729 249.557 102.729C248.878 102.864 248.194 103.033 247.521 103.25C238.562 106.164 233.658 115.79 236.572 124.749H236.555Z" fill="#786565"/>
<path d="M141.899 103.244C141.221 103.022 140.542 102.852 139.863 102.723C139.863 102.723 135.708 101.571 129.57 105.719C129.57 105.719 133.988 101.535 138.658 100.558C137.183 98.4341 135.03 96.7547 132.379 95.8945C129.716 95.0284 126.972 95.1338 124.514 95.9881C124.514 95.9881 122.004 96.5089 117.317 99.78C117.317 99.78 119.839 96.0817 123.203 94.4901C121.899 93.2203 120.295 92.2138 118.446 91.6111C114.789 90.4232 110.985 91.0435 107.983 92.9745C107.158 93.5421 105.526 94.888 103.039 97.8782C103.039 97.8782 103.817 95.4907 105.514 93.033C97.9711 91.7749 91.1423 97.6266 85.9811 102.94C38.3545 151.977 5.80176 219.996 5.80176 219.996L86.812 246.346C99.2351 184.822 119.318 152.094 132.8 136.095C141.326 138.061 150.086 133.222 152.848 124.749C155.762 115.79 150.864 106.164 141.899 103.25V103.244Z" fill="url(#paint1_radial_970_4260)"/>
<path d="M144.538 96.7253C143.491 95.1864 142.233 93.8112 140.805 92.6409C140.6 92.4712 140.395 92.3132 140.185 92.1493C139.553 91.6754 138.891 91.2365 138.201 90.8386C137.054 90.1773 135.831 89.6331 134.55 89.2177C134.234 89.1182 133.918 89.0187 133.602 88.9368C133.286 88.8549 132.97 88.7729 132.648 88.7027C132.332 88.6325 132.01 88.574 131.688 88.5213C130.085 88.258 128.464 88.1995 126.855 88.3458C125.017 86.8419 122.911 85.6833 120.611 84.9401C120.307 84.8406 120.002 84.7529 119.698 84.6709C115.122 83.4304 110.254 83.9278 106.04 86.0168C103.817 85.7125 101.681 85.812 99.6445 86.1982C98.6263 86.3913 97.6373 86.6546 96.6777 86.9765C95.718 87.2983 94.7817 87.6787 93.8806 88.1C93.2779 88.3809 92.6927 88.6793 92.1251 88.9953C91.5575 89.3113 90.9957 89.639 90.4574 89.9842C90.1882 90.1539 89.919 90.3295 89.6557 90.505C85.7234 93.1324 82.6981 96.2455 80.9309 98.0654C71.539 107.738 62.7381 118.137 54.7213 128.482C52.7201 131.069 50.7598 133.655 48.858 136.218C46.3184 139.641 43.8724 143.041 41.5317 146.382C40.3614 148.056 39.2086 149.712 38.0851 151.351C35.8381 154.627 33.6963 157.84 31.66 160.947C30.6418 162.504 29.6529 164.031 28.6932 165.535C28.2133 166.284 27.7394 167.027 27.2712 167.764C25.4046 170.708 23.6549 173.534 22.0223 176.214C7.90811 199.381 -0.202277 216.269 -0.541673 216.977L-4 224.204L92.8097 252.104L93.6875 247.745C99.1237 220.821 106.555 197.058 115.777 177.104C117.293 173.821 118.85 170.655 120.447 167.612C121.243 166.091 122.05 164.599 122.87 163.136C123.689 161.673 124.514 160.239 125.351 158.841C126.188 157.442 127.03 156.073 127.885 154.733C128.739 153.393 129.599 152.088 130.471 150.812C132.209 148.261 133.988 145.838 135.79 143.55C137.434 143.609 139.073 143.498 140.688 143.223C141.226 143.129 141.759 143.018 142.291 142.889C144.415 142.374 146.481 141.567 148.424 140.472C150.074 139.548 151.595 138.436 152.959 137.178C153.503 136.675 154.03 136.148 154.521 135.592C156.757 133.111 158.465 130.173 159.519 126.932C163.574 114.462 156.862 101.026 144.533 96.7371L144.538 96.7253ZM152.848 124.749C150.092 133.228 141.326 138.067 132.8 136.095C119.534 151.836 99.8785 183.769 87.4145 243.391L5.84833 219.879C7.27028 216.93 39.4193 150.871 85.9633 102.946C91.1245 97.6323 97.9533 91.7807 105.496 93.0388C103.799 95.4965 103.021 97.884 103.021 97.884C105.508 94.8938 107.14 93.5479 107.966 92.9803C110.967 91.0551 114.771 90.429 118.428 91.6169C120.277 92.2196 121.881 93.2202 123.186 94.4959C119.827 96.0875 117.299 99.7858 117.299 99.7858C121.986 96.5147 124.496 95.9939 124.496 95.9939C126.954 95.1337 129.693 95.0342 132.361 95.9003C135.012 96.7605 137.159 98.4399 138.64 100.564C133.976 101.541 129.552 105.725 129.552 105.725C135.691 101.576 139.845 102.729 139.845 102.729C140.524 102.864 141.209 103.033 141.882 103.25C150.841 106.164 155.744 115.79 152.83 124.749H152.848Z" fill="#786565"/>
</g>
<defs>
<radialGradient id="paint0_radial_970_4260" cx="0" cy="0" r="1" gradientUnits="userSpaceOnUse" gradientTransform="translate(350.252 246.369) rotate(-120.084) scale(171.515 163.287)">
<stop stop-color="#FFFEEE"/>
<stop offset="0.796559" stop-color="#A39489"/>
</radialGradient>
<radialGradient id="paint1_radial_970_4260" cx="0" cy="0" r="1" gradientUnits="userSpaceOnUse" gradientTransform="translate(39.15 246.369) rotate(-59.9158) scale(171.515 163.287)">
<stop stop-color="#FFFEEE"/>
<stop offset="0.796559" stop-color="#A39489"/>
</radialGradient>
</defs>
</svg>
