<svg width="39" height="33" viewBox="0 0 39 33" fill="none" xmlns="http://www.w3.org/2000/svg">
<mask id="mask0_1322_5547" style="mask-type:alpha" maskUnits="userSpaceOnUse" x="0" y="0" width="39" height="33">
<path d="M0 18.1103C0 22.1415 2.2522 26.323 5.74003 28.7633C9.04813 31.0787 13.436 32.2034 19.1536 32.2034C24.8711 32.2034 29.259 31.0773 32.5671 28.7633C36.0535 26.323 38.3071 22.1415 38.3071 18.1103C38.3071 15.361 37.6668 12.901 35.7572 10.382C35.7572 10.382 35.7572 10.3792 35.7558 10.3778L36.0001 2.69169C35.9075 1.69898 35.3262 0.825621 34.4486 0.353837C33.5696 -0.117946 32.5207 -0.117946 31.6432 0.353837L25.1814 4.65886C25.1814 4.65886 25.1786 4.65886 25.1758 4.65886C23.4558 4.27132 21.358 4.15619 19.155 4.15619C16.9519 4.15619 14.8527 4.27273 13.1341 4.65886C13.1327 4.65886 13.1299 4.65886 13.1285 4.65886L6.66674 0.353837C5.78776 -0.116542 4.73889 -0.116542 3.86132 0.353837C2.98234 0.825621 2.40244 1.69898 2.30976 2.69169L2.55408 10.3778C2.55408 10.3778 2.55408 10.3806 2.55267 10.382C0.643076 12.8996 0.00281098 15.361 0.00281098 18.1103H0Z" fill="#D9D9D9"/>
</mask>
<g mask="url(#mask0_1322_5547)">
<path d="M0 18.1103C0 22.1415 2.2522 26.323 5.74003 28.7633C9.04813 31.0787 13.436 32.2034 19.1536 32.2034C24.8711 32.2034 29.259 31.0773 32.5671 28.7633C36.0535 26.323 38.3071 22.1415 38.3071 18.1103C38.3071 15.361 37.6668 12.901 35.7572 10.382C35.7572 10.382 35.7572 10.3792 35.7558 10.3778L36.0001 2.69169C35.9075 1.69898 35.3262 0.825621 34.4486 0.353837C33.5696 -0.117946 32.5207 -0.117946 31.6432 0.353837L25.1814 4.65886C25.1814 4.65886 25.1786 4.65886 25.1758 4.65886C23.4558 4.27132 21.358 4.15619 19.155 4.15619C16.9519 4.15619 14.8527 4.27273 13.1341 4.65886C13.1327 4.65886 13.1299 4.65886 13.1285 4.65886L6.66674 0.353837C5.78776 -0.116542 4.73889 -0.116542 3.86132 0.353837C2.98234 0.825621 2.40244 1.69898 2.30976 2.69169L2.55408 10.3778C2.55408 10.3778 2.55408 10.3806 2.55267 10.382C0.643076 12.8996 0.00281098 15.361 0.00281098 18.1103H0Z" fill="#1B1B1B"/>
<g filter="url(#filter0_f_1322_5547)">
<path d="M5.79317 28.8542C9.10127 31.1696 13.4891 32.2943 19.2067 32.2943C24.9243 32.2943 29.3121 31.1682 32.6202 28.8542C36.0224 26.4728 38.2493 22.4332 38.3546 18.4946C34.9876 26.9994 28.2057 24.8356 25.7218 22.8713C21.4729 19.5098 20.6389 16.79 19.0087 16.79C17.3785 16.79 16.5445 19.5098 12.2942 22.8713C9.92408 24.7472 3.63785 26.8028 0.141602 19.5898C0.586706 23.1675 2.70552 26.6933 5.79317 28.8542Z" fill="white"/>
</g>
<path d="M14.7631 17.4286C14.5314 18.3891 14.2127 19.3804 13.7198 19.928C13.227 20.4756 12.56 20.5795 12.0391 20.4545C11.5182 20.3296 10.972 19.9336 10.7824 19.2217C10.5928 18.5098 10.7599 17.482 10.9916 16.5216C11.2233 15.5612 11.542 14.5699 12.0349 14.0223C12.5277 13.4747 13.1947 13.3708 13.7156 13.4957C14.2365 13.6207 14.7827 14.0166 14.9723 14.7285C15.1618 15.4404 14.9947 16.4682 14.7631 17.4286Z" fill="#83B173"/>
<path d="M27.4242 17.4286C27.1925 18.3891 26.8738 19.3804 26.3809 19.928C25.8881 20.4756 25.2211 20.5795 24.7002 20.4545C24.1793 20.3296 23.6331 19.9336 23.4435 19.2217C23.254 18.5098 23.4211 17.482 23.6527 16.5216C23.8844 15.5612 24.2032 14.5699 24.696 14.0223C25.1888 13.4747 25.8558 13.3708 26.3767 13.4957C26.8977 13.6207 27.4439 14.0166 27.6334 14.7285C27.823 15.4404 27.6559 16.4682 27.4242 17.4286Z" fill="#83B173"/>
<path d="M18.7843 22.4953C19.4752 22.4953 20.0353 21.9352 20.0353 21.2442C20.0353 20.5533 19.4752 19.9932 18.7843 19.9932C18.0933 19.9932 17.5332 20.5533 17.5332 21.2442C17.5332 21.9352 18.0933 22.4953 18.7843 22.4953Z" fill="#786565"/>
<path d="M15.7471 24.0149C15.9802 24.269 16.3972 24.5695 17.0796 24.5976C18.2169 24.6439 18.7252 23.8857 18.7786 23.8C18.7814 23.7958 18.7856 23.7958 18.7884 23.8C18.8417 23.8857 19.35 24.6453 20.4874 24.5976C21.1698 24.5695 21.5868 24.2704 21.8199 24.0149" stroke="#786565" stroke-width="1.40412" stroke-miterlimit="10" stroke-linecap="round"/>
</g>
<path d="M35.7544 10.382C35.7544 10.382 35.7544 10.3792 35.753 10.3778L35.9973 2.69169C35.9047 1.69898 35.3233 0.825621 34.4458 0.353837C33.5668 -0.117946 32.5179 -0.117946 31.6404 0.353837L25.1786 4.65886C25.1786 4.65886 25.1758 4.65886 25.173 4.65886C23.453 4.27132 21.3552 4.15619 19.1521 4.15619C16.9491 4.15619 14.8499 4.27273 13.1313 4.65886C13.1299 4.65886 13.1271 4.65886 13.1257 4.65886L6.66393 0.353837C5.78495 -0.116542 4.73608 -0.116542 3.85851 0.353837C2.97953 0.825621 2.39963 1.69898 2.30695 2.69169L2.55127 10.3778C2.55127 10.3778 2.55127 10.3806 2.54986 10.382C0.640265 12.8996 0 15.361 0 18.1103C0 22.1415 2.2522 26.323 5.74003 28.7633C9.04813 31.0787 13.436 32.2034 19.1535 32.2034C24.8711 32.2034 29.259 31.0773 32.5671 28.7633C36.0535 26.323 38.3071 22.1415 38.3071 18.1103C38.3071 15.361 37.6668 12.901 35.7572 10.382H35.7544ZM31.5182 27.2679C28.5274 29.3615 24.4822 30.3781 19.1507 30.3781C13.8193 30.3781 9.77404 29.3601 6.78328 27.2679C3.77004 25.159 1.82254 21.5644 1.82254 18.1103C1.82254 15.6461 2.61025 13.1229 3.98488 11.1908C3.98488 11.1908 4.08879 11.0392 4.1267 10.9914C4.43139 10.5997 5.07026 9.8218 6.10088 9.01302C6.10649 9.00881 6.10368 8.99898 6.09666 9.00039C5.91694 9.04251 4.94811 9.28261 4.21516 9.71087C4.20954 9.71368 4.20392 9.71087 4.20532 9.70385L4.12389 2.8644C4.1604 2.47686 4.37804 2.1483 4.72204 1.96436C5.06184 1.78182 5.45078 1.78042 5.79057 1.95734L12.0136 5.87904C12.0136 5.87904 12.0192 5.88886 12.0136 5.89167C11.5081 6.19356 10.8061 6.47017 10.2079 7.05849C10.2023 7.06411 10.2079 7.07394 10.2135 7.07113C10.427 7.00654 11.862 6.5839 13.7435 6.32555C15.9831 6.01945 16.9014 5.98154 19.1521 5.98154C21.4029 5.98154 22.3212 6.01804 24.5608 6.32555C26.4423 6.5825 27.8773 7.00514 28.0907 7.07113C28.0978 7.07394 28.102 7.06411 28.0964 7.05849C27.4982 6.47017 26.7948 6.19356 26.2907 5.89167C26.2865 5.88886 26.2865 5.88184 26.2907 5.87904L32.5137 1.95734C32.8549 1.77902 33.2438 1.78182 33.5822 1.96436C33.9262 2.1483 34.1439 2.47686 34.1804 2.8644L34.099 9.70385C34.099 9.70385 34.0934 9.71368 34.0891 9.71087C33.3562 9.28261 32.3873 9.04251 32.2076 9.00039C32.2006 8.99898 32.1964 9.00881 32.2034 9.01302C33.234 9.8218 33.8729 10.5997 34.1776 10.9914C34.2155 11.0392 34.3194 11.1908 34.3194 11.1908C35.6926 13.1243 36.4817 15.6461 36.4817 18.1103C36.4817 21.5644 34.5342 25.159 31.521 27.2679H31.5182Z" fill="#786565"/>
<defs>
<filter id="filter0_f_1322_5547" x="-3.22828" y="13.4202" width="44.9527" height="22.2437" filterUnits="userSpaceOnUse" color-interpolation-filters="sRGB">
<feFlood flood-opacity="0" result="BackgroundImageFix"/>
<feBlend mode="normal" in="SourceGraphic" in2="BackgroundImageFix" result="shape"/>
<feGaussianBlur stdDeviation="1.68494" result="effect1_foregroundBlur_1322_5547"/>
</filter>
</defs>
</svg>
