<svg width="61" height="27" viewBox="0 0 61 27" fill="none" xmlns="http://www.w3.org/2000/svg">
<rect x="1" y="1" width="59" height="25" rx="12.5" fill="url(#paint0_linear_1193_5338)"/>
<path d="M22.1512 8.165H23.4642C23.5942 8.165 23.6462 8.23 23.6462 8.334V19.436C23.6462 19.54 23.5942 19.592 23.4642 19.592H22.1512C22.0342 19.592 21.9822 19.54 21.9822 19.436V8.334C21.9822 8.23 22.0342 8.165 22.1512 8.165ZM21.3062 13.404L21.4492 14.47C21.4622 14.574 21.3972 14.613 21.2802 14.639C20.3182 14.834 19.3042 14.938 18.1342 14.99V19.137C18.1342 19.241 18.0822 19.293 17.9652 19.293H16.6522C16.5482 19.293 16.4962 19.241 16.4962 19.137V15.029H16.2882H13.7142C13.5972 15.029 13.5452 14.964 13.5452 14.873V13.781C13.5452 13.677 13.5972 13.625 13.7142 13.625H15.9632C16.7692 13.625 17.5102 13.612 18.1992 13.573C18.4722 12.481 18.6152 11.064 18.6152 10.323V10.102H14.6372C14.5202 10.102 14.4682 10.037 14.4682 9.933V8.854C14.4682 8.75 14.5202 8.685 14.6372 8.685H20.1232C20.2402 8.685 20.2922 8.75 20.2922 8.854L20.2662 10.05C20.2402 11.038 20.0972 12.403 19.8762 13.443C20.3052 13.391 20.7082 13.326 21.1112 13.261C21.2412 13.235 21.2932 13.313 21.3062 13.404ZM33.4977 8.165H34.8107C34.9407 8.165 34.9927 8.23 34.9927 8.334V19.436C34.9927 19.54 34.9407 19.592 34.8107 19.592H33.4977C33.3807 19.592 33.3287 19.54 33.3287 19.436V15.328H32.0807C31.9637 15.328 31.9117 15.263 31.9117 15.159L31.9377 14.08C31.9377 13.976 31.9767 13.911 32.1067 13.911H33.3287V11.909H32.1067C31.9767 11.909 31.9377 11.844 31.9377 11.74L31.9117 10.661C31.9117 10.544 31.9637 10.492 32.0807 10.492H33.3287V8.334C33.3287 8.23 33.3807 8.165 33.4977 8.165ZM28.5577 9.14C30.4037 9.14 31.7427 10.531 31.7427 13.105C31.7427 15.692 30.4037 17.083 28.5577 17.083C26.7117 17.083 25.3857 15.692 25.3857 13.105C25.3857 10.531 26.7117 9.14 28.5577 9.14ZM28.5577 15.601C29.4677 15.601 30.0917 14.756 30.0917 13.105C30.0917 11.467 29.4677 10.609 28.5577 10.609C27.6607 10.609 27.0237 11.467 27.0237 13.105C27.0237 14.756 27.6607 15.601 28.5577 15.601ZM41.8413 12.988C39.2413 12.988 38.0843 11.961 38.0843 10.674C38.0843 9.387 39.2413 8.373 41.8413 8.373C44.4543 8.373 45.5983 9.387 45.5983 10.674C45.5983 11.961 44.4543 12.988 41.8413 12.988ZM41.8413 9.712C40.2553 9.712 39.7353 10.154 39.7353 10.674C39.7353 11.181 40.2553 11.636 41.8413 11.636C43.4403 11.636 43.9473 11.181 43.9473 10.674C43.9473 10.154 43.4403 9.712 41.8413 9.712ZM36.5113 13.742H47.1713C47.2883 13.742 47.3403 13.82 47.3403 13.924V14.964C47.3403 15.068 47.2883 15.133 47.1713 15.133H42.7903V17.031C42.7903 17.122 42.7253 17.187 42.6213 17.187H41.2953C41.1783 17.187 41.1263 17.122 41.1263 17.031V15.133H36.5113C36.4073 15.133 36.3553 15.068 36.3553 14.964V13.924C36.3553 13.82 36.4073 13.742 36.5113 13.742ZM39.5663 18.175H45.8843C46.0143 18.175 46.0663 18.24 46.0663 18.344V19.384C46.0663 19.488 46.0143 19.553 45.8843 19.553H38.0973C37.9803 19.553 37.9283 19.488 37.9283 19.384V16.134C37.9283 16.03 37.9803 15.965 38.0973 15.965H39.4103C39.5273 15.965 39.5663 16.03 39.5663 16.134V18.175Z" fill="#1E8E95"/>
<rect x="1" y="1" width="59" height="25" rx="12.5" stroke="url(#paint1_linear_1193_5338)" stroke-width="2"/>
<defs>
<linearGradient id="paint0_linear_1193_5338" x1="30.5" y1="2" x2="30.5" y2="25" gradientUnits="userSpaceOnUse">
<stop offset="0.135417" stop-color="#E8FFF8"/>
<stop offset="1" stop-color="#9ED1D2"/>
</linearGradient>
<linearGradient id="paint1_linear_1193_5338" x1="30.5" y1="2" x2="30.5" y2="25" gradientUnits="userSpaceOnUse">
<stop stop-color="white"/>
<stop offset="1" stop-color="#7DCCD1"/>
</linearGradient>
</defs>
</svg>
