<svg width="304" height="161" viewBox="0 0 304 161" fill="none" xmlns="http://www.w3.org/2000/svg">
<rect x="1" y="1" width="302" height="156" rx="19" stroke="url(#paint0_linear_1193_5582)" stroke-width="2"/>
<rect x="6" y="12" width="292" height="149" rx="13" fill="url(#paint1_linear_1193_5582)"/>
<rect x="2" y="2" width="300" height="154" rx="18" fill="url(#paint2_linear_1193_5582)"/>
<rect x="2" y="2" width="300" height="154" rx="18" fill="url(#paint3_linear_1193_5582)"/>
<mask id="mask0_1193_5582" style="mask-type:alpha" maskUnits="userSpaceOnUse" x="2" y="2" width="300" height="154">
<rect x="2" y="2" width="300" height="154" rx="18" fill="white"/>
</mask>
<g mask="url(#mask0_1193_5582)">
<g filter="url(#filter0_f_1193_5582)">
<path d="M290 169C299.941 169 308 160.941 308 151L308 65.0581C291.237 54.0576 270.585 48 249.2 48C223.633 48 199.113 56.6586 181.035 72.0709C172.544 79.3097 165.8 87.7598 161.036 96.9448C144.991 87.6283 124.868 82.4769 104 82.4769C80.0244 82.4769 57.0308 89.277 40.0776 101.381C32.4683 106.814 26.3556 113.116 21.9291 119.96C20.8762 118.188 19.5374 116.446 17.9187 114.748C13.3757 109.981 6.71686 105.65 -1.67755 102.002C-2.4389 101.671 -3.21319 101.346 -3.99999 101.028L-4 151C-4 160.941 4.0589 169 14 169L290 169Z" fill="url(#paint4_linear_1193_5582)"/>
</g>
</g>
<defs>
<filter id="filter0_f_1193_5582" x="-17" y="35" width="338" height="147" filterUnits="userSpaceOnUse" color-interpolation-filters="sRGB">
<feFlood flood-opacity="0" result="BackgroundImageFix"/>
<feBlend mode="normal" in="SourceGraphic" in2="BackgroundImageFix" result="shape"/>
<feGaussianBlur stdDeviation="6.5" result="effect1_foregroundBlur_1193_5582"/>
</filter>
<linearGradient id="paint0_linear_1193_5582" x1="-1.49999" y1="1.99999" x2="319.874" y2="120.259" gradientUnits="userSpaceOnUse">
<stop offset="0.100806" stop-color="#FFE0FA"/>
<stop offset="0.718372" stop-color="#FF94A6"/>
<stop offset="1" stop-color="#FF94F0"/>
</linearGradient>
<linearGradient id="paint1_linear_1193_5582" x1="-7.5" y1="161" x2="298" y2="161" gradientUnits="userSpaceOnUse">
<stop stop-color="#FFDBF4"/>
<stop offset="1" stop-color="#FF94F0"/>
</linearGradient>
<linearGradient id="paint2_linear_1193_5582" x1="2" y1="2" x2="321.483" y2="110.342" gradientUnits="userSpaceOnUse">
<stop stop-color="white"/>
<stop offset="0.0535387" stop-color="#FF77A9"/>
<stop offset="0.123654" stop-color="#FFA39C"/>
<stop offset="0.918816" stop-color="#FFEB88"/>
<stop offset="1" stop-color="#FF7EAD"/>
</linearGradient>
<linearGradient id="paint3_linear_1193_5582" x1="152" y1="2" x2="152" y2="156" gradientUnits="userSpaceOnUse">
<stop stop-color="#FFE6FC"/>
<stop offset="0.161458" stop-color="#FFB0F2"/>
<stop offset="0.645833" stop-color="#FFB4F3" stop-opacity="0.536585"/>
<stop offset="0.875" stop-color="#FFE1FA" stop-opacity="0"/>
<stop offset="1" stop-color="#FFDDFA"/>
</linearGradient>
<linearGradient id="paint4_linear_1193_5582" x1="152" y1="262.879" x2="152" y2="48" gradientUnits="userSpaceOnUse">
<stop offset="0.25" stop-color="#C9E5FF"/>
<stop offset="0.520833" stop-color="white" stop-opacity="0.635955"/>
<stop offset="0.78125" stop-color="white" stop-opacity="0.45"/>
<stop offset="1" stop-color="white"/>
</linearGradient>
</defs>
</svg>
