<svg width="390" height="214" viewBox="0 0 390 214" fill="none" xmlns="http://www.w3.org/2000/svg">
<mask id="mask0_912_6783" style="mask-type:alpha" maskUnits="userSpaceOnUse" x="0" y="0" width="390" height="214">
<rect width="390" height="214" fill="white"/>
</mask>
<g mask="url(#mask0_912_6783)">
<path d="M141.959 100.74C141.288 100.52 140.616 100.352 139.945 100.225C139.945 100.225 135.835 99.0847 129.762 103.189C129.762 103.189 134.133 99.05 138.752 98.0833C137.293 95.982 135.163 94.3207 132.541 93.4698C129.907 92.6131 127.192 92.7172 124.761 93.5624C124.761 93.5624 122.278 94.0776 117.641 97.3134C117.641 97.3134 120.136 93.655 123.464 92.0805C122.174 90.8244 120.587 89.8287 118.758 89.2325C115.14 88.0574 111.378 88.671 108.408 90.5812C107.592 91.1427 105.977 92.4741 103.517 95.4321C103.517 95.4321 104.287 93.0704 105.965 90.6391C98.5039 89.3946 91.7485 95.1832 86.6429 100.439C39.5293 148.948 7.32715 216.235 7.32715 216.235L87.4649 242.301C99.7542 181.44 119.621 149.064 132.958 133.238C141.392 135.183 150.057 130.395 152.79 122.014C155.672 113.151 150.827 103.629 141.959 100.746V100.74Z" fill="#1B1B1B"/>
<path d="M144.57 94.2919C143.534 92.7695 142.29 91.4092 140.877 90.2514C140.675 90.0836 140.472 89.9273 140.264 89.7652C139.638 89.2963 138.984 88.8622 138.301 88.4685C137.167 87.8144 135.957 87.2761 134.689 86.8651C134.377 86.7667 134.064 86.6683 133.751 86.5872C133.439 86.5062 133.126 86.4252 132.808 86.3557C132.495 86.2862 132.177 86.2283 131.859 86.1762C130.272 85.9158 128.669 85.8579 127.077 86.0026C125.26 84.5149 123.176 83.3688 120.901 82.6336C120.6 82.5352 120.299 82.4484 119.998 82.3673C115.471 81.1401 110.655 81.6322 106.487 83.6987C104.287 83.3977 102.174 83.4961 100.16 83.8782C99.1528 84.0692 98.1745 84.3297 97.2252 84.648C96.2759 84.9664 95.3497 85.3427 94.4582 85.7595C93.862 86.0373 93.2831 86.3325 92.7216 86.6451C92.1601 86.9577 91.6044 87.2819 91.0719 87.6234C90.8056 87.7913 90.5393 87.9649 90.2788 88.1386C86.3889 90.7377 83.3962 93.8172 81.648 95.6175C72.3572 105.186 63.6511 115.472 55.7207 125.707C53.741 128.265 51.8018 130.824 49.9205 133.359C47.4083 136.746 44.9886 140.109 42.6732 143.414C41.5154 145.07 40.3751 146.708 39.2637 148.329C37.0408 151.57 34.9222 154.748 32.9077 157.822C31.9005 159.362 30.9222 160.873 29.9729 162.36C29.4982 163.101 29.0294 163.836 28.5663 164.566C26.7197 167.478 24.9889 170.273 23.3739 172.925C9.41169 195.842 1.38866 212.548 1.05292 213.248L-2.36816 220.397L93.3989 247.997L94.2672 243.685C99.6448 217.051 106.996 193.544 116.119 173.805C117.619 170.557 119.158 167.425 120.739 164.415C121.526 162.91 122.325 161.434 123.135 159.987C123.946 158.54 124.762 157.122 125.589 155.738C126.417 154.355 127.251 153 128.096 151.675C128.941 150.349 129.792 149.058 130.655 147.796C132.374 145.272 134.133 142.876 135.916 140.613C137.543 140.67 139.164 140.56 140.761 140.288C141.294 140.196 141.821 140.086 142.348 139.958C144.449 139.449 146.492 138.65 148.414 137.568C150.046 136.653 151.551 135.553 152.9 134.309C153.439 133.811 153.96 133.29 154.446 132.74C156.657 130.286 158.347 127.38 159.389 124.173C163.401 111.837 156.761 98.5465 144.565 94.3035L144.57 94.2919ZM152.79 122.014C150.064 130.401 141.392 135.189 132.958 133.238C119.836 148.809 100.392 180.398 88.0618 239.378L7.3741 216.119C8.78074 213.202 40.5835 147.854 86.6262 100.445C91.7318 95.1891 98.4871 89.4005 105.949 90.6451C104.27 93.0763 103.5 95.4381 103.5 95.4381C105.96 92.4801 107.575 91.1487 108.391 90.5872C111.361 88.6827 115.124 88.0633 118.742 89.2384C120.571 89.8347 122.157 90.8245 123.448 92.0864C120.125 93.6609 117.624 97.3194 117.624 97.3194C122.261 94.0835 124.744 93.5683 124.744 93.5683C127.176 92.7174 129.885 92.619 132.524 93.4757C135.146 94.3266 137.271 95.988 138.735 98.0892C134.122 99.0559 129.746 103.195 129.746 103.195C135.818 99.0907 139.928 100.231 139.928 100.231C140.599 100.364 141.277 100.532 141.942 100.746C150.805 103.629 155.656 113.151 152.773 122.014H152.79Z" fill="#786565"/>
<path d="M279.878 45.686C284.578 43.4458 287.432 38.2997 286.535 32.9047C286.043 29.9641 284.515 27.4576 282.39 25.6863L282.234 17.6227C282.217 16.6965 281.076 16.2682 280.451 16.957L275.062 22.9077C274.298 22.8846 273.528 22.9309 272.746 23.064C271.728 23.2319 270.761 23.5271 269.858 23.9265C269.088 19.643 266.113 16.3029 262.304 14.8558L259.942 7.64892C259.652 6.76905 258.437 6.69379 258.043 7.53315L254.75 14.5432C250.692 15.7067 247.641 18.8962 246.535 22.7978C244.023 19.1741 239.601 17.0902 234.97 17.7617L229.638 12.2682C228.996 11.6026 227.867 12.0714 227.879 12.9976L228 21.3738C225.505 24.0076 224.22 27.7297 224.863 31.5849C224.915 31.8859 224.979 32.1811 225.048 32.4706C224.07 32.3837 223.063 32.4243 222.044 32.5921C219.537 33.0089 217.343 34.184 215.653 35.8395L208.157 34.7571C207.242 34.6239 206.634 35.6833 207.208 36.4068L212.168 42.647C211.989 43.8568 211.989 45.1129 212.197 46.3806C213.21 52.4413 218.605 56.6728 224.602 56.3718C231.63 81.9923 255.207 148.289 294.037 230.366L380.183 215.999C380.183 215.999 301.736 117.847 279.872 45.6802L279.878 45.686Z" fill="#1B1B1B"/>
<circle cx="4.72497" cy="4.72497" r="4.72497" transform="matrix(-1 0 0 1 285.677 14.1748)" fill="#FFE4CC"/>
<circle cx="4.72497" cy="4.72497" r="4.72497" transform="matrix(-1 0 0 1 264.077 4.05005)" fill="#FFE4CC"/>
<circle cx="4.72497" cy="4.72497" r="4.72497" transform="matrix(-1 0 0 1 234.377 9.44995)" fill="#FFE4CC"/>
<circle cx="4.72497" cy="4.72497" r="4.72497" transform="matrix(-1 0 0 1 213.452 31.7249)" fill="#FFE4CC"/>
<path d="M385.619 211.669C385.422 211.426 365.88 186.9 343.947 153.956C316.648 112.944 297.395 76.5741 288.011 48.3371C292.283 44.0941 294.413 37.9234 293.389 31.7643C292.839 28.4532 291.409 25.3621 289.285 22.8035L289.181 17.4895C289.134 15.1683 288.092 12.9918 286.309 11.5157C284.521 10.028 282.182 9.39703 279.896 9.77908C278.136 10.0743 276.509 10.9657 275.305 12.2913L273.163 14.6589C271.757 12.8007 270.014 11.2031 268.017 9.96431L266.553 5.4897C265.32 1.72131 261.58 -0.542047 257.661 0.112068C255.086 0.540427 252.88 2.21334 251.763 4.58668L249.627 9.13075C247.867 10.0164 246.258 11.1684 244.863 12.5345C242.675 11.4867 240.29 10.8673 237.824 10.7284L234.634 7.44047C232.811 5.56496 230.189 4.69666 227.613 5.12502C223.694 5.77914 220.886 9.13654 220.944 13.1075L221.031 19.0062C219.485 21.2695 218.461 23.8107 218.015 26.4735C216.499 26.9829 215.051 27.6775 213.714 28.5516L209.159 27.8917C208.337 27.7759 207.515 27.7817 206.698 27.9149C203.931 28.3779 201.587 30.294 200.574 32.922C199.567 35.5443 200.03 38.537 201.778 40.7367L205.107 44.9161C205.13 45.7901 205.211 46.6642 205.355 47.5267C206.612 55.0462 212.169 60.8695 219.196 62.7219C226.872 88.7418 249.135 151.693 287.762 233.342L290.008 238.088L295.183 237.226L381.33 222.859L393 220.914L385.613 211.669H385.619ZM269.273 175.583C268.284 173.29 267.311 171.021 266.356 168.775C265.401 166.529 264.457 164.301 263.531 162.095C259.826 153.279 256.359 144.828 253.146 136.787C251.537 132.764 249.992 128.851 248.51 125.042C245.54 117.424 242.819 110.241 240.353 103.538C239.12 100.186 237.945 96.9558 236.84 93.8589C234.623 87.6535 232.655 81.9575 230.941 76.8172C230.513 75.5321 230.102 74.2818 229.702 73.0662C227.526 66.3861 225.83 60.7827 224.62 56.3775C221.251 56.5454 218.067 55.2835 215.746 53.0664C213.94 51.3414 212.661 49.0376 212.215 46.3864C212.151 46.0217 212.117 45.657 212.088 45.2981C212.076 45.1592 212.076 45.0203 212.07 44.8871C212.059 44.6729 212.059 44.4588 212.059 44.2446C212.059 44.0709 212.064 43.903 212.076 43.7294C212.088 43.5557 212.105 43.3879 212.122 43.22C212.14 43.0348 212.157 42.8437 212.186 42.6585C212.574 40.0478 213.818 37.6629 215.671 35.8511C215.821 35.7006 215.983 35.5616 216.145 35.4227C216.244 35.3417 216.336 35.2548 216.435 35.1738C216.591 35.0464 216.747 34.9249 216.91 34.8033C217.031 34.7107 217.153 34.6297 217.28 34.5428C217.431 34.4386 217.581 34.3344 217.743 34.236C218.009 34.0682 218.287 33.9119 218.571 33.7672C218.687 33.7093 218.802 33.6572 218.918 33.6051C219.127 33.5067 219.341 33.4083 219.561 33.3214C219.688 33.2693 219.815 33.223 219.943 33.1767C220.174 33.0957 220.406 33.0146 220.643 32.9452C220.759 32.9104 220.869 32.8757 220.985 32.8468C221.338 32.7541 221.697 32.6731 222.067 32.6094C223.08 32.4416 224.087 32.4068 225.071 32.4879C225.002 32.1984 224.933 31.9032 224.886 31.6022C224.823 31.2375 224.788 30.8671 224.759 30.5082C224.759 30.4387 224.747 30.375 224.742 30.3056C224.724 29.964 224.718 29.6225 224.73 29.2868C224.73 29.1999 224.736 29.1189 224.742 29.0321C224.759 28.7021 224.782 28.3779 224.828 28.0538C224.84 27.9727 224.857 27.8975 224.869 27.8222C224.909 27.5733 224.956 27.3244 225.008 27.0755C225.031 26.9597 225.06 26.8382 225.089 26.7224C225.153 26.4619 225.234 26.2014 225.315 25.9467C225.367 25.7904 225.419 25.6399 225.477 25.4836C225.529 25.3389 225.587 25.2 225.645 25.0611C225.755 24.7948 225.876 24.5285 226.009 24.268C226.05 24.1928 226.09 24.1175 226.125 24.0365C226.64 23.0698 227.277 22.1783 228.029 21.3853C229.76 19.5619 232.064 18.2536 234.739 17.8079C234.825 17.7905 234.912 17.7848 234.999 17.7732C237.025 17.478 239.011 17.7153 240.811 18.3694C240.811 18.3694 240.822 18.3694 240.828 18.3694C241.077 18.462 241.326 18.5604 241.569 18.6704C241.586 18.6762 241.604 18.6878 241.621 18.6936C241.853 18.7978 242.078 18.9077 242.304 19.0235C242.333 19.0409 242.362 19.0583 242.391 19.0698C242.599 19.1856 242.808 19.3014 243.01 19.4229C243.057 19.4519 243.097 19.4808 243.144 19.5098C243.329 19.6255 243.514 19.7471 243.688 19.8744C243.746 19.915 243.803 19.9671 243.867 20.0076C244.023 20.1234 244.186 20.2449 244.336 20.3723C244.411 20.4359 244.481 20.4996 244.556 20.5633C244.689 20.6791 244.822 20.7891 244.95 20.9106C245.042 20.9974 245.129 21.0901 245.216 21.1769C245.32 21.2811 245.43 21.3853 245.529 21.4953C245.638 21.6168 245.748 21.75 245.853 21.8773C245.922 21.9584 245.997 22.0394 246.067 22.1262C246.241 22.3404 246.408 22.5662 246.565 22.7919C246.64 22.5372 246.721 22.2825 246.808 22.0278C246.837 21.941 246.877 21.8542 246.906 21.7673C246.97 21.6052 247.028 21.4432 247.097 21.2869C247.144 21.1827 247.196 21.0785 247.242 20.9743C247.306 20.8411 247.369 20.708 247.433 20.5749C247.491 20.4591 247.555 20.3491 247.612 20.2391C247.676 20.1234 247.74 20.0076 247.809 19.8918C247.879 19.7703 247.954 19.6545 248.029 19.5387C248.093 19.4403 248.162 19.3361 248.226 19.2435C248.313 19.1219 248.4 18.9946 248.487 18.8788C248.55 18.7978 248.614 18.7167 248.678 18.6357C248.782 18.5083 248.886 18.3752 248.99 18.2478C249.042 18.19 249.094 18.1263 249.146 18.0684C249.274 17.9295 249.395 17.7905 249.528 17.6516C249.557 17.6227 249.581 17.5995 249.61 17.5706C251.01 16.1697 252.759 15.1046 254.761 14.5315C255.201 14.4042 255.647 14.2942 256.11 14.219C258.275 13.8601 260.399 14.1148 262.316 14.8383C263.022 15.1046 263.699 15.4404 264.342 15.834C264.365 15.8514 264.388 15.8629 264.411 15.8803C264.782 16.1118 265.135 16.3608 265.476 16.627C265.528 16.6675 265.586 16.7081 265.638 16.7544C265.8 16.8875 265.957 17.0207 266.107 17.1596C266.194 17.2406 266.281 17.3217 266.368 17.4027C266.576 17.6053 266.779 17.8079 266.975 18.0279C267.091 18.1552 267.207 18.2826 267.317 18.4157C267.415 18.5373 267.514 18.6588 267.606 18.7804C267.745 18.9598 267.878 19.1451 268.006 19.3361C268.081 19.4519 268.162 19.5676 268.232 19.6834C268.376 19.915 268.509 20.1465 268.637 20.3838C268.689 20.4823 268.741 20.5807 268.793 20.6849C268.932 20.9627 269.065 21.2521 269.187 21.5416C269.198 21.5763 269.216 21.6052 269.227 21.64C269.349 21.9526 269.459 22.2709 269.551 22.6009C269.58 22.6877 269.603 22.7745 269.627 22.8672C269.719 23.2087 269.806 23.556 269.87 23.9149C270.773 23.5155 271.739 23.2203 272.758 23.0524C273.152 22.9887 273.54 22.9424 273.928 22.9193C274.31 22.8961 274.692 22.8903 275.068 22.8961C277.812 22.9714 280.376 23.9902 282.402 25.6804C282.634 25.8773 282.859 26.0856 283.079 26.294C283.12 26.3346 283.166 26.3751 283.207 26.4156C283.398 26.6066 283.583 26.815 283.762 27.0176C283.826 27.0871 283.884 27.1565 283.948 27.2318C284.11 27.4228 284.26 27.6196 284.405 27.8222C284.48 27.9206 284.55 28.0248 284.619 28.129C284.746 28.3143 284.874 28.5053 284.99 28.7021C285.071 28.8352 285.146 28.9684 285.221 29.1073C285.32 29.2868 285.418 29.4662 285.505 29.6514C285.586 29.8193 285.661 29.9988 285.736 30.1724C285.806 30.3403 285.881 30.5024 285.945 30.6702C286.026 30.8902 286.095 31.1218 286.165 31.3475C286.205 31.4806 286.252 31.6138 286.292 31.7469C286.39 32.1174 286.477 32.4994 286.541 32.8873C287.201 36.8467 285.835 40.6672 283.201 43.3068C282.246 44.2619 281.134 45.0666 279.884 45.6628C301.748 117.83 380.195 215.976 380.195 215.982L294.049 230.349C288.59 218.806 283.427 207.577 278.576 196.729C275.34 189.499 272.237 182.431 269.279 175.56L269.273 175.583ZM281.036 16.6386C281.609 16.546 282.223 16.9512 282.234 17.6285L282.333 22.7977C280.723 21.7847 278.912 21.0843 276.996 20.7775L280.451 16.9628C280.619 16.7775 280.822 16.6733 281.036 16.6386ZM258.796 6.96581C259.259 6.89055 259.769 7.12789 259.942 7.65465L261.424 12.1814C259.688 11.753 257.847 11.6488 255.983 11.9209L258.044 7.53888C258.2 7.20314 258.489 7.0179 258.796 6.96581ZM228.747 11.9788C229.054 11.9267 229.384 12.0135 229.645 12.2798L233.06 15.7993C231.161 16.2971 229.448 17.1712 227.966 18.3173L227.891 13.0091C227.885 12.4534 228.29 12.0598 228.753 11.9845L228.747 11.9788ZM207.839 34.7686C207.943 34.7512 208.047 34.7512 208.163 34.7686L212.904 35.4516C211.746 36.8872 210.866 38.5486 210.328 40.3315L207.214 36.4183C206.71 35.7816 207.109 34.8902 207.839 34.7686Z" fill="#786565"/>
</g>
</svg>
