<svg width="390" height="214" viewBox="0 0 390 214" fill="none" xmlns="http://www.w3.org/2000/svg">
<mask id="mask0_1468_6397" style="mask-type:alpha" maskUnits="userSpaceOnUse" x="0" y="0" width="390" height="214">
<rect width="390" height="214" transform="matrix(-1 0 0 1 390 0)" fill="white"/>
</mask>
<g mask="url(#mask0_1468_6397)">
<path d="M248.041 100.74C248.712 100.52 249.384 100.352 250.055 100.225C250.055 100.225 254.165 99.0847 260.238 103.189C260.238 103.189 255.867 99.05 251.248 98.0833C252.707 95.982 254.837 94.3207 257.459 93.4698C260.093 92.6131 262.808 92.7172 265.239 93.5624C265.239 93.5624 267.722 94.0776 272.359 97.3134C272.359 97.3134 269.864 93.655 266.536 92.0805C267.826 90.8244 269.413 89.8287 271.242 89.2325C274.86 88.0574 278.622 88.671 281.592 90.5812C282.408 91.1427 284.023 92.4741 286.483 95.4321C286.483 95.4321 285.713 93.0704 284.035 90.6391C291.496 89.3946 298.251 95.1832 303.357 100.439C350.471 148.948 382.673 216.235 382.673 216.235L302.535 242.301C290.246 181.44 270.379 149.064 257.042 133.238C248.608 135.183 239.943 130.395 237.21 122.014C234.328 113.151 239.173 103.629 248.041 100.746V100.74Z" fill="#1B1B1B"/>
<path d="M245.43 94.2914C246.466 92.769 247.71 91.4087 249.123 90.251C249.325 90.0831 249.528 89.9268 249.736 89.7647C250.362 89.2958 251.016 88.8617 251.699 88.4681C252.833 87.8139 254.043 87.2756 255.311 86.8646C255.623 86.7662 255.936 86.6678 256.249 86.5868C256.561 86.5057 256.874 86.4247 257.192 86.3552C257.505 86.2857 257.823 86.2279 258.141 86.1758C259.728 85.9153 261.331 85.8574 262.923 86.0021C264.74 84.5144 266.824 83.3683 269.099 82.6331C269.4 82.5347 269.701 82.4479 270.002 82.3668C274.529 81.1396 279.345 81.6317 283.513 83.6982C285.713 83.3972 287.826 83.4956 289.84 83.8777C290.847 84.0687 291.825 84.3292 292.775 84.6476C293.724 84.9659 294.65 85.3422 295.542 85.759C296.138 86.0368 296.717 86.332 297.278 86.6446C297.84 86.9572 298.396 87.2814 298.928 87.6229C299.194 87.7908 299.461 87.9644 299.721 88.1381C303.611 90.7372 306.604 93.8167 308.352 95.617C317.643 105.186 326.349 115.472 334.279 125.706C336.259 128.265 338.198 130.823 340.079 133.359C342.592 136.745 345.011 140.108 347.327 143.414C348.485 145.069 349.625 146.707 350.736 148.328C352.959 151.57 355.078 154.748 357.092 157.822C358.099 159.361 359.078 160.872 360.027 162.36C360.502 163.101 360.971 163.836 361.434 164.565C363.28 167.477 365.011 170.273 366.626 172.924C380.588 195.841 388.611 212.547 388.947 213.248L392.368 220.397L296.601 247.997L295.733 243.684C290.355 217.051 283.004 193.543 273.881 173.804C272.381 170.557 270.842 167.425 269.261 164.415C268.474 162.91 267.675 161.434 266.865 159.987C266.054 158.539 265.238 157.121 264.411 155.738C263.583 154.354 262.749 153 261.904 151.674C261.059 150.348 260.208 149.058 259.345 147.796C257.626 145.272 255.867 142.875 254.084 140.612C252.457 140.67 250.836 140.56 249.239 140.288C248.706 140.195 248.179 140.085 247.652 139.958C245.551 139.449 243.508 138.65 241.586 137.567C239.954 136.653 238.449 135.553 237.1 134.308C236.561 133.81 236.04 133.289 235.554 132.739C233.343 130.285 231.653 127.379 230.611 124.172C226.599 111.837 233.239 98.5461 245.435 94.303L245.43 94.2914ZM237.21 122.013C239.936 130.401 248.608 135.188 257.042 133.237C270.164 148.809 289.608 180.397 301.938 239.378L382.626 216.119C381.219 213.201 349.417 147.854 303.374 100.445C298.268 95.1886 291.513 89.4 284.051 90.6446C285.73 93.0758 286.5 95.4376 286.5 95.4376C284.04 92.4796 282.425 91.1482 281.609 90.5867C278.639 88.6822 274.876 88.0629 271.258 89.2379C269.429 89.8342 267.843 90.824 266.552 92.0859C269.875 93.6605 272.376 97.3189 272.376 97.3189C267.739 94.083 265.256 93.5678 265.256 93.5678C262.824 92.7169 260.115 92.6185 257.476 93.4752C254.853 94.3261 252.729 95.9875 251.265 98.0888C255.878 99.0555 260.254 103.194 260.254 103.194C254.182 99.0902 250.072 100.231 250.072 100.231C249.401 100.364 248.723 100.532 248.058 100.746C239.195 103.628 234.344 113.151 237.227 122.013H237.21Z" fill="#786565"/>
<path d="M110.122 45.687C105.422 43.4468 102.568 38.3007 103.465 32.9057C103.957 29.9651 105.485 27.4586 107.61 25.6873L107.766 17.6237C107.783 16.6975 108.924 16.2692 109.549 16.958L114.938 22.9087C115.702 22.8856 116.472 22.9319 117.254 23.065C118.272 23.2329 119.239 23.5281 120.142 23.9275C120.912 19.6439 123.887 16.3039 127.696 14.8567L130.058 7.64989C130.348 6.77002 131.563 6.69477 131.957 7.53412L135.25 14.5442C139.308 15.7077 142.359 18.8972 143.465 22.7987C145.977 19.1751 150.399 17.0911 155.03 17.7626L160.362 12.2692C161.004 11.6035 162.133 12.0724 162.121 12.9986L162 21.3747C164.495 24.0086 165.78 27.7306 165.137 31.5859C165.085 31.8869 165.021 32.1821 164.952 32.4715C165.93 32.3847 166.937 32.4252 167.956 32.5931C170.463 33.0099 172.657 34.185 174.347 35.8405L181.843 34.758C182.758 34.6249 183.366 35.6842 182.792 36.4078L177.832 42.6479C178.011 43.8578 178.011 45.1139 177.803 46.3816C176.79 52.4423 171.395 56.6738 165.398 56.3728C158.37 81.9933 134.793 148.29 95.9631 230.367L9.81669 216C9.81669 216 88.2642 117.848 110.128 45.6812L110.122 45.687Z" fill="#1B1B1B"/>
<circle cx="109.048" cy="18.9007" r="4.72497" fill="#FFE4CC"/>
<circle cx="130.648" cy="8.77575" r="4.72497" fill="#FFE4CC"/>
<circle cx="160.348" cy="14.1742" r="4.72497" fill="#FFE4CC"/>
<circle cx="181.273" cy="36.4496" r="4.72497" fill="#FFE4CC"/>
<path d="M4.38086 211.669C4.57768 211.426 24.1201 186.9 46.0532 153.956C73.3524 112.944 92.6054 76.5741 101.989 48.3371C97.7167 44.0941 95.5865 37.9234 96.6111 31.7643C97.161 28.4532 98.5908 25.3621 100.715 22.8035L100.819 17.4895C100.866 15.1683 101.908 12.9918 103.691 11.5157C105.479 10.028 107.818 9.39703 110.104 9.77908C111.864 10.0743 113.491 10.9657 114.695 12.2913L116.837 14.6589C118.243 12.8007 119.986 11.2031 121.983 9.96431L123.447 5.4897C124.68 1.72131 128.42 -0.542047 132.339 0.112068C134.914 0.540427 137.12 2.21334 138.237 4.58668L140.373 9.13075C142.133 10.0164 143.742 11.1683 145.137 12.5345C147.325 11.4867 149.71 10.8673 152.176 10.7284L155.366 7.44047C157.189 5.56496 159.811 4.69666 162.387 5.12502C166.306 5.77914 169.114 9.13654 169.056 13.1075L168.969 19.0062C170.515 21.2695 171.539 23.8107 171.985 26.4735C173.501 26.9829 174.949 27.6775 176.286 28.5516L180.841 27.8917C181.663 27.7759 182.485 27.7817 183.302 27.9149C186.069 28.3779 188.413 30.294 189.426 32.922C190.433 35.5443 189.97 38.537 188.222 40.7367L184.893 44.9161C184.87 45.7901 184.789 46.6642 184.645 47.5267C183.388 55.0462 177.831 60.8695 170.804 62.7219C163.128 88.7418 140.865 151.693 102.238 233.342L99.9917 238.088L94.8166 237.226L8.67026 222.859L-2.99964 220.914L4.38666 211.669H4.38086ZM120.727 175.583C121.716 173.29 122.689 171.021 123.644 168.775C124.599 166.529 125.543 164.301 126.469 162.095C130.174 153.279 133.641 144.828 136.854 136.787C138.463 132.764 140.008 128.851 141.49 125.042C144.46 117.424 147.181 110.241 149.647 103.538C150.88 100.186 152.055 96.9558 153.16 93.8589C155.377 87.6535 157.345 81.9575 159.059 76.8172C159.487 75.5321 159.898 74.2818 160.298 73.0662C162.474 66.3861 164.17 60.7827 165.38 56.3775C168.749 56.5454 171.933 55.2835 174.254 53.0664C176.06 51.3414 177.339 49.0376 177.785 46.3864C177.849 46.0217 177.883 45.657 177.912 45.2981C177.924 45.1592 177.924 45.0203 177.93 44.8871C177.941 44.6729 177.941 44.4588 177.941 44.2446C177.941 44.0709 177.936 43.903 177.924 43.7294C177.912 43.5557 177.895 43.3879 177.878 43.22C177.86 43.0348 177.843 42.8437 177.814 42.6585C177.426 40.0478 176.182 37.6629 174.329 35.8511C174.179 35.7006 174.017 35.5616 173.855 35.4227C173.756 35.3417 173.664 35.2548 173.565 35.1738C173.409 35.0464 173.253 34.9249 173.09 34.8033C172.969 34.7107 172.847 34.6297 172.72 34.5428C172.569 34.4386 172.419 34.3344 172.257 34.236C171.991 34.0682 171.713 33.9119 171.429 33.7672C171.313 33.7093 171.198 33.6572 171.082 33.6051C170.873 33.5067 170.659 33.4083 170.439 33.3214C170.312 33.2693 170.185 33.223 170.057 33.1767C169.826 33.0957 169.594 33.0146 169.357 32.9452C169.241 32.9104 169.131 32.8757 169.015 32.8468C168.662 32.7541 168.303 32.6731 167.933 32.6094C166.92 32.4416 165.913 32.4068 164.929 32.4879C164.998 32.1984 165.067 31.9032 165.114 31.6022C165.177 31.2375 165.212 30.8671 165.241 30.5082C165.241 30.4387 165.253 30.375 165.258 30.3056C165.276 29.964 165.282 29.6225 165.27 29.2868C165.27 29.1999 165.264 29.1189 165.258 29.0321C165.241 28.7021 165.218 28.3779 165.172 28.0538C165.16 27.9727 165.143 27.8975 165.131 27.8222C165.091 27.5733 165.044 27.3244 164.992 27.0755C164.969 26.9597 164.94 26.8382 164.911 26.7224C164.847 26.4619 164.766 26.2014 164.685 25.9467C164.633 25.7904 164.581 25.6399 164.523 25.4836C164.471 25.3389 164.413 25.2 164.355 25.0611C164.245 24.7948 164.124 24.5285 163.991 24.268C163.95 24.1928 163.91 24.1175 163.875 24.0365C163.36 23.0698 162.723 22.1783 161.971 21.3853C160.24 19.5619 157.936 18.2536 155.261 17.8079C155.175 17.7905 155.088 17.7848 155.001 17.7732C152.975 17.478 150.989 17.7153 149.189 18.3694C149.189 18.3694 149.178 18.3694 149.172 18.3694C148.923 18.462 148.674 18.5604 148.431 18.6704C148.414 18.6762 148.396 18.6878 148.379 18.6936C148.147 18.7978 147.922 18.9077 147.696 19.0235C147.667 19.0409 147.638 19.0583 147.609 19.0698C147.401 19.1856 147.192 19.3014 146.99 19.4229C146.943 19.4519 146.903 19.4808 146.856 19.5098C146.671 19.6255 146.486 19.7471 146.312 19.8744C146.254 19.915 146.197 19.9671 146.133 20.0076C145.977 20.1234 145.814 20.2449 145.664 20.3723C145.589 20.4359 145.519 20.4996 145.444 20.5633C145.311 20.6791 145.178 20.7891 145.05 20.9106C144.958 20.9974 144.871 21.0901 144.784 21.1769C144.68 21.2811 144.57 21.3853 144.471 21.4953C144.362 21.6168 144.252 21.75 144.147 21.8773C144.078 21.9584 144.003 22.0394 143.933 22.1262C143.759 22.3404 143.592 22.5662 143.435 22.7919C143.36 22.5372 143.279 22.2825 143.192 22.0278C143.163 21.941 143.123 21.8542 143.094 21.7673C143.03 21.6052 142.972 21.4432 142.903 21.2869C142.856 21.1827 142.804 21.0785 142.758 20.9743C142.694 20.8411 142.631 20.708 142.567 20.5749C142.509 20.4591 142.445 20.3491 142.388 20.2391C142.324 20.1234 142.26 20.0076 142.191 19.8918C142.121 19.7703 142.046 19.6545 141.971 19.5387C141.907 19.4403 141.838 19.3361 141.774 19.2435C141.687 19.1219 141.6 18.9946 141.513 18.8788C141.45 18.7978 141.386 18.7167 141.322 18.6357C141.218 18.5083 141.114 18.3752 141.01 18.2478C140.958 18.19 140.906 18.1263 140.854 18.0684C140.726 17.9295 140.605 17.7905 140.472 17.6516C140.443 17.6227 140.419 17.5995 140.391 17.5706C138.99 16.1697 137.241 15.1046 135.239 14.5315C134.799 14.4042 134.353 14.2942 133.89 14.219C131.725 13.8601 129.601 14.1148 127.684 14.8383C126.978 15.1046 126.301 15.4404 125.658 15.834C125.635 15.8514 125.612 15.8629 125.589 15.8803C125.218 16.1118 124.865 16.3607 124.524 16.627C124.472 16.6675 124.414 16.7081 124.362 16.7544C124.2 16.8875 124.043 17.0207 123.893 17.1596C123.806 17.2406 123.719 17.3217 123.632 17.4027C123.424 17.6053 123.221 17.8079 123.025 18.0279C122.909 18.1552 122.793 18.2826 122.683 18.4157C122.585 18.5373 122.486 18.6588 122.394 18.7804C122.255 18.9598 122.122 19.1451 121.994 19.3361C121.919 19.4519 121.838 19.5676 121.768 19.6834C121.624 19.915 121.491 20.1465 121.363 20.3838C121.311 20.4823 121.259 20.5807 121.207 20.6849C121.068 20.9627 120.935 21.2521 120.813 21.5416C120.802 21.5763 120.784 21.6052 120.773 21.64C120.651 21.9526 120.541 22.2709 120.449 22.6009C120.42 22.6877 120.397 22.7745 120.373 22.8672C120.281 23.2087 120.194 23.556 120.13 23.9149C119.227 23.5155 118.261 23.2203 117.242 23.0524C116.848 22.9887 116.46 22.9424 116.072 22.9193C115.69 22.8961 115.308 22.8903 114.932 22.8961C112.188 22.9714 109.624 23.9902 107.598 25.6804C107.366 25.8773 107.141 26.0856 106.921 26.294C106.88 26.3346 106.834 26.3751 106.793 26.4156C106.602 26.6066 106.417 26.815 106.238 27.0176C106.174 27.0871 106.116 27.1565 106.052 27.2318C105.89 27.4228 105.74 27.6196 105.595 27.8222C105.52 27.9206 105.45 28.0248 105.381 28.129C105.254 28.3143 105.126 28.5053 105.01 28.7021C104.929 28.8352 104.854 28.9684 104.779 29.1073C104.68 29.2868 104.582 29.4662 104.495 29.6514C104.414 29.8193 104.339 29.9988 104.264 30.1724C104.194 30.3403 104.119 30.5024 104.055 30.6702C103.974 30.8902 103.905 31.1218 103.835 31.3475C103.795 31.4806 103.748 31.6138 103.708 31.7469C103.61 32.1174 103.523 32.4994 103.459 32.8873C102.799 36.8467 104.165 40.6672 106.799 43.3068C107.754 44.2619 108.866 45.0666 110.116 45.6628C88.2523 117.83 9.80484 215.976 9.80484 215.982L95.9512 230.349C101.41 218.806 106.573 207.577 111.424 196.729C114.66 189.499 117.763 182.431 120.721 175.56L120.727 175.583ZM108.964 16.6386C108.391 16.546 107.777 16.9512 107.766 17.6285L107.667 22.7977C109.277 21.7847 111.088 21.0843 113.004 20.7775L109.549 16.9628C109.381 16.7775 109.178 16.6733 108.964 16.6386ZM131.204 6.96581C130.741 6.89055 130.231 7.12789 130.058 7.65465L128.576 12.1814C130.312 11.753 132.153 11.6488 134.017 11.9209L131.956 7.53888C131.8 7.20314 131.511 7.0179 131.204 6.96581ZM161.253 11.9788C160.946 11.9267 160.616 12.0135 160.355 12.2798L156.94 15.7993C158.839 16.2971 160.552 17.1712 162.034 18.3173L162.109 13.0091C162.115 12.4534 161.71 12.0598 161.247 11.9845L161.253 11.9788ZM182.161 34.7686C182.057 34.7512 181.953 34.7512 181.837 34.7686L177.096 35.4516C178.254 36.8872 179.134 38.5486 179.672 40.3315L182.786 36.4183C183.29 35.7816 182.891 34.8902 182.161 34.7686Z" fill="#786565"/>
</g>
</svg>
