<svg width="40" height="29" viewBox="0 0 40 29" fill="none" xmlns="http://www.w3.org/2000/svg">
<mask id="mask0_1287_5462" style="mask-type:alpha" maskUnits="userSpaceOnUse" x="0" y="0" width="40" height="29">
<path d="M6.64632 24.8309C9.98488 27.1676 14.4132 28.3027 20.1834 28.3027C25.9536 28.3027 30.3819 27.1662 33.7204 24.8309C37.239 22.3681 39.5133 18.1481 39.5133 14.0798C39.5133 11.5858 38.8303 9.0606 37.5861 6.9492L36.6055 2.33671C36.298 0.89274 34.9561 -0.107696 33.4866 0.0127535L27.1567 0.524307C25.1572 0.171463 22.8743 0 20.182 0C17.4896 0 15.2067 0.171463 13.2072 0.524307L6.87729 0.0127535C5.4064 -0.107696 4.06445 0.89274 3.75837 2.33671L2.77777 6.9492C1.53502 9.0606 0.850586 11.5858 0.850586 14.0798C0.850586 18.1481 3.12353 22.3681 6.64348 24.8309H6.64632Z" fill="#D9D9D9"/>
</mask>
<g mask="url(#mask0_1287_5462)">
<path d="M6.64632 24.8309C9.98488 27.1676 14.4132 28.3027 20.1834 28.3027C25.9536 28.3027 30.3819 27.1662 33.7204 24.8309C37.239 22.3681 39.5133 18.1481 39.5133 14.0798C39.5133 11.5858 38.8303 9.0606 37.5861 6.9492L36.6055 2.33671C36.298 0.89274 34.9561 -0.107696 33.4866 0.0127535L27.1567 0.524307C25.1572 0.171463 22.8743 0 20.182 0C17.4896 0 15.2067 0.171463 13.2072 0.524307L6.87729 0.0127535C5.4064 -0.107696 4.06445 0.89274 3.75837 2.33671L2.77777 6.9492C1.53502 9.0606 0.850586 11.5858 0.850586 14.0798C0.850586 18.1481 3.12353 22.3681 6.64348 24.8309H6.64632Z" fill="url(#paint0_radial_1287_5462)"/>
<path d="M19.7587 18.1306C20.456 18.1306 21.0213 17.5654 21.0213 16.8681C21.0213 16.1707 20.456 15.6055 19.7587 15.6055C19.0614 15.6055 18.4961 16.1707 18.4961 16.8681C18.4961 17.5654 19.0614 18.1306 19.7587 18.1306Z" fill="#786565"/>
<path d="M16.9033 19.0142C16.9033 19.0142 16.9784 19.9693 18.2793 19.9693C19.257 19.9693 19.6992 19.2678 19.7544 19.1672C19.7573 19.163 19.7629 19.163 19.7658 19.1672C19.821 19.2678 20.2617 19.9693 21.2409 19.9693C22.5418 19.9693 22.6168 19.0142 22.6168 19.0142" stroke="#786565" stroke-width="1.41705" stroke-miterlimit="10" stroke-linecap="round"/>
<path d="M11.8927 12.3833C11.6589 13.3526 11.4903 14.3899 11.6816 15.1083C11.8729 15.8268 12.4241 16.2264 12.9498 16.3525C13.4756 16.4786 14.1487 16.3737 14.646 15.8211C15.1434 15.2684 15.4651 14.268 15.6989 13.2987C15.8534 12.6582 15.9781 11.988 15.9908 11.4013C15.9993 11.0017 15.6692 10.6758 15.2695 10.6758H13.392C12.7925 10.6758 12.2612 11.0669 12.0897 11.6422C12.0174 11.8859 11.9508 12.1353 11.8913 12.3833H11.8927Z" fill="#786565"/>
<path d="M24.6711 12.3833C24.4372 13.3525 24.2686 14.3898 24.4599 15.1083C24.6512 15.8267 25.2025 16.2263 25.7282 16.3524C26.2539 16.4785 26.927 16.3737 27.4244 15.821C27.9218 15.2684 28.2434 14.2679 28.4772 13.2987C28.5608 12.9487 28.6374 12.5902 28.6912 12.2402C28.8173 11.4168 28.1797 10.6743 27.3464 10.6743H25.7083C25.4037 10.6743 25.1316 10.8656 25.0281 11.1533C24.8879 11.543 24.7717 11.9652 24.6711 12.3819V12.3833Z" fill="#786565"/>
<g filter="url(#filter0_f_1287_5462)">
<path d="M14.9934 4.76848C15.548 7.01595 15.4918 7.8374 16.434 7.8374H16.4381C17.3802 7.8374 17.324 6.33819 17.8786 4.09072C17.9279 3.89281 17.9827 3.70439 18.043 3.52275C18.0799 3.4116 18.1169 3.30316 18.1566 3.19878C18.2525 2.94801 18.6195 2.96834 18.6879 3.2286C18.6989 3.26927 18.7085 3.30994 18.7194 3.3506C18.7975 3.66644 18.8632 3.96872 18.9221 4.25203C18.9413 4.34692 18.9604 4.44045 18.9782 4.53127C19.0015 4.65191 19.0248 4.76984 19.0467 4.88506C19.1015 5.17108 19.1508 5.43269 19.2015 5.66991C19.222 5.7648 19.2425 5.85562 19.2631 5.94102C19.4411 6.67436 19.6602 7.09728 20.1614 7.09728H20.1655C20.6954 7.09728 20.909 6.62285 21.0939 5.80817C21.1145 5.71735 21.135 5.62247 21.1542 5.52351C21.1638 5.47471 21.1747 5.4232 21.1843 5.37169C21.2048 5.26867 21.2254 5.16159 21.2459 5.05179C21.2665 4.94199 21.2884 4.82677 21.3116 4.70884C21.3911 4.29676 21.4828 3.8413 21.6047 3.34925C21.6143 3.30858 21.6252 3.26792 21.6362 3.22725C21.7047 2.96699 22.0716 2.94666 22.1675 3.19743C22.2072 3.30045 22.2442 3.40753 22.2798 3.51733C22.34 3.70033 22.3962 3.8901 22.4455 4.08936C23.0001 6.33683 22.9439 7.83604 23.8861 7.83604H23.8902C24.8323 7.83604 24.7761 7.01459 25.3307 4.76713C25.8853 2.51966 30.0085 1.96254 30.0085 1.96254L29.4334 0.768322L26.9 0.970295C24.9679 0.632769 22.7618 0.46875 20.16 0.46875C17.5582 0.46875 15.3522 0.632769 13.42 0.970295L10.8867 0.768322L10.3115 1.96254C10.3115 1.96254 14.4361 2.51966 14.9893 4.76713L14.9934 4.76848Z" fill="#C0C0C0"/>
</g>
<g filter="url(#filter1_f_1287_5462)">
<path d="M37.9896 9.39574L36.8141 9.25439C36.8141 9.25439 36.2459 10.9824 35.4418 11.0956C33.3582 11.3876 32 11.0602 31.8894 11.8855V11.8896C31.7775 12.715 33.1371 12.8555 35.1005 13.6236C35.3423 13.7191 35.5703 13.8228 35.7817 13.932C36.029 14.0602 35.9558 14.4258 35.678 14.4531H35.6698C33.5751 14.6564 32.228 14.419 32.1174 15.243V15.2471C32.0055 16.0725 33.3651 16.213 35.3285 16.9811L35.3395 16.9852C35.5979 17.0862 35.5661 17.4586 35.2939 17.5145C35.0632 17.5623 34.8173 17.5991 34.5603 17.6251C32.4656 17.827 31.1185 17.5896 31.0079 18.415V18.4191C30.896 19.2444 31.9945 19.4573 32.6991 20.1531C34.5603 21.9907 33.9149 22.2909 33.9149 22.2909H35.4432C37.5337 19.9593 38.7938 16.9238 38.7938 13.9715C38.7938 12.4203 38.5147 10.8582 37.991 9.3971L37.9896 9.39574Z" fill="#C0C0C0"/>
</g>
<g filter="url(#filter2_f_1287_5462)">
<path d="M2.32971 9.39574L3.50521 9.25439C3.50521 9.25439 4.07341 10.9824 4.87756 11.0956C6.96115 11.3876 8.31935 11.0602 8.42989 11.8855V11.8896C8.5418 12.715 7.18222 12.8555 5.21883 13.6236C4.97704 13.7191 4.74906 13.8228 4.53766 13.932C4.29034 14.0602 4.36357 14.4258 4.64129 14.4531H4.64958C6.74422 14.6564 8.09137 14.419 8.20191 15.243V15.2471C8.31383 16.0725 6.95424 16.213 4.99086 16.9811L4.9798 16.9852C4.72143 17.0862 4.7532 17.4586 5.0254 17.5145C5.25614 17.5623 5.50208 17.5991 5.75908 17.6251C7.85372 17.827 9.20087 17.5896 9.31141 18.415V18.4191C9.42333 19.2444 8.32488 19.4573 7.62022 20.1531C5.75908 21.9907 6.40445 22.2909 6.40445 22.2909H4.87617C2.78567 19.9593 1.52557 16.9238 1.52557 13.9715C1.52557 12.4203 1.80467 10.8582 2.32834 9.3971L2.32971 9.39574Z" fill="#C0C0C0"/>
</g>
</g>
<path d="M37.5861 6.9492L36.6055 2.33671C36.298 0.89274 34.9561 -0.107696 33.4866 0.0127535L27.1567 0.524307C25.1572 0.171463 22.8743 0 20.182 0C17.4896 0 15.2067 0.171463 13.2072 0.524307L6.87729 0.0127535C5.4064 -0.107696 4.06445 0.89274 3.75837 2.33671L2.77777 6.9492C1.53502 9.0606 0.850586 11.5858 0.850586 14.0798C0.850586 18.1481 3.12353 22.3681 6.64348 24.8309C9.98204 27.1676 14.4103 28.3027 20.1805 28.3027C25.9508 28.3027 30.379 27.1662 33.7176 24.8309C37.2361 22.3681 39.5105 18.1481 39.5105 14.0798C39.5105 11.5858 38.8275 9.0606 37.5833 6.9492H37.5861ZM32.6633 23.3218C29.645 25.4346 25.5625 26.4619 20.182 26.4619C14.8014 26.4619 10.7189 25.4346 7.70059 23.3218C4.65961 21.1934 2.69417 17.5657 2.69417 14.0798C2.69417 11.8635 3.31201 9.62175 4.43572 7.76684C4.43572 7.76684 5.10881 6.77349 7.24431 5.41312C7.24431 5.41312 5.83577 5.79714 4.75456 6.50992L5.56085 2.7179C5.67563 2.17659 6.1801 1.80248 6.72992 1.84641L9.32028 2.05614C14.1878 2.58611 15.8529 2.96446 15.8529 2.96446C15.5085 2.71081 14.8071 2.41748 14.2771 2.21626C15.9917 1.96403 17.9331 1.84074 20.1834 1.84074C22.4336 1.84074 24.375 1.96403 26.0896 2.21626C25.5596 2.4189 24.8582 2.71223 24.5139 2.96446C24.5139 2.96446 26.1775 2.58611 31.0465 2.05614L33.6368 1.84641C34.1866 1.80248 34.6911 2.17659 34.8059 2.7179L35.6122 6.50992C34.531 5.79714 33.1224 5.41312 33.1224 5.41312C35.2579 6.77349 35.931 7.76684 35.931 7.76684C37.0547 9.62175 37.6726 11.8635 37.6726 14.0798C37.6726 17.5657 35.7071 21.1934 32.6661 23.3218H32.6633Z" fill="#786565"/>
<defs>
<filter id="filter0_f_1287_5462" x="8.75277" y="-1.09" width="22.8148" height="10.4862" filterUnits="userSpaceOnUse" color-interpolation-filters="sRGB">
<feFlood flood-opacity="0" result="BackgroundImageFix"/>
<feBlend mode="normal" in="SourceGraphic" in2="BackgroundImageFix" result="shape"/>
<feGaussianBlur stdDeviation="0.779376" result="effect1_foregroundBlur_1287_5462"/>
</filter>
<filter id="filter1_f_1287_5462" x="29.4412" y="7.69564" width="10.9115" height="16.1541" filterUnits="userSpaceOnUse" color-interpolation-filters="sRGB">
<feFlood flood-opacity="0" result="BackgroundImageFix"/>
<feBlend mode="normal" in="SourceGraphic" in2="BackgroundImageFix" result="shape"/>
<feGaussianBlur stdDeviation="0.779376" result="effect1_foregroundBlur_1287_5462"/>
</filter>
<filter id="filter2_f_1287_5462" x="-0.0333619" y="7.69564" width="10.9115" height="16.1541" filterUnits="userSpaceOnUse" color-interpolation-filters="sRGB">
<feFlood flood-opacity="0" result="BackgroundImageFix"/>
<feBlend mode="normal" in="SourceGraphic" in2="BackgroundImageFix" result="shape"/>
<feGaussianBlur stdDeviation="0.779376" result="effect1_foregroundBlur_1287_5462"/>
</filter>
<radialGradient id="paint0_radial_1287_5462" cx="0" cy="0" r="1" gradientUnits="userSpaceOnUse" gradientTransform="translate(20.182 14.1513) rotate(90) scale(16.5717 22.6376)">
<stop offset="0.243516" stop-color="white"/>
<stop offset="0.721936" stop-color="#DFE1E4"/>
<stop offset="0.909996" stop-color="#B4B4B4"/>
</radialGradient>
</defs>
</svg>
