<svg width="39" height="32" viewBox="0 0 39 32" fill="none" xmlns="http://www.w3.org/2000/svg">
<path d="M5.74517 28.1001C9.05784 30.4187 13.4518 31.545 19.1773 31.545C24.9027 31.545 29.2967 30.4173 32.6093 28.1001C36.1006 25.6564 38.3573 21.4691 38.3573 17.4323C38.3573 14.6793 37.7162 12.2158 35.8039 9.69338C35.8039 9.69338 35.8039 9.69056 35.8025 9.68916L35.3441 2.69542C35.2513 1.70133 34.6692 0.826763 33.7904 0.354327C32.9102 -0.118109 31.8599 -0.118109 30.9811 0.354327L25.2135 3.96228C25.2135 3.96228 25.2107 3.96228 25.2078 3.96228C23.4854 3.5742 21.3848 3.45891 19.1787 3.45891C16.9726 3.45891 14.8705 3.57561 13.1495 3.96228C13.1481 3.96228 13.1453 3.96228 13.1439 3.96228L7.37619 0.354327C6.496 -0.116703 5.44568 -0.116703 4.56689 0.354327C3.68669 0.826763 3.10599 1.70133 3.01319 2.69542L2.55482 9.68916C2.55482 9.68916 2.55482 9.69197 2.55341 9.69338C0.641168 12.2144 0 14.6793 0 17.4323C0 21.4691 2.25532 25.6564 5.74797 28.1001H5.74517Z" fill="#1B1B1B"/>
<path d="M35.8039 9.69338C35.8039 9.69338 35.8039 9.69056 35.8025 9.68916L35.3441 2.69542C35.2513 1.70133 34.6692 0.826763 33.7904 0.354327C32.9102 -0.118109 31.8599 -0.118109 30.9811 0.354327L25.2135 3.96228C25.2135 3.96228 25.2107 3.96228 25.2078 3.96228C23.4854 3.5742 21.3848 3.45891 19.1787 3.45891C16.9726 3.45891 14.8705 3.57561 13.1495 3.96228C13.1481 3.96228 13.1453 3.96228 13.1439 3.96228L7.37619 0.354327C6.496 -0.116703 5.44568 -0.116703 4.56689 0.354327C3.68669 0.826763 3.10598 1.70133 3.01318 2.69542L2.55482 9.68916C2.55482 9.68916 2.55482 9.69197 2.55341 9.69338C0.641168 12.2144 0 14.6793 0 17.4323C0 21.4691 2.25532 25.6564 5.74797 28.1001C9.06065 30.4187 13.4546 31.545 19.1801 31.545C24.9055 31.545 29.2995 30.4173 32.6121 28.1001C36.1034 25.6564 38.3601 21.4691 38.3601 17.4323C38.3601 14.6793 37.719 12.2158 35.8067 9.69338H35.8039ZM31.5618 26.6027C28.5669 28.6991 24.5161 29.7171 19.1773 29.7171C13.8384 29.7171 9.78758 28.6977 6.79267 26.6027C3.77527 24.4908 1.82507 20.8912 1.82507 17.4323C1.82507 14.9647 2.61387 12.438 3.9904 10.5033C3.9904 10.5033 4.09445 10.3514 4.13241 10.3036C4.43753 9.91132 5.07728 9.13236 6.10933 8.32247C6.11496 8.31825 6.11215 8.30841 6.10512 8.30981C5.92514 8.352 4.95496 8.59243 4.22099 9.02128C4.21537 9.02409 4.20974 9.02128 4.21115 9.01425L4.83263 2.86836C4.86918 2.48029 5.08712 2.15127 5.43161 1.96708C5.77188 1.78429 6.16135 1.78288 6.50162 1.96005L12.0302 5.18414C12.0302 5.18414 12.0359 5.19398 12.0302 5.1968C11.5241 5.4991 10.821 5.77609 10.2221 6.36523C10.2164 6.37086 10.2221 6.3807 10.2277 6.37789C10.4414 6.31321 11.8784 5.88998 13.7625 5.63127C16.0052 5.32475 16.9247 5.28679 19.1787 5.28679C21.4326 5.28679 22.3521 5.32334 24.5948 5.63127C26.4789 5.88858 27.9159 6.3118 28.1296 6.37789C28.1367 6.3807 28.1409 6.37086 28.1353 6.36523C27.5363 5.77609 26.8318 5.4991 26.3271 5.1968C26.3228 5.19398 26.3228 5.18695 26.3271 5.18414L31.8557 1.96005C32.1974 1.78148 32.5868 1.78429 32.9257 1.96708C33.2702 2.15127 33.4881 2.48029 33.5247 2.86836L34.1462 9.01425C34.1462 9.01425 34.1405 9.02409 34.1363 9.02128C33.4024 8.59243 32.4322 8.352 32.2522 8.30981C32.2452 8.30841 32.241 8.31825 32.248 8.32247C33.28 9.13236 33.9198 9.91132 34.2249 10.3036C34.2629 10.3514 34.3669 10.5033 34.3669 10.5033C35.742 12.4394 36.5322 14.9647 36.5322 17.4323C36.5322 20.8912 34.582 24.4908 31.5646 26.6027H31.5618Z" fill="#786565"/>
<path d="M14.7267 16.69C14.4947 17.6518 14.1755 18.6444 13.682 19.1928C13.1885 19.7412 12.5206 19.8452 11.9989 19.7201C11.4773 19.5949 10.9303 19.1984 10.7405 18.4856C10.5507 17.7727 10.718 16.7434 10.95 15.7817C11.182 14.82 11.5012 13.8273 11.9947 13.2789C12.4882 12.7306 13.1561 12.6265 13.6778 12.7516C14.1994 12.8768 14.7464 13.2733 14.9362 13.9862C15.126 14.699 14.9587 15.7283 14.7267 16.69Z" fill="#FFDA7B"/>
<path d="M27.4044 16.69C27.1724 17.6518 26.8533 18.6444 26.3597 19.1928C25.8662 19.7412 25.1983 19.8452 24.6767 19.7201C24.155 19.5949 23.6081 19.1984 23.4183 18.4856C23.2284 17.7727 23.3958 16.7434 23.6278 15.7817C23.8598 14.82 24.1789 13.8273 24.6725 13.2789C25.166 12.7306 25.8339 12.6265 26.3555 12.7516C26.8772 12.8768 27.4241 13.2733 27.6139 13.9862C27.8038 14.699 27.6364 15.7283 27.4044 16.69Z" fill="#FFDA7B"/>
<path d="M18.7538 21.4851C19.4457 21.4851 20.0066 20.9242 20.0066 20.2323C20.0066 19.5404 19.4457 18.9795 18.7538 18.9795C18.0619 18.9795 17.501 19.5404 17.501 20.2323C17.501 20.9242 18.0619 21.4851 18.7538 21.4851Z" fill="#9F9090"/>
<path d="M22.0462 22.3594C22.0462 22.3594 21.668 23.2564 20.4616 23.3071C19.3255 23.3535 18.8179 22.5984 18.7616 22.5084C18.7588 22.5028 18.7546 22.5028 18.7504 22.5084C18.6941 22.5984 18.1851 23.3535 17.0505 23.3071C15.8426 23.2578 15.4658 22.3594 15.4658 22.3594" stroke="#9F9090" stroke-width="1.40606" stroke-miterlimit="10" stroke-linecap="round"/>
</svg>
