<svg width="39" height="32" viewBox="0 0 39 32" fill="none" xmlns="http://www.w3.org/2000/svg">
<path d="M5.74614 28.1001C9.05882 30.4187 13.4528 31.545 19.1782 31.545C24.9037 31.545 29.2976 30.4173 32.6103 28.1001C36.1016 25.6564 38.3583 21.4691 38.3583 17.4323C38.3583 14.6793 37.7171 12.2158 35.8049 9.69338C35.8049 9.69338 35.8049 9.69056 35.8035 9.68916L35.3451 2.69542C35.2523 1.70133 34.6702 0.826763 33.7914 0.354327C32.9112 -0.118109 31.8609 -0.118109 30.9821 0.354327L25.2144 3.96228C25.2144 3.96228 25.2116 3.96228 25.2088 3.96228C23.4864 3.5742 21.3857 3.45891 19.1796 3.45891C16.9735 3.45891 14.8715 3.57561 13.1505 3.96228C13.149 3.96228 13.1462 3.96228 13.1448 3.96228L7.37717 0.354327C6.49698 -0.116703 5.44665 -0.116703 4.56786 0.354327C3.68767 0.826763 3.10696 1.70133 3.01416 2.69542L2.55579 9.68916C2.55579 9.68916 2.55579 9.69197 2.55439 9.69338C0.642145 12.2144 0.000976562 14.6793 0.000976562 17.4323C0.000976562 21.4691 2.2563 25.6564 5.74895 28.1001H5.74614Z" fill="#1B1B1B"/>
<path d="M35.8049 9.69338C35.8049 9.69338 35.8049 9.69056 35.8035 9.68916L35.3451 2.69542C35.2523 1.70133 34.6702 0.826763 33.7914 0.354327C32.9112 -0.118109 31.8609 -0.118109 30.9821 0.354327L25.2144 3.96228C25.2144 3.96228 25.2116 3.96228 25.2088 3.96228C23.4864 3.5742 21.3857 3.45891 19.1796 3.45891C16.9735 3.45891 14.8715 3.57561 13.1504 3.96228C13.149 3.96228 13.1462 3.96228 13.1448 3.96228L7.37717 0.354327C6.49698 -0.116703 5.44665 -0.116703 4.56786 0.354327C3.68767 0.826763 3.10696 1.70133 3.01416 2.69542L2.55579 9.68916C2.55579 9.68916 2.55579 9.69197 2.55439 9.69338C0.642145 12.2144 0.000976562 14.6793 0.000976562 17.4323C0.000976562 21.4691 2.2563 25.6564 5.74895 28.1001C9.06163 30.4187 13.4556 31.545 19.181 31.545C24.9065 31.545 29.3004 30.4173 32.6131 28.1001C36.1044 25.6564 38.3611 21.4691 38.3611 17.4323C38.3611 14.6793 37.7199 12.2158 35.8077 9.69338H35.8049ZM31.5628 26.6027C28.5679 28.6991 24.517 29.7171 19.1782 29.7171C13.8394 29.7171 9.78856 28.6977 6.79365 26.6027C3.77625 24.4907 1.82605 20.8912 1.82605 17.4323C1.82605 14.9647 2.61484 12.438 3.99137 10.5033C3.99137 10.5033 4.09542 10.3514 4.13339 10.3036C4.4385 9.91132 5.07826 9.13236 6.11031 8.32247C6.11593 8.31825 6.11312 8.30841 6.10609 8.30981C5.92612 8.352 4.95593 8.59243 4.22197 9.02128C4.21635 9.02409 4.21072 9.02128 4.21213 9.01425L4.8336 2.86836C4.87016 2.48029 5.0881 2.15127 5.43259 1.96708C5.77285 1.78429 6.16233 1.78288 6.5026 1.96005L12.0312 5.18414C12.0312 5.18414 12.0368 5.19398 12.0312 5.1968C11.525 5.4991 10.822 5.77609 10.223 6.36523C10.2174 6.37086 10.223 6.3807 10.2287 6.37789C10.4424 6.31321 11.8794 5.88998 13.7635 5.63127C16.0062 5.32475 16.9257 5.28679 19.1796 5.28679C21.4335 5.28679 22.3531 5.32334 24.5958 5.63127C26.4799 5.88858 27.9169 6.3118 28.1306 6.37789C28.1376 6.3807 28.1419 6.37086 28.1362 6.36523C27.5373 5.77609 26.8328 5.4991 26.328 5.1968C26.3238 5.19398 26.3238 5.18695 26.328 5.18414L31.8567 1.96005C32.1983 1.78148 32.5878 1.78429 32.9267 1.96708C33.2712 2.15127 33.4891 2.48029 33.5257 2.86836L34.1471 9.01425C34.1471 9.01425 34.1415 9.02409 34.1373 9.02128C33.4033 8.59243 32.4332 8.352 32.2532 8.30981C32.2461 8.30841 32.2419 8.31825 32.249 8.32247C33.281 9.13236 33.9208 9.91132 34.2259 10.3036C34.2638 10.3514 34.3679 10.5033 34.3679 10.5033C35.743 12.4394 36.5332 14.9647 36.5332 17.4323C36.5332 20.8912 34.583 24.4907 31.5656 26.6027H31.5628Z" fill="#786565"/>
<path d="M14.7277 16.69C14.4957 17.6518 14.1765 18.6444 13.683 19.1928C13.1894 19.7412 12.5216 19.8452 11.9999 19.7201C11.4783 19.5949 10.9313 19.1984 10.7415 18.4856C10.5517 17.7727 10.719 16.7434 10.951 15.7817C11.183 14.82 11.5022 13.8273 11.9957 13.2789C12.4892 12.7306 13.1571 12.6265 13.6788 12.7516C14.2004 12.8768 14.7474 13.2733 14.9372 13.9862C15.127 14.699 14.9597 15.7283 14.7277 16.69Z" fill="#FFDA7B"/>
<path d="M27.4054 16.69C27.1734 17.6518 26.8542 18.6444 26.3607 19.1928C25.8672 19.7412 25.1993 19.8452 24.6777 19.7201C24.156 19.5949 23.609 19.1984 23.4192 18.4856C23.2294 17.7727 23.3967 16.7434 23.6287 15.7817C23.8607 14.82 24.1799 13.8273 24.6734 13.2789C25.167 12.7306 25.8348 12.6265 26.3565 12.7516C26.8781 12.8768 27.4251 13.2733 27.6149 13.9862C27.8047 14.699 27.6374 15.7283 27.4054 16.69Z" fill="#FFDA7B"/>
<path d="M18.7547 21.4846C19.4467 21.4846 20.0076 20.9237 20.0076 20.2318C20.0076 19.5399 19.4467 18.979 18.7547 18.979C18.0628 18.979 17.502 19.5399 17.502 20.2318C17.502 20.9237 18.0628 21.4846 18.7547 21.4846Z" fill="#9F9090"/>
<path d="M22.0472 22.3589C22.0472 22.3589 21.6689 23.256 20.4625 23.3066C19.3264 23.353 18.8188 22.5979 18.7626 22.5079C18.7598 22.5023 18.7556 22.5023 18.7514 22.5079C18.6951 22.5979 18.1861 23.353 17.0514 23.3066C15.8436 23.2574 15.4668 22.3589 15.4668 22.3589" stroke="#9F9090" stroke-width="1.40606" stroke-miterlimit="10" stroke-linecap="round"/>
</svg>
