<svg width="390" height="214" viewBox="0 0 390 214" fill="none" xmlns="http://www.w3.org/2000/svg">
<mask id="mask0_912_6785" style="mask-type:alpha" maskUnits="userSpaceOnUse" x="0" y="0" width="390" height="214">
<rect width="390" height="214" fill="#D9D9D9"/>
</mask>
<g mask="url(#mask0_912_6785)">
<path d="M111.122 45.6861C106.422 43.4459 103.568 38.2998 104.465 32.9047C104.957 29.9641 106.485 27.4576 108.61 25.6863L108.766 17.6227C108.783 16.6966 109.924 16.2682 110.549 16.957L115.938 22.9078C116.702 22.8846 117.472 22.9309 118.254 23.0641C119.272 23.2319 120.239 23.5271 121.142 23.9266C121.912 19.643 124.887 16.3029 128.696 14.8558L131.058 7.64892C131.347 6.76905 132.563 6.69379 132.957 7.53315L136.25 14.5432C140.308 15.7067 143.359 18.8962 144.464 22.7978C146.977 19.1741 151.399 17.0902 156.03 17.7617L161.362 12.2683C162.004 11.6026 163.133 12.0714 163.121 12.9976L163 21.3738C165.495 24.0076 166.78 27.7297 166.137 31.5849C166.085 31.8859 166.021 32.1812 165.952 32.4706C166.93 32.3838 167.937 32.4243 168.956 32.5922C171.463 33.0089 173.657 34.184 175.347 35.8396L182.843 34.7571C183.758 34.624 184.366 35.6833 183.792 36.4069L178.832 42.647C179.011 43.8568 179.011 45.113 178.803 46.3807C177.79 52.4414 172.395 56.6729 166.398 56.3719C159.37 81.9924 135.793 148.29 96.9629 230.367L10.8165 215.999C10.8165 215.999 89.2641 117.847 111.128 45.6803L111.122 45.6861Z" fill="url(#paint0_radial_912_6785)"/>
<ellipse cx="110.049" cy="18.8998" rx="4.72497" ry="4.72497" fill="#CFEEFF"/>
<ellipse cx="131.649" cy="8.77502" rx="4.72497" ry="4.72497" fill="#CFEEFF"/>
<ellipse cx="161.349" cy="14.1749" rx="4.72497" ry="4.72497" fill="#CFEEFF"/>
<ellipse cx="182.274" cy="36.4498" rx="4.72497" ry="4.72497" fill="#CFEEFF"/>
<path d="M5.38063 211.669C5.57745 211.426 25.1199 186.9 47.0531 153.957C74.3523 112.944 93.6052 76.5742 102.989 48.3372C98.7166 44.0941 96.5864 37.9234 97.611 31.7643C98.1609 28.4532 99.5907 25.3621 101.715 22.8035L101.819 17.4896C101.866 15.1683 102.908 12.9918 104.69 11.5157C106.479 10.028 108.818 9.39704 111.104 9.77909C112.864 10.0743 114.491 10.9658 115.695 12.2914L117.836 14.6589C119.243 12.8008 120.986 11.2031 122.983 9.96433L124.447 5.48971C125.68 1.72131 129.42 -0.542048 133.338 0.112068C135.914 0.540427 138.12 2.21334 139.237 4.58668L141.373 9.13076C143.133 10.0164 144.742 11.1684 146.137 12.5345C148.325 11.4867 150.71 10.8674 153.176 10.7284L156.366 7.44048C158.189 5.56496 160.811 4.69667 163.387 5.12503C167.306 5.77914 170.114 9.13655 170.056 13.1076L169.969 19.0062C171.514 21.2695 172.539 23.8107 172.985 26.4735C174.501 26.9829 175.949 27.6776 177.286 28.5516L181.841 27.8917C182.663 27.776 183.485 27.7817 184.302 27.9149C187.069 28.378 189.413 30.294 190.426 32.9221C191.433 35.5443 190.97 38.537 189.222 40.7367L185.893 44.9161C185.87 45.7902 185.789 46.6643 185.645 47.5268C184.388 55.0462 178.831 60.8696 171.804 62.722C164.128 88.7419 141.865 151.693 103.238 233.342L100.992 238.089L95.8165 237.226L9.67003 222.859L-1.99988 220.914L5.38643 211.669H5.38063ZM121.726 175.583C122.716 173.291 123.689 171.022 124.644 168.776C125.599 166.53 126.543 164.301 127.469 162.095C131.174 153.279 134.641 144.828 137.854 136.788C139.463 132.764 141.008 128.851 142.49 125.042C145.46 117.425 148.181 110.241 150.646 103.538C151.879 100.186 153.055 96.956 154.16 93.859C156.377 87.6536 158.345 81.9576 160.059 76.8173C160.487 75.5322 160.898 74.2819 161.298 73.0663C163.474 66.3862 165.17 60.7828 166.38 56.3776C169.749 56.5455 172.933 55.2836 175.254 53.0665C177.06 51.3415 178.339 49.0376 178.785 46.3864C178.849 46.0217 178.883 45.6571 178.912 45.2982C178.924 45.1592 178.924 45.0203 178.93 44.8872C178.941 44.673 178.941 44.4588 178.941 44.2446C178.941 44.071 178.936 43.9031 178.924 43.7294C178.912 43.5558 178.895 43.3879 178.878 43.22C178.86 43.0348 178.843 42.8438 178.814 42.6585C178.426 40.0479 177.182 37.6629 175.329 35.8511C175.179 35.7006 175.017 35.5617 174.855 35.4227C174.756 35.3417 174.664 35.2549 174.565 35.1738C174.409 35.0465 174.253 34.9249 174.09 34.8034C173.969 34.7107 173.847 34.6297 173.72 34.5429C173.569 34.4387 173.419 34.3345 173.257 34.2361C172.991 34.0682 172.713 33.9119 172.429 33.7672C172.313 33.7093 172.198 33.6572 172.082 33.6051C171.873 33.5067 171.659 33.4083 171.439 33.3215C171.312 33.2694 171.185 33.2231 171.057 33.1768C170.826 33.0957 170.594 33.0147 170.357 32.9452C170.241 32.9105 170.131 32.8757 170.015 32.8468C169.662 32.7542 169.303 32.6731 168.933 32.6095C167.92 32.4416 166.913 32.4069 165.928 32.4879C165.998 32.1985 166.067 31.9033 166.114 31.6022C166.177 31.2376 166.212 30.8671 166.241 30.5082C166.241 30.4387 166.253 30.3751 166.258 30.3056C166.276 29.9641 166.282 29.6225 166.27 29.2868C166.27 29.2 166.264 29.1189 166.258 29.0321C166.241 28.7021 166.218 28.378 166.172 28.0538C166.16 27.9728 166.143 27.8975 166.131 27.8223C166.091 27.5734 166.044 27.3244 165.992 27.0755C165.969 26.9598 165.94 26.8382 165.911 26.7224C165.847 26.4619 165.766 26.2015 165.685 25.9468C165.633 25.7905 165.581 25.64 165.523 25.4837C165.471 25.3389 165.413 25.2 165.355 25.0611C165.245 24.7948 165.124 24.5285 164.991 24.268C164.95 24.1928 164.91 24.1175 164.875 24.0365C164.36 23.0698 163.723 22.1783 162.97 21.3853C161.24 19.5619 158.936 18.2537 156.261 17.8079C156.175 17.7906 156.088 17.7848 156.001 17.7732C153.975 17.478 151.989 17.7153 150.189 18.3694C150.189 18.3694 150.178 18.3694 150.172 18.3694C149.923 18.462 149.674 18.5604 149.431 18.6704C149.413 18.6762 149.396 18.6878 149.379 18.6936C149.147 18.7978 148.921 18.9078 148.696 19.0235C148.667 19.0409 148.638 19.0583 148.609 19.0699C148.4 19.1856 148.192 19.3014 147.989 19.423C147.943 19.4519 147.903 19.4808 147.856 19.5098C147.671 19.6256 147.486 19.7471 147.312 19.8745C147.254 19.915 147.196 19.9671 147.133 20.0076C146.976 20.1234 146.814 20.2449 146.664 20.3723C146.589 20.436 146.519 20.4996 146.444 20.5633C146.311 20.6791 146.178 20.7891 146.05 20.9106C145.958 20.9975 145.871 21.0901 145.784 21.1769C145.68 21.2811 145.57 21.3853 145.471 21.4953C145.361 21.6168 145.251 21.75 145.147 21.8773C145.078 21.9584 145.003 22.0394 144.933 22.1263C144.759 22.3404 144.592 22.5662 144.435 22.7919C144.36 22.5372 144.279 22.2825 144.192 22.0278C144.163 21.941 144.123 21.8542 144.094 21.7674C144.03 21.6053 143.972 21.4432 143.903 21.2869C143.856 21.1827 143.804 21.0785 143.758 20.9743C143.694 20.8412 143.631 20.708 143.567 20.5749C143.509 20.4591 143.445 20.3491 143.388 20.2392C143.324 20.1234 143.26 20.0076 143.191 19.8918C143.121 19.7703 143.046 19.6545 142.971 19.5387C142.907 19.4403 142.838 19.3361 142.774 19.2435C142.687 19.1219 142.6 18.9946 142.513 18.8788C142.45 18.7978 142.386 18.7167 142.322 18.6357C142.218 18.5084 142.114 18.3752 142.01 18.2479C141.958 18.19 141.906 18.1263 141.854 18.0684C141.726 17.9295 141.605 17.7906 141.471 17.6516C141.443 17.6227 141.419 17.5995 141.39 17.5706C139.99 16.1697 138.241 15.1046 136.239 14.5316C135.799 14.4042 135.353 14.2942 134.89 14.219C132.725 13.8601 130.6 14.1148 128.684 14.8384C127.978 15.1046 127.301 15.4404 126.658 15.834C126.635 15.8514 126.612 15.8629 126.589 15.8803C126.218 16.1119 125.865 16.3608 125.524 16.627C125.472 16.6676 125.414 16.7081 125.362 16.7544C125.2 16.8875 125.043 17.0207 124.893 17.1596C124.806 17.2406 124.719 17.3217 124.632 17.4027C124.424 17.6053 124.221 17.8079 124.025 18.0279C123.909 18.1552 123.793 18.2826 123.683 18.4157C123.585 18.5373 123.486 18.6589 123.394 18.7804C123.255 18.9599 123.122 19.1451 122.994 19.3361C122.919 19.4519 122.838 19.5677 122.768 19.6834C122.624 19.915 122.491 20.1465 122.363 20.3839C122.311 20.4823 122.259 20.5807 122.207 20.6849C122.068 20.9627 121.935 21.2522 121.813 21.5416C121.802 21.5763 121.784 21.6053 121.773 21.64C121.651 21.9526 121.541 22.271 121.449 22.6009C121.42 22.6877 121.396 22.7746 121.373 22.8672C121.281 23.2087 121.194 23.556 121.13 23.9149C120.227 23.5155 119.26 23.2203 118.242 23.0524C117.848 22.9888 117.46 22.9424 117.072 22.9193C116.69 22.8961 116.308 22.8904 115.932 22.8961C113.188 22.9714 110.624 23.9902 108.598 25.6805C108.366 25.8773 108.141 26.0857 107.921 26.2941C107.88 26.3346 107.834 26.3751 107.793 26.4156C107.602 26.6067 107.417 26.815 107.237 27.0176C107.174 27.0871 107.116 27.1566 107.052 27.2318C106.89 27.4229 106.74 27.6197 106.595 27.8223C106.52 27.9207 106.45 28.0249 106.381 28.1291C106.253 28.3143 106.126 28.5053 106.01 28.7021C105.929 28.8353 105.854 28.9684 105.779 29.1073C105.68 29.2868 105.582 29.4662 105.495 29.6515C105.414 29.8193 105.339 29.9988 105.264 30.1725C105.194 30.3403 105.119 30.5024 105.055 30.6703C104.974 30.8902 104.905 31.1218 104.835 31.3475C104.795 31.4807 104.748 31.6138 104.708 31.747C104.609 32.1174 104.523 32.4995 104.459 32.8873C103.799 36.8468 105.165 40.6673 107.799 43.3069C108.754 44.262 109.866 45.0666 111.116 45.6628C89.2522 117.83 10.8046 215.976 10.8046 215.982L96.9511 230.349C102.41 218.807 107.573 207.577 112.424 196.729C115.66 189.499 118.763 182.431 121.721 175.56L121.726 175.583ZM109.964 16.6386C109.391 16.546 108.777 16.9512 108.766 17.6285L108.667 22.7977C110.277 21.7847 112.088 21.0843 114.004 20.7775L110.549 16.9628C110.381 16.7776 110.178 16.6734 109.964 16.6386ZM132.204 6.96581C131.741 6.89056 131.231 7.1279 131.058 7.65466L129.576 12.1814C131.312 11.753 133.153 11.6488 135.017 11.9209L132.956 7.53889C132.8 7.20315 132.511 7.01791 132.204 6.96581ZM162.253 11.9788C161.946 11.9267 161.616 12.0135 161.355 12.2798L157.94 15.7993C159.839 16.2971 161.552 17.1712 163.034 18.3173L163.109 13.0091C163.115 12.4534 162.71 12.0598 162.247 11.9846L162.253 11.9788ZM183.161 34.7686C183.057 34.7513 182.953 34.7513 182.837 34.7686L178.096 35.4517C179.254 36.8873 180.134 38.5486 180.672 40.3315L183.786 36.4184C184.29 35.7816 183.891 34.8902 183.161 34.7686Z" fill="#786565"/>
<mask id="mask1_912_6785" style="mask-type:alpha" maskUnits="userSpaceOnUse" x="10" y="6" width="175" height="225">
<path d="M111.122 45.6863C106.422 43.4461 103.568 38.3 104.465 32.905C104.957 29.9644 106.485 27.4579 108.61 25.6866L108.766 17.623C108.783 16.6968 109.924 16.2684 110.549 16.9573L115.938 22.908C116.702 22.8849 117.472 22.9312 118.254 23.0643C119.272 23.2322 120.239 23.5274 121.142 23.9268C121.912 19.6432 124.887 16.3032 128.696 14.856L131.058 7.64916C131.347 6.76929 132.563 6.69404 132.957 7.53339L136.25 14.5434C140.308 15.7069 143.359 18.8965 144.464 22.798C146.977 19.1743 151.399 17.0904 156.03 17.7619L161.362 12.2685C162.004 11.6028 163.133 12.0717 163.121 12.9979L163 21.374C165.495 24.0079 166.78 27.7299 166.137 31.5852C166.085 31.8862 166.021 32.1814 165.952 32.4708C166.93 32.384 167.937 32.4245 168.956 32.5924C171.463 33.0092 173.657 34.1843 175.347 35.8398L182.843 34.7573C183.758 34.6242 184.366 35.6835 183.792 36.4071L178.832 42.6473C179.011 43.8571 179.011 45.1132 178.803 46.3809C177.79 52.4416 172.395 56.6731 166.398 56.3721C159.37 81.9926 135.793 148.29 96.9629 230.367L10.8165 216C10.8165 216 89.2641 117.847 111.128 45.6805L111.122 45.6863Z" fill="#D9D9D9"/>
</mask>
<g mask="url(#mask1_912_6785)">
<g filter="url(#filter0_f_912_6785)">
<path d="M59.8591 179.464C76.57 185.75 81.6932 189.558 85.277 184.061L85.2927 184.038C88.8765 178.541 78.923 172.518 66.4315 159.761C65.3333 158.635 64.3176 157.517 63.3667 156.396C62.7852 155.71 62.2213 155.035 61.6943 154.361C60.4297 152.739 61.9579 150.685 63.9092 151.388C64.215 151.496 64.5157 151.613 64.8216 151.721C67.1704 152.604 69.3843 153.501 71.4488 154.357C72.1382 154.648 72.8188 154.932 73.4766 155.213C74.3489 155.588 75.2036 155.952 76.0355 156.312C78.102 157.204 79.9892 158.025 81.7231 158.735C82.4177 159.017 83.0859 159.282 83.7188 159.524C89.1603 161.592 92.7414 162.105 94.6479 159.182L94.6636 159.158C96.6795 156.066 94.4098 152.81 89.8204 148.28C89.3085 147.776 88.7701 147.254 88.2002 146.723C87.9196 146.46 87.6267 146.178 87.3285 145.904C86.7373 145.348 86.1197 144.774 85.4845 144.189C84.8494 143.604 84.1841 142.988 83.5065 142.353C81.1315 140.144 78.5215 137.679 75.7884 134.884C75.5606 134.655 75.3381 134.419 75.1156 134.183C73.6852 132.681 74.9492 130.454 76.943 130.957C77.7634 131.162 78.5997 131.4 79.4485 131.657C80.8666 132.081 82.313 132.558 83.7951 133.114C100.506 139.4 110.032 146.079 113.616 140.583L113.632 140.559C117.216 135.063 111.665 131.91 99.174 119.154C86.6825 106.397 98.7477 79.9839 98.7477 79.9839L88.8014 78.2798L83.4498 95.7971C73.9069 105.639 66.5712 123.471 56.6739 138.649C46.7766 153.827 39.3588 156.26 34.2016 168.962L18.249 186.475L26.7918 186.765C26.7918 186.765 43.1291 173.188 59.8347 179.482L59.8591 179.464Z" fill="#EEBB37"/>
</g>
</g>
<path d="M249.042 100.741C249.713 100.521 250.385 100.353 251.056 100.225C251.056 100.225 255.166 99.085 261.238 103.189C261.238 103.189 256.868 99.0503 252.249 98.0836C253.707 95.9823 255.838 94.321 258.46 93.47C261.094 92.6133 263.809 92.7175 266.24 93.5626C266.24 93.5626 268.723 94.0778 273.36 97.3137C273.36 97.3137 270.865 93.6553 267.536 92.0807C268.827 90.8246 270.413 89.829 272.243 89.2327C275.86 88.0576 279.623 88.6712 282.593 90.5815C283.409 91.143 285.024 92.4744 287.484 95.4324C287.484 95.4324 286.714 93.0706 285.035 90.6394C292.497 89.3948 299.252 95.1835 304.358 100.44C351.472 148.948 383.674 216.235 383.674 216.235L303.536 242.302C291.247 181.44 271.38 149.064 258.043 133.238C249.609 135.183 240.943 130.396 238.211 122.014C235.328 113.151 240.174 103.629 249.042 100.746V100.741Z" fill="url(#paint1_radial_912_6785)"/>
<mask id="mask2_912_6785" style="mask-type:alpha" maskUnits="userSpaceOnUse" x="237" y="88" width="147" height="155">
<path d="M249.042 100.741C249.713 100.521 250.385 100.353 251.056 100.225C251.056 100.225 255.166 99.085 261.238 103.189C261.238 103.189 256.868 99.0503 252.249 98.0836C253.707 95.9823 255.838 94.321 258.46 93.47C261.094 92.6133 263.809 92.7175 266.24 93.5626C266.24 93.5626 268.723 94.0778 273.36 97.3137C273.36 97.3137 270.865 93.6553 267.536 92.0807C268.827 90.8246 270.413 89.829 272.243 89.2327C275.86 88.0576 279.623 88.6712 282.593 90.5815C283.409 91.143 285.024 92.4744 287.484 95.4324C287.484 95.4324 286.714 93.0706 285.035 90.6394C292.497 89.3948 299.252 95.1835 304.358 100.44C351.472 148.948 383.674 216.235 383.674 216.235L303.536 242.302C291.247 181.44 271.38 149.064 258.043 133.238C249.609 135.183 240.943 130.396 238.211 122.014C235.328 113.151 240.174 103.629 249.042 100.746V100.741Z" fill="#D9D9D9"/>
</mask>
<g mask="url(#mask2_912_6785)">
<g filter="url(#filter1_f_912_6785)">
<path d="M368.223 230.764C351.511 237.051 346.388 240.858 342.804 235.362L342.788 235.338C339.204 229.842 349.158 223.818 361.65 211.061C362.749 209.935 363.765 208.818 364.715 207.697C365.297 207.01 365.861 206.335 366.388 205.661C367.653 204.039 366.124 201.985 364.173 202.688C363.867 202.796 363.567 202.913 363.261 203.021C360.912 203.904 358.698 204.801 356.633 205.658C355.944 205.948 355.263 206.232 354.605 206.513C353.733 206.888 352.878 207.252 352.046 207.613C349.98 208.505 348.092 209.326 346.358 210.035C345.664 210.317 344.996 210.582 344.363 210.824C338.921 212.893 335.34 213.406 333.433 210.482L333.418 210.458C331.402 207.367 333.671 204.111 338.261 199.581C338.773 199.076 339.311 198.554 339.881 198.023C340.162 197.761 340.455 197.479 340.753 197.204C341.344 196.648 341.962 196.075 342.597 195.49C343.232 194.905 343.898 194.289 344.575 193.653C346.95 191.444 349.561 188.979 352.294 186.184C352.522 185.955 352.744 185.719 352.967 185.483C354.397 183.981 353.133 181.754 351.139 182.257C350.319 182.462 349.482 182.7 348.634 182.957C347.216 183.381 345.769 183.858 344.287 184.414C327.575 190.701 318.048 197.38 314.465 191.884L314.449 191.86C310.865 186.364 316.416 183.211 328.908 170.454C341.4 157.697 329.335 131.284 329.335 131.284L339.282 129.579L344.633 147.097C354.176 156.939 361.512 174.771 371.409 189.949C381.306 205.127 388.724 207.56 393.881 220.261L409.834 237.775L401.291 238.065C401.291 238.065 384.953 224.488 368.247 230.783L368.223 230.764Z" fill="#EEBB37"/>
</g>
</g>
<path d="M246.431 94.2922C247.468 92.7698 248.712 91.4094 250.125 90.2517C250.327 90.0838 250.53 89.9275 250.738 89.7654C251.363 89.2966 252.017 88.8624 252.7 88.4688C253.835 87.8147 255.045 87.2763 256.313 86.8653C256.625 86.7669 256.938 86.6685 257.25 86.5875C257.563 86.5065 257.876 86.4254 258.194 86.3559C258.506 86.2865 258.825 86.2286 259.143 86.1765C260.729 85.916 262.333 85.8581 263.925 86.0028C265.742 84.5152 267.826 83.369 270.101 82.6339C270.402 82.5354 270.703 82.4486 271.004 82.3676C275.531 81.1404 280.347 81.6324 284.515 83.699C286.715 83.3979 288.827 83.4964 290.842 83.8784C291.849 84.0694 292.827 84.3299 293.777 84.6483C294.726 84.9667 295.652 85.3429 296.544 85.7597C297.14 86.0376 297.719 86.3328 298.28 86.6454C298.842 86.958 299.397 87.2821 299.93 87.6237C300.196 87.7915 300.463 87.9652 300.723 88.1388C304.613 90.7379 307.606 93.8175 309.354 95.6178C318.645 105.186 327.351 115.473 335.281 125.707C337.261 128.266 339.2 130.824 341.081 133.36C343.594 136.746 346.013 140.109 348.329 143.415C349.486 145.07 350.627 146.708 351.738 148.329C353.961 151.571 356.08 154.749 358.094 157.822C359.101 159.362 360.08 160.873 361.029 162.361C361.504 163.102 361.973 163.837 362.436 164.566C364.282 167.478 366.013 170.274 367.628 172.925C381.59 195.842 389.613 212.548 389.949 213.249L393.37 220.398L297.603 247.998L296.735 243.685C291.357 217.052 284.005 193.544 274.883 173.805C273.383 170.557 271.843 167.426 270.263 164.416C269.476 162.911 268.677 161.435 267.867 159.987C267.056 158.54 266.24 157.122 265.412 155.739C264.585 154.355 263.751 153.001 262.906 151.675C262.061 150.349 261.21 149.058 260.347 147.797C258.628 145.273 256.868 142.876 255.085 140.613C253.459 140.671 251.838 140.561 250.24 140.289C249.708 140.196 249.181 140.086 248.654 139.959C246.553 139.449 244.51 138.65 242.588 137.568C240.955 136.653 239.45 135.554 238.102 134.309C237.563 133.811 237.042 133.29 236.556 132.74C234.345 130.286 232.654 127.38 231.612 124.173C227.601 111.838 234.241 98.5468 246.437 94.3037L246.431 94.2922ZM238.212 122.014C240.938 130.402 249.609 135.189 258.043 133.238C271.166 148.81 290.61 180.398 302.94 239.379L383.628 216.12C382.221 213.202 350.418 147.854 304.376 100.445C299.27 95.1894 292.515 89.4008 285.053 90.6453C286.732 93.0765 287.502 95.4383 287.502 95.4383C285.042 92.4803 283.427 91.1489 282.61 90.5874C279.641 88.683 275.878 88.0636 272.26 89.2387C270.431 89.8349 268.845 90.8248 267.554 92.0867C270.877 93.6612 273.377 97.3196 273.377 97.3196C268.741 94.0838 266.257 93.5686 266.257 93.5686C263.826 92.7177 261.117 92.6192 258.478 93.476C255.855 94.3269 253.731 95.9882 252.266 98.0895C256.88 99.0562 261.256 103.195 261.256 103.195C255.184 99.0909 251.074 100.231 251.074 100.231C250.402 100.364 249.725 100.532 249.059 100.746C240.197 103.629 235.346 113.152 238.229 122.014H238.212Z" fill="#786565"/>
</g>
<defs>
<filter id="filter0_f_912_6785" x="7.24902" y="67.2798" width="118.455" height="130.485" filterUnits="userSpaceOnUse" color-interpolation-filters="sRGB">
<feFlood flood-opacity="0" result="BackgroundImageFix"/>
<feBlend mode="normal" in="SourceGraphic" in2="BackgroundImageFix" result="shape"/>
<feGaussianBlur stdDeviation="5.5" result="effect1_foregroundBlur_912_6785"/>
</filter>
<filter id="filter1_f_912_6785" x="302.377" y="118.579" width="118.457" height="130.486" filterUnits="userSpaceOnUse" color-interpolation-filters="sRGB">
<feFlood flood-opacity="0" result="BackgroundImageFix"/>
<feBlend mode="normal" in="SourceGraphic" in2="BackgroundImageFix" result="shape"/>
<feGaussianBlur stdDeviation="5.5" result="effect1_foregroundBlur_912_6785"/>
</filter>
<radialGradient id="paint0_radial_912_6785" cx="0" cy="0" r="1" gradientUnits="userSpaceOnUse" gradientTransform="translate(149.199 -4.3875) rotate(113.8) scale(278.495 278.495)">
<stop offset="0.223958" stop-color="white"/>
<stop offset="0.353523" stop-color="#FFDA7B"/>
</radialGradient>
<radialGradient id="paint1_radial_912_6785" cx="0" cy="0" r="1" gradientUnits="userSpaceOnUse" gradientTransform="translate(274.748 95.512) rotate(61.9146) scale(176.353 167.893)">
<stop offset="0.260699" stop-color="white"/>
<stop offset="0.411862" stop-color="#FFDA7B"/>
</radialGradient>
</defs>
</svg>
