<svg width="390" height="214" viewBox="0 0 390 214" fill="none" xmlns="http://www.w3.org/2000/svg">
<mask id="mask0_1468_6344" style="mask-type:alpha" maskUnits="userSpaceOnUse" x="0" y="0" width="390" height="214">
<rect width="390" height="214" transform="matrix(-1 0 0 1 390 0)" fill="white"/>
</mask>
<g mask="url(#mask0_1468_6344)">
<path d="M110.122 45.687C105.422 43.4468 102.568 38.3007 103.465 32.9057C103.957 29.9651 105.485 27.4586 107.61 25.6873L107.766 17.6237C107.783 16.6975 108.924 16.2692 109.549 16.958L114.938 22.9087C115.702 22.8856 116.472 22.9319 117.254 23.065C118.272 23.2329 119.239 23.5281 120.142 23.9275C120.912 19.6439 123.887 16.3039 127.696 14.8567L130.058 7.6499C130.347 6.77002 131.563 6.69477 131.957 7.53412L135.25 14.5442C139.308 15.7077 142.359 18.8972 143.465 22.7987C145.977 19.1751 150.399 17.0912 155.03 17.7626L160.362 12.2692C161.004 11.6035 162.133 12.0724 162.121 12.9986L162 21.3747C164.495 24.0086 165.78 27.7307 165.137 31.5859C165.085 31.8869 165.021 32.1821 164.952 32.4716C165.93 32.3847 166.937 32.4253 167.956 32.5931C170.463 33.0099 172.657 34.185 174.347 35.8405L181.843 34.7581C182.758 34.6249 183.366 35.6843 182.792 36.4078L177.832 42.648C178.011 43.8578 178.011 45.1139 177.803 46.3816C176.79 52.4423 171.395 56.6738 165.398 56.3728C158.37 81.9933 134.793 148.291 95.963 230.368L9.81654 216C9.81654 216 88.2641 117.848 110.128 45.6812L110.122 45.687Z" fill="url(#paint0_radial_1468_6344)"/>
<circle cx="109.049" cy="18.9008" r="4.72497" fill="#CFEEFF"/>
<circle cx="130.649" cy="8.77575" r="4.72497" fill="#CFEEFF"/>
<circle cx="160.349" cy="14.1742" r="4.72497" fill="#CFEEFF"/>
<circle cx="181.274" cy="36.4496" r="4.72497" fill="#CFEEFF"/>
<path d="M4.38073 211.669C4.57754 211.426 24.12 186.9 46.0531 153.957C73.3523 112.944 92.6053 76.5741 101.989 48.3372C97.7167 44.0941 95.5864 37.9234 96.611 31.7643C97.1609 28.4532 98.5908 25.3621 100.715 22.8035L100.819 17.4895C100.866 15.1683 101.908 12.9918 103.691 11.5157C105.479 10.028 107.818 9.39704 110.104 9.77909C111.864 10.0743 113.491 10.9658 114.695 12.2914L116.837 14.6589C118.243 12.8008 119.986 11.2031 121.983 9.96432L123.447 5.48971C124.68 1.72131 128.42 -0.542047 132.338 0.112068C134.914 0.540427 137.12 2.21334 138.237 4.58668L140.373 9.13076C142.133 10.0164 143.742 11.1684 145.137 12.5345C147.325 11.4867 149.71 10.8674 152.176 10.7284L155.366 7.44048C157.189 5.56496 159.811 4.69667 162.387 5.12503C166.306 5.77914 169.114 9.13655 169.056 13.1076L168.969 19.0062C170.515 21.2695 171.539 23.8107 171.985 26.4735C173.501 26.9829 174.949 27.6775 176.286 28.5516L180.841 27.8917C181.663 27.7759 182.485 27.7817 183.302 27.9149C186.069 28.378 188.413 30.294 189.426 32.922C190.433 35.5443 189.97 38.537 188.222 40.7367L184.893 44.9161C184.87 45.7902 184.789 46.6643 184.645 47.5268C183.388 55.0462 177.831 60.8696 170.804 62.7219C163.128 88.7418 140.865 151.693 102.238 233.342L99.9916 238.089L94.8166 237.226L8.67013 222.859L-2.99978 220.914L4.38652 211.669H4.38073ZM120.726 175.583C121.716 173.291 122.689 171.021 123.644 168.775C124.599 166.53 125.543 164.301 126.469 162.095C130.174 153.279 133.641 144.828 136.854 136.788C138.463 132.764 140.008 128.851 141.49 125.042C144.46 117.425 147.181 110.241 149.647 103.538C150.879 100.186 152.055 96.9559 153.16 93.859C155.377 87.6536 157.345 81.9576 159.059 76.8173C159.487 75.5322 159.898 74.2818 160.298 73.0662C162.474 66.3861 164.17 60.7827 165.38 56.3776C168.749 56.5455 171.933 55.2835 174.254 53.0665C176.06 51.3415 177.339 49.0376 177.785 46.3864C177.849 46.0217 177.883 45.657 177.912 45.2981C177.924 45.1592 177.924 45.0203 177.93 44.8872C177.941 44.673 177.941 44.4588 177.941 44.2446C177.941 44.071 177.936 43.9031 177.924 43.7294C177.912 43.5558 177.895 43.3879 177.878 43.22C177.86 43.0348 177.843 42.8438 177.814 42.6585C177.426 40.0479 176.182 37.6629 174.329 35.8511C174.179 35.7006 174.017 35.5617 173.855 35.4227C173.756 35.3417 173.664 35.2549 173.565 35.1738C173.409 35.0465 173.253 34.9249 173.09 34.8034C172.969 34.7107 172.847 34.6297 172.72 34.5429C172.569 34.4387 172.419 34.3345 172.257 34.2361C171.991 34.0682 171.713 33.9119 171.429 33.7672C171.313 33.7093 171.198 33.6572 171.082 33.6051C170.873 33.5067 170.659 33.4083 170.439 33.3215C170.312 33.2694 170.185 33.2231 170.057 33.1767C169.826 33.0957 169.594 33.0147 169.357 32.9452C169.241 32.9105 169.131 32.8757 169.015 32.8468C168.662 32.7542 168.303 32.6731 167.933 32.6095C166.92 32.4416 165.913 32.4069 164.928 32.4879C164.998 32.1985 165.067 31.9032 165.114 31.6022C165.177 31.2376 165.212 30.8671 165.241 30.5082C165.241 30.4387 165.253 30.375 165.258 30.3056C165.276 29.9641 165.282 29.6225 165.27 29.2868C165.27 29.2 165.264 29.1189 165.258 29.0321C165.241 28.7021 165.218 28.378 165.172 28.0538C165.16 27.9728 165.143 27.8975 165.131 27.8223C165.091 27.5733 165.044 27.3244 164.992 27.0755C164.969 26.9598 164.94 26.8382 164.911 26.7224C164.847 26.4619 164.766 26.2014 164.685 25.9467C164.633 25.7904 164.581 25.6399 164.523 25.4836C164.471 25.3389 164.413 25.2 164.355 25.0611C164.245 24.7948 164.124 24.5285 163.991 24.268C163.95 24.1928 163.91 24.1175 163.875 24.0365C163.36 23.0698 162.723 22.1783 161.97 21.3853C160.24 19.5619 157.936 18.2536 155.261 17.8079C155.175 17.7906 155.088 17.7848 155.001 17.7732C152.975 17.478 150.989 17.7153 149.189 18.3694C149.189 18.3694 149.178 18.3694 149.172 18.3694C148.923 18.462 148.674 18.5604 148.431 18.6704C148.414 18.6762 148.396 18.6878 148.379 18.6936C148.147 18.7978 147.921 18.9078 147.696 19.0235C147.667 19.0409 147.638 19.0583 147.609 19.0698C147.401 19.1856 147.192 19.3014 146.99 19.423C146.943 19.4519 146.903 19.4808 146.856 19.5098C146.671 19.6256 146.486 19.7471 146.312 19.8745C146.254 19.915 146.196 19.9671 146.133 20.0076C145.977 20.1234 145.814 20.2449 145.664 20.3723C145.589 20.436 145.519 20.4996 145.444 20.5633C145.311 20.6791 145.178 20.7891 145.05 20.9106C144.958 20.9975 144.871 21.0901 144.784 21.1769C144.68 21.2811 144.57 21.3853 144.471 21.4953C144.361 21.6168 144.251 21.75 144.147 21.8773C144.078 21.9584 144.003 22.0394 143.933 22.1262C143.759 22.3404 143.592 22.5662 143.435 22.7919C143.36 22.5372 143.279 22.2825 143.192 22.0278C143.163 21.941 143.123 21.8542 143.094 21.7673C143.03 21.6053 142.972 21.4432 142.903 21.2869C142.856 21.1827 142.804 21.0785 142.758 20.9743C142.694 20.8412 142.631 20.708 142.567 20.5749C142.509 20.4591 142.445 20.3491 142.388 20.2391C142.324 20.1234 142.26 20.0076 142.191 19.8918C142.121 19.7703 142.046 19.6545 141.971 19.5387C141.907 19.4403 141.838 19.3361 141.774 19.2435C141.687 19.1219 141.6 18.9946 141.513 18.8788C141.45 18.7978 141.386 18.7167 141.322 18.6357C141.218 18.5083 141.114 18.3752 141.01 18.2479C140.958 18.19 140.906 18.1263 140.854 18.0684C140.726 17.9295 140.605 17.7906 140.472 17.6516C140.443 17.6227 140.419 17.5995 140.39 17.5706C138.99 16.1697 137.241 15.1046 135.239 14.5316C134.799 14.4042 134.353 14.2942 133.89 14.219C131.725 13.8601 129.6 14.1148 127.684 14.8384C126.978 15.1046 126.301 15.4404 125.658 15.834C125.635 15.8514 125.612 15.8629 125.589 15.8803C125.218 16.1119 124.865 16.3608 124.524 16.627C124.472 16.6676 124.414 16.7081 124.362 16.7544C124.2 16.8875 124.043 17.0207 123.893 17.1596C123.806 17.2406 123.719 17.3217 123.632 17.4027C123.424 17.6053 123.221 17.8079 123.025 18.0279C122.909 18.1552 122.793 18.2826 122.683 18.4157C122.585 18.5373 122.486 18.6589 122.394 18.7804C122.255 18.9599 122.122 19.1451 121.994 19.3361C121.919 19.4519 121.838 19.5677 121.768 19.6834C121.624 19.915 121.491 20.1465 121.363 20.3839C121.311 20.4823 121.259 20.5807 121.207 20.6849C121.068 20.9627 120.935 21.2522 120.813 21.5416C120.802 21.5763 120.784 21.6053 120.773 21.64C120.651 21.9526 120.541 22.271 120.449 22.6009C120.42 22.6877 120.397 22.7746 120.373 22.8672C120.281 23.2087 120.194 23.556 120.13 23.9149C119.227 23.5155 118.261 23.2203 117.242 23.0524C116.848 22.9887 116.46 22.9424 116.072 22.9193C115.69 22.8961 115.308 22.8903 114.932 22.8961C112.188 22.9714 109.624 23.9902 107.598 25.6805C107.366 25.8773 107.141 26.0857 106.921 26.2941C106.88 26.3346 106.834 26.3751 106.793 26.4156C106.602 26.6066 106.417 26.815 106.238 27.0176C106.174 27.0871 106.116 27.1566 106.052 27.2318C105.89 27.4228 105.74 27.6197 105.595 27.8223C105.52 27.9207 105.45 28.0249 105.381 28.1291C105.253 28.3143 105.126 28.5053 105.01 28.7021C104.929 28.8353 104.854 28.9684 104.779 29.1073C104.68 29.2868 104.582 29.4662 104.495 29.6515C104.414 29.8193 104.339 29.9988 104.264 30.1724C104.194 30.3403 104.119 30.5024 104.055 30.6703C103.974 30.8902 103.905 31.1218 103.835 31.3475C103.795 31.4807 103.748 31.6138 103.708 31.747C103.609 32.1174 103.523 32.4995 103.459 32.8873C102.799 36.8467 104.165 40.6672 106.799 43.3069C107.754 44.262 108.866 45.0666 110.116 45.6628C88.2522 117.83 9.80471 215.976 9.80471 215.982L95.9511 230.349C101.41 218.807 106.573 207.577 111.424 196.729C114.66 189.499 117.763 182.431 120.721 175.56L120.726 175.583ZM108.964 16.6386C108.391 16.546 107.777 16.9512 107.766 17.6285L107.667 22.7977C109.277 21.7847 111.088 21.0843 113.004 20.7775L109.549 16.9628C109.381 16.7775 109.178 16.6733 108.964 16.6386ZM131.204 6.96581C130.741 6.89056 130.231 7.12789 130.058 7.65466L128.576 12.1814C130.312 11.753 132.153 11.6488 134.017 11.9209L131.956 7.53889C131.8 7.20314 131.511 7.01791 131.204 6.96581ZM161.253 11.9788C160.946 11.9267 160.616 12.0135 160.355 12.2798L156.94 15.7993C158.839 16.2971 160.552 17.1712 162.034 18.3173L162.109 13.0091C162.115 12.4534 161.71 12.0598 161.247 11.9846L161.253 11.9788ZM182.161 34.7686C182.057 34.7513 181.953 34.7513 181.837 34.7686L177.096 35.4517C178.254 36.8873 179.134 38.5486 179.672 40.3315L182.786 36.4184C183.29 35.7816 182.891 34.8902 182.161 34.7686Z" fill="#786565"/>
<mask id="mask1_1468_6344" style="mask-type:alpha" maskUnits="userSpaceOnUse" x="9" y="6" width="175" height="225">
<path d="M110.122 45.687C105.422 43.4468 102.568 38.3007 103.465 32.9057C103.957 29.9651 105.485 27.4586 107.61 25.6873L107.766 17.6237C107.783 16.6975 108.924 16.2692 109.549 16.958L114.938 22.9087C115.702 22.8856 116.472 22.9319 117.254 23.065C118.272 23.2329 119.239 23.5281 120.142 23.9275C120.912 19.6439 123.887 16.3039 127.696 14.8567L130.058 7.6499C130.347 6.77002 131.563 6.69477 131.957 7.53412L135.25 14.5442C139.308 15.7077 142.359 18.8972 143.465 22.7987C145.977 19.1751 150.399 17.0912 155.03 17.7626L160.362 12.2692C161.004 11.6035 162.133 12.0724 162.121 12.9986L162 21.3747C164.495 24.0086 165.78 27.7307 165.137 31.5859C165.085 31.8869 165.021 32.1821 164.952 32.4716C165.93 32.3847 166.937 32.4253 167.956 32.5931C170.463 33.0099 172.657 34.185 174.347 35.8405L181.843 34.7581C182.758 34.6249 183.366 35.6843 182.792 36.4078L177.832 42.648C178.011 43.8578 178.011 45.1139 177.803 46.3816C176.79 52.4423 171.395 56.6738 165.398 56.3728C158.37 81.9933 134.793 148.291 95.963 230.368L9.81654 216C9.81654 216 88.2641 117.848 110.128 45.6812L110.122 45.687Z" fill="#D9D9D9"/>
</mask>
<g mask="url(#mask1_1468_6344)">
<g filter="url(#filter0_f_1468_6344)">
<path d="M58.8591 179.466C75.57 185.751 80.6931 189.559 84.277 184.063L84.2926 184.039C87.8765 178.543 77.923 172.519 65.4315 159.763C64.3333 158.637 63.3175 157.519 62.3667 156.398C61.7852 155.711 61.2213 155.036 60.6943 154.362C59.4297 152.741 60.9578 150.686 62.9091 151.389C63.215 151.498 63.5157 151.614 63.8215 151.722C66.1704 152.605 68.3843 153.502 70.4488 154.359C71.1382 154.649 71.8188 154.933 72.4765 155.214C73.3489 155.59 74.2036 155.953 75.0355 156.314C77.102 157.206 78.9892 158.027 80.7231 158.736C81.4177 159.018 82.0858 159.283 82.7188 159.525C88.1603 161.593 91.7414 162.107 93.6479 159.183L93.6635 159.159C95.6794 156.068 93.4098 152.811 88.8203 148.282C88.3084 147.777 87.7701 147.255 87.2002 146.724C86.9196 146.462 86.6266 146.18 86.3284 145.905C85.7373 145.349 85.1197 144.776 84.4845 144.191C83.8493 143.606 83.1841 142.99 82.5065 142.354C80.1315 140.145 77.5215 137.681 74.7883 134.885C74.5606 134.657 74.3381 134.421 74.1156 134.184C72.6852 132.682 73.9491 130.455 75.943 130.959C76.7633 131.163 77.5997 131.401 78.4485 131.659C79.8665 132.083 81.313 132.559 82.7951 133.116C99.506 139.401 109.032 146.08 112.616 140.584L112.632 140.56C116.216 135.064 110.665 131.912 98.174 119.155C85.6825 106.399 97.7477 79.9854 97.7477 79.9854L87.8013 78.2814L82.4498 95.7986C72.9069 105.64 65.5712 123.473 55.6739 138.651C45.7766 153.829 38.3588 156.262 33.2016 168.963L17.249 186.477L25.7918 186.767C25.7918 186.767 42.129 173.19 58.8347 179.484L58.8591 179.466Z" fill="#EEBB37"/>
</g>
</g>
<path d="M248.042 100.74C248.713 100.52 249.385 100.352 250.056 100.225C250.056 100.225 254.166 99.0848 260.238 103.189C260.238 103.189 255.868 99.05 251.249 98.0833C252.707 95.982 254.838 94.3207 257.46 93.4698C260.094 92.6131 262.809 92.7173 265.24 93.5624C265.24 93.5624 267.723 94.0776 272.36 97.3134C272.36 97.3134 269.865 93.655 266.536 92.0805C267.827 90.8244 269.413 89.8287 271.243 89.2325C274.861 88.0574 278.623 88.671 281.593 90.5812C282.409 91.1427 284.024 92.4741 286.484 95.4321C286.484 95.4321 285.714 93.0704 284.036 90.6391C291.497 89.3946 298.252 95.1832 303.358 100.439C350.472 148.948 382.674 216.235 382.674 216.235L302.536 242.301C290.247 181.44 270.38 149.064 257.043 133.238C248.609 135.183 239.943 130.395 237.211 122.014C234.328 113.151 239.174 103.629 248.042 100.746V100.74Z" fill="url(#paint1_radial_1468_6344)"/>
<mask id="mask2_1468_6344" style="mask-type:alpha" maskUnits="userSpaceOnUse" x="236" y="88" width="147" height="155">
<path d="M248.042 100.74C248.713 100.52 249.385 100.352 250.056 100.225C250.056 100.225 254.166 99.0848 260.238 103.189C260.238 103.189 255.868 99.05 251.249 98.0833C252.707 95.982 254.838 94.3207 257.46 93.4698C260.094 92.6131 262.809 92.7173 265.24 93.5624C265.24 93.5624 267.723 94.0776 272.36 97.3134C272.36 97.3134 269.865 93.655 266.536 92.0805C267.827 90.8244 269.413 89.8287 271.243 89.2325C274.861 88.0574 278.623 88.671 281.593 90.5812C282.409 91.1427 284.024 92.4741 286.484 95.4321C286.484 95.4321 285.714 93.0704 284.036 90.6391C291.497 89.3946 298.252 95.1832 303.358 100.439C350.472 148.948 382.674 216.235 382.674 216.235L302.536 242.301C290.247 181.44 270.38 149.064 257.043 133.238C248.609 135.183 239.943 130.395 237.211 122.014C234.328 113.151 239.174 103.629 248.042 100.746V100.74Z" fill="#D9D9D9"/>
</mask>
<g mask="url(#mask2_1468_6344)">
<g filter="url(#filter1_f_1468_6344)">
<path d="M367.223 230.763C350.511 237.05 345.388 240.857 341.804 235.361L341.788 235.337C338.204 229.841 348.158 223.817 360.651 211.06C361.749 209.934 362.765 208.816 363.716 207.695C364.297 207.009 364.861 206.334 365.388 205.66C366.653 204.038 365.124 201.983 363.173 202.687C362.867 202.795 362.567 202.911 362.261 203.02C359.912 203.903 357.698 204.8 355.633 205.656C354.944 205.947 354.263 206.231 353.605 206.512C352.733 206.887 351.878 207.251 351.046 207.611C348.98 208.504 347.092 209.324 345.358 210.034C344.664 210.316 343.996 210.581 343.363 210.823C337.921 212.891 334.34 213.405 332.433 210.481L332.418 210.457C330.402 207.366 332.671 204.109 337.261 199.58C337.773 199.075 338.311 198.553 338.881 198.022C339.162 197.759 339.455 197.477 339.753 197.203C340.344 196.647 340.962 196.073 341.597 195.488C342.232 194.903 342.898 194.287 343.575 193.652C345.95 191.443 348.561 188.978 351.294 186.182C351.522 185.954 351.744 185.718 351.967 185.482C353.397 183.98 352.133 181.753 350.139 182.256C349.319 182.461 348.483 182.699 347.634 182.956C346.216 183.38 344.769 183.856 343.287 184.413C326.575 190.699 317.049 197.379 313.465 191.882L313.449 191.859C309.865 186.363 315.416 183.21 327.908 170.453C340.4 157.696 328.335 131.283 328.335 131.283L338.282 129.578L343.633 147.096C353.176 156.937 360.512 174.77 370.409 189.948C380.306 205.126 387.724 207.559 392.881 220.26L408.834 237.773L400.291 238.064C400.291 238.064 383.953 224.487 367.247 230.781L367.223 230.763Z" fill="#EEBB37"/>
</g>
</g>
<path d="M245.431 94.2914C246.468 92.769 247.712 91.4087 249.125 90.251C249.327 90.0831 249.53 89.9268 249.738 89.7647C250.363 89.2958 251.017 88.8617 251.701 88.4681C252.835 87.8139 254.045 87.2756 255.313 86.8646C255.625 86.7662 255.938 86.6678 256.25 86.5868C256.563 86.5057 256.876 86.4247 257.194 86.3552C257.507 86.2857 257.825 86.2279 258.143 86.1758C259.729 85.9153 261.333 85.8574 262.925 86.0021C264.742 84.5144 266.826 83.3683 269.101 82.6331C269.402 82.5347 269.703 82.4479 270.004 82.3668C274.531 81.1396 279.347 81.6317 283.515 83.6982C285.715 83.3972 287.827 83.4956 289.842 83.8777C290.849 84.0687 291.827 84.3292 292.777 84.6476C293.726 84.9659 294.652 85.3422 295.544 85.759C296.14 86.0368 296.719 86.3321 297.28 86.6446C297.842 86.9572 298.397 87.2814 298.93 87.6229C299.196 87.7908 299.463 87.9644 299.723 88.1381C303.613 90.7372 306.606 93.8168 308.354 95.617C317.645 105.186 326.351 115.472 334.281 125.706C336.261 128.265 338.2 130.823 340.081 133.359C342.594 136.745 345.013 140.108 347.329 143.414C348.486 145.069 349.627 146.707 350.738 148.328C352.961 151.57 355.08 154.748 357.094 157.822C358.101 159.361 359.08 160.872 360.029 162.36C360.504 163.101 360.973 163.836 361.436 164.565C363.282 167.477 365.013 170.273 366.628 172.924C380.59 195.841 388.613 212.547 388.949 213.248L392.37 220.397L296.603 247.997L295.735 243.684C290.357 217.051 283.005 193.543 273.883 173.804C272.383 170.557 270.844 167.425 269.263 164.415C268.476 162.91 267.677 161.434 266.867 159.987C266.056 158.539 265.24 157.121 264.412 155.738C263.585 154.354 262.751 153 261.906 151.674C261.061 150.349 260.21 149.058 259.347 147.796C257.628 145.272 255.868 142.875 254.085 140.612C252.459 140.67 250.838 140.56 249.24 140.288C248.708 140.195 248.181 140.085 247.654 139.958C245.553 139.449 243.51 138.65 241.588 137.567C239.955 136.653 238.45 135.553 237.102 134.308C236.563 133.81 236.042 133.289 235.556 132.74C233.345 130.285 231.654 127.379 230.613 124.172C226.601 111.837 233.241 98.5461 245.437 94.303L245.431 94.2914ZM237.212 122.013C239.938 130.401 248.609 135.188 257.043 133.237C270.166 148.809 289.61 180.397 301.94 239.378L382.628 216.119C381.221 213.202 349.418 147.854 303.376 100.445C298.27 95.1887 291.515 89.4 284.053 90.6446C285.732 93.0758 286.502 95.4376 286.502 95.4376C284.042 92.4796 282.427 91.1482 281.61 90.5867C278.641 88.6822 274.878 88.0629 271.26 89.238C269.431 89.8342 267.845 90.824 266.554 92.086C269.877 93.6605 272.378 97.3189 272.378 97.3189C267.741 94.083 265.258 93.5678 265.258 93.5678C262.826 92.7169 260.117 92.6185 257.478 93.4752C254.855 94.3262 252.731 95.9875 251.266 98.0888C255.88 99.0555 260.256 103.194 260.256 103.194C254.184 99.0902 250.074 100.231 250.074 100.231C249.402 100.364 248.725 100.532 248.059 100.746C239.197 103.628 234.346 113.151 237.229 122.013H237.212Z" fill="#786565"/>
</g>
<defs>
<filter id="filter0_f_1468_6344" x="6.24902" y="67.2812" width="118.455" height="130.486" filterUnits="userSpaceOnUse" color-interpolation-filters="sRGB">
<feFlood flood-opacity="0" result="BackgroundImageFix"/>
<feBlend mode="normal" in="SourceGraphic" in2="BackgroundImageFix" result="shape"/>
<feGaussianBlur stdDeviation="5.5" result="effect1_foregroundBlur_1468_6344"/>
</filter>
<filter id="filter1_f_1468_6344" x="301.377" y="118.578" width="118.457" height="130.486" filterUnits="userSpaceOnUse" color-interpolation-filters="sRGB">
<feFlood flood-opacity="0" result="BackgroundImageFix"/>
<feBlend mode="normal" in="SourceGraphic" in2="BackgroundImageFix" result="shape"/>
<feGaussianBlur stdDeviation="5.5" result="effect1_foregroundBlur_1468_6344"/>
</filter>
<radialGradient id="paint0_radial_1468_6344" cx="0" cy="0" r="1" gradientUnits="userSpaceOnUse" gradientTransform="translate(148.199 -4.38652) rotate(113.8) scale(278.495 278.495)">
<stop offset="0.223958" stop-color="white"/>
<stop offset="0.353523" stop-color="#FFDA7B"/>
</radialGradient>
<radialGradient id="paint1_radial_1468_6344" cx="0" cy="0" r="1" gradientUnits="userSpaceOnUse" gradientTransform="translate(273.748 95.5117) rotate(61.9146) scale(176.353 167.893)">
<stop offset="0.260699" stop-color="white"/>
<stop offset="0.411862" stop-color="#FFDA7B"/>
</radialGradient>
</defs>
</svg>
