<svg width="390" height="214" viewBox="0 0 390 214" fill="none" xmlns="http://www.w3.org/2000/svg">
<mask id="mask0_970_4255" style="mask-type:alpha" maskUnits="userSpaceOnUse" x="0" y="84" width="390" height="130">
<rect y="84" width="390" height="130" fill="white"/>
</mask>
<g mask="url(#mask0_970_4255)">
<path d="M247.503 103.244C248.181 103.022 248.86 102.852 249.539 102.723C249.539 102.723 253.694 101.57 259.832 105.719C259.832 105.719 255.414 101.535 250.744 100.558C252.219 98.4338 254.372 96.7544 257.023 95.8942C259.686 95.0282 262.43 95.1335 264.888 95.9879C264.888 95.9879 267.398 96.5087 272.085 99.7797C272.085 99.7797 269.563 96.0815 266.199 94.4898C267.504 93.22 269.107 92.2135 270.956 91.6108C274.613 90.4229 278.417 91.0432 281.419 92.9743C282.244 93.5419 283.876 94.8878 286.363 97.8779C286.363 97.8779 285.585 95.4905 283.888 93.0328C291.431 91.7747 298.26 97.6263 303.421 102.94C351.047 151.976 383.6 219.996 383.6 219.996L302.59 246.346C290.167 184.822 270.084 152.093 256.602 136.095C248.076 138.061 239.316 133.222 236.554 124.749C233.64 115.79 238.538 106.164 247.503 103.25V103.244Z" fill="url(#paint0_radial_970_4255)"/>
<path d="M244.863 96.7253C245.911 95.1863 247.169 93.8112 248.597 92.6409C248.801 92.4712 249.006 92.3132 249.217 92.1493C249.849 91.6754 250.51 91.2365 251.201 90.8386C252.348 90.1773 253.571 89.6331 254.852 89.2177C255.168 89.1182 255.484 89.0187 255.8 88.9368C256.116 88.8549 256.432 88.7729 256.754 88.7027C257.07 88.6325 257.392 88.574 257.713 88.5213C259.317 88.258 260.938 88.1995 262.547 88.3458C264.384 86.8419 266.491 85.6833 268.791 84.9401C269.095 84.8406 269.399 84.7529 269.703 84.6709C274.279 83.4304 279.148 83.9278 283.361 86.0168C285.585 85.7125 287.721 85.812 289.757 86.1982C290.775 86.3913 291.764 86.6546 292.724 86.9765C293.684 87.2983 294.62 87.6787 295.521 88.1C296.124 88.3809 296.709 88.6793 297.276 88.9953C297.844 89.3113 298.406 89.639 298.944 89.9842C299.213 90.1539 299.483 90.3295 299.746 90.505C303.678 93.1324 306.703 96.2455 308.471 98.0653C317.863 107.738 326.663 118.136 334.68 128.482C336.681 131.069 338.642 133.655 340.543 136.218C343.083 139.641 345.529 143.041 347.87 146.382C349.04 148.056 350.193 149.712 351.316 151.35C353.563 154.627 355.705 157.84 357.741 160.947C358.76 162.504 359.749 164.031 360.708 165.535C361.188 166.284 361.662 167.027 362.13 167.764C363.997 170.708 365.747 173.534 367.379 176.214C381.493 199.381 389.604 216.269 389.943 216.977L393.401 224.203L296.592 252.104L295.714 247.745C290.278 220.821 282.846 197.058 273.624 177.103C272.109 173.821 270.552 170.655 268.954 167.612C268.159 166.091 267.351 164.599 266.532 163.136C265.713 161.673 264.888 160.239 264.051 158.841C263.214 157.442 262.371 156.073 261.517 154.733C260.663 153.393 259.803 152.088 258.931 150.812C257.193 148.261 255.414 145.838 253.611 143.55C251.967 143.609 250.329 143.498 248.714 143.222C248.175 143.129 247.643 143.018 247.11 142.889C244.986 142.374 242.921 141.566 240.978 140.472C239.328 139.548 237.806 138.436 236.443 137.178C235.899 136.674 235.372 136.148 234.88 135.592C232.645 133.111 230.936 130.173 229.883 126.932C225.828 114.462 232.54 101.026 244.869 96.737L244.863 96.7253ZM236.554 124.749C239.31 133.228 248.076 138.067 256.602 136.095C269.867 151.836 289.523 183.769 301.987 243.391L383.553 219.879C382.131 216.93 349.982 150.871 303.438 102.946C298.277 97.6323 291.448 91.7807 283.905 93.0388C285.602 95.4965 286.381 97.8839 286.381 97.8839C283.894 94.8938 282.261 93.5479 281.436 92.9803C278.434 91.0551 274.631 90.429 270.973 91.6168C269.124 92.2196 267.521 93.2202 266.216 94.4959C269.575 96.0875 272.103 99.7857 272.103 99.7857C267.415 96.5147 264.905 95.9939 264.905 95.9939C262.447 95.1337 259.709 95.0342 257.041 95.9002C254.39 96.7604 252.242 98.4399 250.762 100.564C255.425 101.541 259.849 105.725 259.849 105.725C253.711 101.576 249.556 102.729 249.556 102.729C248.877 102.864 248.193 103.033 247.52 103.25C238.561 106.164 233.657 115.79 236.571 124.749H236.554Z" fill="#786565"/>
<path d="M141.899 103.244C141.22 103.022 140.541 102.852 139.862 102.723C139.862 102.723 135.708 101.57 129.569 105.719C129.569 105.719 133.987 101.535 138.657 100.558C137.182 98.4338 135.029 96.7544 132.378 95.8942C129.716 95.0282 126.971 95.1335 124.514 95.9879C124.514 95.9879 122.003 96.5087 117.316 99.7797C117.316 99.7797 119.838 96.0815 123.203 94.4898C121.898 93.22 120.295 92.2135 118.445 91.6108C114.788 90.4229 110.985 91.0432 107.983 92.9743C107.158 93.5419 105.525 94.8878 103.038 97.8779C103.038 97.8779 103.816 95.4905 105.513 93.0328C97.9705 91.7747 91.1416 97.6263 85.9805 102.94C38.354 151.976 5.80127 219.996 5.80127 219.996L86.8114 246.346C99.2344 184.822 119.317 152.093 132.799 136.095C141.325 138.061 150.085 133.222 152.847 124.749C155.761 115.79 150.864 106.164 141.899 103.25V103.244Z" fill="url(#paint1_radial_970_4255)"/>
<path d="M144.538 96.7253C143.491 95.1863 142.233 93.8112 140.805 92.6409C140.6 92.4712 140.395 92.3132 140.184 92.1493C139.553 91.6754 138.891 91.2365 138.201 90.8386C137.054 90.1773 135.831 89.6331 134.549 89.2177C134.233 89.1182 133.917 89.0187 133.601 88.9368C133.285 88.8549 132.969 88.7729 132.648 88.7027C132.332 88.6325 132.01 88.574 131.688 88.5213C130.085 88.258 128.464 88.1995 126.854 88.3458C125.017 86.8419 122.91 85.6833 120.611 84.9401C120.306 84.8406 120.002 84.7529 119.698 84.6709C115.122 83.4304 110.253 83.9278 106.04 86.0168C103.817 85.7125 101.681 85.812 99.6443 86.1982C98.6261 86.3913 97.6372 86.6546 96.6775 86.9765C95.7178 87.2983 94.7816 87.6787 93.8804 88.1C93.2777 88.3809 92.6925 88.6793 92.1249 88.9953C91.5573 89.3113 90.9956 89.639 90.4572 89.9842C90.188 90.1539 89.9189 90.3295 89.6555 90.505C85.7232 93.1324 82.6979 96.2455 80.9307 98.0653C71.5389 107.738 62.738 118.136 54.7212 128.482C52.72 131.069 50.7597 133.655 48.8579 136.218C46.3183 139.641 43.8723 143.041 41.5316 146.382C40.3613 148.056 39.2085 149.712 38.085 151.35C35.838 154.627 33.6963 157.84 31.6599 160.947C30.6417 162.504 29.6528 164.031 28.6931 165.535C28.2133 166.284 27.7393 167.027 27.2712 167.764C25.4045 170.708 23.6549 173.534 22.0223 176.214C7.90809 199.381 -0.202283 216.269 -0.541679 216.977L-4 224.203L92.8096 252.104L93.6873 247.745C99.1235 220.821 106.555 197.058 115.777 177.103C117.293 173.821 118.849 170.655 120.447 167.612C121.243 166.091 122.05 164.599 122.869 163.136C123.689 161.673 124.514 160.239 125.351 158.841C126.187 157.442 127.03 156.073 127.884 154.733C128.739 153.393 129.599 152.088 130.471 150.812C132.209 148.261 133.988 145.838 135.79 143.55C137.434 143.609 139.073 143.498 140.688 143.222C141.226 143.129 141.759 143.018 142.291 142.889C144.415 142.374 146.481 141.566 148.424 140.472C150.074 139.548 151.595 138.436 152.959 137.178C153.503 136.674 154.029 136.148 154.521 135.592C156.756 133.111 158.465 130.173 159.518 126.932C163.574 114.462 156.862 101.026 144.532 96.737L144.538 96.7253ZM152.847 124.749C150.091 133.228 141.326 138.067 132.8 136.095C119.534 151.836 99.8784 183.769 87.4144 243.391L5.84832 219.879C7.27026 216.93 39.4192 150.871 85.9632 102.946C91.1243 97.6323 97.9532 91.7807 105.496 93.0388C103.799 95.4965 103.021 97.8839 103.021 97.8839C105.508 94.8938 107.14 93.5479 107.965 92.9803C110.967 91.0551 114.771 90.429 118.428 91.6168C120.277 92.2196 121.881 93.2202 123.185 94.4959C119.827 96.0875 117.299 99.7857 117.299 99.7857C121.986 96.5147 124.496 95.9939 124.496 95.9939C126.954 95.1337 129.692 95.0342 132.361 95.9002C135.012 96.7604 137.159 98.4399 138.64 100.564C133.976 101.541 129.552 105.725 129.552 105.725C135.69 101.576 139.845 102.729 139.845 102.729C140.524 102.864 141.209 103.033 141.881 103.25C150.84 106.164 155.744 115.79 152.83 124.749H152.847Z" fill="#786565"/>
</g>
<defs>
<radialGradient id="paint0_radial_970_4255" cx="0" cy="0" r="1" gradientUnits="userSpaceOnUse" gradientTransform="translate(264.959 102.394) rotate(58.8298) scale(178.633 170.064)">
<stop offset="0.213494" stop-color="white"/>
<stop offset="0.384406" stop-color="#939393"/>
<stop offset="0.551784" stop-color="#1B1B1B"/>
</radialGradient>
<radialGradient id="paint1_radial_970_4255" cx="0" cy="0" r="1" gradientUnits="userSpaceOnUse" gradientTransform="translate(124.442 102.394) rotate(121.17) scale(178.633 170.064)">
<stop offset="0.213494" stop-color="white"/>
<stop offset="0.384406" stop-color="#939393"/>
<stop offset="0.551784" stop-color="#1B1B1B"/>
</radialGradient>
</defs>
</svg>
