<svg width="390" height="422" viewBox="0 0 390 422" fill="none" xmlns="http://www.w3.org/2000/svg">
<mask id="mask0_1257_6046" style="mask-type:alpha" maskUnits="userSpaceOnUse" x="0" y="0" width="390" height="422">
<rect width="390" height="422" fill="#D9D9D9"/>
</mask>
<g mask="url(#mask0_1257_6046)">
<path d="M215.196 1H374C382.284 1 389 7.71572 389 16V423H1V58.9231C1 50.6388 7.71573 43.9231 16 43.9231H174.804C181.412 43.9231 187.422 40.0932 190.213 34.1031L201.6 9.66472C204.063 4.37926 209.365 1 215.196 1Z" fill="url(#paint0_linear_1257_6046)" stroke="#46977A" stroke-width="2"/>
<path d="M208.078 13.7748C209.555 10.6036 212.737 8.57609 216.235 8.57597L372.5 8.57062C377.47 8.57045 381.5 12.5999 381.5 17.5706V422.494L8.5 422.5V60.4995C8.5 55.5289 12.5294 51.4995 17.5 51.4995L176.48 51.4993C185.032 51.4992 192.809 46.543 196.421 38.791L208.078 13.7748Z" fill="url(#paint1_linear_1257_6046)"/>
<path d="M381.5 424.494L383.5 424.494V422.494V17.5706C383.5 11.4953 378.575 6.57041 372.5 6.57062L216.235 6.57597C211.959 6.57611 208.071 9.05422 206.265 12.9301L194.609 37.9463C191.325 44.9936 184.255 49.4992 176.48 49.4993L17.5 49.4995C11.4249 49.4995 6.5 54.4244 6.5 60.4995V422.5V424.5L8.50003 424.5L381.5 424.494Z" stroke="#F1FFB9" stroke-opacity="0.5" stroke-width="4"/>
<path d="M261.014 34.9189C260.79 34.9189 260.613 34.846 260.48 34.7002C260.353 34.5544 260.289 34.3584 260.289 34.1123V32.1436H260.098C259.464 32.1436 258.904 32.0091 258.416 31.7402C257.933 31.4714 257.552 31.0863 257.274 30.585C257.001 30.0837 256.864 29.4867 256.864 28.7939V23.3799C256.864 22.6872 256.999 22.0902 257.268 21.5889C257.536 21.0876 257.919 20.7025 258.416 20.4336C258.917 20.1602 259.517 20.0234 260.214 20.0234H268.786C269.483 20.0234 270.083 20.1602 270.584 20.4336C271.085 20.7025 271.468 21.0876 271.732 21.5889C272.001 22.0902 272.136 22.6872 272.136 23.3799V28.7939C272.136 29.4867 272.001 30.0837 271.732 30.585C271.468 31.0863 271.085 31.4714 270.584 31.7402C270.083 32.0091 269.483 32.1436 268.786 32.1436H264.541L261.957 34.4473C261.766 34.6159 261.599 34.7367 261.458 34.8096C261.321 34.8825 261.173 34.9189 261.014 34.9189ZM261.096 27.2285C261.415 27.2285 261.684 27.1169 261.902 26.8936C262.126 26.6702 262.237 26.4014 262.237 26.0869C262.237 25.7679 262.126 25.4967 261.902 25.2734C261.684 25.0501 261.415 24.9385 261.096 24.9385C260.777 24.9385 260.506 25.0501 260.282 25.2734C260.059 25.4967 259.947 25.7679 259.947 26.0869C259.947 26.4014 260.059 26.6702 260.282 26.8936C260.506 27.1169 260.777 27.2285 261.096 27.2285ZM264.514 27.2285C264.833 27.2285 265.104 27.1169 265.327 26.8936C265.55 26.6702 265.662 26.4014 265.662 26.0869C265.662 25.7679 265.55 25.4967 265.327 25.2734C265.104 25.0501 264.833 24.9385 264.514 24.9385C264.199 24.9385 263.928 25.0501 263.7 25.2734C263.477 25.4967 263.365 25.7679 263.365 26.0869C263.365 26.4014 263.477 26.6702 263.7 26.8936C263.928 27.1169 264.199 27.2285 264.514 27.2285ZM267.932 27.2285C268.251 27.2285 268.522 27.1169 268.745 26.8936C268.968 26.6702 269.08 26.4014 269.08 26.0869C269.08 25.7679 268.968 25.4967 268.745 25.2734C268.522 25.0501 268.251 24.9385 267.932 24.9385C267.613 24.9385 267.341 25.0501 267.118 25.2734C266.899 25.4967 266.79 25.7679 266.79 26.0869C266.79 26.4014 266.899 26.6702 267.118 26.8936C267.341 27.1169 267.613 27.2285 267.932 27.2285Z" fill="#62CDAF"/>
<path d="M294.297 22.544H292.377V23.904H294.297C294.441 23.904 294.505 23.984 294.505 24.128V25.472C294.505 25.6 294.441 25.664 294.297 25.664H292.377V26.944C292.377 27.072 292.312 27.152 292.153 27.152H290.521C290.392 27.152 290.329 27.072 290.329 26.944V19.488C290.329 19.36 290.392 19.28 290.521 19.28H292.153C292.312 19.28 292.377 19.36 292.377 19.488V20.752H294.297C294.441 20.752 294.505 20.832 294.505 20.976V22.32C294.505 22.464 294.441 22.544 294.297 22.544ZM289.097 25.76C287.849 26.08 286.009 26.256 284.408 26.256H281.752C281.608 26.256 281.544 26.176 281.544 26.048V20.144C281.544 20.016 281.608 19.936 281.736 19.936H283.368C283.513 19.936 283.576 20.016 283.576 20.144V24.48H284.728C285.929 24.48 287.545 24.368 288.825 24.08C288.953 24.048 289.049 24.112 289.081 24.256L289.273 25.504C289.305 25.632 289.257 25.712 289.097 25.76ZM287.705 27.536C290.873 27.536 292.521 28.784 292.521 30.512C292.521 32.208 290.873 33.488 287.705 33.488C284.521 33.488 282.872 32.224 282.872 30.512C282.872 28.784 284.521 27.536 287.705 27.536ZM287.705 31.776C289.705 31.776 290.489 31.184 290.489 30.512C290.489 29.84 289.705 29.248 287.705 29.248C285.705 29.248 284.905 29.84 284.905 30.512C284.905 31.184 285.705 31.776 287.705 31.776ZM296.342 27.504L295.734 26.224C295.686 26.112 295.718 26.016 295.846 25.968C298.534 25.04 300.47 23.248 300.47 21.68V20.464C300.47 20.336 300.534 20.272 300.662 20.272H302.326C302.47 20.272 302.534 20.336 302.534 20.464V21.68C302.534 23.248 304.454 25.04 307.142 25.968C307.27 26.016 307.302 26.112 307.254 26.224L306.662 27.504C306.614 27.616 306.518 27.664 306.39 27.632C304.15 26.944 302.342 25.632 301.494 24.416C300.646 25.632 298.838 26.944 296.598 27.632C296.47 27.664 296.39 27.616 296.342 27.504ZM302.534 30.192H308.054C308.198 30.192 308.262 30.272 308.262 30.4V31.808C308.262 31.92 308.198 32 308.054 32H294.934C294.806 32 294.742 31.92 294.742 31.808V30.4C294.742 30.272 294.806 30.192 294.934 30.192H300.486V27.376C300.486 27.248 300.55 27.184 300.678 27.184H302.31C302.47 27.184 302.534 27.248 302.534 27.376V30.192ZM320.771 33.344H319.155C319.011 33.344 318.947 33.28 318.947 33.152V19.488C318.947 19.36 319.011 19.28 319.155 19.28H320.771C320.931 19.28 320.995 19.36 320.995 19.488V33.152C320.995 33.28 320.931 33.344 320.771 33.344ZM312.515 30.112H309.747C309.603 30.112 309.555 30.032 309.555 29.904V24.704C309.555 24.576 309.603 24.496 309.747 24.496H314.659V22.24H309.715C309.587 22.24 309.523 22.176 309.523 22.032V20.752C309.523 20.64 309.587 20.56 309.715 20.56H316.483C316.611 20.56 316.675 20.64 316.675 20.752V25.888C316.675 26.016 316.595 26.096 316.467 26.096H311.571V28.416H312.819C314.051 28.416 315.827 28.288 317.235 27.968C317.363 27.952 317.459 28 317.491 28.16L317.699 29.424C317.715 29.536 317.683 29.584 317.539 29.616C316.115 29.92 314.435 30.112 312.515 30.112Z" fill="white"/>
<path d="M292.377 22.544V20.544H290.377V22.544H292.377ZM292.377 23.904H290.377V25.904H292.377V23.904ZM292.377 25.664V23.664H290.377V25.664H292.377ZM292.377 20.752H290.377V22.752H292.377V20.752ZM289.097 25.76L289.593 27.6973L289.632 27.6873L289.671 27.6757L289.097 25.76ZM283.576 24.48H281.576V26.48H283.576V24.48ZM288.825 24.08L289.264 26.0312L289.287 26.026L289.31 26.0203L288.825 24.08ZM289.081 24.256L291.057 23.9519L291.047 23.8866L291.033 23.8221L289.081 24.256ZM289.273 25.504L287.296 25.8081L287.31 25.8994L287.332 25.9891L289.273 25.504ZM294.297 20.544H292.377V24.544H294.297V20.544ZM290.377 22.544V23.904H294.377V22.544H290.377ZM292.377 25.904H294.297V21.904H292.377V25.904ZM294.297 25.904C294.002 25.904 293.426 25.8124 292.964 25.2956C292.54 24.8215 292.505 24.3098 292.505 24.128H296.505C296.505 23.8022 296.437 23.1785 295.945 22.6284C295.415 22.0356 294.735 21.904 294.297 21.904V25.904ZM292.505 24.128V25.472H296.505V24.128H292.505ZM292.505 25.472C292.505 25.2271 292.568 24.6446 293.084 24.1596C293.574 23.6985 294.117 23.664 294.297 23.664V27.664C294.62 27.664 295.267 27.5975 295.825 27.0724C296.409 26.5234 296.505 25.8449 296.505 25.472H292.505ZM294.297 23.664H292.377V27.664H294.297V23.664ZM290.377 25.664V26.944H294.377V25.664H290.377ZM290.377 26.944C290.377 26.6997 290.439 26.1531 290.91 25.6818C291.382 25.2104 291.924 25.152 292.153 25.152V29.152C292.541 29.152 293.195 29.0536 293.739 28.5102C294.282 27.9669 294.377 27.3163 294.377 26.944H290.377ZM292.153 25.152H290.521V29.152H292.153V25.152ZM290.521 25.152C290.889 25.152 291.441 25.2826 291.871 25.7673C292.268 26.2139 292.329 26.7005 292.329 26.944H288.329C288.329 27.3155 288.421 27.9061 288.882 28.4247C289.376 28.9814 290.024 29.152 290.521 29.152V25.152ZM292.329 26.944V19.488H288.329V26.944H292.329ZM292.329 19.488C292.329 19.7315 292.268 20.2181 291.871 20.6647C291.441 21.1494 290.889 21.28 290.521 21.28V17.28C290.024 17.28 289.376 17.4506 288.882 18.0073C288.421 18.5259 288.329 19.1165 288.329 19.488H292.329ZM290.521 21.28H292.153V17.28H290.521V21.28ZM292.153 21.28C291.924 21.28 291.382 21.2216 290.91 20.7502C290.439 20.2789 290.377 19.7323 290.377 19.488H294.377C294.377 19.1157 294.282 18.4651 293.739 17.9218C293.195 17.3784 292.541 17.28 292.153 17.28V21.28ZM290.377 19.488V20.752H294.377V19.488H290.377ZM292.377 22.752H294.297V18.752H292.377V22.752ZM294.297 22.752C294.002 22.752 293.426 22.6604 292.964 22.1436C292.54 21.6695 292.505 21.1578 292.505 20.976H296.505C296.505 20.6502 296.437 20.0265 295.945 19.4764C295.415 18.8836 294.735 18.752 294.297 18.752V22.752ZM292.505 20.976V22.32H296.505V20.976H292.505ZM292.505 22.32C292.505 22.1382 292.54 21.6265 292.964 21.1524C293.426 20.6356 294.002 20.544 294.297 20.544V24.544C294.735 24.544 295.415 24.4124 295.945 23.8196C296.437 23.2695 296.505 22.6458 296.505 22.32H292.505ZM288.6 23.8227C287.568 24.0871 285.908 24.256 284.408 24.256V28.256C286.109 28.256 288.129 28.0729 289.593 27.6973L288.6 23.8227ZM284.408 24.256H281.752V28.256H284.408V24.256ZM281.752 24.256C282.045 24.256 282.594 24.3454 283.049 24.8268C283.484 25.2873 283.544 25.8047 283.544 26.048H279.544C279.544 26.4193 279.637 27.0407 280.14 27.5732C280.663 28.1266 281.316 28.256 281.752 28.256V24.256ZM283.544 26.048V20.144H279.544V26.048H283.544ZM283.544 20.144C283.544 20.3875 283.484 20.8741 283.087 21.3207C282.657 21.8054 282.105 21.936 281.736 21.936V17.936C281.24 17.936 280.592 18.1066 280.098 18.6633C279.637 19.1819 279.544 19.7725 279.544 20.144H283.544ZM281.736 21.936H283.368V17.936H281.736V21.936ZM283.368 21.936C283.076 21.936 282.527 21.8466 282.072 21.3652C281.637 20.9047 281.576 20.3873 281.576 20.144H285.576C285.576 19.7727 285.484 19.1513 284.981 18.6188C284.458 18.0654 283.805 17.936 283.368 17.936V21.936ZM281.576 20.144V24.48H285.576V20.144H281.576ZM283.576 26.48H284.728V22.48H283.576V26.48ZM284.728 26.48C286.014 26.48 287.789 26.363 289.264 26.0312L288.385 22.1288C287.3 22.373 285.843 22.48 284.728 22.48V26.48ZM289.31 26.0203C288.942 26.1122 288.384 26.1107 287.862 25.7545C287.367 25.4172 287.187 24.9539 287.128 24.6899L291.033 23.8221C290.942 23.4141 290.698 22.8468 290.115 22.4495C289.505 22.0333 288.835 22.0158 288.339 22.1397L289.31 26.0203ZM287.104 24.5601L287.296 25.8081L291.249 25.1999L291.057 23.9519L287.104 24.5601ZM287.332 25.9891C287.27 25.7415 287.195 25.149 287.592 24.5526C287.943 24.027 288.42 23.8747 288.522 23.8443L289.671 27.6757C289.933 27.5973 290.514 27.381 290.921 26.7714C291.374 26.091 291.307 25.3945 291.213 25.0189L287.332 25.9891ZM287.705 29.536C289.063 29.536 289.838 29.8093 290.206 30.0502C290.5 30.2419 290.521 30.3814 290.521 30.512H294.521C294.521 28.9146 293.717 27.5661 292.395 26.7018C291.147 25.8867 289.514 25.536 287.705 25.536V29.536ZM290.521 30.512C290.521 30.6188 290.506 30.7643 290.201 30.9656C289.829 31.2104 289.054 31.488 287.705 31.488V35.488C289.523 35.488 291.156 35.1256 292.4 34.3064C293.711 33.4437 294.521 32.1012 294.521 30.512H290.521ZM287.705 31.488C286.341 31.488 285.562 31.2118 285.19 30.9684C284.889 30.7719 284.872 30.63 284.872 30.512H280.872C280.872 32.106 281.68 33.4521 282.999 34.3156C284.247 35.1322 285.884 35.488 287.705 35.488V31.488ZM284.872 30.512C284.872 30.3821 284.893 30.2432 285.187 30.0515C285.557 29.81 286.336 29.536 287.705 29.536V25.536C285.889 25.536 284.252 25.886 283.002 26.7005C281.676 27.5648 280.872 28.9139 280.872 30.512H284.872ZM287.705 33.776C288.855 33.776 289.918 33.6133 290.769 33.1703C291.691 32.691 292.489 31.7831 292.489 30.512H288.489C288.489 30.2699 288.566 30.0333 288.695 29.8479C288.754 29.7633 288.813 29.7056 288.855 29.6701C288.877 29.6524 288.894 29.6403 288.906 29.6326C288.911 29.6288 288.916 29.6261 288.919 29.6243C288.922 29.6226 288.924 29.6217 288.924 29.6217C288.924 29.6217 288.922 29.6224 288.919 29.6239C288.916 29.6253 288.911 29.6273 288.905 29.6299C288.892 29.6351 288.874 29.6422 288.848 29.6505C288.796 29.6673 288.721 29.6875 288.617 29.7067C288.408 29.7457 288.11 29.776 287.705 29.776V33.776ZM292.489 30.512C292.489 29.2409 291.691 28.333 290.769 27.8537C289.918 27.4107 288.855 27.248 287.705 27.248V31.248C288.11 31.248 288.408 31.2783 288.617 31.3173C288.721 31.3365 288.796 31.3567 288.848 31.3735C288.874 31.3818 288.892 31.3889 288.905 31.3941C288.911 31.3967 288.916 31.3987 288.919 31.4001C288.922 31.4016 288.924 31.4023 288.924 31.4023C288.924 31.4023 288.922 31.4014 288.919 31.3997C288.916 31.3979 288.911 31.3952 288.906 31.3914C288.894 31.3837 288.877 31.3716 288.855 31.3539C288.813 31.3184 288.754 31.2607 288.695 31.1761C288.566 30.9907 288.489 30.7541 288.489 30.512H292.489ZM287.705 27.248C286.553 27.248 285.49 27.4111 284.638 27.8503C283.725 28.3213 282.905 29.2245 282.905 30.512H286.905C286.905 30.7632 286.823 31.0032 286.693 31.187C286.574 31.3552 286.462 31.4102 286.471 31.4057C286.481 31.4005 286.572 31.3575 286.788 31.3175C286.999 31.2783 287.299 31.248 287.705 31.248V27.248ZM282.905 30.512C282.905 31.7995 283.725 32.7027 284.638 33.1737C285.49 33.6129 286.553 33.776 287.705 33.776V29.776C287.299 29.776 286.999 29.7457 286.788 29.7065C286.572 29.6665 286.481 29.6235 286.471 29.6183C286.462 29.6138 286.574 29.6688 286.693 29.837C286.823 30.0208 286.905 30.2608 286.905 30.512H282.905ZM296.342 27.504L298.18 26.7162L298.165 26.6807L298.148 26.6459L296.342 27.504ZM295.734 26.224L293.895 27.0118L293.91 27.0473L293.927 27.0821L295.734 26.224ZM295.846 25.968L295.193 24.0775L295.168 24.0861L295.143 24.0953L295.846 25.968ZM307.142 25.968L307.844 24.0953L307.819 24.0861L307.794 24.0775L307.142 25.968ZM307.254 26.224L309.069 27.0636L309.081 27.0379L309.092 27.0118L307.254 26.224ZM306.662 27.504L304.846 26.6644L304.834 26.6901L304.823 26.7162L306.662 27.504ZM306.39 27.632L305.802 29.5439L305.853 29.5594L305.904 29.5723L306.39 27.632ZM301.494 24.416L303.134 23.272L301.494 20.9196L299.853 23.272L301.494 24.416ZM296.598 27.632L297.083 29.5723L297.134 29.5594L297.185 29.5439L296.598 27.632ZM302.534 30.192H300.534V32.192H302.534V30.192ZM300.486 30.192V32.192H302.486V30.192H300.486ZM298.148 26.6459L297.54 25.3659L293.927 27.0821L294.535 28.3621L298.148 26.6459ZM297.572 25.4362C297.685 25.7012 297.821 26.2278 297.575 26.8293C297.322 27.4465 296.837 27.7322 296.548 27.8407L295.143 24.0953C294.726 24.2518 294.161 24.6095 293.872 25.3147C293.59 26.0042 293.734 26.6348 293.895 27.0118L297.572 25.4362ZM296.498 27.8585C298.061 27.319 299.47 26.5088 300.525 25.5309C301.53 24.5997 302.47 23.266 302.47 21.68H298.47C298.47 21.662 298.441 22.0083 297.806 22.5971C297.221 23.1392 296.318 23.689 295.193 24.0775L296.498 27.8585ZM302.47 21.68V20.464H298.47V21.68H302.47ZM302.47 20.464C302.47 20.7083 302.407 21.2589 301.932 21.7342C301.456 22.2096 300.906 22.272 300.662 22.272V18.272C300.289 18.272 299.643 18.3664 299.103 18.9058C298.564 19.4451 298.47 20.0917 298.47 20.464H302.47ZM300.662 22.272H302.326V18.272H300.662V22.272ZM302.326 22.272C302.146 22.272 301.603 22.2375 301.113 21.7764C300.597 21.2914 300.534 20.7089 300.534 20.464H304.534C304.534 20.0911 304.438 19.4126 303.854 18.8636C303.296 18.3385 302.649 18.272 302.326 18.272V22.272ZM300.534 20.464V21.68H304.534V20.464H300.534ZM300.534 21.68C300.534 23.2604 301.463 24.5931 302.466 25.5275C303.518 26.5072 304.925 27.3185 306.489 27.8585L307.794 24.0775C306.67 23.6895 305.773 23.1408 305.193 22.6005C304.564 22.0149 304.534 21.6676 304.534 21.68H300.534ZM306.439 27.8407C306.15 27.7322 305.665 27.4465 305.412 26.8293C305.166 26.2278 305.302 25.7012 305.415 25.4362L309.092 27.0118C309.253 26.6348 309.397 26.0042 309.115 25.3147C308.826 24.6095 308.261 24.2518 307.844 24.0953L306.439 27.8407ZM305.438 25.3844L304.846 26.6644L308.477 28.3436L309.069 27.0636L305.438 25.3844ZM304.823 26.7162C304.952 26.4155 305.221 26.0435 305.693 25.8177C306.157 25.5954 306.596 25.622 306.875 25.6917L305.904 29.5723C306.311 29.674 306.862 29.6926 307.418 29.4263C307.982 29.1565 308.323 28.7045 308.5 28.2918L304.823 26.7162ZM306.977 25.7201C305.062 25.132 303.672 24.0429 303.134 23.272L299.853 25.56C301.011 27.2211 303.237 28.756 305.802 29.5439L306.977 25.7201ZM299.853 23.272C299.315 24.0429 297.925 25.132 296.01 25.7201L297.185 29.5439C299.75 28.756 301.976 27.2211 303.134 25.56L299.853 23.272ZM296.112 25.6917C296.37 25.6274 296.852 25.5804 297.368 25.8503C297.867 26.1119 298.093 26.5127 298.18 26.7162L294.503 28.2918C294.638 28.6073 294.928 29.0881 295.511 29.3937C296.111 29.7076 296.697 29.6686 297.083 29.5723L296.112 25.6917ZM302.534 32.192H308.054V28.192H302.534V32.192ZM308.054 32.192C307.761 32.192 307.212 32.1026 306.757 31.6212C306.322 31.1607 306.262 30.6433 306.262 30.4H310.262C310.262 30.0287 310.169 29.4073 309.666 28.8748C309.143 28.3214 308.49 28.192 308.054 28.192V32.192ZM306.262 30.4V31.808H310.262V30.4H306.262ZM306.262 31.808C306.262 31.4921 306.357 30.9718 306.797 30.5318C307.241 30.0879 307.761 30 308.054 30V34C308.49 34 309.114 33.8721 309.626 33.3602C310.134 32.8522 310.262 32.2359 310.262 31.808H306.262ZM308.054 30H294.934V34H308.054V30ZM294.934 30C295.299 30 295.824 30.1271 296.246 30.5753C296.649 31.003 296.742 31.4946 296.742 31.808H292.742C292.742 32.2334 292.866 32.821 293.333 33.3167C293.819 33.8329 294.44 34 294.934 34V30ZM296.742 31.808V30.4H292.742V31.808H296.742ZM296.742 30.4C296.742 30.6435 296.681 31.1301 296.284 31.5767C295.854 32.0614 295.302 32.192 294.934 32.192V28.192C294.437 28.192 293.789 28.3626 293.295 28.9193C292.834 29.4379 292.742 30.0285 292.742 30.4H296.742ZM294.934 32.192H300.486V28.192H294.934V32.192ZM302.486 30.192V27.376H298.486V30.192H302.486ZM302.486 27.376C302.486 27.6203 302.423 28.1709 301.948 28.6462C301.472 29.1216 300.922 29.184 300.678 29.184V25.184C300.305 25.184 299.659 25.2784 299.119 25.8178C298.58 26.3571 298.486 27.0037 298.486 27.376H302.486ZM300.678 29.184H302.31V25.184H300.678V29.184ZM302.31 29.184C302.185 29.184 301.651 29.1699 301.153 28.7268C300.6 28.2352 300.534 27.623 300.534 27.376H304.534C304.534 27.001 304.435 26.2928 303.81 25.7372C303.24 25.2301 302.594 25.184 302.31 25.184V29.184ZM300.534 27.376V30.192H304.534V27.376H300.534ZM314.659 24.496V26.496H316.659V24.496H314.659ZM314.659 22.24H316.659V20.24H314.659V22.24ZM311.571 26.096V24.096H309.571V26.096H311.571ZM311.571 28.416H309.571V30.416H311.571V28.416ZM317.235 27.968L316.986 25.9834L316.888 25.9957L316.791 26.0177L317.235 27.968ZM317.491 28.16L319.464 27.8353L319.458 27.8014L319.452 27.7678L317.491 28.16ZM317.699 29.424L319.678 29.1412L319.675 29.1202L319.672 29.0993L317.699 29.424ZM317.539 29.616L317.956 31.5719L317.964 31.5702L317.972 31.5684L317.539 29.616ZM320.771 31.344H319.155V35.344H320.771V31.344ZM319.155 31.344C319.334 31.344 319.877 31.3785 320.367 31.8396C320.883 32.3246 320.947 32.9071 320.947 33.152H316.947C316.947 33.5249 317.042 34.2034 317.626 34.7524C318.184 35.2775 318.831 35.344 319.155 35.344V31.344ZM320.947 33.152V19.488H316.947V33.152H320.947ZM320.947 19.488C320.947 19.7313 320.886 20.2487 320.451 20.7092C319.996 21.1906 319.447 21.28 319.155 21.28V17.28C318.718 17.28 318.065 17.4094 317.542 17.9627C317.039 18.4953 316.947 19.1167 316.947 19.488H320.947ZM319.155 21.28H320.771V17.28H319.155V21.28ZM320.771 21.28C320.542 21.28 320 21.2216 319.528 20.7502C319.057 20.2789 318.995 19.7323 318.995 19.488H322.995C322.995 19.1157 322.9 18.4651 322.357 17.9218C321.813 17.3784 321.159 17.28 320.771 17.28V21.28ZM318.995 19.488V33.152H322.995V19.488H318.995ZM318.995 33.152C318.995 32.905 319.061 32.2928 319.614 31.8012C320.112 31.3581 320.646 31.344 320.771 31.344V35.344C321.055 35.344 321.701 35.2979 322.271 34.7908C322.896 34.2352 322.995 33.527 322.995 33.152H318.995ZM312.515 28.112H309.747V32.112H312.515V28.112ZM309.747 28.112C310.042 28.112 310.659 28.2063 311.133 28.7756C311.543 29.2682 311.555 29.7818 311.555 29.904H307.555C307.555 30.1542 307.59 30.7718 308.06 31.3364C308.594 31.9777 309.307 32.112 309.747 32.112V28.112ZM311.555 29.904V24.704H307.555V29.904H311.555ZM311.555 24.704C311.555 24.8262 311.543 25.3398 311.133 25.8324C310.659 26.4017 310.042 26.496 309.747 26.496V22.496C309.307 22.496 308.594 22.6303 308.06 23.2716C307.59 23.8362 307.555 24.4538 307.555 24.704H311.555ZM309.747 26.496H314.659V22.496H309.747V26.496ZM316.659 24.496V22.24H312.659V24.496H316.659ZM314.659 20.24H309.715V24.24H314.659V20.24ZM309.715 20.24C309.959 20.24 310.542 20.3039 311.027 20.8193C311.488 21.3092 311.523 21.8529 311.523 22.032H307.523C307.523 22.3551 307.589 23.0028 308.114 23.5607C308.663 24.1441 309.342 24.24 309.715 24.24V20.24ZM311.523 22.032V20.752H307.523V22.032H311.523ZM311.523 20.752C311.523 21.0654 311.43 21.557 311.027 21.9847C310.605 22.4329 310.08 22.56 309.715 22.56V18.56C309.221 18.56 308.6 18.7271 308.114 19.2433C307.647 19.739 307.523 20.3266 307.523 20.752H311.523ZM309.715 22.56H316.483V18.56H309.715V22.56ZM316.483 22.56C316.117 22.56 315.592 22.4329 315.17 21.9847C314.767 21.557 314.675 21.0654 314.675 20.752H318.675C318.675 20.3266 318.55 19.739 318.083 19.2433C317.597 18.7271 316.976 18.56 316.483 18.56V22.56ZM314.675 20.752V25.888H318.675V20.752H314.675ZM314.675 25.888C314.675 25.5302 314.795 25.0353 315.204 24.6258C315.614 24.2163 316.109 24.096 316.467 24.096V28.096C316.952 28.096 317.551 27.9357 318.033 27.4542C318.514 26.9727 318.675 26.3738 318.675 25.888H314.675ZM316.467 24.096H311.571V28.096H316.467V24.096ZM309.571 26.096V28.416H313.571V26.096H309.571ZM311.571 30.416H312.819V26.416H311.571V30.416ZM312.819 30.416C314.144 30.416 316.079 30.2817 317.678 29.9183L316.791 26.0177C315.574 26.2943 313.957 26.416 312.819 26.416V30.416ZM317.483 29.9526C317.266 29.9796 316.772 29.9915 316.272 29.6505C315.752 29.296 315.58 28.8044 315.529 28.5522L319.452 27.7678C319.369 27.3556 319.133 26.76 318.525 26.3455C317.937 25.9445 317.331 25.9404 316.986 25.9834L317.483 29.9526ZM315.517 28.4847L315.725 29.7487L319.672 29.0993L319.464 27.8353L315.517 28.4847ZM315.719 29.7068C315.706 29.6188 315.605 28.9402 316.117 28.3006C316.348 28.0111 316.61 27.8555 316.78 27.7764C316.94 27.7015 317.067 27.6721 317.105 27.6636L317.972 31.5684C318.102 31.5395 318.756 31.4049 319.24 30.7994C319.8 30.0998 319.707 29.3412 319.678 29.1412L315.719 29.7068ZM317.121 27.6601C315.842 27.9332 314.302 28.112 312.515 28.112V32.112C314.567 32.112 316.387 31.9068 317.956 31.5719L317.121 27.6601Z" fill="#62CDAF"/>
</g>
<mask id="mask1_1257_6046" style="mask-type:alpha" maskUnits="userSpaceOnUse" x="0" y="0" width="390" height="422">
<rect width="390" height="422" fill="#D9D9D9"/>
</mask>
<g mask="url(#mask1_1257_6046)">
<path d="M174.804 1H16C7.71573 1 1 7.71572 1 16V423H389V58.9231C389 50.6388 382.284 43.9231 374 43.9231H215.196C208.588 43.9231 202.578 40.0932 199.787 34.1031L188.4 9.66472C185.937 4.37926 180.635 1 174.804 1Z" fill="url(#paint2_linear_1257_6046)" stroke="#46977A" stroke-width="2"/>
<path d="M181.922 13.7748C180.445 10.6036 177.263 8.57609 173.765 8.57597L17.5003 8.57062C12.5296 8.57045 8.5 12.5999 8.5 17.5706V422L381.5 422.005V60.4995C381.5 55.5289 377.471 51.4995 372.5 51.4995L213.52 51.4993C204.968 51.4992 197.191 46.543 193.579 38.791L181.922 13.7748Z" fill="url(#paint3_linear_1257_6046)"/>
<path d="M8.49997 424L6.5 423.999V422V17.5706C6.5 11.4953 11.4251 6.57041 17.5004 6.57062L173.765 6.57597C178.041 6.57611 181.929 9.05422 183.735 12.9301L195.391 37.9463C198.675 44.9936 205.745 49.4992 213.52 49.4993L372.5 49.4995C378.575 49.4995 383.5 54.4244 383.5 60.4995V422.005V424.005L381.5 424.005L8.49997 424Z" stroke="#F1FFB9" stroke-opacity="0.5" stroke-width="4"/>
<path d="M92.0408 27.362H89.8808V28.892H92.0408C92.2028 28.892 92.2748 28.982 92.2748 29.144V30.656C92.2748 30.8 92.2028 30.872 92.0408 30.872H89.8808V32.312C89.8808 32.456 89.8088 32.546 89.6288 32.546H87.7928C87.6488 32.546 87.5768 32.456 87.5768 32.312V23.924C87.5768 23.78 87.6488 23.69 87.7928 23.69H89.6288C89.8088 23.69 89.8808 23.78 89.8808 23.924V25.346H92.0408C92.2028 25.346 92.2748 25.436 92.2748 25.598V27.11C92.2748 27.272 92.2028 27.362 92.0408 27.362ZM86.1908 30.98C84.7868 31.34 82.7168 31.538 80.9168 31.538H77.9288C77.7668 31.538 77.6948 31.448 77.6948 31.304V24.662C77.6948 24.518 77.7668 24.428 77.9108 24.428H79.7468C79.9088 24.428 79.9808 24.518 79.9808 24.662V29.54H81.2768C82.6268 29.54 84.4448 29.414 85.8848 29.09C86.0288 29.054 86.1368 29.126 86.1728 29.288L86.3888 30.692C86.4248 30.836 86.3708 30.926 86.1908 30.98ZM84.6248 32.978C88.1888 32.978 90.0428 34.382 90.0428 36.326C90.0428 38.234 88.1888 39.674 84.6248 39.674C81.0428 39.674 79.1888 38.252 79.1888 36.326C79.1888 34.382 81.0428 32.978 84.6248 32.978ZM84.6248 37.748C86.8748 37.748 87.7568 37.082 87.7568 36.326C87.7568 35.57 86.8748 34.904 84.6248 34.904C82.3748 34.904 81.4748 35.57 81.4748 36.326C81.4748 37.082 82.3748 37.748 84.6248 37.748ZM107.751 27.362H105.591V28.892H107.751C107.913 28.892 107.985 28.982 107.985 29.144V30.656C107.985 30.8 107.913 30.872 107.751 30.872H105.591V32.312C105.591 32.456 105.519 32.546 105.339 32.546H103.503C103.359 32.546 103.287 32.456 103.287 32.312V23.924C103.287 23.78 103.359 23.69 103.503 23.69H105.339C105.519 23.69 105.591 23.78 105.591 23.924V25.346H107.751C107.913 25.346 107.985 25.436 107.985 25.598V27.11C107.985 27.272 107.913 27.362 107.751 27.362ZM101.901 30.98C100.497 31.34 98.4274 31.538 96.6274 31.538H93.6394C93.4774 31.538 93.4054 31.448 93.4054 31.304V24.662C93.4054 24.518 93.4774 24.428 93.6214 24.428H95.4574C95.6194 24.428 95.6914 24.518 95.6914 24.662V29.54H96.9874C98.3374 29.54 100.155 29.414 101.595 29.09C101.739 29.054 101.847 29.126 101.883 29.288L102.099 30.692C102.135 30.836 102.081 30.926 101.901 30.98ZM100.335 32.978C103.899 32.978 105.753 34.382 105.753 36.326C105.753 38.234 103.899 39.674 100.335 39.674C96.7534 39.674 94.8994 38.252 94.8994 36.326C94.8994 34.382 96.7534 32.978 100.335 32.978ZM100.335 37.748C102.585 37.748 103.467 37.082 103.467 36.326C103.467 35.57 102.585 34.904 100.335 34.904C98.0854 34.904 97.1854 35.57 97.1854 36.326C97.1854 37.082 98.0854 37.748 100.335 37.748ZM117.54 27.254H119.772V23.924C119.772 23.78 119.844 23.69 120.006 23.69H121.824C122.004 23.69 122.076 23.78 122.076 23.924V34.922C122.076 35.066 122.004 35.156 121.824 35.156H120.006C119.844 35.156 119.772 35.066 119.772 34.922V29.198H117.54C117.378 29.198 117.306 29.126 117.306 28.964V27.488C117.306 27.344 117.378 27.254 117.54 27.254ZM118.134 30.242L118.332 31.7C118.35 31.772 118.314 31.862 118.188 31.898C116.46 32.294 113.346 32.492 111.276 32.492H108.468C108.324 32.492 108.252 32.402 108.252 32.258V30.764C108.252 30.62 108.324 30.53 108.468 30.53H109.926V26.552H108.828C108.666 26.552 108.594 26.48 108.594 26.336V24.824C108.594 24.698 108.666 24.608 108.828 24.608H117.414C117.576 24.608 117.648 24.698 117.648 24.824V26.336C117.648 26.48 117.576 26.552 117.414 26.552H116.226V30.26C116.82 30.206 117.378 30.116 117.864 30.026C118.008 30.008 118.098 30.044 118.134 30.242ZM114.012 30.44V26.552H112.14V30.512C112.77 30.494 113.4 30.476 114.012 30.44ZM113.904 37.316H122.184C122.346 37.316 122.418 37.388 122.418 37.55V39.116C122.418 39.26 122.346 39.35 122.184 39.35H111.834C111.672 39.35 111.6 39.26 111.6 39.116V34.076C111.6 33.932 111.672 33.86 111.834 33.86H113.67C113.832 33.86 113.904 33.932 113.904 34.076V37.316ZM135.717 23.69H137.535C137.715 23.69 137.787 23.78 137.787 23.924V39.296C137.787 39.44 137.715 39.512 137.535 39.512H135.717C135.555 39.512 135.483 39.44 135.483 39.296V23.924C135.483 23.78 135.555 23.69 135.717 23.69ZM134.025 34.544C134.169 34.652 134.151 34.796 134.043 34.904L132.963 36.164C132.855 36.272 132.729 36.272 132.585 36.164C131.073 34.94 129.867 33.59 129.255 32.366C128.589 33.698 127.329 35.21 125.763 36.434C125.619 36.524 125.475 36.524 125.385 36.434L124.287 35.174C124.179 35.066 124.179 34.886 124.305 34.796C126.339 33.158 127.869 31.142 128.031 28.46H124.845C124.665 28.46 124.593 28.37 124.593 28.244V26.642C124.593 26.516 124.665 26.426 124.845 26.426H128.049V24.392C128.049 24.266 128.121 24.176 128.301 24.176H130.119C130.263 24.176 130.335 24.266 130.335 24.392V26.426H133.359C133.539 26.426 133.593 26.516 133.593 26.642V28.244C133.593 28.37 133.539 28.46 133.359 28.46H130.353C130.533 31.07 132.189 33.086 134.025 34.544Z" fill="white"/>
<path d="M89.8808 27.362V24.362H86.8808V27.362H89.8808ZM89.8808 28.892H86.8808V31.892H89.8808V28.892ZM89.8808 30.872V27.872H86.8808V30.872H89.8808ZM89.8808 25.346H86.8808V28.346H89.8808V25.346ZM86.1908 30.98L86.9359 33.886L86.9947 33.8709L87.0528 33.8535L86.1908 30.98ZM79.9808 29.54H76.9808V32.54H79.9808V29.54ZM85.8848 29.09L86.5433 32.0168L86.5779 32.009L86.6123 32.0004L85.8848 29.09ZM86.1728 29.288L89.1379 28.8318L89.1228 28.7339L89.1013 28.6372L86.1728 29.288ZM86.3888 30.692L83.4236 31.1482L83.4447 31.2852L83.4783 31.4196L86.3888 30.692ZM92.0408 24.362H89.8808V30.362H92.0408V24.362ZM86.8808 27.362V28.892H92.8808V27.362H86.8808ZM89.8808 31.892H92.0408V25.892H89.8808V31.892ZM92.0408 31.892C91.5726 31.892 90.6891 31.7471 89.9828 30.9576C89.3337 30.2322 89.2748 29.4438 89.2748 29.144H95.2748C95.2748 28.6822 95.1798 27.7678 94.4542 26.9569C93.6714 26.0819 92.6709 25.892 92.0408 25.892V31.892ZM89.2748 29.144V30.656H95.2748V29.144H89.2748ZM89.2748 30.656C89.2748 30.2646 89.3766 29.373 90.1624 28.6334C90.9101 27.9297 91.7451 27.872 92.0408 27.872V33.872C92.4984 33.872 93.4504 33.7783 94.2746 33.0026C95.1369 32.191 95.2748 31.1914 95.2748 30.656H89.2748ZM92.0408 27.872H89.8808V33.872H92.0408V27.872ZM86.8808 30.872V32.312H92.8808V30.872H86.8808ZM86.8808 32.312C86.8808 31.9216 86.9804 31.0822 87.7009 30.3617C88.4215 29.6411 89.2563 29.546 89.6288 29.546V35.546C90.1812 35.546 91.142 35.4059 91.9436 34.6043C92.7451 33.8028 92.8808 32.8464 92.8808 32.312H86.8808ZM89.6288 29.546H87.7928V35.546H89.6288V29.546ZM87.7928 29.546C88.3697 29.546 89.2148 29.7494 89.873 30.4899C90.4805 31.1734 90.5768 31.9228 90.5768 32.312H84.5768C84.5768 32.8452 84.709 33.7116 85.3885 34.4761C86.1187 35.2976 87.0718 35.546 87.7928 35.546V29.546ZM90.5768 32.312V23.924H84.5768V32.312H90.5768ZM90.5768 23.924C90.5768 24.3132 90.4805 25.0626 89.873 25.7461C89.2148 26.4866 88.3697 26.69 87.7928 26.69V20.69C87.0718 20.69 86.1187 20.9384 85.3885 21.7599C84.709 22.5244 84.5768 23.3908 84.5768 23.924H90.5768ZM87.7928 26.69H89.6288V20.69H87.7928V26.69ZM89.6288 26.69C89.2563 26.69 88.4215 26.5949 87.7009 25.8743C86.9804 25.1538 86.8808 24.3144 86.8808 23.924H92.8808C92.8808 23.3896 92.7451 22.4332 91.9436 21.6317C91.142 20.8301 90.1812 20.69 89.6288 20.69V26.69ZM86.8808 23.924V25.346H92.8808V23.924H86.8808ZM89.8808 28.346H92.0408V22.346H89.8808V28.346ZM92.0408 28.346C91.5726 28.346 90.6891 28.2011 89.9828 27.4116C89.3337 26.6862 89.2748 25.8978 89.2748 25.598H95.2748C95.2748 25.1362 95.1798 24.2218 94.4542 23.4109C93.6714 22.5359 92.6709 22.346 92.0408 22.346V28.346ZM89.2748 25.598V27.11H95.2748V25.598H89.2748ZM89.2748 27.11C89.2748 26.8102 89.3337 26.0218 89.9828 25.2964C90.6891 24.5069 91.5726 24.362 92.0408 24.362V30.362C92.6709 30.362 93.6714 30.1721 94.4542 29.2971C95.1798 28.4862 95.2748 27.5718 95.2748 27.11H89.2748ZM85.4456 28.074C84.3665 28.3507 82.5662 28.538 80.9168 28.538V34.538C82.8673 34.538 85.207 34.3293 86.9359 33.886L85.4456 28.074ZM80.9168 28.538H77.9288V34.538H80.9168V28.538ZM77.9288 28.538C78.395 28.538 79.2374 28.6796 79.932 29.4151C80.5973 30.1195 80.6948 30.915 80.6948 31.304H74.6948C74.6948 31.837 74.8282 32.7495 75.57 33.5349C76.3411 34.3514 77.3005 34.538 77.9288 34.538V28.538ZM80.6948 31.304V24.662H74.6948V31.304H80.6948ZM80.6948 24.662C80.6948 25.0512 80.5985 25.8006 79.991 26.4841C79.3328 27.2246 78.4877 27.428 77.9108 27.428V21.428C77.1898 21.428 76.2367 21.6764 75.5065 22.4979C74.827 23.2624 74.6948 24.1288 74.6948 24.662H80.6948ZM77.9108 27.428H79.7468V21.428H77.9108V27.428ZM79.7468 27.428C79.2805 27.428 78.4381 27.2864 77.7435 26.5509C77.0782 25.8465 76.9808 25.051 76.9808 24.662H82.9808C82.9808 24.129 82.8473 23.2165 82.1055 22.4311C81.3344 21.6146 80.375 21.428 79.7468 21.428V27.428ZM76.9808 24.662V29.54H82.9808V24.662H76.9808ZM79.9808 32.54H81.2768V26.54H79.9808V32.54ZM81.2768 32.54C82.7545 32.54 84.8117 32.4064 86.5433 32.0168L85.2262 26.1632C84.0778 26.4216 82.499 26.54 81.2768 26.54V32.54ZM86.6123 32.0004C86.037 32.1443 85.1794 32.139 84.3792 31.5934C83.6208 31.0763 83.3382 30.3618 83.2442 29.9388L89.1013 28.6372C88.9713 28.0522 88.6167 27.2207 87.7593 26.6361C86.8601 26.023 85.8765 25.9997 85.1572 26.1796L86.6123 32.0004ZM83.2076 29.7442L83.4236 31.1482L89.3539 30.2358L89.1379 28.8318L83.2076 29.7442ZM83.4783 31.4196C83.3795 31.0243 83.2677 30.1159 83.8746 29.2057C84.4107 28.4015 85.1467 28.1611 85.3287 28.1065L87.0528 33.8535C87.4148 33.7449 88.2678 33.4325 88.8669 32.5338C89.5368 31.5291 89.434 30.5037 89.2992 29.9644L83.4783 31.4196ZM84.6248 35.978C86.0689 35.978 86.7792 36.271 87.0292 36.4343C87.1351 36.5035 87.1227 36.5243 87.0873 36.4618C87.0715 36.4338 87.0585 36.4017 87.0505 36.3704C87.0426 36.3397 87.0428 36.3229 87.0428 36.326H93.0428C93.0428 34.2538 91.9924 32.5102 90.3113 31.4117C88.7433 30.387 86.7446 29.978 84.6248 29.978V35.978ZM87.0428 36.326C87.0428 36.3017 87.0529 36.2354 87.09 36.1703C87.1232 36.1119 87.131 36.1371 87.0205 36.2098C86.7658 36.3775 86.0545 36.674 84.6248 36.674V42.674C86.759 42.674 88.7567 42.2505 90.32 41.2212C91.9824 40.1266 93.0428 38.3918 93.0428 36.326H87.0428ZM84.6248 36.674C83.1763 36.674 82.4604 36.3783 82.2061 36.2119C82.0972 36.1406 82.1076 36.1177 82.1424 36.1789C82.158 36.2065 82.1714 36.2391 82.18 36.2721C82.184 36.2877 82.1863 36.3008 82.1875 36.3107C82.1881 36.3156 82.1884 36.3194 82.1886 36.322C82.1888 36.3247 82.1888 36.326 82.1888 36.326H76.1888C76.1888 38.396 77.2452 40.1362 78.9209 41.2326C80.4891 42.2587 82.4913 42.674 84.6248 42.674V36.674ZM82.1888 36.326C82.1888 36.3229 82.1889 36.3399 82.181 36.3709C82.1728 36.4025 82.1598 36.4349 82.1437 36.4632C82.1078 36.5263 82.0952 36.5057 82.2017 36.4362C82.4537 36.2719 83.1691 35.978 84.6248 35.978V29.978C82.4984 29.978 80.4958 30.3861 78.9253 31.4098C77.2402 32.5082 76.1888 34.2528 76.1888 36.326H82.1888ZM84.6248 40.748C85.9754 40.748 87.3089 40.5594 88.4189 39.982C89.6338 39.35 90.7568 38.1067 90.7568 36.326H84.7568C84.7568 35.8998 84.8907 35.4838 85.1242 35.1495C85.342 34.8376 85.5727 34.6993 85.6501 34.659C85.7247 34.6202 85.7011 34.648 85.5146 34.6827C85.3336 34.7164 85.0452 34.748 84.6248 34.748V40.748ZM90.7568 36.326C90.7568 34.5453 89.6338 33.302 88.4189 32.67C87.3089 32.0926 85.9754 31.904 84.6248 31.904V37.904C85.0452 37.904 85.3336 37.9356 85.5146 37.9693C85.7011 38.004 85.7247 38.0318 85.6501 37.993C85.5727 37.9527 85.342 37.8144 85.1242 37.5025C84.8907 37.1682 84.7568 36.7522 84.7568 36.326H90.7568ZM84.6248 31.904C83.2725 31.904 81.9404 32.0932 80.8313 32.665C79.6298 33.2844 78.4748 34.5207 78.4748 36.326H84.4748C84.4748 36.7657 84.3338 37.1869 84.0986 37.5189C83.8801 37.8274 83.6517 37.9614 83.5807 37.998C83.5113 38.0338 83.5401 38.0048 83.7298 37.9697C83.914 37.9356 84.2044 37.904 84.6248 37.904V31.904ZM78.4748 36.326C78.4748 38.1313 79.6298 39.3676 80.8313 39.987C81.9404 40.5588 83.2725 40.748 84.6248 40.748V34.748C84.2044 34.748 83.914 34.7164 83.7298 34.6823C83.5401 34.6472 83.5113 34.6182 83.5807 34.654C83.6517 34.6906 83.8801 34.8246 84.0986 35.1331C84.3338 35.4651 84.4748 35.8863 84.4748 36.326H78.4748ZM105.591 27.362V24.362H102.591V27.362H105.591ZM105.591 28.892H102.591V31.892H105.591V28.892ZM105.591 30.872V27.872H102.591V30.872H105.591ZM105.591 25.346H102.591V28.346H105.591V25.346ZM101.901 30.98L102.647 33.886L102.705 33.8709L102.763 33.8535L101.901 30.98ZM95.6914 29.54H92.6914V32.54H95.6914V29.54ZM101.595 29.09L102.254 32.0168L102.289 32.009L102.323 32.0004L101.595 29.09ZM101.883 29.288L104.848 28.8318L104.833 28.7339L104.812 28.6372L101.883 29.288ZM102.099 30.692L99.1343 31.1482L99.1553 31.2852L99.189 31.4196L102.099 30.692ZM107.751 24.362H105.591V30.362H107.751V24.362ZM102.591 27.362V28.892H108.591V27.362H102.591ZM105.591 31.892H107.751V25.892H105.591V31.892ZM107.751 31.892C107.283 31.892 106.4 31.7471 105.693 30.9576C105.044 30.2322 104.985 29.4438 104.985 29.144H110.985C110.985 28.6822 110.89 27.7678 110.165 26.9569C109.382 26.0819 108.382 25.892 107.751 25.892V31.892ZM104.985 29.144V30.656H110.985V29.144H104.985ZM104.985 30.656C104.985 30.2646 105.087 29.373 105.873 28.6334C106.621 27.9297 107.456 27.872 107.751 27.872V33.872C108.209 33.872 109.161 33.7783 109.985 33.0026C110.848 32.191 110.985 31.1914 110.985 30.656H104.985ZM107.751 27.872H105.591V33.872H107.751V27.872ZM102.591 30.872V32.312H108.591V30.872H102.591ZM102.591 32.312C102.591 31.9216 102.691 31.0822 103.412 30.3617C104.132 29.6411 104.967 29.546 105.339 29.546V35.546C105.892 35.546 106.853 35.4059 107.654 34.6043C108.456 33.8028 108.591 32.8464 108.591 32.312H102.591ZM105.339 29.546H103.503V35.546H105.339V29.546ZM103.503 29.546C104.08 29.546 104.925 29.7494 105.584 30.4899C106.191 31.1734 106.287 31.9228 106.287 32.312H100.287C100.287 32.8452 100.42 33.7116 101.099 34.4761C101.829 35.2976 102.782 35.546 103.503 35.546V29.546ZM106.287 32.312V23.924H100.287V32.312H106.287ZM106.287 23.924C106.287 24.3132 106.191 25.0626 105.584 25.7461C104.925 26.4866 104.08 26.69 103.503 26.69V20.69C102.782 20.69 101.829 20.9384 101.099 21.7599C100.42 22.5244 100.287 23.3908 100.287 23.924H106.287ZM103.503 26.69H105.339V20.69H103.503V26.69ZM105.339 26.69C104.967 26.69 104.132 26.5949 103.412 25.8743C102.691 25.1538 102.591 24.3144 102.591 23.924H108.591C108.591 23.3896 108.456 22.4332 107.654 21.6317C106.853 20.8301 105.892 20.69 105.339 20.69V26.69ZM102.591 23.924V25.346H108.591V23.924H102.591ZM105.591 28.346H107.751V22.346H105.591V28.346ZM107.751 28.346C107.283 28.346 106.4 28.2011 105.693 27.4116C105.044 26.6862 104.985 25.8978 104.985 25.598H110.985C110.985 25.1362 110.89 24.2218 110.165 23.4109C109.382 22.5359 108.382 22.346 107.751 22.346V28.346ZM104.985 25.598V27.11H110.985V25.598H104.985ZM104.985 27.11C104.985 26.8102 105.044 26.0218 105.693 25.2964C106.4 24.5069 107.283 24.362 107.751 24.362V30.362C108.382 30.362 109.382 30.1721 110.165 29.2971C110.89 28.4862 110.985 27.5718 110.985 27.11H104.985ZM101.156 28.074C100.077 28.3507 98.2768 28.538 96.6274 28.538V34.538C98.5779 34.538 100.918 34.3293 102.647 33.886L101.156 28.074ZM96.6274 28.538H93.6394V34.538H96.6274V28.538ZM93.6394 28.538C94.1057 28.538 94.948 28.6796 95.6427 29.4151C96.3079 30.1195 96.4054 30.915 96.4054 31.304H90.4054C90.4054 31.837 90.5388 32.7495 91.2806 33.5349C92.0518 34.3514 93.0111 34.538 93.6394 34.538V28.538ZM96.4054 31.304V24.662H90.4054V31.304H96.4054ZM96.4054 24.662C96.4054 25.0512 96.3091 25.8006 95.7016 26.4841C95.0434 27.2246 94.1983 27.428 93.6214 27.428V21.428C92.9004 21.428 91.9474 21.6764 91.2172 22.4979C90.5376 23.2624 90.4054 24.1288 90.4054 24.662H96.4054ZM93.6214 27.428H95.4574V21.428H93.6214V27.428ZM95.4574 27.428C94.9911 27.428 94.1488 27.2864 93.4541 26.5509C92.7888 25.8465 92.6914 25.051 92.6914 24.662H98.6914C98.6914 24.129 98.5579 23.2165 97.8162 22.4311C97.045 21.6146 96.0857 21.428 95.4574 21.428V27.428ZM92.6914 24.662V29.54H98.6914V24.662H92.6914ZM95.6914 32.54H96.9874V26.54H95.6914V32.54ZM96.9874 32.54C98.4652 32.54 100.522 32.4064 102.254 32.0168L100.937 26.1632C99.7885 26.4216 98.2096 26.54 96.9874 26.54V32.54ZM102.323 32.0004C101.748 32.1443 100.89 32.139 100.09 31.5934C99.3314 31.0763 99.0488 30.3618 98.9548 29.9388L104.812 28.6372C104.682 28.0522 104.327 27.2207 103.47 26.6361C102.571 26.023 101.587 25.9997 100.868 26.1796L102.323 32.0004ZM98.9183 29.7442L99.1343 31.1482L105.064 30.2358L104.848 28.8318L98.9183 29.7442ZM99.189 31.4196C99.0901 31.0243 98.9784 30.1159 99.5852 29.2057C100.121 28.4015 100.857 28.1611 101.039 28.1065L102.763 33.8535C103.125 33.7449 103.978 33.4325 104.578 32.5338C105.247 31.5291 105.145 30.5037 105.01 29.9644L99.189 31.4196ZM100.335 35.978C101.779 35.978 102.49 36.271 102.74 36.4343C102.846 36.5035 102.833 36.5243 102.798 36.4618C102.782 36.4338 102.769 36.4017 102.761 36.3704C102.753 36.3397 102.753 36.3229 102.753 36.326H108.753C108.753 34.2538 107.703 32.5102 106.022 31.4117C104.454 30.387 102.455 29.978 100.335 29.978V35.978ZM102.753 36.326C102.753 36.3017 102.764 36.2354 102.801 36.1703C102.834 36.1119 102.842 36.1371 102.731 36.2098C102.476 36.3775 101.765 36.674 100.335 36.674V42.674C102.47 42.674 104.467 42.2505 106.031 41.2212C107.693 40.1266 108.753 38.3918 108.753 36.326H102.753ZM100.335 36.674C98.8869 36.674 98.171 36.3783 97.9167 36.2119C97.8078 36.1406 97.8182 36.1177 97.853 36.1789C97.8687 36.2065 97.882 36.2391 97.8906 36.2721C97.8946 36.2877 97.8969 36.3008 97.8981 36.3107C97.8987 36.3156 97.8991 36.3194 97.8992 36.322C97.8994 36.3247 97.8994 36.326 97.8994 36.326H91.8994C91.8994 38.396 92.9558 40.1362 94.6315 41.2326C96.1998 42.2587 98.2019 42.674 100.335 42.674V36.674ZM97.8994 36.326C97.8994 36.3229 97.8995 36.3399 97.8916 36.3709C97.8835 36.4025 97.8704 36.4349 97.8543 36.4632C97.8185 36.5263 97.8058 36.5057 97.9124 36.4362C98.1643 36.2719 98.8797 35.978 100.335 35.978V29.978C98.209 29.978 96.2064 30.3861 94.6359 31.4098C92.9508 32.5082 91.8994 34.2528 91.8994 36.326H97.8994ZM100.335 40.748C101.686 40.748 103.019 40.5594 104.13 39.982C105.344 39.35 106.467 38.1067 106.467 36.326H100.467C100.467 35.8998 100.601 35.4838 100.835 35.1495C101.053 34.8376 101.283 34.6993 101.361 34.659C101.435 34.6202 101.412 34.648 101.225 34.6827C101.044 34.7164 100.756 34.748 100.335 34.748V40.748ZM106.467 36.326C106.467 34.5453 105.344 33.302 104.13 32.67C103.019 32.0926 101.686 31.904 100.335 31.904V37.904C100.756 37.904 101.044 37.9356 101.225 37.9693C101.412 38.004 101.435 38.0318 101.361 37.993C101.283 37.9527 101.053 37.8144 100.835 37.5025C100.601 37.1682 100.467 36.7522 100.467 36.326H106.467ZM100.335 31.904C98.9831 31.904 97.6511 32.0932 96.5419 32.665C95.3404 33.2844 94.1854 34.5207 94.1854 36.326H100.185C100.185 36.7657 100.044 37.1869 99.8092 37.5189C99.5907 37.8274 99.3624 37.9614 99.2913 37.998C99.222 38.0338 99.2507 38.0048 99.4405 37.9697C99.6246 37.9356 99.9151 37.904 100.335 37.904V31.904ZM94.1854 36.326C94.1854 38.1313 95.3404 39.3676 96.5419 39.987C97.6511 40.5588 98.9831 40.748 100.335 40.748V34.748C99.9151 34.748 99.6246 34.7164 99.4405 34.6823C99.2507 34.6472 99.222 34.6182 99.2913 34.654C99.3624 34.6906 99.5907 34.8246 99.8092 35.1331C100.044 35.4651 100.185 35.8863 100.185 36.326H94.1854ZM119.772 27.254V30.254H122.772V27.254H119.772ZM119.772 29.198H122.772V26.198H119.772V29.198ZM118.134 30.242L121.107 29.8383L121.098 29.7716L121.086 29.7054L118.134 30.242ZM118.332 31.7L115.359 32.1037L115.382 32.2674L115.422 32.4276L118.332 31.7ZM118.188 31.898L118.858 34.8222L118.936 34.8044L119.012 34.7826L118.188 31.898ZM109.926 30.53V33.53H112.926V30.53H109.926ZM109.926 26.552H112.926V23.552H109.926V26.552ZM116.226 26.552V23.552H113.226V26.552H116.226ZM116.226 30.26H113.226V33.5451L116.498 33.2477L116.226 30.26ZM117.864 30.026L117.492 27.0492L117.404 27.0601L117.318 27.0762L117.864 30.026ZM114.012 30.44L114.188 33.4348L117.012 33.2687V30.44H114.012ZM114.012 26.552H117.012V23.552H114.012V26.552ZM112.14 26.552V23.552H109.14V26.552H112.14ZM112.14 30.512H109.14V33.5989L112.226 33.5108L112.14 30.512ZM113.904 37.316H110.904V40.316H113.904V37.316ZM117.54 30.254H119.772V24.254H117.54V30.254ZM122.772 27.254V23.924H116.772V27.254H122.772ZM122.772 23.924C122.772 24.313 122.675 25.1085 122.009 25.8129C121.315 26.5484 120.472 26.69 120.006 26.69V20.69C119.378 20.69 118.418 20.8766 117.647 21.6931C116.905 22.4785 116.772 23.391 116.772 23.924H122.772ZM120.006 26.69H121.824V20.69H120.006V26.69ZM121.824 26.69C121.452 26.69 120.617 26.5949 119.896 25.8743C119.176 25.1538 119.076 24.3144 119.076 23.924H125.076C125.076 23.3896 124.94 22.4332 124.139 21.6317C123.337 20.8301 122.376 20.69 121.824 20.69V26.69ZM119.076 23.924V34.922H125.076V23.924H119.076ZM119.076 34.922C119.076 34.5316 119.176 33.6922 119.896 32.9717C120.617 32.2511 121.452 32.156 121.824 32.156V38.156C122.376 38.156 123.337 38.0159 124.139 37.2143C124.94 36.4128 125.076 35.4564 125.076 34.922H119.076ZM121.824 32.156H120.006V38.156H121.824V32.156ZM120.006 32.156C120.472 32.156 121.315 32.2976 122.009 33.0331C122.675 33.7375 122.772 34.533 122.772 34.922H116.772C116.772 35.455 116.905 36.3675 117.647 37.1529C118.418 37.9694 119.378 38.156 120.006 38.156V32.156ZM122.772 34.922V29.198H116.772V34.922H122.772ZM119.772 26.198H117.54V32.198H119.772V26.198ZM117.54 26.198C117.833 26.198 118.718 26.2552 119.484 27.0204C120.249 27.7857 120.306 28.6713 120.306 28.964H114.306C114.306 29.4187 114.399 30.4213 115.241 31.2631C116.083 32.1048 117.085 32.198 117.54 32.198V26.198ZM120.306 28.964V27.488H114.306V28.964H120.306ZM120.306 27.488C120.306 27.877 120.209 28.6725 119.543 29.3769C118.849 30.1124 118.006 30.254 117.54 30.254V24.254C116.912 24.254 115.952 24.4406 115.181 25.2571C114.439 26.0425 114.306 26.955 114.306 27.488H120.306ZM115.161 30.6457L115.359 32.1037L121.305 31.2963L121.107 29.8383L115.161 30.6457ZM115.422 32.4276C115.245 31.7195 115.336 30.9165 115.77 30.2225C116.212 29.5153 116.854 29.1592 117.364 29.0134L119.012 34.7826C119.648 34.6008 120.371 34.1817 120.858 33.4025C121.337 32.6365 121.437 31.7525 121.242 30.9724L115.422 32.4276ZM117.518 28.9738C116.122 29.2936 113.277 29.492 111.276 29.492V35.492C113.415 35.492 116.798 35.2944 118.858 34.8222L117.518 28.9738ZM111.276 29.492H108.468V35.492H111.276V29.492ZM108.468 29.492C109.045 29.492 109.89 29.6954 110.548 30.4359C111.156 31.1194 111.252 31.8688 111.252 32.258H105.252C105.252 32.7912 105.384 33.6576 106.064 34.4221C106.794 35.2436 107.747 35.492 108.468 35.492V29.492ZM111.252 32.258V30.764H105.252V32.258H111.252ZM111.252 30.764C111.252 31.1532 111.156 31.9026 110.548 32.5861C109.89 33.3266 109.045 33.53 108.468 33.53V27.53C107.747 27.53 106.794 27.7784 106.064 28.5999C105.384 29.3644 105.252 30.2308 105.252 30.764H111.252ZM108.468 33.53H109.926V27.53H108.468V33.53ZM112.926 30.53V26.552H106.926V30.53H112.926ZM109.926 23.552H108.828V29.552H109.926V23.552ZM108.828 23.552C109.124 23.552 109.959 23.6097 110.706 24.3134C111.492 25.053 111.594 25.9446 111.594 26.336H105.594C105.594 26.8714 105.732 27.871 106.594 28.6826C107.418 29.4583 108.37 29.552 108.828 29.552V23.552ZM111.594 26.336V24.824H105.594V26.336H111.594ZM111.594 24.824C111.594 25.3188 111.444 26.1173 110.772 26.7901C110.093 27.4686 109.294 27.608 108.828 27.608V21.608C108.2 21.608 107.284 21.7924 106.529 22.5474C105.78 23.2967 105.594 24.2031 105.594 24.824H111.594ZM108.828 27.608H117.414V21.608H108.828V27.608ZM117.414 27.608C116.948 27.608 116.149 27.4686 115.47 26.7901C114.798 26.1173 114.648 25.3189 114.648 24.824H120.648C120.648 24.2031 120.462 23.2967 119.713 22.5474C118.958 21.7924 118.042 21.608 117.414 21.608V27.608ZM114.648 24.824V26.336H120.648V24.824H114.648ZM114.648 26.336C114.648 25.9446 114.75 25.053 115.536 24.3134C116.283 23.6097 117.118 23.552 117.414 23.552V29.552C117.872 29.552 118.824 29.4583 119.648 28.6826C120.51 27.871 120.648 26.8714 120.648 26.336H114.648ZM117.414 23.552H116.226V29.552H117.414V23.552ZM113.226 26.552V30.26H119.226V26.552H113.226ZM116.498 33.2477C117.218 33.1822 117.875 33.075 118.41 32.9758L117.318 27.0762C116.881 27.157 116.422 27.2298 115.954 27.2723L116.498 33.2477ZM118.236 33.0028C118.101 33.0198 117.212 33.1357 116.319 32.5107C115.409 31.8733 115.22 30.9856 115.182 30.7786L121.086 29.7054C121.012 29.3004 120.76 28.2957 119.76 27.5953C118.777 26.9073 117.771 27.0142 117.492 27.0492L118.236 33.0028ZM117.012 30.44V26.552H111.012V30.44H117.012ZM114.012 23.552H112.14V29.552H114.012V23.552ZM109.14 26.552V30.512H115.14V26.552H109.14ZM112.226 33.5108C112.847 33.493 113.523 33.4739 114.188 33.4348L113.836 27.4452C113.277 27.4781 112.693 27.495 112.054 27.5132L112.226 33.5108ZM113.904 40.316H122.184V34.316H113.904V40.316ZM122.184 40.316C121.891 40.316 121.006 40.2588 120.24 39.4936C119.475 38.7283 119.418 37.8427 119.418 37.55H125.418C125.418 37.0953 125.325 36.0927 124.483 35.2509C123.641 34.4092 122.639 34.316 122.184 34.316V40.316ZM119.418 37.55V39.116H125.418V37.55H119.418ZM119.418 39.116C119.418 38.727 119.515 37.9315 120.181 37.2271C120.875 36.4916 121.718 36.35 122.184 36.35V42.35C122.812 42.35 123.772 42.1634 124.543 41.3469C125.285 40.5615 125.418 39.649 125.418 39.116H119.418ZM122.184 36.35H111.834V42.35H122.184V36.35ZM111.834 36.35C112.3 36.35 113.143 36.4916 113.837 37.2271C114.503 37.9315 114.6 38.727 114.6 39.116H108.6C108.6 39.649 108.733 40.5615 109.475 41.3469C110.246 42.1634 111.206 42.35 111.834 42.35V36.35ZM114.6 39.116V34.076H108.6V39.116H114.6ZM114.6 34.076C114.6 34.4674 114.498 35.359 113.712 36.0986C112.965 36.8023 112.13 36.86 111.834 36.86V30.86C111.376 30.86 110.424 30.9537 109.6 31.7294C108.738 32.541 108.6 33.5406 108.6 34.076H114.6ZM111.834 36.86H113.67V30.86H111.834V36.86ZM113.67 36.86C113.374 36.86 112.539 36.8023 111.792 36.0986C111.006 35.359 110.904 34.4674 110.904 34.076H116.904C116.904 33.5406 116.766 32.541 115.904 31.7294C115.08 30.9537 114.128 30.86 113.67 30.86V36.86ZM110.904 34.076V37.316H116.904V34.076H110.904ZM134.025 34.544L132.159 36.8933L132.191 36.9191L132.225 36.944L134.025 34.544ZM134.043 34.904L131.921 32.7827L131.84 32.8641L131.765 32.9516L134.043 34.904ZM132.963 36.164L135.084 38.2853L135.165 38.2039L135.24 38.1164L132.963 36.164ZM132.585 36.164L130.697 38.4957L130.74 38.5307L130.785 38.564L132.585 36.164ZM129.255 32.366L131.938 31.0244L129.255 25.6578L126.571 31.0244L129.255 32.366ZM125.763 36.434L127.353 38.978L127.486 38.8946L127.61 38.7977L125.763 36.434ZM125.385 36.434L123.123 38.4049L123.191 38.4825L123.263 38.5553L125.385 36.434ZM124.287 35.174L126.548 33.2031L126.481 33.1255L126.408 33.0527L124.287 35.174ZM124.305 34.796L126.048 37.2372L126.119 37.1869L126.186 37.1325L124.305 34.796ZM128.031 28.46L131.025 28.6409L131.217 25.46H128.031V28.46ZM128.049 26.426V29.426H131.049V26.426H128.049ZM130.335 26.426H127.335V29.426H130.335V26.426ZM130.353 28.46V25.46H127.139L127.36 28.6664L130.353 28.46ZM135.717 26.69H137.535V20.69H135.717V26.69ZM137.535 26.69C137.162 26.69 136.327 26.5949 135.607 25.8743C134.886 25.1538 134.787 24.3144 134.787 23.924H140.787C140.787 23.3896 140.651 22.4332 139.849 21.6317C139.048 20.8301 138.087 20.69 137.535 20.69V26.69ZM134.787 23.924V39.296H140.787V23.924H134.787ZM134.787 39.296C134.787 38.9015 134.892 37.9652 135.735 37.2158C136.496 36.5391 137.318 36.512 137.535 36.512V42.512C137.931 42.512 138.879 42.4489 139.721 41.7002C140.645 40.8788 140.787 39.8345 140.787 39.296H134.787ZM137.535 36.512H135.717V42.512H137.535V36.512ZM135.717 36.512C136.012 36.512 136.847 36.5697 137.595 37.2734C138.381 38.013 138.483 38.9046 138.483 39.296H132.483C132.483 39.8314 132.62 40.831 133.483 41.6426C134.307 42.4183 135.259 42.512 135.717 42.512V36.512ZM138.483 39.296V23.924H132.483V39.296H138.483ZM138.483 23.924C138.483 24.313 138.385 25.1085 137.72 25.8129C137.025 26.5484 136.183 26.69 135.717 26.69V20.69C135.088 20.69 134.129 20.8766 133.358 21.6931C132.616 22.4785 132.483 23.391 132.483 23.924H138.483ZM132.225 36.944C131.703 36.5531 131.128 35.7911 131.128 34.724C131.128 33.7653 131.596 33.1083 131.921 32.7827L136.164 37.0253C136.598 36.5917 137.128 35.8087 137.128 34.724C137.128 33.5309 136.49 32.6429 135.825 32.144L132.225 36.944ZM131.765 32.9516L130.685 34.2116L135.24 38.1164L136.32 36.8564L131.765 32.9516ZM130.841 34.0427C131.223 33.6614 131.891 33.245 132.787 33.245C133.599 33.245 134.153 33.5902 134.385 33.764L130.785 38.564C131.16 38.8458 131.849 39.245 132.787 39.245C133.809 39.245 134.595 38.7746 135.084 38.2853L130.841 34.0427ZM134.472 33.8323C133.134 32.7488 132.284 31.7168 131.938 31.0244L126.571 33.7076C127.449 35.4632 129.011 37.1312 130.697 38.4957L134.472 33.8323ZM126.571 31.0244C126.14 31.888 125.197 33.0682 123.915 34.0703L127.61 38.7977C129.46 37.3518 131.038 35.508 131.938 33.7076L126.571 31.0244ZM124.173 33.89C124.464 33.7076 124.937 33.5015 125.553 33.5015C126.215 33.5015 126.941 33.7482 127.506 34.3127L123.263 38.5553C124.721 40.0129 126.549 39.48 127.353 38.978L124.173 33.89ZM127.646 34.4631L126.548 33.2031L122.025 37.1449L123.123 38.4049L127.646 34.4631ZM126.408 33.0527C127.386 34.0307 127.679 36.0726 126.048 37.2372L122.561 32.3548C120.678 33.6994 120.971 36.1013 122.165 37.2953L126.408 33.0527ZM126.186 37.1325C128.561 35.2204 130.792 32.5014 131.025 28.6409L125.036 28.2791C124.945 29.7826 124.117 31.0956 122.423 32.4595L126.186 37.1325ZM128.031 25.46H124.845V31.46H128.031V25.46ZM124.845 25.46C125.22 25.46 126.009 25.5553 126.711 26.2182C127.438 26.9045 127.593 27.7436 127.593 28.244H121.593C121.593 28.8704 121.784 29.8175 122.591 30.5803C123.374 31.3197 124.289 31.46 124.845 31.46V25.46ZM127.593 28.244V26.642H121.593V28.244H127.593ZM127.593 26.642C127.593 27.1424 127.438 27.9815 126.711 28.6678C126.009 29.3307 125.22 29.426 124.845 29.426V23.426C124.289 23.426 123.374 23.5663 122.591 24.3057C121.784 25.0685 121.593 26.0156 121.593 26.642H127.593ZM124.845 29.426H128.049V23.426H124.845V29.426ZM131.049 26.426V24.392H125.049V26.426H131.049ZM131.049 24.392C131.049 24.8924 130.894 25.7315 130.167 26.4178C129.465 27.0807 128.676 27.176 128.301 27.176V21.176C127.745 21.176 126.83 21.3163 126.047 22.0557C125.24 22.8185 125.049 23.7656 125.049 24.392H131.049ZM128.301 27.176H130.119V21.176H128.301V27.176ZM130.119 27.176C129.546 27.176 128.741 26.9779 128.096 26.2928C127.48 25.6384 127.335 24.8831 127.335 24.392H133.335C133.335 23.7749 133.153 22.9116 132.465 22.1807C131.748 21.4191 130.836 21.176 130.119 21.176V27.176ZM127.335 24.392V26.426H133.335V24.392H127.335ZM130.335 29.426H133.359V23.426H130.335V29.426ZM133.359 29.426C132.991 29.426 132.101 29.3313 131.359 28.5428C130.647 27.7868 130.593 26.9381 130.593 26.642H136.593C136.593 26.2199 136.511 25.2632 135.728 24.4307C134.914 23.5657 133.907 23.426 133.359 23.426V29.426ZM130.593 26.642V28.244H136.593V26.642H130.593ZM130.593 28.244C130.593 27.9479 130.647 27.0992 131.359 26.3432C132.101 25.5547 132.991 25.46 133.359 25.46V31.46C133.907 31.46 134.914 31.3203 135.728 30.4553C136.511 29.6228 136.593 28.6661 136.593 28.244H130.593ZM133.359 25.46H130.353V31.46H133.359V25.46ZM127.36 28.6664C127.624 32.4952 130.033 35.2053 132.159 36.8933L135.89 32.1947C134.344 30.9667 133.441 29.6448 133.346 28.2536L127.36 28.6664Z" fill="#46977A"/>
<path d="M50.2734 31.6016C50.2734 31.0547 50.3646 30.5573 50.5469 30.1094C50.7344 29.6562 50.987 29.2969 51.3047 29.0312C51.6224 28.7656 51.9766 28.6328 52.3672 28.6328C52.7578 28.6328 53.112 28.7656 53.4297 29.0312C53.7526 29.2969 54.0052 29.6562 54.1875 30.1094C54.375 30.5573 54.4688 31.0547 54.4688 31.6016C54.4688 32.1536 54.375 32.6536 54.1875 33.1016C54.0052 33.5495 53.7526 33.9062 53.4297 34.1719C53.112 34.4375 52.7578 34.5703 52.3672 34.5703C51.9766 34.5703 51.6224 34.4375 51.3047 34.1719C50.987 33.9062 50.7344 33.5495 50.5469 33.1016C50.3646 32.6536 50.2734 32.1536 50.2734 31.6016ZM54.2422 26.8594C54.2422 26.3021 54.3359 25.7995 54.5234 25.3516C54.7109 24.9036 54.9635 24.5469 55.2812 24.2812C55.599 24.0156 55.9531 23.8828 56.3438 23.8828C56.7344 23.8828 57.0885 24.0156 57.4062 24.2812C57.724 24.5469 57.9766 24.9036 58.1641 25.3516C58.3516 25.7995 58.4453 26.3021 58.4453 26.8594C58.4453 27.4062 58.3516 27.9036 58.1641 28.3516C57.9766 28.7995 57.724 29.1562 57.4062 29.4219C57.0885 29.6875 56.7344 29.8203 56.3438 29.8203C55.9531 29.8203 55.599 29.6875 55.2812 29.4219C54.9635 29.1562 54.7109 28.7995 54.5234 28.3516C54.3359 27.9036 54.2422 27.4062 54.2422 26.8594ZM59.5547 26.8594C59.5547 26.3021 59.6458 25.7995 59.8281 25.3516C60.0156 24.9036 60.2682 24.5469 60.5859 24.2812C60.9089 24.0156 61.2656 23.8828 61.6562 23.8828C62.0469 23.8828 62.401 24.0156 62.7188 24.2812C63.0365 24.5469 63.2891 24.9036 63.4766 25.3516C63.6641 25.7995 63.7578 26.3021 63.7578 26.8594C63.7578 27.4062 63.6641 27.9036 63.4766 28.3516C63.2891 28.7995 63.0365 29.1562 62.7188 29.4219C62.401 29.6875 62.0469 29.8203 61.6562 29.8203C61.2656 29.8203 60.9089 29.6875 60.5859 29.4219C60.2682 29.1562 60.0156 28.7995 59.8281 28.3516C59.6458 27.9036 59.5547 27.4062 59.5547 26.8594ZM63.5312 31.6016C63.5312 31.0547 63.625 30.5573 63.8125 30.1094C64 29.6562 64.2526 29.2969 64.5703 29.0312C64.888 28.7656 65.2422 28.6328 65.6328 28.6328C66.0234 28.6328 66.3776 28.7656 66.6953 29.0312C67.013 29.2969 67.263 29.6562 67.4453 30.1094C67.6328 30.5573 67.7266 31.0547 67.7266 31.6016C67.7266 32.1536 67.6328 32.6536 67.4453 33.1016C67.263 33.5495 67.013 33.9062 66.6953 34.1719C66.3776 34.4375 66.0234 34.5703 65.6328 34.5703C65.2422 34.5703 64.888 34.4375 64.5703 34.1719C64.2526 33.9062 64 33.5495 63.8125 33.1016C63.625 32.6536 63.5312 32.1536 63.5312 31.6016ZM52.8438 37.8516C52.8438 37.3776 52.9245 36.9714 53.0859 36.6328C53.2526 36.2891 53.4609 35.9922 53.7109 35.7422C53.9661 35.4922 54.224 35.2604 54.4844 35.0469C54.7031 34.8698 54.9115 34.6953 55.1094 34.5234C55.3073 34.3464 55.4766 34.151 55.6172 33.9375C55.7266 33.7708 55.8307 33.5964 55.9297 33.4141C56.0286 33.2266 56.125 33.0312 56.2188 32.8281C56.4115 32.4219 56.612 32.0339 56.8203 31.6641C57.0286 31.2891 57.2995 30.9844 57.6328 30.75C57.9661 30.5104 58.4219 30.3906 59 30.3906C59.5781 30.3906 60.0339 30.5104 60.3672 30.75C60.7005 30.9844 60.9714 31.2891 61.1797 31.6641C61.388 32.0339 61.5885 32.4245 61.7812 32.8359C61.875 33.0391 61.9714 33.2318 62.0703 33.4141C62.1693 33.5964 62.2734 33.7734 62.3828 33.9453C62.5234 34.1589 62.6927 34.3516 62.8906 34.5234C63.0885 34.6953 63.2969 34.8698 63.5156 35.0469C63.7708 35.2604 64.026 35.4922 64.2812 35.7422C64.5365 35.9922 64.7448 36.2891 64.9062 36.6328C65.0729 36.9714 65.1562 37.3776 65.1562 37.8516C65.1562 38.4349 65.0365 38.9479 64.7969 39.3906C64.5573 39.8385 64.2214 40.1875 63.7891 40.4375C63.362 40.6927 62.8646 40.8203 62.2969 40.8203C61.8906 40.8203 61.5286 40.7734 61.2109 40.6797C60.8984 40.5911 60.6068 40.5 60.3359 40.4062C60.1172 40.3333 59.901 40.2682 59.6875 40.2109C59.4792 40.1536 59.25 40.125 59 40.125C58.75 40.125 58.5182 40.1536 58.3047 40.2109C58.0964 40.2682 57.8828 40.3333 57.6641 40.4062C57.388 40.5 57.0938 40.5911 56.7812 40.6797C56.4688 40.7734 56.1068 40.8203 55.6953 40.8203C55.1328 40.8203 54.6354 40.6927 54.2031 40.4375C53.776 40.1875 53.4427 39.8385 53.2031 39.3906C52.9635 38.9479 52.8438 38.4349 52.8438 37.8516Z" fill="#46977A"/>
</g>
<defs>
<linearGradient id="paint0_linear_1257_6046" x1="-2.2386e-05" y1="-7.98363e-07" x2="390" y2="420" gradientUnits="userSpaceOnUse">
<stop stop-color="white"/>
<stop offset="0.307292" stop-color="#69CFA8"/>
<stop offset="0.94519" stop-color="#D6DD86"/>
</linearGradient>
<linearGradient id="paint1_linear_1257_6046" x1="195" y1="8.57031" x2="195" y2="419.999" gradientUnits="userSpaceOnUse">
<stop stop-color="#FFF9D8"/>
<stop offset="0.11261" stop-color="#BEF199"/>
<stop offset="1" stop-color="#65CEA8"/>
</linearGradient>
<linearGradient id="paint2_linear_1257_6046" x1="5.81145e-05" y1="-3.06538e-05" x2="390" y2="420" gradientUnits="userSpaceOnUse">
<stop stop-color="white"/>
<stop offset="0.176441" stop-color="#69CFA8"/>
<stop offset="0.94519" stop-color="#D6DD86"/>
</linearGradient>
<linearGradient id="paint3_linear_1257_6046" x1="195" y1="8.57031" x2="195" y2="419.999" gradientUnits="userSpaceOnUse">
<stop stop-color="#FFF9D8"/>
<stop offset="0.11261" stop-color="#BEF199"/>
<stop offset="1" stop-color="#65CEA8"/>
</linearGradient>
</defs>
</svg>
