<svg width="390" height="214" viewBox="0 0 390 214" fill="none" xmlns="http://www.w3.org/2000/svg">
<mask id="mask0_1468_6384" style="mask-type:alpha" maskUnits="userSpaceOnUse" x="0" y="0" width="390" height="214">
<rect width="390" height="214" transform="matrix(-1 0 0 1 390 0)" fill="white"/>
</mask>
<g mask="url(#mask0_1468_6384)">
<path d="M111.122 45.687C106.422 43.4468 103.568 38.3007 104.465 32.9057C104.957 29.9651 106.485 27.4586 108.61 25.6873L108.766 17.6237C108.783 16.6975 109.924 16.2692 110.549 16.958L115.938 22.9087C116.702 22.8856 117.472 22.9319 118.254 23.065C119.272 23.2329 120.239 23.5281 121.142 23.9275C121.912 19.6439 124.887 16.3039 128.696 14.8567L131.058 7.64989C131.348 6.77002 132.563 6.69477 132.957 7.53412L136.25 14.5442C140.308 15.7077 143.359 18.8972 144.465 22.7987C146.977 19.1751 151.399 17.0911 156.03 17.7626L161.362 12.2692C162.004 11.6035 163.133 12.0724 163.121 12.9986L163 21.3747C165.495 24.0086 166.78 27.7306 166.137 31.5859C166.085 31.8869 166.021 32.1821 165.952 32.4715C166.93 32.3847 167.937 32.4252 168.956 32.5931C171.463 33.0099 173.657 34.185 175.347 35.8405L182.843 34.758C183.758 34.6249 184.366 35.6842 183.792 36.4078L178.832 42.6479C179.011 43.8578 179.011 45.1139 178.803 46.3816C177.79 52.4423 172.395 56.6738 166.398 56.3728C159.37 81.9933 135.793 148.29 96.9631 230.367L10.8167 216C10.8167 216 89.2642 117.848 111.128 45.6812L111.122 45.687Z" fill="url(#paint0_radial_1468_6384)"/>
<circle cx="110.049" cy="18.9007" r="4.72497" fill="#CBEFFF"/>
<circle cx="131.649" cy="8.77575" r="4.72497" fill="#CBEFFF"/>
<circle cx="161.348" cy="14.1742" r="4.72497" fill="#CBEFFF"/>
<circle cx="182.273" cy="36.4496" r="4.72497" fill="#CBEFFF"/>
<path d="M5.38038 211.669C5.57719 211.426 25.1196 186.9 47.0527 153.956C74.3519 112.944 93.6049 76.5741 102.988 48.3371C98.7162 44.0941 96.586 37.9234 97.6106 31.7643C98.1605 28.4532 99.5903 25.3621 101.715 22.8035L101.819 17.4895C101.865 15.1683 102.907 12.9918 104.69 11.5157C106.479 10.028 108.817 9.39703 111.104 9.77908C112.864 10.0743 114.49 10.9657 115.694 12.2913L117.836 14.6589C119.243 12.8007 120.985 11.2031 122.982 9.96431L124.447 5.4897C125.68 1.72131 129.419 -0.542047 133.338 0.112068C135.914 0.540427 138.119 2.21334 139.237 4.58668L141.373 9.13075C143.132 10.0164 144.742 11.1683 146.137 12.5345C148.325 11.4867 150.71 10.8673 153.176 10.7284L156.365 7.44047C158.189 5.56496 160.811 4.69666 163.387 5.12502C167.306 5.77914 170.113 9.13654 170.055 13.1075L169.968 19.0062C171.514 21.2695 172.539 23.8107 172.984 26.4735C174.501 26.9829 175.948 27.6775 177.285 28.5516L181.841 27.8917C182.663 27.7759 183.485 27.7817 184.301 27.9149C187.068 28.3779 189.412 30.294 190.426 32.922C191.433 35.5443 190.97 38.537 189.221 40.7367L185.893 44.9161C185.87 45.7901 185.789 46.6642 185.644 47.5267C184.388 55.0462 178.831 60.8695 171.803 62.7219C164.128 88.7418 141.865 151.693 103.237 233.342L100.991 238.088L95.8161 237.226L9.66977 222.859L-2.00013 220.914L5.38617 211.669H5.38038ZM121.726 175.583C122.716 173.29 123.688 171.021 124.644 168.775C125.599 166.529 126.542 164.301 127.468 162.095C131.173 153.279 134.64 144.828 137.853 136.787C139.462 132.764 141.008 128.851 142.49 125.042C145.459 117.424 148.18 110.241 150.646 103.538C151.879 100.186 153.054 96.9558 154.16 93.8589C156.377 87.6535 158.345 81.9575 160.058 76.8172C160.487 75.5321 160.898 74.2818 161.297 73.0662C163.474 66.3861 165.17 60.7827 166.38 56.3775C169.749 56.5454 172.932 55.2835 175.253 53.0664C177.06 51.3414 178.339 49.0376 178.785 46.3864C178.848 46.0217 178.883 45.657 178.912 45.2981C178.923 45.1592 178.923 45.0203 178.929 44.8871C178.941 44.6729 178.941 44.4588 178.941 44.2446C178.941 44.0709 178.935 43.903 178.923 43.7294C178.912 43.5557 178.895 43.3879 178.877 43.22C178.86 43.0348 178.842 42.8437 178.813 42.6585C178.426 40.0478 177.181 37.6629 175.329 35.8511C175.178 35.7006 175.016 35.5616 174.854 35.4227C174.756 35.3417 174.663 35.2548 174.565 35.1738C174.408 35.0464 174.252 34.9249 174.09 34.8033C173.968 34.7107 173.847 34.6297 173.72 34.5428C173.569 34.4386 173.419 34.3344 173.256 34.236C172.99 34.0682 172.712 33.9119 172.429 33.7672C172.313 33.7093 172.197 33.6572 172.081 33.6051C171.873 33.5067 171.659 33.4083 171.439 33.3214C171.311 33.2693 171.184 33.223 171.057 33.1767C170.825 33.0957 170.594 33.0146 170.356 32.9452C170.241 32.9104 170.131 32.8757 170.015 32.8468C169.662 32.7541 169.303 32.6731 168.932 32.6094C167.919 32.4416 166.912 32.4068 165.928 32.4879C165.997 32.1984 166.067 31.9032 166.113 31.6022C166.177 31.2375 166.212 30.8671 166.241 30.5082C166.241 30.4387 166.252 30.375 166.258 30.3056C166.275 29.964 166.281 29.6225 166.27 29.2868C166.27 29.1999 166.264 29.1189 166.258 29.0321C166.241 28.7021 166.217 28.3779 166.171 28.0538C166.16 27.9727 166.142 27.8975 166.131 27.8222C166.09 27.5733 166.044 27.3244 165.992 27.0755C165.969 26.9597 165.94 26.8382 165.911 26.7224C165.847 26.4619 165.766 26.2014 165.685 25.9467C165.633 25.7904 165.581 25.6399 165.523 25.4836C165.471 25.3389 165.413 25.2 165.355 25.0611C165.245 24.7948 165.123 24.5285 164.99 24.268C164.95 24.1928 164.909 24.1175 164.874 24.0365C164.359 23.0698 163.723 22.1783 162.97 21.3853C161.239 19.5619 158.935 18.2536 156.261 17.8079C156.174 17.7905 156.087 17.7848 156.001 17.7732C153.975 17.478 151.989 17.7153 150.189 18.3694C150.189 18.3694 150.177 18.3694 150.171 18.3694C149.922 18.462 149.674 18.5604 149.43 18.6704C149.413 18.6762 149.396 18.6878 149.378 18.6936C149.147 18.7978 148.921 18.9077 148.695 19.0235C148.666 19.0409 148.637 19.0583 148.608 19.0698C148.4 19.1856 148.192 19.3014 147.989 19.4229C147.943 19.4519 147.902 19.4808 147.856 19.5098C147.671 19.6255 147.485 19.7471 147.312 19.8744C147.254 19.915 147.196 19.9671 147.132 20.0076C146.976 20.1234 146.814 20.2449 146.663 20.3723C146.588 20.4359 146.519 20.4996 146.443 20.5633C146.31 20.6791 146.177 20.7891 146.05 20.9106C145.957 20.9974 145.87 21.0901 145.784 21.1769C145.679 21.2811 145.569 21.3853 145.471 21.4953C145.361 21.6168 145.251 21.75 145.147 21.8773C145.077 21.9584 145.002 22.0394 144.933 22.1262C144.759 22.3404 144.591 22.5662 144.435 22.7919C144.36 22.5372 144.279 22.2825 144.192 22.0278C144.163 21.941 144.122 21.8542 144.093 21.7673C144.03 21.6052 143.972 21.4432 143.902 21.2869C143.856 21.1827 143.804 21.0785 143.758 20.9743C143.694 20.8411 143.63 20.708 143.567 20.5749C143.509 20.4591 143.445 20.3491 143.387 20.2391C143.323 20.1234 143.26 20.0076 143.19 19.8918C143.121 19.7703 143.046 19.6545 142.97 19.5387C142.907 19.4403 142.837 19.3361 142.774 19.2435C142.687 19.1219 142.6 18.9946 142.513 18.8788C142.449 18.7978 142.386 18.7167 142.322 18.6357C142.218 18.5083 142.114 18.3752 142.009 18.2478C141.957 18.19 141.905 18.1263 141.853 18.0684C141.726 17.9295 141.604 17.7905 141.471 17.6516C141.442 17.6227 141.419 17.5995 141.39 17.5706C139.989 16.1697 138.241 15.1046 136.238 14.5315C135.798 14.4042 135.352 14.2942 134.889 14.219C132.724 13.8601 130.6 14.1148 128.684 14.8383C127.978 15.1046 127.3 15.4404 126.658 15.834C126.635 15.8514 126.612 15.8629 126.588 15.8803C126.218 16.1118 125.865 16.3607 125.523 16.627C125.471 16.6675 125.413 16.7081 125.361 16.7544C125.199 16.8875 125.043 17.0207 124.892 17.1596C124.806 17.2406 124.719 17.3217 124.632 17.4027C124.424 17.6053 124.221 17.8079 124.024 18.0279C123.908 18.1552 123.793 18.2826 123.683 18.4157C123.584 18.5373 123.486 18.6588 123.393 18.7804C123.254 18.9598 123.121 19.1451 122.994 19.3361C122.918 19.4519 122.837 19.5676 122.768 19.6834C122.623 19.915 122.49 20.1465 122.363 20.3838C122.311 20.4823 122.259 20.5807 122.207 20.6849C122.068 20.9627 121.934 21.2521 121.813 21.5416C121.801 21.5763 121.784 21.6052 121.772 21.64C121.651 21.9526 121.541 22.2709 121.448 22.6009C121.419 22.6877 121.396 22.7745 121.373 22.8672C121.28 23.2087 121.193 23.556 121.13 23.9149C120.227 23.5155 119.26 23.2203 118.241 23.0524C117.848 22.9887 117.46 22.9424 117.072 22.9193C116.69 22.8961 116.308 22.8903 115.932 22.8961C113.188 22.9714 110.623 23.9902 108.597 25.6804C108.366 25.8773 108.14 26.0856 107.92 26.294C107.88 26.3346 107.833 26.3751 107.793 26.4156C107.602 26.6066 107.417 26.815 107.237 27.0176C107.173 27.0871 107.116 27.1565 107.052 27.2318C106.89 27.4228 106.739 27.6196 106.595 27.8222C106.519 27.9206 106.45 28.0248 106.38 28.129C106.253 28.3143 106.126 28.5053 106.01 28.7021C105.929 28.8352 105.854 28.9684 105.778 29.1073C105.68 29.2868 105.582 29.4662 105.495 29.6514C105.414 29.8193 105.338 29.9988 105.263 30.1724C105.194 30.3403 105.118 30.5024 105.055 30.6702C104.974 30.8902 104.904 31.1218 104.835 31.3475C104.794 31.4806 104.748 31.6138 104.707 31.7469C104.609 32.1174 104.522 32.4994 104.459 32.8873C103.799 36.8467 105.165 40.6672 107.799 43.3068C108.754 44.2619 109.865 45.0666 111.115 45.6628C89.2518 117.83 10.8044 215.976 10.8044 215.982L96.9507 230.349C102.409 218.806 107.573 207.577 112.424 196.729C115.66 189.499 118.762 182.431 121.72 175.56L121.726 175.583ZM109.964 16.6386C109.39 16.546 108.777 16.9512 108.765 17.6285L108.667 22.7977C110.276 21.7847 112.088 21.0843 114.004 20.7775L110.548 16.9628C110.38 16.7775 110.178 16.6733 109.964 16.6386ZM132.203 6.96581C131.74 6.89055 131.231 7.12789 131.057 7.65465L129.575 12.1814C131.312 11.753 133.153 11.6488 135.017 11.9209L132.956 7.53888C132.8 7.20314 132.51 7.0179 132.203 6.96581ZM162.252 11.9788C161.945 11.9267 161.615 12.0135 161.355 12.2798L157.94 15.7993C159.838 16.2971 161.552 17.1712 163.034 18.3173L163.109 13.0091C163.115 12.4534 162.71 12.0598 162.246 11.9845L162.252 11.9788ZM183.161 34.7686C183.057 34.7512 182.952 34.7512 182.837 34.7686L178.096 35.4516C179.253 36.8872 180.133 38.5486 180.672 40.3315L183.786 36.4183C184.29 35.7816 183.89 34.8902 183.161 34.7686Z" fill="#786565"/>
<path d="M249.042 100.74C249.714 100.52 250.385 100.352 251.057 100.225C251.057 100.225 255.167 99.0847 261.239 103.189C261.239 103.189 256.869 99.05 252.249 98.0833C253.708 95.982 255.838 94.3207 258.46 93.4698C261.094 92.6131 263.809 92.7172 266.24 93.5624C266.24 93.5624 268.724 94.0776 273.36 97.3134C273.36 97.3134 270.866 93.655 267.537 92.0805C268.828 90.8244 270.414 89.8287 272.243 89.2325C275.861 88.0574 279.624 88.671 282.593 90.5812C283.409 91.1427 285.024 92.4741 287.485 95.4321C287.485 95.4321 286.715 93.0704 285.036 90.6391C292.498 89.3946 299.253 95.1832 304.359 100.439C351.472 148.948 383.674 216.235 383.674 216.235L303.537 242.301C291.247 181.44 271.381 149.064 258.044 133.238C249.61 135.183 240.944 130.395 238.212 122.014C235.329 113.151 240.174 103.629 249.042 100.746V100.74Z" fill="url(#paint1_radial_1468_6384)"/>
<path d="M246.432 94.2914C247.468 92.769 248.712 91.4087 250.125 90.251C250.327 90.0831 250.53 89.9268 250.738 89.7647C251.363 89.2958 252.018 88.8617 252.701 88.4681C253.835 87.8139 255.045 87.2756 256.313 86.8646C256.625 86.7662 256.938 86.6678 257.251 86.5868C257.563 86.5057 257.876 86.4247 258.194 86.3552C258.507 86.2857 258.825 86.2279 259.143 86.1758C260.729 85.9153 262.333 85.8574 263.925 86.0021C265.742 84.5144 267.826 83.3683 270.101 82.6331C270.402 82.5347 270.703 82.4479 271.004 82.3668C275.531 81.1396 280.347 81.6317 284.515 83.6982C286.715 83.3972 288.827 83.4956 290.842 83.8777C291.849 84.0687 292.827 84.3292 293.777 84.6476C294.726 84.9659 295.652 85.3422 296.544 85.759C297.14 86.0368 297.719 86.332 298.28 86.6446C298.842 86.9572 299.398 87.2814 299.93 87.6229C300.196 87.7908 300.463 87.9644 300.723 88.1381C304.613 90.7372 307.606 93.8167 309.354 95.617C318.645 105.186 327.351 115.472 335.281 125.706C337.261 128.265 339.2 130.823 341.081 133.359C343.594 136.745 346.013 140.108 348.329 143.414C349.487 145.069 350.627 146.707 351.738 148.328C353.961 151.57 356.08 154.748 358.094 157.822C359.101 159.361 360.08 160.872 361.029 162.36C361.504 163.101 361.973 163.836 362.436 164.565C364.282 167.477 366.013 170.273 367.628 172.924C381.59 195.841 389.613 212.547 389.949 213.248L393.37 220.397L297.603 247.997L296.735 243.684C291.357 217.051 284.006 193.543 274.883 173.804C273.383 170.557 271.844 167.425 270.263 164.415C269.476 162.91 268.677 161.434 267.867 159.987C267.056 158.539 266.24 157.121 265.412 155.738C264.585 154.354 263.751 153 262.906 151.674C262.061 150.348 261.21 149.058 260.347 147.796C258.628 145.272 256.868 142.875 255.086 140.612C253.459 140.67 251.838 140.56 250.24 140.288C249.708 140.195 249.181 140.085 248.654 139.958C246.553 139.449 244.51 138.65 242.588 137.567C240.956 136.653 239.45 135.553 238.102 134.308C237.563 133.81 237.042 133.289 236.556 132.739C234.345 130.285 232.655 127.379 231.613 124.172C227.601 111.837 234.241 98.5461 246.437 94.303L246.432 94.2914ZM238.212 122.013C240.938 130.401 249.61 135.188 258.044 133.237C271.166 148.809 290.61 180.397 302.94 239.378L383.628 216.119C382.221 213.201 350.418 147.854 304.376 100.445C299.27 95.1886 292.515 89.4 285.053 90.6446C286.732 93.0758 287.502 95.4376 287.502 95.4376C285.042 92.4796 283.427 91.1482 282.61 90.5867C279.641 88.6822 275.878 88.0629 272.26 89.2379C270.431 89.8342 268.845 90.824 267.554 92.0859C270.877 93.6605 273.378 97.3189 273.378 97.3189C268.741 94.083 266.258 93.5678 266.258 93.5678C263.826 92.7169 261.117 92.6185 258.478 93.4752C255.855 94.3261 253.731 95.9875 252.266 98.0888C256.88 99.0555 261.256 103.194 261.256 103.194C255.184 99.0902 251.074 100.231 251.074 100.231C250.403 100.364 249.725 100.532 249.06 100.746C240.197 103.628 235.346 113.151 238.229 122.013H238.212Z" fill="#786565"/>
</g>
<defs>
<radialGradient id="paint0_radial_1468_6384" cx="0" cy="0" r="1" gradientUnits="userSpaceOnUse" gradientTransform="translate(149.199 -4.38651) rotate(113.8) scale(278.495)">
<stop offset="0.229958" stop-color="white"/>
<stop offset="0.342626" stop-color="#939393"/>
<stop offset="0.511234" stop-color="#1B1B1B"/>
</radialGradient>
<radialGradient id="paint1_radial_1468_6384" cx="0" cy="0" r="1" gradientUnits="userSpaceOnUse" gradientTransform="translate(266.311 99.8992) rotate(58.8298) scale(176.71 168.233)">
<stop offset="0.213494" stop-color="white"/>
<stop offset="0.384406" stop-color="#939393"/>
<stop offset="0.551784" stop-color="#1B1B1B"/>
</radialGradient>
</defs>
</svg>
