<svg width="82" height="82" viewBox="0 0 82 82" fill="none" xmlns="http://www.w3.org/2000/svg">
<path d="M80 41C80 62.5391 62.5391 80 41 80C19.4609 80 2 62.5391 2 41C2 19.4609 19.4609 2 41 2C62.5391 2 80 19.4609 80 41Z" fill="url(#paint0_linear_1290_5494)"/>
<path fill-rule="evenodd" clip-rule="evenodd" d="M82 41C82 63.6437 63.6437 82 41 82C18.3563 82 0 63.6437 0 41C0 18.3563 18.3563 0 41 0C63.6437 0 82 18.3563 82 41ZM41 80C62.5391 80 80 62.5391 80 41C80 19.4609 62.5391 2 41 2C19.4609 2 2 19.4609 2 41C2 62.5391 19.4609 80 41 80Z" fill="#A1DFDF"/>
<defs>
<linearGradient id="paint0_linear_1290_5494" x1="41" y1="2" x2="41" y2="80" gradientUnits="userSpaceOnUse">
<stop stop-color="#B6EAE4"/>
<stop offset="1" stop-color="#E5FDDA"/>
</linearGradient>
</defs>
</svg>
