<svg width="211" height="297" viewBox="0 0 211 297" fill="none" xmlns="http://www.w3.org/2000/svg">
<path d="M207.081 293.717C207.081 257.674 208.981 145.968 178.577 100.362L89.8859 105.912C30.0149 99.3625 13.1559 102.371 6.86487 108.579C4.02742 111.38 3.32324 114.968 3.32324 117.148C3.32324 121.156 6.40404 124.444 10.3288 124.78C11.6336 127.214 14.1967 128.871 17.1532 128.871C18.6496 128.871 20.0372 128.441 21.2229 127.706C22.4035 128.441 23.7963 128.871 25.2927 128.871C28.8395 128.871 31.8219 126.484 32.7332 123.232C62.7749 129.58 80.0326 140.303 91.7034 152.875C108.423 170.879 111.099 233.861 111.099 293.722H207.086L207.081 293.717Z" fill="white"/>
<path d="M206.786 194.515C202.437 149.877 193.816 117.62 181.161 98.6377L180.167 97.1465L89.9538 102.79C61.7761 99.7147 41.5412 98.5911 28.0996 99.3574C16.1182 100.036 8.89511 102.2 4.67519 106.368C0.64685 110.345 0.211914 115.233 0.211914 117.148C0.211914 122.14 3.72247 126.458 8.44982 127.613C10.4795 130.336 13.6846 131.978 17.1434 131.978C18.5414 131.978 19.9239 131.703 21.2131 131.18C22.5024 131.703 23.8849 131.978 25.2829 131.978C29.1041 131.978 32.5784 129.948 34.5201 126.8C59.2545 132.35 76.7452 141.339 89.4205 154.988C96.4985 162.61 101.599 180.426 104.576 207.936C106.906 229.424 107.988 256.685 107.988 293.722V296.829H210.188V293.722C210.188 291.895 210.188 289.875 210.198 287.68C210.25 266.461 210.333 230.946 206.786 194.521V194.515ZM203.985 287.659C203.985 288.679 203.985 289.663 203.98 290.61H114.201C114.113 231.604 111.493 169.62 93.977 150.758C79.9761 135.68 60.7199 125.966 33.3706 120.188L30.5228 119.587L29.7358 122.388C29.1766 124.377 27.3437 125.764 25.2829 125.764C24.4286 125.764 23.5897 125.521 22.8545 125.065L22.4817 124.832C21.6325 124.237 20.6695 123.191 20.9025 121.575C20.9025 121.575 19.9446 122.57 19.9808 124.817L19.5821 125.065C18.8469 125.521 18.0081 125.764 17.1537 125.764C16.025 125.764 14.8392 125.215 13.8865 124.428H13.9021C13.9021 124.428 10.5986 121.689 11.7843 118.225C11.7843 118.225 10.8109 119.768 10.5106 121.679C8.22199 121.436 6.44082 119.468 6.44082 117.154C6.44082 116.268 6.62723 113.193 9.05562 110.795C15.8282 104.111 39.905 103.572 89.5603 109.004L89.8243 109.035L176.967 103.583C204.337 146.983 204.088 248.991 203.995 287.669L203.985 287.659Z" fill="#786565"/>
<path d="M56.1328 66.7835C56.1328 81.649 64.438 97.0686 77.2997 106.068C89.4986 114.606 105.679 118.753 126.763 118.753C147.847 118.753 164.028 114.601 176.227 106.068C189.084 97.0686 197.394 81.649 197.394 66.7835C197.394 56.6453 195.033 47.5738 187.991 38.2848C187.991 38.2848 187.991 38.2744 187.986 38.2692L188.887 9.92588C188.545 6.26516 186.401 3.04456 183.165 1.30481C179.924 -0.434937 176.056 -0.434937 172.82 1.30481L148.992 17.18C148.992 17.18 148.981 17.18 148.971 17.18C142.628 15.7509 134.893 15.3263 126.769 15.3263C118.645 15.3263 110.904 15.7561 104.566 17.18C104.561 17.18 104.551 17.18 104.545 17.18L80.7171 1.30481C77.4758 -0.429759 73.6079 -0.429759 70.3718 1.30481C67.1305 3.04456 64.992 6.26516 64.6503 9.92588L65.5512 38.2692C65.5512 38.2692 65.5512 38.2796 65.546 38.2848C58.5042 47.5686 56.1432 56.6453 56.1432 66.7835H56.1328Z" fill="white"/>
<path d="M125.21 82.6175C127.758 82.6175 129.824 80.552 129.824 78.0041C129.824 75.4561 127.758 73.3906 125.21 73.3906C122.662 73.3906 120.597 75.4561 120.597 78.0041C120.597 80.552 122.662 82.6175 125.21 82.6175Z" fill="#786565"/>
<path d="M114.01 88.2196C114.869 89.1568 116.407 90.2649 118.924 90.3684C123.118 90.5393 124.992 87.7433 125.189 87.4274C125.199 87.4119 125.215 87.4119 125.225 87.4274C125.422 87.7433 127.296 90.5445 131.49 90.3684C134.006 90.2649 135.544 89.162 136.404 88.2196" stroke="#786565" stroke-width="5.17782" stroke-miterlimit="10" stroke-linecap="round"/>
<path d="M96.4623 60.5804C95.608 64.122 94.9918 67.9122 95.6908 70.5373C96.3898 73.1625 98.404 74.6226 100.325 75.0835C102.246 75.5443 104.705 75.1611 106.523 73.1418C108.34 71.1224 109.516 67.4669 110.37 63.9253C110.541 63.2107 110.706 62.4858 110.846 61.7609C111.607 57.919 108.672 54.3359 104.757 54.3359H101.915C99.7399 54.3359 97.8086 55.7598 97.1872 57.8413C96.918 58.7371 96.6798 59.6587 96.4571 60.57L96.4623 60.5804Z" fill="#F0D265"/>
<path d="M143.151 60.5803C142.296 64.122 141.68 67.9121 142.379 70.5373C143.078 73.1624 145.093 74.6226 147.013 75.0834C148.934 75.5442 151.394 75.1611 153.211 73.1417C155.029 71.1224 156.204 67.4668 157.058 63.9252C157.369 62.6359 157.649 61.3104 157.845 60.0263C158.301 57.0335 155.987 54.3411 152.963 54.3411H149.566C146.786 54.3411 144.321 56.1844 143.591 58.8665C143.436 59.436 143.291 60.0056 143.151 60.5752V60.5803Z" fill="#9AB0FF"/>
<path d="M187.981 38.2848C187.981 38.2848 187.981 38.2744 187.976 38.2692L188.876 9.92588C188.535 6.26516 186.391 3.04456 183.155 1.30481C179.914 -0.434937 176.046 -0.434937 172.81 1.30481L148.981 17.18C148.981 17.18 148.971 17.18 148.961 17.18C142.618 15.7509 134.882 15.3263 126.758 15.3263C118.634 15.3263 110.893 15.7561 104.556 17.18C104.551 17.18 104.54 17.18 104.535 17.18L80.7067 1.30481C77.4654 -0.429759 73.5976 -0.429759 70.3614 1.30481C67.1201 3.04456 64.9817 6.26516 64.6399 9.92588L65.5409 38.2692C65.5409 38.2692 65.5409 38.2796 65.5357 38.2848C58.4939 47.5686 56.1328 56.6453 56.1328 66.7835C56.1328 81.649 64.438 97.0686 77.2997 106.068C89.4986 114.606 105.679 118.753 126.763 118.753C147.847 118.753 164.028 114.601 176.227 106.068C189.084 97.0686 197.394 81.649 197.394 66.7835C197.394 56.6453 195.033 47.5738 187.991 38.2848H187.981ZM172.359 100.553C161.33 108.273 146.413 112.022 126.753 112.022C107.093 112.022 92.1755 108.268 81.1468 100.553C70.0352 92.7761 62.8536 79.5209 62.8536 66.7835C62.8536 57.6964 65.7584 48.3919 70.8275 41.2672C70.8275 41.2672 71.2106 40.708 71.3504 40.532C72.474 39.0873 74.8299 36.2188 78.6304 33.2364C78.6511 33.2209 78.6407 33.1846 78.6148 33.1898C77.9521 33.3451 74.3794 34.2306 71.6766 35.8098C71.6559 35.8201 71.6352 35.8098 71.6403 35.7839L71.3401 10.5627C71.4747 9.13367 72.2772 7.92206 73.5458 7.24377C74.7988 6.57065 76.2331 6.56547 77.4861 7.21788L100.434 21.6795C100.434 21.6795 100.455 21.7158 100.434 21.7261C98.5701 22.8394 95.9812 23.8594 93.7755 26.0289C93.7548 26.0496 93.7755 26.0858 93.7962 26.0755C94.5833 25.8373 99.875 24.2788 106.813 23.3261C115.072 22.1973 118.458 22.0575 126.758 22.0575C135.058 22.0575 138.444 22.1921 146.703 23.3261C153.641 24.2736 158.933 25.8321 159.72 26.0755C159.746 26.0858 159.762 26.0496 159.741 26.0289C157.535 23.8594 154.941 22.8394 153.082 21.7261C153.067 21.7158 153.067 21.6899 153.082 21.6795L176.03 7.21788C177.288 6.5603 178.723 6.57065 179.971 7.24377C181.239 7.92206 182.042 9.13367 182.176 10.5627L181.876 35.7839C181.876 35.7839 181.855 35.8201 181.84 35.8098C179.137 34.2306 175.564 33.3451 174.902 33.1898C174.876 33.1846 174.86 33.2209 174.886 33.2364C178.686 36.2188 181.042 39.0873 182.166 40.532C182.306 40.708 182.689 41.2672 182.689 41.2672C187.753 48.3971 190.663 57.6964 190.663 66.7835C190.663 79.5209 183.481 92.7761 172.37 100.553H172.359Z" fill="#786565"/>
<path d="M166.285 118.505C133.944 109.288 104.307 115.046 99.2374 119.939C97.7359 121.389 96.7158 123.356 96.7158 125.609C96.7158 129.616 99.7966 132.904 103.721 133.241C105.026 135.674 107.589 137.331 110.546 137.331C112.042 137.331 113.43 136.901 114.616 136.166C115.796 136.901 117.189 137.331 118.685 137.331C121.305 137.331 123.615 136.026 125.013 134.038C144.186 134.949 156.447 156.132 156.447 156.132" fill="white"/>
<path d="M159.725 117.474C163.624 118.033 166.285 118.51 166.285 118.51C153.398 108.201 104.633 110.417 97.0785 117.712C94.8417 119.872 93.6094 122.678 93.6094 125.619C93.6094 130.61 97.1199 134.929 101.847 136.083C103.877 138.807 107.082 140.448 110.541 140.448C111.939 140.448 113.321 140.174 114.611 139.651C115.9 140.174 117.282 140.448 118.68 140.448C121.575 140.448 124.329 139.283 126.344 137.269C132.888 138.004 148.401 146.382 156.442 156.142C156.442 156.142 155.924 152.228 150.213 145.295C144.021 137.782 134.478 133.07 125.158 130.947L123.449 130.864L122.465 132.262C121.595 133.5 120.177 134.24 118.675 134.24C117.821 134.24 116.982 133.997 116.242 133.541L116.06 133.427C115.206 132.837 114.212 131.786 114.45 130.15C114.45 130.15 113.544 131.087 113.528 133.199L112.974 133.541C112.239 133.997 111.395 134.24 110.546 134.24C109.417 134.24 108.361 133.826 107.533 133.111C107.253 132.832 106.834 132.361 106.44 131.75L105.938 130.812C105.492 129.803 105.27 128.56 105.731 127.209C105.731 127.209 104.907 128.513 104.54 130.207L103.986 130.16C101.651 129.958 99.8228 127.97 99.8228 125.624C99.8228 124.04 100.677 122.88 101.397 122.191C104.835 118.872 119.763 111.742 159.73 117.485L159.725 117.474Z" fill="#786565"/>
</svg>
