<svg width="61" height="27" viewBox="0 0 61 27" fill="none" xmlns="http://www.w3.org/2000/svg">
<rect x="1" y="1" width="59" height="25" rx="12.5" fill="url(#paint0_linear_1193_5340)"/>
<path d="M22.1512 8.165H23.4642C23.5942 8.165 23.6462 8.23 23.6462 8.334V14.457C23.6462 14.561 23.5942 14.613 23.4642 14.613H22.1512C22.0342 14.613 21.9822 14.561 21.9822 14.457V13.807H19.8242C19.6942 13.807 19.6552 13.742 19.6552 13.638V12.559C19.6552 12.442 19.6942 12.39 19.8242 12.39H21.9822V11.441H20.3182C20.2012 11.441 20.1492 11.376 20.1492 11.259V10.193C20.1492 10.076 20.2012 10.011 20.3182 10.011H21.9822V8.334C21.9822 8.23 22.0342 8.165 22.1512 8.165ZM19.7072 9.114V10.401C19.7072 12.351 17.9262 14.002 14.6762 14.73C14.5592 14.756 14.4682 14.743 14.4292 14.639L14.0912 13.56C14.0652 13.443 14.1042 13.352 14.2212 13.339C17.0292 12.702 18.0302 11.454 18.0302 10.453V10.401H14.5982C14.4812 10.401 14.4292 10.336 14.4292 10.232V9.114C14.4292 9.01 14.4812 8.958 14.5982 8.958H19.5382C19.6682 8.958 19.7072 9.01 19.7072 9.114ZM15.8722 15.198H23.4772C23.5942 15.198 23.6462 15.25 23.6462 15.354V19.553C23.6462 19.644 23.5942 19.709 23.4772 19.709H22.1642C22.0342 19.709 21.9822 19.644 21.9822 19.553V16.641H15.8722C15.7552 16.641 15.7032 16.576 15.7032 16.472V15.354C15.7032 15.25 15.7552 15.198 15.8722 15.198ZM33.3287 12.819H31.7297C31.6127 12.819 31.5607 12.754 31.5607 12.65V11.61C31.5607 11.493 31.6127 11.441 31.7297 11.441H33.3287V10.648H31.7297C31.6127 10.648 31.5607 10.583 31.5607 10.479V9.439C31.5607 9.322 31.6127 9.27 31.7297 9.27H33.3287V8.334C33.3287 8.23 33.3807 8.165 33.4977 8.165H34.8107C34.9407 8.165 34.9927 8.23 34.9927 8.334V13.716C34.9927 13.82 34.9407 13.885 34.8107 13.885H33.4977C33.3807 13.885 33.3287 13.82 33.3287 13.716V12.819ZM31.2747 13.573C30.2997 13.729 28.8957 13.82 27.4657 13.82H25.7887C25.6847 13.82 25.6327 13.755 25.6327 13.664V10.752C25.6327 10.648 25.6847 10.57 25.7887 10.57H29.1557V9.92H25.7627C25.6587 9.92 25.6067 9.855 25.6067 9.738V8.802C25.6067 8.698 25.6587 8.646 25.7627 8.646H30.6377C30.7417 8.646 30.7937 8.698 30.7937 8.802V11.636C30.7937 11.74 30.7287 11.805 30.6247 11.805H27.2707V12.546H27.7127C28.7137 12.546 29.9747 12.455 31.0537 12.299C31.1707 12.273 31.2487 12.325 31.2747 12.442L31.4047 13.365C31.4177 13.469 31.3917 13.547 31.2747 13.573ZM29.1297 18.331H35.1227C35.2397 18.331 35.3047 18.383 35.3047 18.5V19.475C35.3047 19.579 35.2397 19.631 35.1227 19.631H27.6477C27.5437 19.631 27.4917 19.579 27.4917 19.475V16.563C27.4917 16.472 27.5437 16.394 27.6477 16.394H33.3547V15.744H27.6217C27.5177 15.744 27.4657 15.679 27.4657 15.562V14.613C27.4657 14.522 27.5177 14.457 27.6217 14.457H34.8237C34.9407 14.457 34.9927 14.522 34.9927 14.613V17.486C34.9927 17.59 34.9277 17.668 34.8107 17.668H29.1297V18.331ZM43.3493 9.491V10.57C43.3493 10.674 43.3103 10.739 43.1933 10.739H36.6543C36.5373 10.739 36.4853 10.674 36.4853 10.57V9.491C36.4853 9.387 36.5373 9.322 36.6543 9.322H39.0723V8.269C39.0723 8.152 39.1243 8.1 39.2413 8.1H40.5933C40.7103 8.1 40.7623 8.165 40.7623 8.269V9.322H43.1933C43.3103 9.322 43.3493 9.387 43.3493 9.491ZM45.7803 11.467H47.4313C47.5613 11.467 47.6133 11.519 47.6133 11.636V12.754C47.6133 12.871 47.5613 12.936 47.4313 12.936H45.7803V16.355C45.7803 16.459 45.7283 16.511 45.5983 16.511H44.2723C44.1683 16.511 44.1163 16.459 44.1163 16.355V8.334C44.1163 8.23 44.1813 8.165 44.2853 8.165H45.5983C45.7283 8.165 45.7803 8.23 45.7803 8.334V11.467ZM42.8033 13.365C42.8033 14.795 41.6333 15.64 39.9173 15.64C38.2143 15.64 37.0573 14.795 37.0573 13.365C37.0573 11.948 38.2143 11.103 39.9173 11.103C41.6333 11.103 42.8033 11.948 42.8033 13.365ZM38.6563 13.365C38.6563 13.937 39.1243 14.327 39.9303 14.327C40.7363 14.327 41.1913 13.937 41.1913 13.365C41.1913 12.806 40.7363 12.416 39.9303 12.416C39.1243 12.416 38.6563 12.806 38.6563 13.365ZM40.1383 18.071H46.0403C46.1573 18.071 46.2093 18.136 46.2093 18.253V19.371C46.2093 19.475 46.1573 19.54 46.0403 19.54H38.6433C38.5263 19.54 38.4743 19.475 38.4743 19.371V16.368C38.4743 16.264 38.5263 16.199 38.6433 16.199H39.9693C40.0863 16.199 40.1383 16.264 40.1383 16.368V18.071Z" fill="#1E8E95"/>
<rect x="1" y="1" width="59" height="25" rx="12.5" stroke="url(#paint1_linear_1193_5340)" stroke-width="2"/>
<defs>
<linearGradient id="paint0_linear_1193_5340" x1="30.5" y1="2" x2="30.5" y2="25" gradientUnits="userSpaceOnUse">
<stop offset="0.135417" stop-color="#E8FFF8"/>
<stop offset="1" stop-color="#9ED1D2"/>
</linearGradient>
<linearGradient id="paint1_linear_1193_5340" x1="30.5" y1="2" x2="30.5" y2="25" gradientUnits="userSpaceOnUse">
<stop stop-color="white"/>
<stop offset="1" stop-color="#7DCCD1"/>
</linearGradient>
</defs>
</svg>
