<svg width="390" height="214" viewBox="0 0 390 214" fill="none" xmlns="http://www.w3.org/2000/svg">
<mask id="mask0_912_6774" style="mask-type:alpha" maskUnits="userSpaceOnUse" x="0" y="0" width="390" height="214">
<rect width="390" height="214" fill="white"/>
</mask>
<g mask="url(#mask0_912_6774)">
<path d="M278.878 45.686C283.578 43.4458 286.432 38.2997 285.535 32.9047C285.043 29.9641 283.515 27.4576 281.39 25.6863L281.234 17.6227C281.217 16.6965 280.076 16.2682 279.451 16.957L274.062 22.9077C273.298 22.8846 272.528 22.9309 271.746 23.064C270.728 23.2319 269.761 23.5271 268.858 23.9265C268.088 19.643 265.113 16.3029 261.304 14.8558L258.942 7.64892C258.652 6.76905 257.437 6.69379 257.043 7.53315L253.75 14.5432C249.692 15.7067 246.641 18.8962 245.535 22.7978C243.023 19.1741 238.601 17.0902 233.97 17.7617L228.638 12.2682C227.996 11.6026 226.867 12.0714 226.879 12.9976L227 21.3738C224.505 24.0076 223.22 27.7297 223.863 31.5849C223.915 31.8859 223.979 32.1811 224.048 32.4706C223.07 32.3837 222.063 32.4243 221.044 32.5921C218.537 33.0089 216.343 34.184 214.653 35.8395L207.157 34.7571C206.242 34.6239 205.634 35.6833 206.208 36.4068L211.168 42.647C210.989 43.8568 210.989 45.1129 211.197 46.3806C212.21 52.4413 217.605 56.6728 223.602 56.3718C230.63 81.9923 254.207 148.289 293.037 230.366L379.183 215.999C379.183 215.999 300.736 117.847 278.872 45.6802L278.878 45.686Z" fill="url(#paint0_radial_912_6774)"/>
<circle cx="4.72497" cy="4.72497" r="4.72497" transform="matrix(-1 0 0 1 284.676 14.1748)" fill="#CBEFFF"/>
<circle cx="4.72497" cy="4.72497" r="4.72497" transform="matrix(-1 0 0 1 263.076 4.05005)" fill="#CBEFFF"/>
<circle cx="4.72497" cy="4.72497" r="4.72497" transform="matrix(-1 0 0 1 233.376 9.44995)" fill="#CBEFFF"/>
<circle cx="4.72497" cy="4.72497" r="4.72497" transform="matrix(-1 0 0 1 212.452 31.7249)" fill="#CBEFFF"/>
<path d="M384.62 211.669C384.423 211.426 364.88 186.9 342.947 153.956C315.648 112.944 296.395 76.5741 287.012 48.3371C291.284 44.0941 293.414 37.9234 292.389 31.7643C291.839 28.4532 290.41 25.3621 288.285 22.8035L288.181 17.4895C288.135 15.1683 287.093 12.9918 285.31 11.5157C283.521 10.028 281.183 9.39703 278.896 9.77908C277.136 10.0743 275.51 10.9657 274.306 12.2913L272.164 14.6589C270.757 12.8007 269.015 11.2031 267.018 9.96431L265.553 5.4897C264.32 1.72131 260.581 -0.542047 256.662 0.112068C254.086 0.540427 251.881 2.21334 250.763 4.58668L248.627 9.13075C246.868 10.0164 245.258 11.1684 243.863 12.5345C241.675 11.4867 239.29 10.8673 236.824 10.7284L233.635 7.44047C231.811 5.56496 229.189 4.69666 226.613 5.12502C222.694 5.77914 219.887 9.13654 219.945 13.1075L220.032 19.0062C218.486 21.2695 217.461 23.8107 217.016 26.4735C215.499 26.9829 214.052 27.6775 212.715 28.5516L208.159 27.8917C207.337 27.7759 206.515 27.7817 205.699 27.9149C202.932 28.3779 200.588 30.294 199.574 32.922C198.567 35.5443 199.03 38.537 200.779 40.7367L204.107 44.9161C204.13 45.7901 204.211 46.6642 204.356 47.5267C205.612 55.0462 211.169 60.8695 218.197 62.7219C225.872 88.7418 248.135 151.693 286.763 233.342L289.009 238.088L294.184 237.226L380.33 222.859L392 220.914L384.614 211.669H384.62ZM268.274 175.583C267.284 173.29 266.312 171.021 265.356 168.775C264.401 166.529 263.458 164.301 262.532 162.095C258.827 153.279 255.36 144.828 252.147 136.787C250.538 132.764 248.992 128.851 247.51 125.042C244.541 117.424 241.82 110.241 239.354 103.538C238.121 100.186 236.946 96.9558 235.84 93.8589C233.623 87.6535 231.655 81.9575 229.942 76.8172C229.513 75.5321 229.102 74.2818 228.703 73.0662C226.526 66.3861 224.83 60.7827 223.62 56.3775C220.251 56.5454 217.068 55.2835 214.747 53.0664C212.94 51.3414 211.661 49.0376 211.215 46.3864C211.152 46.0217 211.117 45.657 211.088 45.2981C211.077 45.1592 211.077 45.0203 211.071 44.8871C211.059 44.6729 211.059 44.4588 211.059 44.2446C211.059 44.0709 211.065 43.903 211.077 43.7294C211.088 43.5557 211.105 43.3879 211.123 43.22C211.14 43.0348 211.158 42.8437 211.187 42.6585C211.574 40.0478 212.819 37.6629 214.671 35.8511C214.822 35.7006 214.984 35.5616 215.146 35.4227C215.244 35.3417 215.337 35.2548 215.435 35.1738C215.592 35.0464 215.748 34.9249 215.91 34.8033C216.032 34.7107 216.153 34.6297 216.28 34.5428C216.431 34.4386 216.581 34.3344 216.744 34.236C217.01 34.0682 217.288 33.9119 217.571 33.7672C217.687 33.7093 217.803 33.6572 217.919 33.6051C218.127 33.5067 218.341 33.4083 218.561 33.3214C218.689 33.2693 218.816 33.223 218.943 33.1767C219.175 33.0957 219.406 33.0146 219.644 32.9452C219.759 32.9104 219.869 32.8757 219.985 32.8468C220.338 32.7541 220.697 32.6731 221.068 32.6094C222.081 32.4416 223.088 32.4068 224.072 32.4879C224.003 32.1984 223.933 31.9032 223.887 31.6022C223.823 31.2375 223.788 30.8671 223.759 30.5082C223.759 30.4387 223.748 30.375 223.742 30.3056C223.725 29.964 223.719 29.6225 223.73 29.2868C223.73 29.1999 223.736 29.1189 223.742 29.0321C223.759 28.7021 223.783 28.3779 223.829 28.0538C223.84 27.9727 223.858 27.8975 223.869 27.8222C223.91 27.5733 223.956 27.3244 224.008 27.0755C224.031 26.9597 224.06 26.8382 224.089 26.7224C224.153 26.4619 224.234 26.2014 224.315 25.9467C224.367 25.7904 224.419 25.6399 224.477 25.4836C224.529 25.3389 224.587 25.2 224.645 25.0611C224.755 24.7948 224.877 24.5285 225.01 24.268C225.05 24.1928 225.091 24.1175 225.126 24.0365C225.641 23.0698 226.277 22.1783 227.03 21.3853C228.761 19.5619 231.065 18.2536 233.739 17.8079C233.826 17.7905 233.913 17.7848 233.999 17.7732C236.025 17.478 238.011 17.7153 239.811 18.3694C239.811 18.3694 239.823 18.3694 239.829 18.3694C240.078 18.462 240.326 18.5604 240.57 18.6704C240.587 18.6762 240.604 18.6878 240.622 18.6936C240.853 18.7978 241.079 18.9077 241.305 19.0235C241.334 19.0409 241.363 19.0583 241.392 19.0698C241.6 19.1856 241.808 19.3014 242.011 19.4229C242.057 19.4519 242.098 19.4808 242.144 19.5098C242.329 19.6255 242.515 19.7471 242.688 19.8744C242.746 19.915 242.804 19.9671 242.868 20.0076C243.024 20.1234 243.186 20.2449 243.337 20.3723C243.412 20.4359 243.481 20.4996 243.557 20.5633C243.69 20.6791 243.823 20.7891 243.95 20.9106C244.043 20.9974 244.13 21.0901 244.216 21.1769C244.321 21.2811 244.431 21.3853 244.529 21.4953C244.639 21.6168 244.749 21.75 244.853 21.8773C244.923 21.9584 244.998 22.0394 245.067 22.1262C245.241 22.3404 245.409 22.5662 245.565 22.7919C245.64 22.5372 245.721 22.2825 245.808 22.0278C245.837 21.941 245.878 21.8542 245.907 21.7673C245.97 21.6052 246.028 21.4432 246.098 21.2869C246.144 21.1827 246.196 21.0785 246.242 20.9743C246.306 20.8411 246.37 20.708 246.433 20.5749C246.491 20.4591 246.555 20.3491 246.613 20.2391C246.677 20.1234 246.74 20.0076 246.81 19.8918C246.879 19.7703 246.954 19.6545 247.03 19.5387C247.093 19.4403 247.163 19.3361 247.226 19.2435C247.313 19.1219 247.4 18.9946 247.487 18.8788C247.551 18.7978 247.614 18.7167 247.678 18.6357C247.782 18.5083 247.886 18.3752 247.991 18.2478C248.043 18.19 248.095 18.1263 248.147 18.0684C248.274 17.9295 248.396 17.7905 248.529 17.6516C248.558 17.6227 248.581 17.5995 248.61 17.5706C250.011 16.1697 251.759 15.1046 253.762 14.5315C254.202 14.4042 254.648 14.2942 255.111 14.219C257.276 13.8601 259.4 14.1148 261.316 14.8383C262.022 15.1046 262.7 15.4404 263.342 15.834C263.365 15.8514 263.388 15.8629 263.412 15.8803C263.782 16.1118 264.135 16.3608 264.477 16.627C264.529 16.6675 264.587 16.7081 264.639 16.7544C264.801 16.8875 264.957 17.0207 265.108 17.1596C265.194 17.2406 265.281 17.3217 265.368 17.4027C265.576 17.6053 265.779 17.8079 265.976 18.0279C266.092 18.1552 266.207 18.2826 266.317 18.4157C266.416 18.5373 266.514 18.6588 266.607 18.7804C266.746 18.9598 266.879 19.1451 267.006 19.3361C267.082 19.4519 267.163 19.5676 267.232 19.6834C267.377 19.915 267.51 20.1465 267.637 20.3838C267.689 20.4823 267.741 20.5807 267.793 20.6849C267.932 20.9627 268.066 21.2521 268.187 21.5416C268.199 21.5763 268.216 21.6052 268.228 21.64C268.349 21.9526 268.459 22.2709 268.552 22.6009C268.581 22.6877 268.604 22.7745 268.627 22.8672C268.72 23.2087 268.807 23.556 268.87 23.9149C269.773 23.5155 270.74 23.2203 271.759 23.0524C272.152 22.9887 272.54 22.9424 272.928 22.9193C273.31 22.8961 273.692 22.8903 274.068 22.8961C276.812 22.9714 279.377 23.9902 281.403 25.6804C281.634 25.8773 281.86 26.0856 282.08 26.294C282.12 26.3346 282.167 26.3751 282.207 26.4156C282.398 26.6066 282.583 26.815 282.763 27.0176C282.827 27.0871 282.884 27.1565 282.948 27.2318C283.11 27.4228 283.261 27.6196 283.405 27.8222C283.481 27.9206 283.55 28.0248 283.62 28.129C283.747 28.3143 283.874 28.5053 283.99 28.7021C284.071 28.8352 284.146 28.9684 284.222 29.1073C284.32 29.2868 284.418 29.4662 284.505 29.6514C284.586 29.8193 284.662 29.9988 284.737 30.1724C284.806 30.3403 284.882 30.5024 284.945 30.6702C285.026 30.8902 285.096 31.1218 285.165 31.3475C285.206 31.4806 285.252 31.6138 285.293 31.7469C285.391 32.1174 285.478 32.4994 285.541 32.8873C286.201 36.8467 284.835 40.6672 282.201 43.3068C281.246 44.2619 280.135 45.0666 278.885 45.6628C300.748 117.83 379.196 215.976 379.196 215.982L293.049 230.349C287.591 218.806 282.427 207.577 277.576 196.729C274.34 189.499 271.238 182.431 268.28 175.56L268.274 175.583ZM280.036 16.6386C280.61 16.546 281.223 16.9512 281.235 17.6285L281.333 22.7977C279.724 21.7847 277.912 21.0843 275.996 20.7775L279.452 16.9628C279.62 16.7775 279.822 16.6733 280.036 16.6386ZM257.797 6.96581C258.26 6.89055 258.769 7.12789 258.943 7.65465L260.425 12.1814C258.688 11.753 256.847 11.6488 254.983 11.9209L257.044 7.53888C257.2 7.20314 257.49 7.0179 257.797 6.96581ZM227.748 11.9788C228.055 11.9267 228.385 12.0135 228.645 12.2798L232.06 15.7993C230.162 16.2971 228.448 17.1712 226.966 18.3173L226.891 13.0091C226.885 12.4534 227.29 12.0598 227.754 11.9845L227.748 11.9788ZM206.839 34.7686C206.943 34.7512 207.048 34.7512 207.163 34.7686L211.904 35.4516C210.747 36.8872 209.867 38.5486 209.328 40.3315L206.214 36.4183C205.71 35.7816 206.11 34.8902 206.839 34.7686Z" fill="#786565"/>
<path d="M140.958 100.741C140.286 100.521 139.615 100.353 138.943 100.225C138.943 100.225 134.833 99.085 128.761 103.189C128.761 103.189 133.131 99.0503 137.751 98.0836C136.292 95.9823 134.162 94.3209 131.54 93.47C128.906 92.6133 126.191 92.7175 123.76 93.5626C123.76 93.5626 121.276 94.0778 116.64 97.3137C116.64 97.3137 119.134 93.6553 122.463 92.0807C121.172 90.8246 119.586 89.829 117.757 89.2327C114.139 88.0576 110.376 88.6712 107.407 90.5815C106.591 91.143 104.976 92.4744 102.515 95.4324C102.515 95.4324 103.285 93.0706 104.964 90.6394C97.5024 89.3948 90.7471 95.1835 85.6415 100.44C38.5278 148.948 6.32568 216.235 6.32568 216.235L86.4635 242.301C98.7527 181.44 118.619 149.064 131.956 133.238C140.39 135.183 149.056 130.396 151.788 122.014C154.671 113.151 149.826 103.629 140.958 100.746V100.741Z" fill="url(#paint1_radial_912_6774)"/>
<path d="M143.568 94.2921C142.532 92.7697 141.288 91.4094 139.875 90.2517C139.673 90.0838 139.47 89.9275 139.262 89.7654C138.637 89.2966 137.982 88.8624 137.299 88.4688C136.165 87.8147 134.955 87.2763 133.687 86.8653C133.375 86.7669 133.062 86.6685 132.749 86.5875C132.437 86.5064 132.124 86.4254 131.806 86.3559C131.493 86.2865 131.175 86.2286 130.857 86.1765C129.271 85.916 127.667 85.8581 126.075 86.0028C124.258 84.5151 122.174 83.369 119.899 82.6338C119.598 82.5354 119.297 82.4486 118.996 82.3676C114.469 81.1404 109.653 81.6324 105.485 83.699C103.285 83.3979 101.173 83.4964 99.1581 83.8784C98.1509 84.0694 97.1726 84.3299 96.2232 84.6483C95.2739 84.9667 94.3477 85.3429 93.4563 85.7597C92.86 86.0376 92.2812 86.3328 91.7197 86.6454C91.1582 86.958 90.6025 87.2821 90.0699 87.6236C89.8037 87.7915 89.5374 87.9652 89.2769 88.1388C85.3869 90.7379 82.3942 93.8175 80.646 95.6177C71.3553 105.186 62.6492 115.473 54.7188 125.707C52.7391 128.266 50.7999 130.824 48.9186 133.36C46.4063 136.746 43.9867 140.109 41.6712 143.414C40.5135 145.07 39.3731 146.708 38.2617 148.329C36.0389 151.571 33.9202 154.749 31.9058 157.822C30.8986 159.362 29.9203 160.873 28.971 162.361C28.4963 163.102 28.0274 163.837 27.5643 164.566C25.7177 167.478 23.9869 170.274 22.3719 172.925C8.40974 195.842 0.386703 212.548 0.0509627 213.248L-3.37012 220.397L92.397 247.998L93.2653 243.685C98.6429 217.052 105.994 193.544 115.117 173.805C116.617 170.557 118.156 167.426 119.737 164.416C120.524 162.911 121.323 161.434 122.133 159.987C122.944 158.54 123.76 157.122 124.588 155.738C125.415 154.355 126.249 153 127.094 151.675C127.939 150.349 128.79 149.058 129.653 147.796C131.372 145.273 133.132 142.876 134.914 140.613C136.541 140.671 138.162 140.561 139.76 140.289C140.292 140.196 140.819 140.086 141.346 139.959C143.447 139.449 145.49 138.65 147.412 137.568C149.044 136.653 150.55 135.553 151.898 134.309C152.437 133.811 152.958 133.29 153.444 132.74C155.655 130.286 157.345 127.38 158.387 124.173C162.399 111.837 155.759 98.5468 143.563 94.3037L143.568 94.2921ZM151.788 122.014C149.062 130.402 140.39 135.189 131.956 133.238C118.834 148.809 99.3896 180.398 87.0598 239.378L6.37215 216.12C7.77878 213.202 39.5815 147.854 85.6243 100.445C90.7298 95.1894 97.4852 89.4008 104.947 90.6453C103.268 93.0765 102.498 95.4383 102.498 95.4383C104.958 92.4803 106.573 91.1489 107.39 90.5874C110.359 88.683 114.122 88.0636 117.74 89.2387C119.569 89.8349 121.155 90.8248 122.446 92.0867C119.123 93.6612 116.622 97.3196 116.622 97.3196C121.259 94.0838 123.742 93.5686 123.742 93.5686C126.174 92.7176 128.883 92.6192 131.522 93.4759C134.145 94.3269 136.269 95.9882 137.734 98.0895C133.12 99.0562 128.744 103.195 128.744 103.195C134.816 99.0909 138.926 100.231 138.926 100.231C139.597 100.364 140.275 100.532 140.94 100.746C149.803 103.629 154.654 113.152 151.771 122.014H151.788Z" fill="#786565"/>
</g>
<defs>
<radialGradient id="paint0_radial_912_6774" cx="0" cy="0" r="1" gradientUnits="userSpaceOnUse" gradientTransform="translate(240.801 -4.38748) rotate(66.1997) scale(278.495)">
<stop offset="0.229958" stop-color="white"/>
<stop offset="0.342626" stop-color="#939393"/>
<stop offset="0.511234" stop-color="#1B1B1B"/>
</radialGradient>
<radialGradient id="paint1_radial_912_6774" cx="0" cy="0" r="1" gradientUnits="userSpaceOnUse" gradientTransform="translate(123.689 99.8994) rotate(121.17) scale(176.71 168.233)">
<stop offset="0.213494" stop-color="white"/>
<stop offset="0.384406" stop-color="#939393"/>
<stop offset="0.551784" stop-color="#1B1B1B"/>
</radialGradient>
</defs>
</svg>
