<svg width="30" height="30" viewBox="0 0 30 30" fill="none" xmlns="http://www.w3.org/2000/svg">
<g filter="url(#filter0_d_911_6261)">
<path d="M6.27344 14.6016C6.27344 14.0547 6.36458 13.5573 6.54688 13.1094C6.73438 12.6562 6.98698 12.2969 7.30469 12.0312C7.6224 11.7656 7.97656 11.6328 8.36719 11.6328C8.75781 11.6328 9.11198 11.7656 9.42969 12.0312C9.7526 12.2969 10.0052 12.6562 10.1875 13.1094C10.375 13.5573 10.4688 14.0547 10.4688 14.6016C10.4688 15.1536 10.375 15.6536 10.1875 16.1016C10.0052 16.5495 9.7526 16.9062 9.42969 17.1719C9.11198 17.4375 8.75781 17.5703 8.36719 17.5703C7.97656 17.5703 7.6224 17.4375 7.30469 17.1719C6.98698 16.9062 6.73438 16.5495 6.54688 16.1016C6.36458 15.6536 6.27344 15.1536 6.27344 14.6016ZM10.2422 9.85938C10.2422 9.30208 10.3359 8.79948 10.5234 8.35156C10.7109 7.90365 10.9635 7.54688 11.2812 7.28125C11.599 7.01562 11.9531 6.88281 12.3438 6.88281C12.7344 6.88281 13.0885 7.01562 13.4062 7.28125C13.724 7.54688 13.9766 7.90365 14.1641 8.35156C14.3516 8.79948 14.4453 9.30208 14.4453 9.85938C14.4453 10.4062 14.3516 10.9036 14.1641 11.3516C13.9766 11.7995 13.724 12.1562 13.4062 12.4219C13.0885 12.6875 12.7344 12.8203 12.3438 12.8203C11.9531 12.8203 11.599 12.6875 11.2812 12.4219C10.9635 12.1562 10.7109 11.7995 10.5234 11.3516C10.3359 10.9036 10.2422 10.4062 10.2422 9.85938ZM15.5547 9.85938C15.5547 9.30208 15.6458 8.79948 15.8281 8.35156C16.0156 7.90365 16.2682 7.54688 16.5859 7.28125C16.9089 7.01562 17.2656 6.88281 17.6562 6.88281C18.0469 6.88281 18.401 7.01562 18.7188 7.28125C19.0365 7.54688 19.2891 7.90365 19.4766 8.35156C19.6641 8.79948 19.7578 9.30208 19.7578 9.85938C19.7578 10.4062 19.6641 10.9036 19.4766 11.3516C19.2891 11.7995 19.0365 12.1562 18.7188 12.4219C18.401 12.6875 18.0469 12.8203 17.6562 12.8203C17.2656 12.8203 16.9089 12.6875 16.5859 12.4219C16.2682 12.1562 16.0156 11.7995 15.8281 11.3516C15.6458 10.9036 15.5547 10.4062 15.5547 9.85938ZM19.5312 14.6016C19.5312 14.0547 19.625 13.5573 19.8125 13.1094C20 12.6562 20.2526 12.2969 20.5703 12.0312C20.888 11.7656 21.2422 11.6328 21.6328 11.6328C22.0234 11.6328 22.3776 11.7656 22.6953 12.0312C23.013 12.2969 23.263 12.6562 23.4453 13.1094C23.6328 13.5573 23.7266 14.0547 23.7266 14.6016C23.7266 15.1536 23.6328 15.6536 23.4453 16.1016C23.263 16.5495 23.013 16.9062 22.6953 17.1719C22.3776 17.4375 22.0234 17.5703 21.6328 17.5703C21.2422 17.5703 20.888 17.4375 20.5703 17.1719C20.2526 16.9062 20 16.5495 19.8125 16.1016C19.625 15.6536 19.5312 15.1536 19.5312 14.6016ZM8.84375 20.8516C8.84375 20.3776 8.92448 19.9714 9.08594 19.6328C9.2526 19.2891 9.46094 18.9922 9.71094 18.7422C9.96615 18.4922 10.224 18.2604 10.4844 18.0469C10.7031 17.8698 10.9115 17.6953 11.1094 17.5234C11.3073 17.3464 11.4766 17.151 11.6172 16.9375C11.7266 16.7708 11.8307 16.5964 11.9297 16.4141C12.0286 16.2266 12.125 16.0312 12.2188 15.8281C12.4115 15.4219 12.612 15.0339 12.8203 14.6641C13.0286 14.2891 13.2995 13.9844 13.6328 13.75C13.9661 13.5104 14.4219 13.3906 15 13.3906C15.5781 13.3906 16.0339 13.5104 16.3672 13.75C16.7005 13.9844 16.9714 14.2891 17.1797 14.6641C17.388 15.0339 17.5885 15.4245 17.7812 15.8359C17.875 16.0391 17.9714 16.2318 18.0703 16.4141C18.1693 16.5964 18.2734 16.7734 18.3828 16.9453C18.5234 17.1589 18.6927 17.3516 18.8906 17.5234C19.0885 17.6953 19.2969 17.8698 19.5156 18.0469C19.7708 18.2604 20.026 18.4922 20.2812 18.7422C20.5365 18.9922 20.7448 19.2891 20.9062 19.6328C21.0729 19.9714 21.1562 20.3776 21.1562 20.8516C21.1562 21.4349 21.0365 21.9479 20.7969 22.3906C20.5573 22.8385 20.2214 23.1875 19.7891 23.4375C19.362 23.6927 18.8646 23.8203 18.2969 23.8203C17.8906 23.8203 17.5286 23.7734 17.2109 23.6797C16.8984 23.5911 16.6068 23.5 16.3359 23.4062C16.1172 23.3333 15.901 23.2682 15.6875 23.2109C15.4792 23.1536 15.25 23.125 15 23.125C14.75 23.125 14.5182 23.1536 14.3047 23.2109C14.0964 23.2682 13.8828 23.3333 13.6641 23.4062C13.388 23.5 13.0938 23.5911 12.7812 23.6797C12.4688 23.7734 12.1068 23.8203 11.6953 23.8203C11.1328 23.8203 10.6354 23.6927 10.2031 23.4375C9.77604 23.1875 9.44271 22.8385 9.20312 22.3906C8.96354 21.9479 8.84375 21.4349 8.84375 20.8516Z" fill="#FFA0E5"/>
<path d="M6.54688 13.1094L4.69881 12.3447L4.69441 12.3555L6.54688 13.1094ZM9.42969 12.0312L8.14685 13.5656L8.15298 13.5708L8.15915 13.5758L9.42969 12.0312ZM10.1875 13.1094L8.33202 13.8558L8.33723 13.8688L8.34262 13.8817L10.1875 13.1094ZM10.1875 16.1016L8.34262 15.3293L8.33878 15.3385L8.33504 15.3477L10.1875 16.1016ZM9.42969 17.1719L8.15915 15.6273L8.15298 15.6324L8.14685 15.6375L9.42969 17.1719ZM6.54688 16.1016L4.69441 16.8555L4.69816 16.8647L4.70199 16.8738L6.54688 16.1016ZM15.8281 8.35156L13.9832 7.57929L13.9794 7.58845L13.9757 7.59765L15.8281 8.35156ZM16.5859 7.28125L15.3154 5.73667L15.3092 5.74175L15.3031 5.74687L16.5859 7.28125ZM16.5859 12.4219L15.3031 13.9563L15.3092 13.9614L15.3154 13.9665L16.5859 12.4219ZM15.8281 11.3516L13.9757 12.1055L13.9794 12.1147L13.9832 12.1238L15.8281 11.3516ZM19.8125 13.1094L21.6574 13.8817L21.6605 13.8741L19.8125 13.1094ZM20.5703 12.0312L21.8532 13.5656L20.5703 12.0312ZM23.4453 13.1094L21.5898 13.8558L21.595 13.8688L21.6004 13.8817L23.4453 13.1094ZM23.4453 16.1016L21.6004 15.3293L21.5966 15.3385L21.5928 15.3477L23.4453 16.1016ZM20.5703 17.1719L21.8532 15.6375L20.5703 17.1719ZM9.08594 19.6328L7.28627 18.7602L7.28073 18.7719L9.08594 19.6328ZM9.71094 18.7422L8.31138 17.3135L8.30401 17.3207L8.29672 17.328L9.71094 18.7422ZM10.4844 18.0469L9.22595 16.4924L9.21622 16.5003L10.4844 18.0469ZM11.1094 17.5234L12.4207 19.0335L12.4319 19.0238L12.443 19.0139L11.1094 17.5234ZM11.6172 16.9375L13.2875 18.0375L13.2893 18.0348L11.6172 16.9375ZM11.9297 16.4141L13.6874 17.3682L13.693 17.3579L13.6985 17.3476L11.9297 16.4141ZM12.2188 15.8281L10.4117 14.971L10.4072 14.9805L10.4028 14.99L12.2188 15.8281ZM12.8203 14.6641L14.5628 15.6458L14.5686 15.6353L12.8203 14.6641ZM13.6328 13.75L14.7832 15.3861L14.7917 15.3801L14.8001 15.374L13.6328 13.75ZM16.3672 13.75L15.1999 15.374L15.2083 15.3801L15.2168 15.3861L16.3672 13.75ZM17.1797 14.6641L15.4313 15.6354L15.4372 15.6458L17.1797 14.6641ZM17.7812 15.8359L19.5972 14.9978L19.5924 14.9877L17.7812 15.8359ZM18.3828 16.9453L16.6955 18.0191L16.7039 18.0322L16.7125 18.0453L18.3828 16.9453ZM19.5156 18.0469L20.7991 16.513L20.7866 16.5026L20.774 16.4924L19.5156 18.0469ZM20.2812 18.7422L21.6808 17.3135L20.2812 18.7422ZM20.9062 19.6328L19.096 20.4831L19.1038 20.4997L19.1119 20.5162L20.9062 19.6328ZM20.7969 22.3906L19.0379 21.4387L19.0333 21.4473L20.7969 22.3906ZM19.7891 23.4375L18.7878 21.7062L18.7754 21.7133L18.7632 21.7207L19.7891 23.4375ZM17.2109 23.6797L17.777 21.7615L17.7666 21.7584L17.7561 21.7554L17.2109 23.6797ZM16.3359 23.4062L16.9902 21.5163L16.9793 21.5125L16.9684 21.5089L16.3359 23.4062ZM15.6875 23.2109L15.1572 25.1394L15.1692 25.1426L15.6875 23.2109ZM14.3047 23.2109L13.7864 21.2792L13.7744 21.2825L14.3047 23.2109ZM13.6641 23.4062L13.0316 21.5089L13.0209 21.5125L13.6641 23.4062ZM12.7812 23.6797L12.236 21.7554L12.2213 21.7596L12.2066 21.764L12.7812 23.6797ZM10.2031 23.4375L11.2199 21.7152L11.2135 21.7115L10.2031 23.4375ZM9.20312 22.3906L10.9667 21.4473L10.9621 21.4387L9.20312 22.3906ZM8.27344 14.6016C8.27344 14.2795 8.32641 14.0425 8.39934 13.8633L4.69441 12.3555C4.40275 13.0721 4.27344 13.8299 4.27344 14.6016H8.27344ZM8.39491 13.8741C8.4816 13.6646 8.55942 13.5891 8.58753 13.5656L6.02185 10.4969C5.41454 11.0046 4.98715 11.6479 4.69884 12.3447L8.39491 13.8741ZM8.58753 13.5656C8.58969 13.5638 8.56408 13.5851 8.51084 13.6051C8.45602 13.6256 8.40373 13.6328 8.36719 13.6328V9.63281C7.47796 9.63281 6.67595 9.95 6.02185 10.4969L8.58753 13.5656ZM8.36719 13.6328C8.33065 13.6328 8.27835 13.6256 8.22353 13.6051C8.1703 13.5851 8.14469 13.5638 8.14685 13.5656L10.7125 10.4969C10.0584 9.95 9.25641 9.63281 8.36719 9.63281V13.6328ZM8.15915 13.5758C8.18287 13.5953 8.25366 13.661 8.33202 13.8558L12.043 12.3629C11.7568 11.6515 11.3223 10.9984 10.7002 10.4867L8.15915 13.5758ZM8.34262 13.8817C8.41558 14.0559 8.46875 14.2865 8.46875 14.6016H12.4688C12.4688 13.8229 12.3344 13.0586 12.0324 12.3371L8.34262 13.8817ZM8.46875 14.6016C8.46875 14.9246 8.41464 15.1572 8.34262 15.3293L12.0324 16.8738C12.3354 16.1501 12.4688 15.3827 12.4688 14.6016H8.46875ZM8.33504 15.3477C8.25827 15.5363 8.18779 15.6037 8.15915 15.6273L10.7002 18.7165C11.3174 18.2088 11.7521 17.5627 12.04 16.8555L8.33504 15.3477ZM8.14685 15.6375C8.14469 15.6393 8.1703 15.618 8.22353 15.598C8.27835 15.5775 8.33065 15.5703 8.36719 15.5703V19.5703C9.25641 19.5703 10.0584 19.2531 10.7125 18.7063L8.14685 15.6375ZM8.36719 15.5703C8.40373 15.5703 8.45602 15.5775 8.51084 15.598C8.56408 15.618 8.58969 15.6393 8.58753 15.6375L6.02185 18.7063C6.67595 19.2531 7.47796 19.5703 8.36719 19.5703V15.5703ZM8.58753 15.6375C8.5546 15.61 8.47694 15.5328 8.39176 15.3293L4.70199 16.8738C4.99181 17.5662 5.41936 18.2025 6.02185 18.7063L8.58753 15.6375ZM8.39934 15.3477C8.3273 15.1706 8.27344 14.9315 8.27344 14.6016H4.27344C4.27344 15.3758 4.40187 16.1367 4.69441 16.8555L8.39934 15.3477ZM12.2422 9.85938C12.2422 9.52839 12.2972 9.2937 12.3683 9.12384L8.67856 7.57929C8.37466 8.30526 8.24219 9.07578 8.24219 9.85938H12.2422ZM12.3683 9.12384C12.4535 8.92035 12.5312 8.84316 12.5641 8.81563L9.99841 5.74687C9.39592 6.25059 8.96837 6.88694 8.67856 7.57929L12.3683 9.12384ZM12.5641 8.81563C12.5662 8.81383 12.5406 8.83512 12.4874 8.85508C12.4326 8.87564 12.3803 8.88281 12.3438 8.88281V4.88281C11.4545 4.88281 10.6525 5.2 9.99841 5.74687L12.5641 8.81563ZM12.3438 8.88281C12.3072 8.88281 12.2549 8.87564 12.2001 8.85508C12.1469 8.83512 12.1213 8.81383 12.1234 8.81563L14.6891 5.74687C14.035 5.2 13.233 4.88281 12.3438 4.88281V8.88281ZM12.1234 8.81563C12.1563 8.84316 12.234 8.92035 12.3192 9.12384L16.0089 7.57929C15.7191 6.88694 15.2916 6.25059 14.6891 5.74687L12.1234 8.81563ZM12.3192 9.12384C12.3903 9.2937 12.4453 9.52839 12.4453 9.85938H16.4453C16.4453 9.07578 16.3128 8.30526 16.0089 7.57929L12.3192 9.12384ZM12.4453 9.85938C12.4453 10.1745 12.3921 10.405 12.3192 10.5793L16.0089 12.1238C16.311 11.4023 16.4453 10.638 16.4453 9.85938H12.4453ZM12.3192 10.5793C12.234 10.7828 12.1563 10.86 12.1234 10.8875L14.6891 13.9563C15.2916 13.4525 15.7191 12.8162 16.0089 12.1238L12.3192 10.5793ZM12.1234 10.8875C12.1213 10.8893 12.1469 10.868 12.2001 10.848C12.2549 10.8275 12.3072 10.8203 12.3438 10.8203V14.8203C13.233 14.8203 14.035 14.5031 14.6891 13.9563L12.1234 10.8875ZM12.3438 10.8203C12.3803 10.8203 12.4326 10.8275 12.4874 10.848C12.5406 10.868 12.5662 10.8893 12.5641 10.8875L9.99841 13.9563C10.6525 14.5031 11.4545 14.8203 12.3438 14.8203V10.8203ZM12.5641 10.8875C12.5312 10.86 12.4535 10.7828 12.3683 10.5793L8.67856 12.1238C8.96837 12.8162 9.39592 13.4525 9.99841 13.9563L12.5641 10.8875ZM12.3683 10.5793C12.2954 10.405 12.2422 10.1745 12.2422 9.85938H8.24219C8.24219 10.638 8.37651 11.4023 8.67856 12.1238L12.3683 10.5793ZM17.5547 9.85938C17.5547 9.52158 17.6094 9.28034 17.6806 9.10547L13.9757 7.59765C13.6822 8.31861 13.5547 9.08259 13.5547 9.85938H17.5547ZM17.673 9.12384C17.7582 8.92035 17.8358 8.84316 17.8688 8.81563L15.3031 5.74687C14.7006 6.25059 14.2731 6.88694 13.9832 7.57929L17.673 9.12384ZM17.8565 8.82583C17.8634 8.82014 17.8424 8.83854 17.7935 8.85676C17.7427 8.87564 17.6928 8.88281 17.6562 8.88281V4.88281C16.7682 4.88281 15.9691 5.19891 15.3154 5.73667L17.8565 8.82583ZM17.6562 8.88281C17.6197 8.88281 17.5674 8.87564 17.5126 8.85508C17.4594 8.83512 17.4338 8.81383 17.4359 8.81563L20.0016 5.74687C19.3475 5.2 18.5455 4.88281 17.6562 4.88281V8.88281ZM17.4359 8.81563C17.4688 8.84316 17.5465 8.92035 17.6317 9.12384L21.3214 7.57929C21.0316 6.88694 20.6041 6.25059 20.0016 5.74687L17.4359 8.81563ZM17.6317 9.12384C17.7028 9.2937 17.7578 9.52839 17.7578 9.85938H21.7578C21.7578 9.07578 21.6253 8.30526 21.3214 7.57929L17.6317 9.12384ZM17.7578 9.85938C17.7578 10.1745 17.7046 10.405 17.6317 10.5793L21.3214 12.1238C21.6235 11.4023 21.7578 10.638 21.7578 9.85938H17.7578ZM17.6317 10.5793C17.5465 10.7828 17.4688 10.86 17.4359 10.8875L20.0016 13.9563C20.6041 13.4525 21.0316 12.8162 21.3214 12.1238L17.6317 10.5793ZM17.4359 10.8875C17.4338 10.8893 17.4594 10.868 17.5126 10.848C17.5674 10.8275 17.6197 10.8203 17.6562 10.8203V14.8203C18.5455 14.8203 19.3475 14.5031 20.0016 13.9563L17.4359 10.8875ZM17.6562 10.8203C17.6928 10.8203 17.7427 10.8275 17.7935 10.8464C17.8424 10.8646 17.8634 10.883 17.8565 10.8773L15.3154 13.9665C15.9691 14.5042 16.7682 14.8203 17.6562 14.8203V10.8203ZM17.8688 10.8875C17.8358 10.86 17.7582 10.7828 17.673 10.5793L13.9832 12.1238C14.2731 12.8162 14.7006 13.4525 15.3031 13.9563L17.8688 10.8875ZM17.6806 10.5977C17.6077 10.4185 17.5547 10.1814 17.5547 9.85938H13.5547C13.5547 10.6311 13.684 11.3888 13.9757 12.1055L17.6806 10.5977ZM21.5312 14.6016C21.5312 14.2865 21.5844 14.0559 21.6574 13.8817L17.9676 12.3371C17.6656 13.0586 17.5312 13.8229 17.5312 14.6016H21.5312ZM21.6605 13.8741C21.7472 13.6646 21.825 13.5891 21.8532 13.5656L19.2875 10.4969C18.6802 11.0046 18.2528 11.6479 17.9645 12.3447L21.6605 13.8741ZM21.8532 13.5656C21.8553 13.5638 21.8297 13.5851 21.7765 13.6051C21.7216 13.6256 21.6693 13.6328 21.6328 13.6328V9.63281C20.7436 9.63281 19.9416 9.95 19.2875 10.4969L21.8532 13.5656ZM21.6328 13.6328C21.5963 13.6328 21.544 13.6256 21.4892 13.6051C21.4359 13.5851 21.4103 13.5638 21.4125 13.5656L23.9782 10.4969C23.324 9.95 22.522 9.63281 21.6328 9.63281V13.6328ZM21.4125 13.5656C21.4355 13.5849 21.5085 13.6536 21.5898 13.8558L25.3008 12.3629C25.0175 11.6589 24.5905 11.0089 23.9782 10.4969L21.4125 13.5656ZM21.6004 13.8817C21.6734 14.0559 21.7266 14.2865 21.7266 14.6016H25.7266C25.7266 13.8229 25.5922 13.0586 25.2902 12.3371L21.6004 13.8817ZM21.7266 14.6016C21.7266 14.9246 21.6725 15.1572 21.6004 15.3293L25.2902 16.8738C25.5932 16.1501 25.7266 15.3827 25.7266 14.6016H21.7266ZM21.5928 15.3477C21.5131 15.5437 21.4403 15.6142 21.4125 15.6375L23.9782 18.7063C24.5857 18.1983 25.013 17.5553 25.2978 16.8555L21.5928 15.3477ZM21.4125 15.6375C21.4103 15.6393 21.4359 15.618 21.4892 15.598C21.544 15.5775 21.5963 15.5703 21.6328 15.5703V19.5703C22.522 19.5703 23.324 19.2531 23.9782 18.7063L21.4125 15.6375ZM21.6328 15.5703C21.6693 15.5703 21.7216 15.5775 21.7765 15.598C21.8297 15.618 21.8553 15.6393 21.8532 15.6375L19.2875 18.7063C19.9416 19.2531 20.7436 19.5703 21.6328 19.5703V15.5703ZM21.8532 15.6375C21.8202 15.61 21.7426 15.5328 21.6574 15.3293L17.9676 16.8738C18.2574 17.5662 18.685 18.2025 19.2875 18.7063L21.8532 15.6375ZM21.6574 15.3293C21.5854 15.1572 21.5312 14.9246 21.5312 14.6016H17.5312C17.5312 15.3827 17.6646 16.1501 17.9676 16.8738L21.6574 15.3293ZM10.8438 20.8516C10.8438 20.5993 10.8871 20.5022 10.8911 20.4938L7.28073 18.7719C6.96183 19.4405 6.84375 20.1559 6.84375 20.8516H10.8438ZM10.8856 20.5054C10.9627 20.3462 11.0452 20.2364 11.1252 20.1564L8.29672 17.328C7.8767 17.748 7.54248 18.2319 7.28631 18.7603L10.8856 20.5054ZM11.1105 20.1709C11.3262 19.9596 11.5403 19.7675 11.7525 19.5934L9.21622 16.5003C8.90764 16.7534 8.60611 17.0248 8.31138 17.3135L11.1105 20.1709ZM11.7428 19.6014C11.9781 19.4108 12.2042 19.2215 12.4207 19.0335L9.798 16.0134C9.6187 16.1691 9.42811 16.3288 9.22598 16.4924L11.7428 19.6014ZM12.443 19.0139C12.7645 18.7262 13.0484 18.4007 13.2875 18.0375L9.94685 15.8375C9.90476 15.9014 9.85006 15.9665 9.77579 16.033L12.443 19.0139ZM13.2893 18.0348C13.4304 17.8198 13.563 17.5975 13.6874 17.3682L10.172 15.4599C10.0985 15.5953 10.0228 15.7218 9.94509 15.8402L13.2893 18.0348ZM13.6985 17.3476C13.8149 17.127 13.9269 16.8998 14.0347 16.6662L10.4028 14.99C10.3231 15.1627 10.2424 15.3261 10.1609 15.4805L13.6985 17.3476ZM14.0258 16.6853C14.1996 16.3188 14.3787 15.9725 14.5628 15.6458L11.0778 13.6824C10.8452 14.0952 10.6233 14.5249 10.4117 14.971L14.0258 16.6853ZM14.5686 15.6353C14.6383 15.5099 14.7098 15.4377 14.7832 15.3861L12.4825 12.1139C11.8892 12.5311 11.419 13.0682 11.072 13.6928L14.5686 15.6353ZM14.8001 15.374C14.7409 15.4166 14.7073 15.4215 14.7331 15.4148C14.7625 15.407 14.8453 15.3906 15 15.3906V11.3906C14.1687 11.3906 13.2525 11.5603 12.4655 12.126L14.8001 15.374ZM15 15.3906C15.1547 15.3906 15.2375 15.407 15.2669 15.4148C15.2927 15.4215 15.2591 15.4166 15.1999 15.374L17.5345 12.126C16.7475 11.5603 15.8313 11.3906 15 11.3906V15.3906ZM15.2168 15.3861C15.2902 15.4377 15.3617 15.5099 15.4314 15.6353L18.928 13.6928C18.581 13.0682 18.1108 12.5311 17.5175 12.1139L15.2168 15.3861ZM15.4372 15.6458C15.6193 15.969 15.7971 16.3149 15.9701 16.6842L19.5924 14.9877C19.38 14.534 19.1567 14.0987 18.9222 13.6824L15.4372 15.6458ZM15.9653 16.6741C16.0758 16.9135 16.1915 17.1451 16.3126 17.3682L19.828 15.4599C19.7512 15.3185 19.6742 15.1647 19.5972 14.9978L15.9653 16.6741ZM16.3126 17.3682C16.4332 17.5905 16.5608 17.8075 16.6955 18.0191L20.0701 15.8716C19.986 15.7394 19.9053 15.6022 19.828 15.4599L16.3126 17.3682ZM16.7125 18.0453C16.956 18.4151 17.247 18.745 17.5793 19.0335L20.202 16.0134C20.1384 15.9581 20.0909 15.9026 20.0532 15.8453L16.7125 18.0453ZM17.5793 19.0335C17.7958 19.2215 18.0219 19.4108 18.2572 19.6014L20.774 16.4924C20.5719 16.3288 20.3813 16.1691 20.202 16.0134L17.5793 19.0335ZM18.2322 19.5807C18.4445 19.7584 18.6611 19.9548 18.8817 20.1709L21.6808 17.3135C21.391 17.0296 21.0971 16.7624 20.7991 16.513L18.2322 19.5807ZM18.8817 20.1709C18.9561 20.2438 19.0294 20.3414 19.096 20.4831L22.7165 18.7825C22.4602 18.2368 22.1168 17.7406 21.6808 17.3135L18.8817 20.1709ZM19.1119 20.5162C19.1131 20.5187 19.1562 20.6075 19.1562 20.8516H23.1562C23.1562 20.1477 23.0327 19.424 22.7006 18.7494L19.1119 20.5162ZM19.1562 20.8516C19.1562 21.1556 19.0958 21.3318 19.0379 21.4387L22.5558 23.3425C22.9771 22.5641 23.1562 21.7142 23.1562 20.8516H19.1562ZM19.0333 21.4473C18.9663 21.5726 18.8917 21.6461 18.7878 21.7062L20.7903 25.1688C21.551 24.7289 22.1483 24.1044 22.5604 23.3339L19.0333 21.4473ZM18.7632 21.7207C18.6879 21.7656 18.5553 21.8203 18.2969 21.8203V25.8203C19.1739 25.8203 20.036 25.6198 20.815 25.1543L18.7632 21.7207ZM18.2969 21.8203C18.0407 21.8203 17.8749 21.7903 17.777 21.7615L16.6449 25.5979C17.1824 25.7565 17.7406 25.8203 18.2969 25.8203V21.8203ZM17.7561 21.7554C17.4756 21.6759 17.2206 21.5961 16.9902 21.5163L15.6817 25.2962C15.9929 25.4039 16.3213 25.5064 16.6657 25.6039L17.7561 21.7554ZM16.9684 21.5089C16.7135 21.4239 16.4593 21.3473 16.2058 21.2793L15.1692 25.1426C15.3428 25.1892 15.5208 25.2427 15.7035 25.3036L16.9684 21.5089ZM16.2178 21.2825C15.8121 21.171 15.4018 21.125 15 21.125V25.125C15.0982 25.125 15.1462 25.1363 15.1572 25.1393L16.2178 21.2825ZM15 21.125C14.5974 21.125 14.1894 21.1711 13.7864 21.2793L14.8229 25.1426C14.8471 25.1361 14.9026 25.125 15 25.125V21.125ZM13.7744 21.2825C13.5295 21.3499 13.2819 21.4255 13.0316 21.5089L14.2965 25.3036C14.4837 25.2412 14.6632 25.1866 14.835 25.1393L13.7744 21.2825ZM13.0209 21.5125C12.7806 21.5941 12.5193 21.6752 12.236 21.7554L13.3265 25.6039C13.6682 25.5071 13.9954 25.4059 14.3072 25.3L13.0209 21.5125ZM12.2066 21.764C12.1217 21.7895 11.9604 21.8203 11.6953 21.8203V25.8203C12.2531 25.8203 12.8158 25.7574 13.3559 25.5953L12.2066 21.764ZM11.6953 21.8203C11.4463 21.8203 11.3083 21.7674 11.2199 21.7152L9.18637 25.1598C9.96255 25.618 10.8193 25.8203 11.6953 25.8203V21.8203ZM11.2135 21.7115C11.1136 21.653 11.0371 21.5789 10.9667 21.4473L7.43956 23.3339C7.84834 24.0982 8.43846 24.722 9.19277 25.1635L11.2135 21.7115ZM10.9621 21.4387C10.9042 21.3318 10.8438 21.1556 10.8438 20.8516H6.84375C6.84375 21.7142 7.0229 22.5641 7.44418 23.3425L10.9621 21.4387Z" fill="white"/>
</g>
<defs>
<filter id="filter0_d_911_6261" x="0.273438" y="0.882812" width="29.4531" height="28.9375" filterUnits="userSpaceOnUse" color-interpolation-filters="sRGB">
<feFlood flood-opacity="0" result="BackgroundImageFix"/>
<feColorMatrix in="SourceAlpha" type="matrix" values="0 0 0 0 0 0 0 0 0 0 0 0 0 0 0 0 0 0 127 0" result="hardAlpha"/>
<feOffset/>
<feGaussianBlur stdDeviation="3"/>
<feComposite in2="hardAlpha" operator="out"/>
<feColorMatrix type="matrix" values="0 0 0 0 0 0 0 0 0 0 0 0 0 0 0 0 0 0 0.15 0"/>
<feBlend mode="normal" in2="BackgroundImageFix" result="effect1_dropShadow_911_6261"/>
<feBlend mode="normal" in="SourceGraphic" in2="effect1_dropShadow_911_6261" result="shape"/>
</filter>
</defs>
</svg>
